G04 #@! TF.GenerationSoftware,KiCad,Pcbnew,7.0.5-7.0.5~ubuntu22.04.1*
G04 #@! TF.CreationDate,2023-06-24T11:50:08+02:00*
G04 #@! TF.ProjectId,Signal Generator,5369676e-616c-4204-9765-6e657261746f,2*
G04 #@! TF.SameCoordinates,Original*
G04 #@! TF.FileFunction,Legend,Top*
G04 #@! TF.FilePolarity,Positive*
%FSLAX46Y46*%
G04 Gerber Fmt 4.6, Leading zero omitted, Abs format (unit mm)*
G04 Created by KiCad (PCBNEW 7.0.5-7.0.5~ubuntu22.04.1) date 2023-06-24 11:50:08*
%MOMM*%
%LPD*%
G01*
G04 APERTURE LIST*
G04 Aperture macros list*
%AMRoundRect*
0 Rectangle with rounded corners*
0 $1 Rounding radius*
0 $2 $3 $4 $5 $6 $7 $8 $9 X,Y pos of 4 corners*
0 Add a 4 corners polygon primitive as box body*
4,1,4,$2,$3,$4,$5,$6,$7,$8,$9,$2,$3,0*
0 Add four circle primitives for the rounded corners*
1,1,$1+$1,$2,$3*
1,1,$1+$1,$4,$5*
1,1,$1+$1,$6,$7*
1,1,$1+$1,$8,$9*
0 Add four rect primitives between the rounded corners*
20,1,$1+$1,$2,$3,$4,$5,0*
20,1,$1+$1,$4,$5,$6,$7,0*
20,1,$1+$1,$6,$7,$8,$9,0*
20,1,$1+$1,$8,$9,$2,$3,0*%
G04 Aperture macros list end*
%ADD10C,0.300000*%
%ADD11C,0.120000*%
%ADD12C,0.200000*%
%ADD13C,0.250000*%
%ADD14RoundRect,0.218750X-0.256250X0.218750X-0.256250X-0.218750X0.256250X-0.218750X0.256250X0.218750X0*%
%ADD15RoundRect,0.225000X-0.250000X0.225000X-0.250000X-0.225000X0.250000X-0.225000X0.250000X0.225000X0*%
%ADD16RoundRect,0.075000X0.350000X0.075000X-0.350000X0.075000X-0.350000X-0.075000X0.350000X-0.075000X0*%
%ADD17RoundRect,0.075000X0.075000X0.350000X-0.075000X0.350000X-0.075000X-0.350000X0.075000X-0.350000X0*%
%ADD18R,2.100000X2.100000*%
%ADD19RoundRect,0.200000X-0.200000X-0.275000X0.200000X-0.275000X0.200000X0.275000X-0.200000X0.275000X0*%
%ADD20RoundRect,0.225000X-0.225000X-0.250000X0.225000X-0.250000X0.225000X0.250000X-0.225000X0.250000X0*%
%ADD21RoundRect,0.050000X0.250000X0.500000X-0.250000X0.500000X-0.250000X-0.500000X0.250000X-0.500000X0*%
%ADD22RoundRect,0.225000X0.250000X-0.225000X0.250000X0.225000X-0.250000X0.225000X-0.250000X-0.225000X0*%
%ADD23R,3.400000X0.980000*%
%ADD24RoundRect,0.200000X-0.275000X0.200000X-0.275000X-0.200000X0.275000X-0.200000X0.275000X0.200000X0*%
%ADD25RoundRect,0.225000X0.225000X0.250000X-0.225000X0.250000X-0.225000X-0.250000X0.225000X-0.250000X0*%
%ADD26C,0.650000*%
%ADD27R,0.600000X1.030000*%
%ADD28R,0.300000X1.030000*%
%ADD29O,1.000000X2.100000*%
%ADD30O,1.000000X1.800000*%
%ADD31RoundRect,0.200000X0.275000X-0.200000X0.275000X0.200000X-0.275000X0.200000X-0.275000X-0.200000X0*%
%ADD32R,2.050000X3.800000*%
%ADD33RoundRect,0.200000X0.200000X0.275000X-0.200000X0.275000X-0.200000X-0.275000X0.200000X-0.275000X0*%
%ADD34RoundRect,0.225000X0.017678X-0.335876X0.335876X-0.017678X-0.017678X0.335876X-0.335876X0.017678X0*%
%ADD35R,0.600000X1.200000*%
%ADD36R,1.220000X0.910000*%
%ADD37C,0.001000*%
%ADD38R,2.800000X2.200000*%
%ADD39R,2.600000X2.800000*%
%ADD40R,0.800000X0.400000*%
%ADD41R,1.750000X2.500000*%
%ADD42RoundRect,0.150000X0.825000X0.150000X-0.825000X0.150000X-0.825000X-0.150000X0.825000X-0.150000X0*%
%ADD43R,1.700000X1.700000*%
%ADD44O,1.700000X1.700000*%
%ADD45C,2.000000*%
%ADD46R,2.200000X2.200000*%
%ADD47C,2.200000*%
%ADD48R,1.600000X1.100000*%
%ADD49C,1.524000*%
%ADD50RoundRect,0.200000X-0.335876X-0.053033X-0.053033X-0.335876X0.335876X0.053033X0.053033X0.335876X0*%
%ADD51RoundRect,0.075000X-0.700000X-0.075000X0.700000X-0.075000X0.700000X0.075000X-0.700000X0.075000X0*%
%ADD52RoundRect,0.075000X-0.075000X-0.700000X0.075000X-0.700000X0.075000X0.700000X-0.075000X0.700000X0*%
%ADD53R,1.600000X1.300000*%
%ADD54RoundRect,0.225000X0.335876X0.017678X0.017678X0.335876X-0.335876X-0.017678X-0.017678X-0.335876X0*%
G04 APERTURE END LIST*
D10*
X93040225Y-143428400D02*
X93297368Y-143514114D01*
X93297368Y-143514114D02*
X93725939Y-143514114D01*
X93725939Y-143514114D02*
X93897368Y-143428400D01*
X93897368Y-143428400D02*
X93983082Y-143342685D01*
X93983082Y-143342685D02*
X94068796Y-143171257D01*
X94068796Y-143171257D02*
X94068796Y-142999828D01*
X94068796Y-142999828D02*
X93983082Y-142828400D01*
X93983082Y-142828400D02*
X93897368Y-142742685D01*
X93897368Y-142742685D02*
X93725939Y-142656971D01*
X93725939Y-142656971D02*
X93383082Y-142571257D01*
X93383082Y-142571257D02*
X93211653Y-142485542D01*
X93211653Y-142485542D02*
X93125939Y-142399828D01*
X93125939Y-142399828D02*
X93040225Y-142228400D01*
X93040225Y-142228400D02*
X93040225Y-142056971D01*
X93040225Y-142056971D02*
X93125939Y-141885542D01*
X93125939Y-141885542D02*
X93211653Y-141799828D01*
X93211653Y-141799828D02*
X93383082Y-141714114D01*
X93383082Y-141714114D02*
X93811653Y-141714114D01*
X93811653Y-141714114D02*
X94068796Y-141799828D01*
X94840225Y-143514114D02*
X94840225Y-142314114D01*
X94840225Y-141714114D02*
X94754511Y-141799828D01*
X94754511Y-141799828D02*
X94840225Y-141885542D01*
X94840225Y-141885542D02*
X94925939Y-141799828D01*
X94925939Y-141799828D02*
X94840225Y-141714114D01*
X94840225Y-141714114D02*
X94840225Y-141885542D01*
X96468797Y-142314114D02*
X96468797Y-143771257D01*
X96468797Y-143771257D02*
X96383082Y-143942685D01*
X96383082Y-143942685D02*
X96297368Y-144028400D01*
X96297368Y-144028400D02*
X96125939Y-144114114D01*
X96125939Y-144114114D02*
X95868797Y-144114114D01*
X95868797Y-144114114D02*
X95697368Y-144028400D01*
X96468797Y-143428400D02*
X96297368Y-143514114D01*
X96297368Y-143514114D02*
X95954511Y-143514114D01*
X95954511Y-143514114D02*
X95783082Y-143428400D01*
X95783082Y-143428400D02*
X95697368Y-143342685D01*
X95697368Y-143342685D02*
X95611654Y-143171257D01*
X95611654Y-143171257D02*
X95611654Y-142656971D01*
X95611654Y-142656971D02*
X95697368Y-142485542D01*
X95697368Y-142485542D02*
X95783082Y-142399828D01*
X95783082Y-142399828D02*
X95954511Y-142314114D01*
X95954511Y-142314114D02*
X96297368Y-142314114D01*
X96297368Y-142314114D02*
X96468797Y-142399828D01*
X97325939Y-142314114D02*
X97325939Y-143514114D01*
X97325939Y-142485542D02*
X97411653Y-142399828D01*
X97411653Y-142399828D02*
X97583082Y-142314114D01*
X97583082Y-142314114D02*
X97840225Y-142314114D01*
X97840225Y-142314114D02*
X98011653Y-142399828D01*
X98011653Y-142399828D02*
X98097368Y-142571257D01*
X98097368Y-142571257D02*
X98097368Y-143514114D01*
X99725939Y-143514114D02*
X99725939Y-142571257D01*
X99725939Y-142571257D02*
X99640224Y-142399828D01*
X99640224Y-142399828D02*
X99468796Y-142314114D01*
X99468796Y-142314114D02*
X99125939Y-142314114D01*
X99125939Y-142314114D02*
X98954510Y-142399828D01*
X99725939Y-143428400D02*
X99554510Y-143514114D01*
X99554510Y-143514114D02*
X99125939Y-143514114D01*
X99125939Y-143514114D02*
X98954510Y-143428400D01*
X98954510Y-143428400D02*
X98868796Y-143256971D01*
X98868796Y-143256971D02*
X98868796Y-143085542D01*
X98868796Y-143085542D02*
X98954510Y-142914114D01*
X98954510Y-142914114D02*
X99125939Y-142828400D01*
X99125939Y-142828400D02*
X99554510Y-142828400D01*
X99554510Y-142828400D02*
X99725939Y-142742685D01*
X100840224Y-143514114D02*
X100668795Y-143428400D01*
X100668795Y-143428400D02*
X100583081Y-143256971D01*
X100583081Y-143256971D02*
X100583081Y-141714114D01*
X103840224Y-141799828D02*
X103668796Y-141714114D01*
X103668796Y-141714114D02*
X103411653Y-141714114D01*
X103411653Y-141714114D02*
X103154510Y-141799828D01*
X103154510Y-141799828D02*
X102983081Y-141971257D01*
X102983081Y-141971257D02*
X102897367Y-142142685D01*
X102897367Y-142142685D02*
X102811653Y-142485542D01*
X102811653Y-142485542D02*
X102811653Y-142742685D01*
X102811653Y-142742685D02*
X102897367Y-143085542D01*
X102897367Y-143085542D02*
X102983081Y-143256971D01*
X102983081Y-143256971D02*
X103154510Y-143428400D01*
X103154510Y-143428400D02*
X103411653Y-143514114D01*
X103411653Y-143514114D02*
X103583081Y-143514114D01*
X103583081Y-143514114D02*
X103840224Y-143428400D01*
X103840224Y-143428400D02*
X103925938Y-143342685D01*
X103925938Y-143342685D02*
X103925938Y-142742685D01*
X103925938Y-142742685D02*
X103583081Y-142742685D01*
X105383081Y-143428400D02*
X105211653Y-143514114D01*
X105211653Y-143514114D02*
X104868796Y-143514114D01*
X104868796Y-143514114D02*
X104697367Y-143428400D01*
X104697367Y-143428400D02*
X104611653Y-143256971D01*
X104611653Y-143256971D02*
X104611653Y-142571257D01*
X104611653Y-142571257D02*
X104697367Y-142399828D01*
X104697367Y-142399828D02*
X104868796Y-142314114D01*
X104868796Y-142314114D02*
X105211653Y-142314114D01*
X105211653Y-142314114D02*
X105383081Y-142399828D01*
X105383081Y-142399828D02*
X105468796Y-142571257D01*
X105468796Y-142571257D02*
X105468796Y-142742685D01*
X105468796Y-142742685D02*
X104611653Y-142914114D01*
X106240224Y-142314114D02*
X106240224Y-143514114D01*
X106240224Y-142485542D02*
X106325938Y-142399828D01*
X106325938Y-142399828D02*
X106497367Y-142314114D01*
X106497367Y-142314114D02*
X106754510Y-142314114D01*
X106754510Y-142314114D02*
X106925938Y-142399828D01*
X106925938Y-142399828D02*
X107011653Y-142571257D01*
X107011653Y-142571257D02*
X107011653Y-143514114D01*
X108554509Y-143428400D02*
X108383081Y-143514114D01*
X108383081Y-143514114D02*
X108040224Y-143514114D01*
X108040224Y-143514114D02*
X107868795Y-143428400D01*
X107868795Y-143428400D02*
X107783081Y-143256971D01*
X107783081Y-143256971D02*
X107783081Y-142571257D01*
X107783081Y-142571257D02*
X107868795Y-142399828D01*
X107868795Y-142399828D02*
X108040224Y-142314114D01*
X108040224Y-142314114D02*
X108383081Y-142314114D01*
X108383081Y-142314114D02*
X108554509Y-142399828D01*
X108554509Y-142399828D02*
X108640224Y-142571257D01*
X108640224Y-142571257D02*
X108640224Y-142742685D01*
X108640224Y-142742685D02*
X107783081Y-142914114D01*
X109411652Y-143514114D02*
X109411652Y-142314114D01*
X109411652Y-142656971D02*
X109497366Y-142485542D01*
X109497366Y-142485542D02*
X109583081Y-142399828D01*
X109583081Y-142399828D02*
X109754509Y-142314114D01*
X109754509Y-142314114D02*
X109925938Y-142314114D01*
X111297367Y-143514114D02*
X111297367Y-142571257D01*
X111297367Y-142571257D02*
X111211652Y-142399828D01*
X111211652Y-142399828D02*
X111040224Y-142314114D01*
X111040224Y-142314114D02*
X110697367Y-142314114D01*
X110697367Y-142314114D02*
X110525938Y-142399828D01*
X111297367Y-143428400D02*
X111125938Y-143514114D01*
X111125938Y-143514114D02*
X110697367Y-143514114D01*
X110697367Y-143514114D02*
X110525938Y-143428400D01*
X110525938Y-143428400D02*
X110440224Y-143256971D01*
X110440224Y-143256971D02*
X110440224Y-143085542D01*
X110440224Y-143085542D02*
X110525938Y-142914114D01*
X110525938Y-142914114D02*
X110697367Y-142828400D01*
X110697367Y-142828400D02*
X111125938Y-142828400D01*
X111125938Y-142828400D02*
X111297367Y-142742685D01*
X111897366Y-142314114D02*
X112583080Y-142314114D01*
X112154509Y-141714114D02*
X112154509Y-143256971D01*
X112154509Y-143256971D02*
X112240223Y-143428400D01*
X112240223Y-143428400D02*
X112411652Y-143514114D01*
X112411652Y-143514114D02*
X112583080Y-143514114D01*
X113440223Y-143514114D02*
X113268794Y-143428400D01*
X113268794Y-143428400D02*
X113183080Y-143342685D01*
X113183080Y-143342685D02*
X113097366Y-143171257D01*
X113097366Y-143171257D02*
X113097366Y-142656971D01*
X113097366Y-142656971D02*
X113183080Y-142485542D01*
X113183080Y-142485542D02*
X113268794Y-142399828D01*
X113268794Y-142399828D02*
X113440223Y-142314114D01*
X113440223Y-142314114D02*
X113697366Y-142314114D01*
X113697366Y-142314114D02*
X113868794Y-142399828D01*
X113868794Y-142399828D02*
X113954509Y-142485542D01*
X113954509Y-142485542D02*
X114040223Y-142656971D01*
X114040223Y-142656971D02*
X114040223Y-143171257D01*
X114040223Y-143171257D02*
X113954509Y-143342685D01*
X113954509Y-143342685D02*
X113868794Y-143428400D01*
X113868794Y-143428400D02*
X113697366Y-143514114D01*
X113697366Y-143514114D02*
X113440223Y-143514114D01*
X114811651Y-143514114D02*
X114811651Y-142314114D01*
X114811651Y-142656971D02*
X114897365Y-142485542D01*
X114897365Y-142485542D02*
X114983080Y-142399828D01*
X114983080Y-142399828D02*
X115154508Y-142314114D01*
X115154508Y-142314114D02*
X115325937Y-142314114D01*
X94154510Y-147264114D02*
X93554510Y-146406971D01*
X93125939Y-147264114D02*
X93125939Y-145464114D01*
X93125939Y-145464114D02*
X93811653Y-145464114D01*
X93811653Y-145464114D02*
X93983082Y-145549828D01*
X93983082Y-145549828D02*
X94068796Y-145635542D01*
X94068796Y-145635542D02*
X94154510Y-145806971D01*
X94154510Y-145806971D02*
X94154510Y-146064114D01*
X94154510Y-146064114D02*
X94068796Y-146235542D01*
X94068796Y-146235542D02*
X93983082Y-146321257D01*
X93983082Y-146321257D02*
X93811653Y-146406971D01*
X93811653Y-146406971D02*
X93125939Y-146406971D01*
X95611653Y-147178400D02*
X95440225Y-147264114D01*
X95440225Y-147264114D02*
X95097368Y-147264114D01*
X95097368Y-147264114D02*
X94925939Y-147178400D01*
X94925939Y-147178400D02*
X94840225Y-147006971D01*
X94840225Y-147006971D02*
X94840225Y-146321257D01*
X94840225Y-146321257D02*
X94925939Y-146149828D01*
X94925939Y-146149828D02*
X95097368Y-146064114D01*
X95097368Y-146064114D02*
X95440225Y-146064114D01*
X95440225Y-146064114D02*
X95611653Y-146149828D01*
X95611653Y-146149828D02*
X95697368Y-146321257D01*
X95697368Y-146321257D02*
X95697368Y-146492685D01*
X95697368Y-146492685D02*
X94840225Y-146664114D01*
X96297367Y-146064114D02*
X96725939Y-147264114D01*
X96725939Y-147264114D02*
X97154510Y-146064114D01*
X99040225Y-145464114D02*
X100154511Y-145464114D01*
X100154511Y-145464114D02*
X99554511Y-146149828D01*
X99554511Y-146149828D02*
X99811654Y-146149828D01*
X99811654Y-146149828D02*
X99983083Y-146235542D01*
X99983083Y-146235542D02*
X100068797Y-146321257D01*
X100068797Y-146321257D02*
X100154511Y-146492685D01*
X100154511Y-146492685D02*
X100154511Y-146921257D01*
X100154511Y-146921257D02*
X100068797Y-147092685D01*
X100068797Y-147092685D02*
X99983083Y-147178400D01*
X99983083Y-147178400D02*
X99811654Y-147264114D01*
X99811654Y-147264114D02*
X99297368Y-147264114D01*
X99297368Y-147264114D02*
X99125940Y-147178400D01*
X99125940Y-147178400D02*
X99040225Y-147092685D01*
D11*
X114235000Y-99015000D02*
X112765000Y-99015000D01*
X112765000Y-99015000D02*
X112765000Y-101300000D01*
X114235000Y-101300000D02*
X114235000Y-99015000D01*
X104510000Y-107859420D02*
X104510000Y-108140580D01*
X103490000Y-107859420D02*
X103490000Y-108140580D01*
X109110000Y-110140000D02*
X109110000Y-110865000D01*
X108385000Y-114360000D02*
X109110000Y-114360000D01*
X108385000Y-110140000D02*
X109110000Y-110140000D01*
X105615000Y-114360000D02*
X104890000Y-114360000D01*
X105615000Y-110140000D02*
X104890000Y-110140000D01*
X104890000Y-114360000D02*
X104890000Y-113635000D01*
X104890000Y-110140000D02*
X104890000Y-110865000D01*
X108512742Y-137477500D02*
X108987258Y-137477500D01*
X108512742Y-138522500D02*
X108987258Y-138522500D01*
X96634420Y-118965000D02*
X96915580Y-118965000D01*
X96634420Y-119985000D02*
X96915580Y-119985000D01*
D12*
X91525000Y-112325000D02*
X91525000Y-111125000D01*
D11*
X102740000Y-113390580D02*
X102740000Y-113109420D01*
X103760000Y-113390580D02*
X103760000Y-113109420D01*
X106522500Y-107762742D02*
X106522500Y-108237258D01*
X105477500Y-107762742D02*
X105477500Y-108237258D01*
X102890580Y-111260000D02*
X102609420Y-111260000D01*
X102890580Y-110240000D02*
X102609420Y-110240000D01*
X92884420Y-112990000D02*
X93165580Y-112990000D01*
X92884420Y-114010000D02*
X93165580Y-114010000D01*
X99260000Y-135359420D02*
X99260000Y-135640580D01*
X98240000Y-135359420D02*
X98240000Y-135640580D01*
X96227500Y-135737258D02*
X96227500Y-135262742D01*
X97272500Y-135737258D02*
X97272500Y-135262742D01*
X124760000Y-111334420D02*
X124760000Y-111615580D01*
X123740000Y-111334420D02*
X123740000Y-111615580D01*
X100727500Y-113487258D02*
X100727500Y-113012742D01*
X101772500Y-113487258D02*
X101772500Y-113012742D01*
X94987258Y-133522500D02*
X94512742Y-133522500D01*
X94987258Y-132477500D02*
X94512742Y-132477500D01*
X112539970Y-128738781D02*
X112738781Y-128539970D01*
X113261219Y-129460030D02*
X113460030Y-129261219D01*
X111762742Y-137477500D02*
X112237258Y-137477500D01*
X111762742Y-138522500D02*
X112237258Y-138522500D01*
X111740000Y-132390580D02*
X111740000Y-132109420D01*
X112760000Y-132390580D02*
X112760000Y-132109420D01*
D12*
X94525000Y-116725000D02*
X94525000Y-117925000D01*
D11*
X101272500Y-135262742D02*
X101272500Y-135737258D01*
X100227500Y-135262742D02*
X100227500Y-135737258D01*
X112990000Y-117440580D02*
X112990000Y-117159420D01*
X114010000Y-117440580D02*
X114010000Y-117159420D01*
X102522500Y-107762742D02*
X102522500Y-108237258D01*
X101477500Y-107762742D02*
X101477500Y-108237258D01*
X110772500Y-132012742D02*
X110772500Y-132487258D01*
X109727500Y-132012742D02*
X109727500Y-132487258D01*
X95272500Y-135262742D02*
X95272500Y-135737258D01*
X94227500Y-135262742D02*
X94227500Y-135737258D01*
D12*
X124637500Y-153800000D02*
X124637500Y-153800000D01*
X124637500Y-153600000D02*
X124637500Y-153600000D01*
X124637500Y-153600000D02*
G75*
G03*
X124637500Y-153800000I0J-100000D01*
G01*
X124637500Y-153800000D02*
G75*
G03*
X124637500Y-153600000I0J100000D01*
G01*
D11*
X99977500Y-103987258D02*
X99977500Y-103512742D01*
X101022500Y-103987258D02*
X101022500Y-103512742D01*
X103260000Y-138609420D02*
X103260000Y-138890580D01*
X102240000Y-138609420D02*
X102240000Y-138890580D01*
X98790000Y-121390580D02*
X98790000Y-121109420D01*
X99810000Y-121390580D02*
X99810000Y-121109420D01*
X121990000Y-111640580D02*
X121990000Y-111359420D01*
X123010000Y-111640580D02*
X123010000Y-111359420D01*
X99260000Y-132109420D02*
X99260000Y-132390580D01*
X98240000Y-132109420D02*
X98240000Y-132390580D01*
X93010000Y-129609420D02*
X93010000Y-129890580D01*
X91990000Y-129609420D02*
X91990000Y-129890580D01*
X113727500Y-132487258D02*
X113727500Y-132012742D01*
X114772500Y-132487258D02*
X114772500Y-132012742D01*
X93109420Y-126490000D02*
X93390580Y-126490000D01*
X93109420Y-127510000D02*
X93390580Y-127510000D01*
X107840580Y-131110000D02*
X107559420Y-131110000D01*
X107840580Y-130090000D02*
X107559420Y-130090000D01*
D13*
X117475000Y-109850000D02*
G75*
G03*
X117475000Y-109850000I-125000J0D01*
G01*
D11*
X99990000Y-117440580D02*
X99990000Y-117159420D01*
X101010000Y-117440580D02*
X101010000Y-117159420D01*
X110772500Y-135262742D02*
X110772500Y-135737258D01*
X109727500Y-135262742D02*
X109727500Y-135737258D01*
X107477500Y-108237258D02*
X107477500Y-107762742D01*
X108522500Y-108237258D02*
X108522500Y-107762742D01*
X101490000Y-116390580D02*
X101490000Y-116109420D01*
X102510000Y-116390580D02*
X102510000Y-116109420D01*
X105500000Y-136810000D02*
X108950000Y-136810000D01*
X105500000Y-136810000D02*
X103550000Y-136810000D01*
X105500000Y-131690000D02*
X107450000Y-131690000D01*
X105500000Y-131690000D02*
X103550000Y-131690000D01*
X92884420Y-114965000D02*
X93165580Y-114965000D01*
X92884420Y-115985000D02*
X93165580Y-115985000D01*
X93165580Y-107985000D02*
X92884420Y-107985000D01*
X93165580Y-106965000D02*
X92884420Y-106965000D01*
X111477500Y-108237258D02*
X111477500Y-107762742D01*
X112522500Y-108237258D02*
X112522500Y-107762742D01*
X101235000Y-99015000D02*
X99765000Y-99015000D01*
X99765000Y-99015000D02*
X99765000Y-101300000D01*
X101235000Y-101300000D02*
X101235000Y-99015000D01*
X110510000Y-107859420D02*
X110510000Y-108140580D01*
X109490000Y-107859420D02*
X109490000Y-108140580D01*
X99260000Y-138609420D02*
X99260000Y-138890580D01*
X98240000Y-138609420D02*
X98240000Y-138890580D01*
X96535000Y-113609420D02*
X96535000Y-113890580D01*
X95515000Y-113609420D02*
X95515000Y-113890580D01*
X114022500Y-103512742D02*
X114022500Y-103987258D01*
X112977500Y-103512742D02*
X112977500Y-103987258D01*
X116500000Y-101750000D02*
X116500000Y-103250000D01*
X117750000Y-105750000D02*
X122250000Y-105750000D01*
X122250000Y-99250000D02*
X117750000Y-99250000D01*
X123500000Y-103250000D02*
X123500000Y-101750000D01*
X116510000Y-111359420D02*
X116510000Y-111640580D01*
X115490000Y-111359420D02*
X115490000Y-111640580D01*
X101260000Y-138609420D02*
X101260000Y-138890580D01*
X100240000Y-138609420D02*
X100240000Y-138890580D01*
X95515000Y-117115580D02*
X95515000Y-116834420D01*
X96535000Y-117115580D02*
X96535000Y-116834420D01*
X100227500Y-132487258D02*
X100227500Y-132012742D01*
X101272500Y-132487258D02*
X101272500Y-132012742D01*
X111490000Y-116390580D02*
X111490000Y-116109420D01*
X112510000Y-116390580D02*
X112510000Y-116109420D01*
X99810000Y-124609420D02*
X99810000Y-124890580D01*
X98790000Y-124609420D02*
X98790000Y-124890580D01*
X117041697Y-126462770D02*
X117377230Y-126798303D01*
X116302770Y-127201697D02*
X116638303Y-127537230D01*
X101890000Y-117890000D02*
X101890000Y-118840000D01*
X101890000Y-118840000D02*
X100550000Y-118840000D01*
X101890000Y-128110000D02*
X101890000Y-127160000D01*
X102840000Y-117890000D02*
X101890000Y-117890000D01*
X102840000Y-128110000D02*
X101890000Y-128110000D01*
X111160000Y-117890000D02*
X112110000Y-117890000D01*
X111160000Y-128110000D02*
X112110000Y-128110000D01*
X112110000Y-117890000D02*
X112110000Y-118840000D01*
X112110000Y-128110000D02*
X112110000Y-127160000D01*
X94200000Y-124500000D02*
X94200000Y-124950000D01*
X96200000Y-124500000D02*
X94200000Y-124500000D01*
X92600000Y-123150000D02*
X92100000Y-123150000D01*
X92600000Y-123150000D02*
X92600000Y-122450000D01*
X97800000Y-122450000D02*
X97800000Y-123150000D01*
X94100000Y-121100000D02*
X96300000Y-121100000D01*
X100738781Y-129460030D02*
X100539970Y-129261219D01*
X101460030Y-128738781D02*
X101261219Y-128539970D01*
X112760000Y-135359420D02*
X112760000Y-135640580D01*
X111740000Y-135359420D02*
X111740000Y-135640580D01*
%LPC*%
D14*
X113500000Y-99712500D03*
X113500000Y-101287500D03*
D15*
X104000000Y-107225000D03*
X104000000Y-108775000D03*
D16*
X108950000Y-113225000D03*
X108950000Y-112575000D03*
X108950000Y-111925000D03*
X108950000Y-111275000D03*
D17*
X107975000Y-110300000D03*
X107325000Y-110300000D03*
X106675000Y-110300000D03*
X106025000Y-110300000D03*
D16*
X105050000Y-111275000D03*
X105050000Y-111925000D03*
X105050000Y-112575000D03*
X105050000Y-113225000D03*
D17*
X106025000Y-114200000D03*
X106675000Y-114200000D03*
X107325000Y-114200000D03*
X107975000Y-114200000D03*
D18*
X107000000Y-112250000D03*
D19*
X107925000Y-138000000D03*
X109575000Y-138000000D03*
D20*
X96000000Y-119475000D03*
X97550000Y-119475000D03*
D21*
X92075000Y-111775000D03*
X93025000Y-111775000D03*
X93975000Y-111775000D03*
X93975000Y-109175000D03*
X93025000Y-109175000D03*
X92075000Y-109175000D03*
D22*
X103250000Y-114025000D03*
X103250000Y-112475000D03*
D23*
X97525000Y-108290000D03*
X97525000Y-110660000D03*
D24*
X106000000Y-107175000D03*
X106000000Y-108825000D03*
D25*
X103525000Y-110750000D03*
X101975000Y-110750000D03*
D20*
X92250000Y-113500000D03*
X93800000Y-113500000D03*
D15*
X98750000Y-134725000D03*
X98750000Y-136275000D03*
D26*
X109890000Y-103380000D03*
X104110000Y-103380000D03*
D27*
X110200000Y-104515000D03*
X109400000Y-104515000D03*
D28*
X108250000Y-104515000D03*
X107250000Y-104515000D03*
X106750000Y-104515000D03*
X105750000Y-104515000D03*
D27*
X104600000Y-104515000D03*
X103800000Y-104515000D03*
X103800000Y-104515000D03*
X104600000Y-104515000D03*
D28*
X105250000Y-104515000D03*
X106250000Y-104515000D03*
X107750000Y-104515000D03*
X108750000Y-104515000D03*
D27*
X109400000Y-104515000D03*
X110200000Y-104515000D03*
D29*
X111320000Y-103880000D03*
D30*
X111320000Y-99700000D03*
D29*
X102680000Y-103880000D03*
D30*
X102680000Y-99700000D03*
D31*
X96750000Y-136325000D03*
X96750000Y-134675000D03*
D15*
X124250000Y-110700000D03*
X124250000Y-112250000D03*
D31*
X101250000Y-114075000D03*
X101250000Y-112425000D03*
D32*
X119750000Y-122850000D03*
X119750000Y-116150000D03*
D33*
X95575000Y-133000000D03*
X93925000Y-133000000D03*
D34*
X112451992Y-129548008D03*
X113548008Y-128451992D03*
D19*
X111175000Y-138000000D03*
X112825000Y-138000000D03*
D22*
X112250000Y-133025000D03*
X112250000Y-131475000D03*
D35*
X92075000Y-119625000D03*
X93975000Y-117325000D03*
X93025000Y-117325000D03*
X92075000Y-117325000D03*
X93975000Y-119625000D03*
D24*
X100750000Y-134675000D03*
X100750000Y-136325000D03*
D22*
X113500000Y-118075000D03*
X113500000Y-116525000D03*
D36*
X98275000Y-116735000D03*
X98275000Y-113465000D03*
D24*
X102000000Y-107175000D03*
X102000000Y-108825000D03*
X110250000Y-131425000D03*
X110250000Y-133075000D03*
X94750000Y-134675000D03*
X94750000Y-136325000D03*
D37*
X118837500Y-152400000D03*
X118837500Y-145400000D03*
D38*
X115137500Y-151500000D03*
X122537500Y-153500000D03*
D39*
X122637500Y-144100000D03*
D31*
X100500000Y-104575000D03*
X100500000Y-102925000D03*
D15*
X102750000Y-137975000D03*
X102750000Y-139525000D03*
D22*
X99300000Y-122025000D03*
X99300000Y-120475000D03*
X122500000Y-112275000D03*
X122500000Y-110725000D03*
D15*
X98750000Y-131475000D03*
X98750000Y-133025000D03*
X92500000Y-128975000D03*
X92500000Y-130525000D03*
D31*
X114250000Y-133075000D03*
X114250000Y-131425000D03*
D20*
X92475000Y-127000000D03*
X94025000Y-127000000D03*
D25*
X108475000Y-130600000D03*
X106925000Y-130600000D03*
D40*
X117750000Y-110550000D03*
X117750000Y-111500000D03*
X117750000Y-112450000D03*
X120750000Y-112450000D03*
X120750000Y-111500000D03*
X120750000Y-110550000D03*
D41*
X119250000Y-111500000D03*
D22*
X100500000Y-118075000D03*
X100500000Y-116525000D03*
D24*
X110250000Y-134675000D03*
X110250000Y-136325000D03*
D31*
X108000000Y-108825000D03*
X108000000Y-107175000D03*
D22*
X102000000Y-117025000D03*
X102000000Y-115475000D03*
D42*
X107975000Y-136155000D03*
X107975000Y-134885000D03*
X107975000Y-133615000D03*
X107975000Y-132345000D03*
X103025000Y-132345000D03*
X103025000Y-133615000D03*
X103025000Y-134885000D03*
X103025000Y-136155000D03*
D20*
X92250000Y-115475000D03*
X93800000Y-115475000D03*
D25*
X93800000Y-107475000D03*
X92250000Y-107475000D03*
D31*
X112000000Y-108825000D03*
X112000000Y-107175000D03*
D14*
X100500000Y-99712500D03*
X100500000Y-101287500D03*
D15*
X110000000Y-107225000D03*
X110000000Y-108775000D03*
X98750000Y-137975000D03*
X98750000Y-139525000D03*
X96025000Y-112975000D03*
X96025000Y-114525000D03*
D24*
X113500000Y-102925000D03*
X113500000Y-104575000D03*
D43*
X106840000Y-145960000D03*
D44*
X106840000Y-148500000D03*
X104300000Y-145960000D03*
X104300000Y-148500000D03*
D45*
X116750000Y-100250000D03*
X123250000Y-100250000D03*
X116750000Y-104750000D03*
X123250000Y-104750000D03*
D15*
X116000000Y-110725000D03*
X116000000Y-112275000D03*
D46*
X92685000Y-153800000D03*
D47*
X95225000Y-153800000D03*
X97765000Y-153800000D03*
X100305000Y-153800000D03*
D15*
X100750000Y-137975000D03*
X100750000Y-139525000D03*
D48*
X116950000Y-132550000D03*
X116950000Y-135750000D03*
X121350000Y-135750000D03*
X121350000Y-132550000D03*
D22*
X96025000Y-117750000D03*
X96025000Y-116200000D03*
D49*
X92000000Y-100250000D03*
X97000000Y-100250000D03*
X92000000Y-102250000D03*
X97000000Y-102250000D03*
X92000000Y-104250000D03*
X97000000Y-104250000D03*
D31*
X100750000Y-133075000D03*
X100750000Y-131425000D03*
D22*
X112000000Y-117025000D03*
X112000000Y-115475000D03*
D15*
X99300000Y-123975000D03*
X99300000Y-125525000D03*
D50*
X116256637Y-126416637D03*
X117423363Y-127583363D03*
D51*
X101325000Y-119250000D03*
X101325000Y-119750000D03*
X101325000Y-120250000D03*
X101325000Y-120750000D03*
X101325000Y-121250000D03*
X101325000Y-121750000D03*
X101325000Y-122250000D03*
X101325000Y-122750000D03*
X101325000Y-123250000D03*
X101325000Y-123750000D03*
X101325000Y-124250000D03*
X101325000Y-124750000D03*
X101325000Y-125250000D03*
X101325000Y-125750000D03*
X101325000Y-126250000D03*
X101325000Y-126750000D03*
D52*
X103250000Y-128675000D03*
X103750000Y-128675000D03*
X104250000Y-128675000D03*
X104750000Y-128675000D03*
X105250000Y-128675000D03*
X105750000Y-128675000D03*
X106250000Y-128675000D03*
X106750000Y-128675000D03*
X107250000Y-128675000D03*
X107750000Y-128675000D03*
X108250000Y-128675000D03*
X108750000Y-128675000D03*
X109250000Y-128675000D03*
X109750000Y-128675000D03*
X110250000Y-128675000D03*
X110750000Y-128675000D03*
D51*
X112675000Y-126750000D03*
X112675000Y-126250000D03*
X112675000Y-125750000D03*
X112675000Y-125250000D03*
X112675000Y-124750000D03*
X112675000Y-124250000D03*
X112675000Y-123750000D03*
X112675000Y-123250000D03*
X112675000Y-122750000D03*
X112675000Y-122250000D03*
X112675000Y-121750000D03*
X112675000Y-121250000D03*
X112675000Y-120750000D03*
X112675000Y-120250000D03*
X112675000Y-119750000D03*
X112675000Y-119250000D03*
D52*
X110750000Y-117325000D03*
X110250000Y-117325000D03*
X109750000Y-117325000D03*
X109250000Y-117325000D03*
X108750000Y-117325000D03*
X108250000Y-117325000D03*
X107750000Y-117325000D03*
X107250000Y-117325000D03*
X106750000Y-117325000D03*
X106250000Y-117325000D03*
X105750000Y-117325000D03*
X105250000Y-117325000D03*
X104750000Y-117325000D03*
X104250000Y-117325000D03*
X103750000Y-117325000D03*
X103250000Y-117325000D03*
D53*
X93150000Y-124050000D03*
X97250000Y-124050000D03*
X97250000Y-121550000D03*
X93150000Y-121550000D03*
D54*
X101548008Y-129548008D03*
X100451992Y-128451992D03*
D15*
X112250000Y-134725000D03*
X112250000Y-136275000D03*
D43*
X124040000Y-107500000D03*
D44*
X121500000Y-107500000D03*
X118960000Y-107500000D03*
X116420000Y-107500000D03*
%LPD*%
M02*
