G04 #@! TF.GenerationSoftware,KiCad,Pcbnew,7.0.5-7.0.5~ubuntu22.04.1*
G04 #@! TF.CreationDate,2023-06-24T11:50:08+02:00*
G04 #@! TF.ProjectId,Signal Generator,5369676e-616c-4204-9765-6e657261746f,2*
G04 #@! TF.SameCoordinates,Original*
G04 #@! TF.FileFunction,Copper,L2,Inr*
G04 #@! TF.FilePolarity,Positive*
%FSLAX46Y46*%
G04 Gerber Fmt 4.6, Leading zero omitted, Abs format (unit mm)*
G04 Created by KiCad (PCBNEW 7.0.5-7.0.5~ubuntu22.04.1) date 2023-06-24 11:50:08*
%MOMM*%
%LPD*%
G01*
G04 APERTURE LIST*
G04 #@! TA.AperFunction,ComponentPad*
%ADD10O,1.000000X2.100000*%
G04 #@! TD*
G04 #@! TA.AperFunction,ComponentPad*
%ADD11O,1.000000X1.800000*%
G04 #@! TD*
G04 #@! TA.AperFunction,ComponentPad*
%ADD12R,1.700000X1.700000*%
G04 #@! TD*
G04 #@! TA.AperFunction,ComponentPad*
%ADD13O,1.700000X1.700000*%
G04 #@! TD*
G04 #@! TA.AperFunction,ComponentPad*
%ADD14C,2.000000*%
G04 #@! TD*
G04 #@! TA.AperFunction,ComponentPad*
%ADD15R,2.200000X2.200000*%
G04 #@! TD*
G04 #@! TA.AperFunction,ComponentPad*
%ADD16C,2.200000*%
G04 #@! TD*
G04 #@! TA.AperFunction,ComponentPad*
%ADD17C,1.524000*%
G04 #@! TD*
G04 #@! TA.AperFunction,ViaPad*
%ADD18C,0.460000*%
G04 #@! TD*
G04 #@! TA.AperFunction,ViaPad*
%ADD19C,0.800000*%
G04 #@! TD*
G04 #@! TA.AperFunction,Conductor*
%ADD20C,0.250000*%
G04 #@! TD*
G04 APERTURE END LIST*
D10*
X111320000Y-103880000D03*
D11*
X111320000Y-99700000D03*
D10*
X102680000Y-103880000D03*
D11*
X102680000Y-99700000D03*
D12*
X106840000Y-145960000D03*
D13*
X106840000Y-148500000D03*
X104300000Y-145960000D03*
X104300000Y-148500000D03*
D14*
X116750000Y-100250000D03*
X123250000Y-100250000D03*
X116750000Y-104750000D03*
X123250000Y-104750000D03*
D15*
X92685000Y-153800000D03*
D16*
X95225000Y-153800000D03*
X97765000Y-153800000D03*
X100305000Y-153800000D03*
D17*
X92000000Y-100250000D03*
X97000000Y-100250000D03*
X92000000Y-102250000D03*
X97000000Y-102250000D03*
X92000000Y-104250000D03*
X97000000Y-104250000D03*
D12*
X124040000Y-107500000D03*
D13*
X121500000Y-107500000D03*
X118960000Y-107500000D03*
X116420000Y-107500000D03*
D18*
X104725000Y-125225000D03*
X99700000Y-133500000D03*
D19*
X103500000Y-118900000D03*
D18*
X103900000Y-123000000D03*
X91400000Y-130300000D03*
X93025000Y-116425000D03*
X97800000Y-133500000D03*
D19*
X102200000Y-127750000D03*
X102800000Y-119600000D03*
X106250000Y-132650000D03*
D18*
X108600000Y-109900000D03*
X112650000Y-100350000D03*
X104425000Y-112575000D03*
X101400000Y-100200000D03*
X112000000Y-118000000D03*
D19*
X121500000Y-112450000D03*
X93150000Y-121550000D03*
D18*
X91400000Y-128100000D03*
X101500000Y-118000000D03*
D19*
X103800000Y-130600000D03*
X99300000Y-123000000D03*
X111600000Y-128750000D03*
D18*
X92500000Y-128100000D03*
X114000000Y-106000000D03*
X100500000Y-111500000D03*
X110750000Y-116000000D03*
X118550000Y-109550000D03*
D19*
X95000000Y-107500000D03*
D18*
X104100000Y-111800000D03*
X104600000Y-104500000D03*
X119300000Y-109550000D03*
D19*
X119700000Y-135750000D03*
X95000000Y-109200000D03*
X100600000Y-105700000D03*
D18*
X109400000Y-104500000D03*
X114000000Y-120250000D03*
X107750000Y-103500000D03*
X106750000Y-103526780D03*
X108700000Y-114000000D03*
X105600000Y-110900000D03*
X107500000Y-121000000D03*
D19*
X115137500Y-151400000D03*
X122637500Y-144000000D03*
D18*
X113300000Y-131400000D03*
X94300000Y-131400000D03*
X104746045Y-119996045D03*
X110400000Y-138000000D03*
X109000000Y-127500000D03*
X110000000Y-119000000D03*
X91400000Y-124800000D03*
X91400000Y-125900000D03*
X107000000Y-125900000D03*
X106500000Y-120000000D03*
X110000000Y-124000000D03*
X91400000Y-131400000D03*
X91400000Y-132500000D03*
X111000000Y-123000000D03*
D20*
X108700000Y-114000000D02*
X105600000Y-110900000D01*
X100575000Y-145960000D02*
X92685000Y-153850000D01*
X104300000Y-145960000D02*
X100575000Y-145960000D01*
X106840000Y-145960000D02*
X105475000Y-147325000D01*
X103813299Y-147325000D02*
X97765000Y-153373299D01*
X105475000Y-147325000D02*
X103813299Y-147325000D01*
X97765000Y-153373299D02*
X97765000Y-153850000D01*
G04 #@! TA.AperFunction,Conductor*
G36*
X103285737Y-146304407D02*
G01*
X103321701Y-146353907D01*
X103322267Y-146355709D01*
X103324768Y-146363954D01*
X103324769Y-146363956D01*
X103422316Y-146546452D01*
X103553585Y-146706404D01*
X103553590Y-146706410D01*
X103553595Y-146706414D01*
X103713547Y-146837683D01*
X103717590Y-146840384D01*
X103716163Y-146842519D01*
X103751762Y-146879584D01*
X103760112Y-146940197D01*
X103731240Y-146994142D01*
X103707188Y-147009126D01*
X103707744Y-147010089D01*
X103698931Y-147015175D01*
X103675089Y-147025050D01*
X103673625Y-147025442D01*
X103673611Y-147025448D01*
X103640019Y-147048969D01*
X103636378Y-147051289D01*
X103600845Y-147071804D01*
X103574485Y-147103218D01*
X103571567Y-147106403D01*
X98167692Y-152510278D01*
X98113175Y-152538055D01*
X98072067Y-152535901D01*
X97991692Y-152514365D01*
X97991689Y-152514364D01*
X97991683Y-152514363D01*
X97991685Y-152514363D01*
X97765003Y-152494532D01*
X97764997Y-152494532D01*
X97538315Y-152514363D01*
X97318499Y-152573262D01*
X97112276Y-152669426D01*
X97112262Y-152669434D01*
X96925869Y-152799946D01*
X96925867Y-152799947D01*
X96764947Y-152960867D01*
X96764946Y-152960869D01*
X96634434Y-153147262D01*
X96634426Y-153147276D01*
X96584448Y-153254454D01*
X96542720Y-153299203D01*
X96482659Y-153310877D01*
X96427206Y-153285019D01*
X96404999Y-153254454D01*
X96355134Y-153147518D01*
X96304026Y-153074527D01*
X95750929Y-153627623D01*
X95748116Y-153614085D01*
X95678558Y-153479844D01*
X95575362Y-153369348D01*
X95446181Y-153290791D01*
X95394997Y-153276449D01*
X95950472Y-152720972D01*
X95877480Y-152669864D01*
X95671323Y-152573733D01*
X95451597Y-152514857D01*
X95225003Y-152495034D01*
X95224997Y-152495034D01*
X94998402Y-152514857D01*
X94778675Y-152573733D01*
X94618451Y-152648446D01*
X94557721Y-152655902D01*
X94504208Y-152626238D01*
X94478350Y-152570785D01*
X94490025Y-152510724D01*
X94506604Y-152488721D01*
X100680829Y-146314496D01*
X100735347Y-146286719D01*
X100750834Y-146285500D01*
X103227546Y-146285500D01*
X103285737Y-146304407D01*
G37*
G04 #@! TD.AperFunction*
G04 #@! TA.AperFunction,Conductor*
G36*
X125958691Y-97519407D02*
G01*
X125994655Y-97568907D01*
X125999500Y-97599500D01*
X125999500Y-157400500D01*
X125980593Y-157458691D01*
X125931093Y-157494655D01*
X125900500Y-157499500D01*
X90099500Y-157499500D01*
X90041309Y-157480593D01*
X90005345Y-157431093D01*
X90000500Y-157400500D01*
X90000500Y-154919746D01*
X91384500Y-154919746D01*
X91384501Y-154919758D01*
X91396132Y-154978227D01*
X91396134Y-154978233D01*
X91440445Y-155044548D01*
X91440448Y-155044552D01*
X91506769Y-155088867D01*
X91551231Y-155097711D01*
X91565241Y-155100498D01*
X91565246Y-155100498D01*
X91565252Y-155100500D01*
X91565253Y-155100500D01*
X93804747Y-155100500D01*
X93804748Y-155100500D01*
X93863231Y-155088867D01*
X93929552Y-155044552D01*
X93973867Y-154978231D01*
X93985500Y-154919748D01*
X93985500Y-154610281D01*
X94004407Y-154552090D01*
X94053907Y-154516126D01*
X94115093Y-154516126D01*
X94125491Y-154523680D01*
X94145972Y-154525472D01*
X94699070Y-153972375D01*
X94701884Y-153985915D01*
X94771442Y-154120156D01*
X94874638Y-154230652D01*
X95003819Y-154309209D01*
X95055002Y-154323550D01*
X94499527Y-154879026D01*
X94572518Y-154930134D01*
X94778676Y-155026266D01*
X94998402Y-155085142D01*
X95224997Y-155104966D01*
X95225003Y-155104966D01*
X95451597Y-155085142D01*
X95671323Y-155026266D01*
X95877483Y-154930133D01*
X95877484Y-154930133D01*
X95950471Y-154879026D01*
X95396566Y-154325121D01*
X95513458Y-154274349D01*
X95630739Y-154178934D01*
X95717928Y-154055415D01*
X95748355Y-153969800D01*
X96304026Y-154525471D01*
X96355133Y-154452484D01*
X96355133Y-154452483D01*
X96404999Y-154345545D01*
X96446727Y-154300797D01*
X96506788Y-154289122D01*
X96562241Y-154314979D01*
X96584448Y-154345545D01*
X96634426Y-154452724D01*
X96634434Y-154452737D01*
X96764946Y-154639130D01*
X96764947Y-154639132D01*
X96764950Y-154639135D01*
X96764953Y-154639139D01*
X96925861Y-154800047D01*
X96925864Y-154800049D01*
X96925867Y-154800052D01*
X96925869Y-154800053D01*
X97038656Y-154879026D01*
X97112266Y-154930568D01*
X97112272Y-154930571D01*
X97112276Y-154930573D01*
X97318500Y-155026737D01*
X97318504Y-155026739D01*
X97538308Y-155085635D01*
X97538312Y-155085635D01*
X97538315Y-155085636D01*
X97764997Y-155105468D01*
X97765000Y-155105468D01*
X97765003Y-155105468D01*
X97991684Y-155085636D01*
X97991685Y-155085635D01*
X97991692Y-155085635D01*
X98211496Y-155026739D01*
X98417734Y-154930568D01*
X98604139Y-154800047D01*
X98765047Y-154639139D01*
X98895568Y-154452734D01*
X98945552Y-154345542D01*
X98987278Y-154300797D01*
X99047339Y-154289122D01*
X99102792Y-154314979D01*
X99124999Y-154345545D01*
X99174860Y-154452472D01*
X99174863Y-154452478D01*
X99225972Y-154525471D01*
X99779069Y-153972373D01*
X99781884Y-153985915D01*
X99851442Y-154120156D01*
X99954638Y-154230652D01*
X100083819Y-154309209D01*
X100135002Y-154323550D01*
X99579527Y-154879026D01*
X99652518Y-154930134D01*
X99858676Y-155026266D01*
X100078402Y-155085142D01*
X100304997Y-155104966D01*
X100305003Y-155104966D01*
X100531597Y-155085142D01*
X100751323Y-155026266D01*
X100957483Y-154930133D01*
X100957484Y-154930133D01*
X101030471Y-154879026D01*
X100476566Y-154325121D01*
X100593458Y-154274349D01*
X100710739Y-154178934D01*
X100797928Y-154055415D01*
X100828355Y-153969800D01*
X101384026Y-154525471D01*
X101435133Y-154452484D01*
X101435133Y-154452483D01*
X101531266Y-154246323D01*
X101590142Y-154026597D01*
X101609966Y-153800003D01*
X101609966Y-153799996D01*
X101590142Y-153573402D01*
X101531266Y-153353676D01*
X101435134Y-153147518D01*
X101384026Y-153074527D01*
X100830929Y-153627623D01*
X100828116Y-153614085D01*
X100758558Y-153479844D01*
X100655362Y-153369348D01*
X100526181Y-153290791D01*
X100474993Y-153276449D01*
X101030471Y-152720972D01*
X100957480Y-152669864D01*
X100751323Y-152573733D01*
X100531597Y-152514857D01*
X100305003Y-152495034D01*
X100304997Y-152495034D01*
X100078402Y-152514857D01*
X99858671Y-152573734D01*
X99652525Y-152669861D01*
X99652508Y-152669871D01*
X99579527Y-152720972D01*
X100133433Y-153274878D01*
X100016542Y-153325651D01*
X99899261Y-153421066D01*
X99812072Y-153544585D01*
X99781644Y-153630199D01*
X99225972Y-153074527D01*
X99174871Y-153147508D01*
X99174863Y-153147521D01*
X99124999Y-153254455D01*
X99083271Y-153299203D01*
X99023209Y-153310877D01*
X98967757Y-153285019D01*
X98945551Y-153254455D01*
X98895568Y-153147266D01*
X98844636Y-153074527D01*
X98762568Y-152957319D01*
X98763481Y-152956679D01*
X98742364Y-152904418D01*
X98757164Y-152845049D01*
X98771115Y-152827509D01*
X99198621Y-152400003D01*
X117781917Y-152400003D01*
X117802198Y-152605929D01*
X117802199Y-152605934D01*
X117862268Y-152803954D01*
X117959816Y-152986452D01*
X117978999Y-153009826D01*
X118091090Y-153146410D01*
X118091095Y-153146414D01*
X118251047Y-153277683D01*
X118251048Y-153277683D01*
X118251050Y-153277685D01*
X118433546Y-153375232D01*
X118571496Y-153417078D01*
X118631565Y-153435300D01*
X118631571Y-153435301D01*
X118760812Y-153448029D01*
X118785892Y-153450500D01*
X118785893Y-153450500D01*
X118889107Y-153450500D01*
X118889108Y-153450500D01*
X118919054Y-153447550D01*
X119043428Y-153435301D01*
X119043434Y-153435300D01*
X119043434Y-153435299D01*
X119241454Y-153375232D01*
X119423950Y-153277685D01*
X119583910Y-153146410D01*
X119715185Y-152986450D01*
X119812732Y-152803954D01*
X119872800Y-152605934D01*
X119872801Y-152605929D01*
X119893083Y-152400003D01*
X119893083Y-152399996D01*
X119872801Y-152194070D01*
X119872800Y-152194065D01*
X119854578Y-152133997D01*
X119812732Y-151996046D01*
X119715185Y-151813550D01*
X119583910Y-151653590D01*
X119583904Y-151653585D01*
X119423952Y-151522316D01*
X119241454Y-151424768D01*
X119043434Y-151364699D01*
X119043428Y-151364698D01*
X118899189Y-151350492D01*
X118889108Y-151349500D01*
X118785892Y-151349500D01*
X118776428Y-151350432D01*
X118631571Y-151364698D01*
X118631565Y-151364699D01*
X118433545Y-151424768D01*
X118251047Y-151522316D01*
X118091095Y-151653585D01*
X118091085Y-151653595D01*
X117959816Y-151813547D01*
X117862268Y-151996045D01*
X117802199Y-152194065D01*
X117802198Y-152194070D01*
X117781917Y-152399996D01*
X117781917Y-152400003D01*
X99198621Y-152400003D01*
X100198624Y-151400000D01*
X114531818Y-151400000D01*
X114552455Y-151556758D01*
X114552457Y-151556766D01*
X114612962Y-151702838D01*
X114612962Y-151702839D01*
X114709213Y-151828276D01*
X114709218Y-151828282D01*
X114834659Y-151924536D01*
X114980738Y-151985044D01*
X115098309Y-152000522D01*
X115137499Y-152005682D01*
X115137500Y-152005682D01*
X115137501Y-152005682D01*
X115168852Y-152001554D01*
X115294262Y-151985044D01*
X115440341Y-151924536D01*
X115565782Y-151828282D01*
X115662036Y-151702841D01*
X115722544Y-151556762D01*
X115743182Y-151400000D01*
X115722544Y-151243238D01*
X115662037Y-151097161D01*
X115662037Y-151097160D01*
X115565786Y-150971723D01*
X115565785Y-150971722D01*
X115565782Y-150971718D01*
X115565777Y-150971714D01*
X115565776Y-150971713D01*
X115440338Y-150875462D01*
X115294266Y-150814957D01*
X115294258Y-150814955D01*
X115137501Y-150794318D01*
X115137499Y-150794318D01*
X114980741Y-150814955D01*
X114980733Y-150814957D01*
X114834661Y-150875462D01*
X114834660Y-150875462D01*
X114709223Y-150971713D01*
X114709213Y-150971723D01*
X114612962Y-151097160D01*
X114612962Y-151097161D01*
X114552457Y-151243233D01*
X114552455Y-151243241D01*
X114531818Y-151399999D01*
X114531818Y-151400000D01*
X100198624Y-151400000D01*
X102512465Y-149086160D01*
X103319630Y-148278996D01*
X103374147Y-148251219D01*
X103389634Y-148250000D01*
X103866314Y-148250000D01*
X103840507Y-148290156D01*
X103800000Y-148428111D01*
X103800000Y-148571889D01*
X103840507Y-148709844D01*
X103866314Y-148750000D01*
X103278589Y-148750000D01*
X103325232Y-148903762D01*
X103325234Y-148903767D01*
X103422724Y-149086160D01*
X103422731Y-149086170D01*
X103553940Y-149246050D01*
X103553949Y-149246059D01*
X103713829Y-149377268D01*
X103713839Y-149377275D01*
X103896232Y-149474765D01*
X103896237Y-149474767D01*
X104049999Y-149521411D01*
X104050000Y-149521411D01*
X104050000Y-148935501D01*
X104157685Y-148984680D01*
X104264237Y-149000000D01*
X104335763Y-149000000D01*
X104442315Y-148984680D01*
X104549999Y-148935501D01*
X104550000Y-149521411D01*
X104703762Y-149474767D01*
X104703767Y-149474765D01*
X104886160Y-149377275D01*
X104886170Y-149377268D01*
X105046050Y-149246059D01*
X105046059Y-149246050D01*
X105177268Y-149086170D01*
X105177275Y-149086160D01*
X105274765Y-148903767D01*
X105274767Y-148903762D01*
X105321411Y-148750000D01*
X104733686Y-148750000D01*
X104759493Y-148709844D01*
X104800000Y-148571889D01*
X104800000Y-148428111D01*
X104759493Y-148290156D01*
X104733686Y-148250000D01*
X105321411Y-148250000D01*
X105321411Y-148249999D01*
X105818588Y-148249999D01*
X105818589Y-148250000D01*
X106406314Y-148250000D01*
X106380507Y-148290156D01*
X106340000Y-148428111D01*
X106340000Y-148571889D01*
X106380507Y-148709844D01*
X106406314Y-148750000D01*
X105818589Y-148750000D01*
X105865232Y-148903762D01*
X105865234Y-148903767D01*
X105962724Y-149086160D01*
X105962731Y-149086170D01*
X106093940Y-149246050D01*
X106093949Y-149246059D01*
X106253829Y-149377268D01*
X106253839Y-149377275D01*
X106436232Y-149474765D01*
X106436237Y-149474767D01*
X106589999Y-149521411D01*
X106590000Y-149521411D01*
X106590000Y-148935501D01*
X106697685Y-148984680D01*
X106804237Y-149000000D01*
X106875763Y-149000000D01*
X106982315Y-148984680D01*
X107090000Y-148935501D01*
X107090000Y-149521411D01*
X107243762Y-149474767D01*
X107243767Y-149474765D01*
X107426160Y-149377275D01*
X107426170Y-149377268D01*
X107586050Y-149246059D01*
X107586059Y-149246050D01*
X107717268Y-149086170D01*
X107717275Y-149086160D01*
X107814765Y-148903767D01*
X107814767Y-148903762D01*
X107861411Y-148750000D01*
X107273686Y-148750000D01*
X107299493Y-148709844D01*
X107340000Y-148571889D01*
X107340000Y-148428111D01*
X107299493Y-148290156D01*
X107273686Y-148250000D01*
X107861411Y-148250000D01*
X107861411Y-148249999D01*
X107814767Y-148096237D01*
X107814765Y-148096232D01*
X107717275Y-147913839D01*
X107717268Y-147913829D01*
X107586059Y-147753949D01*
X107586050Y-147753940D01*
X107426170Y-147622731D01*
X107426160Y-147622724D01*
X107243771Y-147525236D01*
X107243758Y-147525231D01*
X107090000Y-147478588D01*
X107089999Y-148064498D01*
X106982315Y-148015320D01*
X106875763Y-148000000D01*
X106804237Y-148000000D01*
X106697685Y-148015320D01*
X106590000Y-148064498D01*
X106590000Y-147478588D01*
X106436241Y-147525231D01*
X106436228Y-147525236D01*
X106253839Y-147622724D01*
X106253829Y-147622731D01*
X106093949Y-147753940D01*
X106093940Y-147753949D01*
X105962731Y-147913829D01*
X105962724Y-147913839D01*
X105865234Y-148096232D01*
X105865232Y-148096237D01*
X105818588Y-148249999D01*
X105321411Y-148249999D01*
X105274767Y-148096237D01*
X105274765Y-148096232D01*
X105177275Y-147913839D01*
X105177268Y-147913829D01*
X105093950Y-147812305D01*
X105071650Y-147755328D01*
X105087099Y-147696125D01*
X105134396Y-147657310D01*
X105170478Y-147650500D01*
X105458626Y-147650500D01*
X105462926Y-147650687D01*
X105503807Y-147654264D01*
X105543452Y-147643640D01*
X105547650Y-147642710D01*
X105588045Y-147635588D01*
X105589345Y-147634838D01*
X105613236Y-147624942D01*
X105613464Y-147624880D01*
X105614684Y-147624554D01*
X105648303Y-147601012D01*
X105651911Y-147598714D01*
X105687455Y-147578194D01*
X105713827Y-147546763D01*
X105716726Y-147543598D01*
X105962487Y-147297837D01*
X106220831Y-147039496D01*
X106275347Y-147011719D01*
X106290834Y-147010500D01*
X107709747Y-147010500D01*
X107709748Y-147010500D01*
X107768231Y-146998867D01*
X107834552Y-146954552D01*
X107878867Y-146888231D01*
X107890500Y-146829748D01*
X107890500Y-145400003D01*
X117781917Y-145400003D01*
X117802198Y-145605929D01*
X117802199Y-145605934D01*
X117862268Y-145803954D01*
X117959816Y-145986452D01*
X118091085Y-146146404D01*
X118091090Y-146146410D01*
X118091095Y-146146414D01*
X118251047Y-146277683D01*
X118251048Y-146277683D01*
X118251050Y-146277685D01*
X118433546Y-146375232D01*
X118571496Y-146417078D01*
X118631565Y-146435300D01*
X118631571Y-146435301D01*
X118760812Y-146448029D01*
X118785892Y-146450500D01*
X118785893Y-146450500D01*
X118889107Y-146450500D01*
X118889108Y-146450500D01*
X118919054Y-146447550D01*
X119043428Y-146435301D01*
X119043434Y-146435300D01*
X119043434Y-146435299D01*
X119241454Y-146375232D01*
X119423950Y-146277685D01*
X119583910Y-146146410D01*
X119715185Y-145986450D01*
X119812732Y-145803954D01*
X119872800Y-145605934D01*
X119872801Y-145605929D01*
X119893083Y-145400003D01*
X119893083Y-145399996D01*
X119872801Y-145194070D01*
X119872800Y-145194065D01*
X119823567Y-145031766D01*
X119812732Y-144996046D01*
X119715185Y-144813550D01*
X119583910Y-144653590D01*
X119426658Y-144524537D01*
X119423952Y-144522316D01*
X119241454Y-144424768D01*
X119043434Y-144364699D01*
X119043428Y-144364698D01*
X118899189Y-144350492D01*
X118889108Y-144349500D01*
X118785892Y-144349500D01*
X118776428Y-144350432D01*
X118631571Y-144364698D01*
X118631565Y-144364699D01*
X118433545Y-144424768D01*
X118251047Y-144522316D01*
X118091095Y-144653585D01*
X118091085Y-144653595D01*
X117959816Y-144813547D01*
X117862268Y-144996045D01*
X117802199Y-145194065D01*
X117802198Y-145194070D01*
X117781917Y-145399996D01*
X117781917Y-145400003D01*
X107890500Y-145400003D01*
X107890500Y-145090252D01*
X107888921Y-145082316D01*
X107887711Y-145076231D01*
X107878867Y-145031769D01*
X107834552Y-144965448D01*
X107834548Y-144965445D01*
X107768233Y-144921134D01*
X107768231Y-144921133D01*
X107768228Y-144921132D01*
X107768227Y-144921132D01*
X107709758Y-144909501D01*
X107709748Y-144909500D01*
X105970252Y-144909500D01*
X105970251Y-144909500D01*
X105970241Y-144909501D01*
X105911772Y-144921132D01*
X105911766Y-144921134D01*
X105845451Y-144965445D01*
X105845445Y-144965451D01*
X105801134Y-145031766D01*
X105801132Y-145031772D01*
X105789501Y-145090241D01*
X105789500Y-145090253D01*
X105789500Y-146509165D01*
X105770593Y-146567356D01*
X105760504Y-146579168D01*
X105369170Y-146970503D01*
X105314653Y-146998281D01*
X105299166Y-146999500D01*
X104965965Y-146999500D01*
X104907774Y-146980593D01*
X104871810Y-146931093D01*
X104871810Y-146869907D01*
X104903160Y-146823972D01*
X104950849Y-146784833D01*
X105046410Y-146706410D01*
X105177685Y-146546450D01*
X105275232Y-146363954D01*
X105335300Y-146165934D01*
X105335301Y-146165929D01*
X105355583Y-145960003D01*
X105355583Y-145959996D01*
X105335301Y-145754070D01*
X105335300Y-145754065D01*
X105303784Y-145650170D01*
X105275232Y-145556046D01*
X105177685Y-145373550D01*
X105046410Y-145213590D01*
X104896123Y-145090253D01*
X104886452Y-145082316D01*
X104703954Y-144984768D01*
X104505934Y-144924699D01*
X104505929Y-144924698D01*
X104300003Y-144904417D01*
X104299997Y-144904417D01*
X104094070Y-144924698D01*
X104094065Y-144924699D01*
X103896045Y-144984768D01*
X103713547Y-145082316D01*
X103553595Y-145213585D01*
X103553585Y-145213595D01*
X103422316Y-145373547D01*
X103324769Y-145556043D01*
X103324768Y-145556045D01*
X103324768Y-145556046D01*
X103322282Y-145564241D01*
X103287297Y-145614436D01*
X103229488Y-145634481D01*
X103227546Y-145634500D01*
X100591374Y-145634500D01*
X100587073Y-145634312D01*
X100546193Y-145630736D01*
X100546187Y-145630736D01*
X100506564Y-145641353D01*
X100502349Y-145642287D01*
X100461960Y-145649410D01*
X100461948Y-145649414D01*
X100460640Y-145650170D01*
X100436786Y-145660051D01*
X100435324Y-145660442D01*
X100435316Y-145660446D01*
X100401716Y-145683972D01*
X100398080Y-145686288D01*
X100389875Y-145691025D01*
X100362545Y-145706805D01*
X100336181Y-145738224D01*
X100333263Y-145741408D01*
X93604170Y-152470504D01*
X93549653Y-152498281D01*
X93534166Y-152499500D01*
X91565252Y-152499500D01*
X91565251Y-152499500D01*
X91565241Y-152499501D01*
X91506772Y-152511132D01*
X91506766Y-152511134D01*
X91440451Y-152555445D01*
X91440445Y-152555451D01*
X91396134Y-152621766D01*
X91396132Y-152621772D01*
X91384501Y-152680241D01*
X91384500Y-152680253D01*
X91384500Y-154919746D01*
X90000500Y-154919746D01*
X90000500Y-144000000D01*
X122031818Y-144000000D01*
X122052455Y-144156758D01*
X122052457Y-144156766D01*
X122112962Y-144302838D01*
X122112962Y-144302839D01*
X122209213Y-144428276D01*
X122209218Y-144428282D01*
X122334659Y-144524536D01*
X122480738Y-144585044D01*
X122598309Y-144600522D01*
X122637499Y-144605682D01*
X122637500Y-144605682D01*
X122637501Y-144605682D01*
X122668852Y-144601554D01*
X122794262Y-144585044D01*
X122940341Y-144524536D01*
X123065782Y-144428282D01*
X123162036Y-144302841D01*
X123222544Y-144156762D01*
X123243182Y-144000000D01*
X123222544Y-143843238D01*
X123162037Y-143697161D01*
X123162037Y-143697160D01*
X123065786Y-143571723D01*
X123065785Y-143571722D01*
X123065782Y-143571718D01*
X123065777Y-143571714D01*
X123065776Y-143571713D01*
X122940338Y-143475462D01*
X122794266Y-143414957D01*
X122794258Y-143414955D01*
X122637501Y-143394318D01*
X122637499Y-143394318D01*
X122480741Y-143414955D01*
X122480733Y-143414957D01*
X122334661Y-143475462D01*
X122334660Y-143475462D01*
X122209223Y-143571713D01*
X122209213Y-143571723D01*
X122112962Y-143697160D01*
X122112962Y-143697161D01*
X122052457Y-143843233D01*
X122052455Y-143843241D01*
X122031818Y-143999999D01*
X122031818Y-144000000D01*
X90000500Y-144000000D01*
X90000500Y-138000002D01*
X109965073Y-138000002D01*
X109982689Y-138122527D01*
X109982690Y-138122530D01*
X109982690Y-138122531D01*
X109982691Y-138122533D01*
X110034116Y-138235139D01*
X110115183Y-138328696D01*
X110115184Y-138328697D01*
X110219320Y-138395621D01*
X110219325Y-138395624D01*
X110338103Y-138430500D01*
X110338104Y-138430500D01*
X110461896Y-138430500D01*
X110461897Y-138430500D01*
X110580675Y-138395624D01*
X110684817Y-138328696D01*
X110765884Y-138235139D01*
X110817309Y-138122533D01*
X110834927Y-138000000D01*
X110817309Y-137877467D01*
X110765884Y-137764861D01*
X110684817Y-137671304D01*
X110684816Y-137671303D01*
X110684815Y-137671302D01*
X110580679Y-137604378D01*
X110580676Y-137604377D01*
X110580675Y-137604376D01*
X110521286Y-137586937D01*
X110461898Y-137569500D01*
X110461897Y-137569500D01*
X110338103Y-137569500D01*
X110338101Y-137569500D01*
X110219325Y-137604376D01*
X110219320Y-137604378D01*
X110115184Y-137671302D01*
X110034116Y-137764861D01*
X109982690Y-137877469D01*
X109982689Y-137877472D01*
X109965073Y-137999997D01*
X109965073Y-138000002D01*
X90000500Y-138000002D01*
X90000500Y-135750000D01*
X119094318Y-135750000D01*
X119114955Y-135906758D01*
X119114957Y-135906766D01*
X119175462Y-136052838D01*
X119175462Y-136052839D01*
X119175464Y-136052841D01*
X119271718Y-136178282D01*
X119397159Y-136274536D01*
X119543238Y-136335044D01*
X119660809Y-136350522D01*
X119699999Y-136355682D01*
X119700000Y-136355682D01*
X119700001Y-136355682D01*
X119731352Y-136351554D01*
X119856762Y-136335044D01*
X120002841Y-136274536D01*
X120128282Y-136178282D01*
X120224536Y-136052841D01*
X120285044Y-135906762D01*
X120305682Y-135750000D01*
X120285044Y-135593238D01*
X120224537Y-135447161D01*
X120224537Y-135447160D01*
X120128286Y-135321723D01*
X120128285Y-135321722D01*
X120128282Y-135321718D01*
X120128277Y-135321714D01*
X120128276Y-135321713D01*
X120002838Y-135225462D01*
X119856766Y-135164957D01*
X119856758Y-135164955D01*
X119700001Y-135144318D01*
X119699999Y-135144318D01*
X119543241Y-135164955D01*
X119543233Y-135164957D01*
X119397161Y-135225462D01*
X119397160Y-135225462D01*
X119271723Y-135321713D01*
X119271713Y-135321723D01*
X119175462Y-135447160D01*
X119175462Y-135447161D01*
X119114957Y-135593233D01*
X119114955Y-135593241D01*
X119094318Y-135749999D01*
X119094318Y-135750000D01*
X90000500Y-135750000D01*
X90000500Y-132500002D01*
X90965073Y-132500002D01*
X90982689Y-132622527D01*
X90982690Y-132622530D01*
X90982690Y-132622531D01*
X90982691Y-132622533D01*
X91034116Y-132735139D01*
X91115183Y-132828696D01*
X91115184Y-132828697D01*
X91219320Y-132895621D01*
X91219325Y-132895624D01*
X91338103Y-132930500D01*
X91338104Y-132930500D01*
X91461896Y-132930500D01*
X91461897Y-132930500D01*
X91580675Y-132895624D01*
X91684817Y-132828696D01*
X91765884Y-132735139D01*
X91817309Y-132622533D01*
X91834927Y-132500000D01*
X91817309Y-132377467D01*
X91765884Y-132264861D01*
X91684817Y-132171304D01*
X91684816Y-132171303D01*
X91684815Y-132171302D01*
X91580679Y-132104378D01*
X91580676Y-132104377D01*
X91580675Y-132104376D01*
X91521286Y-132086937D01*
X91461898Y-132069500D01*
X91461897Y-132069500D01*
X91338103Y-132069500D01*
X91338101Y-132069500D01*
X91219325Y-132104376D01*
X91219320Y-132104378D01*
X91115184Y-132171302D01*
X91034116Y-132264861D01*
X90982690Y-132377469D01*
X90982689Y-132377472D01*
X90965073Y-132499997D01*
X90965073Y-132500002D01*
X90000500Y-132500002D01*
X90000500Y-131400002D01*
X90965073Y-131400002D01*
X90982689Y-131522527D01*
X90982690Y-131522530D01*
X90982690Y-131522531D01*
X90982691Y-131522533D01*
X91034116Y-131635139D01*
X91115183Y-131728696D01*
X91115184Y-131728697D01*
X91219320Y-131795621D01*
X91219325Y-131795624D01*
X91338103Y-131830500D01*
X91338104Y-131830500D01*
X91461896Y-131830500D01*
X91461897Y-131830500D01*
X91580675Y-131795624D01*
X91684817Y-131728696D01*
X91765884Y-131635139D01*
X91817309Y-131522533D01*
X91834927Y-131400002D01*
X93865073Y-131400002D01*
X93882689Y-131522527D01*
X93882690Y-131522530D01*
X93882690Y-131522531D01*
X93882691Y-131522533D01*
X93934116Y-131635139D01*
X94015183Y-131728696D01*
X94015184Y-131728697D01*
X94119320Y-131795621D01*
X94119325Y-131795624D01*
X94238103Y-131830500D01*
X94238104Y-131830500D01*
X94361896Y-131830500D01*
X94361897Y-131830500D01*
X94480675Y-131795624D01*
X94584817Y-131728696D01*
X94665884Y-131635139D01*
X94717309Y-131522533D01*
X94734927Y-131400002D01*
X112865073Y-131400002D01*
X112882689Y-131522527D01*
X112882690Y-131522530D01*
X112882690Y-131522531D01*
X112882691Y-131522533D01*
X112934116Y-131635139D01*
X113015183Y-131728696D01*
X113015184Y-131728697D01*
X113119320Y-131795621D01*
X113119325Y-131795624D01*
X113238103Y-131830500D01*
X113238104Y-131830500D01*
X113361896Y-131830500D01*
X113361897Y-131830500D01*
X113480675Y-131795624D01*
X113584817Y-131728696D01*
X113665884Y-131635139D01*
X113717309Y-131522533D01*
X113734927Y-131400000D01*
X113717309Y-131277467D01*
X113665884Y-131164861D01*
X113584817Y-131071304D01*
X113584816Y-131071303D01*
X113584815Y-131071302D01*
X113480679Y-131004378D01*
X113480676Y-131004377D01*
X113480675Y-131004376D01*
X113421286Y-130986937D01*
X113361898Y-130969500D01*
X113361897Y-130969500D01*
X113238103Y-130969500D01*
X113238101Y-130969500D01*
X113119325Y-131004376D01*
X113119320Y-131004378D01*
X113015184Y-131071302D01*
X112934116Y-131164861D01*
X112882690Y-131277469D01*
X112882689Y-131277472D01*
X112865073Y-131399997D01*
X112865073Y-131400002D01*
X94734927Y-131400002D01*
X94734927Y-131400000D01*
X94717309Y-131277467D01*
X94665884Y-131164861D01*
X94584817Y-131071304D01*
X94584816Y-131071303D01*
X94584815Y-131071302D01*
X94480679Y-131004378D01*
X94480676Y-131004377D01*
X94480675Y-131004376D01*
X94421286Y-130986937D01*
X94361898Y-130969500D01*
X94361897Y-130969500D01*
X94238103Y-130969500D01*
X94238101Y-130969500D01*
X94119325Y-131004376D01*
X94119320Y-131004378D01*
X94015184Y-131071302D01*
X93934116Y-131164861D01*
X93882690Y-131277469D01*
X93882689Y-131277472D01*
X93865073Y-131399997D01*
X93865073Y-131400002D01*
X91834927Y-131400002D01*
X91834927Y-131400000D01*
X91817309Y-131277467D01*
X91765884Y-131164861D01*
X91684817Y-131071304D01*
X91684816Y-131071303D01*
X91684815Y-131071302D01*
X91580679Y-131004378D01*
X91580676Y-131004377D01*
X91580675Y-131004376D01*
X91521286Y-130986937D01*
X91461898Y-130969500D01*
X91461897Y-130969500D01*
X91338103Y-130969500D01*
X91338101Y-130969500D01*
X91219325Y-131004376D01*
X91219320Y-131004378D01*
X91115184Y-131071302D01*
X91034116Y-131164861D01*
X90982690Y-131277469D01*
X90982689Y-131277472D01*
X90965073Y-131399997D01*
X90965073Y-131400002D01*
X90000500Y-131400002D01*
X90000500Y-130600000D01*
X103194318Y-130600000D01*
X103214955Y-130756758D01*
X103214957Y-130756766D01*
X103275462Y-130902838D01*
X103275462Y-130902839D01*
X103371713Y-131028276D01*
X103371718Y-131028282D01*
X103497159Y-131124536D01*
X103643238Y-131185044D01*
X103760809Y-131200522D01*
X103799999Y-131205682D01*
X103800000Y-131205682D01*
X103800001Y-131205682D01*
X103831352Y-131201554D01*
X103956762Y-131185044D01*
X104102841Y-131124536D01*
X104228282Y-131028282D01*
X104324536Y-130902841D01*
X104385044Y-130756762D01*
X104405682Y-130600000D01*
X104385044Y-130443238D01*
X104324537Y-130297161D01*
X104324537Y-130297160D01*
X104228286Y-130171723D01*
X104228285Y-130171722D01*
X104228282Y-130171718D01*
X104228277Y-130171714D01*
X104228276Y-130171713D01*
X104102838Y-130075462D01*
X103956766Y-130014957D01*
X103956758Y-130014955D01*
X103800001Y-129994318D01*
X103799999Y-129994318D01*
X103643241Y-130014955D01*
X103643233Y-130014957D01*
X103497161Y-130075462D01*
X103497160Y-130075462D01*
X103371723Y-130171713D01*
X103371713Y-130171723D01*
X103275462Y-130297160D01*
X103275462Y-130297161D01*
X103214957Y-130443233D01*
X103214955Y-130443241D01*
X103194318Y-130599999D01*
X103194318Y-130600000D01*
X90000500Y-130600000D01*
X90000500Y-128750000D01*
X110994318Y-128750000D01*
X111014955Y-128906758D01*
X111014957Y-128906766D01*
X111075462Y-129052838D01*
X111075462Y-129052839D01*
X111075464Y-129052841D01*
X111171718Y-129178282D01*
X111297159Y-129274536D01*
X111443238Y-129335044D01*
X111560809Y-129350522D01*
X111599999Y-129355682D01*
X111600000Y-129355682D01*
X111600001Y-129355682D01*
X111631352Y-129351554D01*
X111756762Y-129335044D01*
X111902841Y-129274536D01*
X112028282Y-129178282D01*
X112124536Y-129052841D01*
X112185044Y-128906762D01*
X112205682Y-128750000D01*
X112185044Y-128593238D01*
X112144611Y-128495624D01*
X112124537Y-128447161D01*
X112124537Y-128447160D01*
X112028286Y-128321723D01*
X112028285Y-128321722D01*
X112028282Y-128321718D01*
X112028277Y-128321714D01*
X112028276Y-128321713D01*
X111902838Y-128225462D01*
X111756766Y-128164957D01*
X111756758Y-128164955D01*
X111600001Y-128144318D01*
X111599999Y-128144318D01*
X111443241Y-128164955D01*
X111443233Y-128164957D01*
X111297161Y-128225462D01*
X111297160Y-128225462D01*
X111171723Y-128321713D01*
X111171713Y-128321723D01*
X111075462Y-128447160D01*
X111075462Y-128447161D01*
X111014957Y-128593233D01*
X111014955Y-128593241D01*
X110994318Y-128749999D01*
X110994318Y-128750000D01*
X90000500Y-128750000D01*
X90000500Y-128100002D01*
X90965073Y-128100002D01*
X90982689Y-128222527D01*
X90982690Y-128222530D01*
X90982690Y-128222531D01*
X90982691Y-128222533D01*
X91034116Y-128335139D01*
X91115183Y-128428696D01*
X91115184Y-128428697D01*
X91143915Y-128447161D01*
X91219325Y-128495624D01*
X91338103Y-128530500D01*
X91338104Y-128530500D01*
X91461896Y-128530500D01*
X91461897Y-128530500D01*
X91580675Y-128495624D01*
X91684817Y-128428696D01*
X91765884Y-128335139D01*
X91817309Y-128222533D01*
X91817310Y-128222527D01*
X91834927Y-128100002D01*
X92065073Y-128100002D01*
X92082689Y-128222527D01*
X92082690Y-128222530D01*
X92082690Y-128222531D01*
X92082691Y-128222533D01*
X92134116Y-128335139D01*
X92215183Y-128428696D01*
X92215184Y-128428697D01*
X92243915Y-128447161D01*
X92319325Y-128495624D01*
X92438103Y-128530500D01*
X92438104Y-128530500D01*
X92561896Y-128530500D01*
X92561897Y-128530500D01*
X92680675Y-128495624D01*
X92784817Y-128428696D01*
X92865884Y-128335139D01*
X92917309Y-128222533D01*
X92917310Y-128222527D01*
X92934927Y-128100002D01*
X92934927Y-128099997D01*
X92917310Y-127977472D01*
X92917309Y-127977469D01*
X92917309Y-127977467D01*
X92865884Y-127864861D01*
X92784817Y-127771304D01*
X92784816Y-127771303D01*
X92784815Y-127771302D01*
X92680679Y-127704378D01*
X92680676Y-127704377D01*
X92680675Y-127704376D01*
X92621286Y-127686937D01*
X92561898Y-127669500D01*
X92561897Y-127669500D01*
X92438103Y-127669500D01*
X92438101Y-127669500D01*
X92319325Y-127704376D01*
X92319320Y-127704378D01*
X92215184Y-127771302D01*
X92134116Y-127864861D01*
X92082690Y-127977469D01*
X92082689Y-127977472D01*
X92065073Y-128099997D01*
X92065073Y-128100002D01*
X91834927Y-128100002D01*
X91834927Y-128099997D01*
X91817310Y-127977472D01*
X91817309Y-127977469D01*
X91817309Y-127977467D01*
X91765884Y-127864861D01*
X91684817Y-127771304D01*
X91684816Y-127771303D01*
X91684815Y-127771302D01*
X91580679Y-127704378D01*
X91580676Y-127704377D01*
X91580675Y-127704376D01*
X91521286Y-127686937D01*
X91461898Y-127669500D01*
X91461897Y-127669500D01*
X91338103Y-127669500D01*
X91338101Y-127669500D01*
X91219325Y-127704376D01*
X91219320Y-127704378D01*
X91115184Y-127771302D01*
X91034116Y-127864861D01*
X90982690Y-127977469D01*
X90982689Y-127977472D01*
X90965073Y-128099997D01*
X90965073Y-128100002D01*
X90000500Y-128100002D01*
X90000500Y-127500002D01*
X108565073Y-127500002D01*
X108582689Y-127622527D01*
X108582690Y-127622530D01*
X108582690Y-127622531D01*
X108582691Y-127622533D01*
X108634116Y-127735139D01*
X108715183Y-127828696D01*
X108715184Y-127828697D01*
X108819320Y-127895621D01*
X108819325Y-127895624D01*
X108938103Y-127930500D01*
X108938104Y-127930500D01*
X109061896Y-127930500D01*
X109061897Y-127930500D01*
X109180675Y-127895624D01*
X109284817Y-127828696D01*
X109365884Y-127735139D01*
X109417309Y-127622533D01*
X109434927Y-127500000D01*
X109417309Y-127377467D01*
X109365884Y-127264861D01*
X109284817Y-127171304D01*
X109284816Y-127171303D01*
X109284815Y-127171302D01*
X109180679Y-127104378D01*
X109180676Y-127104377D01*
X109180675Y-127104376D01*
X109121286Y-127086937D01*
X109061898Y-127069500D01*
X109061897Y-127069500D01*
X108938103Y-127069500D01*
X108938101Y-127069500D01*
X108819325Y-127104376D01*
X108819320Y-127104378D01*
X108715184Y-127171302D01*
X108634116Y-127264861D01*
X108582690Y-127377469D01*
X108582689Y-127377472D01*
X108565073Y-127499997D01*
X108565073Y-127500002D01*
X90000500Y-127500002D01*
X90000500Y-125900002D01*
X90965073Y-125900002D01*
X90982689Y-126022527D01*
X90982690Y-126022530D01*
X90982690Y-126022531D01*
X90982691Y-126022533D01*
X91034116Y-126135139D01*
X91115183Y-126228696D01*
X91115184Y-126228697D01*
X91219320Y-126295621D01*
X91219325Y-126295624D01*
X91338103Y-126330500D01*
X91338104Y-126330500D01*
X91461896Y-126330500D01*
X91461897Y-126330500D01*
X91580675Y-126295624D01*
X91684817Y-126228696D01*
X91765884Y-126135139D01*
X91817309Y-126022533D01*
X91834927Y-125900002D01*
X106565073Y-125900002D01*
X106582689Y-126022527D01*
X106582690Y-126022530D01*
X106582690Y-126022531D01*
X106582691Y-126022533D01*
X106634116Y-126135139D01*
X106715183Y-126228696D01*
X106715184Y-126228697D01*
X106819320Y-126295621D01*
X106819325Y-126295624D01*
X106938103Y-126330500D01*
X106938104Y-126330500D01*
X107061896Y-126330500D01*
X107061897Y-126330500D01*
X107180675Y-126295624D01*
X107284817Y-126228696D01*
X107365884Y-126135139D01*
X107417309Y-126022533D01*
X107434927Y-125900000D01*
X107417309Y-125777467D01*
X107365884Y-125664861D01*
X107284817Y-125571304D01*
X107284816Y-125571303D01*
X107284815Y-125571302D01*
X107180679Y-125504378D01*
X107180676Y-125504377D01*
X107180675Y-125504376D01*
X107121286Y-125486937D01*
X107061898Y-125469500D01*
X107061897Y-125469500D01*
X106938103Y-125469500D01*
X106938101Y-125469500D01*
X106819325Y-125504376D01*
X106819320Y-125504378D01*
X106715184Y-125571302D01*
X106634116Y-125664861D01*
X106582690Y-125777469D01*
X106582689Y-125777472D01*
X106565073Y-125899997D01*
X106565073Y-125900002D01*
X91834927Y-125900002D01*
X91834927Y-125900000D01*
X91817309Y-125777467D01*
X91765884Y-125664861D01*
X91684817Y-125571304D01*
X91684816Y-125571303D01*
X91684815Y-125571302D01*
X91580679Y-125504378D01*
X91580676Y-125504377D01*
X91580675Y-125504376D01*
X91521286Y-125486937D01*
X91461898Y-125469500D01*
X91461897Y-125469500D01*
X91338103Y-125469500D01*
X91338101Y-125469500D01*
X91219325Y-125504376D01*
X91219320Y-125504378D01*
X91115184Y-125571302D01*
X91034116Y-125664861D01*
X90982690Y-125777469D01*
X90982689Y-125777472D01*
X90965073Y-125899997D01*
X90965073Y-125900002D01*
X90000500Y-125900002D01*
X90000500Y-124800002D01*
X90965073Y-124800002D01*
X90982689Y-124922527D01*
X90982690Y-124922530D01*
X90982690Y-124922531D01*
X90982691Y-124922533D01*
X91034116Y-125035139D01*
X91092460Y-125102472D01*
X91115184Y-125128697D01*
X91219320Y-125195621D01*
X91219325Y-125195624D01*
X91338103Y-125230500D01*
X91338104Y-125230500D01*
X91461896Y-125230500D01*
X91461897Y-125230500D01*
X91480622Y-125225002D01*
X104290073Y-125225002D01*
X104307689Y-125347527D01*
X104307690Y-125347530D01*
X104307690Y-125347531D01*
X104307691Y-125347533D01*
X104359116Y-125460139D01*
X104440183Y-125553696D01*
X104440184Y-125553697D01*
X104544320Y-125620621D01*
X104544325Y-125620624D01*
X104663103Y-125655500D01*
X104663104Y-125655500D01*
X104786896Y-125655500D01*
X104786897Y-125655500D01*
X104905675Y-125620624D01*
X105009817Y-125553696D01*
X105090884Y-125460139D01*
X105142309Y-125347533D01*
X105159136Y-125230500D01*
X105159927Y-125225002D01*
X105159927Y-125224997D01*
X105142310Y-125102472D01*
X105142309Y-125102469D01*
X105142309Y-125102467D01*
X105090884Y-124989861D01*
X105009817Y-124896304D01*
X105009816Y-124896303D01*
X105009815Y-124896302D01*
X104905679Y-124829378D01*
X104905676Y-124829377D01*
X104905675Y-124829376D01*
X104846286Y-124811937D01*
X104786898Y-124794500D01*
X104786897Y-124794500D01*
X104663103Y-124794500D01*
X104663101Y-124794500D01*
X104544325Y-124829376D01*
X104544320Y-124829378D01*
X104440184Y-124896302D01*
X104359116Y-124989861D01*
X104307690Y-125102469D01*
X104307689Y-125102472D01*
X104290073Y-125224997D01*
X104290073Y-125225002D01*
X91480622Y-125225002D01*
X91580675Y-125195624D01*
X91684817Y-125128696D01*
X91765884Y-125035139D01*
X91817309Y-124922533D01*
X91830703Y-124829378D01*
X91834927Y-124800002D01*
X91834927Y-124799997D01*
X91817310Y-124677472D01*
X91817309Y-124677469D01*
X91817309Y-124677467D01*
X91765884Y-124564861D01*
X91684817Y-124471304D01*
X91684816Y-124471303D01*
X91684815Y-124471302D01*
X91580679Y-124404378D01*
X91580676Y-124404377D01*
X91580675Y-124404376D01*
X91521286Y-124386937D01*
X91461898Y-124369500D01*
X91461897Y-124369500D01*
X91338103Y-124369500D01*
X91338101Y-124369500D01*
X91219325Y-124404376D01*
X91219320Y-124404378D01*
X91115184Y-124471302D01*
X91034116Y-124564861D01*
X90982690Y-124677469D01*
X90982689Y-124677472D01*
X90965073Y-124799997D01*
X90965073Y-124800002D01*
X90000500Y-124800002D01*
X90000500Y-124000002D01*
X109565073Y-124000002D01*
X109582689Y-124122527D01*
X109582690Y-124122530D01*
X109582690Y-124122531D01*
X109582691Y-124122533D01*
X109634116Y-124235139D01*
X109715183Y-124328696D01*
X109715184Y-124328697D01*
X109778675Y-124369500D01*
X109819325Y-124395624D01*
X109938103Y-124430500D01*
X109938104Y-124430500D01*
X110061896Y-124430500D01*
X110061897Y-124430500D01*
X110180675Y-124395624D01*
X110284817Y-124328696D01*
X110365884Y-124235139D01*
X110417309Y-124122533D01*
X110434927Y-124000000D01*
X110417309Y-123877467D01*
X110365884Y-123764861D01*
X110284817Y-123671304D01*
X110284816Y-123671303D01*
X110284815Y-123671302D01*
X110180679Y-123604378D01*
X110180676Y-123604377D01*
X110180675Y-123604376D01*
X110114829Y-123585042D01*
X110061898Y-123569500D01*
X110061897Y-123569500D01*
X109938103Y-123569500D01*
X109938101Y-123569500D01*
X109819325Y-123604376D01*
X109819320Y-123604378D01*
X109715184Y-123671302D01*
X109634116Y-123764861D01*
X109582690Y-123877469D01*
X109582689Y-123877472D01*
X109565073Y-123999997D01*
X109565073Y-124000002D01*
X90000500Y-124000002D01*
X90000500Y-123000000D01*
X98694318Y-123000000D01*
X98714955Y-123156758D01*
X98714957Y-123156766D01*
X98775462Y-123302838D01*
X98775462Y-123302839D01*
X98871713Y-123428276D01*
X98871718Y-123428282D01*
X98871722Y-123428285D01*
X98871723Y-123428286D01*
X98901082Y-123450813D01*
X98997159Y-123524536D01*
X98997160Y-123524536D01*
X98997161Y-123524537D01*
X99143233Y-123585042D01*
X99143238Y-123585044D01*
X99260809Y-123600522D01*
X99299999Y-123605682D01*
X99300000Y-123605682D01*
X99300001Y-123605682D01*
X99331352Y-123601554D01*
X99456762Y-123585044D01*
X99602841Y-123524536D01*
X99728282Y-123428282D01*
X99824536Y-123302841D01*
X99885044Y-123156762D01*
X99905682Y-123000002D01*
X110565073Y-123000002D01*
X110582689Y-123122527D01*
X110582690Y-123122530D01*
X110582690Y-123122531D01*
X110582691Y-123122533D01*
X110634116Y-123235139D01*
X110692777Y-123302838D01*
X110715184Y-123328697D01*
X110819320Y-123395621D01*
X110819325Y-123395624D01*
X110938103Y-123430500D01*
X110938104Y-123430500D01*
X111061896Y-123430500D01*
X111061897Y-123430500D01*
X111180675Y-123395624D01*
X111284817Y-123328696D01*
X111365884Y-123235139D01*
X111417309Y-123122533D01*
X111434927Y-123000000D01*
X111417309Y-122877467D01*
X111365884Y-122764861D01*
X111284817Y-122671304D01*
X111284816Y-122671303D01*
X111284815Y-122671302D01*
X111180679Y-122604378D01*
X111180676Y-122604377D01*
X111180675Y-122604376D01*
X111121286Y-122586937D01*
X111061898Y-122569500D01*
X111061897Y-122569500D01*
X110938103Y-122569500D01*
X110938101Y-122569500D01*
X110819325Y-122604376D01*
X110819320Y-122604378D01*
X110715184Y-122671302D01*
X110634116Y-122764861D01*
X110582690Y-122877469D01*
X110582689Y-122877472D01*
X110565073Y-122999997D01*
X110565073Y-123000002D01*
X99905682Y-123000002D01*
X99905682Y-123000000D01*
X99885044Y-122843238D01*
X99824537Y-122697161D01*
X99824537Y-122697160D01*
X99728286Y-122571723D01*
X99728285Y-122571722D01*
X99728282Y-122571718D01*
X99728277Y-122571714D01*
X99728276Y-122571713D01*
X99602838Y-122475462D01*
X99456766Y-122414957D01*
X99456758Y-122414955D01*
X99300001Y-122394318D01*
X99299999Y-122394318D01*
X99143241Y-122414955D01*
X99143233Y-122414957D01*
X98997161Y-122475462D01*
X98997160Y-122475462D01*
X98871723Y-122571713D01*
X98871713Y-122571723D01*
X98775462Y-122697160D01*
X98775462Y-122697161D01*
X98714957Y-122843233D01*
X98714955Y-122843241D01*
X98694318Y-122999999D01*
X98694318Y-123000000D01*
X90000500Y-123000000D01*
X90000500Y-121550000D01*
X92544318Y-121550000D01*
X92564955Y-121706758D01*
X92564957Y-121706766D01*
X92625462Y-121852838D01*
X92625462Y-121852839D01*
X92625464Y-121852841D01*
X92721718Y-121978282D01*
X92847159Y-122074536D01*
X92993238Y-122135044D01*
X93110809Y-122150522D01*
X93149999Y-122155682D01*
X93150000Y-122155682D01*
X93150001Y-122155682D01*
X93181352Y-122151554D01*
X93306762Y-122135044D01*
X93452841Y-122074536D01*
X93578282Y-121978282D01*
X93674536Y-121852841D01*
X93735044Y-121706762D01*
X93755682Y-121550000D01*
X93735044Y-121393238D01*
X93674537Y-121247161D01*
X93674537Y-121247160D01*
X93578286Y-121121723D01*
X93578285Y-121121722D01*
X93578282Y-121121718D01*
X93578277Y-121121714D01*
X93578276Y-121121713D01*
X93452838Y-121025462D01*
X93391372Y-121000002D01*
X107065073Y-121000002D01*
X107082689Y-121122527D01*
X107082690Y-121122530D01*
X107082690Y-121122531D01*
X107082691Y-121122533D01*
X107134116Y-121235139D01*
X107215183Y-121328696D01*
X107215184Y-121328697D01*
X107315612Y-121393238D01*
X107319325Y-121395624D01*
X107438103Y-121430500D01*
X107438104Y-121430500D01*
X107561896Y-121430500D01*
X107561897Y-121430500D01*
X107680675Y-121395624D01*
X107784817Y-121328696D01*
X107865884Y-121235139D01*
X107917309Y-121122533D01*
X107917310Y-121122527D01*
X107934927Y-121000002D01*
X107934927Y-120999997D01*
X107917310Y-120877472D01*
X107917309Y-120877469D01*
X107917309Y-120877467D01*
X107865884Y-120764861D01*
X107784817Y-120671304D01*
X107784816Y-120671303D01*
X107784815Y-120671302D01*
X107680679Y-120604378D01*
X107680676Y-120604377D01*
X107680675Y-120604376D01*
X107621286Y-120586937D01*
X107561898Y-120569500D01*
X107561897Y-120569500D01*
X107438103Y-120569500D01*
X107438101Y-120569500D01*
X107319325Y-120604376D01*
X107319320Y-120604378D01*
X107215184Y-120671302D01*
X107134116Y-120764861D01*
X107082690Y-120877469D01*
X107082689Y-120877472D01*
X107065073Y-120999997D01*
X107065073Y-121000002D01*
X93391372Y-121000002D01*
X93306766Y-120964957D01*
X93306758Y-120964955D01*
X93150001Y-120944318D01*
X93149999Y-120944318D01*
X92993241Y-120964955D01*
X92993233Y-120964957D01*
X92847161Y-121025462D01*
X92847160Y-121025462D01*
X92721723Y-121121713D01*
X92721713Y-121121723D01*
X92625462Y-121247160D01*
X92625462Y-121247161D01*
X92564957Y-121393233D01*
X92564955Y-121393241D01*
X92544318Y-121549999D01*
X92544318Y-121550000D01*
X90000500Y-121550000D01*
X90000500Y-119996047D01*
X104311118Y-119996047D01*
X104328734Y-120118572D01*
X104328735Y-120118575D01*
X104328735Y-120118576D01*
X104328736Y-120118578D01*
X104380161Y-120231184D01*
X104396467Y-120250002D01*
X104461229Y-120324742D01*
X104565365Y-120391666D01*
X104565370Y-120391669D01*
X104684148Y-120426545D01*
X104684149Y-120426545D01*
X104807941Y-120426545D01*
X104807942Y-120426545D01*
X104926720Y-120391669D01*
X105030862Y-120324741D01*
X105111929Y-120231184D01*
X105163354Y-120118578D01*
X105180403Y-120000002D01*
X106065073Y-120000002D01*
X106082689Y-120122527D01*
X106082690Y-120122530D01*
X106082690Y-120122531D01*
X106082691Y-120122533D01*
X106134116Y-120235139D01*
X106211756Y-120324741D01*
X106215184Y-120328697D01*
X106313166Y-120391666D01*
X106319325Y-120395624D01*
X106438103Y-120430500D01*
X106438104Y-120430500D01*
X106561896Y-120430500D01*
X106561897Y-120430500D01*
X106680675Y-120395624D01*
X106784817Y-120328696D01*
X106853005Y-120250002D01*
X113565073Y-120250002D01*
X113582689Y-120372527D01*
X113582690Y-120372530D01*
X113582690Y-120372531D01*
X113582691Y-120372533D01*
X113634116Y-120485139D01*
X113707215Y-120569500D01*
X113715184Y-120578697D01*
X113755145Y-120604378D01*
X113819325Y-120645624D01*
X113938103Y-120680500D01*
X113938104Y-120680500D01*
X114061896Y-120680500D01*
X114061897Y-120680500D01*
X114180675Y-120645624D01*
X114284817Y-120578696D01*
X114365884Y-120485139D01*
X114417309Y-120372533D01*
X114423612Y-120328696D01*
X114434927Y-120250002D01*
X114434927Y-120249997D01*
X114417310Y-120127472D01*
X114417309Y-120127469D01*
X114417309Y-120127467D01*
X114365884Y-120014861D01*
X114284817Y-119921304D01*
X114284816Y-119921303D01*
X114284815Y-119921302D01*
X114180679Y-119854378D01*
X114180676Y-119854377D01*
X114180675Y-119854376D01*
X114121286Y-119836937D01*
X114061898Y-119819500D01*
X114061897Y-119819500D01*
X113938103Y-119819500D01*
X113938101Y-119819500D01*
X113819325Y-119854376D01*
X113819320Y-119854378D01*
X113715184Y-119921302D01*
X113634116Y-120014861D01*
X113582690Y-120127469D01*
X113582689Y-120127472D01*
X113565073Y-120249997D01*
X113565073Y-120250002D01*
X106853005Y-120250002D01*
X106865884Y-120235139D01*
X106917309Y-120122533D01*
X106917879Y-120118572D01*
X106934927Y-120000002D01*
X106934927Y-119999997D01*
X106917310Y-119877472D01*
X106917309Y-119877469D01*
X106917309Y-119877467D01*
X106865884Y-119764861D01*
X106784817Y-119671304D01*
X106784816Y-119671303D01*
X106784815Y-119671302D01*
X106680679Y-119604378D01*
X106680676Y-119604377D01*
X106680675Y-119604376D01*
X106621286Y-119586937D01*
X106561898Y-119569500D01*
X106561897Y-119569500D01*
X106438103Y-119569500D01*
X106438101Y-119569500D01*
X106319325Y-119604376D01*
X106319320Y-119604378D01*
X106215184Y-119671302D01*
X106134116Y-119764861D01*
X106082690Y-119877469D01*
X106082689Y-119877472D01*
X106065073Y-119999997D01*
X106065073Y-120000002D01*
X105180403Y-120000002D01*
X105180972Y-119996047D01*
X105180972Y-119996042D01*
X105163355Y-119873517D01*
X105163354Y-119873514D01*
X105163354Y-119873512D01*
X105111929Y-119760906D01*
X105030862Y-119667349D01*
X105030861Y-119667348D01*
X105030860Y-119667347D01*
X104926724Y-119600423D01*
X104926721Y-119600422D01*
X104926720Y-119600421D01*
X104821412Y-119569500D01*
X104807943Y-119565545D01*
X104807942Y-119565545D01*
X104684148Y-119565545D01*
X104684146Y-119565545D01*
X104565370Y-119600421D01*
X104565365Y-119600423D01*
X104461229Y-119667347D01*
X104380161Y-119760906D01*
X104328735Y-119873514D01*
X104328734Y-119873517D01*
X104311118Y-119996042D01*
X104311118Y-119996047D01*
X90000500Y-119996047D01*
X90000500Y-119000002D01*
X109565073Y-119000002D01*
X109582689Y-119122527D01*
X109582690Y-119122530D01*
X109582690Y-119122531D01*
X109582691Y-119122533D01*
X109634116Y-119235139D01*
X109715183Y-119328696D01*
X109715184Y-119328697D01*
X109819320Y-119395621D01*
X109819325Y-119395624D01*
X109938103Y-119430500D01*
X109938104Y-119430500D01*
X110061896Y-119430500D01*
X110061897Y-119430500D01*
X110180675Y-119395624D01*
X110284817Y-119328696D01*
X110365884Y-119235139D01*
X110417309Y-119122533D01*
X110434927Y-119000000D01*
X110417309Y-118877467D01*
X110365884Y-118764861D01*
X110284817Y-118671304D01*
X110284816Y-118671303D01*
X110284815Y-118671302D01*
X110180679Y-118604378D01*
X110180676Y-118604377D01*
X110180675Y-118604376D01*
X110121286Y-118586937D01*
X110061898Y-118569500D01*
X110061897Y-118569500D01*
X109938103Y-118569500D01*
X109938101Y-118569500D01*
X109819325Y-118604376D01*
X109819320Y-118604378D01*
X109715184Y-118671302D01*
X109634116Y-118764861D01*
X109582690Y-118877469D01*
X109582689Y-118877472D01*
X109565073Y-118999997D01*
X109565073Y-119000002D01*
X90000500Y-119000002D01*
X90000500Y-118000002D01*
X101065073Y-118000002D01*
X101082689Y-118122527D01*
X101082690Y-118122530D01*
X101082690Y-118122531D01*
X101082691Y-118122533D01*
X101134116Y-118235139D01*
X101215183Y-118328696D01*
X101215184Y-118328697D01*
X101319320Y-118395621D01*
X101319325Y-118395624D01*
X101438103Y-118430500D01*
X101438104Y-118430500D01*
X101561896Y-118430500D01*
X101561897Y-118430500D01*
X101680675Y-118395624D01*
X101784817Y-118328696D01*
X101865884Y-118235139D01*
X101917309Y-118122533D01*
X101934927Y-118000002D01*
X111565073Y-118000002D01*
X111582689Y-118122527D01*
X111582690Y-118122530D01*
X111582690Y-118122531D01*
X111582691Y-118122533D01*
X111634116Y-118235139D01*
X111715183Y-118328696D01*
X111715184Y-118328697D01*
X111819320Y-118395621D01*
X111819325Y-118395624D01*
X111938103Y-118430500D01*
X111938104Y-118430500D01*
X112061896Y-118430500D01*
X112061897Y-118430500D01*
X112180675Y-118395624D01*
X112284817Y-118328696D01*
X112365884Y-118235139D01*
X112417309Y-118122533D01*
X112434927Y-118000000D01*
X112417309Y-117877467D01*
X112365884Y-117764861D01*
X112284817Y-117671304D01*
X112284816Y-117671303D01*
X112284815Y-117671302D01*
X112180679Y-117604378D01*
X112180676Y-117604377D01*
X112180675Y-117604376D01*
X112121286Y-117586937D01*
X112061898Y-117569500D01*
X112061897Y-117569500D01*
X111938103Y-117569500D01*
X111938101Y-117569500D01*
X111819325Y-117604376D01*
X111819320Y-117604378D01*
X111715184Y-117671302D01*
X111634116Y-117764861D01*
X111582690Y-117877469D01*
X111582689Y-117877472D01*
X111565073Y-117999997D01*
X111565073Y-118000002D01*
X101934927Y-118000002D01*
X101934927Y-118000000D01*
X101917309Y-117877467D01*
X101865884Y-117764861D01*
X101784817Y-117671304D01*
X101784816Y-117671303D01*
X101784815Y-117671302D01*
X101680679Y-117604378D01*
X101680676Y-117604377D01*
X101680675Y-117604376D01*
X101621286Y-117586937D01*
X101561898Y-117569500D01*
X101561897Y-117569500D01*
X101438103Y-117569500D01*
X101438101Y-117569500D01*
X101319325Y-117604376D01*
X101319320Y-117604378D01*
X101215184Y-117671302D01*
X101134116Y-117764861D01*
X101082690Y-117877469D01*
X101082689Y-117877472D01*
X101065073Y-117999997D01*
X101065073Y-118000002D01*
X90000500Y-118000002D01*
X90000500Y-116000002D01*
X110315073Y-116000002D01*
X110332689Y-116122527D01*
X110332690Y-116122530D01*
X110332690Y-116122531D01*
X110332691Y-116122533D01*
X110384116Y-116235139D01*
X110465183Y-116328696D01*
X110465184Y-116328697D01*
X110569320Y-116395621D01*
X110569325Y-116395624D01*
X110688103Y-116430500D01*
X110688104Y-116430500D01*
X110811896Y-116430500D01*
X110811897Y-116430500D01*
X110930675Y-116395624D01*
X111034817Y-116328696D01*
X111115884Y-116235139D01*
X111167309Y-116122533D01*
X111184927Y-116000000D01*
X111167309Y-115877467D01*
X111115884Y-115764861D01*
X111034817Y-115671304D01*
X111034816Y-115671303D01*
X111034815Y-115671302D01*
X110930679Y-115604378D01*
X110930676Y-115604377D01*
X110930675Y-115604376D01*
X110871285Y-115586937D01*
X110811898Y-115569500D01*
X110811897Y-115569500D01*
X110688103Y-115569500D01*
X110688101Y-115569500D01*
X110569325Y-115604376D01*
X110569320Y-115604378D01*
X110465184Y-115671302D01*
X110384116Y-115764861D01*
X110332690Y-115877469D01*
X110332689Y-115877472D01*
X110315073Y-115999997D01*
X110315073Y-116000002D01*
X90000500Y-116000002D01*
X90000500Y-111500002D01*
X100065073Y-111500002D01*
X100082689Y-111622527D01*
X100082690Y-111622530D01*
X100082690Y-111622531D01*
X100082691Y-111622533D01*
X100134116Y-111735139D01*
X100190318Y-111800000D01*
X100215184Y-111828697D01*
X100271606Y-111864957D01*
X100319325Y-111895624D01*
X100438103Y-111930500D01*
X100438104Y-111930500D01*
X100561896Y-111930500D01*
X100561897Y-111930500D01*
X100680675Y-111895624D01*
X100784817Y-111828696D01*
X100809680Y-111800002D01*
X103665073Y-111800002D01*
X103682689Y-111922527D01*
X103682690Y-111922530D01*
X103682690Y-111922531D01*
X103682691Y-111922533D01*
X103734116Y-112035139D01*
X103810924Y-112123781D01*
X103815184Y-112128697D01*
X103919320Y-112195621D01*
X103919325Y-112195624D01*
X103991046Y-112216683D01*
X104041552Y-112251217D01*
X104062114Y-112308844D01*
X104053208Y-112352798D01*
X104007690Y-112452469D01*
X104007689Y-112452472D01*
X103990073Y-112574997D01*
X103990073Y-112575002D01*
X104007689Y-112697527D01*
X104007690Y-112697530D01*
X104007690Y-112697531D01*
X104007691Y-112697533D01*
X104059116Y-112810139D01*
X104140183Y-112903696D01*
X104140184Y-112903697D01*
X104244320Y-112970621D01*
X104244325Y-112970624D01*
X104363103Y-113005500D01*
X104363104Y-113005500D01*
X104486896Y-113005500D01*
X104486897Y-113005500D01*
X104605675Y-112970624D01*
X104709817Y-112903696D01*
X104790884Y-112810139D01*
X104842309Y-112697533D01*
X104859927Y-112575000D01*
X104842309Y-112452467D01*
X104790884Y-112339861D01*
X104709817Y-112246304D01*
X104709816Y-112246303D01*
X104709815Y-112246302D01*
X104605679Y-112179378D01*
X104605676Y-112179376D01*
X104605675Y-112179376D01*
X104533954Y-112158317D01*
X104483447Y-112123781D01*
X104462885Y-112066154D01*
X104471791Y-112022203D01*
X104517309Y-111922533D01*
X104521178Y-111895623D01*
X104534927Y-111800002D01*
X104534927Y-111799997D01*
X104517310Y-111677472D01*
X104517309Y-111677469D01*
X104517309Y-111677467D01*
X104465884Y-111564861D01*
X104384817Y-111471304D01*
X104384816Y-111471303D01*
X104384815Y-111471302D01*
X104280679Y-111404378D01*
X104280676Y-111404377D01*
X104280675Y-111404376D01*
X104221285Y-111386937D01*
X104161898Y-111369500D01*
X104161897Y-111369500D01*
X104038103Y-111369500D01*
X104038101Y-111369500D01*
X103919325Y-111404376D01*
X103919320Y-111404378D01*
X103815184Y-111471302D01*
X103734116Y-111564861D01*
X103682690Y-111677469D01*
X103682689Y-111677472D01*
X103665073Y-111799997D01*
X103665073Y-111800002D01*
X100809680Y-111800002D01*
X100865884Y-111735139D01*
X100917309Y-111622533D01*
X100934927Y-111500000D01*
X100921178Y-111404378D01*
X100917310Y-111377472D01*
X100917309Y-111377469D01*
X100917309Y-111377467D01*
X100865884Y-111264861D01*
X100784817Y-111171304D01*
X100784816Y-111171303D01*
X100784815Y-111171302D01*
X100680679Y-111104378D01*
X100680676Y-111104377D01*
X100680675Y-111104376D01*
X100621285Y-111086937D01*
X100561898Y-111069500D01*
X100561897Y-111069500D01*
X100438103Y-111069500D01*
X100438101Y-111069500D01*
X100319325Y-111104376D01*
X100319320Y-111104378D01*
X100215184Y-111171302D01*
X100134116Y-111264861D01*
X100082690Y-111377469D01*
X100082689Y-111377472D01*
X100065073Y-111499997D01*
X100065073Y-111500002D01*
X90000500Y-111500002D01*
X90000500Y-110900002D01*
X105165073Y-110900002D01*
X105182689Y-111022527D01*
X105182690Y-111022530D01*
X105182690Y-111022531D01*
X105182691Y-111022533D01*
X105234116Y-111135139D01*
X105315183Y-111228696D01*
X105315184Y-111228697D01*
X105419320Y-111295621D01*
X105419325Y-111295624D01*
X105511142Y-111322583D01*
X105538102Y-111330500D01*
X105542938Y-111331195D01*
X105597847Y-111358188D01*
X105598858Y-111359184D01*
X108246039Y-114006365D01*
X108273816Y-114060882D01*
X108274027Y-114062280D01*
X108282689Y-114122527D01*
X108282690Y-114122530D01*
X108282690Y-114122531D01*
X108282691Y-114122533D01*
X108334116Y-114235139D01*
X108415183Y-114328696D01*
X108415184Y-114328697D01*
X108519320Y-114395621D01*
X108519325Y-114395624D01*
X108638103Y-114430500D01*
X108638104Y-114430500D01*
X108761896Y-114430500D01*
X108761897Y-114430500D01*
X108880675Y-114395624D01*
X108984817Y-114328696D01*
X109065884Y-114235139D01*
X109117309Y-114122533D01*
X109134927Y-114000000D01*
X109117309Y-113877467D01*
X109065884Y-113764861D01*
X108984817Y-113671304D01*
X108984816Y-113671303D01*
X108984815Y-113671302D01*
X108880679Y-113604378D01*
X108880676Y-113604377D01*
X108880675Y-113604376D01*
X108849509Y-113595225D01*
X108761893Y-113569498D01*
X108757054Y-113568803D01*
X108702147Y-113541806D01*
X108701141Y-113540815D01*
X107610326Y-112450000D01*
X120894318Y-112450000D01*
X120914955Y-112606758D01*
X120914957Y-112606766D01*
X120975462Y-112752838D01*
X120975462Y-112752839D01*
X120975464Y-112752841D01*
X121071718Y-112878282D01*
X121197159Y-112974536D01*
X121197160Y-112974536D01*
X121197161Y-112974537D01*
X121343233Y-113035042D01*
X121343238Y-113035044D01*
X121460809Y-113050522D01*
X121499999Y-113055682D01*
X121500000Y-113055682D01*
X121500001Y-113055682D01*
X121531352Y-113051554D01*
X121656762Y-113035044D01*
X121802841Y-112974536D01*
X121928282Y-112878282D01*
X122024536Y-112752841D01*
X122085044Y-112606762D01*
X122105682Y-112450000D01*
X122085044Y-112293238D01*
X122065603Y-112246304D01*
X122024537Y-112147161D01*
X122024537Y-112147160D01*
X121928286Y-112021723D01*
X121928285Y-112021722D01*
X121928282Y-112021718D01*
X121928277Y-112021714D01*
X121928276Y-112021713D01*
X121809404Y-111930500D01*
X121802841Y-111925464D01*
X121802840Y-111925463D01*
X121802838Y-111925462D01*
X121656766Y-111864957D01*
X121656758Y-111864955D01*
X121500001Y-111844318D01*
X121499999Y-111844318D01*
X121343241Y-111864955D01*
X121343233Y-111864957D01*
X121197161Y-111925462D01*
X121197160Y-111925462D01*
X121071723Y-112021713D01*
X121071713Y-112021723D01*
X120975462Y-112147160D01*
X120975462Y-112147161D01*
X120914957Y-112293233D01*
X120914955Y-112293241D01*
X120894318Y-112449999D01*
X120894318Y-112450000D01*
X107610326Y-112450000D01*
X106053959Y-110893633D01*
X106026182Y-110839116D01*
X106025994Y-110837877D01*
X106017309Y-110777467D01*
X105965884Y-110664861D01*
X105884817Y-110571304D01*
X105884816Y-110571303D01*
X105884815Y-110571302D01*
X105780679Y-110504378D01*
X105780676Y-110504377D01*
X105780675Y-110504376D01*
X105721285Y-110486937D01*
X105661898Y-110469500D01*
X105661897Y-110469500D01*
X105538103Y-110469500D01*
X105538101Y-110469500D01*
X105419325Y-110504376D01*
X105419320Y-110504378D01*
X105315184Y-110571302D01*
X105234116Y-110664861D01*
X105182690Y-110777469D01*
X105182689Y-110777472D01*
X105165073Y-110899997D01*
X105165073Y-110900002D01*
X90000500Y-110900002D01*
X90000500Y-109900002D01*
X108165073Y-109900002D01*
X108182689Y-110022527D01*
X108182690Y-110022530D01*
X108182690Y-110022531D01*
X108182691Y-110022533D01*
X108234116Y-110135139D01*
X108315183Y-110228696D01*
X108315184Y-110228697D01*
X108419320Y-110295621D01*
X108419325Y-110295624D01*
X108538103Y-110330500D01*
X108538104Y-110330500D01*
X108661896Y-110330500D01*
X108661897Y-110330500D01*
X108780675Y-110295624D01*
X108884817Y-110228696D01*
X108965884Y-110135139D01*
X109017309Y-110022533D01*
X109034927Y-109900000D01*
X109025524Y-109834604D01*
X109017310Y-109777472D01*
X109017309Y-109777469D01*
X109017309Y-109777467D01*
X108965884Y-109664861D01*
X108884817Y-109571304D01*
X108884816Y-109571303D01*
X108884815Y-109571302D01*
X108851671Y-109550002D01*
X118115073Y-109550002D01*
X118132689Y-109672527D01*
X118132690Y-109672530D01*
X118132690Y-109672531D01*
X118132691Y-109672533D01*
X118184116Y-109785139D01*
X118249820Y-109860966D01*
X118265184Y-109878697D01*
X118369320Y-109945621D01*
X118369325Y-109945624D01*
X118488103Y-109980500D01*
X118488104Y-109980500D01*
X118611896Y-109980500D01*
X118611897Y-109980500D01*
X118730675Y-109945624D01*
X118834817Y-109878696D01*
X118850180Y-109860965D01*
X118902575Y-109829369D01*
X118963536Y-109834604D01*
X118999819Y-109860965D01*
X119015183Y-109878696D01*
X119119325Y-109945624D01*
X119238103Y-109980500D01*
X119238104Y-109980500D01*
X119361896Y-109980500D01*
X119361897Y-109980500D01*
X119480675Y-109945624D01*
X119584817Y-109878696D01*
X119665884Y-109785139D01*
X119717309Y-109672533D01*
X119723671Y-109628286D01*
X119734927Y-109550002D01*
X119734927Y-109549997D01*
X119717310Y-109427472D01*
X119717309Y-109427469D01*
X119717309Y-109427467D01*
X119665884Y-109314861D01*
X119584817Y-109221304D01*
X119584816Y-109221303D01*
X119584815Y-109221302D01*
X119480679Y-109154378D01*
X119480676Y-109154377D01*
X119480675Y-109154376D01*
X119421285Y-109136937D01*
X119361898Y-109119500D01*
X119361897Y-109119500D01*
X119238103Y-109119500D01*
X119238101Y-109119500D01*
X119119325Y-109154376D01*
X119119320Y-109154378D01*
X119015183Y-109221303D01*
X118999819Y-109239035D01*
X118947423Y-109270630D01*
X118886462Y-109265394D01*
X118850181Y-109239035D01*
X118834816Y-109221303D01*
X118730679Y-109154378D01*
X118730676Y-109154377D01*
X118730675Y-109154376D01*
X118671285Y-109136937D01*
X118611898Y-109119500D01*
X118611897Y-109119500D01*
X118488103Y-109119500D01*
X118488101Y-109119500D01*
X118369325Y-109154376D01*
X118369320Y-109154378D01*
X118265184Y-109221302D01*
X118184116Y-109314861D01*
X118132690Y-109427469D01*
X118132689Y-109427472D01*
X118115073Y-109549997D01*
X118115073Y-109550002D01*
X108851671Y-109550002D01*
X108780679Y-109504378D01*
X108780676Y-109504377D01*
X108780675Y-109504376D01*
X108721285Y-109486937D01*
X108661898Y-109469500D01*
X108661897Y-109469500D01*
X108538103Y-109469500D01*
X108538101Y-109469500D01*
X108419325Y-109504376D01*
X108419320Y-109504378D01*
X108315184Y-109571302D01*
X108234116Y-109664861D01*
X108182690Y-109777469D01*
X108182689Y-109777472D01*
X108165073Y-109899997D01*
X108165073Y-109900002D01*
X90000500Y-109900002D01*
X90000500Y-109200000D01*
X94394318Y-109200000D01*
X94414955Y-109356758D01*
X94414957Y-109356766D01*
X94475462Y-109502838D01*
X94475462Y-109502839D01*
X94527997Y-109571304D01*
X94571718Y-109628282D01*
X94697159Y-109724536D01*
X94697160Y-109724536D01*
X94697161Y-109724537D01*
X94843233Y-109785042D01*
X94843238Y-109785044D01*
X94960809Y-109800522D01*
X94999999Y-109805682D01*
X95000000Y-109805682D01*
X95000001Y-109805682D01*
X95031352Y-109801554D01*
X95156762Y-109785044D01*
X95302841Y-109724536D01*
X95428282Y-109628282D01*
X95524536Y-109502841D01*
X95585044Y-109356762D01*
X95605682Y-109200000D01*
X95585044Y-109043238D01*
X95524537Y-108897161D01*
X95524537Y-108897160D01*
X95428286Y-108771723D01*
X95428285Y-108771722D01*
X95428282Y-108771718D01*
X95428277Y-108771714D01*
X95428276Y-108771713D01*
X95302838Y-108675462D01*
X95156766Y-108614957D01*
X95156758Y-108614955D01*
X95000001Y-108594318D01*
X94999999Y-108594318D01*
X94843241Y-108614955D01*
X94843233Y-108614957D01*
X94697161Y-108675462D01*
X94697160Y-108675462D01*
X94571723Y-108771713D01*
X94571713Y-108771723D01*
X94475462Y-108897160D01*
X94475462Y-108897161D01*
X94414957Y-109043233D01*
X94414955Y-109043241D01*
X94394318Y-109199999D01*
X94394318Y-109200000D01*
X90000500Y-109200000D01*
X90000500Y-107500000D01*
X94394318Y-107500000D01*
X94414955Y-107656758D01*
X94414957Y-107656766D01*
X94475462Y-107802838D01*
X94475462Y-107802839D01*
X94571713Y-107928276D01*
X94571718Y-107928282D01*
X94697159Y-108024536D01*
X94843238Y-108085044D01*
X94960809Y-108100522D01*
X94999999Y-108105682D01*
X95000000Y-108105682D01*
X95000001Y-108105682D01*
X95031352Y-108101554D01*
X95156762Y-108085044D01*
X95302841Y-108024536D01*
X95428282Y-107928282D01*
X95524536Y-107802841D01*
X95585044Y-107656762D01*
X95605682Y-107500000D01*
X95605681Y-107499996D01*
X95585044Y-107343241D01*
X95585044Y-107343238D01*
X95563057Y-107290156D01*
X95546423Y-107249999D01*
X115398588Y-107249999D01*
X115398589Y-107250000D01*
X115986314Y-107250000D01*
X115960507Y-107290156D01*
X115920000Y-107428111D01*
X115920000Y-107571889D01*
X115960507Y-107709844D01*
X115986314Y-107750000D01*
X115398589Y-107750000D01*
X115445232Y-107903762D01*
X115445234Y-107903767D01*
X115542724Y-108086160D01*
X115542731Y-108086170D01*
X115673940Y-108246050D01*
X115673949Y-108246059D01*
X115833829Y-108377268D01*
X115833839Y-108377275D01*
X116016232Y-108474765D01*
X116016237Y-108474767D01*
X116169999Y-108521411D01*
X116170000Y-108521411D01*
X116169999Y-107935501D01*
X116277685Y-107984680D01*
X116384237Y-108000000D01*
X116455763Y-108000000D01*
X116562315Y-107984680D01*
X116670000Y-107935501D01*
X116670000Y-108521411D01*
X116823762Y-108474767D01*
X116823767Y-108474765D01*
X117006160Y-108377275D01*
X117006170Y-108377268D01*
X117166050Y-108246059D01*
X117166059Y-108246050D01*
X117297268Y-108086170D01*
X117297275Y-108086160D01*
X117394765Y-107903767D01*
X117394767Y-107903762D01*
X117441411Y-107750000D01*
X116853686Y-107750000D01*
X116879493Y-107709844D01*
X116920000Y-107571889D01*
X116920000Y-107500003D01*
X117904417Y-107500003D01*
X117924698Y-107705929D01*
X117924699Y-107705934D01*
X117984768Y-107903954D01*
X118082316Y-108086452D01*
X118213302Y-108246059D01*
X118213590Y-108246410D01*
X118213595Y-108246414D01*
X118373547Y-108377683D01*
X118373548Y-108377683D01*
X118373550Y-108377685D01*
X118556046Y-108475232D01*
X118693997Y-108517078D01*
X118754065Y-108535300D01*
X118754070Y-108535301D01*
X118959997Y-108555583D01*
X118960000Y-108555583D01*
X118960003Y-108555583D01*
X119165929Y-108535301D01*
X119165934Y-108535300D01*
X119211720Y-108521411D01*
X119363954Y-108475232D01*
X119546450Y-108377685D01*
X119706410Y-108246410D01*
X119837685Y-108086450D01*
X119935232Y-107903954D01*
X119995300Y-107705934D01*
X119995301Y-107705929D01*
X120015583Y-107500003D01*
X120444417Y-107500003D01*
X120464698Y-107705929D01*
X120464699Y-107705934D01*
X120524768Y-107903954D01*
X120622316Y-108086452D01*
X120753302Y-108246059D01*
X120753590Y-108246410D01*
X120753595Y-108246414D01*
X120913547Y-108377683D01*
X120913548Y-108377683D01*
X120913550Y-108377685D01*
X121096046Y-108475232D01*
X121233996Y-108517078D01*
X121294065Y-108535300D01*
X121294070Y-108535301D01*
X121499997Y-108555583D01*
X121500000Y-108555583D01*
X121500003Y-108555583D01*
X121705929Y-108535301D01*
X121705934Y-108535300D01*
X121751720Y-108521411D01*
X121903954Y-108475232D01*
X122086450Y-108377685D01*
X122096124Y-108369746D01*
X122989500Y-108369746D01*
X122989501Y-108369758D01*
X123001132Y-108428227D01*
X123001134Y-108428233D01*
X123045445Y-108494548D01*
X123045448Y-108494552D01*
X123111769Y-108538867D01*
X123156231Y-108547711D01*
X123170241Y-108550498D01*
X123170246Y-108550498D01*
X123170252Y-108550500D01*
X123170253Y-108550500D01*
X124909747Y-108550500D01*
X124909748Y-108550500D01*
X124968231Y-108538867D01*
X125034552Y-108494552D01*
X125078867Y-108428231D01*
X125090500Y-108369748D01*
X125090500Y-106630252D01*
X125088921Y-106622316D01*
X125087711Y-106616231D01*
X125078867Y-106571769D01*
X125034552Y-106505448D01*
X124994354Y-106478588D01*
X124968233Y-106461134D01*
X124968231Y-106461133D01*
X124968228Y-106461132D01*
X124968227Y-106461132D01*
X124909758Y-106449501D01*
X124909748Y-106449500D01*
X123170252Y-106449500D01*
X123170251Y-106449500D01*
X123170241Y-106449501D01*
X123111772Y-106461132D01*
X123111766Y-106461134D01*
X123045451Y-106505445D01*
X123045445Y-106505451D01*
X123001134Y-106571766D01*
X123001132Y-106571772D01*
X122989501Y-106630241D01*
X122989500Y-106630253D01*
X122989500Y-108369746D01*
X122096124Y-108369746D01*
X122246410Y-108246410D01*
X122377685Y-108086450D01*
X122475232Y-107903954D01*
X122535300Y-107705934D01*
X122535301Y-107705929D01*
X122555583Y-107500003D01*
X122555583Y-107499996D01*
X122535301Y-107294070D01*
X122535300Y-107294065D01*
X122517078Y-107233996D01*
X122475232Y-107096046D01*
X122377685Y-106913550D01*
X122246410Y-106753590D01*
X122096123Y-106630253D01*
X122086452Y-106622316D01*
X121903954Y-106524768D01*
X121705934Y-106464699D01*
X121705929Y-106464698D01*
X121500003Y-106444417D01*
X121499997Y-106444417D01*
X121294070Y-106464698D01*
X121294065Y-106464699D01*
X121096045Y-106524768D01*
X120913547Y-106622316D01*
X120753595Y-106753585D01*
X120753585Y-106753595D01*
X120622316Y-106913547D01*
X120524768Y-107096045D01*
X120464699Y-107294065D01*
X120464698Y-107294070D01*
X120444417Y-107499996D01*
X120444417Y-107500003D01*
X120015583Y-107500003D01*
X120015583Y-107499996D01*
X119995301Y-107294070D01*
X119995300Y-107294065D01*
X119977078Y-107233996D01*
X119935232Y-107096046D01*
X119837685Y-106913550D01*
X119706410Y-106753590D01*
X119556123Y-106630253D01*
X119546452Y-106622316D01*
X119363954Y-106524768D01*
X119165934Y-106464699D01*
X119165929Y-106464698D01*
X118960003Y-106444417D01*
X118959997Y-106444417D01*
X118754070Y-106464698D01*
X118754065Y-106464699D01*
X118556045Y-106524768D01*
X118373547Y-106622316D01*
X118213595Y-106753585D01*
X118213585Y-106753595D01*
X118082316Y-106913547D01*
X117984768Y-107096045D01*
X117924699Y-107294065D01*
X117924698Y-107294070D01*
X117904417Y-107499996D01*
X117904417Y-107500003D01*
X116920000Y-107500003D01*
X116920000Y-107428111D01*
X116879493Y-107290156D01*
X116853686Y-107250000D01*
X117441411Y-107250000D01*
X117441411Y-107249999D01*
X117394767Y-107096237D01*
X117394765Y-107096232D01*
X117297275Y-106913839D01*
X117297268Y-106913829D01*
X117166059Y-106753949D01*
X117166050Y-106753940D01*
X117006170Y-106622731D01*
X117006160Y-106622724D01*
X116823771Y-106525236D01*
X116823758Y-106525231D01*
X116669999Y-106478588D01*
X116669999Y-107064498D01*
X116562315Y-107015320D01*
X116455763Y-107000000D01*
X116384237Y-107000000D01*
X116277685Y-107015320D01*
X116170000Y-107064498D01*
X116170000Y-106478588D01*
X116016241Y-106525231D01*
X116016228Y-106525236D01*
X115833839Y-106622724D01*
X115833829Y-106622731D01*
X115673949Y-106753940D01*
X115673940Y-106753949D01*
X115542731Y-106913829D01*
X115542724Y-106913839D01*
X115445234Y-107096232D01*
X115445232Y-107096237D01*
X115398588Y-107249999D01*
X95546423Y-107249999D01*
X95524537Y-107197161D01*
X95524537Y-107197160D01*
X95428286Y-107071723D01*
X95428285Y-107071722D01*
X95428282Y-107071718D01*
X95428277Y-107071714D01*
X95428276Y-107071713D01*
X95302838Y-106975462D01*
X95156766Y-106914957D01*
X95156758Y-106914955D01*
X95000001Y-106894318D01*
X94999999Y-106894318D01*
X94843241Y-106914955D01*
X94843233Y-106914957D01*
X94697161Y-106975462D01*
X94697160Y-106975462D01*
X94571723Y-107071713D01*
X94571713Y-107071723D01*
X94475462Y-107197160D01*
X94475462Y-107197161D01*
X94414957Y-107343233D01*
X94414955Y-107343241D01*
X94394318Y-107499999D01*
X94394318Y-107500000D01*
X90000500Y-107500000D01*
X90000500Y-105700000D01*
X99994318Y-105700000D01*
X100014955Y-105856758D01*
X100014957Y-105856766D01*
X100075462Y-106002838D01*
X100075462Y-106002839D01*
X100171713Y-106128276D01*
X100171718Y-106128282D01*
X100297159Y-106224536D01*
X100297160Y-106224536D01*
X100297161Y-106224537D01*
X100443233Y-106285042D01*
X100443238Y-106285044D01*
X100560809Y-106300522D01*
X100599999Y-106305682D01*
X100600000Y-106305682D01*
X100600001Y-106305682D01*
X100631352Y-106301554D01*
X100756762Y-106285044D01*
X100902841Y-106224536D01*
X101028282Y-106128282D01*
X101124536Y-106002841D01*
X101125712Y-106000002D01*
X113565073Y-106000002D01*
X113582689Y-106122527D01*
X113582690Y-106122530D01*
X113582690Y-106122531D01*
X113582691Y-106122533D01*
X113634116Y-106235139D01*
X113715183Y-106328696D01*
X113715184Y-106328697D01*
X113819320Y-106395621D01*
X113819325Y-106395624D01*
X113938103Y-106430500D01*
X113938104Y-106430500D01*
X114061896Y-106430500D01*
X114061897Y-106430500D01*
X114180675Y-106395624D01*
X114284817Y-106328696D01*
X114365884Y-106235139D01*
X114417309Y-106122533D01*
X114434927Y-106000000D01*
X114417309Y-105877467D01*
X114365884Y-105764861D01*
X114284817Y-105671304D01*
X114284816Y-105671303D01*
X114284815Y-105671302D01*
X114180679Y-105604378D01*
X114180676Y-105604377D01*
X114180675Y-105604376D01*
X114121285Y-105586937D01*
X114061898Y-105569500D01*
X114061897Y-105569500D01*
X113938103Y-105569500D01*
X113938101Y-105569500D01*
X113819325Y-105604376D01*
X113819320Y-105604378D01*
X113715184Y-105671302D01*
X113634116Y-105764861D01*
X113582690Y-105877469D01*
X113582689Y-105877472D01*
X113565073Y-105999997D01*
X113565073Y-106000002D01*
X101125712Y-106000002D01*
X101185044Y-105856762D01*
X101205682Y-105700000D01*
X101185044Y-105543238D01*
X101124537Y-105397161D01*
X101124537Y-105397160D01*
X101028286Y-105271723D01*
X101028285Y-105271722D01*
X101028282Y-105271718D01*
X101028277Y-105271714D01*
X101028276Y-105271713D01*
X100957104Y-105217101D01*
X100902841Y-105175464D01*
X100902840Y-105175463D01*
X100902838Y-105175462D01*
X100756766Y-105114957D01*
X100756758Y-105114955D01*
X100600001Y-105094318D01*
X100599999Y-105094318D01*
X100443241Y-105114955D01*
X100443233Y-105114957D01*
X100297161Y-105175462D01*
X100297160Y-105175462D01*
X100171723Y-105271713D01*
X100171713Y-105271723D01*
X100075462Y-105397160D01*
X100075462Y-105397161D01*
X100014957Y-105543233D01*
X100014955Y-105543241D01*
X99994318Y-105699999D01*
X99994318Y-105700000D01*
X90000500Y-105700000D01*
X90000500Y-104250003D01*
X91032843Y-104250003D01*
X91051425Y-104438678D01*
X91051426Y-104438683D01*
X91106463Y-104620115D01*
X91106465Y-104620120D01*
X91174797Y-104747959D01*
X91195838Y-104787324D01*
X91316117Y-104933883D01*
X91462676Y-105054162D01*
X91629885Y-105143537D01*
X91735136Y-105175464D01*
X91811316Y-105198573D01*
X91811321Y-105198574D01*
X91999997Y-105217157D01*
X92000000Y-105217157D01*
X92000003Y-105217157D01*
X92188678Y-105198574D01*
X92188683Y-105198573D01*
X92188683Y-105198572D01*
X92370115Y-105143537D01*
X92537324Y-105054162D01*
X92683883Y-104933883D01*
X92804162Y-104787324D01*
X92893537Y-104620115D01*
X92948573Y-104438683D01*
X92948574Y-104438678D01*
X92967157Y-104250003D01*
X96032843Y-104250003D01*
X96051425Y-104438678D01*
X96051426Y-104438683D01*
X96106463Y-104620115D01*
X96106465Y-104620120D01*
X96174797Y-104747959D01*
X96195838Y-104787324D01*
X96316117Y-104933883D01*
X96462676Y-105054162D01*
X96629885Y-105143537D01*
X96735136Y-105175464D01*
X96811316Y-105198573D01*
X96811321Y-105198574D01*
X96999997Y-105217157D01*
X97000000Y-105217157D01*
X97000003Y-105217157D01*
X97188678Y-105198574D01*
X97188683Y-105198573D01*
X97188683Y-105198572D01*
X97370115Y-105143537D01*
X97537324Y-105054162D01*
X97683883Y-104933883D01*
X97804162Y-104787324D01*
X97893537Y-104620115D01*
X97938360Y-104472351D01*
X101980000Y-104472351D01*
X101995348Y-104598748D01*
X101995351Y-104598758D01*
X102055626Y-104757690D01*
X102055628Y-104757693D01*
X102152194Y-104897594D01*
X102152199Y-104897600D01*
X102279431Y-105010318D01*
X102429954Y-105089318D01*
X102429957Y-105089319D01*
X102429999Y-105089329D01*
X102430000Y-105089329D01*
X102429999Y-104596110D01*
X102454457Y-104635610D01*
X102543962Y-104703201D01*
X102651840Y-104733895D01*
X102763521Y-104723546D01*
X102863922Y-104673552D01*
X102930000Y-104601069D01*
X102930000Y-105089329D01*
X102930042Y-105089319D01*
X102930045Y-105089318D01*
X103080568Y-105010318D01*
X103080569Y-105010318D01*
X103207800Y-104897600D01*
X103207805Y-104897594D01*
X103304371Y-104757693D01*
X103304373Y-104757690D01*
X103364648Y-104598758D01*
X103364651Y-104598748D01*
X103376641Y-104500002D01*
X104165073Y-104500002D01*
X104182689Y-104622527D01*
X104182690Y-104622530D01*
X104182690Y-104622531D01*
X104182691Y-104622533D01*
X104234116Y-104735139D01*
X104279338Y-104787328D01*
X104315184Y-104828697D01*
X104419320Y-104895621D01*
X104419325Y-104895624D01*
X104538103Y-104930500D01*
X104538104Y-104930500D01*
X104661896Y-104930500D01*
X104661897Y-104930500D01*
X104780675Y-104895624D01*
X104884817Y-104828696D01*
X104965884Y-104735139D01*
X105017309Y-104622533D01*
X105017657Y-104620115D01*
X105034927Y-104500002D01*
X108965073Y-104500002D01*
X108982689Y-104622527D01*
X108982690Y-104622530D01*
X108982690Y-104622531D01*
X108982691Y-104622533D01*
X109034116Y-104735139D01*
X109079338Y-104787328D01*
X109115184Y-104828697D01*
X109219320Y-104895621D01*
X109219325Y-104895624D01*
X109338103Y-104930500D01*
X109338104Y-104930500D01*
X109461896Y-104930500D01*
X109461897Y-104930500D01*
X109580675Y-104895624D01*
X109684817Y-104828696D01*
X109765884Y-104735139D01*
X109817309Y-104622533D01*
X109817657Y-104620115D01*
X109834927Y-104500002D01*
X109834927Y-104499997D01*
X109817310Y-104377472D01*
X109817309Y-104377469D01*
X109817309Y-104377467D01*
X109765884Y-104264861D01*
X109684817Y-104171304D01*
X109684816Y-104171303D01*
X109684815Y-104171302D01*
X109620549Y-104130001D01*
X110619999Y-104130001D01*
X110620000Y-104472334D01*
X110620000Y-104472351D01*
X110635348Y-104598748D01*
X110635351Y-104598758D01*
X110695626Y-104757690D01*
X110695628Y-104757693D01*
X110792194Y-104897594D01*
X110792199Y-104897600D01*
X110919431Y-105010318D01*
X111069954Y-105089318D01*
X111069957Y-105089319D01*
X111070000Y-105089329D01*
X111069999Y-104596110D01*
X111094457Y-104635610D01*
X111183962Y-104703201D01*
X111291840Y-104733895D01*
X111403521Y-104723546D01*
X111503922Y-104673552D01*
X111570000Y-104601069D01*
X111570000Y-105089329D01*
X111570042Y-105089319D01*
X111570045Y-105089318D01*
X111720568Y-105010318D01*
X111720569Y-105010318D01*
X111847800Y-104897600D01*
X111847805Y-104897594D01*
X111944371Y-104757693D01*
X111944373Y-104757690D01*
X111947289Y-104750000D01*
X115544357Y-104750000D01*
X115564885Y-104971536D01*
X115625771Y-105185528D01*
X115724942Y-105384689D01*
X115859019Y-105562236D01*
X116023438Y-105712124D01*
X116212599Y-105829247D01*
X116420060Y-105909618D01*
X116638757Y-105950500D01*
X116861243Y-105950500D01*
X117079940Y-105909618D01*
X117287401Y-105829247D01*
X117476562Y-105712124D01*
X117640981Y-105562236D01*
X117775058Y-105384689D01*
X117874229Y-105185528D01*
X117935115Y-104971536D01*
X117955643Y-104750000D01*
X122044357Y-104750000D01*
X122064885Y-104971536D01*
X122125771Y-105185528D01*
X122224942Y-105384689D01*
X122359019Y-105562236D01*
X122523438Y-105712124D01*
X122712599Y-105829247D01*
X122920060Y-105909618D01*
X123138757Y-105950500D01*
X123361243Y-105950500D01*
X123579940Y-105909618D01*
X123787401Y-105829247D01*
X123976562Y-105712124D01*
X124140981Y-105562236D01*
X124275058Y-105384689D01*
X124374229Y-105185528D01*
X124435115Y-104971536D01*
X124455643Y-104750000D01*
X124435115Y-104528464D01*
X124374229Y-104314472D01*
X124275058Y-104115311D01*
X124140981Y-103937764D01*
X123976562Y-103787876D01*
X123787401Y-103670753D01*
X123579940Y-103590382D01*
X123579939Y-103590381D01*
X123579937Y-103590381D01*
X123361243Y-103549500D01*
X123138757Y-103549500D01*
X122920062Y-103590381D01*
X122908617Y-103594815D01*
X122712599Y-103670753D01*
X122565362Y-103761918D01*
X122523438Y-103787876D01*
X122359020Y-103937763D01*
X122224943Y-104115309D01*
X122224938Y-104115318D01*
X122150474Y-104264861D01*
X122125771Y-104314472D01*
X122064885Y-104528464D01*
X122044357Y-104750000D01*
X117955643Y-104750000D01*
X117935115Y-104528464D01*
X117874229Y-104314472D01*
X117775058Y-104115311D01*
X117640981Y-103937764D01*
X117476562Y-103787876D01*
X117287401Y-103670753D01*
X117079940Y-103590382D01*
X117079939Y-103590381D01*
X117079937Y-103590381D01*
X116861243Y-103549500D01*
X116638757Y-103549500D01*
X116420062Y-103590381D01*
X116408617Y-103594815D01*
X116212599Y-103670753D01*
X116065362Y-103761918D01*
X116023438Y-103787876D01*
X115859020Y-103937763D01*
X115724943Y-104115309D01*
X115724938Y-104115318D01*
X115650474Y-104264861D01*
X115625771Y-104314472D01*
X115564885Y-104528464D01*
X115544357Y-104750000D01*
X111947289Y-104750000D01*
X112004648Y-104598758D01*
X112004651Y-104598748D01*
X112019999Y-104472351D01*
X112020000Y-104472334D01*
X112020000Y-104130001D01*
X112019999Y-104130000D01*
X111620000Y-104130000D01*
X111620000Y-103630000D01*
X112019999Y-103630000D01*
X112020000Y-103629998D01*
X112020000Y-103287665D01*
X112019999Y-103287648D01*
X112004651Y-103161251D01*
X112004648Y-103161241D01*
X111944373Y-103002309D01*
X111944371Y-103002306D01*
X111847805Y-102862405D01*
X111847800Y-102862399D01*
X111720568Y-102749681D01*
X111570053Y-102670685D01*
X111570042Y-102670681D01*
X111570000Y-102670670D01*
X111569999Y-103163888D01*
X111545543Y-103124390D01*
X111456038Y-103056799D01*
X111348160Y-103026105D01*
X111236479Y-103036454D01*
X111136078Y-103086448D01*
X111070000Y-103158930D01*
X111070000Y-102670670D01*
X111069957Y-102670681D01*
X111069946Y-102670685D01*
X110919431Y-102749681D01*
X110919430Y-102749681D01*
X110792199Y-102862399D01*
X110792194Y-102862405D01*
X110695628Y-103002306D01*
X110695626Y-103002309D01*
X110635351Y-103161241D01*
X110635348Y-103161251D01*
X110620000Y-103287648D01*
X110620000Y-103287665D01*
X110619999Y-103629998D01*
X110620001Y-103630000D01*
X111020000Y-103630000D01*
X111020000Y-104130000D01*
X110620001Y-104130000D01*
X110619999Y-104130001D01*
X109620549Y-104130001D01*
X109580679Y-104104378D01*
X109580676Y-104104377D01*
X109580675Y-104104376D01*
X109521285Y-104086937D01*
X109461898Y-104069500D01*
X109461897Y-104069500D01*
X109338103Y-104069500D01*
X109338101Y-104069500D01*
X109219325Y-104104376D01*
X109219320Y-104104378D01*
X109115184Y-104171302D01*
X109034116Y-104264861D01*
X108982690Y-104377469D01*
X108982689Y-104377472D01*
X108965073Y-104499997D01*
X108965073Y-104500002D01*
X105034927Y-104500002D01*
X105034927Y-104499997D01*
X105017310Y-104377472D01*
X105017309Y-104377469D01*
X105017309Y-104377467D01*
X104965884Y-104264861D01*
X104884817Y-104171304D01*
X104884816Y-104171303D01*
X104884815Y-104171302D01*
X104780679Y-104104378D01*
X104780676Y-104104377D01*
X104780675Y-104104376D01*
X104721285Y-104086937D01*
X104661898Y-104069500D01*
X104661897Y-104069500D01*
X104538103Y-104069500D01*
X104538101Y-104069500D01*
X104419325Y-104104376D01*
X104419320Y-104104378D01*
X104315184Y-104171302D01*
X104234116Y-104264861D01*
X104182690Y-104377469D01*
X104182689Y-104377472D01*
X104165073Y-104499997D01*
X104165073Y-104500002D01*
X103376641Y-104500002D01*
X103379999Y-104472351D01*
X103380000Y-104472334D01*
X103380000Y-104130001D01*
X103379999Y-104130000D01*
X102980000Y-104130000D01*
X102980000Y-103630000D01*
X103379999Y-103630000D01*
X103380000Y-103629998D01*
X103380000Y-103416199D01*
X103580796Y-103416199D01*
X103610184Y-103557628D01*
X103610186Y-103557636D01*
X103676644Y-103685892D01*
X103676646Y-103685895D01*
X103775245Y-103791469D01*
X103898672Y-103866526D01*
X104037772Y-103905500D01*
X104037773Y-103905500D01*
X104145943Y-103905500D01*
X104145949Y-103905500D01*
X104253111Y-103890771D01*
X104385609Y-103833219D01*
X104497665Y-103742054D01*
X104580971Y-103624037D01*
X104615535Y-103526782D01*
X106315073Y-103526782D01*
X106332689Y-103649307D01*
X106332690Y-103649310D01*
X106332690Y-103649311D01*
X106332691Y-103649313D01*
X106384116Y-103761919D01*
X106465183Y-103855476D01*
X106465184Y-103855477D01*
X106569320Y-103922401D01*
X106569325Y-103922404D01*
X106688103Y-103957280D01*
X106688104Y-103957280D01*
X106811896Y-103957280D01*
X106811897Y-103957280D01*
X106930675Y-103922404D01*
X107034817Y-103855476D01*
X107115884Y-103761919D01*
X107166062Y-103652042D01*
X107207431Y-103606967D01*
X107267398Y-103594815D01*
X107323054Y-103620232D01*
X107346167Y-103652044D01*
X107384114Y-103735136D01*
X107384115Y-103735137D01*
X107384116Y-103735139D01*
X107407320Y-103761918D01*
X107465184Y-103828697D01*
X107569320Y-103895621D01*
X107569325Y-103895624D01*
X107688103Y-103930500D01*
X107688104Y-103930500D01*
X107811896Y-103930500D01*
X107811897Y-103930500D01*
X107930675Y-103895624D01*
X108034817Y-103828696D01*
X108115884Y-103735139D01*
X108167309Y-103622533D01*
X108169547Y-103606967D01*
X108184927Y-103500002D01*
X108184927Y-103499997D01*
X108172878Y-103416199D01*
X109360796Y-103416199D01*
X109390184Y-103557628D01*
X109390186Y-103557636D01*
X109456644Y-103685892D01*
X109456646Y-103685895D01*
X109555245Y-103791469D01*
X109678672Y-103866526D01*
X109817772Y-103905500D01*
X109817773Y-103905500D01*
X109925943Y-103905500D01*
X109925949Y-103905500D01*
X110033111Y-103890771D01*
X110165609Y-103833219D01*
X110277665Y-103742054D01*
X110360971Y-103624037D01*
X110409346Y-103487921D01*
X110419204Y-103343801D01*
X110407535Y-103287648D01*
X110389815Y-103202371D01*
X110389813Y-103202363D01*
X110323355Y-103074107D01*
X110323353Y-103074104D01*
X110288191Y-103036454D01*
X110224755Y-102968531D01*
X110224754Y-102968530D01*
X110101328Y-102893474D01*
X109962228Y-102854500D01*
X109854051Y-102854500D01*
X109746888Y-102869228D01*
X109614389Y-102926781D01*
X109502334Y-103017945D01*
X109419029Y-103135962D01*
X109370653Y-103272078D01*
X109360796Y-103416199D01*
X108172878Y-103416199D01*
X108167310Y-103377472D01*
X108167309Y-103377469D01*
X108167309Y-103377467D01*
X108115884Y-103264861D01*
X108034817Y-103171304D01*
X108034816Y-103171303D01*
X108034815Y-103171302D01*
X107930679Y-103104378D01*
X107930676Y-103104377D01*
X107930675Y-103104376D01*
X107869617Y-103086448D01*
X107811898Y-103069500D01*
X107811897Y-103069500D01*
X107688103Y-103069500D01*
X107688101Y-103069500D01*
X107569325Y-103104376D01*
X107569320Y-103104378D01*
X107465184Y-103171302D01*
X107384115Y-103264861D01*
X107384116Y-103264861D01*
X107342283Y-103356465D01*
X107333939Y-103374735D01*
X107292567Y-103419813D01*
X107232600Y-103431964D01*
X107176944Y-103406547D01*
X107153831Y-103374735D01*
X107115884Y-103291641D01*
X107034817Y-103198084D01*
X107034816Y-103198083D01*
X107034815Y-103198082D01*
X106930679Y-103131158D01*
X106930676Y-103131157D01*
X106930675Y-103131156D01*
X106839470Y-103104376D01*
X106811898Y-103096280D01*
X106811897Y-103096280D01*
X106688103Y-103096280D01*
X106688101Y-103096280D01*
X106569325Y-103131156D01*
X106569320Y-103131158D01*
X106465184Y-103198082D01*
X106384116Y-103291641D01*
X106332690Y-103404249D01*
X106332689Y-103404252D01*
X106315073Y-103526777D01*
X106315073Y-103526782D01*
X104615535Y-103526782D01*
X104629346Y-103487921D01*
X104639204Y-103343801D01*
X104627535Y-103287648D01*
X104609815Y-103202371D01*
X104609813Y-103202363D01*
X104543355Y-103074107D01*
X104543353Y-103074104D01*
X104508191Y-103036454D01*
X104444755Y-102968531D01*
X104444754Y-102968530D01*
X104321328Y-102893474D01*
X104182228Y-102854500D01*
X104074051Y-102854500D01*
X103966888Y-102869228D01*
X103834389Y-102926781D01*
X103722334Y-103017945D01*
X103639029Y-103135962D01*
X103590653Y-103272078D01*
X103580796Y-103416199D01*
X103380000Y-103416199D01*
X103380000Y-103287665D01*
X103379999Y-103287648D01*
X103364651Y-103161251D01*
X103364648Y-103161241D01*
X103304373Y-103002309D01*
X103304371Y-103002306D01*
X103207805Y-102862405D01*
X103207800Y-102862399D01*
X103080568Y-102749681D01*
X102930053Y-102670685D01*
X102930042Y-102670681D01*
X102930000Y-102670670D01*
X102930000Y-103163889D01*
X102905543Y-103124390D01*
X102816038Y-103056799D01*
X102708160Y-103026105D01*
X102596479Y-103036454D01*
X102496078Y-103086448D01*
X102430000Y-103158930D01*
X102430000Y-102670670D01*
X102429957Y-102670681D01*
X102429946Y-102670685D01*
X102279431Y-102749681D01*
X102279430Y-102749681D01*
X102152199Y-102862399D01*
X102152194Y-102862405D01*
X102055628Y-103002306D01*
X102055626Y-103002309D01*
X101995351Y-103161241D01*
X101995348Y-103161251D01*
X101980000Y-103287648D01*
X101980000Y-103629999D01*
X101980001Y-103630000D01*
X102380000Y-103630000D01*
X102380000Y-104130000D01*
X101980001Y-104130000D01*
X101980000Y-104130001D01*
X101980000Y-104472351D01*
X97938360Y-104472351D01*
X97948573Y-104438683D01*
X97948574Y-104438678D01*
X97967157Y-104250003D01*
X97967157Y-104249996D01*
X97948574Y-104061321D01*
X97948573Y-104061316D01*
X97911094Y-103937764D01*
X97893537Y-103879885D01*
X97886396Y-103866526D01*
X97872496Y-103840520D01*
X97804162Y-103712676D01*
X97683883Y-103566117D01*
X97635948Y-103526777D01*
X97537328Y-103445841D01*
X97537326Y-103445840D01*
X97537324Y-103445838D01*
X97459522Y-103404252D01*
X97370120Y-103356465D01*
X97370116Y-103356463D01*
X97350784Y-103350599D01*
X97331457Y-103344736D01*
X97281262Y-103309752D01*
X97261215Y-103251944D01*
X97278976Y-103193393D01*
X97327760Y-103156464D01*
X97331443Y-103155267D01*
X97370115Y-103143537D01*
X97537324Y-103054162D01*
X97683883Y-102933883D01*
X97804162Y-102787324D01*
X97893537Y-102620115D01*
X97948573Y-102438683D01*
X97948574Y-102438678D01*
X97967157Y-102250003D01*
X97967157Y-102249996D01*
X97948574Y-102061321D01*
X97948573Y-102061316D01*
X97931877Y-102006280D01*
X97893537Y-101879885D01*
X97804162Y-101712676D01*
X97683883Y-101566117D01*
X97644626Y-101533899D01*
X97537328Y-101445841D01*
X97537326Y-101445840D01*
X97537324Y-101445838D01*
X97497959Y-101424797D01*
X97370120Y-101356465D01*
X97370117Y-101356464D01*
X97370116Y-101356463D01*
X97370115Y-101356463D01*
X97344592Y-101348721D01*
X97330596Y-101344475D01*
X97280400Y-101309489D01*
X97260354Y-101251681D01*
X97278116Y-101193130D01*
X97326901Y-101156202D01*
X97330599Y-101155000D01*
X97369928Y-101143070D01*
X97480443Y-101083997D01*
X97027446Y-100631000D01*
X97031569Y-100631000D01*
X97125421Y-100615339D01*
X97237251Y-100554820D01*
X97323371Y-100461269D01*
X97374448Y-100344823D01*
X97380105Y-100276551D01*
X97833997Y-100730443D01*
X97893071Y-100619925D01*
X97948081Y-100438585D01*
X97948082Y-100438580D01*
X97966655Y-100250003D01*
X97966655Y-100249996D01*
X97961731Y-100200002D01*
X100965073Y-100200002D01*
X100982689Y-100322527D01*
X100982690Y-100322530D01*
X100982690Y-100322531D01*
X100982691Y-100322533D01*
X101034116Y-100435139D01*
X101066518Y-100472533D01*
X101115184Y-100528697D01*
X101179696Y-100570156D01*
X101219325Y-100595624D01*
X101338103Y-100630500D01*
X101338104Y-100630500D01*
X101461896Y-100630500D01*
X101461897Y-100630500D01*
X101580675Y-100595624D01*
X101684817Y-100528696D01*
X101765884Y-100435139D01*
X101817309Y-100322533D01*
X101817309Y-100322527D01*
X101819305Y-100315736D01*
X101820535Y-100316097D01*
X101844277Y-100267805D01*
X101898390Y-100239250D01*
X101958953Y-100247955D01*
X102002833Y-100290595D01*
X102007843Y-100301693D01*
X102055629Y-100427695D01*
X102152194Y-100567594D01*
X102152199Y-100567600D01*
X102279431Y-100680318D01*
X102429954Y-100759318D01*
X102429957Y-100759319D01*
X102429999Y-100759329D01*
X102430000Y-100759329D01*
X102429999Y-100266109D01*
X102454457Y-100305610D01*
X102543962Y-100373201D01*
X102651840Y-100403895D01*
X102763521Y-100393546D01*
X102863922Y-100343552D01*
X102930000Y-100271069D01*
X102930000Y-100759329D01*
X102930042Y-100759319D01*
X102930045Y-100759318D01*
X103080568Y-100680318D01*
X103080569Y-100680318D01*
X103207800Y-100567600D01*
X103207805Y-100567594D01*
X103304371Y-100427693D01*
X103304373Y-100427690D01*
X103364648Y-100268758D01*
X103364651Y-100268748D01*
X103379999Y-100142351D01*
X110620000Y-100142351D01*
X110635348Y-100268748D01*
X110635351Y-100268758D01*
X110695626Y-100427690D01*
X110695628Y-100427693D01*
X110792194Y-100567594D01*
X110792199Y-100567600D01*
X110919431Y-100680318D01*
X111069954Y-100759318D01*
X111069957Y-100759319D01*
X111070000Y-100759329D01*
X111070000Y-100266110D01*
X111094457Y-100305610D01*
X111183962Y-100373201D01*
X111291840Y-100403895D01*
X111403521Y-100393546D01*
X111503922Y-100343552D01*
X111570000Y-100271069D01*
X111570000Y-100759329D01*
X111570042Y-100759319D01*
X111570045Y-100759318D01*
X111720568Y-100680318D01*
X111720569Y-100680318D01*
X111847800Y-100567600D01*
X111847805Y-100567594D01*
X111944371Y-100427693D01*
X111944373Y-100427690D01*
X111973836Y-100350002D01*
X112215073Y-100350002D01*
X112232689Y-100472527D01*
X112232690Y-100472530D01*
X112232690Y-100472531D01*
X112232691Y-100472533D01*
X112284116Y-100585139D01*
X112365183Y-100678696D01*
X112365184Y-100678697D01*
X112375532Y-100685347D01*
X112469325Y-100745624D01*
X112588103Y-100780500D01*
X112588104Y-100780500D01*
X112711896Y-100780500D01*
X112711897Y-100780500D01*
X112830675Y-100745624D01*
X112934817Y-100678696D01*
X113015884Y-100585139D01*
X113067309Y-100472533D01*
X113067310Y-100472527D01*
X113084927Y-100350002D01*
X113084927Y-100349997D01*
X113070549Y-100249999D01*
X115544859Y-100249999D01*
X115565379Y-100471445D01*
X115626239Y-100685347D01*
X115725364Y-100884417D01*
X115725369Y-100884426D01*
X115741138Y-100905306D01*
X116224070Y-100422373D01*
X116226884Y-100435915D01*
X116296442Y-100570156D01*
X116399638Y-100680652D01*
X116528819Y-100759209D01*
X116580002Y-100773549D01*
X116096672Y-101256880D01*
X116212813Y-101328793D01*
X116212819Y-101328796D01*
X116420200Y-101409136D01*
X116638804Y-101450000D01*
X116861196Y-101450000D01*
X117079799Y-101409136D01*
X117287180Y-101328796D01*
X117287181Y-101328796D01*
X117403326Y-101256880D01*
X116921567Y-100775121D01*
X117038458Y-100724349D01*
X117155739Y-100628934D01*
X117242928Y-100505415D01*
X117273355Y-100419801D01*
X117758861Y-100905307D01*
X117774629Y-100884428D01*
X117774635Y-100884418D01*
X117873760Y-100685347D01*
X117934620Y-100471445D01*
X117955140Y-100250000D01*
X122044859Y-100250000D01*
X122065379Y-100471445D01*
X122126239Y-100685347D01*
X122225364Y-100884417D01*
X122225369Y-100884426D01*
X122241138Y-100905306D01*
X122724070Y-100422373D01*
X122726884Y-100435915D01*
X122796442Y-100570156D01*
X122899638Y-100680652D01*
X123028819Y-100759209D01*
X123080002Y-100773549D01*
X122596672Y-101256880D01*
X122712813Y-101328793D01*
X122712819Y-101328796D01*
X122920200Y-101409136D01*
X123138804Y-101450000D01*
X123361196Y-101450000D01*
X123579799Y-101409136D01*
X123787180Y-101328796D01*
X123787181Y-101328796D01*
X123903326Y-101256880D01*
X123421567Y-100775121D01*
X123538458Y-100724349D01*
X123655739Y-100628934D01*
X123742928Y-100505415D01*
X123773355Y-100419801D01*
X124258861Y-100905307D01*
X124274629Y-100884428D01*
X124274635Y-100884418D01*
X124373760Y-100685347D01*
X124434620Y-100471445D01*
X124455140Y-100249999D01*
X124434620Y-100028554D01*
X124373760Y-99814652D01*
X124274633Y-99615578D01*
X124274624Y-99615563D01*
X124258861Y-99594690D01*
X123775929Y-100077622D01*
X123773116Y-100064085D01*
X123703558Y-99929844D01*
X123600362Y-99819348D01*
X123471181Y-99740791D01*
X123419994Y-99726449D01*
X123903326Y-99243118D01*
X123787186Y-99171206D01*
X123787180Y-99171203D01*
X123579799Y-99090863D01*
X123361196Y-99050000D01*
X123138804Y-99050000D01*
X122920200Y-99090863D01*
X122712821Y-99171202D01*
X122712816Y-99171205D01*
X122596672Y-99243118D01*
X123078432Y-99724878D01*
X122961542Y-99775651D01*
X122844261Y-99871066D01*
X122757072Y-99994585D01*
X122726644Y-100080198D01*
X122241137Y-99594691D01*
X122225368Y-99615574D01*
X122126239Y-99814652D01*
X122065379Y-100028554D01*
X122044859Y-100250000D01*
X117955140Y-100250000D01*
X117934620Y-100028554D01*
X117873760Y-99814652D01*
X117774633Y-99615578D01*
X117774624Y-99615563D01*
X117758861Y-99594690D01*
X117275929Y-100077622D01*
X117273116Y-100064085D01*
X117203558Y-99929844D01*
X117100362Y-99819348D01*
X116971181Y-99740791D01*
X116919994Y-99726449D01*
X117403326Y-99243118D01*
X117287186Y-99171206D01*
X117287180Y-99171203D01*
X117079799Y-99090863D01*
X116861196Y-99050000D01*
X116638804Y-99050000D01*
X116420200Y-99090863D01*
X116212821Y-99171202D01*
X116212816Y-99171205D01*
X116096672Y-99243118D01*
X116578432Y-99724878D01*
X116461542Y-99775651D01*
X116344261Y-99871066D01*
X116257072Y-99994585D01*
X116226644Y-100080198D01*
X115741137Y-99594691D01*
X115725368Y-99615574D01*
X115626239Y-99814652D01*
X115565379Y-100028554D01*
X115544859Y-100249999D01*
X113070549Y-100249999D01*
X113067310Y-100227472D01*
X113067309Y-100227469D01*
X113067309Y-100227467D01*
X113015884Y-100114861D01*
X112934817Y-100021304D01*
X112934816Y-100021303D01*
X112934815Y-100021302D01*
X112830679Y-99954378D01*
X112830676Y-99954377D01*
X112830675Y-99954376D01*
X112747126Y-99929844D01*
X112711898Y-99919500D01*
X112711897Y-99919500D01*
X112588103Y-99919500D01*
X112588101Y-99919500D01*
X112469325Y-99954376D01*
X112469320Y-99954378D01*
X112365184Y-100021302D01*
X112284116Y-100114861D01*
X112232690Y-100227469D01*
X112232689Y-100227472D01*
X112215073Y-100349997D01*
X112215073Y-100350002D01*
X111973836Y-100350002D01*
X112004648Y-100268758D01*
X112004651Y-100268748D01*
X112019999Y-100142351D01*
X112020000Y-100142334D01*
X112020000Y-99950001D01*
X112019999Y-99950000D01*
X111620000Y-99950000D01*
X111620000Y-99450000D01*
X112019999Y-99450000D01*
X112020000Y-99449999D01*
X112020000Y-99257665D01*
X112019999Y-99257648D01*
X112004651Y-99131251D01*
X112004648Y-99131241D01*
X111944373Y-98972309D01*
X111944371Y-98972306D01*
X111847805Y-98832405D01*
X111847800Y-98832399D01*
X111720568Y-98719681D01*
X111570053Y-98640685D01*
X111570042Y-98640681D01*
X111570000Y-98640670D01*
X111570000Y-99133889D01*
X111545543Y-99094390D01*
X111456038Y-99026799D01*
X111348160Y-98996105D01*
X111236479Y-99006454D01*
X111136078Y-99056448D01*
X111069999Y-99128931D01*
X111069999Y-98640670D01*
X111069957Y-98640681D01*
X111069946Y-98640685D01*
X110919431Y-98719681D01*
X110919430Y-98719681D01*
X110792199Y-98832399D01*
X110792194Y-98832405D01*
X110695628Y-98972306D01*
X110695626Y-98972309D01*
X110635351Y-99131241D01*
X110635348Y-99131251D01*
X110620000Y-99257648D01*
X110620000Y-99449999D01*
X110620001Y-99450000D01*
X111020000Y-99450000D01*
X111020000Y-99950000D01*
X110620001Y-99950000D01*
X110620000Y-99950001D01*
X110620000Y-100142351D01*
X103379999Y-100142351D01*
X103380000Y-100142334D01*
X103380000Y-99950001D01*
X103379999Y-99950000D01*
X102980000Y-99950000D01*
X102980000Y-99450000D01*
X103379999Y-99450000D01*
X103380000Y-99449999D01*
X103380000Y-99257665D01*
X103379999Y-99257648D01*
X103364651Y-99131251D01*
X103364648Y-99131241D01*
X103304373Y-98972309D01*
X103304371Y-98972306D01*
X103207805Y-98832405D01*
X103207800Y-98832399D01*
X103080568Y-98719681D01*
X102930053Y-98640685D01*
X102930042Y-98640681D01*
X102929999Y-98640670D01*
X102929999Y-99133888D01*
X102905543Y-99094390D01*
X102816038Y-99026799D01*
X102708160Y-98996105D01*
X102596479Y-99006454D01*
X102496078Y-99056448D01*
X102429999Y-99128931D01*
X102430000Y-98640670D01*
X102429957Y-98640681D01*
X102429946Y-98640685D01*
X102279431Y-98719681D01*
X102279430Y-98719681D01*
X102152199Y-98832399D01*
X102152194Y-98832405D01*
X102055628Y-98972306D01*
X102055626Y-98972309D01*
X101995351Y-99131241D01*
X101995348Y-99131251D01*
X101980000Y-99257648D01*
X101980000Y-99449999D01*
X101980001Y-99450000D01*
X102380000Y-99450000D01*
X102380000Y-99950000D01*
X101980001Y-99950000D01*
X101980000Y-99950001D01*
X101980000Y-99978614D01*
X101961093Y-100036805D01*
X101911593Y-100072769D01*
X101850407Y-100072769D01*
X101800907Y-100036805D01*
X101790946Y-100019740D01*
X101776628Y-99988388D01*
X101765884Y-99964861D01*
X101684817Y-99871304D01*
X101684816Y-99871303D01*
X101684815Y-99871302D01*
X101580679Y-99804378D01*
X101580676Y-99804377D01*
X101580675Y-99804376D01*
X101482846Y-99775651D01*
X101461898Y-99769500D01*
X101461897Y-99769500D01*
X101338103Y-99769500D01*
X101338101Y-99769500D01*
X101219325Y-99804376D01*
X101219320Y-99804378D01*
X101115184Y-99871302D01*
X101034116Y-99964861D01*
X100982690Y-100077469D01*
X100982689Y-100077472D01*
X100965073Y-100199997D01*
X100965073Y-100200002D01*
X97961731Y-100200002D01*
X97948082Y-100061419D01*
X97948081Y-100061414D01*
X97893072Y-99880076D01*
X97833997Y-99769555D01*
X97384903Y-100218648D01*
X97384949Y-100218102D01*
X97353734Y-100094838D01*
X97284187Y-99988388D01*
X97183843Y-99910287D01*
X97063578Y-99869000D01*
X97027444Y-99869000D01*
X97480443Y-99416001D01*
X97369923Y-99356927D01*
X97188585Y-99301918D01*
X97188580Y-99301917D01*
X97000003Y-99283345D01*
X96999997Y-99283345D01*
X96811419Y-99301917D01*
X96811414Y-99301918D01*
X96630076Y-99356927D01*
X96630071Y-99356929D01*
X96519555Y-99416001D01*
X96972554Y-99869000D01*
X96968431Y-99869000D01*
X96874579Y-99884661D01*
X96762749Y-99945180D01*
X96676629Y-100038731D01*
X96625552Y-100155177D01*
X96619894Y-100223448D01*
X96166001Y-99769555D01*
X96106929Y-99880071D01*
X96106927Y-99880076D01*
X96051918Y-100061414D01*
X96051917Y-100061419D01*
X96033345Y-100249996D01*
X96033345Y-100250003D01*
X96051917Y-100438580D01*
X96051918Y-100438585D01*
X96106927Y-100619923D01*
X96166001Y-100730443D01*
X96615096Y-100281347D01*
X96615051Y-100281898D01*
X96646266Y-100405162D01*
X96715813Y-100511612D01*
X96816157Y-100589713D01*
X96936422Y-100631000D01*
X96972552Y-100631000D01*
X96519555Y-101083997D01*
X96630074Y-101143071D01*
X96669400Y-101155000D01*
X96719598Y-101189985D01*
X96739645Y-101247792D01*
X96721885Y-101306344D01*
X96673101Y-101343273D01*
X96669404Y-101344475D01*
X96647856Y-101351011D01*
X96629885Y-101356463D01*
X96629884Y-101356463D01*
X96629879Y-101356465D01*
X96462681Y-101445835D01*
X96462671Y-101445841D01*
X96316121Y-101566113D01*
X96316113Y-101566121D01*
X96195841Y-101712671D01*
X96195835Y-101712681D01*
X96106465Y-101879879D01*
X96106463Y-101879884D01*
X96051426Y-102061316D01*
X96051425Y-102061321D01*
X96032843Y-102249996D01*
X96032843Y-102250003D01*
X96051425Y-102438678D01*
X96051426Y-102438683D01*
X96106463Y-102620115D01*
X96106465Y-102620120D01*
X96133485Y-102670670D01*
X96195838Y-102787324D01*
X96195840Y-102787326D01*
X96195841Y-102787328D01*
X96263056Y-102869229D01*
X96316117Y-102933883D01*
X96462676Y-103054162D01*
X96556620Y-103104376D01*
X96606725Y-103131158D01*
X96629885Y-103143537D01*
X96668536Y-103155261D01*
X96668541Y-103155263D01*
X96718738Y-103190248D01*
X96738784Y-103248056D01*
X96721023Y-103306607D01*
X96672238Y-103343536D01*
X96668541Y-103344737D01*
X96629884Y-103356463D01*
X96629879Y-103356465D01*
X96462681Y-103445835D01*
X96462671Y-103445841D01*
X96316121Y-103566113D01*
X96316113Y-103566121D01*
X96195841Y-103712671D01*
X96195835Y-103712681D01*
X96106465Y-103879879D01*
X96106463Y-103879884D01*
X96051426Y-104061316D01*
X96051425Y-104061321D01*
X96032843Y-104249996D01*
X96032843Y-104250003D01*
X92967157Y-104250003D01*
X92967157Y-104249996D01*
X92948574Y-104061321D01*
X92948573Y-104061316D01*
X92911094Y-103937764D01*
X92893537Y-103879885D01*
X92886396Y-103866526D01*
X92872496Y-103840520D01*
X92804162Y-103712676D01*
X92683883Y-103566117D01*
X92635948Y-103526777D01*
X92537328Y-103445841D01*
X92537326Y-103445840D01*
X92537324Y-103445838D01*
X92459522Y-103404252D01*
X92370120Y-103356465D01*
X92370116Y-103356463D01*
X92350784Y-103350599D01*
X92331457Y-103344736D01*
X92281262Y-103309752D01*
X92261215Y-103251944D01*
X92278976Y-103193393D01*
X92327760Y-103156464D01*
X92331443Y-103155267D01*
X92370115Y-103143537D01*
X92537324Y-103054162D01*
X92683883Y-102933883D01*
X92804162Y-102787324D01*
X92893537Y-102620115D01*
X92948573Y-102438683D01*
X92948574Y-102438678D01*
X92967157Y-102250003D01*
X92967157Y-102249996D01*
X92948574Y-102061321D01*
X92948573Y-102061316D01*
X92931877Y-102006280D01*
X92893537Y-101879885D01*
X92804162Y-101712676D01*
X92683883Y-101566117D01*
X92644626Y-101533899D01*
X92537328Y-101445841D01*
X92537326Y-101445840D01*
X92537324Y-101445838D01*
X92497959Y-101424797D01*
X92370120Y-101356465D01*
X92370117Y-101356464D01*
X92370116Y-101356463D01*
X92370115Y-101356463D01*
X92344592Y-101348721D01*
X92330596Y-101344475D01*
X92280400Y-101309489D01*
X92260354Y-101251681D01*
X92278116Y-101193130D01*
X92326901Y-101156202D01*
X92330599Y-101155000D01*
X92369928Y-101143070D01*
X92480443Y-101083997D01*
X92027446Y-100631000D01*
X92031569Y-100631000D01*
X92125421Y-100615339D01*
X92237251Y-100554820D01*
X92323371Y-100461269D01*
X92374448Y-100344823D01*
X92380105Y-100276551D01*
X92833997Y-100730443D01*
X92893071Y-100619925D01*
X92948081Y-100438585D01*
X92948082Y-100438580D01*
X92966655Y-100250003D01*
X92966655Y-100249996D01*
X92948082Y-100061419D01*
X92948081Y-100061414D01*
X92893072Y-99880076D01*
X92833997Y-99769555D01*
X92384903Y-100218648D01*
X92384949Y-100218102D01*
X92353734Y-100094838D01*
X92284187Y-99988388D01*
X92183843Y-99910287D01*
X92063578Y-99869000D01*
X92027444Y-99869000D01*
X92480443Y-99416001D01*
X92369923Y-99356927D01*
X92188585Y-99301918D01*
X92188580Y-99301917D01*
X92000003Y-99283345D01*
X91999997Y-99283345D01*
X91811419Y-99301917D01*
X91811414Y-99301918D01*
X91630076Y-99356927D01*
X91630071Y-99356929D01*
X91519555Y-99416001D01*
X91972554Y-99869000D01*
X91968431Y-99869000D01*
X91874579Y-99884661D01*
X91762749Y-99945180D01*
X91676629Y-100038731D01*
X91625552Y-100155177D01*
X91619894Y-100223448D01*
X91166001Y-99769555D01*
X91106929Y-99880071D01*
X91106927Y-99880076D01*
X91051918Y-100061414D01*
X91051917Y-100061419D01*
X91033345Y-100249996D01*
X91033345Y-100250003D01*
X91051917Y-100438580D01*
X91051918Y-100438585D01*
X91106927Y-100619923D01*
X91166001Y-100730443D01*
X91615096Y-100281347D01*
X91615051Y-100281898D01*
X91646266Y-100405162D01*
X91715813Y-100511612D01*
X91816157Y-100589713D01*
X91936422Y-100631000D01*
X91972552Y-100631000D01*
X91519555Y-101083997D01*
X91630074Y-101143071D01*
X91669400Y-101155000D01*
X91719598Y-101189985D01*
X91739645Y-101247792D01*
X91721885Y-101306344D01*
X91673101Y-101343273D01*
X91669404Y-101344475D01*
X91647856Y-101351011D01*
X91629885Y-101356463D01*
X91629884Y-101356463D01*
X91629879Y-101356465D01*
X91462681Y-101445835D01*
X91462671Y-101445841D01*
X91316121Y-101566113D01*
X91316113Y-101566121D01*
X91195841Y-101712671D01*
X91195835Y-101712681D01*
X91106465Y-101879879D01*
X91106463Y-101879884D01*
X91051426Y-102061316D01*
X91051425Y-102061321D01*
X91032843Y-102249996D01*
X91032843Y-102250003D01*
X91051425Y-102438678D01*
X91051426Y-102438683D01*
X91106463Y-102620115D01*
X91106465Y-102620120D01*
X91133485Y-102670670D01*
X91195838Y-102787324D01*
X91195840Y-102787326D01*
X91195841Y-102787328D01*
X91263056Y-102869229D01*
X91316117Y-102933883D01*
X91462676Y-103054162D01*
X91556620Y-103104376D01*
X91606725Y-103131158D01*
X91629885Y-103143537D01*
X91668536Y-103155261D01*
X91668541Y-103155263D01*
X91718738Y-103190248D01*
X91738784Y-103248056D01*
X91721023Y-103306607D01*
X91672238Y-103343536D01*
X91668541Y-103344737D01*
X91629884Y-103356463D01*
X91629879Y-103356465D01*
X91462681Y-103445835D01*
X91462671Y-103445841D01*
X91316121Y-103566113D01*
X91316113Y-103566121D01*
X91195841Y-103712671D01*
X91195835Y-103712681D01*
X91106465Y-103879879D01*
X91106463Y-103879884D01*
X91051426Y-104061316D01*
X91051425Y-104061321D01*
X91032843Y-104249996D01*
X91032843Y-104250003D01*
X90000500Y-104250003D01*
X90000500Y-97599500D01*
X90019407Y-97541309D01*
X90068907Y-97505345D01*
X90099500Y-97500500D01*
X125900500Y-97500500D01*
X125958691Y-97519407D01*
G37*
G04 #@! TD.AperFunction*
M02*
