%TF.GenerationSoftware,KiCad,Pcbnew,7.0.5-7.0.5~ubuntu22.04.1*%
%TF.CreationDate,2023-06-24T11:50:11+02:00*%
%TF.ProjectId,Signal Generator,5369676e-616c-4204-9765-6e657261746f,2*%
%TF.SameCoordinates,Original*%
%TF.FileFunction,Drillmap*%
%TF.FilePolarity,Positive*%
%FSLAX45Y45*%
G04 Gerber Fmt 4.5, Leading zero omitted, Abs format (unit mm)*
G04 Created by KiCad (PCBNEW 7.0.5-7.0.5~ubuntu22.04.1) date 2023-06-24 11:50:11*
%MOMM*%
%LPD*%
G01*
G04 APERTURE LIST*
%ADD10C,0.100000*%
%ADD11C,0.200000*%
%ADD12C,0.020000*%
%ADD13C,0.040000*%
%ADD14C,0.060000*%
%ADD15C,0.076200*%
%ADD16C,0.110000*%
G04 APERTURE END LIST*
D10*
X9000000Y-9750000D02*
X12600000Y-9750000D01*
X12600000Y-15750000D01*
X9000000Y-15750000D01*
X9000000Y-9750000D01*
D11*
D12*
X9130000Y-12470000D02*
X9150000Y-12490000D01*
X9150000Y-12470000D02*
X9130000Y-12490000D01*
X9130000Y-12580000D02*
X9150000Y-12600000D01*
X9150000Y-12580000D02*
X9130000Y-12600000D01*
X9130000Y-12800000D02*
X9150000Y-12820000D01*
X9150000Y-12800000D02*
X9130000Y-12820000D01*
X9130000Y-13020000D02*
X9150000Y-13040000D01*
X9150000Y-13020000D02*
X9130000Y-13040000D01*
X9130000Y-13130000D02*
X9150000Y-13150000D01*
X9150000Y-13130000D02*
X9130000Y-13150000D01*
X9130000Y-13240000D02*
X9150000Y-13260000D01*
X9150000Y-13240000D02*
X9130000Y-13260000D01*
X9240000Y-12800000D02*
X9260000Y-12820000D01*
X9260000Y-12800000D02*
X9240000Y-12820000D01*
X9292500Y-11632500D02*
X9312500Y-11652500D01*
X9312500Y-11632500D02*
X9292500Y-11652500D01*
X9420000Y-13130000D02*
X9440000Y-13150000D01*
X9440000Y-13130000D02*
X9420000Y-13150000D01*
X9770000Y-13340000D02*
X9790000Y-13360000D01*
X9790000Y-13340000D02*
X9770000Y-13360000D01*
X9960000Y-13340000D02*
X9980000Y-13360000D01*
X9980000Y-13340000D02*
X9960000Y-13360000D01*
X10040000Y-11140000D02*
X10060000Y-11160000D01*
X10060000Y-11140000D02*
X10040000Y-11160000D01*
X10130000Y-10010000D02*
X10150000Y-10030000D01*
X10150000Y-10010000D02*
X10130000Y-10030000D01*
X10140000Y-11790000D02*
X10160000Y-11810000D01*
X10160000Y-11790000D02*
X10140000Y-11810000D01*
X10380000Y-12290000D02*
X10400000Y-12310000D01*
X10400000Y-12290000D02*
X10380000Y-12310000D01*
X10400000Y-11170000D02*
X10420000Y-11190000D01*
X10420000Y-11170000D02*
X10400000Y-11190000D01*
X10432500Y-11247500D02*
X10452500Y-11267500D01*
X10452500Y-11247500D02*
X10432500Y-11267500D01*
X10450000Y-10440000D02*
X10470000Y-10460000D01*
X10470000Y-10440000D02*
X10450000Y-10460000D01*
X10462500Y-12512500D02*
X10482500Y-12532500D01*
X10482500Y-12512500D02*
X10462500Y-12532500D01*
X10464605Y-11989604D02*
X10484605Y-12009604D01*
X10484605Y-11989604D02*
X10464605Y-12009604D01*
X10550000Y-11080000D02*
X10570000Y-11100000D01*
X10570000Y-11080000D02*
X10550000Y-11100000D01*
X10640000Y-11990000D02*
X10660000Y-12010000D01*
X10660000Y-11990000D02*
X10640000Y-12010000D01*
X10665000Y-10342678D02*
X10685000Y-10362678D01*
X10685000Y-10342678D02*
X10665000Y-10362678D01*
X10690000Y-12580000D02*
X10710000Y-12600000D01*
X10710000Y-12580000D02*
X10690000Y-12600000D01*
X10740000Y-12090000D02*
X10760000Y-12110000D01*
X10760000Y-12090000D02*
X10740000Y-12110000D01*
X10765000Y-10340000D02*
X10785000Y-10360000D01*
X10785000Y-10340000D02*
X10765000Y-10360000D01*
X10850000Y-10980000D02*
X10870000Y-11000000D01*
X10870000Y-10980000D02*
X10850000Y-11000000D01*
X10860000Y-11390000D02*
X10880000Y-11410000D01*
X10880000Y-11390000D02*
X10860000Y-11410000D01*
X10890000Y-12740000D02*
X10910000Y-12760000D01*
X10910000Y-12740000D02*
X10890000Y-12760000D01*
X10930000Y-10440000D02*
X10950000Y-10460000D01*
X10950000Y-10440000D02*
X10930000Y-10460000D01*
X10990000Y-11890000D02*
X11010000Y-11910000D01*
X11010000Y-11890000D02*
X10990000Y-11910000D01*
X10990000Y-12390000D02*
X11010000Y-12410000D01*
X11010000Y-12390000D02*
X10990000Y-12410000D01*
X11030000Y-13790000D02*
X11050000Y-13810000D01*
X11050000Y-13790000D02*
X11030000Y-13810000D01*
X11065000Y-11590000D02*
X11085000Y-11610000D01*
X11085000Y-11590000D02*
X11065000Y-11610000D01*
X11090000Y-12290000D02*
X11110000Y-12310000D01*
X11110000Y-12290000D02*
X11090000Y-12310000D01*
X11190000Y-11790000D02*
X11210000Y-11810000D01*
X11210000Y-11790000D02*
X11190000Y-11810000D01*
X11255000Y-10025000D02*
X11275000Y-10045000D01*
X11275000Y-10025000D02*
X11255000Y-10045000D01*
X11320000Y-13130000D02*
X11340000Y-13150000D01*
X11340000Y-13130000D02*
X11320000Y-13150000D01*
X11390000Y-10590000D02*
X11410000Y-10610000D01*
X11410000Y-10590000D02*
X11390000Y-10610000D01*
X11390000Y-12015000D02*
X11410000Y-12035000D01*
X11410000Y-12015000D02*
X11390000Y-12035000D01*
X11845000Y-10945000D02*
X11865000Y-10965000D01*
X11865000Y-10945000D02*
X11845000Y-10965000D01*
X11920000Y-10945000D02*
X11940000Y-10965000D01*
X11940000Y-10945000D02*
X11920000Y-10965000D01*
D13*
X9335000Y-12155000D02*
G75*
G03*
X9335000Y-12155000I-20000J0D01*
G01*
X9520000Y-10750000D02*
G75*
G03*
X9520000Y-10750000I-20000J0D01*
G01*
X9520000Y-10920000D02*
G75*
G03*
X9520000Y-10920000I-20000J0D01*
G01*
X9950000Y-12300000D02*
G75*
G03*
X9950000Y-12300000I-20000J0D01*
G01*
X10080000Y-10570000D02*
G75*
G03*
X10080000Y-10570000I-20000J0D01*
G01*
X10240000Y-12775000D02*
G75*
G03*
X10240000Y-12775000I-20000J0D01*
G01*
X10300000Y-11960000D02*
G75*
G03*
X10300000Y-11960000I-20000J0D01*
G01*
X10370000Y-11890000D02*
G75*
G03*
X10370000Y-11890000I-20000J0D01*
G01*
X10400000Y-13060000D02*
G75*
G03*
X10400000Y-13060000I-20000J0D01*
G01*
X10645000Y-13265000D02*
G75*
G03*
X10645000Y-13265000I-20000J0D01*
G01*
X11180000Y-12875000D02*
G75*
G03*
X11180000Y-12875000I-20000J0D01*
G01*
X11533750Y-15140000D02*
G75*
G03*
X11533750Y-15140000I-20000J0D01*
G01*
X11990000Y-13575000D02*
G75*
G03*
X11990000Y-13575000I-20000J0D01*
G01*
X12170000Y-11245000D02*
G75*
G03*
X12170000Y-11245000I-20000J0D01*
G01*
X12283750Y-14400000D02*
G75*
G03*
X12283750Y-14400000I-20000J0D01*
G01*
D14*
X10268000Y-9940000D02*
X10268000Y-10000000D01*
X10238000Y-9970000D02*
X10298000Y-9970000D01*
D11*
X10298000Y-10010000D02*
X10298000Y-9930000D01*
X10298000Y-9930000D02*
G75*
G03*
X10238000Y-9930000I-30000J0D01*
G01*
X10238000Y-9930000D02*
X10238000Y-10010000D01*
X10238000Y-10010000D02*
G75*
G03*
X10298000Y-10010000I30000J0D01*
G01*
D14*
X10268000Y-10358000D02*
X10268000Y-10418000D01*
X10238000Y-10388000D02*
X10298000Y-10388000D01*
D11*
X10298000Y-10443000D02*
X10298000Y-10333000D01*
X10298000Y-10333000D02*
G75*
G03*
X10238000Y-10333000I-30000J0D01*
G01*
X10238000Y-10333000D02*
X10238000Y-10443000D01*
X10238000Y-10443000D02*
G75*
G03*
X10298000Y-10443000I30000J0D01*
G01*
D14*
X11132000Y-9940000D02*
X11132000Y-10000000D01*
X11102000Y-9970000D02*
X11162000Y-9970000D01*
D11*
X11162000Y-10010000D02*
X11162000Y-9930000D01*
X11162000Y-9930000D02*
G75*
G03*
X11102000Y-9930000I-30000J0D01*
G01*
X11102000Y-9930000D02*
X11102000Y-10010000D01*
X11102000Y-10010000D02*
G75*
G03*
X11162000Y-10010000I30000J0D01*
G01*
D14*
X11132000Y-10358000D02*
X11132000Y-10418000D01*
X11102000Y-10388000D02*
X11162000Y-10388000D01*
D11*
X11162000Y-10443000D02*
X11162000Y-10333000D01*
X11162000Y-10333000D02*
G75*
G03*
X11102000Y-10333000I-30000J0D01*
G01*
X11102000Y-10333000D02*
X11102000Y-10443000D01*
X11102000Y-10443000D02*
G75*
G03*
X11162000Y-10443000I30000J0D01*
G01*
D15*
X9226941Y-10051941D02*
X9226941Y-9998059D01*
X9173059Y-9998059D01*
X9173059Y-10051941D01*
X9226941Y-10051941D01*
X9226941Y-10251941D02*
X9226941Y-10198059D01*
X9173059Y-10198059D01*
X9173059Y-10251941D01*
X9226941Y-10251941D01*
X9226941Y-10451941D02*
X9226941Y-10398059D01*
X9173059Y-10398059D01*
X9173059Y-10451941D01*
X9226941Y-10451941D01*
X9726941Y-10051941D02*
X9726941Y-9998059D01*
X9673059Y-9998059D01*
X9673059Y-10051941D01*
X9726941Y-10051941D01*
X9726941Y-10251941D02*
X9726941Y-10198059D01*
X9673059Y-10198059D01*
X9673059Y-10251941D01*
X9726941Y-10251941D01*
X9726941Y-10451941D02*
X9726941Y-10398059D01*
X9673059Y-10398059D01*
X9673059Y-10451941D01*
X9726941Y-10451941D01*
D10*
X10430000Y-14646000D02*
X10480000Y-14596000D01*
X10430000Y-14546000D01*
X10380000Y-14596000D01*
X10430000Y-14646000D01*
X10430000Y-14900000D02*
X10480000Y-14850000D01*
X10430000Y-14800000D01*
X10380000Y-14850000D01*
X10430000Y-14900000D01*
X10684000Y-14646000D02*
X10734000Y-14596000D01*
X10684000Y-14546000D01*
X10634000Y-14596000D01*
X10684000Y-14646000D01*
X10684000Y-14900000D02*
X10734000Y-14850000D01*
X10684000Y-14800000D01*
X10634000Y-14850000D01*
X10684000Y-14900000D01*
X11642000Y-10800000D02*
X11692000Y-10750000D01*
X11642000Y-10700000D01*
X11592000Y-10750000D01*
X11642000Y-10800000D01*
X11896000Y-10800000D02*
X11946000Y-10750000D01*
X11896000Y-10700000D01*
X11846000Y-10750000D01*
X11896000Y-10800000D01*
X12150000Y-10800000D02*
X12200000Y-10750000D01*
X12150000Y-10700000D01*
X12100000Y-10750000D01*
X12150000Y-10800000D01*
X12404000Y-10800000D02*
X12454000Y-10750000D01*
X12404000Y-10700000D01*
X12354000Y-10750000D01*
X12404000Y-10800000D01*
D16*
X9213500Y-15325000D02*
X9323500Y-15435000D01*
X9323500Y-15325000D02*
X9213500Y-15435000D01*
X9323500Y-15380000D02*
G75*
G03*
X9323500Y-15380000I-55000J0D01*
G01*
X9467500Y-15325000D02*
X9577500Y-15435000D01*
X9577500Y-15325000D02*
X9467500Y-15435000D01*
X9577500Y-15380000D02*
G75*
G03*
X9577500Y-15380000I-55000J0D01*
G01*
X9721500Y-15325000D02*
X9831500Y-15435000D01*
X9831500Y-15325000D02*
X9721500Y-15435000D01*
X9831500Y-15380000D02*
G75*
G03*
X9831500Y-15380000I-55000J0D01*
G01*
X9975500Y-15325000D02*
X10085500Y-15435000D01*
X10085500Y-15325000D02*
X9975500Y-15435000D01*
X10085500Y-15380000D02*
G75*
G03*
X10085500Y-15380000I-55000J0D01*
G01*
X11620000Y-9970000D02*
X11730000Y-10080000D01*
X11730000Y-9970000D02*
X11620000Y-10080000D01*
X11730000Y-10025000D02*
G75*
G03*
X11730000Y-10025000I-55000J0D01*
G01*
X11620000Y-10420000D02*
X11730000Y-10530000D01*
X11730000Y-10420000D02*
X11620000Y-10530000D01*
X11730000Y-10475000D02*
G75*
G03*
X11730000Y-10475000I-55000J0D01*
G01*
X12270000Y-9970000D02*
X12380000Y-10080000D01*
X12380000Y-9970000D02*
X12270000Y-10080000D01*
X12380000Y-10025000D02*
G75*
G03*
X12380000Y-10025000I-55000J0D01*
G01*
X12270000Y-10420000D02*
X12380000Y-10530000D01*
X12380000Y-10420000D02*
X12270000Y-10530000D01*
X12380000Y-10475000D02*
G75*
G03*
X12380000Y-10475000I-55000J0D01*
G01*
D11*
X9255777Y-16066484D02*
X9255777Y-15866484D01*
X9255777Y-15866484D02*
X9303396Y-15866484D01*
X9303396Y-15866484D02*
X9331967Y-15876008D01*
X9331967Y-15876008D02*
X9351015Y-15895055D01*
X9351015Y-15895055D02*
X9360539Y-15914103D01*
X9360539Y-15914103D02*
X9370063Y-15952198D01*
X9370063Y-15952198D02*
X9370063Y-15980769D01*
X9370063Y-15980769D02*
X9360539Y-16018865D01*
X9360539Y-16018865D02*
X9351015Y-16037912D01*
X9351015Y-16037912D02*
X9331967Y-16056960D01*
X9331967Y-16056960D02*
X9303396Y-16066484D01*
X9303396Y-16066484D02*
X9255777Y-16066484D01*
X9455777Y-16066484D02*
X9455777Y-15933150D01*
X9455777Y-15971246D02*
X9465301Y-15952198D01*
X9465301Y-15952198D02*
X9474824Y-15942674D01*
X9474824Y-15942674D02*
X9493872Y-15933150D01*
X9493872Y-15933150D02*
X9512920Y-15933150D01*
X9579586Y-16066484D02*
X9579586Y-15933150D01*
X9579586Y-15866484D02*
X9570063Y-15876008D01*
X9570063Y-15876008D02*
X9579586Y-15885531D01*
X9579586Y-15885531D02*
X9589110Y-15876008D01*
X9589110Y-15876008D02*
X9579586Y-15866484D01*
X9579586Y-15866484D02*
X9579586Y-15885531D01*
X9703396Y-16066484D02*
X9684348Y-16056960D01*
X9684348Y-16056960D02*
X9674824Y-16037912D01*
X9674824Y-16037912D02*
X9674824Y-15866484D01*
X9808158Y-16066484D02*
X9789110Y-16056960D01*
X9789110Y-16056960D02*
X9779586Y-16037912D01*
X9779586Y-16037912D02*
X9779586Y-15866484D01*
X10036729Y-16066484D02*
X10036729Y-15866484D01*
X10036729Y-15866484D02*
X10103396Y-16009341D01*
X10103396Y-16009341D02*
X10170063Y-15866484D01*
X10170063Y-15866484D02*
X10170063Y-16066484D01*
X10351015Y-16066484D02*
X10351015Y-15961722D01*
X10351015Y-15961722D02*
X10341491Y-15942674D01*
X10341491Y-15942674D02*
X10322444Y-15933150D01*
X10322444Y-15933150D02*
X10284348Y-15933150D01*
X10284348Y-15933150D02*
X10265301Y-15942674D01*
X10351015Y-16056960D02*
X10331967Y-16066484D01*
X10331967Y-16066484D02*
X10284348Y-16066484D01*
X10284348Y-16066484D02*
X10265301Y-16056960D01*
X10265301Y-16056960D02*
X10255777Y-16037912D01*
X10255777Y-16037912D02*
X10255777Y-16018865D01*
X10255777Y-16018865D02*
X10265301Y-15999817D01*
X10265301Y-15999817D02*
X10284348Y-15990293D01*
X10284348Y-15990293D02*
X10331967Y-15990293D01*
X10331967Y-15990293D02*
X10351015Y-15980769D01*
X10446253Y-15933150D02*
X10446253Y-16133150D01*
X10446253Y-15942674D02*
X10465301Y-15933150D01*
X10465301Y-15933150D02*
X10503396Y-15933150D01*
X10503396Y-15933150D02*
X10522444Y-15942674D01*
X10522444Y-15942674D02*
X10531967Y-15952198D01*
X10531967Y-15952198D02*
X10541491Y-15971246D01*
X10541491Y-15971246D02*
X10541491Y-16028388D01*
X10541491Y-16028388D02*
X10531967Y-16047436D01*
X10531967Y-16047436D02*
X10522444Y-16056960D01*
X10522444Y-16056960D02*
X10503396Y-16066484D01*
X10503396Y-16066484D02*
X10465301Y-16066484D01*
X10465301Y-16066484D02*
X10446253Y-16056960D01*
X10627205Y-16047436D02*
X10636729Y-16056960D01*
X10636729Y-16056960D02*
X10627205Y-16066484D01*
X10627205Y-16066484D02*
X10617682Y-16056960D01*
X10617682Y-16056960D02*
X10627205Y-16047436D01*
X10627205Y-16047436D02*
X10627205Y-16066484D01*
X10627205Y-15942674D02*
X10636729Y-15952198D01*
X10636729Y-15952198D02*
X10627205Y-15961722D01*
X10627205Y-15961722D02*
X10617682Y-15952198D01*
X10617682Y-15952198D02*
X10627205Y-15942674D01*
X10627205Y-15942674D02*
X10627205Y-15961722D01*
D12*
X8975000Y-16385000D02*
X8995000Y-16405000D01*
X8995000Y-16385000D02*
X8975000Y-16405000D01*
D11*
X9293872Y-16286484D02*
X9312920Y-16286484D01*
X9312920Y-16286484D02*
X9331967Y-16296008D01*
X9331967Y-16296008D02*
X9341491Y-16305531D01*
X9341491Y-16305531D02*
X9351015Y-16324579D01*
X9351015Y-16324579D02*
X9360539Y-16362674D01*
X9360539Y-16362674D02*
X9360539Y-16410293D01*
X9360539Y-16410293D02*
X9351015Y-16448388D01*
X9351015Y-16448388D02*
X9341491Y-16467436D01*
X9341491Y-16467436D02*
X9331967Y-16476960D01*
X9331967Y-16476960D02*
X9312920Y-16486484D01*
X9312920Y-16486484D02*
X9293872Y-16486484D01*
X9293872Y-16486484D02*
X9274824Y-16476960D01*
X9274824Y-16476960D02*
X9265301Y-16467436D01*
X9265301Y-16467436D02*
X9255777Y-16448388D01*
X9255777Y-16448388D02*
X9246253Y-16410293D01*
X9246253Y-16410293D02*
X9246253Y-16362674D01*
X9246253Y-16362674D02*
X9255777Y-16324579D01*
X9255777Y-16324579D02*
X9265301Y-16305531D01*
X9265301Y-16305531D02*
X9274824Y-16296008D01*
X9274824Y-16296008D02*
X9293872Y-16286484D01*
X9446253Y-16467436D02*
X9455777Y-16476960D01*
X9455777Y-16476960D02*
X9446253Y-16486484D01*
X9446253Y-16486484D02*
X9436729Y-16476960D01*
X9436729Y-16476960D02*
X9446253Y-16467436D01*
X9446253Y-16467436D02*
X9446253Y-16486484D01*
X9531967Y-16305531D02*
X9541491Y-16296008D01*
X9541491Y-16296008D02*
X9560539Y-16286484D01*
X9560539Y-16286484D02*
X9608158Y-16286484D01*
X9608158Y-16286484D02*
X9627205Y-16296008D01*
X9627205Y-16296008D02*
X9636729Y-16305531D01*
X9636729Y-16305531D02*
X9646253Y-16324579D01*
X9646253Y-16324579D02*
X9646253Y-16343627D01*
X9646253Y-16343627D02*
X9636729Y-16372198D01*
X9636729Y-16372198D02*
X9522444Y-16486484D01*
X9522444Y-16486484D02*
X9646253Y-16486484D01*
X9770063Y-16286484D02*
X9789110Y-16286484D01*
X9789110Y-16286484D02*
X9808158Y-16296008D01*
X9808158Y-16296008D02*
X9817682Y-16305531D01*
X9817682Y-16305531D02*
X9827205Y-16324579D01*
X9827205Y-16324579D02*
X9836729Y-16362674D01*
X9836729Y-16362674D02*
X9836729Y-16410293D01*
X9836729Y-16410293D02*
X9827205Y-16448388D01*
X9827205Y-16448388D02*
X9817682Y-16467436D01*
X9817682Y-16467436D02*
X9808158Y-16476960D01*
X9808158Y-16476960D02*
X9789110Y-16486484D01*
X9789110Y-16486484D02*
X9770063Y-16486484D01*
X9770063Y-16486484D02*
X9751015Y-16476960D01*
X9751015Y-16476960D02*
X9741491Y-16467436D01*
X9741491Y-16467436D02*
X9731967Y-16448388D01*
X9731967Y-16448388D02*
X9722444Y-16410293D01*
X9722444Y-16410293D02*
X9722444Y-16362674D01*
X9722444Y-16362674D02*
X9731967Y-16324579D01*
X9731967Y-16324579D02*
X9741491Y-16305531D01*
X9741491Y-16305531D02*
X9751015Y-16296008D01*
X9751015Y-16296008D02*
X9770063Y-16286484D01*
X9960539Y-16286484D02*
X9979586Y-16286484D01*
X9979586Y-16286484D02*
X9998634Y-16296008D01*
X9998634Y-16296008D02*
X10008158Y-16305531D01*
X10008158Y-16305531D02*
X10017682Y-16324579D01*
X10017682Y-16324579D02*
X10027205Y-16362674D01*
X10027205Y-16362674D02*
X10027205Y-16410293D01*
X10027205Y-16410293D02*
X10017682Y-16448388D01*
X10017682Y-16448388D02*
X10008158Y-16467436D01*
X10008158Y-16467436D02*
X9998634Y-16476960D01*
X9998634Y-16476960D02*
X9979586Y-16486484D01*
X9979586Y-16486484D02*
X9960539Y-16486484D01*
X9960539Y-16486484D02*
X9941491Y-16476960D01*
X9941491Y-16476960D02*
X9931967Y-16467436D01*
X9931967Y-16467436D02*
X9922444Y-16448388D01*
X9922444Y-16448388D02*
X9912920Y-16410293D01*
X9912920Y-16410293D02*
X9912920Y-16362674D01*
X9912920Y-16362674D02*
X9922444Y-16324579D01*
X9922444Y-16324579D02*
X9931967Y-16305531D01*
X9931967Y-16305531D02*
X9941491Y-16296008D01*
X9941491Y-16296008D02*
X9960539Y-16286484D01*
X10112920Y-16486484D02*
X10112920Y-16353150D01*
X10112920Y-16372198D02*
X10122444Y-16362674D01*
X10122444Y-16362674D02*
X10141491Y-16353150D01*
X10141491Y-16353150D02*
X10170063Y-16353150D01*
X10170063Y-16353150D02*
X10189110Y-16362674D01*
X10189110Y-16362674D02*
X10198634Y-16381722D01*
X10198634Y-16381722D02*
X10198634Y-16486484D01*
X10198634Y-16381722D02*
X10208158Y-16362674D01*
X10208158Y-16362674D02*
X10227205Y-16353150D01*
X10227205Y-16353150D02*
X10255777Y-16353150D01*
X10255777Y-16353150D02*
X10274825Y-16362674D01*
X10274825Y-16362674D02*
X10284348Y-16381722D01*
X10284348Y-16381722D02*
X10284348Y-16486484D01*
X10379586Y-16486484D02*
X10379586Y-16353150D01*
X10379586Y-16372198D02*
X10389110Y-16362674D01*
X10389110Y-16362674D02*
X10408158Y-16353150D01*
X10408158Y-16353150D02*
X10436729Y-16353150D01*
X10436729Y-16353150D02*
X10455777Y-16362674D01*
X10455777Y-16362674D02*
X10465301Y-16381722D01*
X10465301Y-16381722D02*
X10465301Y-16486484D01*
X10465301Y-16381722D02*
X10474825Y-16362674D01*
X10474825Y-16362674D02*
X10493872Y-16353150D01*
X10493872Y-16353150D02*
X10522444Y-16353150D01*
X10522444Y-16353150D02*
X10541491Y-16362674D01*
X10541491Y-16362674D02*
X10551015Y-16381722D01*
X10551015Y-16381722D02*
X10551015Y-16486484D01*
X10941491Y-16276960D02*
X10770063Y-16534103D01*
X11198634Y-16286484D02*
X11217682Y-16286484D01*
X11217682Y-16286484D02*
X11236729Y-16296008D01*
X11236729Y-16296008D02*
X11246253Y-16305531D01*
X11246253Y-16305531D02*
X11255777Y-16324579D01*
X11255777Y-16324579D02*
X11265301Y-16362674D01*
X11265301Y-16362674D02*
X11265301Y-16410293D01*
X11265301Y-16410293D02*
X11255777Y-16448388D01*
X11255777Y-16448388D02*
X11246253Y-16467436D01*
X11246253Y-16467436D02*
X11236729Y-16476960D01*
X11236729Y-16476960D02*
X11217682Y-16486484D01*
X11217682Y-16486484D02*
X11198634Y-16486484D01*
X11198634Y-16486484D02*
X11179587Y-16476960D01*
X11179587Y-16476960D02*
X11170063Y-16467436D01*
X11170063Y-16467436D02*
X11160539Y-16448388D01*
X11160539Y-16448388D02*
X11151015Y-16410293D01*
X11151015Y-16410293D02*
X11151015Y-16362674D01*
X11151015Y-16362674D02*
X11160539Y-16324579D01*
X11160539Y-16324579D02*
X11170063Y-16305531D01*
X11170063Y-16305531D02*
X11179587Y-16296008D01*
X11179587Y-16296008D02*
X11198634Y-16286484D01*
X11351015Y-16467436D02*
X11360539Y-16476960D01*
X11360539Y-16476960D02*
X11351015Y-16486484D01*
X11351015Y-16486484D02*
X11341491Y-16476960D01*
X11341491Y-16476960D02*
X11351015Y-16467436D01*
X11351015Y-16467436D02*
X11351015Y-16486484D01*
X11484348Y-16286484D02*
X11503396Y-16286484D01*
X11503396Y-16286484D02*
X11522444Y-16296008D01*
X11522444Y-16296008D02*
X11531967Y-16305531D01*
X11531967Y-16305531D02*
X11541491Y-16324579D01*
X11541491Y-16324579D02*
X11551015Y-16362674D01*
X11551015Y-16362674D02*
X11551015Y-16410293D01*
X11551015Y-16410293D02*
X11541491Y-16448388D01*
X11541491Y-16448388D02*
X11531967Y-16467436D01*
X11531967Y-16467436D02*
X11522444Y-16476960D01*
X11522444Y-16476960D02*
X11503396Y-16486484D01*
X11503396Y-16486484D02*
X11484348Y-16486484D01*
X11484348Y-16486484D02*
X11465301Y-16476960D01*
X11465301Y-16476960D02*
X11455777Y-16467436D01*
X11455777Y-16467436D02*
X11446253Y-16448388D01*
X11446253Y-16448388D02*
X11436729Y-16410293D01*
X11436729Y-16410293D02*
X11436729Y-16362674D01*
X11436729Y-16362674D02*
X11446253Y-16324579D01*
X11446253Y-16324579D02*
X11455777Y-16305531D01*
X11455777Y-16305531D02*
X11465301Y-16296008D01*
X11465301Y-16296008D02*
X11484348Y-16286484D01*
X11674825Y-16286484D02*
X11693872Y-16286484D01*
X11693872Y-16286484D02*
X11712920Y-16296008D01*
X11712920Y-16296008D02*
X11722444Y-16305531D01*
X11722444Y-16305531D02*
X11731967Y-16324579D01*
X11731967Y-16324579D02*
X11741491Y-16362674D01*
X11741491Y-16362674D02*
X11741491Y-16410293D01*
X11741491Y-16410293D02*
X11731967Y-16448388D01*
X11731967Y-16448388D02*
X11722444Y-16467436D01*
X11722444Y-16467436D02*
X11712920Y-16476960D01*
X11712920Y-16476960D02*
X11693872Y-16486484D01*
X11693872Y-16486484D02*
X11674825Y-16486484D01*
X11674825Y-16486484D02*
X11655777Y-16476960D01*
X11655777Y-16476960D02*
X11646253Y-16467436D01*
X11646253Y-16467436D02*
X11636729Y-16448388D01*
X11636729Y-16448388D02*
X11627206Y-16410293D01*
X11627206Y-16410293D02*
X11627206Y-16362674D01*
X11627206Y-16362674D02*
X11636729Y-16324579D01*
X11636729Y-16324579D02*
X11646253Y-16305531D01*
X11646253Y-16305531D02*
X11655777Y-16296008D01*
X11655777Y-16296008D02*
X11674825Y-16286484D01*
X11808158Y-16286484D02*
X11941491Y-16286484D01*
X11941491Y-16286484D02*
X11855777Y-16486484D01*
X12027206Y-16486484D02*
X12065301Y-16486484D01*
X12065301Y-16486484D02*
X12084348Y-16476960D01*
X12084348Y-16476960D02*
X12093872Y-16467436D01*
X12093872Y-16467436D02*
X12112920Y-16438865D01*
X12112920Y-16438865D02*
X12122444Y-16400769D01*
X12122444Y-16400769D02*
X12122444Y-16324579D01*
X12122444Y-16324579D02*
X12112920Y-16305531D01*
X12112920Y-16305531D02*
X12103396Y-16296008D01*
X12103396Y-16296008D02*
X12084348Y-16286484D01*
X12084348Y-16286484D02*
X12046253Y-16286484D01*
X12046253Y-16286484D02*
X12027206Y-16296008D01*
X12027206Y-16296008D02*
X12017682Y-16305531D01*
X12017682Y-16305531D02*
X12008158Y-16324579D01*
X12008158Y-16324579D02*
X12008158Y-16372198D01*
X12008158Y-16372198D02*
X12017682Y-16391246D01*
X12017682Y-16391246D02*
X12027206Y-16400769D01*
X12027206Y-16400769D02*
X12046253Y-16410293D01*
X12046253Y-16410293D02*
X12084348Y-16410293D01*
X12084348Y-16410293D02*
X12103396Y-16400769D01*
X12103396Y-16400769D02*
X12112920Y-16391246D01*
X12112920Y-16391246D02*
X12122444Y-16372198D01*
X12198634Y-16286484D02*
X12198634Y-16324579D01*
X12274825Y-16286484D02*
X12274825Y-16324579D01*
X12570063Y-16562674D02*
X12560539Y-16553150D01*
X12560539Y-16553150D02*
X12541491Y-16524579D01*
X12541491Y-16524579D02*
X12531968Y-16505531D01*
X12531968Y-16505531D02*
X12522444Y-16476960D01*
X12522444Y-16476960D02*
X12512920Y-16429341D01*
X12512920Y-16429341D02*
X12512920Y-16391246D01*
X12512920Y-16391246D02*
X12522444Y-16343627D01*
X12522444Y-16343627D02*
X12531968Y-16315055D01*
X12531968Y-16315055D02*
X12541491Y-16296008D01*
X12541491Y-16296008D02*
X12560539Y-16267436D01*
X12560539Y-16267436D02*
X12570063Y-16257912D01*
X12731968Y-16353150D02*
X12731968Y-16486484D01*
X12684348Y-16276960D02*
X12636729Y-16419817D01*
X12636729Y-16419817D02*
X12760539Y-16419817D01*
X12827206Y-16305531D02*
X12836729Y-16296008D01*
X12836729Y-16296008D02*
X12855777Y-16286484D01*
X12855777Y-16286484D02*
X12903396Y-16286484D01*
X12903396Y-16286484D02*
X12922444Y-16296008D01*
X12922444Y-16296008D02*
X12931968Y-16305531D01*
X12931968Y-16305531D02*
X12941491Y-16324579D01*
X12941491Y-16324579D02*
X12941491Y-16343627D01*
X12941491Y-16343627D02*
X12931968Y-16372198D01*
X12931968Y-16372198D02*
X12817682Y-16486484D01*
X12817682Y-16486484D02*
X12941491Y-16486484D01*
X13179587Y-16486484D02*
X13179587Y-16286484D01*
X13265301Y-16486484D02*
X13265301Y-16381722D01*
X13265301Y-16381722D02*
X13255777Y-16362674D01*
X13255777Y-16362674D02*
X13236730Y-16353150D01*
X13236730Y-16353150D02*
X13208158Y-16353150D01*
X13208158Y-16353150D02*
X13189110Y-16362674D01*
X13189110Y-16362674D02*
X13179587Y-16372198D01*
X13389110Y-16486484D02*
X13370063Y-16476960D01*
X13370063Y-16476960D02*
X13360539Y-16467436D01*
X13360539Y-16467436D02*
X13351015Y-16448388D01*
X13351015Y-16448388D02*
X13351015Y-16391246D01*
X13351015Y-16391246D02*
X13360539Y-16372198D01*
X13360539Y-16372198D02*
X13370063Y-16362674D01*
X13370063Y-16362674D02*
X13389110Y-16353150D01*
X13389110Y-16353150D02*
X13417682Y-16353150D01*
X13417682Y-16353150D02*
X13436730Y-16362674D01*
X13436730Y-16362674D02*
X13446253Y-16372198D01*
X13446253Y-16372198D02*
X13455777Y-16391246D01*
X13455777Y-16391246D02*
X13455777Y-16448388D01*
X13455777Y-16448388D02*
X13446253Y-16467436D01*
X13446253Y-16467436D02*
X13436730Y-16476960D01*
X13436730Y-16476960D02*
X13417682Y-16486484D01*
X13417682Y-16486484D02*
X13389110Y-16486484D01*
X13570063Y-16486484D02*
X13551015Y-16476960D01*
X13551015Y-16476960D02*
X13541491Y-16457912D01*
X13541491Y-16457912D02*
X13541491Y-16286484D01*
X13722444Y-16476960D02*
X13703396Y-16486484D01*
X13703396Y-16486484D02*
X13665301Y-16486484D01*
X13665301Y-16486484D02*
X13646253Y-16476960D01*
X13646253Y-16476960D02*
X13636730Y-16457912D01*
X13636730Y-16457912D02*
X13636730Y-16381722D01*
X13636730Y-16381722D02*
X13646253Y-16362674D01*
X13646253Y-16362674D02*
X13665301Y-16353150D01*
X13665301Y-16353150D02*
X13703396Y-16353150D01*
X13703396Y-16353150D02*
X13722444Y-16362674D01*
X13722444Y-16362674D02*
X13731968Y-16381722D01*
X13731968Y-16381722D02*
X13731968Y-16400769D01*
X13731968Y-16400769D02*
X13636730Y-16419817D01*
X13808158Y-16476960D02*
X13827206Y-16486484D01*
X13827206Y-16486484D02*
X13865301Y-16486484D01*
X13865301Y-16486484D02*
X13884349Y-16476960D01*
X13884349Y-16476960D02*
X13893872Y-16457912D01*
X13893872Y-16457912D02*
X13893872Y-16448388D01*
X13893872Y-16448388D02*
X13884349Y-16429341D01*
X13884349Y-16429341D02*
X13865301Y-16419817D01*
X13865301Y-16419817D02*
X13836730Y-16419817D01*
X13836730Y-16419817D02*
X13817682Y-16410293D01*
X13817682Y-16410293D02*
X13808158Y-16391246D01*
X13808158Y-16391246D02*
X13808158Y-16381722D01*
X13808158Y-16381722D02*
X13817682Y-16362674D01*
X13817682Y-16362674D02*
X13836730Y-16353150D01*
X13836730Y-16353150D02*
X13865301Y-16353150D01*
X13865301Y-16353150D02*
X13884349Y-16362674D01*
X13960539Y-16562674D02*
X13970063Y-16553150D01*
X13970063Y-16553150D02*
X13989111Y-16524579D01*
X13989111Y-16524579D02*
X13998634Y-16505531D01*
X13998634Y-16505531D02*
X14008158Y-16476960D01*
X14008158Y-16476960D02*
X14017682Y-16429341D01*
X14017682Y-16429341D02*
X14017682Y-16391246D01*
X14017682Y-16391246D02*
X14008158Y-16343627D01*
X14008158Y-16343627D02*
X13998634Y-16315055D01*
X13998634Y-16315055D02*
X13989111Y-16296008D01*
X13989111Y-16296008D02*
X13970063Y-16267436D01*
X13970063Y-16267436D02*
X13960539Y-16257912D01*
D13*
X8995000Y-16659000D02*
G75*
G03*
X8995000Y-16659000I-20000J0D01*
G01*
D11*
X9293872Y-16550484D02*
X9312920Y-16550484D01*
X9312920Y-16550484D02*
X9331967Y-16560008D01*
X9331967Y-16560008D02*
X9341491Y-16569531D01*
X9341491Y-16569531D02*
X9351015Y-16588579D01*
X9351015Y-16588579D02*
X9360539Y-16626674D01*
X9360539Y-16626674D02*
X9360539Y-16674293D01*
X9360539Y-16674293D02*
X9351015Y-16712388D01*
X9351015Y-16712388D02*
X9341491Y-16731436D01*
X9341491Y-16731436D02*
X9331967Y-16740960D01*
X9331967Y-16740960D02*
X9312920Y-16750484D01*
X9312920Y-16750484D02*
X9293872Y-16750484D01*
X9293872Y-16750484D02*
X9274824Y-16740960D01*
X9274824Y-16740960D02*
X9265301Y-16731436D01*
X9265301Y-16731436D02*
X9255777Y-16712388D01*
X9255777Y-16712388D02*
X9246253Y-16674293D01*
X9246253Y-16674293D02*
X9246253Y-16626674D01*
X9246253Y-16626674D02*
X9255777Y-16588579D01*
X9255777Y-16588579D02*
X9265301Y-16569531D01*
X9265301Y-16569531D02*
X9274824Y-16560008D01*
X9274824Y-16560008D02*
X9293872Y-16550484D01*
X9446253Y-16731436D02*
X9455777Y-16740960D01*
X9455777Y-16740960D02*
X9446253Y-16750484D01*
X9446253Y-16750484D02*
X9436729Y-16740960D01*
X9436729Y-16740960D02*
X9446253Y-16731436D01*
X9446253Y-16731436D02*
X9446253Y-16750484D01*
X9627205Y-16617150D02*
X9627205Y-16750484D01*
X9579586Y-16540960D02*
X9531967Y-16683817D01*
X9531967Y-16683817D02*
X9655777Y-16683817D01*
X9770063Y-16550484D02*
X9789110Y-16550484D01*
X9789110Y-16550484D02*
X9808158Y-16560008D01*
X9808158Y-16560008D02*
X9817682Y-16569531D01*
X9817682Y-16569531D02*
X9827205Y-16588579D01*
X9827205Y-16588579D02*
X9836729Y-16626674D01*
X9836729Y-16626674D02*
X9836729Y-16674293D01*
X9836729Y-16674293D02*
X9827205Y-16712388D01*
X9827205Y-16712388D02*
X9817682Y-16731436D01*
X9817682Y-16731436D02*
X9808158Y-16740960D01*
X9808158Y-16740960D02*
X9789110Y-16750484D01*
X9789110Y-16750484D02*
X9770063Y-16750484D01*
X9770063Y-16750484D02*
X9751015Y-16740960D01*
X9751015Y-16740960D02*
X9741491Y-16731436D01*
X9741491Y-16731436D02*
X9731967Y-16712388D01*
X9731967Y-16712388D02*
X9722444Y-16674293D01*
X9722444Y-16674293D02*
X9722444Y-16626674D01*
X9722444Y-16626674D02*
X9731967Y-16588579D01*
X9731967Y-16588579D02*
X9741491Y-16569531D01*
X9741491Y-16569531D02*
X9751015Y-16560008D01*
X9751015Y-16560008D02*
X9770063Y-16550484D01*
X9960539Y-16550484D02*
X9979586Y-16550484D01*
X9979586Y-16550484D02*
X9998634Y-16560008D01*
X9998634Y-16560008D02*
X10008158Y-16569531D01*
X10008158Y-16569531D02*
X10017682Y-16588579D01*
X10017682Y-16588579D02*
X10027205Y-16626674D01*
X10027205Y-16626674D02*
X10027205Y-16674293D01*
X10027205Y-16674293D02*
X10017682Y-16712388D01*
X10017682Y-16712388D02*
X10008158Y-16731436D01*
X10008158Y-16731436D02*
X9998634Y-16740960D01*
X9998634Y-16740960D02*
X9979586Y-16750484D01*
X9979586Y-16750484D02*
X9960539Y-16750484D01*
X9960539Y-16750484D02*
X9941491Y-16740960D01*
X9941491Y-16740960D02*
X9931967Y-16731436D01*
X9931967Y-16731436D02*
X9922444Y-16712388D01*
X9922444Y-16712388D02*
X9912920Y-16674293D01*
X9912920Y-16674293D02*
X9912920Y-16626674D01*
X9912920Y-16626674D02*
X9922444Y-16588579D01*
X9922444Y-16588579D02*
X9931967Y-16569531D01*
X9931967Y-16569531D02*
X9941491Y-16560008D01*
X9941491Y-16560008D02*
X9960539Y-16550484D01*
X10112920Y-16750484D02*
X10112920Y-16617150D01*
X10112920Y-16636198D02*
X10122444Y-16626674D01*
X10122444Y-16626674D02*
X10141491Y-16617150D01*
X10141491Y-16617150D02*
X10170063Y-16617150D01*
X10170063Y-16617150D02*
X10189110Y-16626674D01*
X10189110Y-16626674D02*
X10198634Y-16645722D01*
X10198634Y-16645722D02*
X10198634Y-16750484D01*
X10198634Y-16645722D02*
X10208158Y-16626674D01*
X10208158Y-16626674D02*
X10227205Y-16617150D01*
X10227205Y-16617150D02*
X10255777Y-16617150D01*
X10255777Y-16617150D02*
X10274825Y-16626674D01*
X10274825Y-16626674D02*
X10284348Y-16645722D01*
X10284348Y-16645722D02*
X10284348Y-16750484D01*
X10379586Y-16750484D02*
X10379586Y-16617150D01*
X10379586Y-16636198D02*
X10389110Y-16626674D01*
X10389110Y-16626674D02*
X10408158Y-16617150D01*
X10408158Y-16617150D02*
X10436729Y-16617150D01*
X10436729Y-16617150D02*
X10455777Y-16626674D01*
X10455777Y-16626674D02*
X10465301Y-16645722D01*
X10465301Y-16645722D02*
X10465301Y-16750484D01*
X10465301Y-16645722D02*
X10474825Y-16626674D01*
X10474825Y-16626674D02*
X10493872Y-16617150D01*
X10493872Y-16617150D02*
X10522444Y-16617150D01*
X10522444Y-16617150D02*
X10541491Y-16626674D01*
X10541491Y-16626674D02*
X10551015Y-16645722D01*
X10551015Y-16645722D02*
X10551015Y-16750484D01*
X10941491Y-16540960D02*
X10770063Y-16798103D01*
X11198634Y-16550484D02*
X11217682Y-16550484D01*
X11217682Y-16550484D02*
X11236729Y-16560008D01*
X11236729Y-16560008D02*
X11246253Y-16569531D01*
X11246253Y-16569531D02*
X11255777Y-16588579D01*
X11255777Y-16588579D02*
X11265301Y-16626674D01*
X11265301Y-16626674D02*
X11265301Y-16674293D01*
X11265301Y-16674293D02*
X11255777Y-16712388D01*
X11255777Y-16712388D02*
X11246253Y-16731436D01*
X11246253Y-16731436D02*
X11236729Y-16740960D01*
X11236729Y-16740960D02*
X11217682Y-16750484D01*
X11217682Y-16750484D02*
X11198634Y-16750484D01*
X11198634Y-16750484D02*
X11179587Y-16740960D01*
X11179587Y-16740960D02*
X11170063Y-16731436D01*
X11170063Y-16731436D02*
X11160539Y-16712388D01*
X11160539Y-16712388D02*
X11151015Y-16674293D01*
X11151015Y-16674293D02*
X11151015Y-16626674D01*
X11151015Y-16626674D02*
X11160539Y-16588579D01*
X11160539Y-16588579D02*
X11170063Y-16569531D01*
X11170063Y-16569531D02*
X11179587Y-16560008D01*
X11179587Y-16560008D02*
X11198634Y-16550484D01*
X11351015Y-16731436D02*
X11360539Y-16740960D01*
X11360539Y-16740960D02*
X11351015Y-16750484D01*
X11351015Y-16750484D02*
X11341491Y-16740960D01*
X11341491Y-16740960D02*
X11351015Y-16731436D01*
X11351015Y-16731436D02*
X11351015Y-16750484D01*
X11484348Y-16550484D02*
X11503396Y-16550484D01*
X11503396Y-16550484D02*
X11522444Y-16560008D01*
X11522444Y-16560008D02*
X11531967Y-16569531D01*
X11531967Y-16569531D02*
X11541491Y-16588579D01*
X11541491Y-16588579D02*
X11551015Y-16626674D01*
X11551015Y-16626674D02*
X11551015Y-16674293D01*
X11551015Y-16674293D02*
X11541491Y-16712388D01*
X11541491Y-16712388D02*
X11531967Y-16731436D01*
X11531967Y-16731436D02*
X11522444Y-16740960D01*
X11522444Y-16740960D02*
X11503396Y-16750484D01*
X11503396Y-16750484D02*
X11484348Y-16750484D01*
X11484348Y-16750484D02*
X11465301Y-16740960D01*
X11465301Y-16740960D02*
X11455777Y-16731436D01*
X11455777Y-16731436D02*
X11446253Y-16712388D01*
X11446253Y-16712388D02*
X11436729Y-16674293D01*
X11436729Y-16674293D02*
X11436729Y-16626674D01*
X11436729Y-16626674D02*
X11446253Y-16588579D01*
X11446253Y-16588579D02*
X11455777Y-16569531D01*
X11455777Y-16569531D02*
X11465301Y-16560008D01*
X11465301Y-16560008D02*
X11484348Y-16550484D01*
X11741491Y-16750484D02*
X11627206Y-16750484D01*
X11684348Y-16750484D02*
X11684348Y-16550484D01*
X11684348Y-16550484D02*
X11665301Y-16579055D01*
X11665301Y-16579055D02*
X11646253Y-16598103D01*
X11646253Y-16598103D02*
X11627206Y-16607627D01*
X11922444Y-16550484D02*
X11827206Y-16550484D01*
X11827206Y-16550484D02*
X11817682Y-16645722D01*
X11817682Y-16645722D02*
X11827206Y-16636198D01*
X11827206Y-16636198D02*
X11846253Y-16626674D01*
X11846253Y-16626674D02*
X11893872Y-16626674D01*
X11893872Y-16626674D02*
X11912920Y-16636198D01*
X11912920Y-16636198D02*
X11922444Y-16645722D01*
X11922444Y-16645722D02*
X11931967Y-16664769D01*
X11931967Y-16664769D02*
X11931967Y-16712388D01*
X11931967Y-16712388D02*
X11922444Y-16731436D01*
X11922444Y-16731436D02*
X11912920Y-16740960D01*
X11912920Y-16740960D02*
X11893872Y-16750484D01*
X11893872Y-16750484D02*
X11846253Y-16750484D01*
X11846253Y-16750484D02*
X11827206Y-16740960D01*
X11827206Y-16740960D02*
X11817682Y-16731436D01*
X11998634Y-16550484D02*
X12131967Y-16550484D01*
X12131967Y-16550484D02*
X12046253Y-16750484D01*
X12198634Y-16550484D02*
X12198634Y-16588579D01*
X12274825Y-16550484D02*
X12274825Y-16588579D01*
X12570063Y-16826674D02*
X12560539Y-16817150D01*
X12560539Y-16817150D02*
X12541491Y-16788579D01*
X12541491Y-16788579D02*
X12531968Y-16769531D01*
X12531968Y-16769531D02*
X12522444Y-16740960D01*
X12522444Y-16740960D02*
X12512920Y-16693341D01*
X12512920Y-16693341D02*
X12512920Y-16655246D01*
X12512920Y-16655246D02*
X12522444Y-16607627D01*
X12522444Y-16607627D02*
X12531968Y-16579055D01*
X12531968Y-16579055D02*
X12541491Y-16560008D01*
X12541491Y-16560008D02*
X12560539Y-16531436D01*
X12560539Y-16531436D02*
X12570063Y-16521912D01*
X12751015Y-16750484D02*
X12636729Y-16750484D01*
X12693872Y-16750484D02*
X12693872Y-16550484D01*
X12693872Y-16550484D02*
X12674825Y-16579055D01*
X12674825Y-16579055D02*
X12655777Y-16598103D01*
X12655777Y-16598103D02*
X12636729Y-16607627D01*
X12931968Y-16550484D02*
X12836729Y-16550484D01*
X12836729Y-16550484D02*
X12827206Y-16645722D01*
X12827206Y-16645722D02*
X12836729Y-16636198D01*
X12836729Y-16636198D02*
X12855777Y-16626674D01*
X12855777Y-16626674D02*
X12903396Y-16626674D01*
X12903396Y-16626674D02*
X12922444Y-16636198D01*
X12922444Y-16636198D02*
X12931968Y-16645722D01*
X12931968Y-16645722D02*
X12941491Y-16664769D01*
X12941491Y-16664769D02*
X12941491Y-16712388D01*
X12941491Y-16712388D02*
X12931968Y-16731436D01*
X12931968Y-16731436D02*
X12922444Y-16740960D01*
X12922444Y-16740960D02*
X12903396Y-16750484D01*
X12903396Y-16750484D02*
X12855777Y-16750484D01*
X12855777Y-16750484D02*
X12836729Y-16740960D01*
X12836729Y-16740960D02*
X12827206Y-16731436D01*
X13179587Y-16750484D02*
X13179587Y-16550484D01*
X13265301Y-16750484D02*
X13265301Y-16645722D01*
X13265301Y-16645722D02*
X13255777Y-16626674D01*
X13255777Y-16626674D02*
X13236730Y-16617150D01*
X13236730Y-16617150D02*
X13208158Y-16617150D01*
X13208158Y-16617150D02*
X13189110Y-16626674D01*
X13189110Y-16626674D02*
X13179587Y-16636198D01*
X13389110Y-16750484D02*
X13370063Y-16740960D01*
X13370063Y-16740960D02*
X13360539Y-16731436D01*
X13360539Y-16731436D02*
X13351015Y-16712388D01*
X13351015Y-16712388D02*
X13351015Y-16655246D01*
X13351015Y-16655246D02*
X13360539Y-16636198D01*
X13360539Y-16636198D02*
X13370063Y-16626674D01*
X13370063Y-16626674D02*
X13389110Y-16617150D01*
X13389110Y-16617150D02*
X13417682Y-16617150D01*
X13417682Y-16617150D02*
X13436730Y-16626674D01*
X13436730Y-16626674D02*
X13446253Y-16636198D01*
X13446253Y-16636198D02*
X13455777Y-16655246D01*
X13455777Y-16655246D02*
X13455777Y-16712388D01*
X13455777Y-16712388D02*
X13446253Y-16731436D01*
X13446253Y-16731436D02*
X13436730Y-16740960D01*
X13436730Y-16740960D02*
X13417682Y-16750484D01*
X13417682Y-16750484D02*
X13389110Y-16750484D01*
X13570063Y-16750484D02*
X13551015Y-16740960D01*
X13551015Y-16740960D02*
X13541491Y-16721912D01*
X13541491Y-16721912D02*
X13541491Y-16550484D01*
X13722444Y-16740960D02*
X13703396Y-16750484D01*
X13703396Y-16750484D02*
X13665301Y-16750484D01*
X13665301Y-16750484D02*
X13646253Y-16740960D01*
X13646253Y-16740960D02*
X13636730Y-16721912D01*
X13636730Y-16721912D02*
X13636730Y-16645722D01*
X13636730Y-16645722D02*
X13646253Y-16626674D01*
X13646253Y-16626674D02*
X13665301Y-16617150D01*
X13665301Y-16617150D02*
X13703396Y-16617150D01*
X13703396Y-16617150D02*
X13722444Y-16626674D01*
X13722444Y-16626674D02*
X13731968Y-16645722D01*
X13731968Y-16645722D02*
X13731968Y-16664769D01*
X13731968Y-16664769D02*
X13636730Y-16683817D01*
X13808158Y-16740960D02*
X13827206Y-16750484D01*
X13827206Y-16750484D02*
X13865301Y-16750484D01*
X13865301Y-16750484D02*
X13884349Y-16740960D01*
X13884349Y-16740960D02*
X13893872Y-16721912D01*
X13893872Y-16721912D02*
X13893872Y-16712388D01*
X13893872Y-16712388D02*
X13884349Y-16693341D01*
X13884349Y-16693341D02*
X13865301Y-16683817D01*
X13865301Y-16683817D02*
X13836730Y-16683817D01*
X13836730Y-16683817D02*
X13817682Y-16674293D01*
X13817682Y-16674293D02*
X13808158Y-16655246D01*
X13808158Y-16655246D02*
X13808158Y-16645722D01*
X13808158Y-16645722D02*
X13817682Y-16626674D01*
X13817682Y-16626674D02*
X13836730Y-16617150D01*
X13836730Y-16617150D02*
X13865301Y-16617150D01*
X13865301Y-16617150D02*
X13884349Y-16626674D01*
X13960539Y-16826674D02*
X13970063Y-16817150D01*
X13970063Y-16817150D02*
X13989111Y-16788579D01*
X13989111Y-16788579D02*
X13998634Y-16769531D01*
X13998634Y-16769531D02*
X14008158Y-16740960D01*
X14008158Y-16740960D02*
X14017682Y-16693341D01*
X14017682Y-16693341D02*
X14017682Y-16655246D01*
X14017682Y-16655246D02*
X14008158Y-16607627D01*
X14008158Y-16607627D02*
X13998634Y-16579055D01*
X13998634Y-16579055D02*
X13989111Y-16560008D01*
X13989111Y-16560008D02*
X13970063Y-16531436D01*
X13970063Y-16531436D02*
X13960539Y-16521912D01*
D14*
X8965000Y-16893000D02*
X8965000Y-16953000D01*
X8935000Y-16923000D02*
X8995000Y-16923000D01*
D11*
X9293872Y-16814484D02*
X9312920Y-16814484D01*
X9312920Y-16814484D02*
X9331967Y-16824008D01*
X9331967Y-16824008D02*
X9341491Y-16833531D01*
X9341491Y-16833531D02*
X9351015Y-16852579D01*
X9351015Y-16852579D02*
X9360539Y-16890674D01*
X9360539Y-16890674D02*
X9360539Y-16938293D01*
X9360539Y-16938293D02*
X9351015Y-16976389D01*
X9351015Y-16976389D02*
X9341491Y-16995436D01*
X9341491Y-16995436D02*
X9331967Y-17004960D01*
X9331967Y-17004960D02*
X9312920Y-17014484D01*
X9312920Y-17014484D02*
X9293872Y-17014484D01*
X9293872Y-17014484D02*
X9274824Y-17004960D01*
X9274824Y-17004960D02*
X9265301Y-16995436D01*
X9265301Y-16995436D02*
X9255777Y-16976389D01*
X9255777Y-16976389D02*
X9246253Y-16938293D01*
X9246253Y-16938293D02*
X9246253Y-16890674D01*
X9246253Y-16890674D02*
X9255777Y-16852579D01*
X9255777Y-16852579D02*
X9265301Y-16833531D01*
X9265301Y-16833531D02*
X9274824Y-16824008D01*
X9274824Y-16824008D02*
X9293872Y-16814484D01*
X9446253Y-16995436D02*
X9455777Y-17004960D01*
X9455777Y-17004960D02*
X9446253Y-17014484D01*
X9446253Y-17014484D02*
X9436729Y-17004960D01*
X9436729Y-17004960D02*
X9446253Y-16995436D01*
X9446253Y-16995436D02*
X9446253Y-17014484D01*
X9627205Y-16814484D02*
X9589110Y-16814484D01*
X9589110Y-16814484D02*
X9570063Y-16824008D01*
X9570063Y-16824008D02*
X9560539Y-16833531D01*
X9560539Y-16833531D02*
X9541491Y-16862103D01*
X9541491Y-16862103D02*
X9531967Y-16900198D01*
X9531967Y-16900198D02*
X9531967Y-16976389D01*
X9531967Y-16976389D02*
X9541491Y-16995436D01*
X9541491Y-16995436D02*
X9551015Y-17004960D01*
X9551015Y-17004960D02*
X9570063Y-17014484D01*
X9570063Y-17014484D02*
X9608158Y-17014484D01*
X9608158Y-17014484D02*
X9627205Y-17004960D01*
X9627205Y-17004960D02*
X9636729Y-16995436D01*
X9636729Y-16995436D02*
X9646253Y-16976389D01*
X9646253Y-16976389D02*
X9646253Y-16928770D01*
X9646253Y-16928770D02*
X9636729Y-16909722D01*
X9636729Y-16909722D02*
X9627205Y-16900198D01*
X9627205Y-16900198D02*
X9608158Y-16890674D01*
X9608158Y-16890674D02*
X9570063Y-16890674D01*
X9570063Y-16890674D02*
X9551015Y-16900198D01*
X9551015Y-16900198D02*
X9541491Y-16909722D01*
X9541491Y-16909722D02*
X9531967Y-16928770D01*
X9770063Y-16814484D02*
X9789110Y-16814484D01*
X9789110Y-16814484D02*
X9808158Y-16824008D01*
X9808158Y-16824008D02*
X9817682Y-16833531D01*
X9817682Y-16833531D02*
X9827205Y-16852579D01*
X9827205Y-16852579D02*
X9836729Y-16890674D01*
X9836729Y-16890674D02*
X9836729Y-16938293D01*
X9836729Y-16938293D02*
X9827205Y-16976389D01*
X9827205Y-16976389D02*
X9817682Y-16995436D01*
X9817682Y-16995436D02*
X9808158Y-17004960D01*
X9808158Y-17004960D02*
X9789110Y-17014484D01*
X9789110Y-17014484D02*
X9770063Y-17014484D01*
X9770063Y-17014484D02*
X9751015Y-17004960D01*
X9751015Y-17004960D02*
X9741491Y-16995436D01*
X9741491Y-16995436D02*
X9731967Y-16976389D01*
X9731967Y-16976389D02*
X9722444Y-16938293D01*
X9722444Y-16938293D02*
X9722444Y-16890674D01*
X9722444Y-16890674D02*
X9731967Y-16852579D01*
X9731967Y-16852579D02*
X9741491Y-16833531D01*
X9741491Y-16833531D02*
X9751015Y-16824008D01*
X9751015Y-16824008D02*
X9770063Y-16814484D01*
X9960539Y-16814484D02*
X9979586Y-16814484D01*
X9979586Y-16814484D02*
X9998634Y-16824008D01*
X9998634Y-16824008D02*
X10008158Y-16833531D01*
X10008158Y-16833531D02*
X10017682Y-16852579D01*
X10017682Y-16852579D02*
X10027205Y-16890674D01*
X10027205Y-16890674D02*
X10027205Y-16938293D01*
X10027205Y-16938293D02*
X10017682Y-16976389D01*
X10017682Y-16976389D02*
X10008158Y-16995436D01*
X10008158Y-16995436D02*
X9998634Y-17004960D01*
X9998634Y-17004960D02*
X9979586Y-17014484D01*
X9979586Y-17014484D02*
X9960539Y-17014484D01*
X9960539Y-17014484D02*
X9941491Y-17004960D01*
X9941491Y-17004960D02*
X9931967Y-16995436D01*
X9931967Y-16995436D02*
X9922444Y-16976389D01*
X9922444Y-16976389D02*
X9912920Y-16938293D01*
X9912920Y-16938293D02*
X9912920Y-16890674D01*
X9912920Y-16890674D02*
X9922444Y-16852579D01*
X9922444Y-16852579D02*
X9931967Y-16833531D01*
X9931967Y-16833531D02*
X9941491Y-16824008D01*
X9941491Y-16824008D02*
X9960539Y-16814484D01*
X10112920Y-17014484D02*
X10112920Y-16881150D01*
X10112920Y-16900198D02*
X10122444Y-16890674D01*
X10122444Y-16890674D02*
X10141491Y-16881150D01*
X10141491Y-16881150D02*
X10170063Y-16881150D01*
X10170063Y-16881150D02*
X10189110Y-16890674D01*
X10189110Y-16890674D02*
X10198634Y-16909722D01*
X10198634Y-16909722D02*
X10198634Y-17014484D01*
X10198634Y-16909722D02*
X10208158Y-16890674D01*
X10208158Y-16890674D02*
X10227205Y-16881150D01*
X10227205Y-16881150D02*
X10255777Y-16881150D01*
X10255777Y-16881150D02*
X10274825Y-16890674D01*
X10274825Y-16890674D02*
X10284348Y-16909722D01*
X10284348Y-16909722D02*
X10284348Y-17014484D01*
X10379586Y-17014484D02*
X10379586Y-16881150D01*
X10379586Y-16900198D02*
X10389110Y-16890674D01*
X10389110Y-16890674D02*
X10408158Y-16881150D01*
X10408158Y-16881150D02*
X10436729Y-16881150D01*
X10436729Y-16881150D02*
X10455777Y-16890674D01*
X10455777Y-16890674D02*
X10465301Y-16909722D01*
X10465301Y-16909722D02*
X10465301Y-17014484D01*
X10465301Y-16909722D02*
X10474825Y-16890674D01*
X10474825Y-16890674D02*
X10493872Y-16881150D01*
X10493872Y-16881150D02*
X10522444Y-16881150D01*
X10522444Y-16881150D02*
X10541491Y-16890674D01*
X10541491Y-16890674D02*
X10551015Y-16909722D01*
X10551015Y-16909722D02*
X10551015Y-17014484D01*
X10941491Y-16804960D02*
X10770063Y-17062103D01*
X11198634Y-16814484D02*
X11217682Y-16814484D01*
X11217682Y-16814484D02*
X11236729Y-16824008D01*
X11236729Y-16824008D02*
X11246253Y-16833531D01*
X11246253Y-16833531D02*
X11255777Y-16852579D01*
X11255777Y-16852579D02*
X11265301Y-16890674D01*
X11265301Y-16890674D02*
X11265301Y-16938293D01*
X11265301Y-16938293D02*
X11255777Y-16976389D01*
X11255777Y-16976389D02*
X11246253Y-16995436D01*
X11246253Y-16995436D02*
X11236729Y-17004960D01*
X11236729Y-17004960D02*
X11217682Y-17014484D01*
X11217682Y-17014484D02*
X11198634Y-17014484D01*
X11198634Y-17014484D02*
X11179587Y-17004960D01*
X11179587Y-17004960D02*
X11170063Y-16995436D01*
X11170063Y-16995436D02*
X11160539Y-16976389D01*
X11160539Y-16976389D02*
X11151015Y-16938293D01*
X11151015Y-16938293D02*
X11151015Y-16890674D01*
X11151015Y-16890674D02*
X11160539Y-16852579D01*
X11160539Y-16852579D02*
X11170063Y-16833531D01*
X11170063Y-16833531D02*
X11179587Y-16824008D01*
X11179587Y-16824008D02*
X11198634Y-16814484D01*
X11351015Y-16995436D02*
X11360539Y-17004960D01*
X11360539Y-17004960D02*
X11351015Y-17014484D01*
X11351015Y-17014484D02*
X11341491Y-17004960D01*
X11341491Y-17004960D02*
X11351015Y-16995436D01*
X11351015Y-16995436D02*
X11351015Y-17014484D01*
X11484348Y-16814484D02*
X11503396Y-16814484D01*
X11503396Y-16814484D02*
X11522444Y-16824008D01*
X11522444Y-16824008D02*
X11531967Y-16833531D01*
X11531967Y-16833531D02*
X11541491Y-16852579D01*
X11541491Y-16852579D02*
X11551015Y-16890674D01*
X11551015Y-16890674D02*
X11551015Y-16938293D01*
X11551015Y-16938293D02*
X11541491Y-16976389D01*
X11541491Y-16976389D02*
X11531967Y-16995436D01*
X11531967Y-16995436D02*
X11522444Y-17004960D01*
X11522444Y-17004960D02*
X11503396Y-17014484D01*
X11503396Y-17014484D02*
X11484348Y-17014484D01*
X11484348Y-17014484D02*
X11465301Y-17004960D01*
X11465301Y-17004960D02*
X11455777Y-16995436D01*
X11455777Y-16995436D02*
X11446253Y-16976389D01*
X11446253Y-16976389D02*
X11436729Y-16938293D01*
X11436729Y-16938293D02*
X11436729Y-16890674D01*
X11436729Y-16890674D02*
X11446253Y-16852579D01*
X11446253Y-16852579D02*
X11455777Y-16833531D01*
X11455777Y-16833531D02*
X11465301Y-16824008D01*
X11465301Y-16824008D02*
X11484348Y-16814484D01*
X11627206Y-16833531D02*
X11636729Y-16824008D01*
X11636729Y-16824008D02*
X11655777Y-16814484D01*
X11655777Y-16814484D02*
X11703396Y-16814484D01*
X11703396Y-16814484D02*
X11722444Y-16824008D01*
X11722444Y-16824008D02*
X11731967Y-16833531D01*
X11731967Y-16833531D02*
X11741491Y-16852579D01*
X11741491Y-16852579D02*
X11741491Y-16871627D01*
X11741491Y-16871627D02*
X11731967Y-16900198D01*
X11731967Y-16900198D02*
X11617682Y-17014484D01*
X11617682Y-17014484D02*
X11741491Y-17014484D01*
X11808158Y-16814484D02*
X11931967Y-16814484D01*
X11931967Y-16814484D02*
X11865301Y-16890674D01*
X11865301Y-16890674D02*
X11893872Y-16890674D01*
X11893872Y-16890674D02*
X11912920Y-16900198D01*
X11912920Y-16900198D02*
X11922444Y-16909722D01*
X11922444Y-16909722D02*
X11931967Y-16928770D01*
X11931967Y-16928770D02*
X11931967Y-16976389D01*
X11931967Y-16976389D02*
X11922444Y-16995436D01*
X11922444Y-16995436D02*
X11912920Y-17004960D01*
X11912920Y-17004960D02*
X11893872Y-17014484D01*
X11893872Y-17014484D02*
X11836729Y-17014484D01*
X11836729Y-17014484D02*
X11817682Y-17004960D01*
X11817682Y-17004960D02*
X11808158Y-16995436D01*
X12103396Y-16814484D02*
X12065301Y-16814484D01*
X12065301Y-16814484D02*
X12046253Y-16824008D01*
X12046253Y-16824008D02*
X12036729Y-16833531D01*
X12036729Y-16833531D02*
X12017682Y-16862103D01*
X12017682Y-16862103D02*
X12008158Y-16900198D01*
X12008158Y-16900198D02*
X12008158Y-16976389D01*
X12008158Y-16976389D02*
X12017682Y-16995436D01*
X12017682Y-16995436D02*
X12027206Y-17004960D01*
X12027206Y-17004960D02*
X12046253Y-17014484D01*
X12046253Y-17014484D02*
X12084348Y-17014484D01*
X12084348Y-17014484D02*
X12103396Y-17004960D01*
X12103396Y-17004960D02*
X12112920Y-16995436D01*
X12112920Y-16995436D02*
X12122444Y-16976389D01*
X12122444Y-16976389D02*
X12122444Y-16928770D01*
X12122444Y-16928770D02*
X12112920Y-16909722D01*
X12112920Y-16909722D02*
X12103396Y-16900198D01*
X12103396Y-16900198D02*
X12084348Y-16890674D01*
X12084348Y-16890674D02*
X12046253Y-16890674D01*
X12046253Y-16890674D02*
X12027206Y-16900198D01*
X12027206Y-16900198D02*
X12017682Y-16909722D01*
X12017682Y-16909722D02*
X12008158Y-16928770D01*
X12198634Y-16814484D02*
X12198634Y-16852579D01*
X12274825Y-16814484D02*
X12274825Y-16852579D01*
X12570063Y-17090674D02*
X12560539Y-17081150D01*
X12560539Y-17081150D02*
X12541491Y-17052579D01*
X12541491Y-17052579D02*
X12531968Y-17033531D01*
X12531968Y-17033531D02*
X12522444Y-17004960D01*
X12522444Y-17004960D02*
X12512920Y-16957341D01*
X12512920Y-16957341D02*
X12512920Y-16919246D01*
X12512920Y-16919246D02*
X12522444Y-16871627D01*
X12522444Y-16871627D02*
X12531968Y-16843055D01*
X12531968Y-16843055D02*
X12541491Y-16824008D01*
X12541491Y-16824008D02*
X12560539Y-16795436D01*
X12560539Y-16795436D02*
X12570063Y-16785912D01*
X12684348Y-16814484D02*
X12703396Y-16814484D01*
X12703396Y-16814484D02*
X12722444Y-16824008D01*
X12722444Y-16824008D02*
X12731968Y-16833531D01*
X12731968Y-16833531D02*
X12741491Y-16852579D01*
X12741491Y-16852579D02*
X12751015Y-16890674D01*
X12751015Y-16890674D02*
X12751015Y-16938293D01*
X12751015Y-16938293D02*
X12741491Y-16976389D01*
X12741491Y-16976389D02*
X12731968Y-16995436D01*
X12731968Y-16995436D02*
X12722444Y-17004960D01*
X12722444Y-17004960D02*
X12703396Y-17014484D01*
X12703396Y-17014484D02*
X12684348Y-17014484D01*
X12684348Y-17014484D02*
X12665301Y-17004960D01*
X12665301Y-17004960D02*
X12655777Y-16995436D01*
X12655777Y-16995436D02*
X12646253Y-16976389D01*
X12646253Y-16976389D02*
X12636729Y-16938293D01*
X12636729Y-16938293D02*
X12636729Y-16890674D01*
X12636729Y-16890674D02*
X12646253Y-16852579D01*
X12646253Y-16852579D02*
X12655777Y-16833531D01*
X12655777Y-16833531D02*
X12665301Y-16824008D01*
X12665301Y-16824008D02*
X12684348Y-16814484D01*
X12989110Y-17014484D02*
X12989110Y-16814484D01*
X13074825Y-17014484D02*
X13074825Y-16909722D01*
X13074825Y-16909722D02*
X13065301Y-16890674D01*
X13065301Y-16890674D02*
X13046253Y-16881150D01*
X13046253Y-16881150D02*
X13017682Y-16881150D01*
X13017682Y-16881150D02*
X12998634Y-16890674D01*
X12998634Y-16890674D02*
X12989110Y-16900198D01*
X13198634Y-17014484D02*
X13179587Y-17004960D01*
X13179587Y-17004960D02*
X13170063Y-16995436D01*
X13170063Y-16995436D02*
X13160539Y-16976389D01*
X13160539Y-16976389D02*
X13160539Y-16919246D01*
X13160539Y-16919246D02*
X13170063Y-16900198D01*
X13170063Y-16900198D02*
X13179587Y-16890674D01*
X13179587Y-16890674D02*
X13198634Y-16881150D01*
X13198634Y-16881150D02*
X13227206Y-16881150D01*
X13227206Y-16881150D02*
X13246253Y-16890674D01*
X13246253Y-16890674D02*
X13255777Y-16900198D01*
X13255777Y-16900198D02*
X13265301Y-16919246D01*
X13265301Y-16919246D02*
X13265301Y-16976389D01*
X13265301Y-16976389D02*
X13255777Y-16995436D01*
X13255777Y-16995436D02*
X13246253Y-17004960D01*
X13246253Y-17004960D02*
X13227206Y-17014484D01*
X13227206Y-17014484D02*
X13198634Y-17014484D01*
X13379587Y-17014484D02*
X13360539Y-17004960D01*
X13360539Y-17004960D02*
X13351015Y-16985912D01*
X13351015Y-16985912D02*
X13351015Y-16814484D01*
X13531968Y-17004960D02*
X13512920Y-17014484D01*
X13512920Y-17014484D02*
X13474825Y-17014484D01*
X13474825Y-17014484D02*
X13455777Y-17004960D01*
X13455777Y-17004960D02*
X13446253Y-16985912D01*
X13446253Y-16985912D02*
X13446253Y-16909722D01*
X13446253Y-16909722D02*
X13455777Y-16890674D01*
X13455777Y-16890674D02*
X13474825Y-16881150D01*
X13474825Y-16881150D02*
X13512920Y-16881150D01*
X13512920Y-16881150D02*
X13531968Y-16890674D01*
X13531968Y-16890674D02*
X13541491Y-16909722D01*
X13541491Y-16909722D02*
X13541491Y-16928770D01*
X13541491Y-16928770D02*
X13446253Y-16947817D01*
X13617682Y-17004960D02*
X13636730Y-17014484D01*
X13636730Y-17014484D02*
X13674825Y-17014484D01*
X13674825Y-17014484D02*
X13693872Y-17004960D01*
X13693872Y-17004960D02*
X13703396Y-16985912D01*
X13703396Y-16985912D02*
X13703396Y-16976389D01*
X13703396Y-16976389D02*
X13693872Y-16957341D01*
X13693872Y-16957341D02*
X13674825Y-16947817D01*
X13674825Y-16947817D02*
X13646253Y-16947817D01*
X13646253Y-16947817D02*
X13627206Y-16938293D01*
X13627206Y-16938293D02*
X13617682Y-16919246D01*
X13617682Y-16919246D02*
X13617682Y-16909722D01*
X13617682Y-16909722D02*
X13627206Y-16890674D01*
X13627206Y-16890674D02*
X13646253Y-16881150D01*
X13646253Y-16881150D02*
X13674825Y-16881150D01*
X13674825Y-16881150D02*
X13693872Y-16890674D01*
X13941492Y-16938293D02*
X14093873Y-16938293D01*
X14017682Y-17014484D02*
X14017682Y-16862103D01*
X14427206Y-16881150D02*
X14427206Y-17014484D01*
X14379587Y-16804960D02*
X14331968Y-16947817D01*
X14331968Y-16947817D02*
X14455777Y-16947817D01*
X14674825Y-17004960D02*
X14693873Y-17014484D01*
X14693873Y-17014484D02*
X14731968Y-17014484D01*
X14731968Y-17014484D02*
X14751015Y-17004960D01*
X14751015Y-17004960D02*
X14760539Y-16985912D01*
X14760539Y-16985912D02*
X14760539Y-16976389D01*
X14760539Y-16976389D02*
X14751015Y-16957341D01*
X14751015Y-16957341D02*
X14731968Y-16947817D01*
X14731968Y-16947817D02*
X14703396Y-16947817D01*
X14703396Y-16947817D02*
X14684349Y-16938293D01*
X14684349Y-16938293D02*
X14674825Y-16919246D01*
X14674825Y-16919246D02*
X14674825Y-16909722D01*
X14674825Y-16909722D02*
X14684349Y-16890674D01*
X14684349Y-16890674D02*
X14703396Y-16881150D01*
X14703396Y-16881150D02*
X14731968Y-16881150D01*
X14731968Y-16881150D02*
X14751015Y-16890674D01*
X14874825Y-17014484D02*
X14855777Y-17004960D01*
X14855777Y-17004960D02*
X14846254Y-16985912D01*
X14846254Y-16985912D02*
X14846254Y-16814484D01*
X14979587Y-17014484D02*
X14960539Y-17004960D01*
X14960539Y-17004960D02*
X14951015Y-16995436D01*
X14951015Y-16995436D02*
X14941492Y-16976389D01*
X14941492Y-16976389D02*
X14941492Y-16919246D01*
X14941492Y-16919246D02*
X14951015Y-16900198D01*
X14951015Y-16900198D02*
X14960539Y-16890674D01*
X14960539Y-16890674D02*
X14979587Y-16881150D01*
X14979587Y-16881150D02*
X15008158Y-16881150D01*
X15008158Y-16881150D02*
X15027206Y-16890674D01*
X15027206Y-16890674D02*
X15036730Y-16900198D01*
X15036730Y-16900198D02*
X15046254Y-16919246D01*
X15046254Y-16919246D02*
X15046254Y-16976389D01*
X15046254Y-16976389D02*
X15036730Y-16995436D01*
X15036730Y-16995436D02*
X15027206Y-17004960D01*
X15027206Y-17004960D02*
X15008158Y-17014484D01*
X15008158Y-17014484D02*
X14979587Y-17014484D01*
X15103396Y-16881150D02*
X15179587Y-16881150D01*
X15131968Y-16814484D02*
X15131968Y-16985912D01*
X15131968Y-16985912D02*
X15141492Y-17004960D01*
X15141492Y-17004960D02*
X15160539Y-17014484D01*
X15160539Y-17014484D02*
X15179587Y-17014484D01*
X15236730Y-17004960D02*
X15255777Y-17014484D01*
X15255777Y-17014484D02*
X15293873Y-17014484D01*
X15293873Y-17014484D02*
X15312920Y-17004960D01*
X15312920Y-17004960D02*
X15322444Y-16985912D01*
X15322444Y-16985912D02*
X15322444Y-16976389D01*
X15322444Y-16976389D02*
X15312920Y-16957341D01*
X15312920Y-16957341D02*
X15293873Y-16947817D01*
X15293873Y-16947817D02*
X15265301Y-16947817D01*
X15265301Y-16947817D02*
X15246254Y-16938293D01*
X15246254Y-16938293D02*
X15236730Y-16919246D01*
X15236730Y-16919246D02*
X15236730Y-16909722D01*
X15236730Y-16909722D02*
X15246254Y-16890674D01*
X15246254Y-16890674D02*
X15265301Y-16881150D01*
X15265301Y-16881150D02*
X15293873Y-16881150D01*
X15293873Y-16881150D02*
X15312920Y-16890674D01*
X15389111Y-17090674D02*
X15398635Y-17081150D01*
X15398635Y-17081150D02*
X15417682Y-17052579D01*
X15417682Y-17052579D02*
X15427206Y-17033531D01*
X15427206Y-17033531D02*
X15436730Y-17004960D01*
X15436730Y-17004960D02*
X15446254Y-16957341D01*
X15446254Y-16957341D02*
X15446254Y-16919246D01*
X15446254Y-16919246D02*
X15436730Y-16871627D01*
X15436730Y-16871627D02*
X15427206Y-16843055D01*
X15427206Y-16843055D02*
X15417682Y-16824008D01*
X15417682Y-16824008D02*
X15398635Y-16795436D01*
X15398635Y-16795436D02*
X15389111Y-16785912D01*
D15*
X8983841Y-17213941D02*
X8983841Y-17160059D01*
X8929959Y-17160059D01*
X8929959Y-17213941D01*
X8983841Y-17213941D01*
D11*
X9293872Y-17078484D02*
X9312920Y-17078484D01*
X9312920Y-17078484D02*
X9331967Y-17088008D01*
X9331967Y-17088008D02*
X9341491Y-17097531D01*
X9341491Y-17097531D02*
X9351015Y-17116579D01*
X9351015Y-17116579D02*
X9360539Y-17154674D01*
X9360539Y-17154674D02*
X9360539Y-17202293D01*
X9360539Y-17202293D02*
X9351015Y-17240389D01*
X9351015Y-17240389D02*
X9341491Y-17259436D01*
X9341491Y-17259436D02*
X9331967Y-17268960D01*
X9331967Y-17268960D02*
X9312920Y-17278484D01*
X9312920Y-17278484D02*
X9293872Y-17278484D01*
X9293872Y-17278484D02*
X9274824Y-17268960D01*
X9274824Y-17268960D02*
X9265301Y-17259436D01*
X9265301Y-17259436D02*
X9255777Y-17240389D01*
X9255777Y-17240389D02*
X9246253Y-17202293D01*
X9246253Y-17202293D02*
X9246253Y-17154674D01*
X9246253Y-17154674D02*
X9255777Y-17116579D01*
X9255777Y-17116579D02*
X9265301Y-17097531D01*
X9265301Y-17097531D02*
X9274824Y-17088008D01*
X9274824Y-17088008D02*
X9293872Y-17078484D01*
X9446253Y-17259436D02*
X9455777Y-17268960D01*
X9455777Y-17268960D02*
X9446253Y-17278484D01*
X9446253Y-17278484D02*
X9436729Y-17268960D01*
X9436729Y-17268960D02*
X9446253Y-17259436D01*
X9446253Y-17259436D02*
X9446253Y-17278484D01*
X9522444Y-17078484D02*
X9655777Y-17078484D01*
X9655777Y-17078484D02*
X9570063Y-17278484D01*
X9817682Y-17078484D02*
X9779586Y-17078484D01*
X9779586Y-17078484D02*
X9760539Y-17088008D01*
X9760539Y-17088008D02*
X9751015Y-17097531D01*
X9751015Y-17097531D02*
X9731967Y-17126103D01*
X9731967Y-17126103D02*
X9722444Y-17164198D01*
X9722444Y-17164198D02*
X9722444Y-17240389D01*
X9722444Y-17240389D02*
X9731967Y-17259436D01*
X9731967Y-17259436D02*
X9741491Y-17268960D01*
X9741491Y-17268960D02*
X9760539Y-17278484D01*
X9760539Y-17278484D02*
X9798634Y-17278484D01*
X9798634Y-17278484D02*
X9817682Y-17268960D01*
X9817682Y-17268960D02*
X9827205Y-17259436D01*
X9827205Y-17259436D02*
X9836729Y-17240389D01*
X9836729Y-17240389D02*
X9836729Y-17192770D01*
X9836729Y-17192770D02*
X9827205Y-17173722D01*
X9827205Y-17173722D02*
X9817682Y-17164198D01*
X9817682Y-17164198D02*
X9798634Y-17154674D01*
X9798634Y-17154674D02*
X9760539Y-17154674D01*
X9760539Y-17154674D02*
X9741491Y-17164198D01*
X9741491Y-17164198D02*
X9731967Y-17173722D01*
X9731967Y-17173722D02*
X9722444Y-17192770D01*
X9912920Y-17097531D02*
X9922444Y-17088008D01*
X9922444Y-17088008D02*
X9941491Y-17078484D01*
X9941491Y-17078484D02*
X9989110Y-17078484D01*
X9989110Y-17078484D02*
X10008158Y-17088008D01*
X10008158Y-17088008D02*
X10017682Y-17097531D01*
X10017682Y-17097531D02*
X10027205Y-17116579D01*
X10027205Y-17116579D02*
X10027205Y-17135627D01*
X10027205Y-17135627D02*
X10017682Y-17164198D01*
X10017682Y-17164198D02*
X9903396Y-17278484D01*
X9903396Y-17278484D02*
X10027205Y-17278484D01*
X10112920Y-17278484D02*
X10112920Y-17145150D01*
X10112920Y-17164198D02*
X10122444Y-17154674D01*
X10122444Y-17154674D02*
X10141491Y-17145150D01*
X10141491Y-17145150D02*
X10170063Y-17145150D01*
X10170063Y-17145150D02*
X10189110Y-17154674D01*
X10189110Y-17154674D02*
X10198634Y-17173722D01*
X10198634Y-17173722D02*
X10198634Y-17278484D01*
X10198634Y-17173722D02*
X10208158Y-17154674D01*
X10208158Y-17154674D02*
X10227205Y-17145150D01*
X10227205Y-17145150D02*
X10255777Y-17145150D01*
X10255777Y-17145150D02*
X10274825Y-17154674D01*
X10274825Y-17154674D02*
X10284348Y-17173722D01*
X10284348Y-17173722D02*
X10284348Y-17278484D01*
X10379586Y-17278484D02*
X10379586Y-17145150D01*
X10379586Y-17164198D02*
X10389110Y-17154674D01*
X10389110Y-17154674D02*
X10408158Y-17145150D01*
X10408158Y-17145150D02*
X10436729Y-17145150D01*
X10436729Y-17145150D02*
X10455777Y-17154674D01*
X10455777Y-17154674D02*
X10465301Y-17173722D01*
X10465301Y-17173722D02*
X10465301Y-17278484D01*
X10465301Y-17173722D02*
X10474825Y-17154674D01*
X10474825Y-17154674D02*
X10493872Y-17145150D01*
X10493872Y-17145150D02*
X10522444Y-17145150D01*
X10522444Y-17145150D02*
X10541491Y-17154674D01*
X10541491Y-17154674D02*
X10551015Y-17173722D01*
X10551015Y-17173722D02*
X10551015Y-17278484D01*
X10941491Y-17068960D02*
X10770063Y-17326103D01*
X11198634Y-17078484D02*
X11217682Y-17078484D01*
X11217682Y-17078484D02*
X11236729Y-17088008D01*
X11236729Y-17088008D02*
X11246253Y-17097531D01*
X11246253Y-17097531D02*
X11255777Y-17116579D01*
X11255777Y-17116579D02*
X11265301Y-17154674D01*
X11265301Y-17154674D02*
X11265301Y-17202293D01*
X11265301Y-17202293D02*
X11255777Y-17240389D01*
X11255777Y-17240389D02*
X11246253Y-17259436D01*
X11246253Y-17259436D02*
X11236729Y-17268960D01*
X11236729Y-17268960D02*
X11217682Y-17278484D01*
X11217682Y-17278484D02*
X11198634Y-17278484D01*
X11198634Y-17278484D02*
X11179587Y-17268960D01*
X11179587Y-17268960D02*
X11170063Y-17259436D01*
X11170063Y-17259436D02*
X11160539Y-17240389D01*
X11160539Y-17240389D02*
X11151015Y-17202293D01*
X11151015Y-17202293D02*
X11151015Y-17154674D01*
X11151015Y-17154674D02*
X11160539Y-17116579D01*
X11160539Y-17116579D02*
X11170063Y-17097531D01*
X11170063Y-17097531D02*
X11179587Y-17088008D01*
X11179587Y-17088008D02*
X11198634Y-17078484D01*
X11351015Y-17259436D02*
X11360539Y-17268960D01*
X11360539Y-17268960D02*
X11351015Y-17278484D01*
X11351015Y-17278484D02*
X11341491Y-17268960D01*
X11341491Y-17268960D02*
X11351015Y-17259436D01*
X11351015Y-17259436D02*
X11351015Y-17278484D01*
X11484348Y-17078484D02*
X11503396Y-17078484D01*
X11503396Y-17078484D02*
X11522444Y-17088008D01*
X11522444Y-17088008D02*
X11531967Y-17097531D01*
X11531967Y-17097531D02*
X11541491Y-17116579D01*
X11541491Y-17116579D02*
X11551015Y-17154674D01*
X11551015Y-17154674D02*
X11551015Y-17202293D01*
X11551015Y-17202293D02*
X11541491Y-17240389D01*
X11541491Y-17240389D02*
X11531967Y-17259436D01*
X11531967Y-17259436D02*
X11522444Y-17268960D01*
X11522444Y-17268960D02*
X11503396Y-17278484D01*
X11503396Y-17278484D02*
X11484348Y-17278484D01*
X11484348Y-17278484D02*
X11465301Y-17268960D01*
X11465301Y-17268960D02*
X11455777Y-17259436D01*
X11455777Y-17259436D02*
X11446253Y-17240389D01*
X11446253Y-17240389D02*
X11436729Y-17202293D01*
X11436729Y-17202293D02*
X11436729Y-17154674D01*
X11436729Y-17154674D02*
X11446253Y-17116579D01*
X11446253Y-17116579D02*
X11455777Y-17097531D01*
X11455777Y-17097531D02*
X11465301Y-17088008D01*
X11465301Y-17088008D02*
X11484348Y-17078484D01*
X11617682Y-17078484D02*
X11741491Y-17078484D01*
X11741491Y-17078484D02*
X11674825Y-17154674D01*
X11674825Y-17154674D02*
X11703396Y-17154674D01*
X11703396Y-17154674D02*
X11722444Y-17164198D01*
X11722444Y-17164198D02*
X11731967Y-17173722D01*
X11731967Y-17173722D02*
X11741491Y-17192770D01*
X11741491Y-17192770D02*
X11741491Y-17240389D01*
X11741491Y-17240389D02*
X11731967Y-17259436D01*
X11731967Y-17259436D02*
X11722444Y-17268960D01*
X11722444Y-17268960D02*
X11703396Y-17278484D01*
X11703396Y-17278484D02*
X11646253Y-17278484D01*
X11646253Y-17278484D02*
X11627206Y-17268960D01*
X11627206Y-17268960D02*
X11617682Y-17259436D01*
X11865301Y-17078484D02*
X11884348Y-17078484D01*
X11884348Y-17078484D02*
X11903396Y-17088008D01*
X11903396Y-17088008D02*
X11912920Y-17097531D01*
X11912920Y-17097531D02*
X11922444Y-17116579D01*
X11922444Y-17116579D02*
X11931967Y-17154674D01*
X11931967Y-17154674D02*
X11931967Y-17202293D01*
X11931967Y-17202293D02*
X11922444Y-17240389D01*
X11922444Y-17240389D02*
X11912920Y-17259436D01*
X11912920Y-17259436D02*
X11903396Y-17268960D01*
X11903396Y-17268960D02*
X11884348Y-17278484D01*
X11884348Y-17278484D02*
X11865301Y-17278484D01*
X11865301Y-17278484D02*
X11846253Y-17268960D01*
X11846253Y-17268960D02*
X11836729Y-17259436D01*
X11836729Y-17259436D02*
X11827206Y-17240389D01*
X11827206Y-17240389D02*
X11817682Y-17202293D01*
X11817682Y-17202293D02*
X11817682Y-17154674D01*
X11817682Y-17154674D02*
X11827206Y-17116579D01*
X11827206Y-17116579D02*
X11836729Y-17097531D01*
X11836729Y-17097531D02*
X11846253Y-17088008D01*
X11846253Y-17088008D02*
X11865301Y-17078484D01*
X12055777Y-17078484D02*
X12074825Y-17078484D01*
X12074825Y-17078484D02*
X12093872Y-17088008D01*
X12093872Y-17088008D02*
X12103396Y-17097531D01*
X12103396Y-17097531D02*
X12112920Y-17116579D01*
X12112920Y-17116579D02*
X12122444Y-17154674D01*
X12122444Y-17154674D02*
X12122444Y-17202293D01*
X12122444Y-17202293D02*
X12112920Y-17240389D01*
X12112920Y-17240389D02*
X12103396Y-17259436D01*
X12103396Y-17259436D02*
X12093872Y-17268960D01*
X12093872Y-17268960D02*
X12074825Y-17278484D01*
X12074825Y-17278484D02*
X12055777Y-17278484D01*
X12055777Y-17278484D02*
X12036729Y-17268960D01*
X12036729Y-17268960D02*
X12027206Y-17259436D01*
X12027206Y-17259436D02*
X12017682Y-17240389D01*
X12017682Y-17240389D02*
X12008158Y-17202293D01*
X12008158Y-17202293D02*
X12008158Y-17154674D01*
X12008158Y-17154674D02*
X12017682Y-17116579D01*
X12017682Y-17116579D02*
X12027206Y-17097531D01*
X12027206Y-17097531D02*
X12036729Y-17088008D01*
X12036729Y-17088008D02*
X12055777Y-17078484D01*
X12198634Y-17078484D02*
X12198634Y-17116579D01*
X12274825Y-17078484D02*
X12274825Y-17116579D01*
X12570063Y-17354674D02*
X12560539Y-17345150D01*
X12560539Y-17345150D02*
X12541491Y-17316579D01*
X12541491Y-17316579D02*
X12531968Y-17297531D01*
X12531968Y-17297531D02*
X12522444Y-17268960D01*
X12522444Y-17268960D02*
X12512920Y-17221341D01*
X12512920Y-17221341D02*
X12512920Y-17183246D01*
X12512920Y-17183246D02*
X12522444Y-17135627D01*
X12522444Y-17135627D02*
X12531968Y-17107055D01*
X12531968Y-17107055D02*
X12541491Y-17088008D01*
X12541491Y-17088008D02*
X12560539Y-17059436D01*
X12560539Y-17059436D02*
X12570063Y-17049912D01*
X12731968Y-17078484D02*
X12693872Y-17078484D01*
X12693872Y-17078484D02*
X12674825Y-17088008D01*
X12674825Y-17088008D02*
X12665301Y-17097531D01*
X12665301Y-17097531D02*
X12646253Y-17126103D01*
X12646253Y-17126103D02*
X12636729Y-17164198D01*
X12636729Y-17164198D02*
X12636729Y-17240389D01*
X12636729Y-17240389D02*
X12646253Y-17259436D01*
X12646253Y-17259436D02*
X12655777Y-17268960D01*
X12655777Y-17268960D02*
X12674825Y-17278484D01*
X12674825Y-17278484D02*
X12712920Y-17278484D01*
X12712920Y-17278484D02*
X12731968Y-17268960D01*
X12731968Y-17268960D02*
X12741491Y-17259436D01*
X12741491Y-17259436D02*
X12751015Y-17240389D01*
X12751015Y-17240389D02*
X12751015Y-17192770D01*
X12751015Y-17192770D02*
X12741491Y-17173722D01*
X12741491Y-17173722D02*
X12731968Y-17164198D01*
X12731968Y-17164198D02*
X12712920Y-17154674D01*
X12712920Y-17154674D02*
X12674825Y-17154674D01*
X12674825Y-17154674D02*
X12655777Y-17164198D01*
X12655777Y-17164198D02*
X12646253Y-17173722D01*
X12646253Y-17173722D02*
X12636729Y-17192770D01*
X12989110Y-17278484D02*
X12989110Y-17078484D01*
X13074825Y-17278484D02*
X13074825Y-17173722D01*
X13074825Y-17173722D02*
X13065301Y-17154674D01*
X13065301Y-17154674D02*
X13046253Y-17145150D01*
X13046253Y-17145150D02*
X13017682Y-17145150D01*
X13017682Y-17145150D02*
X12998634Y-17154674D01*
X12998634Y-17154674D02*
X12989110Y-17164198D01*
X13198634Y-17278484D02*
X13179587Y-17268960D01*
X13179587Y-17268960D02*
X13170063Y-17259436D01*
X13170063Y-17259436D02*
X13160539Y-17240389D01*
X13160539Y-17240389D02*
X13160539Y-17183246D01*
X13160539Y-17183246D02*
X13170063Y-17164198D01*
X13170063Y-17164198D02*
X13179587Y-17154674D01*
X13179587Y-17154674D02*
X13198634Y-17145150D01*
X13198634Y-17145150D02*
X13227206Y-17145150D01*
X13227206Y-17145150D02*
X13246253Y-17154674D01*
X13246253Y-17154674D02*
X13255777Y-17164198D01*
X13255777Y-17164198D02*
X13265301Y-17183246D01*
X13265301Y-17183246D02*
X13265301Y-17240389D01*
X13265301Y-17240389D02*
X13255777Y-17259436D01*
X13255777Y-17259436D02*
X13246253Y-17268960D01*
X13246253Y-17268960D02*
X13227206Y-17278484D01*
X13227206Y-17278484D02*
X13198634Y-17278484D01*
X13379587Y-17278484D02*
X13360539Y-17268960D01*
X13360539Y-17268960D02*
X13351015Y-17249912D01*
X13351015Y-17249912D02*
X13351015Y-17078484D01*
X13531968Y-17268960D02*
X13512920Y-17278484D01*
X13512920Y-17278484D02*
X13474825Y-17278484D01*
X13474825Y-17278484D02*
X13455777Y-17268960D01*
X13455777Y-17268960D02*
X13446253Y-17249912D01*
X13446253Y-17249912D02*
X13446253Y-17173722D01*
X13446253Y-17173722D02*
X13455777Y-17154674D01*
X13455777Y-17154674D02*
X13474825Y-17145150D01*
X13474825Y-17145150D02*
X13512920Y-17145150D01*
X13512920Y-17145150D02*
X13531968Y-17154674D01*
X13531968Y-17154674D02*
X13541491Y-17173722D01*
X13541491Y-17173722D02*
X13541491Y-17192770D01*
X13541491Y-17192770D02*
X13446253Y-17211817D01*
X13617682Y-17268960D02*
X13636730Y-17278484D01*
X13636730Y-17278484D02*
X13674825Y-17278484D01*
X13674825Y-17278484D02*
X13693872Y-17268960D01*
X13693872Y-17268960D02*
X13703396Y-17249912D01*
X13703396Y-17249912D02*
X13703396Y-17240389D01*
X13703396Y-17240389D02*
X13693872Y-17221341D01*
X13693872Y-17221341D02*
X13674825Y-17211817D01*
X13674825Y-17211817D02*
X13646253Y-17211817D01*
X13646253Y-17211817D02*
X13627206Y-17202293D01*
X13627206Y-17202293D02*
X13617682Y-17183246D01*
X13617682Y-17183246D02*
X13617682Y-17173722D01*
X13617682Y-17173722D02*
X13627206Y-17154674D01*
X13627206Y-17154674D02*
X13646253Y-17145150D01*
X13646253Y-17145150D02*
X13674825Y-17145150D01*
X13674825Y-17145150D02*
X13693872Y-17154674D01*
X13770063Y-17354674D02*
X13779587Y-17345150D01*
X13779587Y-17345150D02*
X13798634Y-17316579D01*
X13798634Y-17316579D02*
X13808158Y-17297531D01*
X13808158Y-17297531D02*
X13817682Y-17268960D01*
X13817682Y-17268960D02*
X13827206Y-17221341D01*
X13827206Y-17221341D02*
X13827206Y-17183246D01*
X13827206Y-17183246D02*
X13817682Y-17135627D01*
X13817682Y-17135627D02*
X13808158Y-17107055D01*
X13808158Y-17107055D02*
X13798634Y-17088008D01*
X13798634Y-17088008D02*
X13779587Y-17059436D01*
X13779587Y-17059436D02*
X13770063Y-17049912D01*
D10*
X8945000Y-17501000D02*
X8995000Y-17451000D01*
X8945000Y-17401000D01*
X8895000Y-17451000D01*
X8945000Y-17501000D01*
D11*
X9360539Y-17542484D02*
X9246253Y-17542484D01*
X9303396Y-17542484D02*
X9303396Y-17342484D01*
X9303396Y-17342484D02*
X9284348Y-17371055D01*
X9284348Y-17371055D02*
X9265301Y-17390103D01*
X9265301Y-17390103D02*
X9246253Y-17399627D01*
X9446253Y-17523436D02*
X9455777Y-17532960D01*
X9455777Y-17532960D02*
X9446253Y-17542484D01*
X9446253Y-17542484D02*
X9436729Y-17532960D01*
X9436729Y-17532960D02*
X9446253Y-17523436D01*
X9446253Y-17523436D02*
X9446253Y-17542484D01*
X9579586Y-17342484D02*
X9598634Y-17342484D01*
X9598634Y-17342484D02*
X9617682Y-17352008D01*
X9617682Y-17352008D02*
X9627205Y-17361531D01*
X9627205Y-17361531D02*
X9636729Y-17380579D01*
X9636729Y-17380579D02*
X9646253Y-17418674D01*
X9646253Y-17418674D02*
X9646253Y-17466293D01*
X9646253Y-17466293D02*
X9636729Y-17504389D01*
X9636729Y-17504389D02*
X9627205Y-17523436D01*
X9627205Y-17523436D02*
X9617682Y-17532960D01*
X9617682Y-17532960D02*
X9598634Y-17542484D01*
X9598634Y-17542484D02*
X9579586Y-17542484D01*
X9579586Y-17542484D02*
X9560539Y-17532960D01*
X9560539Y-17532960D02*
X9551015Y-17523436D01*
X9551015Y-17523436D02*
X9541491Y-17504389D01*
X9541491Y-17504389D02*
X9531967Y-17466293D01*
X9531967Y-17466293D02*
X9531967Y-17418674D01*
X9531967Y-17418674D02*
X9541491Y-17380579D01*
X9541491Y-17380579D02*
X9551015Y-17361531D01*
X9551015Y-17361531D02*
X9560539Y-17352008D01*
X9560539Y-17352008D02*
X9579586Y-17342484D01*
X9770063Y-17342484D02*
X9789110Y-17342484D01*
X9789110Y-17342484D02*
X9808158Y-17352008D01*
X9808158Y-17352008D02*
X9817682Y-17361531D01*
X9817682Y-17361531D02*
X9827205Y-17380579D01*
X9827205Y-17380579D02*
X9836729Y-17418674D01*
X9836729Y-17418674D02*
X9836729Y-17466293D01*
X9836729Y-17466293D02*
X9827205Y-17504389D01*
X9827205Y-17504389D02*
X9817682Y-17523436D01*
X9817682Y-17523436D02*
X9808158Y-17532960D01*
X9808158Y-17532960D02*
X9789110Y-17542484D01*
X9789110Y-17542484D02*
X9770063Y-17542484D01*
X9770063Y-17542484D02*
X9751015Y-17532960D01*
X9751015Y-17532960D02*
X9741491Y-17523436D01*
X9741491Y-17523436D02*
X9731967Y-17504389D01*
X9731967Y-17504389D02*
X9722444Y-17466293D01*
X9722444Y-17466293D02*
X9722444Y-17418674D01*
X9722444Y-17418674D02*
X9731967Y-17380579D01*
X9731967Y-17380579D02*
X9741491Y-17361531D01*
X9741491Y-17361531D02*
X9751015Y-17352008D01*
X9751015Y-17352008D02*
X9770063Y-17342484D01*
X9960539Y-17342484D02*
X9979586Y-17342484D01*
X9979586Y-17342484D02*
X9998634Y-17352008D01*
X9998634Y-17352008D02*
X10008158Y-17361531D01*
X10008158Y-17361531D02*
X10017682Y-17380579D01*
X10017682Y-17380579D02*
X10027205Y-17418674D01*
X10027205Y-17418674D02*
X10027205Y-17466293D01*
X10027205Y-17466293D02*
X10017682Y-17504389D01*
X10017682Y-17504389D02*
X10008158Y-17523436D01*
X10008158Y-17523436D02*
X9998634Y-17532960D01*
X9998634Y-17532960D02*
X9979586Y-17542484D01*
X9979586Y-17542484D02*
X9960539Y-17542484D01*
X9960539Y-17542484D02*
X9941491Y-17532960D01*
X9941491Y-17532960D02*
X9931967Y-17523436D01*
X9931967Y-17523436D02*
X9922444Y-17504389D01*
X9922444Y-17504389D02*
X9912920Y-17466293D01*
X9912920Y-17466293D02*
X9912920Y-17418674D01*
X9912920Y-17418674D02*
X9922444Y-17380579D01*
X9922444Y-17380579D02*
X9931967Y-17361531D01*
X9931967Y-17361531D02*
X9941491Y-17352008D01*
X9941491Y-17352008D02*
X9960539Y-17342484D01*
X10112920Y-17542484D02*
X10112920Y-17409150D01*
X10112920Y-17428198D02*
X10122444Y-17418674D01*
X10122444Y-17418674D02*
X10141491Y-17409150D01*
X10141491Y-17409150D02*
X10170063Y-17409150D01*
X10170063Y-17409150D02*
X10189110Y-17418674D01*
X10189110Y-17418674D02*
X10198634Y-17437722D01*
X10198634Y-17437722D02*
X10198634Y-17542484D01*
X10198634Y-17437722D02*
X10208158Y-17418674D01*
X10208158Y-17418674D02*
X10227205Y-17409150D01*
X10227205Y-17409150D02*
X10255777Y-17409150D01*
X10255777Y-17409150D02*
X10274825Y-17418674D01*
X10274825Y-17418674D02*
X10284348Y-17437722D01*
X10284348Y-17437722D02*
X10284348Y-17542484D01*
X10379586Y-17542484D02*
X10379586Y-17409150D01*
X10379586Y-17428198D02*
X10389110Y-17418674D01*
X10389110Y-17418674D02*
X10408158Y-17409150D01*
X10408158Y-17409150D02*
X10436729Y-17409150D01*
X10436729Y-17409150D02*
X10455777Y-17418674D01*
X10455777Y-17418674D02*
X10465301Y-17437722D01*
X10465301Y-17437722D02*
X10465301Y-17542484D01*
X10465301Y-17437722D02*
X10474825Y-17418674D01*
X10474825Y-17418674D02*
X10493872Y-17409150D01*
X10493872Y-17409150D02*
X10522444Y-17409150D01*
X10522444Y-17409150D02*
X10541491Y-17418674D01*
X10541491Y-17418674D02*
X10551015Y-17437722D01*
X10551015Y-17437722D02*
X10551015Y-17542484D01*
X10941491Y-17332960D02*
X10770063Y-17590103D01*
X11198634Y-17342484D02*
X11217682Y-17342484D01*
X11217682Y-17342484D02*
X11236729Y-17352008D01*
X11236729Y-17352008D02*
X11246253Y-17361531D01*
X11246253Y-17361531D02*
X11255777Y-17380579D01*
X11255777Y-17380579D02*
X11265301Y-17418674D01*
X11265301Y-17418674D02*
X11265301Y-17466293D01*
X11265301Y-17466293D02*
X11255777Y-17504389D01*
X11255777Y-17504389D02*
X11246253Y-17523436D01*
X11246253Y-17523436D02*
X11236729Y-17532960D01*
X11236729Y-17532960D02*
X11217682Y-17542484D01*
X11217682Y-17542484D02*
X11198634Y-17542484D01*
X11198634Y-17542484D02*
X11179587Y-17532960D01*
X11179587Y-17532960D02*
X11170063Y-17523436D01*
X11170063Y-17523436D02*
X11160539Y-17504389D01*
X11160539Y-17504389D02*
X11151015Y-17466293D01*
X11151015Y-17466293D02*
X11151015Y-17418674D01*
X11151015Y-17418674D02*
X11160539Y-17380579D01*
X11160539Y-17380579D02*
X11170063Y-17361531D01*
X11170063Y-17361531D02*
X11179587Y-17352008D01*
X11179587Y-17352008D02*
X11198634Y-17342484D01*
X11351015Y-17523436D02*
X11360539Y-17532960D01*
X11360539Y-17532960D02*
X11351015Y-17542484D01*
X11351015Y-17542484D02*
X11341491Y-17532960D01*
X11341491Y-17532960D02*
X11351015Y-17523436D01*
X11351015Y-17523436D02*
X11351015Y-17542484D01*
X11484348Y-17342484D02*
X11503396Y-17342484D01*
X11503396Y-17342484D02*
X11522444Y-17352008D01*
X11522444Y-17352008D02*
X11531967Y-17361531D01*
X11531967Y-17361531D02*
X11541491Y-17380579D01*
X11541491Y-17380579D02*
X11551015Y-17418674D01*
X11551015Y-17418674D02*
X11551015Y-17466293D01*
X11551015Y-17466293D02*
X11541491Y-17504389D01*
X11541491Y-17504389D02*
X11531967Y-17523436D01*
X11531967Y-17523436D02*
X11522444Y-17532960D01*
X11522444Y-17532960D02*
X11503396Y-17542484D01*
X11503396Y-17542484D02*
X11484348Y-17542484D01*
X11484348Y-17542484D02*
X11465301Y-17532960D01*
X11465301Y-17532960D02*
X11455777Y-17523436D01*
X11455777Y-17523436D02*
X11446253Y-17504389D01*
X11446253Y-17504389D02*
X11436729Y-17466293D01*
X11436729Y-17466293D02*
X11436729Y-17418674D01*
X11436729Y-17418674D02*
X11446253Y-17380579D01*
X11446253Y-17380579D02*
X11455777Y-17361531D01*
X11455777Y-17361531D02*
X11465301Y-17352008D01*
X11465301Y-17352008D02*
X11484348Y-17342484D01*
X11617682Y-17342484D02*
X11741491Y-17342484D01*
X11741491Y-17342484D02*
X11674825Y-17418674D01*
X11674825Y-17418674D02*
X11703396Y-17418674D01*
X11703396Y-17418674D02*
X11722444Y-17428198D01*
X11722444Y-17428198D02*
X11731967Y-17437722D01*
X11731967Y-17437722D02*
X11741491Y-17456770D01*
X11741491Y-17456770D02*
X11741491Y-17504389D01*
X11741491Y-17504389D02*
X11731967Y-17523436D01*
X11731967Y-17523436D02*
X11722444Y-17532960D01*
X11722444Y-17532960D02*
X11703396Y-17542484D01*
X11703396Y-17542484D02*
X11646253Y-17542484D01*
X11646253Y-17542484D02*
X11627206Y-17532960D01*
X11627206Y-17532960D02*
X11617682Y-17523436D01*
X11836729Y-17542484D02*
X11874825Y-17542484D01*
X11874825Y-17542484D02*
X11893872Y-17532960D01*
X11893872Y-17532960D02*
X11903396Y-17523436D01*
X11903396Y-17523436D02*
X11922444Y-17494865D01*
X11922444Y-17494865D02*
X11931967Y-17456770D01*
X11931967Y-17456770D02*
X11931967Y-17380579D01*
X11931967Y-17380579D02*
X11922444Y-17361531D01*
X11922444Y-17361531D02*
X11912920Y-17352008D01*
X11912920Y-17352008D02*
X11893872Y-17342484D01*
X11893872Y-17342484D02*
X11855777Y-17342484D01*
X11855777Y-17342484D02*
X11836729Y-17352008D01*
X11836729Y-17352008D02*
X11827206Y-17361531D01*
X11827206Y-17361531D02*
X11817682Y-17380579D01*
X11817682Y-17380579D02*
X11817682Y-17428198D01*
X11817682Y-17428198D02*
X11827206Y-17447246D01*
X11827206Y-17447246D02*
X11836729Y-17456770D01*
X11836729Y-17456770D02*
X11855777Y-17466293D01*
X11855777Y-17466293D02*
X11893872Y-17466293D01*
X11893872Y-17466293D02*
X11912920Y-17456770D01*
X11912920Y-17456770D02*
X11922444Y-17447246D01*
X11922444Y-17447246D02*
X11931967Y-17428198D01*
X12103396Y-17409150D02*
X12103396Y-17542484D01*
X12055777Y-17332960D02*
X12008158Y-17475817D01*
X12008158Y-17475817D02*
X12131967Y-17475817D01*
X12198634Y-17342484D02*
X12198634Y-17380579D01*
X12274825Y-17342484D02*
X12274825Y-17380579D01*
X12570063Y-17618674D02*
X12560539Y-17609150D01*
X12560539Y-17609150D02*
X12541491Y-17580579D01*
X12541491Y-17580579D02*
X12531968Y-17561531D01*
X12531968Y-17561531D02*
X12522444Y-17532960D01*
X12522444Y-17532960D02*
X12512920Y-17485341D01*
X12512920Y-17485341D02*
X12512920Y-17447246D01*
X12512920Y-17447246D02*
X12522444Y-17399627D01*
X12522444Y-17399627D02*
X12531968Y-17371055D01*
X12531968Y-17371055D02*
X12541491Y-17352008D01*
X12541491Y-17352008D02*
X12560539Y-17323436D01*
X12560539Y-17323436D02*
X12570063Y-17313912D01*
X12674825Y-17428198D02*
X12655777Y-17418674D01*
X12655777Y-17418674D02*
X12646253Y-17409150D01*
X12646253Y-17409150D02*
X12636729Y-17390103D01*
X12636729Y-17390103D02*
X12636729Y-17380579D01*
X12636729Y-17380579D02*
X12646253Y-17361531D01*
X12646253Y-17361531D02*
X12655777Y-17352008D01*
X12655777Y-17352008D02*
X12674825Y-17342484D01*
X12674825Y-17342484D02*
X12712920Y-17342484D01*
X12712920Y-17342484D02*
X12731968Y-17352008D01*
X12731968Y-17352008D02*
X12741491Y-17361531D01*
X12741491Y-17361531D02*
X12751015Y-17380579D01*
X12751015Y-17380579D02*
X12751015Y-17390103D01*
X12751015Y-17390103D02*
X12741491Y-17409150D01*
X12741491Y-17409150D02*
X12731968Y-17418674D01*
X12731968Y-17418674D02*
X12712920Y-17428198D01*
X12712920Y-17428198D02*
X12674825Y-17428198D01*
X12674825Y-17428198D02*
X12655777Y-17437722D01*
X12655777Y-17437722D02*
X12646253Y-17447246D01*
X12646253Y-17447246D02*
X12636729Y-17466293D01*
X12636729Y-17466293D02*
X12636729Y-17504389D01*
X12636729Y-17504389D02*
X12646253Y-17523436D01*
X12646253Y-17523436D02*
X12655777Y-17532960D01*
X12655777Y-17532960D02*
X12674825Y-17542484D01*
X12674825Y-17542484D02*
X12712920Y-17542484D01*
X12712920Y-17542484D02*
X12731968Y-17532960D01*
X12731968Y-17532960D02*
X12741491Y-17523436D01*
X12741491Y-17523436D02*
X12751015Y-17504389D01*
X12751015Y-17504389D02*
X12751015Y-17466293D01*
X12751015Y-17466293D02*
X12741491Y-17447246D01*
X12741491Y-17447246D02*
X12731968Y-17437722D01*
X12731968Y-17437722D02*
X12712920Y-17428198D01*
X12989110Y-17542484D02*
X12989110Y-17342484D01*
X13074825Y-17542484D02*
X13074825Y-17437722D01*
X13074825Y-17437722D02*
X13065301Y-17418674D01*
X13065301Y-17418674D02*
X13046253Y-17409150D01*
X13046253Y-17409150D02*
X13017682Y-17409150D01*
X13017682Y-17409150D02*
X12998634Y-17418674D01*
X12998634Y-17418674D02*
X12989110Y-17428198D01*
X13198634Y-17542484D02*
X13179587Y-17532960D01*
X13179587Y-17532960D02*
X13170063Y-17523436D01*
X13170063Y-17523436D02*
X13160539Y-17504389D01*
X13160539Y-17504389D02*
X13160539Y-17447246D01*
X13160539Y-17447246D02*
X13170063Y-17428198D01*
X13170063Y-17428198D02*
X13179587Y-17418674D01*
X13179587Y-17418674D02*
X13198634Y-17409150D01*
X13198634Y-17409150D02*
X13227206Y-17409150D01*
X13227206Y-17409150D02*
X13246253Y-17418674D01*
X13246253Y-17418674D02*
X13255777Y-17428198D01*
X13255777Y-17428198D02*
X13265301Y-17447246D01*
X13265301Y-17447246D02*
X13265301Y-17504389D01*
X13265301Y-17504389D02*
X13255777Y-17523436D01*
X13255777Y-17523436D02*
X13246253Y-17532960D01*
X13246253Y-17532960D02*
X13227206Y-17542484D01*
X13227206Y-17542484D02*
X13198634Y-17542484D01*
X13379587Y-17542484D02*
X13360539Y-17532960D01*
X13360539Y-17532960D02*
X13351015Y-17513912D01*
X13351015Y-17513912D02*
X13351015Y-17342484D01*
X13531968Y-17532960D02*
X13512920Y-17542484D01*
X13512920Y-17542484D02*
X13474825Y-17542484D01*
X13474825Y-17542484D02*
X13455777Y-17532960D01*
X13455777Y-17532960D02*
X13446253Y-17513912D01*
X13446253Y-17513912D02*
X13446253Y-17437722D01*
X13446253Y-17437722D02*
X13455777Y-17418674D01*
X13455777Y-17418674D02*
X13474825Y-17409150D01*
X13474825Y-17409150D02*
X13512920Y-17409150D01*
X13512920Y-17409150D02*
X13531968Y-17418674D01*
X13531968Y-17418674D02*
X13541491Y-17437722D01*
X13541491Y-17437722D02*
X13541491Y-17456770D01*
X13541491Y-17456770D02*
X13446253Y-17475817D01*
X13617682Y-17532960D02*
X13636730Y-17542484D01*
X13636730Y-17542484D02*
X13674825Y-17542484D01*
X13674825Y-17542484D02*
X13693872Y-17532960D01*
X13693872Y-17532960D02*
X13703396Y-17513912D01*
X13703396Y-17513912D02*
X13703396Y-17504389D01*
X13703396Y-17504389D02*
X13693872Y-17485341D01*
X13693872Y-17485341D02*
X13674825Y-17475817D01*
X13674825Y-17475817D02*
X13646253Y-17475817D01*
X13646253Y-17475817D02*
X13627206Y-17466293D01*
X13627206Y-17466293D02*
X13617682Y-17447246D01*
X13617682Y-17447246D02*
X13617682Y-17437722D01*
X13617682Y-17437722D02*
X13627206Y-17418674D01*
X13627206Y-17418674D02*
X13646253Y-17409150D01*
X13646253Y-17409150D02*
X13674825Y-17409150D01*
X13674825Y-17409150D02*
X13693872Y-17418674D01*
X13770063Y-17618674D02*
X13779587Y-17609150D01*
X13779587Y-17609150D02*
X13798634Y-17580579D01*
X13798634Y-17580579D02*
X13808158Y-17561531D01*
X13808158Y-17561531D02*
X13817682Y-17532960D01*
X13817682Y-17532960D02*
X13827206Y-17485341D01*
X13827206Y-17485341D02*
X13827206Y-17447246D01*
X13827206Y-17447246D02*
X13817682Y-17399627D01*
X13817682Y-17399627D02*
X13808158Y-17371055D01*
X13808158Y-17371055D02*
X13798634Y-17352008D01*
X13798634Y-17352008D02*
X13779587Y-17323436D01*
X13779587Y-17323436D02*
X13770063Y-17313912D01*
D16*
X8885000Y-17660000D02*
X8995000Y-17770000D01*
X8995000Y-17660000D02*
X8885000Y-17770000D01*
X8995000Y-17715000D02*
G75*
G03*
X8995000Y-17715000I-55000J0D01*
G01*
D11*
X9360539Y-17806484D02*
X9246253Y-17806484D01*
X9303396Y-17806484D02*
X9303396Y-17606484D01*
X9303396Y-17606484D02*
X9284348Y-17635055D01*
X9284348Y-17635055D02*
X9265301Y-17654103D01*
X9265301Y-17654103D02*
X9246253Y-17663627D01*
X9446253Y-17787436D02*
X9455777Y-17796960D01*
X9455777Y-17796960D02*
X9446253Y-17806484D01*
X9446253Y-17806484D02*
X9436729Y-17796960D01*
X9436729Y-17796960D02*
X9446253Y-17787436D01*
X9446253Y-17787436D02*
X9446253Y-17806484D01*
X9646253Y-17806484D02*
X9531967Y-17806484D01*
X9589110Y-17806484D02*
X9589110Y-17606484D01*
X9589110Y-17606484D02*
X9570063Y-17635055D01*
X9570063Y-17635055D02*
X9551015Y-17654103D01*
X9551015Y-17654103D02*
X9531967Y-17663627D01*
X9770063Y-17606484D02*
X9789110Y-17606484D01*
X9789110Y-17606484D02*
X9808158Y-17616008D01*
X9808158Y-17616008D02*
X9817682Y-17625531D01*
X9817682Y-17625531D02*
X9827205Y-17644579D01*
X9827205Y-17644579D02*
X9836729Y-17682674D01*
X9836729Y-17682674D02*
X9836729Y-17730293D01*
X9836729Y-17730293D02*
X9827205Y-17768389D01*
X9827205Y-17768389D02*
X9817682Y-17787436D01*
X9817682Y-17787436D02*
X9808158Y-17796960D01*
X9808158Y-17796960D02*
X9789110Y-17806484D01*
X9789110Y-17806484D02*
X9770063Y-17806484D01*
X9770063Y-17806484D02*
X9751015Y-17796960D01*
X9751015Y-17796960D02*
X9741491Y-17787436D01*
X9741491Y-17787436D02*
X9731967Y-17768389D01*
X9731967Y-17768389D02*
X9722444Y-17730293D01*
X9722444Y-17730293D02*
X9722444Y-17682674D01*
X9722444Y-17682674D02*
X9731967Y-17644579D01*
X9731967Y-17644579D02*
X9741491Y-17625531D01*
X9741491Y-17625531D02*
X9751015Y-17616008D01*
X9751015Y-17616008D02*
X9770063Y-17606484D01*
X9960539Y-17606484D02*
X9979586Y-17606484D01*
X9979586Y-17606484D02*
X9998634Y-17616008D01*
X9998634Y-17616008D02*
X10008158Y-17625531D01*
X10008158Y-17625531D02*
X10017682Y-17644579D01*
X10017682Y-17644579D02*
X10027205Y-17682674D01*
X10027205Y-17682674D02*
X10027205Y-17730293D01*
X10027205Y-17730293D02*
X10017682Y-17768389D01*
X10017682Y-17768389D02*
X10008158Y-17787436D01*
X10008158Y-17787436D02*
X9998634Y-17796960D01*
X9998634Y-17796960D02*
X9979586Y-17806484D01*
X9979586Y-17806484D02*
X9960539Y-17806484D01*
X9960539Y-17806484D02*
X9941491Y-17796960D01*
X9941491Y-17796960D02*
X9931967Y-17787436D01*
X9931967Y-17787436D02*
X9922444Y-17768389D01*
X9922444Y-17768389D02*
X9912920Y-17730293D01*
X9912920Y-17730293D02*
X9912920Y-17682674D01*
X9912920Y-17682674D02*
X9922444Y-17644579D01*
X9922444Y-17644579D02*
X9931967Y-17625531D01*
X9931967Y-17625531D02*
X9941491Y-17616008D01*
X9941491Y-17616008D02*
X9960539Y-17606484D01*
X10112920Y-17806484D02*
X10112920Y-17673150D01*
X10112920Y-17692198D02*
X10122444Y-17682674D01*
X10122444Y-17682674D02*
X10141491Y-17673150D01*
X10141491Y-17673150D02*
X10170063Y-17673150D01*
X10170063Y-17673150D02*
X10189110Y-17682674D01*
X10189110Y-17682674D02*
X10198634Y-17701722D01*
X10198634Y-17701722D02*
X10198634Y-17806484D01*
X10198634Y-17701722D02*
X10208158Y-17682674D01*
X10208158Y-17682674D02*
X10227205Y-17673150D01*
X10227205Y-17673150D02*
X10255777Y-17673150D01*
X10255777Y-17673150D02*
X10274825Y-17682674D01*
X10274825Y-17682674D02*
X10284348Y-17701722D01*
X10284348Y-17701722D02*
X10284348Y-17806484D01*
X10379586Y-17806484D02*
X10379586Y-17673150D01*
X10379586Y-17692198D02*
X10389110Y-17682674D01*
X10389110Y-17682674D02*
X10408158Y-17673150D01*
X10408158Y-17673150D02*
X10436729Y-17673150D01*
X10436729Y-17673150D02*
X10455777Y-17682674D01*
X10455777Y-17682674D02*
X10465301Y-17701722D01*
X10465301Y-17701722D02*
X10465301Y-17806484D01*
X10465301Y-17701722D02*
X10474825Y-17682674D01*
X10474825Y-17682674D02*
X10493872Y-17673150D01*
X10493872Y-17673150D02*
X10522444Y-17673150D01*
X10522444Y-17673150D02*
X10541491Y-17682674D01*
X10541491Y-17682674D02*
X10551015Y-17701722D01*
X10551015Y-17701722D02*
X10551015Y-17806484D01*
X10941491Y-17596960D02*
X10770063Y-17854103D01*
X11198634Y-17606484D02*
X11217682Y-17606484D01*
X11217682Y-17606484D02*
X11236729Y-17616008D01*
X11236729Y-17616008D02*
X11246253Y-17625531D01*
X11246253Y-17625531D02*
X11255777Y-17644579D01*
X11255777Y-17644579D02*
X11265301Y-17682674D01*
X11265301Y-17682674D02*
X11265301Y-17730293D01*
X11265301Y-17730293D02*
X11255777Y-17768389D01*
X11255777Y-17768389D02*
X11246253Y-17787436D01*
X11246253Y-17787436D02*
X11236729Y-17796960D01*
X11236729Y-17796960D02*
X11217682Y-17806484D01*
X11217682Y-17806484D02*
X11198634Y-17806484D01*
X11198634Y-17806484D02*
X11179587Y-17796960D01*
X11179587Y-17796960D02*
X11170063Y-17787436D01*
X11170063Y-17787436D02*
X11160539Y-17768389D01*
X11160539Y-17768389D02*
X11151015Y-17730293D01*
X11151015Y-17730293D02*
X11151015Y-17682674D01*
X11151015Y-17682674D02*
X11160539Y-17644579D01*
X11160539Y-17644579D02*
X11170063Y-17625531D01*
X11170063Y-17625531D02*
X11179587Y-17616008D01*
X11179587Y-17616008D02*
X11198634Y-17606484D01*
X11351015Y-17787436D02*
X11360539Y-17796960D01*
X11360539Y-17796960D02*
X11351015Y-17806484D01*
X11351015Y-17806484D02*
X11341491Y-17796960D01*
X11341491Y-17796960D02*
X11351015Y-17787436D01*
X11351015Y-17787436D02*
X11351015Y-17806484D01*
X11484348Y-17606484D02*
X11503396Y-17606484D01*
X11503396Y-17606484D02*
X11522444Y-17616008D01*
X11522444Y-17616008D02*
X11531967Y-17625531D01*
X11531967Y-17625531D02*
X11541491Y-17644579D01*
X11541491Y-17644579D02*
X11551015Y-17682674D01*
X11551015Y-17682674D02*
X11551015Y-17730293D01*
X11551015Y-17730293D02*
X11541491Y-17768389D01*
X11541491Y-17768389D02*
X11531967Y-17787436D01*
X11531967Y-17787436D02*
X11522444Y-17796960D01*
X11522444Y-17796960D02*
X11503396Y-17806484D01*
X11503396Y-17806484D02*
X11484348Y-17806484D01*
X11484348Y-17806484D02*
X11465301Y-17796960D01*
X11465301Y-17796960D02*
X11455777Y-17787436D01*
X11455777Y-17787436D02*
X11446253Y-17768389D01*
X11446253Y-17768389D02*
X11436729Y-17730293D01*
X11436729Y-17730293D02*
X11436729Y-17682674D01*
X11436729Y-17682674D02*
X11446253Y-17644579D01*
X11446253Y-17644579D02*
X11455777Y-17625531D01*
X11455777Y-17625531D02*
X11465301Y-17616008D01*
X11465301Y-17616008D02*
X11484348Y-17606484D01*
X11722444Y-17673150D02*
X11722444Y-17806484D01*
X11674825Y-17596960D02*
X11627206Y-17739817D01*
X11627206Y-17739817D02*
X11751015Y-17739817D01*
X11808158Y-17606484D02*
X11931967Y-17606484D01*
X11931967Y-17606484D02*
X11865301Y-17682674D01*
X11865301Y-17682674D02*
X11893872Y-17682674D01*
X11893872Y-17682674D02*
X11912920Y-17692198D01*
X11912920Y-17692198D02*
X11922444Y-17701722D01*
X11922444Y-17701722D02*
X11931967Y-17720770D01*
X11931967Y-17720770D02*
X11931967Y-17768389D01*
X11931967Y-17768389D02*
X11922444Y-17787436D01*
X11922444Y-17787436D02*
X11912920Y-17796960D01*
X11912920Y-17796960D02*
X11893872Y-17806484D01*
X11893872Y-17806484D02*
X11836729Y-17806484D01*
X11836729Y-17806484D02*
X11817682Y-17796960D01*
X11817682Y-17796960D02*
X11808158Y-17787436D01*
X11998634Y-17606484D02*
X12122444Y-17606484D01*
X12122444Y-17606484D02*
X12055777Y-17682674D01*
X12055777Y-17682674D02*
X12084348Y-17682674D01*
X12084348Y-17682674D02*
X12103396Y-17692198D01*
X12103396Y-17692198D02*
X12112920Y-17701722D01*
X12112920Y-17701722D02*
X12122444Y-17720770D01*
X12122444Y-17720770D02*
X12122444Y-17768389D01*
X12122444Y-17768389D02*
X12112920Y-17787436D01*
X12112920Y-17787436D02*
X12103396Y-17796960D01*
X12103396Y-17796960D02*
X12084348Y-17806484D01*
X12084348Y-17806484D02*
X12027206Y-17806484D01*
X12027206Y-17806484D02*
X12008158Y-17796960D01*
X12008158Y-17796960D02*
X11998634Y-17787436D01*
X12198634Y-17606484D02*
X12198634Y-17644579D01*
X12274825Y-17606484D02*
X12274825Y-17644579D01*
X12570063Y-17882674D02*
X12560539Y-17873150D01*
X12560539Y-17873150D02*
X12541491Y-17844579D01*
X12541491Y-17844579D02*
X12531968Y-17825531D01*
X12531968Y-17825531D02*
X12522444Y-17796960D01*
X12522444Y-17796960D02*
X12512920Y-17749341D01*
X12512920Y-17749341D02*
X12512920Y-17711246D01*
X12512920Y-17711246D02*
X12522444Y-17663627D01*
X12522444Y-17663627D02*
X12531968Y-17635055D01*
X12531968Y-17635055D02*
X12541491Y-17616008D01*
X12541491Y-17616008D02*
X12560539Y-17587436D01*
X12560539Y-17587436D02*
X12570063Y-17577912D01*
X12674825Y-17692198D02*
X12655777Y-17682674D01*
X12655777Y-17682674D02*
X12646253Y-17673150D01*
X12646253Y-17673150D02*
X12636729Y-17654103D01*
X12636729Y-17654103D02*
X12636729Y-17644579D01*
X12636729Y-17644579D02*
X12646253Y-17625531D01*
X12646253Y-17625531D02*
X12655777Y-17616008D01*
X12655777Y-17616008D02*
X12674825Y-17606484D01*
X12674825Y-17606484D02*
X12712920Y-17606484D01*
X12712920Y-17606484D02*
X12731968Y-17616008D01*
X12731968Y-17616008D02*
X12741491Y-17625531D01*
X12741491Y-17625531D02*
X12751015Y-17644579D01*
X12751015Y-17644579D02*
X12751015Y-17654103D01*
X12751015Y-17654103D02*
X12741491Y-17673150D01*
X12741491Y-17673150D02*
X12731968Y-17682674D01*
X12731968Y-17682674D02*
X12712920Y-17692198D01*
X12712920Y-17692198D02*
X12674825Y-17692198D01*
X12674825Y-17692198D02*
X12655777Y-17701722D01*
X12655777Y-17701722D02*
X12646253Y-17711246D01*
X12646253Y-17711246D02*
X12636729Y-17730293D01*
X12636729Y-17730293D02*
X12636729Y-17768389D01*
X12636729Y-17768389D02*
X12646253Y-17787436D01*
X12646253Y-17787436D02*
X12655777Y-17796960D01*
X12655777Y-17796960D02*
X12674825Y-17806484D01*
X12674825Y-17806484D02*
X12712920Y-17806484D01*
X12712920Y-17806484D02*
X12731968Y-17796960D01*
X12731968Y-17796960D02*
X12741491Y-17787436D01*
X12741491Y-17787436D02*
X12751015Y-17768389D01*
X12751015Y-17768389D02*
X12751015Y-17730293D01*
X12751015Y-17730293D02*
X12741491Y-17711246D01*
X12741491Y-17711246D02*
X12731968Y-17701722D01*
X12731968Y-17701722D02*
X12712920Y-17692198D01*
X12989110Y-17806484D02*
X12989110Y-17606484D01*
X13074825Y-17806484D02*
X13074825Y-17701722D01*
X13074825Y-17701722D02*
X13065301Y-17682674D01*
X13065301Y-17682674D02*
X13046253Y-17673150D01*
X13046253Y-17673150D02*
X13017682Y-17673150D01*
X13017682Y-17673150D02*
X12998634Y-17682674D01*
X12998634Y-17682674D02*
X12989110Y-17692198D01*
X13198634Y-17806484D02*
X13179587Y-17796960D01*
X13179587Y-17796960D02*
X13170063Y-17787436D01*
X13170063Y-17787436D02*
X13160539Y-17768389D01*
X13160539Y-17768389D02*
X13160539Y-17711246D01*
X13160539Y-17711246D02*
X13170063Y-17692198D01*
X13170063Y-17692198D02*
X13179587Y-17682674D01*
X13179587Y-17682674D02*
X13198634Y-17673150D01*
X13198634Y-17673150D02*
X13227206Y-17673150D01*
X13227206Y-17673150D02*
X13246253Y-17682674D01*
X13246253Y-17682674D02*
X13255777Y-17692198D01*
X13255777Y-17692198D02*
X13265301Y-17711246D01*
X13265301Y-17711246D02*
X13265301Y-17768389D01*
X13265301Y-17768389D02*
X13255777Y-17787436D01*
X13255777Y-17787436D02*
X13246253Y-17796960D01*
X13246253Y-17796960D02*
X13227206Y-17806484D01*
X13227206Y-17806484D02*
X13198634Y-17806484D01*
X13379587Y-17806484D02*
X13360539Y-17796960D01*
X13360539Y-17796960D02*
X13351015Y-17777912D01*
X13351015Y-17777912D02*
X13351015Y-17606484D01*
X13531968Y-17796960D02*
X13512920Y-17806484D01*
X13512920Y-17806484D02*
X13474825Y-17806484D01*
X13474825Y-17806484D02*
X13455777Y-17796960D01*
X13455777Y-17796960D02*
X13446253Y-17777912D01*
X13446253Y-17777912D02*
X13446253Y-17701722D01*
X13446253Y-17701722D02*
X13455777Y-17682674D01*
X13455777Y-17682674D02*
X13474825Y-17673150D01*
X13474825Y-17673150D02*
X13512920Y-17673150D01*
X13512920Y-17673150D02*
X13531968Y-17682674D01*
X13531968Y-17682674D02*
X13541491Y-17701722D01*
X13541491Y-17701722D02*
X13541491Y-17720770D01*
X13541491Y-17720770D02*
X13446253Y-17739817D01*
X13617682Y-17796960D02*
X13636730Y-17806484D01*
X13636730Y-17806484D02*
X13674825Y-17806484D01*
X13674825Y-17806484D02*
X13693872Y-17796960D01*
X13693872Y-17796960D02*
X13703396Y-17777912D01*
X13703396Y-17777912D02*
X13703396Y-17768389D01*
X13703396Y-17768389D02*
X13693872Y-17749341D01*
X13693872Y-17749341D02*
X13674825Y-17739817D01*
X13674825Y-17739817D02*
X13646253Y-17739817D01*
X13646253Y-17739817D02*
X13627206Y-17730293D01*
X13627206Y-17730293D02*
X13617682Y-17711246D01*
X13617682Y-17711246D02*
X13617682Y-17701722D01*
X13617682Y-17701722D02*
X13627206Y-17682674D01*
X13627206Y-17682674D02*
X13646253Y-17673150D01*
X13646253Y-17673150D02*
X13674825Y-17673150D01*
X13674825Y-17673150D02*
X13693872Y-17682674D01*
X13770063Y-17882674D02*
X13779587Y-17873150D01*
X13779587Y-17873150D02*
X13798634Y-17844579D01*
X13798634Y-17844579D02*
X13808158Y-17825531D01*
X13808158Y-17825531D02*
X13817682Y-17796960D01*
X13817682Y-17796960D02*
X13827206Y-17749341D01*
X13827206Y-17749341D02*
X13827206Y-17711246D01*
X13827206Y-17711246D02*
X13817682Y-17663627D01*
X13817682Y-17663627D02*
X13808158Y-17635055D01*
X13808158Y-17635055D02*
X13798634Y-17616008D01*
X13798634Y-17616008D02*
X13779587Y-17587436D01*
X13779587Y-17587436D02*
X13770063Y-17577912D01*
M02*
