G04 #@! TF.GenerationSoftware,KiCad,Pcbnew,7.0.0*
G04 #@! TF.CreationDate,2023-02-28T23:08:10+01:00*
G04 #@! TF.ProjectId,Signal Generator,5369676e-616c-4204-9765-6e657261746f,0*
G04 #@! TF.SameCoordinates,Original*
G04 #@! TF.FileFunction,Soldermask,Bot*
G04 #@! TF.FilePolarity,Negative*
%FSLAX46Y46*%
G04 Gerber Fmt 4.6, Leading zero omitted, Abs format (unit mm)*
G04 Created by KiCad (PCBNEW 7.0.0) date 2023-02-28 23:08:10*
%MOMM*%
%LPD*%
G01*
G04 APERTURE LIST*
%ADD10R,3.330000X0.700000*%
%ADD11R,1.830000X1.140000*%
%ADD12R,2.800000X0.860000*%
%ADD13R,0.930000X0.900000*%
%ADD14R,0.780000X1.050000*%
%ADD15R,1.100000X0.700000*%
%ADD16R,1.700000X1.700000*%
%ADD17O,1.700000X1.700000*%
%ADD18C,1.524000*%
%ADD19R,2.200000X2.200000*%
%ADD20C,2.200000*%
%ADD21C,2.000000*%
%ADD22C,0.001000*%
%ADD23C,0.650000*%
%ADD24O,1.000000X2.100000*%
%ADD25O,1.000000X1.800000*%
G04 APERTURE END LIST*
D10*
X102664999Y-120699999D03*
D11*
X91414999Y-120919999D03*
D12*
X91899999Y-133579999D03*
D10*
X102664999Y-133659999D03*
D13*
X103864999Y-123009999D03*
D14*
X103939999Y-127274999D03*
D15*
X91399999Y-124799999D03*
X91399999Y-125899999D03*
X91399999Y-126999999D03*
X91399999Y-128099999D03*
X91399999Y-129199999D03*
X91399999Y-130299999D03*
X91399999Y-131399999D03*
X91399999Y-132499999D03*
D16*
X124039999Y-107499999D03*
D17*
X121499999Y-107499999D03*
X118959999Y-107499999D03*
X116419999Y-107499999D03*
D18*
X92000000Y-100250000D03*
X97000000Y-100250000D03*
X92000000Y-102250000D03*
X97000000Y-102250000D03*
X92000000Y-104250000D03*
X97000000Y-104250000D03*
D19*
X92684999Y-153799999D03*
D20*
X95225000Y-153800000D03*
X97765000Y-153800000D03*
X100305000Y-153800000D03*
D21*
X116750000Y-100250000D03*
X123250000Y-100250000D03*
X116750000Y-104750000D03*
X123250000Y-104750000D03*
D16*
X106839999Y-145959999D03*
D17*
X106839999Y-148499999D03*
X104299999Y-145959999D03*
X104299999Y-148499999D03*
D22*
X118837500Y-152400000D03*
X118837500Y-145400000D03*
D23*
X109890000Y-103380000D03*
X104110000Y-103380000D03*
D24*
X111319999Y-103879999D03*
D25*
X111319999Y-99699999D03*
D24*
X102679999Y-103879999D03*
D25*
X102679999Y-99699999D03*
M02*
