%TF.GenerationSoftware,KiCad,Pcbnew,7.0.2-6a45011f42~172~ubuntu22.04.1*%
%TF.CreationDate,2023-04-25T20:16:27+02:00*%
%TF.ProjectId,Signal Generator,5369676e-616c-4204-9765-6e657261746f,2*%
%TF.SameCoordinates,Original*%
%TF.FileFunction,Drillmap*%
%TF.FilePolarity,Positive*%
%FSLAX45Y45*%
G04 Gerber Fmt 4.5, Leading zero omitted, Abs format (unit mm)*
G04 Created by KiCad (PCBNEW 7.0.2-6a45011f42~172~ubuntu22.04.1) date 2023-04-25 20:16:27*
%MOMM*%
%LPD*%
G01*
G04 APERTURE LIST*
%ADD10C,0.100000*%
%ADD11C,0.200000*%
%ADD12C,0.065000*%
%ADD13C,0.170000*%
G04 APERTURE END LIST*
D10*
X9000000Y-9750000D02*
X12600000Y-9750000D01*
X12600000Y-15750000D01*
X9000000Y-15750000D01*
X9000000Y-9750000D01*
D11*
D12*
X10378500Y-10305500D02*
X10443500Y-10370500D01*
X10443500Y-10305500D02*
X10378500Y-10370500D01*
X10956500Y-10305500D02*
X11021500Y-10370500D01*
X11021500Y-10305500D02*
X10956500Y-10370500D01*
D13*
X11968750Y-14540000D02*
G75*
G03*
X11968750Y-14540000I-85000J0D01*
G01*
X11968750Y-15240000D02*
G75*
G03*
X11968750Y-15240000I-85000J0D01*
G01*
D11*
X9242619Y-16067524D02*
X9242619Y-15867524D01*
X9242619Y-15867524D02*
X9290238Y-15867524D01*
X9290238Y-15867524D02*
X9318810Y-15877048D01*
X9318810Y-15877048D02*
X9337857Y-15896095D01*
X9337857Y-15896095D02*
X9347381Y-15915143D01*
X9347381Y-15915143D02*
X9356905Y-15953238D01*
X9356905Y-15953238D02*
X9356905Y-15981809D01*
X9356905Y-15981809D02*
X9347381Y-16019905D01*
X9347381Y-16019905D02*
X9337857Y-16038952D01*
X9337857Y-16038952D02*
X9318810Y-16058000D01*
X9318810Y-16058000D02*
X9290238Y-16067524D01*
X9290238Y-16067524D02*
X9242619Y-16067524D01*
X9442619Y-16067524D02*
X9442619Y-15934190D01*
X9442619Y-15972286D02*
X9452143Y-15953238D01*
X9452143Y-15953238D02*
X9461667Y-15943714D01*
X9461667Y-15943714D02*
X9480714Y-15934190D01*
X9480714Y-15934190D02*
X9499762Y-15934190D01*
X9566429Y-16067524D02*
X9566429Y-15934190D01*
X9566429Y-15867524D02*
X9556905Y-15877048D01*
X9556905Y-15877048D02*
X9566429Y-15886571D01*
X9566429Y-15886571D02*
X9575952Y-15877048D01*
X9575952Y-15877048D02*
X9566429Y-15867524D01*
X9566429Y-15867524D02*
X9566429Y-15886571D01*
X9690238Y-16067524D02*
X9671190Y-16058000D01*
X9671190Y-16058000D02*
X9661667Y-16038952D01*
X9661667Y-16038952D02*
X9661667Y-15867524D01*
X9795000Y-16067524D02*
X9775952Y-16058000D01*
X9775952Y-16058000D02*
X9766429Y-16038952D01*
X9766429Y-16038952D02*
X9766429Y-15867524D01*
X10023571Y-16067524D02*
X10023571Y-15867524D01*
X10023571Y-15867524D02*
X10090238Y-16010381D01*
X10090238Y-16010381D02*
X10156905Y-15867524D01*
X10156905Y-15867524D02*
X10156905Y-16067524D01*
X10337857Y-16067524D02*
X10337857Y-15962762D01*
X10337857Y-15962762D02*
X10328333Y-15943714D01*
X10328333Y-15943714D02*
X10309286Y-15934190D01*
X10309286Y-15934190D02*
X10271190Y-15934190D01*
X10271190Y-15934190D02*
X10252143Y-15943714D01*
X10337857Y-16058000D02*
X10318810Y-16067524D01*
X10318810Y-16067524D02*
X10271190Y-16067524D01*
X10271190Y-16067524D02*
X10252143Y-16058000D01*
X10252143Y-16058000D02*
X10242619Y-16038952D01*
X10242619Y-16038952D02*
X10242619Y-16019905D01*
X10242619Y-16019905D02*
X10252143Y-16000857D01*
X10252143Y-16000857D02*
X10271190Y-15991333D01*
X10271190Y-15991333D02*
X10318810Y-15991333D01*
X10318810Y-15991333D02*
X10337857Y-15981809D01*
X10433095Y-15934190D02*
X10433095Y-16134190D01*
X10433095Y-15943714D02*
X10452143Y-15934190D01*
X10452143Y-15934190D02*
X10490238Y-15934190D01*
X10490238Y-15934190D02*
X10509286Y-15943714D01*
X10509286Y-15943714D02*
X10518810Y-15953238D01*
X10518810Y-15953238D02*
X10528333Y-15972286D01*
X10528333Y-15972286D02*
X10528333Y-16029428D01*
X10528333Y-16029428D02*
X10518810Y-16048476D01*
X10518810Y-16048476D02*
X10509286Y-16058000D01*
X10509286Y-16058000D02*
X10490238Y-16067524D01*
X10490238Y-16067524D02*
X10452143Y-16067524D01*
X10452143Y-16067524D02*
X10433095Y-16058000D01*
X10614048Y-16048476D02*
X10623571Y-16058000D01*
X10623571Y-16058000D02*
X10614048Y-16067524D01*
X10614048Y-16067524D02*
X10604524Y-16058000D01*
X10604524Y-16058000D02*
X10614048Y-16048476D01*
X10614048Y-16048476D02*
X10614048Y-16067524D01*
X10614048Y-15943714D02*
X10623571Y-15953238D01*
X10623571Y-15953238D02*
X10614048Y-15962762D01*
X10614048Y-15962762D02*
X10604524Y-15953238D01*
X10604524Y-15953238D02*
X10614048Y-15943714D01*
X10614048Y-15943714D02*
X10614048Y-15962762D01*
D12*
X8930000Y-16362500D02*
X8995000Y-16427500D01*
X8995000Y-16362500D02*
X8930000Y-16427500D01*
D11*
X9280714Y-16287524D02*
X9299762Y-16287524D01*
X9299762Y-16287524D02*
X9318810Y-16297048D01*
X9318810Y-16297048D02*
X9328333Y-16306571D01*
X9328333Y-16306571D02*
X9337857Y-16325619D01*
X9337857Y-16325619D02*
X9347381Y-16363714D01*
X9347381Y-16363714D02*
X9347381Y-16411333D01*
X9347381Y-16411333D02*
X9337857Y-16449428D01*
X9337857Y-16449428D02*
X9328333Y-16468476D01*
X9328333Y-16468476D02*
X9318810Y-16478000D01*
X9318810Y-16478000D02*
X9299762Y-16487524D01*
X9299762Y-16487524D02*
X9280714Y-16487524D01*
X9280714Y-16487524D02*
X9261667Y-16478000D01*
X9261667Y-16478000D02*
X9252143Y-16468476D01*
X9252143Y-16468476D02*
X9242619Y-16449428D01*
X9242619Y-16449428D02*
X9233095Y-16411333D01*
X9233095Y-16411333D02*
X9233095Y-16363714D01*
X9233095Y-16363714D02*
X9242619Y-16325619D01*
X9242619Y-16325619D02*
X9252143Y-16306571D01*
X9252143Y-16306571D02*
X9261667Y-16297048D01*
X9261667Y-16297048D02*
X9280714Y-16287524D01*
X9433095Y-16468476D02*
X9442619Y-16478000D01*
X9442619Y-16478000D02*
X9433095Y-16487524D01*
X9433095Y-16487524D02*
X9423571Y-16478000D01*
X9423571Y-16478000D02*
X9433095Y-16468476D01*
X9433095Y-16468476D02*
X9433095Y-16487524D01*
X9614048Y-16287524D02*
X9575952Y-16287524D01*
X9575952Y-16287524D02*
X9556905Y-16297048D01*
X9556905Y-16297048D02*
X9547381Y-16306571D01*
X9547381Y-16306571D02*
X9528333Y-16335143D01*
X9528333Y-16335143D02*
X9518810Y-16373238D01*
X9518810Y-16373238D02*
X9518810Y-16449428D01*
X9518810Y-16449428D02*
X9528333Y-16468476D01*
X9528333Y-16468476D02*
X9537857Y-16478000D01*
X9537857Y-16478000D02*
X9556905Y-16487524D01*
X9556905Y-16487524D02*
X9595000Y-16487524D01*
X9595000Y-16487524D02*
X9614048Y-16478000D01*
X9614048Y-16478000D02*
X9623571Y-16468476D01*
X9623571Y-16468476D02*
X9633095Y-16449428D01*
X9633095Y-16449428D02*
X9633095Y-16401809D01*
X9633095Y-16401809D02*
X9623571Y-16382762D01*
X9623571Y-16382762D02*
X9614048Y-16373238D01*
X9614048Y-16373238D02*
X9595000Y-16363714D01*
X9595000Y-16363714D02*
X9556905Y-16363714D01*
X9556905Y-16363714D02*
X9537857Y-16373238D01*
X9537857Y-16373238D02*
X9528333Y-16382762D01*
X9528333Y-16382762D02*
X9518810Y-16401809D01*
X9814048Y-16287524D02*
X9718810Y-16287524D01*
X9718810Y-16287524D02*
X9709286Y-16382762D01*
X9709286Y-16382762D02*
X9718810Y-16373238D01*
X9718810Y-16373238D02*
X9737857Y-16363714D01*
X9737857Y-16363714D02*
X9785476Y-16363714D01*
X9785476Y-16363714D02*
X9804524Y-16373238D01*
X9804524Y-16373238D02*
X9814048Y-16382762D01*
X9814048Y-16382762D02*
X9823571Y-16401809D01*
X9823571Y-16401809D02*
X9823571Y-16449428D01*
X9823571Y-16449428D02*
X9814048Y-16468476D01*
X9814048Y-16468476D02*
X9804524Y-16478000D01*
X9804524Y-16478000D02*
X9785476Y-16487524D01*
X9785476Y-16487524D02*
X9737857Y-16487524D01*
X9737857Y-16487524D02*
X9718810Y-16478000D01*
X9718810Y-16478000D02*
X9709286Y-16468476D01*
X9947381Y-16287524D02*
X9966429Y-16287524D01*
X9966429Y-16287524D02*
X9985476Y-16297048D01*
X9985476Y-16297048D02*
X9995000Y-16306571D01*
X9995000Y-16306571D02*
X10004524Y-16325619D01*
X10004524Y-16325619D02*
X10014048Y-16363714D01*
X10014048Y-16363714D02*
X10014048Y-16411333D01*
X10014048Y-16411333D02*
X10004524Y-16449428D01*
X10004524Y-16449428D02*
X9995000Y-16468476D01*
X9995000Y-16468476D02*
X9985476Y-16478000D01*
X9985476Y-16478000D02*
X9966429Y-16487524D01*
X9966429Y-16487524D02*
X9947381Y-16487524D01*
X9947381Y-16487524D02*
X9928333Y-16478000D01*
X9928333Y-16478000D02*
X9918810Y-16468476D01*
X9918810Y-16468476D02*
X9909286Y-16449428D01*
X9909286Y-16449428D02*
X9899762Y-16411333D01*
X9899762Y-16411333D02*
X9899762Y-16363714D01*
X9899762Y-16363714D02*
X9909286Y-16325619D01*
X9909286Y-16325619D02*
X9918810Y-16306571D01*
X9918810Y-16306571D02*
X9928333Y-16297048D01*
X9928333Y-16297048D02*
X9947381Y-16287524D01*
X10099762Y-16487524D02*
X10099762Y-16354190D01*
X10099762Y-16373238D02*
X10109286Y-16363714D01*
X10109286Y-16363714D02*
X10128333Y-16354190D01*
X10128333Y-16354190D02*
X10156905Y-16354190D01*
X10156905Y-16354190D02*
X10175952Y-16363714D01*
X10175952Y-16363714D02*
X10185476Y-16382762D01*
X10185476Y-16382762D02*
X10185476Y-16487524D01*
X10185476Y-16382762D02*
X10195000Y-16363714D01*
X10195000Y-16363714D02*
X10214048Y-16354190D01*
X10214048Y-16354190D02*
X10242619Y-16354190D01*
X10242619Y-16354190D02*
X10261667Y-16363714D01*
X10261667Y-16363714D02*
X10271191Y-16382762D01*
X10271191Y-16382762D02*
X10271191Y-16487524D01*
X10366429Y-16487524D02*
X10366429Y-16354190D01*
X10366429Y-16373238D02*
X10375952Y-16363714D01*
X10375952Y-16363714D02*
X10395000Y-16354190D01*
X10395000Y-16354190D02*
X10423572Y-16354190D01*
X10423572Y-16354190D02*
X10442619Y-16363714D01*
X10442619Y-16363714D02*
X10452143Y-16382762D01*
X10452143Y-16382762D02*
X10452143Y-16487524D01*
X10452143Y-16382762D02*
X10461667Y-16363714D01*
X10461667Y-16363714D02*
X10480714Y-16354190D01*
X10480714Y-16354190D02*
X10509286Y-16354190D01*
X10509286Y-16354190D02*
X10528333Y-16363714D01*
X10528333Y-16363714D02*
X10537857Y-16382762D01*
X10537857Y-16382762D02*
X10537857Y-16487524D01*
X10928333Y-16278000D02*
X10756905Y-16535143D01*
X11185476Y-16287524D02*
X11204524Y-16287524D01*
X11204524Y-16287524D02*
X11223572Y-16297048D01*
X11223572Y-16297048D02*
X11233095Y-16306571D01*
X11233095Y-16306571D02*
X11242619Y-16325619D01*
X11242619Y-16325619D02*
X11252143Y-16363714D01*
X11252143Y-16363714D02*
X11252143Y-16411333D01*
X11252143Y-16411333D02*
X11242619Y-16449428D01*
X11242619Y-16449428D02*
X11233095Y-16468476D01*
X11233095Y-16468476D02*
X11223572Y-16478000D01*
X11223572Y-16478000D02*
X11204524Y-16487524D01*
X11204524Y-16487524D02*
X11185476Y-16487524D01*
X11185476Y-16487524D02*
X11166429Y-16478000D01*
X11166429Y-16478000D02*
X11156905Y-16468476D01*
X11156905Y-16468476D02*
X11147381Y-16449428D01*
X11147381Y-16449428D02*
X11137857Y-16411333D01*
X11137857Y-16411333D02*
X11137857Y-16363714D01*
X11137857Y-16363714D02*
X11147381Y-16325619D01*
X11147381Y-16325619D02*
X11156905Y-16306571D01*
X11156905Y-16306571D02*
X11166429Y-16297048D01*
X11166429Y-16297048D02*
X11185476Y-16287524D01*
X11337857Y-16468476D02*
X11347381Y-16478000D01*
X11347381Y-16478000D02*
X11337857Y-16487524D01*
X11337857Y-16487524D02*
X11328333Y-16478000D01*
X11328333Y-16478000D02*
X11337857Y-16468476D01*
X11337857Y-16468476D02*
X11337857Y-16487524D01*
X11471191Y-16287524D02*
X11490238Y-16287524D01*
X11490238Y-16287524D02*
X11509286Y-16297048D01*
X11509286Y-16297048D02*
X11518810Y-16306571D01*
X11518810Y-16306571D02*
X11528333Y-16325619D01*
X11528333Y-16325619D02*
X11537857Y-16363714D01*
X11537857Y-16363714D02*
X11537857Y-16411333D01*
X11537857Y-16411333D02*
X11528333Y-16449428D01*
X11528333Y-16449428D02*
X11518810Y-16468476D01*
X11518810Y-16468476D02*
X11509286Y-16478000D01*
X11509286Y-16478000D02*
X11490238Y-16487524D01*
X11490238Y-16487524D02*
X11471191Y-16487524D01*
X11471191Y-16487524D02*
X11452143Y-16478000D01*
X11452143Y-16478000D02*
X11442619Y-16468476D01*
X11442619Y-16468476D02*
X11433095Y-16449428D01*
X11433095Y-16449428D02*
X11423572Y-16411333D01*
X11423572Y-16411333D02*
X11423572Y-16363714D01*
X11423572Y-16363714D02*
X11433095Y-16325619D01*
X11433095Y-16325619D02*
X11442619Y-16306571D01*
X11442619Y-16306571D02*
X11452143Y-16297048D01*
X11452143Y-16297048D02*
X11471191Y-16287524D01*
X11614048Y-16306571D02*
X11623572Y-16297048D01*
X11623572Y-16297048D02*
X11642619Y-16287524D01*
X11642619Y-16287524D02*
X11690238Y-16287524D01*
X11690238Y-16287524D02*
X11709286Y-16297048D01*
X11709286Y-16297048D02*
X11718810Y-16306571D01*
X11718810Y-16306571D02*
X11728333Y-16325619D01*
X11728333Y-16325619D02*
X11728333Y-16344667D01*
X11728333Y-16344667D02*
X11718810Y-16373238D01*
X11718810Y-16373238D02*
X11604524Y-16487524D01*
X11604524Y-16487524D02*
X11728333Y-16487524D01*
X11909286Y-16287524D02*
X11814048Y-16287524D01*
X11814048Y-16287524D02*
X11804524Y-16382762D01*
X11804524Y-16382762D02*
X11814048Y-16373238D01*
X11814048Y-16373238D02*
X11833095Y-16363714D01*
X11833095Y-16363714D02*
X11880714Y-16363714D01*
X11880714Y-16363714D02*
X11899762Y-16373238D01*
X11899762Y-16373238D02*
X11909286Y-16382762D01*
X11909286Y-16382762D02*
X11918810Y-16401809D01*
X11918810Y-16401809D02*
X11918810Y-16449428D01*
X11918810Y-16449428D02*
X11909286Y-16468476D01*
X11909286Y-16468476D02*
X11899762Y-16478000D01*
X11899762Y-16478000D02*
X11880714Y-16487524D01*
X11880714Y-16487524D02*
X11833095Y-16487524D01*
X11833095Y-16487524D02*
X11814048Y-16478000D01*
X11814048Y-16478000D02*
X11804524Y-16468476D01*
X12090238Y-16287524D02*
X12052143Y-16287524D01*
X12052143Y-16287524D02*
X12033095Y-16297048D01*
X12033095Y-16297048D02*
X12023572Y-16306571D01*
X12023572Y-16306571D02*
X12004524Y-16335143D01*
X12004524Y-16335143D02*
X11995000Y-16373238D01*
X11995000Y-16373238D02*
X11995000Y-16449428D01*
X11995000Y-16449428D02*
X12004524Y-16468476D01*
X12004524Y-16468476D02*
X12014048Y-16478000D01*
X12014048Y-16478000D02*
X12033095Y-16487524D01*
X12033095Y-16487524D02*
X12071191Y-16487524D01*
X12071191Y-16487524D02*
X12090238Y-16478000D01*
X12090238Y-16478000D02*
X12099762Y-16468476D01*
X12099762Y-16468476D02*
X12109286Y-16449428D01*
X12109286Y-16449428D02*
X12109286Y-16401809D01*
X12109286Y-16401809D02*
X12099762Y-16382762D01*
X12099762Y-16382762D02*
X12090238Y-16373238D01*
X12090238Y-16373238D02*
X12071191Y-16363714D01*
X12071191Y-16363714D02*
X12033095Y-16363714D01*
X12033095Y-16363714D02*
X12014048Y-16373238D01*
X12014048Y-16373238D02*
X12004524Y-16382762D01*
X12004524Y-16382762D02*
X11995000Y-16401809D01*
X12185476Y-16287524D02*
X12185476Y-16325619D01*
X12261667Y-16287524D02*
X12261667Y-16325619D01*
X12556905Y-16563714D02*
X12547381Y-16554190D01*
X12547381Y-16554190D02*
X12528334Y-16525619D01*
X12528334Y-16525619D02*
X12518810Y-16506571D01*
X12518810Y-16506571D02*
X12509286Y-16478000D01*
X12509286Y-16478000D02*
X12499762Y-16430381D01*
X12499762Y-16430381D02*
X12499762Y-16392286D01*
X12499762Y-16392286D02*
X12509286Y-16344667D01*
X12509286Y-16344667D02*
X12518810Y-16316095D01*
X12518810Y-16316095D02*
X12528334Y-16297048D01*
X12528334Y-16297048D02*
X12547381Y-16268476D01*
X12547381Y-16268476D02*
X12556905Y-16258952D01*
X12623572Y-16306571D02*
X12633095Y-16297048D01*
X12633095Y-16297048D02*
X12652143Y-16287524D01*
X12652143Y-16287524D02*
X12699762Y-16287524D01*
X12699762Y-16287524D02*
X12718810Y-16297048D01*
X12718810Y-16297048D02*
X12728334Y-16306571D01*
X12728334Y-16306571D02*
X12737857Y-16325619D01*
X12737857Y-16325619D02*
X12737857Y-16344667D01*
X12737857Y-16344667D02*
X12728334Y-16373238D01*
X12728334Y-16373238D02*
X12614048Y-16487524D01*
X12614048Y-16487524D02*
X12737857Y-16487524D01*
X12975953Y-16487524D02*
X12975953Y-16287524D01*
X13061667Y-16487524D02*
X13061667Y-16382762D01*
X13061667Y-16382762D02*
X13052143Y-16363714D01*
X13052143Y-16363714D02*
X13033096Y-16354190D01*
X13033096Y-16354190D02*
X13004524Y-16354190D01*
X13004524Y-16354190D02*
X12985476Y-16363714D01*
X12985476Y-16363714D02*
X12975953Y-16373238D01*
X13185476Y-16487524D02*
X13166429Y-16478000D01*
X13166429Y-16478000D02*
X13156905Y-16468476D01*
X13156905Y-16468476D02*
X13147381Y-16449428D01*
X13147381Y-16449428D02*
X13147381Y-16392286D01*
X13147381Y-16392286D02*
X13156905Y-16373238D01*
X13156905Y-16373238D02*
X13166429Y-16363714D01*
X13166429Y-16363714D02*
X13185476Y-16354190D01*
X13185476Y-16354190D02*
X13214048Y-16354190D01*
X13214048Y-16354190D02*
X13233096Y-16363714D01*
X13233096Y-16363714D02*
X13242619Y-16373238D01*
X13242619Y-16373238D02*
X13252143Y-16392286D01*
X13252143Y-16392286D02*
X13252143Y-16449428D01*
X13252143Y-16449428D02*
X13242619Y-16468476D01*
X13242619Y-16468476D02*
X13233096Y-16478000D01*
X13233096Y-16478000D02*
X13214048Y-16487524D01*
X13214048Y-16487524D02*
X13185476Y-16487524D01*
X13366429Y-16487524D02*
X13347381Y-16478000D01*
X13347381Y-16478000D02*
X13337857Y-16458952D01*
X13337857Y-16458952D02*
X13337857Y-16287524D01*
X13518810Y-16478000D02*
X13499762Y-16487524D01*
X13499762Y-16487524D02*
X13461667Y-16487524D01*
X13461667Y-16487524D02*
X13442619Y-16478000D01*
X13442619Y-16478000D02*
X13433096Y-16458952D01*
X13433096Y-16458952D02*
X13433096Y-16382762D01*
X13433096Y-16382762D02*
X13442619Y-16363714D01*
X13442619Y-16363714D02*
X13461667Y-16354190D01*
X13461667Y-16354190D02*
X13499762Y-16354190D01*
X13499762Y-16354190D02*
X13518810Y-16363714D01*
X13518810Y-16363714D02*
X13528334Y-16382762D01*
X13528334Y-16382762D02*
X13528334Y-16401809D01*
X13528334Y-16401809D02*
X13433096Y-16420857D01*
X13604524Y-16478000D02*
X13623572Y-16487524D01*
X13623572Y-16487524D02*
X13661667Y-16487524D01*
X13661667Y-16487524D02*
X13680715Y-16478000D01*
X13680715Y-16478000D02*
X13690238Y-16458952D01*
X13690238Y-16458952D02*
X13690238Y-16449428D01*
X13690238Y-16449428D02*
X13680715Y-16430381D01*
X13680715Y-16430381D02*
X13661667Y-16420857D01*
X13661667Y-16420857D02*
X13633096Y-16420857D01*
X13633096Y-16420857D02*
X13614048Y-16411333D01*
X13614048Y-16411333D02*
X13604524Y-16392286D01*
X13604524Y-16392286D02*
X13604524Y-16382762D01*
X13604524Y-16382762D02*
X13614048Y-16363714D01*
X13614048Y-16363714D02*
X13633096Y-16354190D01*
X13633096Y-16354190D02*
X13661667Y-16354190D01*
X13661667Y-16354190D02*
X13680715Y-16363714D01*
X13756905Y-16563714D02*
X13766429Y-16554190D01*
X13766429Y-16554190D02*
X13785477Y-16525619D01*
X13785477Y-16525619D02*
X13795000Y-16506571D01*
X13795000Y-16506571D02*
X13804524Y-16478000D01*
X13804524Y-16478000D02*
X13814048Y-16430381D01*
X13814048Y-16430381D02*
X13814048Y-16392286D01*
X13814048Y-16392286D02*
X13804524Y-16344667D01*
X13804524Y-16344667D02*
X13795000Y-16316095D01*
X13795000Y-16316095D02*
X13785477Y-16297048D01*
X13785477Y-16297048D02*
X13766429Y-16268476D01*
X13766429Y-16268476D02*
X13756905Y-16258952D01*
X14118810Y-16563714D02*
X14109286Y-16554190D01*
X14109286Y-16554190D02*
X14090238Y-16525619D01*
X14090238Y-16525619D02*
X14080715Y-16506571D01*
X14080715Y-16506571D02*
X14071191Y-16478000D01*
X14071191Y-16478000D02*
X14061667Y-16430381D01*
X14061667Y-16430381D02*
X14061667Y-16392286D01*
X14061667Y-16392286D02*
X14071191Y-16344667D01*
X14071191Y-16344667D02*
X14080715Y-16316095D01*
X14080715Y-16316095D02*
X14090238Y-16297048D01*
X14090238Y-16297048D02*
X14109286Y-16268476D01*
X14109286Y-16268476D02*
X14118810Y-16258952D01*
X14195000Y-16354190D02*
X14195000Y-16487524D01*
X14195000Y-16373238D02*
X14204524Y-16363714D01*
X14204524Y-16363714D02*
X14223572Y-16354190D01*
X14223572Y-16354190D02*
X14252143Y-16354190D01*
X14252143Y-16354190D02*
X14271191Y-16363714D01*
X14271191Y-16363714D02*
X14280715Y-16382762D01*
X14280715Y-16382762D02*
X14280715Y-16487524D01*
X14404524Y-16487524D02*
X14385477Y-16478000D01*
X14385477Y-16478000D02*
X14375953Y-16468476D01*
X14375953Y-16468476D02*
X14366429Y-16449428D01*
X14366429Y-16449428D02*
X14366429Y-16392286D01*
X14366429Y-16392286D02*
X14375953Y-16373238D01*
X14375953Y-16373238D02*
X14385477Y-16363714D01*
X14385477Y-16363714D02*
X14404524Y-16354190D01*
X14404524Y-16354190D02*
X14433096Y-16354190D01*
X14433096Y-16354190D02*
X14452143Y-16363714D01*
X14452143Y-16363714D02*
X14461667Y-16373238D01*
X14461667Y-16373238D02*
X14471191Y-16392286D01*
X14471191Y-16392286D02*
X14471191Y-16449428D01*
X14471191Y-16449428D02*
X14461667Y-16468476D01*
X14461667Y-16468476D02*
X14452143Y-16478000D01*
X14452143Y-16478000D02*
X14433096Y-16487524D01*
X14433096Y-16487524D02*
X14404524Y-16487524D01*
X14528334Y-16354190D02*
X14604524Y-16354190D01*
X14556905Y-16287524D02*
X14556905Y-16458952D01*
X14556905Y-16458952D02*
X14566429Y-16478000D01*
X14566429Y-16478000D02*
X14585477Y-16487524D01*
X14585477Y-16487524D02*
X14604524Y-16487524D01*
X14823572Y-16354190D02*
X14823572Y-16554190D01*
X14823572Y-16363714D02*
X14842619Y-16354190D01*
X14842619Y-16354190D02*
X14880715Y-16354190D01*
X14880715Y-16354190D02*
X14899762Y-16363714D01*
X14899762Y-16363714D02*
X14909286Y-16373238D01*
X14909286Y-16373238D02*
X14918810Y-16392286D01*
X14918810Y-16392286D02*
X14918810Y-16449428D01*
X14918810Y-16449428D02*
X14909286Y-16468476D01*
X14909286Y-16468476D02*
X14899762Y-16478000D01*
X14899762Y-16478000D02*
X14880715Y-16487524D01*
X14880715Y-16487524D02*
X14842619Y-16487524D01*
X14842619Y-16487524D02*
X14823572Y-16478000D01*
X15033096Y-16487524D02*
X15014048Y-16478000D01*
X15014048Y-16478000D02*
X15004524Y-16458952D01*
X15004524Y-16458952D02*
X15004524Y-16287524D01*
X15195000Y-16487524D02*
X15195000Y-16382762D01*
X15195000Y-16382762D02*
X15185477Y-16363714D01*
X15185477Y-16363714D02*
X15166429Y-16354190D01*
X15166429Y-16354190D02*
X15128334Y-16354190D01*
X15128334Y-16354190D02*
X15109286Y-16363714D01*
X15195000Y-16478000D02*
X15175953Y-16487524D01*
X15175953Y-16487524D02*
X15128334Y-16487524D01*
X15128334Y-16487524D02*
X15109286Y-16478000D01*
X15109286Y-16478000D02*
X15099762Y-16458952D01*
X15099762Y-16458952D02*
X15099762Y-16439905D01*
X15099762Y-16439905D02*
X15109286Y-16420857D01*
X15109286Y-16420857D02*
X15128334Y-16411333D01*
X15128334Y-16411333D02*
X15175953Y-16411333D01*
X15175953Y-16411333D02*
X15195000Y-16401809D01*
X15261667Y-16354190D02*
X15337858Y-16354190D01*
X15290239Y-16287524D02*
X15290239Y-16458952D01*
X15290239Y-16458952D02*
X15299762Y-16478000D01*
X15299762Y-16478000D02*
X15318810Y-16487524D01*
X15318810Y-16487524D02*
X15337858Y-16487524D01*
X15480715Y-16478000D02*
X15461667Y-16487524D01*
X15461667Y-16487524D02*
X15423572Y-16487524D01*
X15423572Y-16487524D02*
X15404524Y-16478000D01*
X15404524Y-16478000D02*
X15395000Y-16458952D01*
X15395000Y-16458952D02*
X15395000Y-16382762D01*
X15395000Y-16382762D02*
X15404524Y-16363714D01*
X15404524Y-16363714D02*
X15423572Y-16354190D01*
X15423572Y-16354190D02*
X15461667Y-16354190D01*
X15461667Y-16354190D02*
X15480715Y-16363714D01*
X15480715Y-16363714D02*
X15490239Y-16382762D01*
X15490239Y-16382762D02*
X15490239Y-16401809D01*
X15490239Y-16401809D02*
X15395000Y-16420857D01*
X15661667Y-16487524D02*
X15661667Y-16287524D01*
X15661667Y-16478000D02*
X15642620Y-16487524D01*
X15642620Y-16487524D02*
X15604524Y-16487524D01*
X15604524Y-16487524D02*
X15585477Y-16478000D01*
X15585477Y-16478000D02*
X15575953Y-16468476D01*
X15575953Y-16468476D02*
X15566429Y-16449428D01*
X15566429Y-16449428D02*
X15566429Y-16392286D01*
X15566429Y-16392286D02*
X15575953Y-16373238D01*
X15575953Y-16373238D02*
X15585477Y-16363714D01*
X15585477Y-16363714D02*
X15604524Y-16354190D01*
X15604524Y-16354190D02*
X15642620Y-16354190D01*
X15642620Y-16354190D02*
X15661667Y-16363714D01*
X15737858Y-16563714D02*
X15747381Y-16554190D01*
X15747381Y-16554190D02*
X15766429Y-16525619D01*
X15766429Y-16525619D02*
X15775953Y-16506571D01*
X15775953Y-16506571D02*
X15785477Y-16478000D01*
X15785477Y-16478000D02*
X15795000Y-16430381D01*
X15795000Y-16430381D02*
X15795000Y-16392286D01*
X15795000Y-16392286D02*
X15785477Y-16344667D01*
X15785477Y-16344667D02*
X15775953Y-16316095D01*
X15775953Y-16316095D02*
X15766429Y-16297048D01*
X15766429Y-16297048D02*
X15747381Y-16268476D01*
X15747381Y-16268476D02*
X15737858Y-16258952D01*
D13*
X8995000Y-16659000D02*
G75*
G03*
X8995000Y-16659000I-85000J0D01*
G01*
D11*
X9347381Y-16751524D02*
X9233095Y-16751524D01*
X9290238Y-16751524D02*
X9290238Y-16551524D01*
X9290238Y-16551524D02*
X9271190Y-16580095D01*
X9271190Y-16580095D02*
X9252143Y-16599143D01*
X9252143Y-16599143D02*
X9233095Y-16608667D01*
X9433095Y-16732476D02*
X9442619Y-16742000D01*
X9442619Y-16742000D02*
X9433095Y-16751524D01*
X9433095Y-16751524D02*
X9423571Y-16742000D01*
X9423571Y-16742000D02*
X9433095Y-16732476D01*
X9433095Y-16732476D02*
X9433095Y-16751524D01*
X9509286Y-16551524D02*
X9642619Y-16551524D01*
X9642619Y-16551524D02*
X9556905Y-16751524D01*
X9756905Y-16551524D02*
X9775952Y-16551524D01*
X9775952Y-16551524D02*
X9795000Y-16561048D01*
X9795000Y-16561048D02*
X9804524Y-16570571D01*
X9804524Y-16570571D02*
X9814048Y-16589619D01*
X9814048Y-16589619D02*
X9823571Y-16627714D01*
X9823571Y-16627714D02*
X9823571Y-16675333D01*
X9823571Y-16675333D02*
X9814048Y-16713428D01*
X9814048Y-16713428D02*
X9804524Y-16732476D01*
X9804524Y-16732476D02*
X9795000Y-16742000D01*
X9795000Y-16742000D02*
X9775952Y-16751524D01*
X9775952Y-16751524D02*
X9756905Y-16751524D01*
X9756905Y-16751524D02*
X9737857Y-16742000D01*
X9737857Y-16742000D02*
X9728333Y-16732476D01*
X9728333Y-16732476D02*
X9718810Y-16713428D01*
X9718810Y-16713428D02*
X9709286Y-16675333D01*
X9709286Y-16675333D02*
X9709286Y-16627714D01*
X9709286Y-16627714D02*
X9718810Y-16589619D01*
X9718810Y-16589619D02*
X9728333Y-16570571D01*
X9728333Y-16570571D02*
X9737857Y-16561048D01*
X9737857Y-16561048D02*
X9756905Y-16551524D01*
X9947381Y-16551524D02*
X9966429Y-16551524D01*
X9966429Y-16551524D02*
X9985476Y-16561048D01*
X9985476Y-16561048D02*
X9995000Y-16570571D01*
X9995000Y-16570571D02*
X10004524Y-16589619D01*
X10004524Y-16589619D02*
X10014048Y-16627714D01*
X10014048Y-16627714D02*
X10014048Y-16675333D01*
X10014048Y-16675333D02*
X10004524Y-16713428D01*
X10004524Y-16713428D02*
X9995000Y-16732476D01*
X9995000Y-16732476D02*
X9985476Y-16742000D01*
X9985476Y-16742000D02*
X9966429Y-16751524D01*
X9966429Y-16751524D02*
X9947381Y-16751524D01*
X9947381Y-16751524D02*
X9928333Y-16742000D01*
X9928333Y-16742000D02*
X9918810Y-16732476D01*
X9918810Y-16732476D02*
X9909286Y-16713428D01*
X9909286Y-16713428D02*
X9899762Y-16675333D01*
X9899762Y-16675333D02*
X9899762Y-16627714D01*
X9899762Y-16627714D02*
X9909286Y-16589619D01*
X9909286Y-16589619D02*
X9918810Y-16570571D01*
X9918810Y-16570571D02*
X9928333Y-16561048D01*
X9928333Y-16561048D02*
X9947381Y-16551524D01*
X10099762Y-16751524D02*
X10099762Y-16618190D01*
X10099762Y-16637238D02*
X10109286Y-16627714D01*
X10109286Y-16627714D02*
X10128333Y-16618190D01*
X10128333Y-16618190D02*
X10156905Y-16618190D01*
X10156905Y-16618190D02*
X10175952Y-16627714D01*
X10175952Y-16627714D02*
X10185476Y-16646762D01*
X10185476Y-16646762D02*
X10185476Y-16751524D01*
X10185476Y-16646762D02*
X10195000Y-16627714D01*
X10195000Y-16627714D02*
X10214048Y-16618190D01*
X10214048Y-16618190D02*
X10242619Y-16618190D01*
X10242619Y-16618190D02*
X10261667Y-16627714D01*
X10261667Y-16627714D02*
X10271191Y-16646762D01*
X10271191Y-16646762D02*
X10271191Y-16751524D01*
X10366429Y-16751524D02*
X10366429Y-16618190D01*
X10366429Y-16637238D02*
X10375952Y-16627714D01*
X10375952Y-16627714D02*
X10395000Y-16618190D01*
X10395000Y-16618190D02*
X10423572Y-16618190D01*
X10423572Y-16618190D02*
X10442619Y-16627714D01*
X10442619Y-16627714D02*
X10452143Y-16646762D01*
X10452143Y-16646762D02*
X10452143Y-16751524D01*
X10452143Y-16646762D02*
X10461667Y-16627714D01*
X10461667Y-16627714D02*
X10480714Y-16618190D01*
X10480714Y-16618190D02*
X10509286Y-16618190D01*
X10509286Y-16618190D02*
X10528333Y-16627714D01*
X10528333Y-16627714D02*
X10537857Y-16646762D01*
X10537857Y-16646762D02*
X10537857Y-16751524D01*
X10928333Y-16542000D02*
X10756905Y-16799143D01*
X11185476Y-16551524D02*
X11204524Y-16551524D01*
X11204524Y-16551524D02*
X11223572Y-16561048D01*
X11223572Y-16561048D02*
X11233095Y-16570571D01*
X11233095Y-16570571D02*
X11242619Y-16589619D01*
X11242619Y-16589619D02*
X11252143Y-16627714D01*
X11252143Y-16627714D02*
X11252143Y-16675333D01*
X11252143Y-16675333D02*
X11242619Y-16713428D01*
X11242619Y-16713428D02*
X11233095Y-16732476D01*
X11233095Y-16732476D02*
X11223572Y-16742000D01*
X11223572Y-16742000D02*
X11204524Y-16751524D01*
X11204524Y-16751524D02*
X11185476Y-16751524D01*
X11185476Y-16751524D02*
X11166429Y-16742000D01*
X11166429Y-16742000D02*
X11156905Y-16732476D01*
X11156905Y-16732476D02*
X11147381Y-16713428D01*
X11147381Y-16713428D02*
X11137857Y-16675333D01*
X11137857Y-16675333D02*
X11137857Y-16627714D01*
X11137857Y-16627714D02*
X11147381Y-16589619D01*
X11147381Y-16589619D02*
X11156905Y-16570571D01*
X11156905Y-16570571D02*
X11166429Y-16561048D01*
X11166429Y-16561048D02*
X11185476Y-16551524D01*
X11337857Y-16732476D02*
X11347381Y-16742000D01*
X11347381Y-16742000D02*
X11337857Y-16751524D01*
X11337857Y-16751524D02*
X11328333Y-16742000D01*
X11328333Y-16742000D02*
X11337857Y-16732476D01*
X11337857Y-16732476D02*
X11337857Y-16751524D01*
X11471191Y-16551524D02*
X11490238Y-16551524D01*
X11490238Y-16551524D02*
X11509286Y-16561048D01*
X11509286Y-16561048D02*
X11518810Y-16570571D01*
X11518810Y-16570571D02*
X11528333Y-16589619D01*
X11528333Y-16589619D02*
X11537857Y-16627714D01*
X11537857Y-16627714D02*
X11537857Y-16675333D01*
X11537857Y-16675333D02*
X11528333Y-16713428D01*
X11528333Y-16713428D02*
X11518810Y-16732476D01*
X11518810Y-16732476D02*
X11509286Y-16742000D01*
X11509286Y-16742000D02*
X11490238Y-16751524D01*
X11490238Y-16751524D02*
X11471191Y-16751524D01*
X11471191Y-16751524D02*
X11452143Y-16742000D01*
X11452143Y-16742000D02*
X11442619Y-16732476D01*
X11442619Y-16732476D02*
X11433095Y-16713428D01*
X11433095Y-16713428D02*
X11423572Y-16675333D01*
X11423572Y-16675333D02*
X11423572Y-16627714D01*
X11423572Y-16627714D02*
X11433095Y-16589619D01*
X11433095Y-16589619D02*
X11442619Y-16570571D01*
X11442619Y-16570571D02*
X11452143Y-16561048D01*
X11452143Y-16561048D02*
X11471191Y-16551524D01*
X11709286Y-16551524D02*
X11671191Y-16551524D01*
X11671191Y-16551524D02*
X11652143Y-16561048D01*
X11652143Y-16561048D02*
X11642619Y-16570571D01*
X11642619Y-16570571D02*
X11623572Y-16599143D01*
X11623572Y-16599143D02*
X11614048Y-16637238D01*
X11614048Y-16637238D02*
X11614048Y-16713428D01*
X11614048Y-16713428D02*
X11623572Y-16732476D01*
X11623572Y-16732476D02*
X11633095Y-16742000D01*
X11633095Y-16742000D02*
X11652143Y-16751524D01*
X11652143Y-16751524D02*
X11690238Y-16751524D01*
X11690238Y-16751524D02*
X11709286Y-16742000D01*
X11709286Y-16742000D02*
X11718810Y-16732476D01*
X11718810Y-16732476D02*
X11728333Y-16713428D01*
X11728333Y-16713428D02*
X11728333Y-16665809D01*
X11728333Y-16665809D02*
X11718810Y-16646762D01*
X11718810Y-16646762D02*
X11709286Y-16637238D01*
X11709286Y-16637238D02*
X11690238Y-16627714D01*
X11690238Y-16627714D02*
X11652143Y-16627714D01*
X11652143Y-16627714D02*
X11633095Y-16637238D01*
X11633095Y-16637238D02*
X11623572Y-16646762D01*
X11623572Y-16646762D02*
X11614048Y-16665809D01*
X11899762Y-16551524D02*
X11861667Y-16551524D01*
X11861667Y-16551524D02*
X11842619Y-16561048D01*
X11842619Y-16561048D02*
X11833095Y-16570571D01*
X11833095Y-16570571D02*
X11814048Y-16599143D01*
X11814048Y-16599143D02*
X11804524Y-16637238D01*
X11804524Y-16637238D02*
X11804524Y-16713428D01*
X11804524Y-16713428D02*
X11814048Y-16732476D01*
X11814048Y-16732476D02*
X11823572Y-16742000D01*
X11823572Y-16742000D02*
X11842619Y-16751524D01*
X11842619Y-16751524D02*
X11880714Y-16751524D01*
X11880714Y-16751524D02*
X11899762Y-16742000D01*
X11899762Y-16742000D02*
X11909286Y-16732476D01*
X11909286Y-16732476D02*
X11918810Y-16713428D01*
X11918810Y-16713428D02*
X11918810Y-16665809D01*
X11918810Y-16665809D02*
X11909286Y-16646762D01*
X11909286Y-16646762D02*
X11899762Y-16637238D01*
X11899762Y-16637238D02*
X11880714Y-16627714D01*
X11880714Y-16627714D02*
X11842619Y-16627714D01*
X11842619Y-16627714D02*
X11823572Y-16637238D01*
X11823572Y-16637238D02*
X11814048Y-16646762D01*
X11814048Y-16646762D02*
X11804524Y-16665809D01*
X12014048Y-16751524D02*
X12052143Y-16751524D01*
X12052143Y-16751524D02*
X12071191Y-16742000D01*
X12071191Y-16742000D02*
X12080714Y-16732476D01*
X12080714Y-16732476D02*
X12099762Y-16703905D01*
X12099762Y-16703905D02*
X12109286Y-16665809D01*
X12109286Y-16665809D02*
X12109286Y-16589619D01*
X12109286Y-16589619D02*
X12099762Y-16570571D01*
X12099762Y-16570571D02*
X12090238Y-16561048D01*
X12090238Y-16561048D02*
X12071191Y-16551524D01*
X12071191Y-16551524D02*
X12033095Y-16551524D01*
X12033095Y-16551524D02*
X12014048Y-16561048D01*
X12014048Y-16561048D02*
X12004524Y-16570571D01*
X12004524Y-16570571D02*
X11995000Y-16589619D01*
X11995000Y-16589619D02*
X11995000Y-16637238D01*
X11995000Y-16637238D02*
X12004524Y-16656286D01*
X12004524Y-16656286D02*
X12014048Y-16665809D01*
X12014048Y-16665809D02*
X12033095Y-16675333D01*
X12033095Y-16675333D02*
X12071191Y-16675333D01*
X12071191Y-16675333D02*
X12090238Y-16665809D01*
X12090238Y-16665809D02*
X12099762Y-16656286D01*
X12099762Y-16656286D02*
X12109286Y-16637238D01*
X12185476Y-16551524D02*
X12185476Y-16589619D01*
X12261667Y-16551524D02*
X12261667Y-16589619D01*
X12556905Y-16827714D02*
X12547381Y-16818190D01*
X12547381Y-16818190D02*
X12528334Y-16789619D01*
X12528334Y-16789619D02*
X12518810Y-16770571D01*
X12518810Y-16770571D02*
X12509286Y-16742000D01*
X12509286Y-16742000D02*
X12499762Y-16694381D01*
X12499762Y-16694381D02*
X12499762Y-16656286D01*
X12499762Y-16656286D02*
X12509286Y-16608667D01*
X12509286Y-16608667D02*
X12518810Y-16580095D01*
X12518810Y-16580095D02*
X12528334Y-16561048D01*
X12528334Y-16561048D02*
X12547381Y-16532476D01*
X12547381Y-16532476D02*
X12556905Y-16522952D01*
X12623572Y-16570571D02*
X12633095Y-16561048D01*
X12633095Y-16561048D02*
X12652143Y-16551524D01*
X12652143Y-16551524D02*
X12699762Y-16551524D01*
X12699762Y-16551524D02*
X12718810Y-16561048D01*
X12718810Y-16561048D02*
X12728334Y-16570571D01*
X12728334Y-16570571D02*
X12737857Y-16589619D01*
X12737857Y-16589619D02*
X12737857Y-16608667D01*
X12737857Y-16608667D02*
X12728334Y-16637238D01*
X12728334Y-16637238D02*
X12614048Y-16751524D01*
X12614048Y-16751524D02*
X12737857Y-16751524D01*
X12975953Y-16751524D02*
X12975953Y-16551524D01*
X13061667Y-16751524D02*
X13061667Y-16646762D01*
X13061667Y-16646762D02*
X13052143Y-16627714D01*
X13052143Y-16627714D02*
X13033096Y-16618190D01*
X13033096Y-16618190D02*
X13004524Y-16618190D01*
X13004524Y-16618190D02*
X12985476Y-16627714D01*
X12985476Y-16627714D02*
X12975953Y-16637238D01*
X13185476Y-16751524D02*
X13166429Y-16742000D01*
X13166429Y-16742000D02*
X13156905Y-16732476D01*
X13156905Y-16732476D02*
X13147381Y-16713428D01*
X13147381Y-16713428D02*
X13147381Y-16656286D01*
X13147381Y-16656286D02*
X13156905Y-16637238D01*
X13156905Y-16637238D02*
X13166429Y-16627714D01*
X13166429Y-16627714D02*
X13185476Y-16618190D01*
X13185476Y-16618190D02*
X13214048Y-16618190D01*
X13214048Y-16618190D02*
X13233096Y-16627714D01*
X13233096Y-16627714D02*
X13242619Y-16637238D01*
X13242619Y-16637238D02*
X13252143Y-16656286D01*
X13252143Y-16656286D02*
X13252143Y-16713428D01*
X13252143Y-16713428D02*
X13242619Y-16732476D01*
X13242619Y-16732476D02*
X13233096Y-16742000D01*
X13233096Y-16742000D02*
X13214048Y-16751524D01*
X13214048Y-16751524D02*
X13185476Y-16751524D01*
X13366429Y-16751524D02*
X13347381Y-16742000D01*
X13347381Y-16742000D02*
X13337857Y-16722952D01*
X13337857Y-16722952D02*
X13337857Y-16551524D01*
X13518810Y-16742000D02*
X13499762Y-16751524D01*
X13499762Y-16751524D02*
X13461667Y-16751524D01*
X13461667Y-16751524D02*
X13442619Y-16742000D01*
X13442619Y-16742000D02*
X13433096Y-16722952D01*
X13433096Y-16722952D02*
X13433096Y-16646762D01*
X13433096Y-16646762D02*
X13442619Y-16627714D01*
X13442619Y-16627714D02*
X13461667Y-16618190D01*
X13461667Y-16618190D02*
X13499762Y-16618190D01*
X13499762Y-16618190D02*
X13518810Y-16627714D01*
X13518810Y-16627714D02*
X13528334Y-16646762D01*
X13528334Y-16646762D02*
X13528334Y-16665809D01*
X13528334Y-16665809D02*
X13433096Y-16684857D01*
X13604524Y-16742000D02*
X13623572Y-16751524D01*
X13623572Y-16751524D02*
X13661667Y-16751524D01*
X13661667Y-16751524D02*
X13680715Y-16742000D01*
X13680715Y-16742000D02*
X13690238Y-16722952D01*
X13690238Y-16722952D02*
X13690238Y-16713428D01*
X13690238Y-16713428D02*
X13680715Y-16694381D01*
X13680715Y-16694381D02*
X13661667Y-16684857D01*
X13661667Y-16684857D02*
X13633096Y-16684857D01*
X13633096Y-16684857D02*
X13614048Y-16675333D01*
X13614048Y-16675333D02*
X13604524Y-16656286D01*
X13604524Y-16656286D02*
X13604524Y-16646762D01*
X13604524Y-16646762D02*
X13614048Y-16627714D01*
X13614048Y-16627714D02*
X13633096Y-16618190D01*
X13633096Y-16618190D02*
X13661667Y-16618190D01*
X13661667Y-16618190D02*
X13680715Y-16627714D01*
X13756905Y-16827714D02*
X13766429Y-16818190D01*
X13766429Y-16818190D02*
X13785477Y-16789619D01*
X13785477Y-16789619D02*
X13795000Y-16770571D01*
X13795000Y-16770571D02*
X13804524Y-16742000D01*
X13804524Y-16742000D02*
X13814048Y-16694381D01*
X13814048Y-16694381D02*
X13814048Y-16656286D01*
X13814048Y-16656286D02*
X13804524Y-16608667D01*
X13804524Y-16608667D02*
X13795000Y-16580095D01*
X13795000Y-16580095D02*
X13785477Y-16561048D01*
X13785477Y-16561048D02*
X13766429Y-16532476D01*
X13766429Y-16532476D02*
X13756905Y-16522952D01*
X14118810Y-16827714D02*
X14109286Y-16818190D01*
X14109286Y-16818190D02*
X14090238Y-16789619D01*
X14090238Y-16789619D02*
X14080715Y-16770571D01*
X14080715Y-16770571D02*
X14071191Y-16742000D01*
X14071191Y-16742000D02*
X14061667Y-16694381D01*
X14061667Y-16694381D02*
X14061667Y-16656286D01*
X14061667Y-16656286D02*
X14071191Y-16608667D01*
X14071191Y-16608667D02*
X14080715Y-16580095D01*
X14080715Y-16580095D02*
X14090238Y-16561048D01*
X14090238Y-16561048D02*
X14109286Y-16532476D01*
X14109286Y-16532476D02*
X14118810Y-16522952D01*
X14195000Y-16618190D02*
X14195000Y-16751524D01*
X14195000Y-16637238D02*
X14204524Y-16627714D01*
X14204524Y-16627714D02*
X14223572Y-16618190D01*
X14223572Y-16618190D02*
X14252143Y-16618190D01*
X14252143Y-16618190D02*
X14271191Y-16627714D01*
X14271191Y-16627714D02*
X14280715Y-16646762D01*
X14280715Y-16646762D02*
X14280715Y-16751524D01*
X14404524Y-16751524D02*
X14385477Y-16742000D01*
X14385477Y-16742000D02*
X14375953Y-16732476D01*
X14375953Y-16732476D02*
X14366429Y-16713428D01*
X14366429Y-16713428D02*
X14366429Y-16656286D01*
X14366429Y-16656286D02*
X14375953Y-16637238D01*
X14375953Y-16637238D02*
X14385477Y-16627714D01*
X14385477Y-16627714D02*
X14404524Y-16618190D01*
X14404524Y-16618190D02*
X14433096Y-16618190D01*
X14433096Y-16618190D02*
X14452143Y-16627714D01*
X14452143Y-16627714D02*
X14461667Y-16637238D01*
X14461667Y-16637238D02*
X14471191Y-16656286D01*
X14471191Y-16656286D02*
X14471191Y-16713428D01*
X14471191Y-16713428D02*
X14461667Y-16732476D01*
X14461667Y-16732476D02*
X14452143Y-16742000D01*
X14452143Y-16742000D02*
X14433096Y-16751524D01*
X14433096Y-16751524D02*
X14404524Y-16751524D01*
X14528334Y-16618190D02*
X14604524Y-16618190D01*
X14556905Y-16551524D02*
X14556905Y-16722952D01*
X14556905Y-16722952D02*
X14566429Y-16742000D01*
X14566429Y-16742000D02*
X14585477Y-16751524D01*
X14585477Y-16751524D02*
X14604524Y-16751524D01*
X14823572Y-16618190D02*
X14823572Y-16818190D01*
X14823572Y-16627714D02*
X14842619Y-16618190D01*
X14842619Y-16618190D02*
X14880715Y-16618190D01*
X14880715Y-16618190D02*
X14899762Y-16627714D01*
X14899762Y-16627714D02*
X14909286Y-16637238D01*
X14909286Y-16637238D02*
X14918810Y-16656286D01*
X14918810Y-16656286D02*
X14918810Y-16713428D01*
X14918810Y-16713428D02*
X14909286Y-16732476D01*
X14909286Y-16732476D02*
X14899762Y-16742000D01*
X14899762Y-16742000D02*
X14880715Y-16751524D01*
X14880715Y-16751524D02*
X14842619Y-16751524D01*
X14842619Y-16751524D02*
X14823572Y-16742000D01*
X15033096Y-16751524D02*
X15014048Y-16742000D01*
X15014048Y-16742000D02*
X15004524Y-16722952D01*
X15004524Y-16722952D02*
X15004524Y-16551524D01*
X15195000Y-16751524D02*
X15195000Y-16646762D01*
X15195000Y-16646762D02*
X15185477Y-16627714D01*
X15185477Y-16627714D02*
X15166429Y-16618190D01*
X15166429Y-16618190D02*
X15128334Y-16618190D01*
X15128334Y-16618190D02*
X15109286Y-16627714D01*
X15195000Y-16742000D02*
X15175953Y-16751524D01*
X15175953Y-16751524D02*
X15128334Y-16751524D01*
X15128334Y-16751524D02*
X15109286Y-16742000D01*
X15109286Y-16742000D02*
X15099762Y-16722952D01*
X15099762Y-16722952D02*
X15099762Y-16703905D01*
X15099762Y-16703905D02*
X15109286Y-16684857D01*
X15109286Y-16684857D02*
X15128334Y-16675333D01*
X15128334Y-16675333D02*
X15175953Y-16675333D01*
X15175953Y-16675333D02*
X15195000Y-16665809D01*
X15261667Y-16618190D02*
X15337858Y-16618190D01*
X15290239Y-16551524D02*
X15290239Y-16722952D01*
X15290239Y-16722952D02*
X15299762Y-16742000D01*
X15299762Y-16742000D02*
X15318810Y-16751524D01*
X15318810Y-16751524D02*
X15337858Y-16751524D01*
X15480715Y-16742000D02*
X15461667Y-16751524D01*
X15461667Y-16751524D02*
X15423572Y-16751524D01*
X15423572Y-16751524D02*
X15404524Y-16742000D01*
X15404524Y-16742000D02*
X15395000Y-16722952D01*
X15395000Y-16722952D02*
X15395000Y-16646762D01*
X15395000Y-16646762D02*
X15404524Y-16627714D01*
X15404524Y-16627714D02*
X15423572Y-16618190D01*
X15423572Y-16618190D02*
X15461667Y-16618190D01*
X15461667Y-16618190D02*
X15480715Y-16627714D01*
X15480715Y-16627714D02*
X15490239Y-16646762D01*
X15490239Y-16646762D02*
X15490239Y-16665809D01*
X15490239Y-16665809D02*
X15395000Y-16684857D01*
X15661667Y-16751524D02*
X15661667Y-16551524D01*
X15661667Y-16742000D02*
X15642620Y-16751524D01*
X15642620Y-16751524D02*
X15604524Y-16751524D01*
X15604524Y-16751524D02*
X15585477Y-16742000D01*
X15585477Y-16742000D02*
X15575953Y-16732476D01*
X15575953Y-16732476D02*
X15566429Y-16713428D01*
X15566429Y-16713428D02*
X15566429Y-16656286D01*
X15566429Y-16656286D02*
X15575953Y-16637238D01*
X15575953Y-16637238D02*
X15585477Y-16627714D01*
X15585477Y-16627714D02*
X15604524Y-16618190D01*
X15604524Y-16618190D02*
X15642620Y-16618190D01*
X15642620Y-16618190D02*
X15661667Y-16627714D01*
X15737858Y-16827714D02*
X15747381Y-16818190D01*
X15747381Y-16818190D02*
X15766429Y-16789619D01*
X15766429Y-16789619D02*
X15775953Y-16770571D01*
X15775953Y-16770571D02*
X15785477Y-16742000D01*
X15785477Y-16742000D02*
X15795000Y-16694381D01*
X15795000Y-16694381D02*
X15795000Y-16656286D01*
X15795000Y-16656286D02*
X15785477Y-16608667D01*
X15785477Y-16608667D02*
X15775953Y-16580095D01*
X15775953Y-16580095D02*
X15766429Y-16561048D01*
X15766429Y-16561048D02*
X15747381Y-16532476D01*
X15747381Y-16532476D02*
X15737858Y-16522952D01*
M02*
