G04 #@! TF.GenerationSoftware,KiCad,Pcbnew,(7.0.0-rc1-56-g82a1175d72)*
G04 #@! TF.CreationDate,2023-01-28T19:42:39+01:00*
G04 #@! TF.ProjectId,Signal Generator,5369676e-616c-4204-9765-6e657261746f,0*
G04 #@! TF.SameCoordinates,Original*
G04 #@! TF.FileFunction,Legend,Bot*
G04 #@! TF.FilePolarity,Positive*
%FSLAX46Y46*%
G04 Gerber Fmt 4.6, Leading zero omitted, Abs format (unit mm)*
G04 Created by KiCad (PCBNEW (7.0.0-rc1-56-g82a1175d72)) date 2023-01-28 19:42:39*
%MOMM*%
%LPD*%
G01*
G04 APERTURE LIST*
%ADD10C,0.650000*%
%ADD11O,1.000000X2.100000*%
%ADD12O,1.000000X1.800000*%
%ADD13C,0.001000*%
%ADD14R,1.700000X1.700000*%
%ADD15O,1.700000X1.700000*%
%ADD16C,2.000000*%
%ADD17R,2.200000X2.200000*%
%ADD18C,2.200000*%
%ADD19C,1.524000*%
%ADD20R,3.330000X0.700000*%
%ADD21R,1.830000X1.140000*%
%ADD22R,2.800000X0.860000*%
%ADD23R,0.930000X0.900000*%
%ADD24R,0.780000X1.050000*%
%ADD25R,1.100000X0.700000*%
G04 APERTURE END LIST*
%LPC*%
D10*
X109890000Y-103380000D03*
X104110000Y-103380000D03*
D11*
X111319999Y-103879999D03*
D12*
X111319999Y-99699999D03*
D11*
X102679999Y-103879999D03*
D12*
X102679999Y-99699999D03*
D13*
X118837500Y-152400000D03*
X118837500Y-145400000D03*
D14*
X106839999Y-145959999D03*
D15*
X106839999Y-148499999D03*
X104299999Y-145959999D03*
X104299999Y-148499999D03*
D16*
X116750000Y-100250000D03*
X123250000Y-100250000D03*
X116750000Y-104750000D03*
X123250000Y-104750000D03*
D17*
X92684999Y-153799999D03*
D18*
X95225000Y-153800000D03*
X97765000Y-153800000D03*
X100305000Y-153800000D03*
D19*
X92000000Y-100250000D03*
X97000000Y-100250000D03*
X92000000Y-102250000D03*
X97000000Y-102250000D03*
X92000000Y-104250000D03*
X97000000Y-104250000D03*
D14*
X124039999Y-107499999D03*
D15*
X121499999Y-107499999D03*
X118959999Y-107499999D03*
X116419999Y-107499999D03*
D20*
X102664999Y-120699999D03*
D21*
X91414999Y-120919999D03*
D22*
X91899999Y-133579999D03*
D20*
X102664999Y-133659999D03*
D23*
X103864999Y-123009999D03*
D24*
X103939999Y-127274999D03*
D25*
X91399999Y-124799999D03*
X91399999Y-125899999D03*
X91399999Y-126999999D03*
X91399999Y-128099999D03*
X91399999Y-129199999D03*
X91399999Y-130299999D03*
X91399999Y-131399999D03*
X91399999Y-132499999D03*
M02*
