M48
; DRILL file {KiCad 7.0.2-6a45011f42~172~ubuntu22.04.1} date Tue 25 Apr 2023 08:16:26 PM CEST
; FORMAT={-:-/ absolute / metric / decimal}
; #@! TF.CreationDate,2023-04-25T20:16:26+02:00
; #@! TF.GenerationSoftware,Kicad,Pcbnew,7.0.2-6a45011f42~172~ubuntu22.04.1
; #@! TF.FileFunction,Plated,1,4,PTH
FMAT,2
METRIC
; #@! TA.AperFunction,Plated,PTH,ViaDrill
T1C0.200
; #@! TA.AperFunction,Plated,PTH,ViaDrill
T2C0.400
; #@! TA.AperFunction,Plated,PTH,ComponentDrill
T3C0.600
; #@! TA.AperFunction,Plated,PTH,ComponentDrill
T4C0.762
; #@! TA.AperFunction,Plated,PTH,ComponentDrill
T5C1.000
; #@! TA.AperFunction,Plated,PTH,ComponentDrill
T6C1.100
%
G90
G05
T1
X91.4Y-124.8
X91.4Y-125.9
X91.4Y-128.1
X91.4Y-130.3
X91.4Y-131.4
X91.4Y-132.5
X92.5Y-128.1
X93.025Y-116.425
X94.3Y-131.4
X97.8Y-133.5
X99.7Y-133.5
X100.5Y-111.5
X101.4Y-100.2
X101.5Y-118.0
X103.9Y-123.0
X104.1Y-111.8
X104.425Y-112.575
X104.6Y-104.5
X104.725Y-125.225
X104.746Y-119.996
X105.6Y-110.9
X106.5Y-120.0
X106.75Y-103.527
X107.0Y-125.9
X107.5Y-121.0
X107.75Y-103.5
X108.6Y-109.9
X108.7Y-114.0
X109.0Y-127.5
X109.4Y-104.5
X110.0Y-119.0
X110.0Y-124.0
X110.4Y-138.0
X110.75Y-116.0
X111.0Y-123.0
X112.0Y-118.0
X112.65Y-100.35
X113.3Y-131.4
X114.0Y-106.0
X114.0Y-120.25
X118.55Y-109.55
X119.3Y-109.55
T2
X93.15Y-121.55
X95.0Y-107.5
X95.0Y-109.2
X99.3Y-123.0
X100.6Y-105.7
X102.2Y-127.75
X102.8Y-119.6
X103.5Y-118.9
X103.8Y-130.6
X106.25Y-132.65
X111.6Y-128.75
X115.137Y-151.4
X119.7Y-135.75
X121.5Y-112.45
X122.637Y-144.0
T4
X92.0Y-100.25
X92.0Y-102.25
X92.0Y-104.25
X97.0Y-100.25
X97.0Y-102.25
X97.0Y-104.25
T5
X104.3Y-145.96
X104.3Y-148.5
X106.84Y-145.96
X106.84Y-148.5
X116.42Y-107.5
X118.96Y-107.5
X121.5Y-107.5
X124.04Y-107.5
T6
X92.685Y-153.8
X95.225Y-153.8
X97.765Y-153.8
X100.305Y-153.8
X116.75Y-100.25
X116.75Y-104.75
X123.25Y-100.25
X123.25Y-104.75
T3
X102.68Y-100.1G85X102.68Y-99.3
G05
X102.68Y-104.43G85X102.68Y-103.33
G05
X111.32Y-100.1G85X111.32Y-99.3
G05
X111.32Y-104.43G85X111.32Y-103.33
G05
T0
M30
