G04 #@! TF.GenerationSoftware,KiCad,Pcbnew,7.0.2-6a45011f42~172~ubuntu22.04.1*
G04 #@! TF.CreationDate,2023-04-25T20:16:16+02:00*
G04 #@! TF.ProjectId,Signal Generator,5369676e-616c-4204-9765-6e657261746f,2*
G04 #@! TF.SameCoordinates,Original*
G04 #@! TF.FileFunction,Copper,L3,Inr*
G04 #@! TF.FilePolarity,Positive*
%FSLAX46Y46*%
G04 Gerber Fmt 4.6, Leading zero omitted, Abs format (unit mm)*
G04 Created by KiCad (PCBNEW 7.0.2-6a45011f42~172~ubuntu22.04.1) date 2023-04-25 20:16:16*
%MOMM*%
%LPD*%
G01*
G04 APERTURE LIST*
G04 #@! TA.AperFunction,ComponentPad*
%ADD10O,1.000000X2.100000*%
G04 #@! TD*
G04 #@! TA.AperFunction,ComponentPad*
%ADD11O,1.000000X1.800000*%
G04 #@! TD*
G04 #@! TA.AperFunction,ComponentPad*
%ADD12R,1.700000X1.700000*%
G04 #@! TD*
G04 #@! TA.AperFunction,ComponentPad*
%ADD13O,1.700000X1.700000*%
G04 #@! TD*
G04 #@! TA.AperFunction,ComponentPad*
%ADD14C,2.000000*%
G04 #@! TD*
G04 #@! TA.AperFunction,ComponentPad*
%ADD15R,2.200000X2.200000*%
G04 #@! TD*
G04 #@! TA.AperFunction,ComponentPad*
%ADD16C,2.200000*%
G04 #@! TD*
G04 #@! TA.AperFunction,ComponentPad*
%ADD17C,1.524000*%
G04 #@! TD*
G04 #@! TA.AperFunction,ViaPad*
%ADD18C,0.460000*%
G04 #@! TD*
G04 #@! TA.AperFunction,ViaPad*
%ADD19C,0.800000*%
G04 #@! TD*
G04 #@! TA.AperFunction,Conductor*
%ADD20C,0.250000*%
G04 #@! TD*
G04 APERTURE END LIST*
D10*
X111320000Y-103880000D03*
D11*
X111320000Y-99700000D03*
D10*
X102680000Y-103880000D03*
D11*
X102680000Y-99700000D03*
D12*
X106840000Y-145960000D03*
D13*
X106840000Y-148500000D03*
X104300000Y-145960000D03*
X104300000Y-148500000D03*
D14*
X116750000Y-100250000D03*
X123250000Y-100250000D03*
X116750000Y-104750000D03*
X123250000Y-104750000D03*
D15*
X92685000Y-153800000D03*
D16*
X95225000Y-153800000D03*
X97765000Y-153800000D03*
X100305000Y-153800000D03*
D17*
X92000000Y-100250000D03*
X97000000Y-100250000D03*
X92000000Y-102250000D03*
X97000000Y-102250000D03*
X92000000Y-104250000D03*
X97000000Y-104250000D03*
D12*
X124040000Y-107500000D03*
D13*
X121500000Y-107500000D03*
X118960000Y-107500000D03*
X116420000Y-107500000D03*
D18*
X104725000Y-125225000D03*
X99700000Y-133500000D03*
D19*
X103500000Y-118900000D03*
D18*
X103900000Y-123000000D03*
X91400000Y-130300000D03*
X93025000Y-116425000D03*
X97800000Y-133500000D03*
D19*
X102200000Y-127750000D03*
X102800000Y-119600000D03*
X106250000Y-132650000D03*
D18*
X108600000Y-109900000D03*
X112650000Y-100350000D03*
X104425000Y-112575000D03*
X101400000Y-100200000D03*
X112000000Y-118000000D03*
D19*
X121500000Y-112450000D03*
X93150000Y-121550000D03*
D18*
X91400000Y-128100000D03*
X101500000Y-118000000D03*
D19*
X103800000Y-130600000D03*
X99300000Y-123000000D03*
X111600000Y-128750000D03*
D18*
X92500000Y-128100000D03*
X114000000Y-106000000D03*
X100500000Y-111500000D03*
X110750000Y-116000000D03*
X118550000Y-109550000D03*
D19*
X95000000Y-107500000D03*
D18*
X104100000Y-111800000D03*
X104600000Y-104500000D03*
X119300000Y-109550000D03*
D19*
X119700000Y-135750000D03*
X95000000Y-109200000D03*
X100600000Y-105700000D03*
D18*
X109400000Y-104500000D03*
X114000000Y-120250000D03*
X107750000Y-103500000D03*
X106750000Y-103526780D03*
X108700000Y-114000000D03*
X105600000Y-110900000D03*
X107500000Y-121000000D03*
D19*
X115137500Y-151400000D03*
X122637500Y-144000000D03*
D18*
X113300000Y-131400000D03*
X94300000Y-131400000D03*
X104746045Y-119996045D03*
X110400000Y-138000000D03*
X109000000Y-127500000D03*
X110000000Y-119000000D03*
X91400000Y-124800000D03*
X91400000Y-125900000D03*
X107000000Y-125900000D03*
X106500000Y-120000000D03*
X110000000Y-124000000D03*
X91400000Y-131400000D03*
X91400000Y-132500000D03*
X111000000Y-123000000D03*
D20*
X92500000Y-128100000D02*
X91400000Y-128100000D01*
X94300000Y-131400000D02*
X113300000Y-131400000D01*
X110000000Y-121500000D02*
X106830000Y-124670000D01*
X110000000Y-119000000D02*
X110000000Y-121500000D01*
X106830000Y-124670000D02*
X91530000Y-124670000D01*
X91530000Y-124670000D02*
X91400000Y-124800000D01*
X107000000Y-125900000D02*
X91400000Y-125900000D01*
X92100000Y-131400000D02*
X91400000Y-131400000D01*
X94500000Y-129000000D02*
X92100000Y-131400000D01*
X110000000Y-124000000D02*
X105000000Y-129000000D01*
X105000000Y-129000000D02*
X94500000Y-129000000D01*
X111000000Y-123000000D02*
X111000000Y-124000000D01*
X105250000Y-129750000D02*
X94750000Y-129750000D01*
X111000000Y-124000000D02*
X105250000Y-129750000D01*
X94750000Y-129750000D02*
X92000000Y-132500000D01*
X92000000Y-132500000D02*
X91400000Y-132500000D01*
G04 #@! TA.AperFunction,Conductor*
G36*
X125958691Y-97519407D02*
G01*
X125994655Y-97568907D01*
X125999500Y-97599500D01*
X125999500Y-157400500D01*
X125980593Y-157458691D01*
X125931093Y-157494655D01*
X125900500Y-157499500D01*
X90099500Y-157499500D01*
X90041309Y-157480593D01*
X90005345Y-157431093D01*
X90000500Y-157400500D01*
X90000500Y-154919748D01*
X91384500Y-154919748D01*
X91396132Y-154978230D01*
X91396133Y-154978231D01*
X91440447Y-155044552D01*
X91484762Y-155074162D01*
X91506769Y-155088867D01*
X91565252Y-155100500D01*
X91565253Y-155100500D01*
X93804747Y-155100500D01*
X93804748Y-155100500D01*
X93863231Y-155088867D01*
X93929552Y-155044552D01*
X93973867Y-154978231D01*
X93985500Y-154919748D01*
X93985500Y-154611150D01*
X94004407Y-154552960D01*
X94053907Y-154516996D01*
X94115093Y-154516996D01*
X94164593Y-154552960D01*
X94165596Y-154554368D01*
X94224948Y-154639133D01*
X94224950Y-154639135D01*
X94224953Y-154639139D01*
X94385861Y-154800047D01*
X94572266Y-154930568D01*
X94572267Y-154930568D01*
X94572268Y-154930569D01*
X94778499Y-155026737D01*
X94778500Y-155026737D01*
X94778504Y-155026739D01*
X94998308Y-155085635D01*
X95225000Y-155105468D01*
X95451692Y-155085635D01*
X95671496Y-155026739D01*
X95877734Y-154930568D01*
X96064139Y-154800047D01*
X96225047Y-154639139D01*
X96355568Y-154452734D01*
X96405277Y-154346132D01*
X96447002Y-154301388D01*
X96507063Y-154289713D01*
X96562516Y-154315571D01*
X96584723Y-154346135D01*
X96634431Y-154452733D01*
X96634432Y-154452734D01*
X96764953Y-154639139D01*
X96925861Y-154800047D01*
X97112266Y-154930568D01*
X97112267Y-154930568D01*
X97112268Y-154930569D01*
X97318499Y-155026737D01*
X97318500Y-155026737D01*
X97318504Y-155026739D01*
X97538308Y-155085635D01*
X97765000Y-155105468D01*
X97991692Y-155085635D01*
X98211496Y-155026739D01*
X98417734Y-154930568D01*
X98604139Y-154800047D01*
X98765047Y-154639139D01*
X98895568Y-154452734D01*
X98945275Y-154346136D01*
X98987004Y-154301388D01*
X99047065Y-154289713D01*
X99102518Y-154315571D01*
X99124724Y-154346136D01*
X99174430Y-154452732D01*
X99174433Y-154452736D01*
X99304953Y-154639139D01*
X99465861Y-154800047D01*
X99652266Y-154930568D01*
X99652267Y-154930568D01*
X99652268Y-154930569D01*
X99858499Y-155026737D01*
X99858500Y-155026737D01*
X99858504Y-155026739D01*
X100078308Y-155085635D01*
X100305000Y-155105468D01*
X100531692Y-155085635D01*
X100751496Y-155026739D01*
X100957734Y-154930568D01*
X101144139Y-154800047D01*
X101305047Y-154639139D01*
X101435568Y-154452734D01*
X101531739Y-154246496D01*
X101590635Y-154026692D01*
X101610468Y-153800000D01*
X101590635Y-153573308D01*
X101531739Y-153353504D01*
X101506142Y-153298612D01*
X101435569Y-153147268D01*
X101434968Y-153146410D01*
X101305047Y-152960861D01*
X101144139Y-152799953D01*
X100957734Y-152669432D01*
X100957733Y-152669431D01*
X100957731Y-152669430D01*
X100751500Y-152573262D01*
X100531689Y-152514364D01*
X100305000Y-152494531D01*
X100078310Y-152514364D01*
X99858499Y-152573262D01*
X99652268Y-152669430D01*
X99465864Y-152799950D01*
X99304950Y-152960864D01*
X99174431Y-153147266D01*
X99124724Y-153253864D01*
X99082996Y-153298612D01*
X99022935Y-153310286D01*
X98967482Y-153284428D01*
X98945276Y-153253864D01*
X98895568Y-153147266D01*
X98850187Y-153082454D01*
X98765047Y-152960861D01*
X98604139Y-152799953D01*
X98417734Y-152669432D01*
X98417733Y-152669431D01*
X98417731Y-152669430D01*
X98211500Y-152573262D01*
X97991689Y-152514364D01*
X97765000Y-152494531D01*
X97538310Y-152514364D01*
X97318499Y-152573262D01*
X97112268Y-152669430D01*
X96925864Y-152799950D01*
X96764950Y-152960864D01*
X96634431Y-153147266D01*
X96584724Y-153253864D01*
X96542996Y-153298612D01*
X96482935Y-153310286D01*
X96427482Y-153284428D01*
X96405276Y-153253864D01*
X96355568Y-153147266D01*
X96310187Y-153082454D01*
X96225047Y-152960861D01*
X96064139Y-152799953D01*
X95877734Y-152669432D01*
X95877733Y-152669431D01*
X95877731Y-152669430D01*
X95671500Y-152573262D01*
X95451689Y-152514364D01*
X95225000Y-152494531D01*
X94998310Y-152514364D01*
X94778499Y-152573262D01*
X94572268Y-152669430D01*
X94385864Y-152799950D01*
X94224950Y-152960864D01*
X94165596Y-153045632D01*
X94116731Y-153082454D01*
X94055555Y-153083522D01*
X94005435Y-153048428D01*
X93985515Y-152990576D01*
X93985500Y-152988848D01*
X93985500Y-152680253D01*
X93985500Y-152680252D01*
X93973867Y-152621769D01*
X93959162Y-152599761D01*
X93929552Y-152555447D01*
X93863231Y-152511133D01*
X93863230Y-152511132D01*
X93804748Y-152499500D01*
X91565252Y-152499500D01*
X91536010Y-152505316D01*
X91506768Y-152511133D01*
X91440447Y-152555447D01*
X91396133Y-152621768D01*
X91396132Y-152621769D01*
X91396133Y-152621769D01*
X91384500Y-152680252D01*
X91384500Y-154919748D01*
X90000500Y-154919748D01*
X90000500Y-152400000D01*
X117781916Y-152400000D01*
X117802199Y-152605933D01*
X117824744Y-152680253D01*
X117862268Y-152803954D01*
X117959815Y-152986450D01*
X118091090Y-153146410D01*
X118251050Y-153277685D01*
X118433546Y-153375232D01*
X118631566Y-153435300D01*
X118785892Y-153450500D01*
X118788331Y-153450500D01*
X118886669Y-153450500D01*
X118889108Y-153450500D01*
X119043434Y-153435300D01*
X119241454Y-153375232D01*
X119423950Y-153277685D01*
X119583910Y-153146410D01*
X119715185Y-152986450D01*
X119812732Y-152803954D01*
X119872800Y-152605934D01*
X119893083Y-152400000D01*
X119872800Y-152194066D01*
X119812732Y-151996046D01*
X119715185Y-151813550D01*
X119583910Y-151653590D01*
X119423950Y-151522315D01*
X119241454Y-151424768D01*
X119241453Y-151424767D01*
X119241452Y-151424767D01*
X119043432Y-151364699D01*
X118891540Y-151349739D01*
X118891529Y-151349738D01*
X118889108Y-151349500D01*
X118785892Y-151349500D01*
X118783471Y-151349738D01*
X118783459Y-151349739D01*
X118631567Y-151364699D01*
X118433547Y-151424767D01*
X118251049Y-151522315D01*
X118091090Y-151653590D01*
X117959815Y-151813549D01*
X117862267Y-151996047D01*
X117802199Y-152194066D01*
X117781916Y-152400000D01*
X90000500Y-152400000D01*
X90000500Y-151400000D01*
X114531818Y-151400000D01*
X114552455Y-151556761D01*
X114612964Y-151702841D01*
X114709217Y-151828282D01*
X114805471Y-151902139D01*
X114834659Y-151924536D01*
X114980738Y-151985044D01*
X115137500Y-152005682D01*
X115294262Y-151985044D01*
X115440341Y-151924536D01*
X115565782Y-151828282D01*
X115662036Y-151702841D01*
X115722544Y-151556762D01*
X115743182Y-151400000D01*
X115722544Y-151243238D01*
X115662036Y-151097159D01*
X115639639Y-151067971D01*
X115565782Y-150971717D01*
X115440341Y-150875464D01*
X115294261Y-150814955D01*
X115158136Y-150797034D01*
X115137500Y-150794318D01*
X115137499Y-150794318D01*
X114980738Y-150814955D01*
X114834658Y-150875464D01*
X114709217Y-150971717D01*
X114612964Y-151097158D01*
X114552455Y-151243238D01*
X114531818Y-151400000D01*
X90000500Y-151400000D01*
X90000500Y-148500000D01*
X103244416Y-148500000D01*
X103264699Y-148705933D01*
X103324767Y-148903952D01*
X103324768Y-148903954D01*
X103422315Y-149086450D01*
X103553590Y-149246410D01*
X103713550Y-149377685D01*
X103896046Y-149475232D01*
X104094066Y-149535300D01*
X104300000Y-149555583D01*
X104505934Y-149535300D01*
X104703954Y-149475232D01*
X104886450Y-149377685D01*
X105046410Y-149246410D01*
X105177685Y-149086450D01*
X105275232Y-148903954D01*
X105335300Y-148705934D01*
X105355583Y-148500000D01*
X105355583Y-148499999D01*
X105784416Y-148499999D01*
X105804699Y-148705933D01*
X105864767Y-148903952D01*
X105864768Y-148903954D01*
X105962315Y-149086450D01*
X106093590Y-149246410D01*
X106253550Y-149377685D01*
X106436046Y-149475232D01*
X106634066Y-149535300D01*
X106840000Y-149555583D01*
X107045934Y-149535300D01*
X107243954Y-149475232D01*
X107426450Y-149377685D01*
X107586410Y-149246410D01*
X107717685Y-149086450D01*
X107815232Y-148903954D01*
X107875300Y-148705934D01*
X107895583Y-148500000D01*
X107875300Y-148294066D01*
X107815232Y-148096046D01*
X107717685Y-147913550D01*
X107586410Y-147753590D01*
X107426450Y-147622315D01*
X107243954Y-147524768D01*
X107243953Y-147524767D01*
X107243952Y-147524767D01*
X107045933Y-147464699D01*
X106840000Y-147444416D01*
X106634066Y-147464699D01*
X106436047Y-147524767D01*
X106253549Y-147622315D01*
X106093590Y-147753590D01*
X105962315Y-147913549D01*
X105864767Y-148096047D01*
X105804699Y-148294066D01*
X105784416Y-148499999D01*
X105355583Y-148499999D01*
X105335300Y-148294066D01*
X105275232Y-148096046D01*
X105177685Y-147913550D01*
X105046410Y-147753590D01*
X104886450Y-147622315D01*
X104703954Y-147524768D01*
X104703953Y-147524767D01*
X104703952Y-147524767D01*
X104505933Y-147464699D01*
X104299999Y-147444416D01*
X104094066Y-147464699D01*
X103896047Y-147524767D01*
X103713549Y-147622315D01*
X103553590Y-147753590D01*
X103422315Y-147913549D01*
X103324767Y-148096047D01*
X103264699Y-148294066D01*
X103244416Y-148500000D01*
X90000500Y-148500000D01*
X90000500Y-145959999D01*
X103244416Y-145959999D01*
X103264699Y-146165933D01*
X103324767Y-146363952D01*
X103324768Y-146363954D01*
X103422315Y-146546450D01*
X103553590Y-146706410D01*
X103713550Y-146837685D01*
X103896046Y-146935232D01*
X104094066Y-146995300D01*
X104300000Y-147015583D01*
X104505934Y-146995300D01*
X104703954Y-146935232D01*
X104886450Y-146837685D01*
X104896124Y-146829746D01*
X105789500Y-146829746D01*
X105801133Y-146888231D01*
X105845447Y-146954552D01*
X105889762Y-146984162D01*
X105911769Y-146998867D01*
X105970252Y-147010500D01*
X105970253Y-147010500D01*
X107709747Y-147010500D01*
X107709748Y-147010500D01*
X107768231Y-146998867D01*
X107834552Y-146954552D01*
X107878867Y-146888231D01*
X107890500Y-146829748D01*
X107890500Y-145400000D01*
X117781916Y-145400000D01*
X117802199Y-145605933D01*
X117862267Y-145803952D01*
X117862268Y-145803954D01*
X117959815Y-145986450D01*
X118091090Y-146146410D01*
X118251050Y-146277685D01*
X118433546Y-146375232D01*
X118631566Y-146435300D01*
X118785892Y-146450500D01*
X118788331Y-146450500D01*
X118886669Y-146450500D01*
X118889108Y-146450500D01*
X119043434Y-146435300D01*
X119241454Y-146375232D01*
X119423950Y-146277685D01*
X119583910Y-146146410D01*
X119715185Y-145986450D01*
X119812732Y-145803954D01*
X119872800Y-145605934D01*
X119893083Y-145400000D01*
X119872800Y-145194066D01*
X119812732Y-144996046D01*
X119715185Y-144813550D01*
X119583910Y-144653590D01*
X119423950Y-144522315D01*
X119241454Y-144424768D01*
X119241453Y-144424767D01*
X119241452Y-144424767D01*
X119043432Y-144364699D01*
X118891540Y-144349739D01*
X118891529Y-144349738D01*
X118889108Y-144349500D01*
X118785892Y-144349500D01*
X118783471Y-144349738D01*
X118783459Y-144349739D01*
X118631567Y-144364699D01*
X118433547Y-144424767D01*
X118251049Y-144522315D01*
X118091090Y-144653590D01*
X117959815Y-144813549D01*
X117862267Y-144996047D01*
X117802199Y-145194066D01*
X117781916Y-145400000D01*
X107890500Y-145400000D01*
X107890500Y-145090252D01*
X107878867Y-145031769D01*
X107854997Y-144996046D01*
X107834552Y-144965447D01*
X107768231Y-144921133D01*
X107709748Y-144909500D01*
X105970252Y-144909500D01*
X105941010Y-144915316D01*
X105911768Y-144921133D01*
X105845447Y-144965447D01*
X105801133Y-145031768D01*
X105789500Y-145090253D01*
X105789500Y-146829746D01*
X104896124Y-146829746D01*
X105046410Y-146706410D01*
X105177685Y-146546450D01*
X105275232Y-146363954D01*
X105335300Y-146165934D01*
X105355583Y-145960000D01*
X105335300Y-145754066D01*
X105275232Y-145556046D01*
X105177685Y-145373550D01*
X105046410Y-145213590D01*
X104886450Y-145082315D01*
X104703954Y-144984768D01*
X104703953Y-144984767D01*
X104703952Y-144984767D01*
X104505933Y-144924699D01*
X104299999Y-144904416D01*
X104094066Y-144924699D01*
X103896047Y-144984767D01*
X103713549Y-145082315D01*
X103553590Y-145213590D01*
X103422315Y-145373549D01*
X103324767Y-145556047D01*
X103264699Y-145754066D01*
X103244416Y-145959999D01*
X90000500Y-145959999D01*
X90000500Y-144000000D01*
X122031818Y-144000000D01*
X122052455Y-144156761D01*
X122112964Y-144302841D01*
X122209217Y-144428282D01*
X122305470Y-144502139D01*
X122334659Y-144524536D01*
X122480738Y-144585044D01*
X122637500Y-144605682D01*
X122794262Y-144585044D01*
X122940341Y-144524536D01*
X123065782Y-144428282D01*
X123162036Y-144302841D01*
X123222544Y-144156762D01*
X123243182Y-144000000D01*
X123222544Y-143843238D01*
X123162036Y-143697159D01*
X123139639Y-143667970D01*
X123065782Y-143571717D01*
X122940341Y-143475464D01*
X122794261Y-143414955D01*
X122658137Y-143397034D01*
X122637500Y-143394318D01*
X122637499Y-143394318D01*
X122480738Y-143414955D01*
X122334658Y-143475464D01*
X122209217Y-143571717D01*
X122112964Y-143697158D01*
X122052455Y-143843238D01*
X122031818Y-144000000D01*
X90000500Y-144000000D01*
X90000500Y-137999999D01*
X109965072Y-137999999D01*
X109982689Y-138122530D01*
X110034116Y-138235141D01*
X110115181Y-138328694D01*
X110115183Y-138328696D01*
X110219325Y-138395624D01*
X110338103Y-138430500D01*
X110461897Y-138430500D01*
X110580675Y-138395624D01*
X110684817Y-138328696D01*
X110725350Y-138281917D01*
X110765883Y-138235141D01*
X110817310Y-138122530D01*
X110834927Y-138000000D01*
X110817310Y-137877469D01*
X110765883Y-137764858D01*
X110684818Y-137671305D01*
X110684817Y-137671304D01*
X110632746Y-137637840D01*
X110580674Y-137604375D01*
X110461897Y-137569500D01*
X110338103Y-137569500D01*
X110219325Y-137604375D01*
X110115181Y-137671305D01*
X110034116Y-137764858D01*
X109982689Y-137877469D01*
X109965072Y-137999999D01*
X90000500Y-137999999D01*
X90000500Y-135750000D01*
X119094318Y-135750000D01*
X119114955Y-135906761D01*
X119175464Y-136052841D01*
X119271717Y-136178282D01*
X119367971Y-136252139D01*
X119397159Y-136274536D01*
X119543238Y-136335044D01*
X119700000Y-136355682D01*
X119856762Y-136335044D01*
X120002841Y-136274536D01*
X120128282Y-136178282D01*
X120224536Y-136052841D01*
X120285044Y-135906762D01*
X120305682Y-135750000D01*
X120285044Y-135593238D01*
X120224536Y-135447159D01*
X120202139Y-135417971D01*
X120128282Y-135321717D01*
X120002841Y-135225464D01*
X119856761Y-135164955D01*
X119700000Y-135144318D01*
X119543238Y-135164955D01*
X119397158Y-135225464D01*
X119271717Y-135321717D01*
X119175464Y-135447158D01*
X119114955Y-135593238D01*
X119094318Y-135750000D01*
X90000500Y-135750000D01*
X90000500Y-133499999D01*
X97365072Y-133499999D01*
X97382689Y-133622530D01*
X97434116Y-133735141D01*
X97515181Y-133828694D01*
X97515183Y-133828696D01*
X97619325Y-133895624D01*
X97738103Y-133930500D01*
X97861897Y-133930500D01*
X97980675Y-133895624D01*
X98084817Y-133828696D01*
X98125350Y-133781917D01*
X98165883Y-133735141D01*
X98217310Y-133622530D01*
X98234927Y-133500000D01*
X99265072Y-133500000D01*
X99282689Y-133622530D01*
X99334116Y-133735141D01*
X99415181Y-133828694D01*
X99415183Y-133828696D01*
X99519325Y-133895624D01*
X99638103Y-133930500D01*
X99761897Y-133930500D01*
X99880675Y-133895624D01*
X99984817Y-133828696D01*
X100025350Y-133781917D01*
X100065883Y-133735141D01*
X100117310Y-133622530D01*
X100134927Y-133499999D01*
X100117310Y-133377469D01*
X100065883Y-133264858D01*
X99984818Y-133171305D01*
X99984817Y-133171304D01*
X99932746Y-133137840D01*
X99880674Y-133104375D01*
X99761897Y-133069500D01*
X99638103Y-133069500D01*
X99519325Y-133104375D01*
X99415181Y-133171305D01*
X99334116Y-133264858D01*
X99282689Y-133377469D01*
X99265072Y-133500000D01*
X98234927Y-133500000D01*
X98234927Y-133499999D01*
X98217310Y-133377469D01*
X98165883Y-133264858D01*
X98084818Y-133171305D01*
X98084817Y-133171304D01*
X98032746Y-133137840D01*
X97980674Y-133104375D01*
X97861897Y-133069500D01*
X97738103Y-133069500D01*
X97619325Y-133104375D01*
X97515181Y-133171305D01*
X97434116Y-133264858D01*
X97382689Y-133377469D01*
X97365072Y-133499999D01*
X90000500Y-133499999D01*
X90000500Y-132500000D01*
X90965072Y-132500000D01*
X90982689Y-132622530D01*
X91034116Y-132735141D01*
X91112740Y-132825877D01*
X91115183Y-132828696D01*
X91219325Y-132895624D01*
X91338103Y-132930500D01*
X91461897Y-132930500D01*
X91580675Y-132895624D01*
X91603570Y-132880910D01*
X91665337Y-132841216D01*
X91718860Y-132825500D01*
X91981466Y-132825500D01*
X91990093Y-132825876D01*
X92003357Y-132827037D01*
X92028805Y-132829264D01*
X92028805Y-132829263D01*
X92028807Y-132829264D01*
X92066359Y-132819201D01*
X92074777Y-132817335D01*
X92113045Y-132810588D01*
X92114346Y-132809836D01*
X92138232Y-132799942D01*
X92139684Y-132799554D01*
X92171529Y-132777254D01*
X92178785Y-132772632D01*
X92212455Y-132753194D01*
X92237442Y-132723414D01*
X92243254Y-132717070D01*
X92310324Y-132650000D01*
X105644318Y-132650000D01*
X105664955Y-132806761D01*
X105725464Y-132952841D01*
X105821717Y-133078282D01*
X105855723Y-133104375D01*
X105947159Y-133174536D01*
X106093238Y-133235044D01*
X106250000Y-133255682D01*
X106406762Y-133235044D01*
X106552841Y-133174536D01*
X106678282Y-133078282D01*
X106774536Y-132952841D01*
X106835044Y-132806762D01*
X106855682Y-132650000D01*
X106835044Y-132493238D01*
X106774536Y-132347159D01*
X106711387Y-132264861D01*
X106678282Y-132221717D01*
X106552841Y-132125464D01*
X106406761Y-132064955D01*
X106250000Y-132044318D01*
X106093238Y-132064955D01*
X105947158Y-132125464D01*
X105821717Y-132221717D01*
X105725464Y-132347158D01*
X105664955Y-132493238D01*
X105644318Y-132650000D01*
X92310324Y-132650000D01*
X93705919Y-131254406D01*
X93760436Y-131226630D01*
X93820868Y-131236201D01*
X93864133Y-131279466D01*
X93873915Y-131338500D01*
X93865072Y-131399999D01*
X93882689Y-131522530D01*
X93934116Y-131635141D01*
X94015181Y-131728694D01*
X94015183Y-131728696D01*
X94119325Y-131795624D01*
X94238103Y-131830500D01*
X94361897Y-131830500D01*
X94480675Y-131795624D01*
X94503570Y-131780910D01*
X94565337Y-131741216D01*
X94618860Y-131725500D01*
X112981140Y-131725500D01*
X113034663Y-131741216D01*
X113116653Y-131793907D01*
X113119325Y-131795624D01*
X113238103Y-131830500D01*
X113361897Y-131830500D01*
X113480675Y-131795624D01*
X113584817Y-131728696D01*
X113631529Y-131674787D01*
X113665883Y-131635141D01*
X113717310Y-131522530D01*
X113734927Y-131399999D01*
X113717310Y-131277469D01*
X113665883Y-131164858D01*
X113584818Y-131071305D01*
X113584817Y-131071304D01*
X113532746Y-131037840D01*
X113480674Y-131004375D01*
X113361897Y-130969500D01*
X113238103Y-130969500D01*
X113119323Y-131004376D01*
X113034663Y-131058784D01*
X112981140Y-131074500D01*
X94618860Y-131074500D01*
X94565337Y-131058784D01*
X94480676Y-131004376D01*
X94361897Y-130969500D01*
X94238103Y-130969500D01*
X94229834Y-130969500D01*
X94171643Y-130950593D01*
X94135679Y-130901093D01*
X94135679Y-130839907D01*
X94159830Y-130800496D01*
X94229827Y-130730500D01*
X94855830Y-130104496D01*
X94910348Y-130076719D01*
X94925835Y-130075500D01*
X105231466Y-130075500D01*
X105240093Y-130075876D01*
X105249719Y-130076719D01*
X105278805Y-130079264D01*
X105278805Y-130079263D01*
X105278807Y-130079264D01*
X105316359Y-130069201D01*
X105324777Y-130067335D01*
X105363045Y-130060588D01*
X105364346Y-130059836D01*
X105388232Y-130049942D01*
X105389684Y-130049554D01*
X105421529Y-130027254D01*
X105428785Y-130022632D01*
X105462455Y-130003194D01*
X105487442Y-129973414D01*
X105493254Y-129967070D01*
X107960324Y-127500000D01*
X108565072Y-127500000D01*
X108582689Y-127622530D01*
X108634116Y-127735141D01*
X108715181Y-127828694D01*
X108715183Y-127828696D01*
X108819325Y-127895624D01*
X108938103Y-127930500D01*
X109061897Y-127930500D01*
X109180675Y-127895624D01*
X109284817Y-127828696D01*
X109353007Y-127750000D01*
X109365883Y-127735141D01*
X109417310Y-127622530D01*
X109434927Y-127499999D01*
X109417310Y-127377469D01*
X109365883Y-127264858D01*
X109284818Y-127171305D01*
X109284817Y-127171304D01*
X109232746Y-127137840D01*
X109180674Y-127104375D01*
X109061897Y-127069500D01*
X108938103Y-127069500D01*
X108819325Y-127104375D01*
X108715181Y-127171305D01*
X108634116Y-127264858D01*
X108582689Y-127377469D01*
X108565072Y-127500000D01*
X107960324Y-127500000D01*
X111217066Y-124243258D01*
X111223410Y-124237444D01*
X111253194Y-124212455D01*
X111272632Y-124178785D01*
X111277254Y-124171529D01*
X111299554Y-124139684D01*
X111299942Y-124138232D01*
X111309838Y-124114343D01*
X111310588Y-124113045D01*
X111317335Y-124074777D01*
X111319201Y-124066359D01*
X111329264Y-124028807D01*
X111325877Y-123990094D01*
X111325500Y-123981465D01*
X111325500Y-123318669D01*
X111344407Y-123260478D01*
X111349671Y-123253849D01*
X111365884Y-123235139D01*
X111417309Y-123122533D01*
X111417309Y-123122531D01*
X111417310Y-123122530D01*
X111434927Y-122999999D01*
X111417310Y-122877469D01*
X111365883Y-122764858D01*
X111284818Y-122671305D01*
X111284817Y-122671304D01*
X111232745Y-122637840D01*
X111180674Y-122604375D01*
X111061897Y-122569500D01*
X110938103Y-122569500D01*
X110819325Y-122604375D01*
X110715181Y-122671305D01*
X110634116Y-122764858D01*
X110582689Y-122877469D01*
X110565072Y-123000000D01*
X110582689Y-123122530D01*
X110634117Y-123235141D01*
X110650319Y-123253839D01*
X110674136Y-123310199D01*
X110674499Y-123318669D01*
X110674499Y-123824165D01*
X110655592Y-123882356D01*
X110645503Y-123894169D01*
X110587943Y-123951729D01*
X110533426Y-123979506D01*
X110472994Y-123969935D01*
X110429729Y-123926670D01*
X110419947Y-123895815D01*
X110417309Y-123877467D01*
X110365884Y-123764861D01*
X110365883Y-123764858D01*
X110284818Y-123671305D01*
X110284817Y-123671304D01*
X110232745Y-123637840D01*
X110180674Y-123604375D01*
X110061897Y-123569500D01*
X109938103Y-123569500D01*
X109819325Y-123604375D01*
X109715181Y-123671305D01*
X109634116Y-123764859D01*
X109582691Y-123877467D01*
X109574027Y-123937720D01*
X109547030Y-123992627D01*
X109546039Y-123993633D01*
X107600514Y-125939159D01*
X107545997Y-125966936D01*
X107485565Y-125957365D01*
X107442300Y-125914100D01*
X107432518Y-125883244D01*
X107417310Y-125777469D01*
X107365883Y-125664858D01*
X107284818Y-125571305D01*
X107284817Y-125571304D01*
X107183347Y-125506093D01*
X107180674Y-125504375D01*
X107061897Y-125469500D01*
X106938103Y-125469500D01*
X106819323Y-125504376D01*
X106734663Y-125558784D01*
X106681140Y-125574500D01*
X105192704Y-125574500D01*
X105134513Y-125555593D01*
X105098549Y-125506093D01*
X105098549Y-125444907D01*
X105102650Y-125434374D01*
X105142310Y-125347530D01*
X105159927Y-125224999D01*
X105143190Y-125108589D01*
X105153623Y-125048300D01*
X105197501Y-125005658D01*
X105241182Y-124995500D01*
X106811466Y-124995500D01*
X106820093Y-124995876D01*
X106833357Y-124997037D01*
X106858805Y-124999264D01*
X106858805Y-124999263D01*
X106858807Y-124999264D01*
X106896359Y-124989201D01*
X106904777Y-124987335D01*
X106943045Y-124980588D01*
X106944346Y-124979836D01*
X106968232Y-124969942D01*
X106969684Y-124969554D01*
X107001529Y-124947254D01*
X107008785Y-124942632D01*
X107042455Y-124923194D01*
X107067442Y-124893414D01*
X107073254Y-124887070D01*
X110217066Y-121743258D01*
X110223410Y-121737444D01*
X110253194Y-121712455D01*
X110272632Y-121678785D01*
X110277254Y-121671529D01*
X110299554Y-121639684D01*
X110299942Y-121638232D01*
X110309838Y-121614343D01*
X110310588Y-121613045D01*
X110317335Y-121574777D01*
X110319204Y-121566348D01*
X110329264Y-121528807D01*
X110325876Y-121490093D01*
X110325499Y-121481462D01*
X110325499Y-120391669D01*
X110325499Y-120249999D01*
X113565072Y-120249999D01*
X113582689Y-120372530D01*
X113634116Y-120485141D01*
X113715181Y-120578694D01*
X113715183Y-120578696D01*
X113819325Y-120645624D01*
X113938103Y-120680500D01*
X114061897Y-120680500D01*
X114180675Y-120645624D01*
X114284817Y-120578696D01*
X114325350Y-120531917D01*
X114365883Y-120485141D01*
X114365884Y-120485139D01*
X114417309Y-120372533D01*
X114417309Y-120372531D01*
X114417310Y-120372530D01*
X114434927Y-120250000D01*
X114417310Y-120127469D01*
X114365883Y-120014858D01*
X114284818Y-119921305D01*
X114284817Y-119921304D01*
X114232745Y-119887840D01*
X114180674Y-119854375D01*
X114061897Y-119819500D01*
X113938103Y-119819500D01*
X113819325Y-119854375D01*
X113715181Y-119921305D01*
X113634116Y-120014858D01*
X113582689Y-120127469D01*
X113565072Y-120249999D01*
X110325499Y-120249999D01*
X110325499Y-119318665D01*
X110344406Y-119260478D01*
X110349661Y-119253860D01*
X110365884Y-119235139D01*
X110417309Y-119122533D01*
X110417309Y-119122531D01*
X110417310Y-119122530D01*
X110434927Y-119000000D01*
X110417310Y-118877469D01*
X110365883Y-118764858D01*
X110284818Y-118671305D01*
X110284817Y-118671304D01*
X110232745Y-118637840D01*
X110180674Y-118604375D01*
X110061897Y-118569500D01*
X109938103Y-118569500D01*
X109819325Y-118604375D01*
X109715181Y-118671305D01*
X109634116Y-118764858D01*
X109582689Y-118877469D01*
X109565072Y-118999999D01*
X109582689Y-119122530D01*
X109605152Y-119171717D01*
X109634116Y-119235139D01*
X109650319Y-119253838D01*
X109674137Y-119310197D01*
X109674500Y-119318669D01*
X109674500Y-121324165D01*
X109655593Y-121382356D01*
X109645504Y-121394169D01*
X106724170Y-124315504D01*
X106669653Y-124343281D01*
X106654166Y-124344500D01*
X91548534Y-124344500D01*
X91539906Y-124344123D01*
X91536050Y-124343785D01*
X91501191Y-124340735D01*
X91463649Y-124350794D01*
X91455223Y-124352662D01*
X91399769Y-124362442D01*
X91399747Y-124362321D01*
X91372955Y-124369500D01*
X91338103Y-124369500D01*
X91219325Y-124404375D01*
X91115181Y-124471305D01*
X91034116Y-124564858D01*
X90982689Y-124677469D01*
X90965072Y-124799999D01*
X90982689Y-124922530D01*
X91034116Y-125035141D01*
X91097760Y-125108589D01*
X91115183Y-125128696D01*
X91219325Y-125195624D01*
X91338103Y-125230500D01*
X91461897Y-125230500D01*
X91580675Y-125195624D01*
X91684817Y-125128696D01*
X91765884Y-125035139D01*
X91765883Y-125035139D01*
X91770624Y-125029669D01*
X91823020Y-124998073D01*
X91845443Y-124995500D01*
X104208818Y-124995500D01*
X104267009Y-125014407D01*
X104302973Y-125063907D01*
X104306810Y-125108589D01*
X104290072Y-125224999D01*
X104307689Y-125347530D01*
X104347350Y-125434374D01*
X104354324Y-125495161D01*
X104324237Y-125548437D01*
X104268581Y-125573855D01*
X104257296Y-125574500D01*
X91718860Y-125574500D01*
X91665337Y-125558784D01*
X91580676Y-125504376D01*
X91461897Y-125469500D01*
X91338103Y-125469500D01*
X91219325Y-125504375D01*
X91115181Y-125571305D01*
X91034116Y-125664858D01*
X90982689Y-125777469D01*
X90965072Y-125900000D01*
X90982689Y-126022530D01*
X91034116Y-126135141D01*
X91115181Y-126228694D01*
X91115183Y-126228696D01*
X91219325Y-126295624D01*
X91338103Y-126330500D01*
X91461897Y-126330500D01*
X91580675Y-126295624D01*
X91603570Y-126280910D01*
X91665337Y-126241216D01*
X91718860Y-126225500D01*
X106681140Y-126225500D01*
X106734663Y-126241216D01*
X106819323Y-126295623D01*
X106819325Y-126295624D01*
X106938103Y-126330500D01*
X106970166Y-126330500D01*
X107028357Y-126349407D01*
X107064321Y-126398907D01*
X107064321Y-126460093D01*
X107040170Y-126499504D01*
X104894170Y-128645504D01*
X104839653Y-128673281D01*
X104824166Y-128674500D01*
X94518534Y-128674500D01*
X94509906Y-128674123D01*
X94506050Y-128673785D01*
X94471191Y-128670735D01*
X94433649Y-128680794D01*
X94425223Y-128682662D01*
X94386956Y-128689410D01*
X94385645Y-128690168D01*
X94361780Y-128700053D01*
X94360318Y-128700444D01*
X94328484Y-128722734D01*
X94321204Y-128727371D01*
X94287544Y-128746805D01*
X94262569Y-128776569D01*
X94256736Y-128782936D01*
X91994170Y-131045504D01*
X91939653Y-131073281D01*
X91924166Y-131074500D01*
X91718860Y-131074500D01*
X91665337Y-131058784D01*
X91580676Y-131004376D01*
X91461897Y-130969500D01*
X91338103Y-130969500D01*
X91219325Y-131004375D01*
X91115181Y-131071305D01*
X91034116Y-131164858D01*
X90982689Y-131277469D01*
X90965072Y-131399999D01*
X90982689Y-131522530D01*
X91034116Y-131635141D01*
X91115181Y-131728694D01*
X91115183Y-131728696D01*
X91219325Y-131795624D01*
X91338103Y-131830500D01*
X91461897Y-131830500D01*
X91580675Y-131795624D01*
X91603570Y-131780910D01*
X91665337Y-131741216D01*
X91718860Y-131725500D01*
X92075166Y-131725500D01*
X92133357Y-131744407D01*
X92169321Y-131793907D01*
X92169321Y-131855093D01*
X92145170Y-131894504D01*
X91894170Y-132145504D01*
X91839653Y-132173281D01*
X91824166Y-132174500D01*
X91718860Y-132174500D01*
X91665337Y-132158784D01*
X91580676Y-132104376D01*
X91461897Y-132069500D01*
X91338103Y-132069500D01*
X91219325Y-132104375D01*
X91115181Y-132171305D01*
X91034116Y-132264858D01*
X90982689Y-132377469D01*
X90965072Y-132500000D01*
X90000500Y-132500000D01*
X90000500Y-130299999D01*
X90965072Y-130299999D01*
X90982689Y-130422530D01*
X91034116Y-130535141D01*
X91115181Y-130628694D01*
X91115183Y-130628696D01*
X91219325Y-130695624D01*
X91338103Y-130730500D01*
X91461897Y-130730500D01*
X91580675Y-130695624D01*
X91684817Y-130628696D01*
X91725350Y-130581917D01*
X91765883Y-130535141D01*
X91817310Y-130422530D01*
X91834927Y-130299999D01*
X91817310Y-130177469D01*
X91765883Y-130064858D01*
X91684818Y-129971305D01*
X91684817Y-129971304D01*
X91632746Y-129937840D01*
X91580674Y-129904375D01*
X91461897Y-129869500D01*
X91338103Y-129869500D01*
X91219325Y-129904375D01*
X91115181Y-129971305D01*
X91034116Y-130064858D01*
X90982689Y-130177469D01*
X90965072Y-130299999D01*
X90000500Y-130299999D01*
X90000500Y-127750000D01*
X101594318Y-127750000D01*
X101614955Y-127906761D01*
X101675464Y-128052841D01*
X101771717Y-128178282D01*
X101867970Y-128252139D01*
X101897159Y-128274536D01*
X102043238Y-128335044D01*
X102200000Y-128355682D01*
X102356762Y-128335044D01*
X102502841Y-128274536D01*
X102628282Y-128178282D01*
X102724536Y-128052841D01*
X102785044Y-127906762D01*
X102805682Y-127750000D01*
X102785044Y-127593238D01*
X102724536Y-127447159D01*
X102671060Y-127377467D01*
X102628282Y-127321717D01*
X102502841Y-127225464D01*
X102356761Y-127164955D01*
X102220636Y-127147034D01*
X102200000Y-127144318D01*
X102199999Y-127144318D01*
X102043238Y-127164955D01*
X101897158Y-127225464D01*
X101771717Y-127321717D01*
X101675464Y-127447158D01*
X101614955Y-127593238D01*
X101594318Y-127750000D01*
X90000500Y-127750000D01*
X90000500Y-123000000D01*
X103465072Y-123000000D01*
X103482689Y-123122530D01*
X103534116Y-123235141D01*
X103615181Y-123328694D01*
X103615183Y-123328696D01*
X103719325Y-123395624D01*
X103838103Y-123430500D01*
X103961897Y-123430500D01*
X104080675Y-123395624D01*
X104184817Y-123328696D01*
X104243928Y-123260478D01*
X104265883Y-123235141D01*
X104317310Y-123122530D01*
X104334927Y-122999999D01*
X104317310Y-122877469D01*
X104265883Y-122764858D01*
X104184818Y-122671305D01*
X104184817Y-122671304D01*
X104132746Y-122637840D01*
X104080674Y-122604375D01*
X103961897Y-122569500D01*
X103838103Y-122569500D01*
X103719325Y-122604375D01*
X103615181Y-122671305D01*
X103534116Y-122764858D01*
X103482689Y-122877469D01*
X103465072Y-123000000D01*
X90000500Y-123000000D01*
X90000500Y-120999999D01*
X107065072Y-120999999D01*
X107082689Y-121122530D01*
X107134116Y-121235141D01*
X107211257Y-121324165D01*
X107215183Y-121328696D01*
X107319325Y-121395624D01*
X107438103Y-121430500D01*
X107561897Y-121430500D01*
X107680675Y-121395624D01*
X107784817Y-121328696D01*
X107825350Y-121281917D01*
X107865883Y-121235141D01*
X107917310Y-121122530D01*
X107934927Y-121000000D01*
X107917310Y-120877469D01*
X107865883Y-120764858D01*
X107784818Y-120671305D01*
X107784817Y-120671304D01*
X107732745Y-120637840D01*
X107680674Y-120604375D01*
X107561897Y-120569500D01*
X107438103Y-120569500D01*
X107319325Y-120604375D01*
X107215181Y-120671305D01*
X107134116Y-120764858D01*
X107082689Y-120877469D01*
X107065072Y-120999999D01*
X90000500Y-120999999D01*
X90000500Y-119600000D01*
X102194318Y-119600000D01*
X102214955Y-119756761D01*
X102275464Y-119902841D01*
X102371717Y-120028282D01*
X102467970Y-120102139D01*
X102497159Y-120124536D01*
X102643238Y-120185044D01*
X102800000Y-120205682D01*
X102956762Y-120185044D01*
X103102841Y-120124536D01*
X103228282Y-120028282D01*
X103253018Y-119996045D01*
X104311117Y-119996045D01*
X104328734Y-120118575D01*
X104380161Y-120231186D01*
X104461226Y-120324739D01*
X104461228Y-120324741D01*
X104565370Y-120391669D01*
X104684148Y-120426545D01*
X104807942Y-120426545D01*
X104926720Y-120391669D01*
X105030862Y-120324741D01*
X105095626Y-120249999D01*
X105111928Y-120231186D01*
X105133000Y-120185044D01*
X105163354Y-120118578D01*
X105163354Y-120118576D01*
X105163355Y-120118575D01*
X105180403Y-120000000D01*
X106065072Y-120000000D01*
X106082689Y-120122530D01*
X106134116Y-120235141D01*
X106211754Y-120324739D01*
X106215183Y-120328696D01*
X106319325Y-120395624D01*
X106438103Y-120430500D01*
X106561897Y-120430500D01*
X106680675Y-120395624D01*
X106784817Y-120328696D01*
X106853008Y-120249999D01*
X106865883Y-120235141D01*
X106888761Y-120185044D01*
X106917309Y-120122533D01*
X106917309Y-120122531D01*
X106917310Y-120122530D01*
X106934927Y-120000000D01*
X106917310Y-119877469D01*
X106865883Y-119764858D01*
X106784818Y-119671305D01*
X106784817Y-119671304D01*
X106732745Y-119637840D01*
X106680674Y-119604375D01*
X106561897Y-119569500D01*
X106438103Y-119569500D01*
X106319325Y-119604375D01*
X106215181Y-119671305D01*
X106134116Y-119764858D01*
X106082689Y-119877469D01*
X106065072Y-120000000D01*
X105180403Y-120000000D01*
X105180972Y-119996045D01*
X105163355Y-119873514D01*
X105111928Y-119760903D01*
X105030863Y-119667350D01*
X105030862Y-119667349D01*
X104978791Y-119633884D01*
X104926719Y-119600420D01*
X104807942Y-119565545D01*
X104684148Y-119565545D01*
X104565370Y-119600420D01*
X104461226Y-119667350D01*
X104380161Y-119760903D01*
X104328734Y-119873514D01*
X104311117Y-119996045D01*
X103253018Y-119996045D01*
X103324536Y-119902841D01*
X103385044Y-119756762D01*
X103405682Y-119600000D01*
X103405681Y-119599995D01*
X103406738Y-119591970D01*
X103433078Y-119536745D01*
X103486849Y-119507549D01*
X103491970Y-119506738D01*
X103499995Y-119505681D01*
X103500000Y-119505682D01*
X103656762Y-119485044D01*
X103802841Y-119424536D01*
X103928282Y-119328282D01*
X104024536Y-119202841D01*
X104085044Y-119056762D01*
X104105682Y-118900000D01*
X104085044Y-118743238D01*
X104024536Y-118597159D01*
X104002139Y-118567970D01*
X103928282Y-118471717D01*
X103802841Y-118375464D01*
X103656761Y-118314955D01*
X103500000Y-118294318D01*
X103343238Y-118314955D01*
X103197158Y-118375464D01*
X103071717Y-118471717D01*
X102975464Y-118597158D01*
X102914955Y-118743238D01*
X102893261Y-118908030D01*
X102866920Y-118963255D01*
X102813150Y-118992450D01*
X102808030Y-118993261D01*
X102800000Y-118994318D01*
X102784814Y-118996317D01*
X102643238Y-119014955D01*
X102497158Y-119075464D01*
X102371717Y-119171717D01*
X102275464Y-119297158D01*
X102214955Y-119443238D01*
X102194318Y-119600000D01*
X90000500Y-119600000D01*
X90000500Y-116425000D01*
X92590072Y-116425000D01*
X92607689Y-116547530D01*
X92659116Y-116660141D01*
X92740181Y-116753694D01*
X92740183Y-116753696D01*
X92844325Y-116820624D01*
X92963103Y-116855500D01*
X93086897Y-116855500D01*
X93205675Y-116820624D01*
X93309817Y-116753696D01*
X93350350Y-116706917D01*
X93390883Y-116660141D01*
X93442310Y-116547530D01*
X93459927Y-116424999D01*
X93442310Y-116302469D01*
X93390883Y-116189858D01*
X93309818Y-116096305D01*
X93309817Y-116096304D01*
X93257745Y-116062840D01*
X93205674Y-116029375D01*
X93105625Y-115999999D01*
X110315072Y-115999999D01*
X110332689Y-116122530D01*
X110384116Y-116235141D01*
X110442457Y-116302469D01*
X110465183Y-116328696D01*
X110569325Y-116395624D01*
X110688103Y-116430500D01*
X110811897Y-116430500D01*
X110930675Y-116395624D01*
X111034817Y-116328696D01*
X111075350Y-116281917D01*
X111115883Y-116235141D01*
X111115884Y-116235139D01*
X111167309Y-116122533D01*
X111167309Y-116122531D01*
X111167310Y-116122530D01*
X111184927Y-116000000D01*
X111167310Y-115877469D01*
X111115883Y-115764858D01*
X111034818Y-115671305D01*
X111034817Y-115671304D01*
X110982745Y-115637840D01*
X110930674Y-115604375D01*
X110811897Y-115569500D01*
X110688103Y-115569500D01*
X110569325Y-115604375D01*
X110465181Y-115671305D01*
X110384116Y-115764858D01*
X110332689Y-115877469D01*
X110315072Y-115999999D01*
X93105625Y-115999999D01*
X93086897Y-115994500D01*
X92963103Y-115994500D01*
X92844325Y-116029375D01*
X92740181Y-116096305D01*
X92659116Y-116189858D01*
X92607689Y-116302469D01*
X92590072Y-116425000D01*
X90000500Y-116425000D01*
X90000500Y-114000000D01*
X108265072Y-114000000D01*
X108282689Y-114122530D01*
X108334116Y-114235141D01*
X108415181Y-114328694D01*
X108415183Y-114328696D01*
X108519325Y-114395624D01*
X108638103Y-114430500D01*
X108761897Y-114430500D01*
X108880675Y-114395624D01*
X108984817Y-114328696D01*
X109025350Y-114281917D01*
X109065883Y-114235141D01*
X109117310Y-114122530D01*
X109134927Y-114000000D01*
X109117310Y-113877469D01*
X109065883Y-113764858D01*
X108984818Y-113671305D01*
X108984817Y-113671304D01*
X108932745Y-113637840D01*
X108880674Y-113604375D01*
X108761897Y-113569500D01*
X108638103Y-113569500D01*
X108519325Y-113604375D01*
X108415181Y-113671305D01*
X108334116Y-113764858D01*
X108282689Y-113877469D01*
X108265072Y-114000000D01*
X90000500Y-114000000D01*
X90000500Y-111499999D01*
X100065072Y-111499999D01*
X100082689Y-111622530D01*
X100134116Y-111735141D01*
X100215181Y-111828694D01*
X100215183Y-111828696D01*
X100319325Y-111895624D01*
X100438103Y-111930500D01*
X100561897Y-111930500D01*
X100680675Y-111895624D01*
X100784817Y-111828696D01*
X100809682Y-111799999D01*
X103665072Y-111799999D01*
X103682689Y-111922530D01*
X103734116Y-112035141D01*
X103810924Y-112123781D01*
X103815183Y-112128696D01*
X103919325Y-112195624D01*
X103991044Y-112216682D01*
X104041551Y-112251217D01*
X104062113Y-112308844D01*
X104053207Y-112352797D01*
X104007690Y-112452467D01*
X103990072Y-112574999D01*
X104007689Y-112697530D01*
X104059116Y-112810141D01*
X104140181Y-112903694D01*
X104140183Y-112903696D01*
X104244325Y-112970624D01*
X104363103Y-113005500D01*
X104486897Y-113005500D01*
X104605675Y-112970624D01*
X104709817Y-112903696D01*
X104750350Y-112856917D01*
X104790883Y-112810141D01*
X104842310Y-112697530D01*
X104859927Y-112575000D01*
X104842310Y-112452469D01*
X104790883Y-112339858D01*
X104709818Y-112246305D01*
X104709817Y-112246304D01*
X104657746Y-112212839D01*
X104605674Y-112179375D01*
X104533955Y-112158317D01*
X104483448Y-112123781D01*
X104462886Y-112066154D01*
X104471791Y-112022203D01*
X104517309Y-111922533D01*
X104517309Y-111922531D01*
X104517310Y-111922530D01*
X104534927Y-111800000D01*
X104517310Y-111677469D01*
X104465883Y-111564858D01*
X104384818Y-111471305D01*
X104384817Y-111471304D01*
X104332745Y-111437840D01*
X104280674Y-111404375D01*
X104161897Y-111369500D01*
X104038103Y-111369500D01*
X103919325Y-111404375D01*
X103815181Y-111471305D01*
X103734116Y-111564858D01*
X103682689Y-111677469D01*
X103665072Y-111799999D01*
X100809682Y-111799999D01*
X100825350Y-111781917D01*
X100865883Y-111735141D01*
X100892221Y-111677469D01*
X100917309Y-111622533D01*
X100917309Y-111622531D01*
X100917310Y-111622530D01*
X100934927Y-111500000D01*
X100917310Y-111377469D01*
X100865883Y-111264858D01*
X100784818Y-111171305D01*
X100784817Y-111171304D01*
X100728543Y-111135139D01*
X100680674Y-111104375D01*
X100561897Y-111069500D01*
X100438103Y-111069500D01*
X100319325Y-111104375D01*
X100215181Y-111171305D01*
X100134116Y-111264858D01*
X100082689Y-111377469D01*
X100065072Y-111499999D01*
X90000500Y-111499999D01*
X90000500Y-110899999D01*
X105165072Y-110899999D01*
X105182689Y-111022530D01*
X105234116Y-111135141D01*
X105315181Y-111228694D01*
X105315183Y-111228696D01*
X105419325Y-111295624D01*
X105538103Y-111330500D01*
X105661897Y-111330500D01*
X105780675Y-111295624D01*
X105884817Y-111228696D01*
X105934547Y-111171304D01*
X105965883Y-111135141D01*
X106017310Y-111022530D01*
X106034927Y-110900000D01*
X106017310Y-110777469D01*
X105965883Y-110664858D01*
X105884818Y-110571305D01*
X105884817Y-110571304D01*
X105832745Y-110537840D01*
X105780674Y-110504375D01*
X105661897Y-110469500D01*
X105538103Y-110469500D01*
X105419325Y-110504375D01*
X105315181Y-110571305D01*
X105234116Y-110664858D01*
X105182689Y-110777469D01*
X105165072Y-110899999D01*
X90000500Y-110899999D01*
X90000500Y-109899999D01*
X108165072Y-109899999D01*
X108182689Y-110022530D01*
X108234116Y-110135141D01*
X108315181Y-110228694D01*
X108315183Y-110228696D01*
X108419325Y-110295624D01*
X108538103Y-110330500D01*
X108661897Y-110330500D01*
X108780675Y-110295624D01*
X108884817Y-110228696D01*
X108925350Y-110181917D01*
X108965883Y-110135141D01*
X109017310Y-110022530D01*
X109034927Y-109899999D01*
X109017310Y-109777469D01*
X108965883Y-109664858D01*
X108884818Y-109571305D01*
X108884817Y-109571304D01*
X108851667Y-109550000D01*
X118115072Y-109550000D01*
X118132689Y-109672530D01*
X118184116Y-109785141D01*
X118226976Y-109834603D01*
X118265183Y-109878696D01*
X118369325Y-109945624D01*
X118488103Y-109980500D01*
X118611897Y-109980500D01*
X118730675Y-109945624D01*
X118834817Y-109878696D01*
X118850181Y-109860963D01*
X118902575Y-109829368D01*
X118963536Y-109834603D01*
X118999817Y-109860963D01*
X119015183Y-109878696D01*
X119119325Y-109945624D01*
X119238103Y-109980500D01*
X119361897Y-109980500D01*
X119480675Y-109945624D01*
X119584817Y-109878696D01*
X119648084Y-109805682D01*
X119665883Y-109785141D01*
X119693560Y-109724536D01*
X119717309Y-109672533D01*
X119717309Y-109672531D01*
X119717310Y-109672530D01*
X119734927Y-109550000D01*
X119717310Y-109427469D01*
X119665883Y-109314858D01*
X119584818Y-109221305D01*
X119584817Y-109221304D01*
X119532745Y-109187840D01*
X119480674Y-109154375D01*
X119361897Y-109119500D01*
X119238103Y-109119500D01*
X119119325Y-109154375D01*
X119048333Y-109200000D01*
X119015183Y-109221304D01*
X119015182Y-109221304D01*
X119015182Y-109221305D01*
X118999817Y-109239037D01*
X118947420Y-109270632D01*
X118886459Y-109265394D01*
X118850181Y-109239035D01*
X118834817Y-109221304D01*
X118730674Y-109154375D01*
X118611897Y-109119500D01*
X118488103Y-109119500D01*
X118369325Y-109154375D01*
X118265181Y-109221305D01*
X118184116Y-109314858D01*
X118132689Y-109427469D01*
X118115072Y-109550000D01*
X108851667Y-109550000D01*
X108832745Y-109537840D01*
X108780674Y-109504375D01*
X108661897Y-109469500D01*
X108538103Y-109469500D01*
X108419325Y-109504375D01*
X108315181Y-109571305D01*
X108234116Y-109664858D01*
X108182689Y-109777469D01*
X108165072Y-109899999D01*
X90000500Y-109899999D01*
X90000500Y-109200000D01*
X94394318Y-109200000D01*
X94414955Y-109356761D01*
X94475464Y-109502841D01*
X94571717Y-109628282D01*
X94629383Y-109672530D01*
X94697159Y-109724536D01*
X94843238Y-109785044D01*
X95000000Y-109805682D01*
X95156762Y-109785044D01*
X95302841Y-109724536D01*
X95428282Y-109628282D01*
X95524536Y-109502841D01*
X95585044Y-109356762D01*
X95605682Y-109200000D01*
X95585044Y-109043238D01*
X95524536Y-108897159D01*
X95502139Y-108867970D01*
X95428282Y-108771717D01*
X95302841Y-108675464D01*
X95156761Y-108614955D01*
X95000000Y-108594318D01*
X94843238Y-108614955D01*
X94697158Y-108675464D01*
X94571717Y-108771717D01*
X94475464Y-108897158D01*
X94414955Y-109043238D01*
X94394318Y-109200000D01*
X90000500Y-109200000D01*
X90000500Y-107500000D01*
X94394318Y-107500000D01*
X94414955Y-107656761D01*
X94475464Y-107802841D01*
X94571717Y-107928282D01*
X94667970Y-108002139D01*
X94697159Y-108024536D01*
X94843238Y-108085044D01*
X95000000Y-108105682D01*
X95156762Y-108085044D01*
X95302841Y-108024536D01*
X95428282Y-107928282D01*
X95524536Y-107802841D01*
X95585044Y-107656762D01*
X95605682Y-107500000D01*
X95605682Y-107499999D01*
X115364416Y-107499999D01*
X115384699Y-107705933D01*
X115414096Y-107802841D01*
X115444768Y-107903954D01*
X115542315Y-108086450D01*
X115673590Y-108246410D01*
X115833550Y-108377685D01*
X116016046Y-108475232D01*
X116214065Y-108535299D01*
X116214066Y-108535300D01*
X116419999Y-108555583D01*
X116419999Y-108555582D01*
X116420000Y-108555583D01*
X116625934Y-108535300D01*
X116823954Y-108475232D01*
X117006450Y-108377685D01*
X117166410Y-108246410D01*
X117297685Y-108086450D01*
X117395232Y-107903954D01*
X117455300Y-107705934D01*
X117475583Y-107500000D01*
X117475583Y-107499999D01*
X117904416Y-107499999D01*
X117924699Y-107705933D01*
X117954096Y-107802841D01*
X117984768Y-107903954D01*
X118082315Y-108086450D01*
X118213590Y-108246410D01*
X118373550Y-108377685D01*
X118556046Y-108475232D01*
X118754066Y-108535299D01*
X118754066Y-108535300D01*
X118959999Y-108555583D01*
X118959999Y-108555582D01*
X118960000Y-108555583D01*
X119165934Y-108535300D01*
X119363954Y-108475232D01*
X119546450Y-108377685D01*
X119706410Y-108246410D01*
X119837685Y-108086450D01*
X119935232Y-107903954D01*
X119995300Y-107705934D01*
X120015583Y-107500000D01*
X120015583Y-107499999D01*
X120444416Y-107499999D01*
X120464699Y-107705933D01*
X120494096Y-107802841D01*
X120524768Y-107903954D01*
X120622315Y-108086450D01*
X120753590Y-108246410D01*
X120913550Y-108377685D01*
X121096046Y-108475232D01*
X121294066Y-108535300D01*
X121500000Y-108555583D01*
X121705934Y-108535300D01*
X121903954Y-108475232D01*
X122086450Y-108377685D01*
X122096124Y-108369746D01*
X122989500Y-108369746D01*
X123001133Y-108428231D01*
X123045447Y-108494552D01*
X123089761Y-108524162D01*
X123111769Y-108538867D01*
X123170252Y-108550500D01*
X123170253Y-108550500D01*
X124909747Y-108550500D01*
X124909748Y-108550500D01*
X124968231Y-108538867D01*
X125034552Y-108494552D01*
X125078867Y-108428231D01*
X125090500Y-108369748D01*
X125090500Y-106630252D01*
X125078867Y-106571769D01*
X125064162Y-106549761D01*
X125034552Y-106505447D01*
X124968231Y-106461133D01*
X124909748Y-106449500D01*
X123170252Y-106449500D01*
X123141010Y-106455316D01*
X123111768Y-106461133D01*
X123045447Y-106505447D01*
X123001133Y-106571768D01*
X122989500Y-106630253D01*
X122989500Y-108369746D01*
X122096124Y-108369746D01*
X122246410Y-108246410D01*
X122377685Y-108086450D01*
X122475232Y-107903954D01*
X122535300Y-107705934D01*
X122555583Y-107500000D01*
X122535300Y-107294066D01*
X122475232Y-107096046D01*
X122377685Y-106913550D01*
X122246410Y-106753590D01*
X122086450Y-106622315D01*
X121903954Y-106524768D01*
X121903953Y-106524767D01*
X121903952Y-106524767D01*
X121705933Y-106464699D01*
X121500000Y-106444416D01*
X121294066Y-106464699D01*
X121096047Y-106524767D01*
X120913549Y-106622315D01*
X120753590Y-106753590D01*
X120622315Y-106913549D01*
X120524767Y-107096047D01*
X120464699Y-107294066D01*
X120444416Y-107499999D01*
X120015583Y-107499999D01*
X119995300Y-107294066D01*
X119935232Y-107096046D01*
X119837685Y-106913550D01*
X119706410Y-106753590D01*
X119546450Y-106622315D01*
X119363954Y-106524768D01*
X119363953Y-106524767D01*
X119363952Y-106524767D01*
X119165933Y-106464699D01*
X118960000Y-106444416D01*
X118754066Y-106464699D01*
X118556047Y-106524767D01*
X118373549Y-106622315D01*
X118213590Y-106753590D01*
X118082315Y-106913549D01*
X117984767Y-107096047D01*
X117924699Y-107294066D01*
X117904416Y-107499999D01*
X117475583Y-107499999D01*
X117455300Y-107294066D01*
X117395232Y-107096046D01*
X117297685Y-106913550D01*
X117166410Y-106753590D01*
X117006450Y-106622315D01*
X116823954Y-106524768D01*
X116823953Y-106524767D01*
X116823952Y-106524767D01*
X116625933Y-106464699D01*
X116419999Y-106444416D01*
X116214066Y-106464699D01*
X116016047Y-106524767D01*
X115833549Y-106622315D01*
X115673590Y-106753590D01*
X115542315Y-106913549D01*
X115444767Y-107096047D01*
X115384699Y-107294066D01*
X115364416Y-107499999D01*
X95605682Y-107499999D01*
X95585044Y-107343238D01*
X95524536Y-107197159D01*
X95502139Y-107167970D01*
X95428282Y-107071717D01*
X95302841Y-106975464D01*
X95156761Y-106914955D01*
X95000000Y-106894318D01*
X94843238Y-106914955D01*
X94697158Y-106975464D01*
X94571717Y-107071717D01*
X94475464Y-107197158D01*
X94414955Y-107343238D01*
X94394318Y-107500000D01*
X90000500Y-107500000D01*
X90000500Y-105700000D01*
X99994318Y-105700000D01*
X100014955Y-105856761D01*
X100075464Y-106002841D01*
X100171717Y-106128282D01*
X100267970Y-106202139D01*
X100297159Y-106224536D01*
X100443238Y-106285044D01*
X100600000Y-106305682D01*
X100756762Y-106285044D01*
X100902841Y-106224536D01*
X101028282Y-106128282D01*
X101124536Y-106002841D01*
X101185044Y-105856762D01*
X101205682Y-105700000D01*
X101185044Y-105543238D01*
X101124536Y-105397159D01*
X101102139Y-105367971D01*
X101028282Y-105271717D01*
X100902841Y-105175464D01*
X100756761Y-105114955D01*
X100600000Y-105094318D01*
X100443238Y-105114955D01*
X100297158Y-105175464D01*
X100171717Y-105271717D01*
X100075464Y-105397158D01*
X100014955Y-105543238D01*
X99994318Y-105700000D01*
X90000500Y-105700000D01*
X90000500Y-102250000D01*
X91032842Y-102250000D01*
X91051426Y-102438682D01*
X91106462Y-102620116D01*
X91195835Y-102787319D01*
X91195838Y-102787324D01*
X91316117Y-102933883D01*
X91462676Y-103054162D01*
X91462680Y-103054164D01*
X91629884Y-103143537D01*
X91669399Y-103155524D01*
X91719596Y-103190509D01*
X91739642Y-103248317D01*
X91721881Y-103306868D01*
X91673096Y-103343797D01*
X91669400Y-103344998D01*
X91630075Y-103356927D01*
X91519555Y-103416001D01*
X91972554Y-103869000D01*
X91968431Y-103869000D01*
X91874579Y-103884661D01*
X91762749Y-103945180D01*
X91676629Y-104038731D01*
X91625552Y-104155177D01*
X91619894Y-104223448D01*
X91166001Y-103769555D01*
X91106926Y-103880076D01*
X91051918Y-104061416D01*
X91033344Y-104249999D01*
X91051918Y-104438583D01*
X91106926Y-104619921D01*
X91166001Y-104730443D01*
X91615096Y-104281347D01*
X91615051Y-104281898D01*
X91646266Y-104405162D01*
X91715813Y-104511612D01*
X91816157Y-104589713D01*
X91936422Y-104631000D01*
X91972552Y-104631000D01*
X91519555Y-105083997D01*
X91630078Y-105143074D01*
X91811416Y-105198081D01*
X91999999Y-105216655D01*
X92188583Y-105198081D01*
X92369921Y-105143074D01*
X92480443Y-105083997D01*
X92027446Y-104631000D01*
X92031569Y-104631000D01*
X92125421Y-104615339D01*
X92237251Y-104554820D01*
X92323371Y-104461269D01*
X92374448Y-104344823D01*
X92380105Y-104276551D01*
X92833997Y-104730443D01*
X92893074Y-104619921D01*
X92948081Y-104438583D01*
X92966655Y-104249999D01*
X92948081Y-104061416D01*
X92893074Y-103880078D01*
X92833997Y-103769555D01*
X92384903Y-104218648D01*
X92384949Y-104218102D01*
X92353734Y-104094838D01*
X92284187Y-103988388D01*
X92183843Y-103910287D01*
X92063578Y-103869000D01*
X92027444Y-103869000D01*
X92480443Y-103416001D01*
X92369921Y-103356926D01*
X92330600Y-103344998D01*
X92280403Y-103310013D01*
X92260357Y-103252205D01*
X92278118Y-103193654D01*
X92326903Y-103156725D01*
X92330600Y-103155524D01*
X92370116Y-103143537D01*
X92458527Y-103096280D01*
X92537324Y-103054162D01*
X92683883Y-102933883D01*
X92804162Y-102787324D01*
X92888521Y-102629500D01*
X92893537Y-102620116D01*
X92948573Y-102438682D01*
X92967157Y-102250000D01*
X92967157Y-102249999D01*
X96032842Y-102249999D01*
X96051426Y-102438682D01*
X96106462Y-102620116D01*
X96195835Y-102787319D01*
X96195838Y-102787324D01*
X96316117Y-102933883D01*
X96462676Y-103054162D01*
X96462680Y-103054164D01*
X96629884Y-103143537D01*
X96669399Y-103155524D01*
X96719596Y-103190509D01*
X96739642Y-103248317D01*
X96721881Y-103306868D01*
X96673096Y-103343797D01*
X96669400Y-103344998D01*
X96630075Y-103356927D01*
X96519555Y-103416001D01*
X96972554Y-103869000D01*
X96968431Y-103869000D01*
X96874579Y-103884661D01*
X96762749Y-103945180D01*
X96676629Y-104038731D01*
X96625552Y-104155177D01*
X96619894Y-104223448D01*
X96166001Y-103769555D01*
X96106926Y-103880076D01*
X96051918Y-104061416D01*
X96033344Y-104249999D01*
X96051918Y-104438583D01*
X96106926Y-104619921D01*
X96166001Y-104730443D01*
X96615096Y-104281347D01*
X96615051Y-104281898D01*
X96646266Y-104405162D01*
X96715813Y-104511612D01*
X96816157Y-104589713D01*
X96936422Y-104631000D01*
X96972552Y-104631000D01*
X96519555Y-105083997D01*
X96630078Y-105143074D01*
X96811416Y-105198081D01*
X97000000Y-105216655D01*
X97188583Y-105198081D01*
X97369921Y-105143074D01*
X97480443Y-105083997D01*
X97027446Y-104631000D01*
X97031569Y-104631000D01*
X97125421Y-104615339D01*
X97237251Y-104554820D01*
X97323371Y-104461269D01*
X97374448Y-104344823D01*
X97380105Y-104276551D01*
X97833997Y-104730443D01*
X97893074Y-104619921D01*
X97937831Y-104472372D01*
X101979500Y-104472372D01*
X101979859Y-104475334D01*
X101979860Y-104475339D01*
X101994859Y-104598870D01*
X101994860Y-104598872D01*
X102055182Y-104757930D01*
X102104029Y-104828696D01*
X102151818Y-104897930D01*
X102279145Y-105010733D01*
X102357864Y-105052048D01*
X102429775Y-105089790D01*
X102512359Y-105110144D01*
X102594943Y-105130500D01*
X102594944Y-105130500D01*
X102765057Y-105130500D01*
X102828125Y-105114955D01*
X102930225Y-105089790D01*
X103080852Y-105010734D01*
X103080851Y-105010734D01*
X103080854Y-105010733D01*
X103144517Y-104954331D01*
X103208183Y-104897929D01*
X103304818Y-104757930D01*
X103365140Y-104598872D01*
X103377145Y-104499999D01*
X104165072Y-104499999D01*
X104182689Y-104622530D01*
X104234116Y-104735141D01*
X104315181Y-104828694D01*
X104315183Y-104828696D01*
X104419325Y-104895624D01*
X104538103Y-104930500D01*
X104661897Y-104930500D01*
X104780675Y-104895624D01*
X104884817Y-104828696D01*
X104946136Y-104757930D01*
X104965883Y-104735141D01*
X104965884Y-104735139D01*
X105017309Y-104622533D01*
X105017309Y-104622531D01*
X105017310Y-104622530D01*
X105034927Y-104500000D01*
X105034927Y-104499999D01*
X108965072Y-104499999D01*
X108982689Y-104622530D01*
X109034116Y-104735141D01*
X109115181Y-104828694D01*
X109115183Y-104828696D01*
X109219325Y-104895624D01*
X109338103Y-104930500D01*
X109461897Y-104930500D01*
X109580675Y-104895624D01*
X109684817Y-104828696D01*
X109746136Y-104757930D01*
X109765883Y-104735141D01*
X109765884Y-104735139D01*
X109817309Y-104622533D01*
X109817309Y-104622531D01*
X109817310Y-104622530D01*
X109834927Y-104500000D01*
X109830955Y-104472372D01*
X110619500Y-104472372D01*
X110619859Y-104475334D01*
X110619860Y-104475339D01*
X110634859Y-104598870D01*
X110634860Y-104598872D01*
X110695182Y-104757930D01*
X110744029Y-104828696D01*
X110791818Y-104897930D01*
X110919145Y-105010733D01*
X110997864Y-105052048D01*
X111069775Y-105089790D01*
X111152359Y-105110144D01*
X111234943Y-105130500D01*
X111234944Y-105130500D01*
X111405057Y-105130500D01*
X111468125Y-105114955D01*
X111570225Y-105089790D01*
X111720852Y-105010734D01*
X111720851Y-105010734D01*
X111720854Y-105010733D01*
X111784517Y-104954331D01*
X111848183Y-104897929D01*
X111944818Y-104757930D01*
X111947825Y-104750000D01*
X115544357Y-104750000D01*
X115564885Y-104971536D01*
X115610114Y-105130500D01*
X115625772Y-105185530D01*
X115724940Y-105384686D01*
X115724941Y-105384687D01*
X115724942Y-105384689D01*
X115859019Y-105562236D01*
X116023438Y-105712124D01*
X116212599Y-105829247D01*
X116420060Y-105909618D01*
X116420063Y-105909619D01*
X116638755Y-105950500D01*
X116638757Y-105950500D01*
X116861245Y-105950500D01*
X117079936Y-105909619D01*
X117079937Y-105909618D01*
X117079940Y-105909618D01*
X117287401Y-105829247D01*
X117476562Y-105712124D01*
X117640981Y-105562236D01*
X117775058Y-105384689D01*
X117874229Y-105185528D01*
X117935115Y-104971536D01*
X117955643Y-104750000D01*
X122044357Y-104750000D01*
X122064885Y-104971536D01*
X122110114Y-105130500D01*
X122125772Y-105185530D01*
X122224940Y-105384686D01*
X122224941Y-105384687D01*
X122224942Y-105384689D01*
X122359019Y-105562236D01*
X122523438Y-105712124D01*
X122712599Y-105829247D01*
X122920060Y-105909618D01*
X122920063Y-105909619D01*
X123138755Y-105950500D01*
X123138757Y-105950500D01*
X123361245Y-105950500D01*
X123579936Y-105909619D01*
X123579937Y-105909618D01*
X123579940Y-105909618D01*
X123787401Y-105829247D01*
X123976562Y-105712124D01*
X124140981Y-105562236D01*
X124275058Y-105384689D01*
X124374229Y-105185528D01*
X124435115Y-104971536D01*
X124455643Y-104750000D01*
X124435115Y-104528464D01*
X124374229Y-104314472D01*
X124275058Y-104115311D01*
X124140981Y-103937764D01*
X123976562Y-103787876D01*
X123787401Y-103670753D01*
X123787399Y-103670752D01*
X123579936Y-103590380D01*
X123361245Y-103549500D01*
X123361243Y-103549500D01*
X123138757Y-103549500D01*
X123138755Y-103549500D01*
X122920063Y-103590380D01*
X122712600Y-103670752D01*
X122523436Y-103787877D01*
X122359020Y-103937763D01*
X122224940Y-104115313D01*
X122125772Y-104314469D01*
X122125771Y-104314472D01*
X122064885Y-104528464D01*
X122044357Y-104750000D01*
X117955643Y-104750000D01*
X117935115Y-104528464D01*
X117874229Y-104314472D01*
X117775058Y-104115311D01*
X117640981Y-103937764D01*
X117476562Y-103787876D01*
X117287401Y-103670753D01*
X117287399Y-103670752D01*
X117079936Y-103590380D01*
X116861245Y-103549500D01*
X116861243Y-103549500D01*
X116638757Y-103549500D01*
X116638755Y-103549500D01*
X116420063Y-103590380D01*
X116212600Y-103670752D01*
X116023436Y-103787877D01*
X115859020Y-103937763D01*
X115724940Y-104115313D01*
X115625772Y-104314469D01*
X115625771Y-104314472D01*
X115564885Y-104528464D01*
X115544357Y-104750000D01*
X111947825Y-104750000D01*
X112005140Y-104598872D01*
X112020500Y-104472372D01*
X112020500Y-103287628D01*
X112005140Y-103161128D01*
X111944818Y-103002070D01*
X111848183Y-102862071D01*
X111848181Y-102862069D01*
X111720854Y-102749266D01*
X111570223Y-102670209D01*
X111405057Y-102629500D01*
X111405056Y-102629500D01*
X111234944Y-102629500D01*
X111234943Y-102629500D01*
X111069776Y-102670209D01*
X110919145Y-102749266D01*
X110791818Y-102862069D01*
X110695182Y-103002070D01*
X110634859Y-103161129D01*
X110619860Y-103284660D01*
X110619500Y-103287628D01*
X110619500Y-104472372D01*
X109830955Y-104472372D01*
X109817310Y-104377469D01*
X109765883Y-104264858D01*
X109684818Y-104171305D01*
X109684817Y-104171304D01*
X109632745Y-104137840D01*
X109580674Y-104104375D01*
X109461897Y-104069500D01*
X109338103Y-104069500D01*
X109219325Y-104104375D01*
X109115181Y-104171305D01*
X109034116Y-104264858D01*
X108982689Y-104377469D01*
X108965072Y-104499999D01*
X105034927Y-104499999D01*
X105017310Y-104377469D01*
X104965883Y-104264858D01*
X104884818Y-104171305D01*
X104884817Y-104171304D01*
X104832745Y-104137840D01*
X104780674Y-104104375D01*
X104661897Y-104069500D01*
X104538103Y-104069500D01*
X104419325Y-104104375D01*
X104315181Y-104171305D01*
X104234116Y-104264858D01*
X104182689Y-104377469D01*
X104165072Y-104499999D01*
X103377145Y-104499999D01*
X103380500Y-104472372D01*
X103380500Y-103416199D01*
X103580795Y-103416199D01*
X103610185Y-103557634D01*
X103676646Y-103685895D01*
X103722637Y-103735140D01*
X103775245Y-103791469D01*
X103898672Y-103866526D01*
X104037772Y-103905500D01*
X104037773Y-103905500D01*
X104142570Y-103905500D01*
X104145949Y-103905500D01*
X104253111Y-103890771D01*
X104385609Y-103833219D01*
X104497665Y-103742054D01*
X104580971Y-103624037D01*
X104615536Y-103526780D01*
X106315072Y-103526780D01*
X106332689Y-103649310D01*
X106384116Y-103761921D01*
X106445897Y-103833219D01*
X106465183Y-103855476D01*
X106569325Y-103922404D01*
X106688103Y-103957280D01*
X106811897Y-103957280D01*
X106930675Y-103922404D01*
X107034817Y-103855476D01*
X107115884Y-103761919D01*
X107166061Y-103652044D01*
X107207431Y-103606968D01*
X107267398Y-103594816D01*
X107323054Y-103620233D01*
X107346168Y-103652045D01*
X107384116Y-103735140D01*
X107465181Y-103828694D01*
X107465183Y-103828696D01*
X107569325Y-103895624D01*
X107688103Y-103930500D01*
X107811897Y-103930500D01*
X107930675Y-103895624D01*
X108034817Y-103828696D01*
X108086063Y-103769555D01*
X108115883Y-103735141D01*
X108166622Y-103624037D01*
X108167309Y-103622533D01*
X108167309Y-103622531D01*
X108167310Y-103622530D01*
X108184927Y-103499999D01*
X108172878Y-103416199D01*
X109360795Y-103416199D01*
X109390185Y-103557634D01*
X109456646Y-103685895D01*
X109502637Y-103735140D01*
X109555245Y-103791469D01*
X109678672Y-103866526D01*
X109817772Y-103905500D01*
X109817773Y-103905500D01*
X109922570Y-103905500D01*
X109925949Y-103905500D01*
X110033111Y-103890771D01*
X110165609Y-103833219D01*
X110277665Y-103742054D01*
X110360971Y-103624037D01*
X110409346Y-103487921D01*
X110419204Y-103343801D01*
X110411530Y-103306868D01*
X110389814Y-103202365D01*
X110323353Y-103074104D01*
X110224755Y-102968531D01*
X110101328Y-102893474D01*
X110014796Y-102869229D01*
X109962228Y-102854500D01*
X109854051Y-102854500D01*
X109850704Y-102854959D01*
X109850704Y-102854960D01*
X109746888Y-102869229D01*
X109614390Y-102926780D01*
X109502336Y-103017944D01*
X109419028Y-103135963D01*
X109370653Y-103272080D01*
X109360795Y-103416199D01*
X108172878Y-103416199D01*
X108167310Y-103377469D01*
X108115883Y-103264858D01*
X108034818Y-103171305D01*
X108034817Y-103171304D01*
X107979825Y-103135963D01*
X107930674Y-103104375D01*
X107811897Y-103069500D01*
X107688103Y-103069500D01*
X107569325Y-103104375D01*
X107465181Y-103171305D01*
X107384116Y-103264858D01*
X107333939Y-103374734D01*
X107292567Y-103419812D01*
X107232600Y-103431963D01*
X107176944Y-103406546D01*
X107153831Y-103374734D01*
X107115883Y-103291638D01*
X107034818Y-103198085D01*
X107034817Y-103198084D01*
X106968592Y-103155524D01*
X106930674Y-103131155D01*
X106811897Y-103096280D01*
X106688103Y-103096280D01*
X106569325Y-103131155D01*
X106465181Y-103198085D01*
X106384116Y-103291638D01*
X106332689Y-103404249D01*
X106315072Y-103526780D01*
X104615536Y-103526780D01*
X104629346Y-103487921D01*
X104639204Y-103343801D01*
X104631530Y-103306868D01*
X104609814Y-103202365D01*
X104543353Y-103074104D01*
X104444755Y-102968531D01*
X104321328Y-102893474D01*
X104234796Y-102869229D01*
X104182228Y-102854500D01*
X104074051Y-102854500D01*
X104070704Y-102854959D01*
X104070704Y-102854960D01*
X103966888Y-102869229D01*
X103834390Y-102926780D01*
X103722336Y-103017944D01*
X103639028Y-103135963D01*
X103590653Y-103272080D01*
X103580795Y-103416199D01*
X103380500Y-103416199D01*
X103380500Y-103287628D01*
X103365140Y-103161128D01*
X103304818Y-103002070D01*
X103208183Y-102862071D01*
X103208181Y-102862069D01*
X103080854Y-102749266D01*
X102930223Y-102670209D01*
X102765057Y-102629500D01*
X102765056Y-102629500D01*
X102594944Y-102629500D01*
X102594943Y-102629500D01*
X102429776Y-102670209D01*
X102279145Y-102749266D01*
X102151818Y-102862069D01*
X102055182Y-103002070D01*
X101994859Y-103161129D01*
X101979860Y-103284660D01*
X101979500Y-103287628D01*
X101979500Y-104472372D01*
X97937831Y-104472372D01*
X97948081Y-104438583D01*
X97966655Y-104250000D01*
X97948081Y-104061416D01*
X97893074Y-103880078D01*
X97833997Y-103769555D01*
X97384903Y-104218648D01*
X97384949Y-104218102D01*
X97353734Y-104094838D01*
X97284187Y-103988388D01*
X97183843Y-103910287D01*
X97063578Y-103869000D01*
X97027444Y-103869000D01*
X97480443Y-103416001D01*
X97369921Y-103356926D01*
X97330600Y-103344998D01*
X97280403Y-103310013D01*
X97260357Y-103252205D01*
X97278118Y-103193654D01*
X97326903Y-103156725D01*
X97330600Y-103155524D01*
X97370116Y-103143537D01*
X97458527Y-103096280D01*
X97537324Y-103054162D01*
X97683883Y-102933883D01*
X97804162Y-102787324D01*
X97888521Y-102629500D01*
X97893537Y-102620116D01*
X97948573Y-102438682D01*
X97967157Y-102250000D01*
X97948573Y-102061317D01*
X97893537Y-101879883D01*
X97804164Y-101712680D01*
X97804162Y-101712676D01*
X97683883Y-101566117D01*
X97537324Y-101445838D01*
X97537320Y-101445835D01*
X97537319Y-101445835D01*
X97370116Y-101356463D01*
X97331459Y-101344736D01*
X97281263Y-101309750D01*
X97261217Y-101251942D01*
X97278979Y-101193391D01*
X97327764Y-101156463D01*
X97331411Y-101155277D01*
X97370115Y-101143537D01*
X97537324Y-101054162D01*
X97683883Y-100933883D01*
X97804162Y-100787324D01*
X97858573Y-100685528D01*
X97893537Y-100620116D01*
X97938607Y-100471536D01*
X97948573Y-100438683D01*
X97967157Y-100250000D01*
X97962232Y-100200000D01*
X100965072Y-100200000D01*
X100982689Y-100322530D01*
X101034116Y-100435141D01*
X101115181Y-100528694D01*
X101115183Y-100528696D01*
X101219325Y-100595624D01*
X101338103Y-100630500D01*
X101461897Y-100630500D01*
X101580675Y-100595624D01*
X101684817Y-100528696D01*
X101734347Y-100471535D01*
X101765883Y-100435141D01*
X101823222Y-100309585D01*
X101823933Y-100309909D01*
X101844132Y-100268826D01*
X101898246Y-100240272D01*
X101958809Y-100248979D01*
X102002687Y-100291621D01*
X102007693Y-100302710D01*
X102055182Y-100427930D01*
X102151817Y-100567929D01*
X102151818Y-100567930D01*
X102279145Y-100680733D01*
X102357864Y-100722048D01*
X102429775Y-100759790D01*
X102512359Y-100780144D01*
X102594943Y-100800500D01*
X102594944Y-100800500D01*
X102765057Y-100800500D01*
X102846200Y-100780500D01*
X102930225Y-100759790D01*
X103080852Y-100680734D01*
X103080851Y-100680734D01*
X103080854Y-100680733D01*
X103149277Y-100620115D01*
X103208183Y-100567929D01*
X103304818Y-100427930D01*
X103365140Y-100268872D01*
X103380500Y-100142372D01*
X110619500Y-100142372D01*
X110619859Y-100145334D01*
X110619860Y-100145339D01*
X110634859Y-100268870D01*
X110650300Y-100309585D01*
X110695182Y-100427930D01*
X110791817Y-100567929D01*
X110791818Y-100567930D01*
X110919145Y-100680733D01*
X110997864Y-100722048D01*
X111069775Y-100759790D01*
X111152359Y-100780144D01*
X111234943Y-100800500D01*
X111234944Y-100800500D01*
X111405057Y-100800500D01*
X111486200Y-100780500D01*
X111570225Y-100759790D01*
X111720852Y-100680734D01*
X111720851Y-100680734D01*
X111720854Y-100680733D01*
X111789277Y-100620115D01*
X111848183Y-100567929D01*
X111944818Y-100427930D01*
X111974373Y-100350000D01*
X112215072Y-100350000D01*
X112232689Y-100472530D01*
X112284116Y-100585141D01*
X112365181Y-100678694D01*
X112365183Y-100678696D01*
X112469325Y-100745624D01*
X112588103Y-100780500D01*
X112711897Y-100780500D01*
X112830675Y-100745624D01*
X112934817Y-100678696D01*
X112976579Y-100630500D01*
X113015883Y-100585141D01*
X113067310Y-100472530D01*
X113084927Y-100350000D01*
X113070549Y-100250000D01*
X115544357Y-100250000D01*
X115564885Y-100471536D01*
X115623827Y-100678696D01*
X115625772Y-100685530D01*
X115724940Y-100884686D01*
X115724941Y-100884687D01*
X115724942Y-100884689D01*
X115859019Y-101062236D01*
X116023438Y-101212124D01*
X116212599Y-101329247D01*
X116420060Y-101409618D01*
X116420063Y-101409619D01*
X116638755Y-101450500D01*
X116638757Y-101450500D01*
X116861245Y-101450500D01*
X117079936Y-101409619D01*
X117079937Y-101409618D01*
X117079940Y-101409618D01*
X117287401Y-101329247D01*
X117476562Y-101212124D01*
X117640981Y-101062236D01*
X117775058Y-100884689D01*
X117874229Y-100685528D01*
X117935115Y-100471536D01*
X117955643Y-100250000D01*
X122044357Y-100250000D01*
X122064885Y-100471536D01*
X122123827Y-100678696D01*
X122125772Y-100685530D01*
X122224940Y-100884686D01*
X122224941Y-100884687D01*
X122224942Y-100884689D01*
X122359019Y-101062236D01*
X122523438Y-101212124D01*
X122712599Y-101329247D01*
X122920060Y-101409618D01*
X122920063Y-101409619D01*
X123138755Y-101450500D01*
X123138757Y-101450500D01*
X123361245Y-101450500D01*
X123579936Y-101409619D01*
X123579937Y-101409618D01*
X123579940Y-101409618D01*
X123787401Y-101329247D01*
X123976562Y-101212124D01*
X124140981Y-101062236D01*
X124275058Y-100884689D01*
X124374229Y-100685528D01*
X124435115Y-100471536D01*
X124455643Y-100250000D01*
X124435115Y-100028464D01*
X124374229Y-99814472D01*
X124275058Y-99615311D01*
X124140981Y-99437764D01*
X123976562Y-99287876D01*
X123787401Y-99170753D01*
X123787399Y-99170752D01*
X123579936Y-99090380D01*
X123361245Y-99049500D01*
X123361243Y-99049500D01*
X123138757Y-99049500D01*
X123138755Y-99049500D01*
X122920063Y-99090380D01*
X122712600Y-99170752D01*
X122523436Y-99287877D01*
X122359020Y-99437763D01*
X122224940Y-99615313D01*
X122130798Y-99804376D01*
X122125771Y-99814472D01*
X122064885Y-100028464D01*
X122044357Y-100250000D01*
X117955643Y-100250000D01*
X117935115Y-100028464D01*
X117874229Y-99814472D01*
X117775058Y-99615311D01*
X117640981Y-99437764D01*
X117476562Y-99287876D01*
X117287401Y-99170753D01*
X117287399Y-99170752D01*
X117079936Y-99090380D01*
X116861245Y-99049500D01*
X116861243Y-99049500D01*
X116638757Y-99049500D01*
X116638755Y-99049500D01*
X116420063Y-99090380D01*
X116212600Y-99170752D01*
X116023436Y-99287877D01*
X115859020Y-99437763D01*
X115724940Y-99615313D01*
X115630798Y-99804376D01*
X115625771Y-99814472D01*
X115564885Y-100028464D01*
X115544357Y-100250000D01*
X113070549Y-100250000D01*
X113067310Y-100227469D01*
X113015883Y-100114858D01*
X112934818Y-100021305D01*
X112934817Y-100021304D01*
X112846990Y-99964861D01*
X112830674Y-99954375D01*
X112711897Y-99919500D01*
X112588103Y-99919500D01*
X112469325Y-99954375D01*
X112365181Y-100021305D01*
X112284116Y-100114858D01*
X112232689Y-100227469D01*
X112215072Y-100350000D01*
X111974373Y-100350000D01*
X112005140Y-100268872D01*
X112020500Y-100142372D01*
X112020500Y-99257628D01*
X112005140Y-99131128D01*
X111944818Y-98972070D01*
X111848183Y-98832071D01*
X111848181Y-98832069D01*
X111720854Y-98719266D01*
X111570223Y-98640209D01*
X111405057Y-98599500D01*
X111405056Y-98599500D01*
X111234944Y-98599500D01*
X111234943Y-98599500D01*
X111069776Y-98640209D01*
X110919145Y-98719266D01*
X110791818Y-98832069D01*
X110695182Y-98972070D01*
X110634859Y-99131129D01*
X110619860Y-99254660D01*
X110619500Y-99257628D01*
X110619500Y-100142372D01*
X103380500Y-100142372D01*
X103380500Y-99257628D01*
X103365140Y-99131128D01*
X103304818Y-98972070D01*
X103208183Y-98832071D01*
X103208181Y-98832069D01*
X103080854Y-98719266D01*
X102930223Y-98640209D01*
X102765057Y-98599500D01*
X102765056Y-98599500D01*
X102594944Y-98599500D01*
X102594943Y-98599500D01*
X102429776Y-98640209D01*
X102279145Y-98719266D01*
X102151818Y-98832069D01*
X102055182Y-98972070D01*
X101994859Y-99131129D01*
X101979860Y-99254660D01*
X101979500Y-99257628D01*
X101979500Y-99260615D01*
X101979500Y-99977518D01*
X101960593Y-100035709D01*
X101911093Y-100071673D01*
X101849907Y-100071673D01*
X101800407Y-100035709D01*
X101790446Y-100018644D01*
X101765883Y-99964858D01*
X101684818Y-99871305D01*
X101684817Y-99871304D01*
X101596380Y-99814469D01*
X101580674Y-99804375D01*
X101461897Y-99769500D01*
X101338103Y-99769500D01*
X101219325Y-99804375D01*
X101115181Y-99871305D01*
X101034116Y-99964858D01*
X100982689Y-100077469D01*
X100965072Y-100200000D01*
X97962232Y-100200000D01*
X97948573Y-100061317D01*
X97936435Y-100021304D01*
X97893537Y-99879883D01*
X97804164Y-99712680D01*
X97804162Y-99712676D01*
X97683883Y-99566117D01*
X97537324Y-99445838D01*
X97537320Y-99445835D01*
X97537319Y-99445835D01*
X97370116Y-99356462D01*
X97188682Y-99301426D01*
X96999999Y-99282842D01*
X96811317Y-99301426D01*
X96629883Y-99356462D01*
X96462680Y-99445835D01*
X96316117Y-99566117D01*
X96195835Y-99712680D01*
X96106462Y-99879883D01*
X96051426Y-100061317D01*
X96032842Y-100250000D01*
X96051426Y-100438682D01*
X96106462Y-100620116D01*
X96192190Y-100780500D01*
X96195838Y-100787324D01*
X96316117Y-100933883D01*
X96462676Y-101054162D01*
X96629885Y-101143537D01*
X96668538Y-101155262D01*
X96718735Y-101190245D01*
X96738782Y-101248053D01*
X96721022Y-101306604D01*
X96672238Y-101343534D01*
X96668541Y-101344736D01*
X96629882Y-101356463D01*
X96462680Y-101445835D01*
X96462676Y-101445837D01*
X96462676Y-101445838D01*
X96316116Y-101566116D01*
X96316117Y-101566117D01*
X96195835Y-101712680D01*
X96106462Y-101879883D01*
X96051426Y-102061317D01*
X96032842Y-102249999D01*
X92967157Y-102249999D01*
X92948573Y-102061317D01*
X92893537Y-101879883D01*
X92804164Y-101712680D01*
X92804162Y-101712676D01*
X92683883Y-101566117D01*
X92537324Y-101445838D01*
X92537320Y-101445835D01*
X92537319Y-101445835D01*
X92370114Y-101356462D01*
X92331461Y-101344737D01*
X92281264Y-101309753D01*
X92261217Y-101251944D01*
X92278978Y-101193394D01*
X92327762Y-101156464D01*
X92331461Y-101155263D01*
X92357230Y-101147445D01*
X92370115Y-101143537D01*
X92537324Y-101054162D01*
X92683883Y-100933883D01*
X92804162Y-100787324D01*
X92858573Y-100685528D01*
X92893537Y-100620116D01*
X92938607Y-100471536D01*
X92948573Y-100438683D01*
X92967157Y-100250000D01*
X92967056Y-100248979D01*
X92948573Y-100061317D01*
X92893537Y-99879883D01*
X92804164Y-99712680D01*
X92804162Y-99712676D01*
X92683883Y-99566117D01*
X92537324Y-99445838D01*
X92537320Y-99445835D01*
X92537319Y-99445835D01*
X92370116Y-99356462D01*
X92188682Y-99301426D01*
X91999999Y-99282842D01*
X91811317Y-99301426D01*
X91629883Y-99356462D01*
X91462680Y-99445835D01*
X91316117Y-99566117D01*
X91195835Y-99712680D01*
X91106462Y-99879883D01*
X91051426Y-100061317D01*
X91032842Y-100249999D01*
X91051426Y-100438682D01*
X91106462Y-100620116D01*
X91192190Y-100780500D01*
X91195838Y-100787324D01*
X91316117Y-100933883D01*
X91462676Y-101054162D01*
X91462680Y-101054164D01*
X91629883Y-101143537D01*
X91668539Y-101155263D01*
X91718736Y-101190248D01*
X91738782Y-101248056D01*
X91721021Y-101306607D01*
X91672237Y-101343536D01*
X91668539Y-101344737D01*
X91629883Y-101356462D01*
X91462680Y-101445835D01*
X91462676Y-101445837D01*
X91462676Y-101445838D01*
X91316117Y-101566117D01*
X91195835Y-101712680D01*
X91106462Y-101879883D01*
X91051426Y-102061317D01*
X91032842Y-102250000D01*
X90000500Y-102250000D01*
X90000500Y-97599500D01*
X90019407Y-97541309D01*
X90068907Y-97505345D01*
X90099500Y-97500500D01*
X125900500Y-97500500D01*
X125958691Y-97519407D01*
G37*
G04 #@! TD.AperFunction*
M02*
