M48
; DRILL file {KiCad (7.0.0-rc1-56-g82a1175d72)} date Sat Jan 28 19:42:41 2023
; FORMAT={-:-/ absolute / metric / decimal}
; #@! TF.CreationDate,2023-01-28T19:42:41+01:00
; #@! TF.GenerationSoftware,Kicad,Pcbnew,(7.0.0-rc1-56-g82a1175d72)
; #@! TF.FileFunction,Plated,1,4,PTH
FMAT,2
METRIC
; #@! TA.AperFunction,Plated,PTH,ViaDrill
T1C0.200
; #@! TA.AperFunction,Plated,PTH,ViaDrill
T2C0.400
; #@! TA.AperFunction,Plated,PTH,ComponentDrill
T3C0.600
; #@! TA.AperFunction,Plated,PTH,ComponentDrill
T4C0.762
; #@! TA.AperFunction,Plated,PTH,ComponentDrill
T5C1.000
; #@! TA.AperFunction,Plated,PTH,ComponentDrill
T6C1.100
%
G90
G05
T1
X91.4Y-128.1
X91.4Y-130.3
X92.4Y-125.9
X93.025Y-116.425
X94.0Y-131.425
X94.6Y-128.1
X97.8Y-133.5
X99.7Y-133.5
X100.5Y-111.5
X101.4Y-100.2
X103.9Y-123.0
X104.1Y-111.8
X104.358Y-125.5
X104.425Y-112.575
X104.6Y-104.5
X104.6Y-115.9
X105.2Y-119.542
X105.3Y-120.4
X105.5Y-126.5
X105.6Y-110.9
X106.0Y-123.0
X106.5Y-120.0
X106.5Y-130.8
X106.75Y-103.527
X107.5Y-121.0
X107.6Y-130.8
X107.75Y-103.5
X108.6Y-109.9
X108.7Y-114.0
X109.4Y-104.5
X109.8Y-112.9
X109.8Y-118.7
X110.4Y-138.0
X112.65Y-100.35
X113.275Y-131.425
X114.0Y-106.0
X114.0Y-125.6
X114.0Y-126.4
X118.55Y-109.55
X119.3Y-109.55
T2
X95.0Y-107.5
X95.0Y-109.2
X99.25Y-123.15
X100.6Y-105.7
X102.4Y-117.35
X102.8Y-119.6
X103.5Y-118.9
X103.8Y-130.6
X111.6Y-128.75
X112.7Y-118.45
X115.137Y-151.4
X116.7Y-129.7
X119.7Y-135.75
X121.5Y-112.45
X122.637Y-144.0
T4
X92.0Y-100.25
X92.0Y-102.25
X92.0Y-104.25
X97.0Y-100.25
X97.0Y-102.25
X97.0Y-104.25
T5
X104.3Y-145.96
X104.3Y-148.5
X106.84Y-145.96
X106.84Y-148.5
X116.42Y-107.5
X118.96Y-107.5
X121.5Y-107.5
X124.04Y-107.5
T6
X92.685Y-153.8
X95.225Y-153.8
X97.765Y-153.8
X100.305Y-153.8
X116.75Y-100.25
X116.75Y-104.75
X123.25Y-100.25
X123.25Y-104.75
T3
X102.68Y-100.1G85X102.68Y-99.3
G05
X102.68Y-104.43G85X102.68Y-103.33
G05
X111.32Y-100.1G85X111.32Y-99.3
G05
X111.32Y-104.43G85X111.32Y-103.33
G05
T0
M30
