G04 #@! TF.GenerationSoftware,KiCad,Pcbnew,(7.0.0-rc1-56-g82a1175d72)*
G04 #@! TF.CreationDate,2023-01-28T19:42:39+01:00*
G04 #@! TF.ProjectId,Signal Generator,5369676e-616c-4204-9765-6e657261746f,0*
G04 #@! TF.SameCoordinates,Original*
G04 #@! TF.FileFunction,Copper,L3,Inr*
G04 #@! TF.FilePolarity,Positive*
%FSLAX46Y46*%
G04 Gerber Fmt 4.6, Leading zero omitted, Abs format (unit mm)*
G04 Created by KiCad (PCBNEW (7.0.0-rc1-56-g82a1175d72)) date 2023-01-28 19:42:39*
%MOMM*%
%LPD*%
G01*
G04 APERTURE LIST*
G04 #@! TA.AperFunction,ComponentPad*
%ADD10O,1.000000X2.100000*%
G04 #@! TD*
G04 #@! TA.AperFunction,ComponentPad*
%ADD11O,1.000000X1.800000*%
G04 #@! TD*
G04 #@! TA.AperFunction,ComponentPad*
%ADD12R,1.700000X1.700000*%
G04 #@! TD*
G04 #@! TA.AperFunction,ComponentPad*
%ADD13O,1.700000X1.700000*%
G04 #@! TD*
G04 #@! TA.AperFunction,ComponentPad*
%ADD14C,2.000000*%
G04 #@! TD*
G04 #@! TA.AperFunction,ComponentPad*
%ADD15R,2.200000X2.200000*%
G04 #@! TD*
G04 #@! TA.AperFunction,ComponentPad*
%ADD16C,2.200000*%
G04 #@! TD*
G04 #@! TA.AperFunction,ComponentPad*
%ADD17C,1.524000*%
G04 #@! TD*
G04 #@! TA.AperFunction,ViaPad*
%ADD18C,0.460000*%
G04 #@! TD*
G04 #@! TA.AperFunction,ViaPad*
%ADD19C,0.800000*%
G04 #@! TD*
G04 #@! TA.AperFunction,Conductor*
%ADD20C,0.250000*%
G04 #@! TD*
G04 APERTURE END LIST*
D10*
X111319999Y-103879999D03*
D11*
X111319999Y-99699999D03*
D10*
X102679999Y-103879999D03*
D11*
X102679999Y-99699999D03*
D12*
X106839999Y-145959999D03*
D13*
X106839999Y-148499999D03*
X104299999Y-145959999D03*
X104299999Y-148499999D03*
D14*
X116750000Y-100250000D03*
X123250000Y-100250000D03*
X116750000Y-104750000D03*
X123250000Y-104750000D03*
D15*
X92684999Y-153799999D03*
D16*
X95225000Y-153800000D03*
X97765000Y-153800000D03*
X100305000Y-153800000D03*
D17*
X92000000Y-100250000D03*
X97000000Y-100250000D03*
X92000000Y-102250000D03*
X97000000Y-102250000D03*
X92000000Y-104250000D03*
X97000000Y-104250000D03*
D12*
X124039999Y-107499999D03*
D13*
X121499999Y-107499999D03*
X118959999Y-107499999D03*
X116419999Y-107499999D03*
D18*
X104357555Y-125500000D03*
X105300000Y-120400000D03*
X99700000Y-133500000D03*
D19*
X103500000Y-118900000D03*
D18*
X103900000Y-123000000D03*
X91400000Y-130300000D03*
X93025000Y-116425000D03*
X97800000Y-133500000D03*
X107600000Y-130800000D03*
D19*
X102800000Y-119600000D03*
D18*
X106500000Y-130800000D03*
X108600000Y-109900000D03*
X112650000Y-100350000D03*
X104425000Y-112575000D03*
X101400000Y-100200000D03*
D19*
X99250000Y-123150000D03*
X116700000Y-129700000D03*
X121500000Y-112450000D03*
X112700000Y-118450000D03*
D18*
X91400000Y-128100000D03*
D19*
X103800000Y-130600000D03*
X111600000Y-128750000D03*
D18*
X94600000Y-128100000D03*
X114000000Y-106000000D03*
D19*
X102400000Y-117350000D03*
D18*
X100500000Y-111500000D03*
X114000000Y-125600000D03*
X118550000Y-109550000D03*
D19*
X95000000Y-107500000D03*
D18*
X104100000Y-111800000D03*
X104600000Y-104500000D03*
X119300000Y-109550000D03*
D19*
X119700000Y-135750000D03*
X95000000Y-109200000D03*
X100600000Y-105700000D03*
D18*
X109400000Y-104500000D03*
X114000000Y-126400000D03*
X109800000Y-112900000D03*
X104600000Y-115900000D03*
X107750000Y-103500000D03*
X106750000Y-103526780D03*
X92400000Y-125900000D03*
X109800000Y-118700000D03*
X108700000Y-114000000D03*
X105600000Y-110900000D03*
X106500000Y-120000000D03*
X107500000Y-121000000D03*
X106000000Y-123000000D03*
D19*
X122637500Y-144000000D03*
X115137500Y-151400000D03*
D18*
X113275000Y-131425000D03*
X94000000Y-131425000D03*
X105200000Y-119542091D03*
X110400000Y-138000000D03*
X105500000Y-126500000D03*
D20*
X105300000Y-124557555D02*
X105300000Y-120400000D01*
X104357555Y-125500000D02*
X105300000Y-124557555D01*
X94600000Y-128100000D02*
X91400000Y-128100000D01*
X97600000Y-125900000D02*
X104800000Y-118700000D01*
X104800000Y-118700000D02*
X109800000Y-118700000D01*
X92400000Y-125900000D02*
X97600000Y-125900000D01*
X113275000Y-131425000D02*
X94000000Y-131425000D01*
G04 #@! TA.AperFunction,Conductor*
G36*
X125950000Y-97513763D02*
G01*
X125986237Y-97550000D01*
X125999500Y-97599500D01*
X125999500Y-157400500D01*
X125986237Y-157450000D01*
X125950000Y-157486237D01*
X125900500Y-157499500D01*
X90099500Y-157499500D01*
X90050000Y-157486237D01*
X90013763Y-157450000D01*
X90000500Y-157400500D01*
X90000500Y-154919748D01*
X91384500Y-154919748D01*
X91396133Y-154978231D01*
X91401550Y-154986338D01*
X91401551Y-154986340D01*
X91435028Y-155036441D01*
X91440448Y-155044552D01*
X91506769Y-155088867D01*
X91565252Y-155100500D01*
X93799890Y-155100500D01*
X93804748Y-155100500D01*
X93863231Y-155088867D01*
X93929552Y-155044552D01*
X93973867Y-154978231D01*
X93985500Y-154919748D01*
X93985500Y-154611152D01*
X93997913Y-154563156D01*
X94032038Y-154527195D01*
X94079319Y-154512288D01*
X94127899Y-154522171D01*
X94165596Y-154554368D01*
X94222473Y-154635598D01*
X94222476Y-154635602D01*
X94224953Y-154639139D01*
X94385861Y-154800047D01*
X94572266Y-154930568D01*
X94778504Y-155026739D01*
X94998308Y-155085635D01*
X95225000Y-155105468D01*
X95451692Y-155085635D01*
X95671496Y-155026739D01*
X95877734Y-154930568D01*
X96064139Y-154800047D01*
X96225047Y-154639139D01*
X96355568Y-154452734D01*
X96405276Y-154346134D01*
X96441807Y-154304478D01*
X96495000Y-154288974D01*
X96548193Y-154304478D01*
X96584724Y-154346135D01*
X96632601Y-154448809D01*
X96632604Y-154448815D01*
X96634432Y-154452734D01*
X96636912Y-154456277D01*
X96636914Y-154456279D01*
X96762473Y-154635598D01*
X96762476Y-154635602D01*
X96764953Y-154639139D01*
X96925861Y-154800047D01*
X97112266Y-154930568D01*
X97318504Y-155026739D01*
X97538308Y-155085635D01*
X97765000Y-155105468D01*
X97991692Y-155085635D01*
X98211496Y-155026739D01*
X98417734Y-154930568D01*
X98604139Y-154800047D01*
X98765047Y-154639139D01*
X98895568Y-154452734D01*
X98945276Y-154346134D01*
X98981807Y-154304478D01*
X99035000Y-154288974D01*
X99088193Y-154304478D01*
X99124724Y-154346135D01*
X99172601Y-154448809D01*
X99172604Y-154448815D01*
X99174432Y-154452734D01*
X99176912Y-154456277D01*
X99176914Y-154456279D01*
X99302473Y-154635598D01*
X99302476Y-154635602D01*
X99304953Y-154639139D01*
X99465861Y-154800047D01*
X99652266Y-154930568D01*
X99858504Y-155026739D01*
X100078308Y-155085635D01*
X100305000Y-155105468D01*
X100531692Y-155085635D01*
X100751496Y-155026739D01*
X100957734Y-154930568D01*
X101144139Y-154800047D01*
X101305047Y-154639139D01*
X101435568Y-154452734D01*
X101531739Y-154246496D01*
X101590635Y-154026692D01*
X101610468Y-153800000D01*
X101590635Y-153573308D01*
X101531739Y-153353504D01*
X101435568Y-153147266D01*
X101364404Y-153045632D01*
X101307526Y-152964401D01*
X101307524Y-152964398D01*
X101305047Y-152960861D01*
X101144139Y-152799953D01*
X101140602Y-152797476D01*
X101140598Y-152797473D01*
X100961279Y-152671914D01*
X100961277Y-152671912D01*
X100957734Y-152669432D01*
X100953815Y-152667604D01*
X100953809Y-152667601D01*
X100755415Y-152575088D01*
X100755410Y-152575086D01*
X100751496Y-152573261D01*
X100747331Y-152572145D01*
X100747323Y-152572142D01*
X100535868Y-152515484D01*
X100531692Y-152514365D01*
X100527388Y-152513988D01*
X100527380Y-152513987D01*
X100309309Y-152494909D01*
X100305000Y-152494532D01*
X100300691Y-152494909D01*
X100082619Y-152513987D01*
X100082609Y-152513988D01*
X100078308Y-152514365D01*
X100074133Y-152515483D01*
X100074131Y-152515484D01*
X99862676Y-152572142D01*
X99862664Y-152572146D01*
X99858504Y-152573261D01*
X99854593Y-152575084D01*
X99854584Y-152575088D01*
X99656190Y-152667601D01*
X99656179Y-152667607D01*
X99652266Y-152669432D01*
X99648727Y-152671909D01*
X99648720Y-152671914D01*
X99469401Y-152797473D01*
X99469391Y-152797480D01*
X99465861Y-152799953D01*
X99462813Y-152803000D01*
X99462807Y-152803006D01*
X99308006Y-152957807D01*
X99308000Y-152957813D01*
X99304953Y-152960861D01*
X99302480Y-152964391D01*
X99302473Y-152964401D01*
X99176914Y-153143720D01*
X99176909Y-153143727D01*
X99174432Y-153147266D01*
X99172604Y-153151185D01*
X99172604Y-153151186D01*
X99124723Y-153253865D01*
X99088191Y-153295521D01*
X99034998Y-153311025D01*
X98981806Y-153295520D01*
X98945277Y-153253868D01*
X98895568Y-153147266D01*
X98824404Y-153045632D01*
X98767526Y-152964401D01*
X98767524Y-152964398D01*
X98765047Y-152960861D01*
X98604139Y-152799953D01*
X98600602Y-152797476D01*
X98600598Y-152797473D01*
X98421279Y-152671914D01*
X98421277Y-152671912D01*
X98417734Y-152669432D01*
X98413815Y-152667604D01*
X98413809Y-152667601D01*
X98215415Y-152575088D01*
X98215410Y-152575086D01*
X98211496Y-152573261D01*
X98207331Y-152572145D01*
X98207323Y-152572142D01*
X97995868Y-152515484D01*
X97991692Y-152514365D01*
X97987388Y-152513988D01*
X97987380Y-152513987D01*
X97769309Y-152494909D01*
X97765000Y-152494532D01*
X97760691Y-152494909D01*
X97542619Y-152513987D01*
X97542609Y-152513988D01*
X97538308Y-152514365D01*
X97534133Y-152515483D01*
X97534131Y-152515484D01*
X97322676Y-152572142D01*
X97322664Y-152572146D01*
X97318504Y-152573261D01*
X97314593Y-152575084D01*
X97314584Y-152575088D01*
X97116190Y-152667601D01*
X97116179Y-152667607D01*
X97112266Y-152669432D01*
X97108727Y-152671909D01*
X97108720Y-152671914D01*
X96929401Y-152797473D01*
X96929391Y-152797480D01*
X96925861Y-152799953D01*
X96922813Y-152803000D01*
X96922807Y-152803006D01*
X96768006Y-152957807D01*
X96768000Y-152957813D01*
X96764953Y-152960861D01*
X96762480Y-152964391D01*
X96762473Y-152964401D01*
X96636914Y-153143720D01*
X96636909Y-153143727D01*
X96634432Y-153147266D01*
X96632604Y-153151185D01*
X96632604Y-153151186D01*
X96584723Y-153253865D01*
X96548191Y-153295521D01*
X96494998Y-153311025D01*
X96441806Y-153295520D01*
X96405277Y-153253868D01*
X96355568Y-153147266D01*
X96284404Y-153045632D01*
X96227526Y-152964401D01*
X96227524Y-152964398D01*
X96225047Y-152960861D01*
X96064139Y-152799953D01*
X96060602Y-152797476D01*
X96060598Y-152797473D01*
X95881279Y-152671914D01*
X95881277Y-152671912D01*
X95877734Y-152669432D01*
X95873815Y-152667604D01*
X95873809Y-152667601D01*
X95675415Y-152575088D01*
X95675410Y-152575086D01*
X95671496Y-152573261D01*
X95667331Y-152572145D01*
X95667323Y-152572142D01*
X95455868Y-152515484D01*
X95451692Y-152514365D01*
X95447388Y-152513988D01*
X95447380Y-152513987D01*
X95229309Y-152494909D01*
X95225000Y-152494532D01*
X95220691Y-152494909D01*
X95002619Y-152513987D01*
X95002609Y-152513988D01*
X94998308Y-152514365D01*
X94994133Y-152515483D01*
X94994131Y-152515484D01*
X94782676Y-152572142D01*
X94782664Y-152572146D01*
X94778504Y-152573261D01*
X94774593Y-152575084D01*
X94774584Y-152575088D01*
X94576190Y-152667601D01*
X94576179Y-152667607D01*
X94572266Y-152669432D01*
X94568727Y-152671909D01*
X94568720Y-152671914D01*
X94389401Y-152797473D01*
X94389391Y-152797480D01*
X94385861Y-152799953D01*
X94382813Y-152803000D01*
X94382807Y-152803006D01*
X94228006Y-152957807D01*
X94228000Y-152957813D01*
X94224953Y-152960861D01*
X94222480Y-152964391D01*
X94222473Y-152964401D01*
X94165596Y-153045632D01*
X94127899Y-153077829D01*
X94079319Y-153087712D01*
X94032038Y-153072805D01*
X93997913Y-153036844D01*
X93985500Y-152988848D01*
X93985500Y-152685110D01*
X93985500Y-152680252D01*
X93973867Y-152621769D01*
X93929552Y-152555448D01*
X93921441Y-152550028D01*
X93871340Y-152516551D01*
X93871338Y-152516550D01*
X93863231Y-152511133D01*
X93853667Y-152509230D01*
X93853666Y-152509230D01*
X93809511Y-152500447D01*
X93809506Y-152500446D01*
X93804748Y-152499500D01*
X91565252Y-152499500D01*
X91560494Y-152500446D01*
X91560488Y-152500447D01*
X91516333Y-152509230D01*
X91516330Y-152509231D01*
X91506769Y-152511133D01*
X91498663Y-152516549D01*
X91498659Y-152516551D01*
X91448558Y-152550028D01*
X91448555Y-152550030D01*
X91440448Y-152555448D01*
X91435030Y-152563555D01*
X91435028Y-152563558D01*
X91401551Y-152613659D01*
X91401549Y-152613663D01*
X91396133Y-152621769D01*
X91394231Y-152631330D01*
X91394230Y-152631333D01*
X91385447Y-152675488D01*
X91385446Y-152675494D01*
X91384500Y-152680252D01*
X91384500Y-154919748D01*
X90000500Y-154919748D01*
X90000500Y-152400000D01*
X117781917Y-152400000D01*
X117802200Y-152605934D01*
X117803611Y-152610586D01*
X117803612Y-152610590D01*
X117824744Y-152680252D01*
X117862268Y-152803954D01*
X117864562Y-152808246D01*
X117864563Y-152808248D01*
X117957523Y-152982163D01*
X117957525Y-152982166D01*
X117959815Y-152986450D01*
X118091090Y-153146410D01*
X118251050Y-153277685D01*
X118255335Y-153279975D01*
X118255336Y-153279976D01*
X118290789Y-153298926D01*
X118433546Y-153375232D01*
X118631566Y-153435300D01*
X118785892Y-153450500D01*
X118886669Y-153450500D01*
X118889108Y-153450500D01*
X119043434Y-153435300D01*
X119241454Y-153375232D01*
X119423950Y-153277685D01*
X119583910Y-153146410D01*
X119715185Y-152986450D01*
X119812732Y-152803954D01*
X119872800Y-152605934D01*
X119893083Y-152400000D01*
X119872800Y-152194066D01*
X119812732Y-151996046D01*
X119725173Y-151832236D01*
X119717476Y-151817836D01*
X119717475Y-151817835D01*
X119715185Y-151813550D01*
X119583910Y-151653590D01*
X119473231Y-151562759D01*
X119427708Y-151525399D01*
X119427707Y-151525398D01*
X119423950Y-151522315D01*
X119419666Y-151520025D01*
X119419663Y-151520023D01*
X119245748Y-151427063D01*
X119245746Y-151427062D01*
X119241454Y-151424768D01*
X119236793Y-151423354D01*
X119048090Y-151366112D01*
X119048086Y-151366111D01*
X119043434Y-151364700D01*
X119038314Y-151364195D01*
X118891538Y-151349739D01*
X118891531Y-151349738D01*
X118889108Y-151349500D01*
X118785892Y-151349500D01*
X118783469Y-151349738D01*
X118783461Y-151349739D01*
X118636408Y-151364223D01*
X118636407Y-151364223D01*
X118631566Y-151364700D01*
X118626915Y-151366110D01*
X118626909Y-151366112D01*
X118438206Y-151423354D01*
X118438202Y-151423355D01*
X118433546Y-151424768D01*
X118429257Y-151427060D01*
X118429251Y-151427063D01*
X118255336Y-151520023D01*
X118255328Y-151520028D01*
X118251050Y-151522315D01*
X118247296Y-151525394D01*
X118247291Y-151525399D01*
X118094854Y-151650500D01*
X118094848Y-151650505D01*
X118091090Y-151653590D01*
X118088005Y-151657348D01*
X118088000Y-151657354D01*
X117962899Y-151809791D01*
X117962894Y-151809796D01*
X117959815Y-151813550D01*
X117957528Y-151817828D01*
X117957523Y-151817836D01*
X117864563Y-151991751D01*
X117864560Y-151991757D01*
X117862268Y-151996046D01*
X117860855Y-152000702D01*
X117860854Y-152000706D01*
X117803612Y-152189409D01*
X117803610Y-152189415D01*
X117802200Y-152194066D01*
X117781917Y-152400000D01*
X90000500Y-152400000D01*
X90000500Y-151400000D01*
X114531818Y-151400000D01*
X114532665Y-151406434D01*
X114551608Y-151550326D01*
X114551609Y-151550331D01*
X114552456Y-151556762D01*
X114554939Y-151562758D01*
X114554940Y-151562759D01*
X114594122Y-151657354D01*
X114612964Y-151702841D01*
X114616913Y-151707988D01*
X114616914Y-151707989D01*
X114701202Y-151817836D01*
X114709218Y-151828282D01*
X114834659Y-151924536D01*
X114980738Y-151985044D01*
X115137500Y-152005682D01*
X115294262Y-151985044D01*
X115440341Y-151924536D01*
X115565782Y-151828282D01*
X115662036Y-151702841D01*
X115722544Y-151556762D01*
X115743182Y-151400000D01*
X115722544Y-151243238D01*
X115662036Y-151097159D01*
X115565782Y-150971718D01*
X115440341Y-150875464D01*
X115434347Y-150872981D01*
X115434345Y-150872980D01*
X115300259Y-150817440D01*
X115300258Y-150817439D01*
X115294262Y-150814956D01*
X115287831Y-150814109D01*
X115287826Y-150814108D01*
X115143934Y-150795165D01*
X115137500Y-150794318D01*
X115131066Y-150795165D01*
X114987173Y-150814108D01*
X114987166Y-150814109D01*
X114980738Y-150814956D01*
X114974743Y-150817439D01*
X114974740Y-150817440D01*
X114840654Y-150872980D01*
X114840649Y-150872982D01*
X114834659Y-150875464D01*
X114829515Y-150879411D01*
X114829510Y-150879414D01*
X114714371Y-150967763D01*
X114714366Y-150967767D01*
X114709218Y-150971718D01*
X114705267Y-150976866D01*
X114705263Y-150976871D01*
X114616914Y-151092010D01*
X114616911Y-151092015D01*
X114612964Y-151097159D01*
X114610482Y-151103149D01*
X114610480Y-151103154D01*
X114554940Y-151237240D01*
X114552456Y-151243238D01*
X114551609Y-151249666D01*
X114551608Y-151249673D01*
X114538466Y-151349500D01*
X114531818Y-151400000D01*
X90000500Y-151400000D01*
X90000500Y-148500000D01*
X103244417Y-148500000D01*
X103264700Y-148705934D01*
X103324768Y-148903954D01*
X103327062Y-148908246D01*
X103327063Y-148908248D01*
X103420023Y-149082163D01*
X103420025Y-149082166D01*
X103422315Y-149086450D01*
X103553590Y-149246410D01*
X103713550Y-149377685D01*
X103896046Y-149475232D01*
X104094066Y-149535300D01*
X104300000Y-149555583D01*
X104505934Y-149535300D01*
X104703954Y-149475232D01*
X104886450Y-149377685D01*
X105046410Y-149246410D01*
X105177685Y-149086450D01*
X105275232Y-148903954D01*
X105335300Y-148705934D01*
X105355583Y-148500000D01*
X105784417Y-148500000D01*
X105804700Y-148705934D01*
X105864768Y-148903954D01*
X105867062Y-148908246D01*
X105867063Y-148908248D01*
X105960023Y-149082163D01*
X105960025Y-149082166D01*
X105962315Y-149086450D01*
X106093590Y-149246410D01*
X106253550Y-149377685D01*
X106436046Y-149475232D01*
X106634066Y-149535300D01*
X106840000Y-149555583D01*
X107045934Y-149535300D01*
X107243954Y-149475232D01*
X107426450Y-149377685D01*
X107586410Y-149246410D01*
X107717685Y-149086450D01*
X107815232Y-148903954D01*
X107875300Y-148705934D01*
X107895583Y-148500000D01*
X107875300Y-148294066D01*
X107815232Y-148096046D01*
X107717685Y-147913550D01*
X107586410Y-147753590D01*
X107426450Y-147622315D01*
X107422166Y-147620025D01*
X107422163Y-147620023D01*
X107248248Y-147527063D01*
X107248246Y-147527062D01*
X107243954Y-147524768D01*
X107239293Y-147523354D01*
X107050590Y-147466112D01*
X107050586Y-147466111D01*
X107045934Y-147464700D01*
X106840000Y-147444417D01*
X106835157Y-147444894D01*
X106638908Y-147464223D01*
X106638907Y-147464223D01*
X106634066Y-147464700D01*
X106629415Y-147466110D01*
X106629409Y-147466112D01*
X106440706Y-147523354D01*
X106440702Y-147523355D01*
X106436046Y-147524768D01*
X106431757Y-147527060D01*
X106431751Y-147527063D01*
X106257836Y-147620023D01*
X106257828Y-147620028D01*
X106253550Y-147622315D01*
X106249796Y-147625394D01*
X106249791Y-147625399D01*
X106097354Y-147750500D01*
X106097348Y-147750505D01*
X106093590Y-147753590D01*
X106090505Y-147757348D01*
X106090500Y-147757354D01*
X105965399Y-147909791D01*
X105965394Y-147909796D01*
X105962315Y-147913550D01*
X105960028Y-147917828D01*
X105960023Y-147917836D01*
X105867063Y-148091751D01*
X105867060Y-148091757D01*
X105864768Y-148096046D01*
X105863355Y-148100702D01*
X105863354Y-148100706D01*
X105806112Y-148289409D01*
X105806110Y-148289415D01*
X105804700Y-148294066D01*
X105784417Y-148500000D01*
X105355583Y-148500000D01*
X105335300Y-148294066D01*
X105275232Y-148096046D01*
X105177685Y-147913550D01*
X105046410Y-147753590D01*
X104886450Y-147622315D01*
X104882166Y-147620025D01*
X104882163Y-147620023D01*
X104708248Y-147527063D01*
X104708246Y-147527062D01*
X104703954Y-147524768D01*
X104699293Y-147523354D01*
X104510590Y-147466112D01*
X104510586Y-147466111D01*
X104505934Y-147464700D01*
X104300000Y-147444417D01*
X104295157Y-147444894D01*
X104098908Y-147464223D01*
X104098907Y-147464223D01*
X104094066Y-147464700D01*
X104089415Y-147466110D01*
X104089409Y-147466112D01*
X103900706Y-147523354D01*
X103900702Y-147523355D01*
X103896046Y-147524768D01*
X103891757Y-147527060D01*
X103891751Y-147527063D01*
X103717836Y-147620023D01*
X103717828Y-147620028D01*
X103713550Y-147622315D01*
X103709796Y-147625394D01*
X103709791Y-147625399D01*
X103557354Y-147750500D01*
X103557348Y-147750505D01*
X103553590Y-147753590D01*
X103550505Y-147757348D01*
X103550500Y-147757354D01*
X103425399Y-147909791D01*
X103425394Y-147909796D01*
X103422315Y-147913550D01*
X103420028Y-147917828D01*
X103420023Y-147917836D01*
X103327063Y-148091751D01*
X103327060Y-148091757D01*
X103324768Y-148096046D01*
X103323355Y-148100702D01*
X103323354Y-148100706D01*
X103266112Y-148289409D01*
X103266110Y-148289415D01*
X103264700Y-148294066D01*
X103244417Y-148500000D01*
X90000500Y-148500000D01*
X90000500Y-145960000D01*
X103244417Y-145960000D01*
X103264700Y-146165934D01*
X103324768Y-146363954D01*
X103327062Y-146368246D01*
X103327063Y-146368248D01*
X103420023Y-146542163D01*
X103420025Y-146542166D01*
X103422315Y-146546450D01*
X103553590Y-146706410D01*
X103713550Y-146837685D01*
X103896046Y-146935232D01*
X104094066Y-146995300D01*
X104300000Y-147015583D01*
X104505934Y-146995300D01*
X104703954Y-146935232D01*
X104886450Y-146837685D01*
X104896121Y-146829748D01*
X105789500Y-146829748D01*
X105790446Y-146834506D01*
X105790447Y-146834511D01*
X105791534Y-146839976D01*
X105801133Y-146888231D01*
X105806550Y-146896338D01*
X105806551Y-146896340D01*
X105840028Y-146946441D01*
X105845448Y-146954552D01*
X105911769Y-146998867D01*
X105970252Y-147010500D01*
X107704890Y-147010500D01*
X107709748Y-147010500D01*
X107768231Y-146998867D01*
X107834552Y-146954552D01*
X107878867Y-146888231D01*
X107890500Y-146829748D01*
X107890500Y-145400000D01*
X117781917Y-145400000D01*
X117802200Y-145605934D01*
X117803611Y-145610586D01*
X117803612Y-145610590D01*
X117860854Y-145799293D01*
X117862268Y-145803954D01*
X117864562Y-145808246D01*
X117864563Y-145808248D01*
X117957523Y-145982163D01*
X117957525Y-145982166D01*
X117959815Y-145986450D01*
X118091090Y-146146410D01*
X118251050Y-146277685D01*
X118433546Y-146375232D01*
X118631566Y-146435300D01*
X118785892Y-146450500D01*
X118886669Y-146450500D01*
X118889108Y-146450500D01*
X119043434Y-146435300D01*
X119241454Y-146375232D01*
X119423950Y-146277685D01*
X119583910Y-146146410D01*
X119715185Y-145986450D01*
X119812732Y-145803954D01*
X119872800Y-145605934D01*
X119893083Y-145400000D01*
X119872800Y-145194066D01*
X119812732Y-144996046D01*
X119715185Y-144813550D01*
X119583910Y-144653590D01*
X119423950Y-144522315D01*
X119419666Y-144520025D01*
X119419663Y-144520023D01*
X119245748Y-144427063D01*
X119245746Y-144427062D01*
X119241454Y-144424768D01*
X119236048Y-144423128D01*
X119048090Y-144366112D01*
X119048086Y-144366111D01*
X119043434Y-144364700D01*
X119038314Y-144364195D01*
X118891538Y-144349739D01*
X118891531Y-144349738D01*
X118889108Y-144349500D01*
X118785892Y-144349500D01*
X118783469Y-144349738D01*
X118783461Y-144349739D01*
X118636408Y-144364223D01*
X118636407Y-144364223D01*
X118631566Y-144364700D01*
X118626915Y-144366110D01*
X118626909Y-144366112D01*
X118438206Y-144423354D01*
X118438202Y-144423355D01*
X118433546Y-144424768D01*
X118429257Y-144427060D01*
X118429251Y-144427063D01*
X118255336Y-144520023D01*
X118255328Y-144520028D01*
X118251050Y-144522315D01*
X118247296Y-144525394D01*
X118247291Y-144525399D01*
X118094854Y-144650500D01*
X118094848Y-144650505D01*
X118091090Y-144653590D01*
X118088005Y-144657348D01*
X118088000Y-144657354D01*
X117962899Y-144809791D01*
X117962894Y-144809796D01*
X117959815Y-144813550D01*
X117957528Y-144817828D01*
X117957523Y-144817836D01*
X117864563Y-144991751D01*
X117864560Y-144991757D01*
X117862268Y-144996046D01*
X117860855Y-145000702D01*
X117860854Y-145000706D01*
X117803612Y-145189409D01*
X117803610Y-145189415D01*
X117802200Y-145194066D01*
X117781917Y-145400000D01*
X107890500Y-145400000D01*
X107890500Y-145090252D01*
X107878867Y-145031769D01*
X107834552Y-144965448D01*
X107826441Y-144960028D01*
X107776340Y-144926551D01*
X107776338Y-144926550D01*
X107768231Y-144921133D01*
X107758667Y-144919230D01*
X107758666Y-144919230D01*
X107714511Y-144910447D01*
X107714506Y-144910446D01*
X107709748Y-144909500D01*
X105970252Y-144909500D01*
X105965494Y-144910446D01*
X105965488Y-144910447D01*
X105921333Y-144919230D01*
X105921330Y-144919231D01*
X105911769Y-144921133D01*
X105903663Y-144926549D01*
X105903659Y-144926551D01*
X105853558Y-144960028D01*
X105853555Y-144960030D01*
X105845448Y-144965448D01*
X105840030Y-144973555D01*
X105840028Y-144973558D01*
X105806551Y-145023659D01*
X105806549Y-145023663D01*
X105801133Y-145031769D01*
X105799231Y-145041330D01*
X105799230Y-145041333D01*
X105790447Y-145085488D01*
X105790446Y-145085494D01*
X105789500Y-145090252D01*
X105789500Y-146829748D01*
X104896121Y-146829748D01*
X105046410Y-146706410D01*
X105177685Y-146546450D01*
X105275232Y-146363954D01*
X105335300Y-146165934D01*
X105355583Y-145960000D01*
X105335300Y-145754066D01*
X105275232Y-145556046D01*
X105177685Y-145373550D01*
X105046410Y-145213590D01*
X104886450Y-145082315D01*
X104882166Y-145080025D01*
X104882163Y-145080023D01*
X104708248Y-144987063D01*
X104708246Y-144987062D01*
X104703954Y-144984768D01*
X104699293Y-144983354D01*
X104510590Y-144926112D01*
X104510586Y-144926111D01*
X104505934Y-144924700D01*
X104300000Y-144904417D01*
X104295157Y-144904894D01*
X104098908Y-144924223D01*
X104098907Y-144924223D01*
X104094066Y-144924700D01*
X104089415Y-144926110D01*
X104089409Y-144926112D01*
X103900706Y-144983354D01*
X103900702Y-144983355D01*
X103896046Y-144984768D01*
X103891757Y-144987060D01*
X103891751Y-144987063D01*
X103717836Y-145080023D01*
X103717828Y-145080028D01*
X103713550Y-145082315D01*
X103709796Y-145085394D01*
X103709791Y-145085399D01*
X103557354Y-145210500D01*
X103557348Y-145210505D01*
X103553590Y-145213590D01*
X103550505Y-145217348D01*
X103550500Y-145217354D01*
X103425399Y-145369791D01*
X103425394Y-145369796D01*
X103422315Y-145373550D01*
X103420028Y-145377828D01*
X103420023Y-145377836D01*
X103327063Y-145551751D01*
X103327060Y-145551757D01*
X103324768Y-145556046D01*
X103323355Y-145560702D01*
X103323354Y-145560706D01*
X103266112Y-145749409D01*
X103266110Y-145749415D01*
X103264700Y-145754066D01*
X103244417Y-145960000D01*
X90000500Y-145960000D01*
X90000500Y-144000000D01*
X122031818Y-144000000D01*
X122032665Y-144006434D01*
X122051608Y-144150326D01*
X122051609Y-144150331D01*
X122052456Y-144156762D01*
X122112964Y-144302841D01*
X122116913Y-144307988D01*
X122116914Y-144307989D01*
X122148766Y-144349500D01*
X122209218Y-144428282D01*
X122334659Y-144524536D01*
X122480738Y-144585044D01*
X122637500Y-144605682D01*
X122794262Y-144585044D01*
X122940341Y-144524536D01*
X123065782Y-144428282D01*
X123162036Y-144302841D01*
X123222544Y-144156762D01*
X123243182Y-144000000D01*
X123222544Y-143843238D01*
X123162036Y-143697159D01*
X123065782Y-143571718D01*
X122940341Y-143475464D01*
X122934347Y-143472981D01*
X122934345Y-143472980D01*
X122800259Y-143417440D01*
X122800258Y-143417439D01*
X122794262Y-143414956D01*
X122787831Y-143414109D01*
X122787826Y-143414108D01*
X122643934Y-143395165D01*
X122637500Y-143394318D01*
X122631066Y-143395165D01*
X122487173Y-143414108D01*
X122487166Y-143414109D01*
X122480738Y-143414956D01*
X122474743Y-143417439D01*
X122474740Y-143417440D01*
X122340654Y-143472980D01*
X122340649Y-143472982D01*
X122334659Y-143475464D01*
X122329515Y-143479411D01*
X122329510Y-143479414D01*
X122214371Y-143567763D01*
X122214366Y-143567767D01*
X122209218Y-143571718D01*
X122205267Y-143576866D01*
X122205263Y-143576871D01*
X122116914Y-143692010D01*
X122116911Y-143692015D01*
X122112964Y-143697159D01*
X122110482Y-143703149D01*
X122110480Y-143703154D01*
X122054940Y-143837240D01*
X122052456Y-143843238D01*
X122051609Y-143849666D01*
X122051608Y-143849673D01*
X122032665Y-143993566D01*
X122031818Y-144000000D01*
X90000500Y-144000000D01*
X90000500Y-138000000D01*
X109965073Y-138000000D01*
X109966081Y-138007011D01*
X109981682Y-138115520D01*
X109981683Y-138115524D01*
X109982691Y-138122533D01*
X110034116Y-138235139D01*
X110115183Y-138328696D01*
X110219325Y-138395624D01*
X110338103Y-138430500D01*
X110454819Y-138430500D01*
X110461897Y-138430500D01*
X110580675Y-138395624D01*
X110684817Y-138328696D01*
X110765884Y-138235139D01*
X110817309Y-138122533D01*
X110834927Y-138000000D01*
X110817309Y-137877467D01*
X110765884Y-137764861D01*
X110684817Y-137671304D01*
X110678862Y-137667477D01*
X110678860Y-137667475D01*
X110586632Y-137608204D01*
X110586630Y-137608203D01*
X110580675Y-137604376D01*
X110461897Y-137569500D01*
X110338103Y-137569500D01*
X110331312Y-137571493D01*
X110331311Y-137571494D01*
X110226118Y-137602381D01*
X110226115Y-137602382D01*
X110219325Y-137604376D01*
X110213372Y-137608201D01*
X110213367Y-137608204D01*
X110121139Y-137667475D01*
X110121133Y-137667480D01*
X110115183Y-137671304D01*
X110034116Y-137764861D01*
X109982691Y-137877467D01*
X109981683Y-137884473D01*
X109981682Y-137884479D01*
X109966081Y-137992989D01*
X109965073Y-138000000D01*
X90000500Y-138000000D01*
X90000500Y-135750000D01*
X119094318Y-135750000D01*
X119095165Y-135756434D01*
X119114108Y-135900326D01*
X119114109Y-135900331D01*
X119114956Y-135906762D01*
X119175464Y-136052841D01*
X119271718Y-136178282D01*
X119397159Y-136274536D01*
X119543238Y-136335044D01*
X119700000Y-136355682D01*
X119856762Y-136335044D01*
X120002841Y-136274536D01*
X120128282Y-136178282D01*
X120224536Y-136052841D01*
X120285044Y-135906762D01*
X120305682Y-135750000D01*
X120285044Y-135593238D01*
X120224536Y-135447159D01*
X120128282Y-135321718D01*
X120002841Y-135225464D01*
X119996847Y-135222981D01*
X119996845Y-135222980D01*
X119862759Y-135167440D01*
X119862758Y-135167439D01*
X119856762Y-135164956D01*
X119850331Y-135164109D01*
X119850326Y-135164108D01*
X119706434Y-135145165D01*
X119700000Y-135144318D01*
X119693566Y-135145165D01*
X119549673Y-135164108D01*
X119549666Y-135164109D01*
X119543238Y-135164956D01*
X119537243Y-135167439D01*
X119537240Y-135167440D01*
X119403154Y-135222980D01*
X119403149Y-135222982D01*
X119397159Y-135225464D01*
X119392015Y-135229411D01*
X119392010Y-135229414D01*
X119276871Y-135317763D01*
X119276866Y-135317767D01*
X119271718Y-135321718D01*
X119267767Y-135326866D01*
X119267763Y-135326871D01*
X119179414Y-135442010D01*
X119179411Y-135442015D01*
X119175464Y-135447159D01*
X119172982Y-135453149D01*
X119172980Y-135453154D01*
X119117440Y-135587240D01*
X119114956Y-135593238D01*
X119114109Y-135599666D01*
X119114108Y-135599673D01*
X119095165Y-135743566D01*
X119094318Y-135750000D01*
X90000500Y-135750000D01*
X90000500Y-133500000D01*
X97365073Y-133500000D01*
X97366081Y-133507011D01*
X97381682Y-133615520D01*
X97381683Y-133615524D01*
X97382691Y-133622533D01*
X97434116Y-133735139D01*
X97515183Y-133828696D01*
X97619325Y-133895624D01*
X97738103Y-133930500D01*
X97854819Y-133930500D01*
X97861897Y-133930500D01*
X97980675Y-133895624D01*
X98084817Y-133828696D01*
X98165884Y-133735139D01*
X98217309Y-133622533D01*
X98234927Y-133500000D01*
X99265073Y-133500000D01*
X99266081Y-133507011D01*
X99281682Y-133615520D01*
X99281683Y-133615524D01*
X99282691Y-133622533D01*
X99334116Y-133735139D01*
X99415183Y-133828696D01*
X99519325Y-133895624D01*
X99638103Y-133930500D01*
X99754819Y-133930500D01*
X99761897Y-133930500D01*
X99880675Y-133895624D01*
X99984817Y-133828696D01*
X100065884Y-133735139D01*
X100117309Y-133622533D01*
X100134927Y-133500000D01*
X100117309Y-133377467D01*
X100065884Y-133264861D01*
X99984817Y-133171304D01*
X99978862Y-133167477D01*
X99978860Y-133167475D01*
X99886632Y-133108204D01*
X99886630Y-133108203D01*
X99880675Y-133104376D01*
X99761897Y-133069500D01*
X99638103Y-133069500D01*
X99631312Y-133071493D01*
X99631311Y-133071494D01*
X99526118Y-133102381D01*
X99526115Y-133102382D01*
X99519325Y-133104376D01*
X99513372Y-133108201D01*
X99513367Y-133108204D01*
X99421139Y-133167475D01*
X99421133Y-133167480D01*
X99415183Y-133171304D01*
X99334116Y-133264861D01*
X99282691Y-133377467D01*
X99281683Y-133384473D01*
X99281682Y-133384479D01*
X99266081Y-133492989D01*
X99265073Y-133500000D01*
X98234927Y-133500000D01*
X98217309Y-133377467D01*
X98165884Y-133264861D01*
X98084817Y-133171304D01*
X98078862Y-133167477D01*
X98078860Y-133167475D01*
X97986632Y-133108204D01*
X97986630Y-133108203D01*
X97980675Y-133104376D01*
X97861897Y-133069500D01*
X97738103Y-133069500D01*
X97731312Y-133071493D01*
X97731311Y-133071494D01*
X97626118Y-133102381D01*
X97626115Y-133102382D01*
X97619325Y-133104376D01*
X97613372Y-133108201D01*
X97613367Y-133108204D01*
X97521139Y-133167475D01*
X97521133Y-133167480D01*
X97515183Y-133171304D01*
X97434116Y-133264861D01*
X97382691Y-133377467D01*
X97381683Y-133384473D01*
X97381682Y-133384479D01*
X97366081Y-133492989D01*
X97365073Y-133500000D01*
X90000500Y-133500000D01*
X90000500Y-131425000D01*
X93565073Y-131425000D01*
X93566081Y-131432011D01*
X93581682Y-131540520D01*
X93581683Y-131540524D01*
X93582691Y-131547533D01*
X93634116Y-131660139D01*
X93715183Y-131753696D01*
X93721137Y-131757522D01*
X93721139Y-131757524D01*
X93806288Y-131812246D01*
X93819325Y-131820624D01*
X93938103Y-131855500D01*
X94054819Y-131855500D01*
X94061897Y-131855500D01*
X94180675Y-131820624D01*
X94265336Y-131766215D01*
X94318858Y-131750500D01*
X112956142Y-131750500D01*
X113009663Y-131766215D01*
X113094325Y-131820624D01*
X113213103Y-131855500D01*
X113329819Y-131855500D01*
X113336897Y-131855500D01*
X113455675Y-131820624D01*
X113559817Y-131753696D01*
X113640884Y-131660139D01*
X113692309Y-131547533D01*
X113709927Y-131425000D01*
X113692309Y-131302467D01*
X113640884Y-131189861D01*
X113559817Y-131096304D01*
X113553862Y-131092477D01*
X113553860Y-131092475D01*
X113461632Y-131033204D01*
X113461628Y-131033202D01*
X113455675Y-131029376D01*
X113336897Y-130994500D01*
X113213103Y-130994500D01*
X113206312Y-130996493D01*
X113206311Y-130996494D01*
X113101118Y-131027381D01*
X113101115Y-131027382D01*
X113094325Y-131029376D01*
X113088373Y-131033201D01*
X113088371Y-131033202D01*
X113065147Y-131048127D01*
X113009663Y-131083784D01*
X112956142Y-131099500D01*
X108090538Y-131099500D01*
X108043092Y-131087390D01*
X108007254Y-131054023D01*
X107991790Y-131007562D01*
X108000485Y-130959373D01*
X108014366Y-130928978D01*
X108014366Y-130928976D01*
X108017309Y-130922533D01*
X108034927Y-130800000D01*
X108017309Y-130677467D01*
X107965884Y-130564861D01*
X107884817Y-130471304D01*
X107878862Y-130467477D01*
X107878860Y-130467475D01*
X107786632Y-130408204D01*
X107786630Y-130408203D01*
X107780675Y-130404376D01*
X107661897Y-130369500D01*
X107538103Y-130369500D01*
X107531312Y-130371493D01*
X107531311Y-130371494D01*
X107426118Y-130402381D01*
X107426115Y-130402382D01*
X107419325Y-130404376D01*
X107413372Y-130408201D01*
X107413367Y-130408204D01*
X107321139Y-130467475D01*
X107321133Y-130467480D01*
X107315183Y-130471304D01*
X107234116Y-130564861D01*
X107231176Y-130571297D01*
X107231175Y-130571300D01*
X107185633Y-130671024D01*
X107182691Y-130677467D01*
X107181683Y-130684473D01*
X107181682Y-130684479D01*
X107166081Y-130792989D01*
X107165073Y-130800000D01*
X107166081Y-130807011D01*
X107181682Y-130915520D01*
X107181683Y-130915524D01*
X107182691Y-130922533D01*
X107185630Y-130928969D01*
X107185633Y-130928978D01*
X107199515Y-130959373D01*
X107208210Y-131007562D01*
X107192746Y-131054023D01*
X107156908Y-131087390D01*
X107109462Y-131099500D01*
X106990538Y-131099500D01*
X106943092Y-131087390D01*
X106907254Y-131054023D01*
X106891790Y-131007562D01*
X106900485Y-130959373D01*
X106914366Y-130928978D01*
X106914366Y-130928976D01*
X106917309Y-130922533D01*
X106934927Y-130800000D01*
X106917309Y-130677467D01*
X106865884Y-130564861D01*
X106784817Y-130471304D01*
X106778862Y-130467477D01*
X106778860Y-130467475D01*
X106686632Y-130408204D01*
X106686630Y-130408203D01*
X106680675Y-130404376D01*
X106561897Y-130369500D01*
X106438103Y-130369500D01*
X106431312Y-130371493D01*
X106431311Y-130371494D01*
X106326118Y-130402381D01*
X106326115Y-130402382D01*
X106319325Y-130404376D01*
X106313372Y-130408201D01*
X106313367Y-130408204D01*
X106221139Y-130467475D01*
X106221133Y-130467480D01*
X106215183Y-130471304D01*
X106134116Y-130564861D01*
X106131176Y-130571297D01*
X106131175Y-130571300D01*
X106085633Y-130671024D01*
X106082691Y-130677467D01*
X106081683Y-130684473D01*
X106081682Y-130684479D01*
X106066081Y-130792989D01*
X106065073Y-130800000D01*
X106066081Y-130807011D01*
X106081682Y-130915520D01*
X106081683Y-130915524D01*
X106082691Y-130922533D01*
X106085630Y-130928969D01*
X106085633Y-130928978D01*
X106099515Y-130959373D01*
X106108210Y-131007562D01*
X106092746Y-131054023D01*
X106056908Y-131087390D01*
X106009462Y-131099500D01*
X94318858Y-131099500D01*
X94265336Y-131083784D01*
X94180675Y-131029376D01*
X94061897Y-130994500D01*
X93938103Y-130994500D01*
X93931312Y-130996493D01*
X93931311Y-130996494D01*
X93826118Y-131027381D01*
X93826115Y-131027382D01*
X93819325Y-131029376D01*
X93813372Y-131033201D01*
X93813367Y-131033204D01*
X93721139Y-131092475D01*
X93721133Y-131092480D01*
X93715183Y-131096304D01*
X93634116Y-131189861D01*
X93582691Y-131302467D01*
X93581683Y-131309473D01*
X93581682Y-131309479D01*
X93566081Y-131417989D01*
X93565073Y-131425000D01*
X90000500Y-131425000D01*
X90000500Y-130300000D01*
X90965073Y-130300000D01*
X90966081Y-130307011D01*
X90981682Y-130415520D01*
X90981683Y-130415524D01*
X90982691Y-130422533D01*
X91034116Y-130535139D01*
X91115183Y-130628696D01*
X91219325Y-130695624D01*
X91338103Y-130730500D01*
X91454819Y-130730500D01*
X91461897Y-130730500D01*
X91580675Y-130695624D01*
X91684817Y-130628696D01*
X91765884Y-130535139D01*
X91817309Y-130422533D01*
X91834927Y-130300000D01*
X91817309Y-130177467D01*
X91765884Y-130064861D01*
X91684817Y-129971304D01*
X91678862Y-129967477D01*
X91678860Y-129967475D01*
X91586632Y-129908204D01*
X91586630Y-129908203D01*
X91580675Y-129904376D01*
X91461897Y-129869500D01*
X91338103Y-129869500D01*
X91331312Y-129871493D01*
X91331311Y-129871494D01*
X91226118Y-129902381D01*
X91226115Y-129902382D01*
X91219325Y-129904376D01*
X91213372Y-129908201D01*
X91213367Y-129908204D01*
X91121139Y-129967475D01*
X91121133Y-129967480D01*
X91115183Y-129971304D01*
X91034116Y-130064861D01*
X90982691Y-130177467D01*
X90981683Y-130184473D01*
X90981682Y-130184479D01*
X90966081Y-130292989D01*
X90965073Y-130300000D01*
X90000500Y-130300000D01*
X90000500Y-126500000D01*
X105065073Y-126500000D01*
X105066081Y-126507011D01*
X105081682Y-126615520D01*
X105081683Y-126615524D01*
X105082691Y-126622533D01*
X105134116Y-126735139D01*
X105215183Y-126828696D01*
X105319325Y-126895624D01*
X105438103Y-126930500D01*
X105554819Y-126930500D01*
X105561897Y-126930500D01*
X105680675Y-126895624D01*
X105784817Y-126828696D01*
X105865884Y-126735139D01*
X105917309Y-126622533D01*
X105934927Y-126500000D01*
X105920549Y-126400000D01*
X113565073Y-126400000D01*
X113566081Y-126407011D01*
X113581682Y-126515520D01*
X113581683Y-126515524D01*
X113582691Y-126522533D01*
X113634116Y-126635139D01*
X113715183Y-126728696D01*
X113721137Y-126732522D01*
X113721139Y-126732524D01*
X113806288Y-126787246D01*
X113819325Y-126795624D01*
X113938103Y-126830500D01*
X114054819Y-126830500D01*
X114061897Y-126830500D01*
X114180675Y-126795624D01*
X114284817Y-126728696D01*
X114365884Y-126635139D01*
X114417309Y-126522533D01*
X114434927Y-126400000D01*
X114417309Y-126277467D01*
X114365884Y-126164861D01*
X114284817Y-126071304D01*
X114284983Y-126071159D01*
X114257176Y-126027893D01*
X114257176Y-125972107D01*
X114284983Y-125928840D01*
X114284817Y-125928696D01*
X114284817Y-125928695D01*
X114365884Y-125835139D01*
X114417309Y-125722533D01*
X114434927Y-125600000D01*
X114417309Y-125477467D01*
X114365884Y-125364861D01*
X114284817Y-125271304D01*
X114278862Y-125267477D01*
X114278860Y-125267475D01*
X114186632Y-125208204D01*
X114186630Y-125208203D01*
X114180675Y-125204376D01*
X114061897Y-125169500D01*
X113938103Y-125169500D01*
X113931312Y-125171493D01*
X113931311Y-125171494D01*
X113826118Y-125202381D01*
X113826115Y-125202382D01*
X113819325Y-125204376D01*
X113813372Y-125208201D01*
X113813367Y-125208204D01*
X113721139Y-125267475D01*
X113721133Y-125267480D01*
X113715183Y-125271304D01*
X113634116Y-125364861D01*
X113631176Y-125371297D01*
X113631175Y-125371300D01*
X113586329Y-125469500D01*
X113582691Y-125477467D01*
X113581683Y-125484473D01*
X113581682Y-125484479D01*
X113566081Y-125592989D01*
X113565073Y-125600000D01*
X113566081Y-125607011D01*
X113581682Y-125715520D01*
X113581683Y-125715524D01*
X113582691Y-125722533D01*
X113634116Y-125835139D01*
X113638753Y-125840490D01*
X113710545Y-125923344D01*
X113714180Y-125927538D01*
X113714181Y-125927540D01*
X113715183Y-125928696D01*
X113715016Y-125928839D01*
X113742824Y-125972109D01*
X113742824Y-126027891D01*
X113715016Y-126071160D01*
X113715183Y-126071304D01*
X113714181Y-126072459D01*
X113714177Y-126072464D01*
X113710551Y-126076649D01*
X113710547Y-126076653D01*
X113644225Y-126153194D01*
X113634116Y-126164861D01*
X113631176Y-126171297D01*
X113631175Y-126171300D01*
X113599246Y-126241216D01*
X113582691Y-126277467D01*
X113581683Y-126284473D01*
X113581682Y-126284479D01*
X113569239Y-126371024D01*
X113565073Y-126400000D01*
X105920549Y-126400000D01*
X105917309Y-126377467D01*
X105865884Y-126264861D01*
X105784817Y-126171304D01*
X105778862Y-126167477D01*
X105778860Y-126167475D01*
X105686632Y-126108204D01*
X105686630Y-126108203D01*
X105680675Y-126104376D01*
X105561897Y-126069500D01*
X105438103Y-126069500D01*
X105431312Y-126071493D01*
X105431311Y-126071494D01*
X105326118Y-126102381D01*
X105326115Y-126102382D01*
X105319325Y-126104376D01*
X105313372Y-126108201D01*
X105313367Y-126108204D01*
X105221139Y-126167475D01*
X105221133Y-126167480D01*
X105215183Y-126171304D01*
X105210547Y-126176653D01*
X105210546Y-126176655D01*
X105164961Y-126229264D01*
X105134116Y-126264861D01*
X105131176Y-126271297D01*
X105131175Y-126271300D01*
X105105051Y-126328505D01*
X105082691Y-126377467D01*
X105081683Y-126384473D01*
X105081682Y-126384479D01*
X105066081Y-126492989D01*
X105065073Y-126500000D01*
X90000500Y-126500000D01*
X90000500Y-125900000D01*
X91965073Y-125900000D01*
X91966081Y-125907011D01*
X91981682Y-126015520D01*
X91981683Y-126015524D01*
X91982691Y-126022533D01*
X92034116Y-126135139D01*
X92115183Y-126228696D01*
X92121137Y-126232522D01*
X92121139Y-126232524D01*
X92163129Y-126259509D01*
X92219325Y-126295624D01*
X92338103Y-126330500D01*
X92454819Y-126330500D01*
X92461897Y-126330500D01*
X92580675Y-126295624D01*
X92665336Y-126241215D01*
X92718858Y-126225500D01*
X97581466Y-126225500D01*
X97590095Y-126225877D01*
X97620177Y-126228509D01*
X97620177Y-126228508D01*
X97628807Y-126229264D01*
X97666354Y-126219202D01*
X97674777Y-126217335D01*
X97713045Y-126210588D01*
X97720548Y-126206255D01*
X97726027Y-126204261D01*
X97731311Y-126201796D01*
X97739684Y-126199554D01*
X97771533Y-126177251D01*
X97778779Y-126172635D01*
X97812455Y-126153194D01*
X97837442Y-126123414D01*
X97843254Y-126117070D01*
X100960324Y-123000000D01*
X103465073Y-123000000D01*
X103466081Y-123007011D01*
X103481682Y-123115520D01*
X103481683Y-123115524D01*
X103482691Y-123122533D01*
X103534116Y-123235139D01*
X103615183Y-123328696D01*
X103621137Y-123332522D01*
X103621139Y-123332524D01*
X103672412Y-123365475D01*
X103719325Y-123395624D01*
X103838103Y-123430500D01*
X103954819Y-123430500D01*
X103961897Y-123430500D01*
X104080675Y-123395624D01*
X104184817Y-123328696D01*
X104265884Y-123235139D01*
X104317309Y-123122533D01*
X104334927Y-123000000D01*
X104317309Y-122877467D01*
X104265884Y-122764861D01*
X104184817Y-122671304D01*
X104178862Y-122667477D01*
X104178860Y-122667475D01*
X104086632Y-122608204D01*
X104086630Y-122608203D01*
X104080675Y-122604376D01*
X103961897Y-122569500D01*
X103838103Y-122569500D01*
X103831312Y-122571493D01*
X103831311Y-122571494D01*
X103726118Y-122602381D01*
X103726115Y-122602382D01*
X103719325Y-122604376D01*
X103713372Y-122608201D01*
X103713367Y-122608204D01*
X103621139Y-122667475D01*
X103621133Y-122667480D01*
X103615183Y-122671304D01*
X103534116Y-122764861D01*
X103531176Y-122771297D01*
X103531175Y-122771300D01*
X103485633Y-122871024D01*
X103482691Y-122877467D01*
X103481683Y-122884473D01*
X103481682Y-122884479D01*
X103466081Y-122992989D01*
X103465073Y-123000000D01*
X100960324Y-123000000D01*
X104612988Y-119347336D01*
X104667155Y-119319617D01*
X104727305Y-119328814D01*
X104770714Y-119371455D01*
X104780983Y-119431431D01*
X104772364Y-119491382D01*
X104765073Y-119542091D01*
X104766081Y-119549102D01*
X104781682Y-119657611D01*
X104781683Y-119657615D01*
X104782691Y-119664624D01*
X104834116Y-119777230D01*
X104915183Y-119870787D01*
X104995095Y-119922143D01*
X105033473Y-119968615D01*
X105037789Y-120028732D01*
X105013011Y-120069422D01*
X105015183Y-120071304D01*
X104969058Y-120124536D01*
X104934116Y-120164861D01*
X104931176Y-120171297D01*
X104931175Y-120171300D01*
X104893113Y-120254645D01*
X104882691Y-120277467D01*
X104881683Y-120284473D01*
X104881682Y-120284479D01*
X104866253Y-120391795D01*
X104865073Y-120400000D01*
X104866081Y-120407011D01*
X104881682Y-120515520D01*
X104881683Y-120515524D01*
X104882691Y-120522533D01*
X104934116Y-120635139D01*
X104950321Y-120653841D01*
X104968258Y-120684072D01*
X104974500Y-120718669D01*
X104974500Y-124381721D01*
X104966964Y-124419607D01*
X104945504Y-124451725D01*
X104355224Y-125042004D01*
X104329536Y-125060528D01*
X104300884Y-125069500D01*
X104295658Y-125069500D01*
X104288868Y-125071493D01*
X104288865Y-125071494D01*
X104183673Y-125102381D01*
X104183670Y-125102382D01*
X104176880Y-125104376D01*
X104170927Y-125108201D01*
X104170922Y-125108204D01*
X104078694Y-125167475D01*
X104078688Y-125167480D01*
X104072738Y-125171304D01*
X104068102Y-125176653D01*
X104068101Y-125176655D01*
X104045810Y-125202381D01*
X103991671Y-125264861D01*
X103988731Y-125271297D01*
X103988730Y-125271300D01*
X103948447Y-125359509D01*
X103940246Y-125377467D01*
X103939238Y-125384473D01*
X103939237Y-125384479D01*
X103925868Y-125477467D01*
X103922628Y-125500000D01*
X103923636Y-125507011D01*
X103939237Y-125615520D01*
X103939238Y-125615524D01*
X103940246Y-125622533D01*
X103991671Y-125735139D01*
X104072738Y-125828696D01*
X104078692Y-125832522D01*
X104078694Y-125832524D01*
X104163843Y-125887246D01*
X104176880Y-125895624D01*
X104295658Y-125930500D01*
X104412374Y-125930500D01*
X104419452Y-125930500D01*
X104538230Y-125895624D01*
X104642372Y-125828696D01*
X104723439Y-125735139D01*
X104774864Y-125622533D01*
X104783527Y-125562273D01*
X104792989Y-125532056D01*
X104811511Y-125506368D01*
X105517065Y-124800814D01*
X105523425Y-124794988D01*
X105546559Y-124775577D01*
X105546558Y-124775577D01*
X105553194Y-124770010D01*
X105572635Y-124736334D01*
X105577251Y-124729088D01*
X105599554Y-124697239D01*
X105601797Y-124688865D01*
X105604258Y-124683588D01*
X105606252Y-124678108D01*
X105610588Y-124670600D01*
X105617339Y-124632305D01*
X105619196Y-124623929D01*
X105629264Y-124586361D01*
X105625877Y-124547645D01*
X105625500Y-124539017D01*
X105625500Y-123452365D01*
X105639359Y-123401848D01*
X105677054Y-123365475D01*
X105728033Y-123353428D01*
X105778023Y-123369081D01*
X105819325Y-123395624D01*
X105938103Y-123430500D01*
X106054819Y-123430500D01*
X106061897Y-123430500D01*
X106180675Y-123395624D01*
X106284817Y-123328696D01*
X106365884Y-123235139D01*
X106417309Y-123122533D01*
X106434927Y-123000000D01*
X106417309Y-122877467D01*
X106365884Y-122764861D01*
X106284817Y-122671304D01*
X106278862Y-122667477D01*
X106278860Y-122667475D01*
X106186632Y-122608204D01*
X106186630Y-122608203D01*
X106180675Y-122604376D01*
X106061897Y-122569500D01*
X105938103Y-122569500D01*
X105931312Y-122571493D01*
X105931311Y-122571494D01*
X105826118Y-122602381D01*
X105826115Y-122602382D01*
X105819325Y-122604376D01*
X105813372Y-122608201D01*
X105813367Y-122608204D01*
X105778023Y-122630919D01*
X105728033Y-122646572D01*
X105677054Y-122634525D01*
X105639359Y-122598152D01*
X105625500Y-122547635D01*
X105625500Y-121000000D01*
X107065073Y-121000000D01*
X107066081Y-121007011D01*
X107081682Y-121115520D01*
X107081683Y-121115524D01*
X107082691Y-121122533D01*
X107134116Y-121235139D01*
X107215183Y-121328696D01*
X107319325Y-121395624D01*
X107438103Y-121430500D01*
X107554819Y-121430500D01*
X107561897Y-121430500D01*
X107680675Y-121395624D01*
X107784817Y-121328696D01*
X107865884Y-121235139D01*
X107917309Y-121122533D01*
X107934927Y-121000000D01*
X107917309Y-120877467D01*
X107865884Y-120764861D01*
X107784817Y-120671304D01*
X107778862Y-120667477D01*
X107778860Y-120667475D01*
X107686632Y-120608204D01*
X107686630Y-120608203D01*
X107680675Y-120604376D01*
X107561897Y-120569500D01*
X107438103Y-120569500D01*
X107431312Y-120571493D01*
X107431311Y-120571494D01*
X107326118Y-120602381D01*
X107326115Y-120602382D01*
X107319325Y-120604376D01*
X107313372Y-120608201D01*
X107313367Y-120608204D01*
X107221139Y-120667475D01*
X107221133Y-120667480D01*
X107215183Y-120671304D01*
X107210547Y-120676653D01*
X107210546Y-120676655D01*
X107204120Y-120684072D01*
X107134116Y-120764861D01*
X107082691Y-120877467D01*
X107081683Y-120884473D01*
X107081682Y-120884479D01*
X107066081Y-120992989D01*
X107065073Y-121000000D01*
X105625500Y-121000000D01*
X105625500Y-120718669D01*
X105631742Y-120684072D01*
X105649678Y-120653841D01*
X105665884Y-120635139D01*
X105717309Y-120522533D01*
X105734927Y-120400000D01*
X105717309Y-120277467D01*
X105665884Y-120164861D01*
X105584817Y-120071304D01*
X105578862Y-120067477D01*
X105578860Y-120067475D01*
X105524026Y-120032236D01*
X105504904Y-120019947D01*
X105488436Y-120000000D01*
X106065073Y-120000000D01*
X106066081Y-120007011D01*
X106081682Y-120115520D01*
X106081683Y-120115524D01*
X106082691Y-120122533D01*
X106134116Y-120235139D01*
X106215183Y-120328696D01*
X106319325Y-120395624D01*
X106438103Y-120430500D01*
X106554819Y-120430500D01*
X106561897Y-120430500D01*
X106680675Y-120395624D01*
X106784817Y-120328696D01*
X106865884Y-120235139D01*
X106917309Y-120122533D01*
X106934927Y-120000000D01*
X106917309Y-119877467D01*
X106865884Y-119764861D01*
X106784817Y-119671304D01*
X106778862Y-119667477D01*
X106778860Y-119667475D01*
X106686632Y-119608204D01*
X106686630Y-119608203D01*
X106680675Y-119604376D01*
X106561897Y-119569500D01*
X106438103Y-119569500D01*
X106431312Y-119571493D01*
X106431311Y-119571494D01*
X106326118Y-119602381D01*
X106326115Y-119602382D01*
X106319325Y-119604376D01*
X106313372Y-119608201D01*
X106313367Y-119608204D01*
X106221139Y-119667475D01*
X106221133Y-119667480D01*
X106215183Y-119671304D01*
X106210547Y-119676653D01*
X106210546Y-119676655D01*
X106141134Y-119756762D01*
X106134116Y-119764861D01*
X106131176Y-119771297D01*
X106131175Y-119771300D01*
X106085633Y-119871024D01*
X106082691Y-119877467D01*
X106081683Y-119884473D01*
X106081682Y-119884479D01*
X106069458Y-119969500D01*
X106065073Y-120000000D01*
X105488436Y-120000000D01*
X105466515Y-119973448D01*
X105462224Y-119913302D01*
X105487000Y-119872679D01*
X105484817Y-119870787D01*
X105489454Y-119865435D01*
X105565884Y-119777230D01*
X105617309Y-119664624D01*
X105634927Y-119542091D01*
X105617309Y-119419558D01*
X105565884Y-119306952D01*
X105484817Y-119213395D01*
X105478862Y-119209568D01*
X105478860Y-119209566D01*
X105476086Y-119207784D01*
X105442050Y-119170700D01*
X105430649Y-119121673D01*
X105444830Y-119073377D01*
X105480927Y-119038296D01*
X105529609Y-119025500D01*
X109481142Y-119025500D01*
X109534663Y-119041215D01*
X109619325Y-119095624D01*
X109738103Y-119130500D01*
X109854819Y-119130500D01*
X109861897Y-119130500D01*
X109980675Y-119095624D01*
X110084817Y-119028696D01*
X110165884Y-118935139D01*
X110217309Y-118822533D01*
X110234927Y-118700000D01*
X110217309Y-118577467D01*
X110165884Y-118464861D01*
X110084817Y-118371304D01*
X110078862Y-118367477D01*
X110078860Y-118367475D01*
X109986632Y-118308204D01*
X109986628Y-118308202D01*
X109980675Y-118304376D01*
X109946420Y-118294318D01*
X109868688Y-118271494D01*
X109861897Y-118269500D01*
X109738103Y-118269500D01*
X109731312Y-118271493D01*
X109731311Y-118271494D01*
X109626118Y-118302381D01*
X109626115Y-118302382D01*
X109619325Y-118304376D01*
X109613373Y-118308201D01*
X109613371Y-118308202D01*
X109602862Y-118314956D01*
X109534663Y-118358784D01*
X109481142Y-118374500D01*
X104818534Y-118374500D01*
X104809905Y-118374123D01*
X104779819Y-118371490D01*
X104779814Y-118371490D01*
X104771193Y-118370736D01*
X104762834Y-118372975D01*
X104762830Y-118372976D01*
X104733649Y-118380795D01*
X104725224Y-118382662D01*
X104695485Y-118387906D01*
X104695475Y-118387909D01*
X104686955Y-118389412D01*
X104679459Y-118393739D01*
X104673971Y-118395737D01*
X104668678Y-118398205D01*
X104660316Y-118400446D01*
X104653223Y-118405411D01*
X104653219Y-118405414D01*
X104628483Y-118422734D01*
X104621206Y-118427370D01*
X104595045Y-118442475D01*
X104595042Y-118442477D01*
X104587545Y-118446806D01*
X104581979Y-118453438D01*
X104581979Y-118453439D01*
X104562568Y-118476571D01*
X104556736Y-118482936D01*
X104250274Y-118789398D01*
X104205892Y-118815021D01*
X104154645Y-118815020D01*
X104110265Y-118789396D01*
X104085465Y-118746440D01*
X104085044Y-118743238D01*
X104024536Y-118597159D01*
X103928282Y-118471718D01*
X103904460Y-118453439D01*
X103807989Y-118379414D01*
X103807988Y-118379413D01*
X103802841Y-118375464D01*
X103796847Y-118372981D01*
X103796845Y-118372980D01*
X103662759Y-118317440D01*
X103662758Y-118317439D01*
X103656762Y-118314956D01*
X103650331Y-118314109D01*
X103650326Y-118314108D01*
X103506434Y-118295165D01*
X103500000Y-118294318D01*
X103493566Y-118295165D01*
X103349673Y-118314108D01*
X103349666Y-118314109D01*
X103343238Y-118314956D01*
X103337243Y-118317439D01*
X103337240Y-118317440D01*
X103203154Y-118372980D01*
X103203149Y-118372982D01*
X103197159Y-118375464D01*
X103192015Y-118379411D01*
X103192010Y-118379414D01*
X103076871Y-118467763D01*
X103076866Y-118467767D01*
X103071718Y-118471718D01*
X103067767Y-118476866D01*
X103067763Y-118476871D01*
X102979414Y-118592010D01*
X102979411Y-118592015D01*
X102975464Y-118597159D01*
X102972982Y-118603149D01*
X102972980Y-118603154D01*
X102917441Y-118737238D01*
X102914956Y-118743238D01*
X102914109Y-118749666D01*
X102914108Y-118749673D01*
X102895165Y-118893566D01*
X102894492Y-118898671D01*
X102894492Y-118898675D01*
X102894318Y-118900000D01*
X102894143Y-118899977D01*
X102881902Y-118945665D01*
X102845665Y-118981902D01*
X102799977Y-118994143D01*
X102800000Y-118994318D01*
X102798675Y-118994492D01*
X102798671Y-118994492D01*
X102793566Y-118995165D01*
X102649673Y-119014108D01*
X102649666Y-119014109D01*
X102643238Y-119014956D01*
X102637243Y-119017439D01*
X102637240Y-119017440D01*
X102503154Y-119072980D01*
X102503149Y-119072982D01*
X102497159Y-119075464D01*
X102492015Y-119079411D01*
X102492010Y-119079414D01*
X102376871Y-119167763D01*
X102376866Y-119167767D01*
X102371718Y-119171718D01*
X102367767Y-119176866D01*
X102367763Y-119176871D01*
X102279414Y-119292010D01*
X102279411Y-119292015D01*
X102275464Y-119297159D01*
X102272982Y-119303149D01*
X102272980Y-119303154D01*
X102217440Y-119437240D01*
X102214956Y-119443238D01*
X102214109Y-119449666D01*
X102214108Y-119449673D01*
X102201942Y-119542091D01*
X102194318Y-119600000D01*
X102195165Y-119606434D01*
X102214108Y-119750326D01*
X102214109Y-119750331D01*
X102214956Y-119756762D01*
X102217439Y-119762758D01*
X102217440Y-119762759D01*
X102264953Y-119877467D01*
X102275464Y-119902841D01*
X102279413Y-119907988D01*
X102279414Y-119907989D01*
X102350016Y-120000000D01*
X102371718Y-120028282D01*
X102497159Y-120124536D01*
X102643238Y-120185044D01*
X102646440Y-120185465D01*
X102689396Y-120210265D01*
X102715020Y-120254645D01*
X102715021Y-120305892D01*
X102689398Y-120350274D01*
X97494170Y-125545504D01*
X97462052Y-125566964D01*
X97424166Y-125574500D01*
X92718858Y-125574500D01*
X92665336Y-125558784D01*
X92580675Y-125504376D01*
X92461897Y-125469500D01*
X92338103Y-125469500D01*
X92331312Y-125471493D01*
X92331311Y-125471494D01*
X92226118Y-125502381D01*
X92226115Y-125502382D01*
X92219325Y-125504376D01*
X92213372Y-125508201D01*
X92213367Y-125508204D01*
X92121139Y-125567475D01*
X92121133Y-125567480D01*
X92115183Y-125571304D01*
X92110547Y-125576653D01*
X92110546Y-125576655D01*
X92076866Y-125615525D01*
X92034116Y-125664861D01*
X92031176Y-125671297D01*
X92031175Y-125671300D01*
X91985633Y-125771024D01*
X91982691Y-125777467D01*
X91981683Y-125784473D01*
X91981682Y-125784479D01*
X91973629Y-125840490D01*
X91965073Y-125900000D01*
X90000500Y-125900000D01*
X90000500Y-116425000D01*
X92590073Y-116425000D01*
X92591081Y-116432011D01*
X92606682Y-116540520D01*
X92606683Y-116540524D01*
X92607691Y-116547533D01*
X92659116Y-116660139D01*
X92740183Y-116753696D01*
X92844325Y-116820624D01*
X92963103Y-116855500D01*
X93079819Y-116855500D01*
X93086897Y-116855500D01*
X93205675Y-116820624D01*
X93309817Y-116753696D01*
X93390884Y-116660139D01*
X93442309Y-116547533D01*
X93459927Y-116425000D01*
X93442309Y-116302467D01*
X93390884Y-116189861D01*
X93309817Y-116096304D01*
X93303862Y-116092477D01*
X93303860Y-116092475D01*
X93211632Y-116033204D01*
X93211630Y-116033203D01*
X93205675Y-116029376D01*
X93158485Y-116015520D01*
X93093688Y-115996494D01*
X93086897Y-115994500D01*
X92963103Y-115994500D01*
X92956312Y-115996493D01*
X92956311Y-115996494D01*
X92851118Y-116027381D01*
X92851115Y-116027382D01*
X92844325Y-116029376D01*
X92838372Y-116033201D01*
X92838367Y-116033204D01*
X92746139Y-116092475D01*
X92746133Y-116092480D01*
X92740183Y-116096304D01*
X92735547Y-116101653D01*
X92735546Y-116101655D01*
X92701896Y-116140490D01*
X92659116Y-116189861D01*
X92656176Y-116196297D01*
X92656175Y-116196300D01*
X92610816Y-116295624D01*
X92607691Y-116302467D01*
X92606683Y-116309473D01*
X92606682Y-116309479D01*
X92603947Y-116328505D01*
X92590073Y-116425000D01*
X90000500Y-116425000D01*
X90000500Y-115900000D01*
X104165073Y-115900000D01*
X104166081Y-115907011D01*
X104181682Y-116015520D01*
X104181683Y-116015524D01*
X104182691Y-116022533D01*
X104234116Y-116135139D01*
X104315183Y-116228696D01*
X104419325Y-116295624D01*
X104538103Y-116330500D01*
X104654819Y-116330500D01*
X104661897Y-116330500D01*
X104780675Y-116295624D01*
X104884817Y-116228696D01*
X104965884Y-116135139D01*
X105017309Y-116022533D01*
X105034927Y-115900000D01*
X105017309Y-115777467D01*
X104965884Y-115664861D01*
X104884817Y-115571304D01*
X104878862Y-115567477D01*
X104878860Y-115567475D01*
X104786632Y-115508204D01*
X104786630Y-115508203D01*
X104780675Y-115504376D01*
X104661897Y-115469500D01*
X104538103Y-115469500D01*
X104531312Y-115471493D01*
X104531311Y-115471494D01*
X104426118Y-115502381D01*
X104426115Y-115502382D01*
X104419325Y-115504376D01*
X104413372Y-115508201D01*
X104413367Y-115508204D01*
X104321139Y-115567475D01*
X104321133Y-115567480D01*
X104315183Y-115571304D01*
X104234116Y-115664861D01*
X104182691Y-115777467D01*
X104181683Y-115784473D01*
X104181682Y-115784479D01*
X104166081Y-115892989D01*
X104165073Y-115900000D01*
X90000500Y-115900000D01*
X90000500Y-114000000D01*
X108265073Y-114000000D01*
X108266081Y-114007011D01*
X108281682Y-114115520D01*
X108281683Y-114115524D01*
X108282691Y-114122533D01*
X108334116Y-114235139D01*
X108415183Y-114328696D01*
X108519325Y-114395624D01*
X108638103Y-114430500D01*
X108754819Y-114430500D01*
X108761897Y-114430500D01*
X108880675Y-114395624D01*
X108984817Y-114328696D01*
X109065884Y-114235139D01*
X109117309Y-114122533D01*
X109134927Y-114000000D01*
X109117309Y-113877467D01*
X109065884Y-113764861D01*
X108984817Y-113671304D01*
X108978862Y-113667477D01*
X108978860Y-113667475D01*
X108886632Y-113608204D01*
X108886630Y-113608203D01*
X108880675Y-113604376D01*
X108761897Y-113569500D01*
X108638103Y-113569500D01*
X108631312Y-113571493D01*
X108631311Y-113571494D01*
X108526118Y-113602381D01*
X108526115Y-113602382D01*
X108519325Y-113604376D01*
X108513372Y-113608201D01*
X108513367Y-113608204D01*
X108421139Y-113667475D01*
X108421133Y-113667480D01*
X108415183Y-113671304D01*
X108334116Y-113764861D01*
X108282691Y-113877467D01*
X108281683Y-113884473D01*
X108281682Y-113884479D01*
X108266081Y-113992989D01*
X108265073Y-114000000D01*
X90000500Y-114000000D01*
X90000500Y-111500000D01*
X100065073Y-111500000D01*
X100066081Y-111507011D01*
X100081682Y-111615520D01*
X100081683Y-111615524D01*
X100082691Y-111622533D01*
X100134116Y-111735139D01*
X100215183Y-111828696D01*
X100319325Y-111895624D01*
X100438103Y-111930500D01*
X100554819Y-111930500D01*
X100561897Y-111930500D01*
X100680675Y-111895624D01*
X100784817Y-111828696D01*
X100809682Y-111800000D01*
X103665073Y-111800000D01*
X103666081Y-111807011D01*
X103681682Y-111915520D01*
X103681683Y-111915524D01*
X103682691Y-111922533D01*
X103734116Y-112035139D01*
X103815183Y-112128696D01*
X103821137Y-112132522D01*
X103821139Y-112132524D01*
X103842194Y-112146055D01*
X103919325Y-112195624D01*
X103991045Y-112216682D01*
X104037972Y-112246840D01*
X104061145Y-112297582D01*
X104053207Y-112352797D01*
X104010634Y-112446021D01*
X104010633Y-112446024D01*
X104007691Y-112452467D01*
X104006683Y-112459473D01*
X104006682Y-112459479D01*
X104004955Y-112471494D01*
X103990073Y-112575000D01*
X103991081Y-112582011D01*
X104006682Y-112690520D01*
X104006683Y-112690524D01*
X104007691Y-112697533D01*
X104059116Y-112810139D01*
X104140183Y-112903696D01*
X104244325Y-112970624D01*
X104363103Y-113005500D01*
X104479819Y-113005500D01*
X104486897Y-113005500D01*
X104605675Y-112970624D01*
X104709817Y-112903696D01*
X104713020Y-112900000D01*
X109365073Y-112900000D01*
X109366081Y-112907011D01*
X109381682Y-113015520D01*
X109381683Y-113015524D01*
X109382691Y-113022533D01*
X109434116Y-113135139D01*
X109515183Y-113228696D01*
X109619325Y-113295624D01*
X109738103Y-113330500D01*
X109854819Y-113330500D01*
X109861897Y-113330500D01*
X109980675Y-113295624D01*
X110084817Y-113228696D01*
X110165884Y-113135139D01*
X110217309Y-113022533D01*
X110234927Y-112900000D01*
X110217309Y-112777467D01*
X110165884Y-112664861D01*
X110084817Y-112571304D01*
X110078862Y-112567477D01*
X110078860Y-112567475D01*
X109986632Y-112508204D01*
X109986630Y-112508203D01*
X109980675Y-112504376D01*
X109861897Y-112469500D01*
X109738103Y-112469500D01*
X109731312Y-112471493D01*
X109731311Y-112471494D01*
X109626118Y-112502381D01*
X109626115Y-112502382D01*
X109619325Y-112504376D01*
X109613372Y-112508201D01*
X109613367Y-112508204D01*
X109521139Y-112567475D01*
X109521133Y-112567480D01*
X109515183Y-112571304D01*
X109434116Y-112664861D01*
X109382691Y-112777467D01*
X109381683Y-112784473D01*
X109381682Y-112784479D01*
X109366081Y-112892989D01*
X109365073Y-112900000D01*
X104713020Y-112900000D01*
X104790884Y-112810139D01*
X104842309Y-112697533D01*
X104859927Y-112575000D01*
X104842309Y-112452467D01*
X104790884Y-112339861D01*
X104709817Y-112246304D01*
X104703862Y-112242477D01*
X104703860Y-112242475D01*
X104611632Y-112183204D01*
X104611630Y-112183203D01*
X104605675Y-112179376D01*
X104533954Y-112158317D01*
X104487027Y-112128158D01*
X104463854Y-112077416D01*
X104471791Y-112022202D01*
X104517309Y-111922533D01*
X104534927Y-111800000D01*
X104517309Y-111677467D01*
X104465884Y-111564861D01*
X104384817Y-111471304D01*
X104378862Y-111467477D01*
X104378860Y-111467475D01*
X104286632Y-111408204D01*
X104286630Y-111408203D01*
X104280675Y-111404376D01*
X104161897Y-111369500D01*
X104038103Y-111369500D01*
X104031312Y-111371493D01*
X104031311Y-111371494D01*
X103926118Y-111402381D01*
X103926115Y-111402382D01*
X103919325Y-111404376D01*
X103913372Y-111408201D01*
X103913367Y-111408204D01*
X103821139Y-111467475D01*
X103821133Y-111467480D01*
X103815183Y-111471304D01*
X103734116Y-111564861D01*
X103682691Y-111677467D01*
X103681683Y-111684473D01*
X103681682Y-111684479D01*
X103673629Y-111740490D01*
X103665073Y-111800000D01*
X100809682Y-111800000D01*
X100865884Y-111735139D01*
X100917309Y-111622533D01*
X100934927Y-111500000D01*
X100917309Y-111377467D01*
X100865884Y-111264861D01*
X100784817Y-111171304D01*
X100778862Y-111167477D01*
X100778860Y-111167475D01*
X100686632Y-111108204D01*
X100686630Y-111108203D01*
X100680675Y-111104376D01*
X100561897Y-111069500D01*
X100438103Y-111069500D01*
X100431312Y-111071493D01*
X100431311Y-111071494D01*
X100326118Y-111102381D01*
X100326115Y-111102382D01*
X100319325Y-111104376D01*
X100313372Y-111108201D01*
X100313367Y-111108204D01*
X100221139Y-111167475D01*
X100221133Y-111167480D01*
X100215183Y-111171304D01*
X100210547Y-111176653D01*
X100210546Y-111176655D01*
X100165453Y-111228696D01*
X100134116Y-111264861D01*
X100131176Y-111271297D01*
X100131175Y-111271300D01*
X100105051Y-111328505D01*
X100082691Y-111377467D01*
X100081683Y-111384473D01*
X100081682Y-111384479D01*
X100066081Y-111492989D01*
X100065073Y-111500000D01*
X90000500Y-111500000D01*
X90000500Y-110900000D01*
X105165073Y-110900000D01*
X105166081Y-110907011D01*
X105181682Y-111015520D01*
X105181683Y-111015524D01*
X105182691Y-111022533D01*
X105234116Y-111135139D01*
X105315183Y-111228696D01*
X105419325Y-111295624D01*
X105538103Y-111330500D01*
X105654819Y-111330500D01*
X105661897Y-111330500D01*
X105780675Y-111295624D01*
X105884817Y-111228696D01*
X105965884Y-111135139D01*
X106017309Y-111022533D01*
X106034927Y-110900000D01*
X106017309Y-110777467D01*
X105965884Y-110664861D01*
X105884817Y-110571304D01*
X105878862Y-110567477D01*
X105878860Y-110567475D01*
X105786632Y-110508204D01*
X105786630Y-110508203D01*
X105780675Y-110504376D01*
X105661897Y-110469500D01*
X105538103Y-110469500D01*
X105531312Y-110471493D01*
X105531311Y-110471494D01*
X105426118Y-110502381D01*
X105426115Y-110502382D01*
X105419325Y-110504376D01*
X105413372Y-110508201D01*
X105413367Y-110508204D01*
X105321139Y-110567475D01*
X105321133Y-110567480D01*
X105315183Y-110571304D01*
X105234116Y-110664861D01*
X105182691Y-110777467D01*
X105181683Y-110784473D01*
X105181682Y-110784479D01*
X105166081Y-110892989D01*
X105165073Y-110900000D01*
X90000500Y-110900000D01*
X90000500Y-109900000D01*
X108165073Y-109900000D01*
X108166081Y-109907011D01*
X108181682Y-110015520D01*
X108181683Y-110015524D01*
X108182691Y-110022533D01*
X108234116Y-110135139D01*
X108315183Y-110228696D01*
X108419325Y-110295624D01*
X108538103Y-110330500D01*
X108654819Y-110330500D01*
X108661897Y-110330500D01*
X108780675Y-110295624D01*
X108884817Y-110228696D01*
X108965884Y-110135139D01*
X109017309Y-110022533D01*
X109034927Y-109900000D01*
X109017309Y-109777467D01*
X108965884Y-109664861D01*
X108884817Y-109571304D01*
X108878862Y-109567477D01*
X108878860Y-109567475D01*
X108851668Y-109550000D01*
X118115073Y-109550000D01*
X118116081Y-109557011D01*
X118131682Y-109665520D01*
X118131683Y-109665524D01*
X118132691Y-109672533D01*
X118184116Y-109785139D01*
X118265183Y-109878696D01*
X118271137Y-109882522D01*
X118271139Y-109882524D01*
X118309242Y-109907011D01*
X118369325Y-109945624D01*
X118488103Y-109980500D01*
X118604819Y-109980500D01*
X118611897Y-109980500D01*
X118730675Y-109945624D01*
X118834817Y-109878696D01*
X118850181Y-109860964D01*
X118897108Y-109830805D01*
X118952892Y-109830805D01*
X118999818Y-109860964D01*
X119015183Y-109878696D01*
X119021137Y-109882522D01*
X119021139Y-109882524D01*
X119059242Y-109907011D01*
X119119325Y-109945624D01*
X119238103Y-109980500D01*
X119354819Y-109980500D01*
X119361897Y-109980500D01*
X119480675Y-109945624D01*
X119584817Y-109878696D01*
X119665884Y-109785139D01*
X119717309Y-109672533D01*
X119734927Y-109550000D01*
X119717309Y-109427467D01*
X119665884Y-109314861D01*
X119584817Y-109221304D01*
X119578862Y-109217477D01*
X119578860Y-109217475D01*
X119486632Y-109158204D01*
X119486630Y-109158203D01*
X119480675Y-109154376D01*
X119361897Y-109119500D01*
X119238103Y-109119500D01*
X119231312Y-109121493D01*
X119231311Y-109121494D01*
X119126118Y-109152381D01*
X119126115Y-109152382D01*
X119119325Y-109154376D01*
X119113372Y-109158201D01*
X119113367Y-109158204D01*
X119021139Y-109217475D01*
X119021133Y-109217480D01*
X119015183Y-109221304D01*
X119010547Y-109226653D01*
X119010546Y-109226655D01*
X118999819Y-109239035D01*
X118952892Y-109269194D01*
X118897108Y-109269194D01*
X118850181Y-109239035D01*
X118848531Y-109237131D01*
X118834817Y-109221304D01*
X118828862Y-109217477D01*
X118828860Y-109217475D01*
X118736632Y-109158204D01*
X118736630Y-109158203D01*
X118730675Y-109154376D01*
X118611897Y-109119500D01*
X118488103Y-109119500D01*
X118481312Y-109121493D01*
X118481311Y-109121494D01*
X118376118Y-109152381D01*
X118376115Y-109152382D01*
X118369325Y-109154376D01*
X118363372Y-109158201D01*
X118363367Y-109158204D01*
X118271139Y-109217475D01*
X118271133Y-109217480D01*
X118265183Y-109221304D01*
X118184116Y-109314861D01*
X118181176Y-109321297D01*
X118181175Y-109321300D01*
X118135633Y-109421024D01*
X118132691Y-109427467D01*
X118131683Y-109434473D01*
X118131682Y-109434479D01*
X118121633Y-109504376D01*
X118115073Y-109550000D01*
X108851668Y-109550000D01*
X108786632Y-109508204D01*
X108786630Y-109508203D01*
X108780675Y-109504376D01*
X108755026Y-109496845D01*
X108668688Y-109471494D01*
X108661897Y-109469500D01*
X108538103Y-109469500D01*
X108531312Y-109471493D01*
X108531311Y-109471494D01*
X108426118Y-109502381D01*
X108426115Y-109502382D01*
X108419325Y-109504376D01*
X108413372Y-109508201D01*
X108413367Y-109508204D01*
X108321139Y-109567475D01*
X108321133Y-109567480D01*
X108315183Y-109571304D01*
X108310547Y-109576653D01*
X108310546Y-109576655D01*
X108262386Y-109632236D01*
X108234116Y-109664861D01*
X108231176Y-109671297D01*
X108231175Y-109671300D01*
X108185633Y-109771024D01*
X108182691Y-109777467D01*
X108181683Y-109784473D01*
X108181682Y-109784479D01*
X108168905Y-109873346D01*
X108165073Y-109900000D01*
X90000500Y-109900000D01*
X90000500Y-109200000D01*
X94394318Y-109200000D01*
X94395165Y-109206434D01*
X94414108Y-109350326D01*
X94414109Y-109350331D01*
X94414956Y-109356762D01*
X94417439Y-109362758D01*
X94417440Y-109362759D01*
X94462479Y-109471494D01*
X94475464Y-109502841D01*
X94479413Y-109507988D01*
X94479414Y-109507989D01*
X94506270Y-109542989D01*
X94571718Y-109628282D01*
X94697159Y-109724536D01*
X94843238Y-109785044D01*
X95000000Y-109805682D01*
X95156762Y-109785044D01*
X95302841Y-109724536D01*
X95428282Y-109628282D01*
X95524536Y-109502841D01*
X95585044Y-109356762D01*
X95605682Y-109200000D01*
X95585044Y-109043238D01*
X95524536Y-108897159D01*
X95428282Y-108771718D01*
X95302841Y-108675464D01*
X95296847Y-108672981D01*
X95296845Y-108672980D01*
X95162759Y-108617440D01*
X95162758Y-108617439D01*
X95156762Y-108614956D01*
X95150331Y-108614109D01*
X95150326Y-108614108D01*
X95006434Y-108595165D01*
X95000000Y-108594318D01*
X94993566Y-108595165D01*
X94849673Y-108614108D01*
X94849666Y-108614109D01*
X94843238Y-108614956D01*
X94837243Y-108617439D01*
X94837240Y-108617440D01*
X94703154Y-108672980D01*
X94703149Y-108672982D01*
X94697159Y-108675464D01*
X94692015Y-108679411D01*
X94692010Y-108679414D01*
X94576871Y-108767763D01*
X94576866Y-108767767D01*
X94571718Y-108771718D01*
X94567767Y-108776866D01*
X94567763Y-108776871D01*
X94479414Y-108892010D01*
X94479411Y-108892015D01*
X94475464Y-108897159D01*
X94472982Y-108903149D01*
X94472980Y-108903154D01*
X94417440Y-109037240D01*
X94414956Y-109043238D01*
X94414109Y-109049666D01*
X94414108Y-109049673D01*
X94395165Y-109193566D01*
X94394318Y-109200000D01*
X90000500Y-109200000D01*
X90000500Y-107500000D01*
X94394318Y-107500000D01*
X94395165Y-107506434D01*
X94414108Y-107650326D01*
X94414109Y-107650331D01*
X94414956Y-107656762D01*
X94475464Y-107802841D01*
X94479413Y-107807988D01*
X94479414Y-107807989D01*
X94553050Y-107903954D01*
X94571718Y-107928282D01*
X94697159Y-108024536D01*
X94843238Y-108085044D01*
X95000000Y-108105682D01*
X95156762Y-108085044D01*
X95302841Y-108024536D01*
X95428282Y-107928282D01*
X95524536Y-107802841D01*
X95585044Y-107656762D01*
X95605682Y-107500000D01*
X115364417Y-107500000D01*
X115384700Y-107705934D01*
X115386111Y-107710586D01*
X115386112Y-107710590D01*
X115443354Y-107899293D01*
X115444768Y-107903954D01*
X115447062Y-107908246D01*
X115447063Y-107908248D01*
X115540023Y-108082163D01*
X115540025Y-108082166D01*
X115542315Y-108086450D01*
X115673590Y-108246410D01*
X115833550Y-108377685D01*
X116016046Y-108475232D01*
X116214066Y-108535300D01*
X116420000Y-108555583D01*
X116625934Y-108535300D01*
X116823954Y-108475232D01*
X117006450Y-108377685D01*
X117166410Y-108246410D01*
X117297685Y-108086450D01*
X117395232Y-107903954D01*
X117455300Y-107705934D01*
X117475583Y-107500000D01*
X117904417Y-107500000D01*
X117924700Y-107705934D01*
X117926111Y-107710586D01*
X117926112Y-107710590D01*
X117983354Y-107899293D01*
X117984768Y-107903954D01*
X117987062Y-107908246D01*
X117987063Y-107908248D01*
X118080023Y-108082163D01*
X118080025Y-108082166D01*
X118082315Y-108086450D01*
X118213590Y-108246410D01*
X118373550Y-108377685D01*
X118556046Y-108475232D01*
X118754066Y-108535300D01*
X118960000Y-108555583D01*
X119165934Y-108535300D01*
X119363954Y-108475232D01*
X119546450Y-108377685D01*
X119706410Y-108246410D01*
X119837685Y-108086450D01*
X119935232Y-107903954D01*
X119995300Y-107705934D01*
X120015583Y-107500000D01*
X120444417Y-107500000D01*
X120464700Y-107705934D01*
X120466111Y-107710586D01*
X120466112Y-107710590D01*
X120523354Y-107899293D01*
X120524768Y-107903954D01*
X120527062Y-107908246D01*
X120527063Y-107908248D01*
X120620023Y-108082163D01*
X120620025Y-108082166D01*
X120622315Y-108086450D01*
X120753590Y-108246410D01*
X120913550Y-108377685D01*
X121096046Y-108475232D01*
X121294066Y-108535300D01*
X121500000Y-108555583D01*
X121705934Y-108535300D01*
X121903954Y-108475232D01*
X122086450Y-108377685D01*
X122096121Y-108369748D01*
X122989500Y-108369748D01*
X122990446Y-108374506D01*
X122990447Y-108374511D01*
X122991534Y-108379976D01*
X123001133Y-108428231D01*
X123006550Y-108436338D01*
X123006551Y-108436340D01*
X123040028Y-108486441D01*
X123045448Y-108494552D01*
X123111769Y-108538867D01*
X123170252Y-108550500D01*
X124904890Y-108550500D01*
X124909748Y-108550500D01*
X124968231Y-108538867D01*
X125034552Y-108494552D01*
X125078867Y-108428231D01*
X125090500Y-108369748D01*
X125090500Y-106630252D01*
X125078867Y-106571769D01*
X125034552Y-106505448D01*
X125026441Y-106500028D01*
X124976340Y-106466551D01*
X124976338Y-106466550D01*
X124968231Y-106461133D01*
X124958667Y-106459230D01*
X124958666Y-106459230D01*
X124914511Y-106450447D01*
X124914506Y-106450446D01*
X124909748Y-106449500D01*
X123170252Y-106449500D01*
X123165494Y-106450446D01*
X123165488Y-106450447D01*
X123121333Y-106459230D01*
X123121330Y-106459231D01*
X123111769Y-106461133D01*
X123103663Y-106466549D01*
X123103659Y-106466551D01*
X123053558Y-106500028D01*
X123053555Y-106500030D01*
X123045448Y-106505448D01*
X123040030Y-106513555D01*
X123040028Y-106513558D01*
X123006551Y-106563659D01*
X123006549Y-106563663D01*
X123001133Y-106571769D01*
X122999231Y-106581330D01*
X122999230Y-106581333D01*
X122990447Y-106625488D01*
X122990446Y-106625494D01*
X122989500Y-106630252D01*
X122989500Y-108369748D01*
X122096121Y-108369748D01*
X122246410Y-108246410D01*
X122377685Y-108086450D01*
X122475232Y-107903954D01*
X122535300Y-107705934D01*
X122555583Y-107500000D01*
X122535300Y-107294066D01*
X122475232Y-107096046D01*
X122377685Y-106913550D01*
X122246410Y-106753590D01*
X122086450Y-106622315D01*
X122082166Y-106620025D01*
X122082163Y-106620023D01*
X121908248Y-106527063D01*
X121908246Y-106527062D01*
X121903954Y-106524768D01*
X121899293Y-106523354D01*
X121710590Y-106466112D01*
X121710586Y-106466111D01*
X121705934Y-106464700D01*
X121500000Y-106444417D01*
X121495157Y-106444894D01*
X121298908Y-106464223D01*
X121298907Y-106464223D01*
X121294066Y-106464700D01*
X121289415Y-106466110D01*
X121289409Y-106466112D01*
X121100706Y-106523354D01*
X121100702Y-106523355D01*
X121096046Y-106524768D01*
X121091757Y-106527060D01*
X121091751Y-106527063D01*
X120917836Y-106620023D01*
X120917828Y-106620028D01*
X120913550Y-106622315D01*
X120909796Y-106625394D01*
X120909791Y-106625399D01*
X120757354Y-106750500D01*
X120757348Y-106750505D01*
X120753590Y-106753590D01*
X120750505Y-106757348D01*
X120750500Y-106757354D01*
X120625399Y-106909791D01*
X120625394Y-106909796D01*
X120622315Y-106913550D01*
X120620028Y-106917828D01*
X120620023Y-106917836D01*
X120527063Y-107091751D01*
X120527060Y-107091757D01*
X120524768Y-107096046D01*
X120523355Y-107100702D01*
X120523354Y-107100706D01*
X120466112Y-107289409D01*
X120466110Y-107289415D01*
X120464700Y-107294066D01*
X120444417Y-107500000D01*
X120015583Y-107500000D01*
X119995300Y-107294066D01*
X119935232Y-107096046D01*
X119837685Y-106913550D01*
X119706410Y-106753590D01*
X119546450Y-106622315D01*
X119542166Y-106620025D01*
X119542163Y-106620023D01*
X119368248Y-106527063D01*
X119368246Y-106527062D01*
X119363954Y-106524768D01*
X119359293Y-106523354D01*
X119170590Y-106466112D01*
X119170586Y-106466111D01*
X119165934Y-106464700D01*
X118960000Y-106444417D01*
X118955157Y-106444894D01*
X118758908Y-106464223D01*
X118758907Y-106464223D01*
X118754066Y-106464700D01*
X118749415Y-106466110D01*
X118749409Y-106466112D01*
X118560706Y-106523354D01*
X118560702Y-106523355D01*
X118556046Y-106524768D01*
X118551757Y-106527060D01*
X118551751Y-106527063D01*
X118377836Y-106620023D01*
X118377828Y-106620028D01*
X118373550Y-106622315D01*
X118369796Y-106625394D01*
X118369791Y-106625399D01*
X118217354Y-106750500D01*
X118217348Y-106750505D01*
X118213590Y-106753590D01*
X118210505Y-106757348D01*
X118210500Y-106757354D01*
X118085399Y-106909791D01*
X118085394Y-106909796D01*
X118082315Y-106913550D01*
X118080028Y-106917828D01*
X118080023Y-106917836D01*
X117987063Y-107091751D01*
X117987060Y-107091757D01*
X117984768Y-107096046D01*
X117983355Y-107100702D01*
X117983354Y-107100706D01*
X117926112Y-107289409D01*
X117926110Y-107289415D01*
X117924700Y-107294066D01*
X117904417Y-107500000D01*
X117475583Y-107500000D01*
X117455300Y-107294066D01*
X117395232Y-107096046D01*
X117297685Y-106913550D01*
X117166410Y-106753590D01*
X117006450Y-106622315D01*
X117002166Y-106620025D01*
X117002163Y-106620023D01*
X116828248Y-106527063D01*
X116828246Y-106527062D01*
X116823954Y-106524768D01*
X116819293Y-106523354D01*
X116630590Y-106466112D01*
X116630586Y-106466111D01*
X116625934Y-106464700D01*
X116420000Y-106444417D01*
X116415157Y-106444894D01*
X116218908Y-106464223D01*
X116218907Y-106464223D01*
X116214066Y-106464700D01*
X116209415Y-106466110D01*
X116209409Y-106466112D01*
X116020706Y-106523354D01*
X116020702Y-106523355D01*
X116016046Y-106524768D01*
X116011757Y-106527060D01*
X116011751Y-106527063D01*
X115837836Y-106620023D01*
X115837828Y-106620028D01*
X115833550Y-106622315D01*
X115829796Y-106625394D01*
X115829791Y-106625399D01*
X115677354Y-106750500D01*
X115677348Y-106750505D01*
X115673590Y-106753590D01*
X115670505Y-106757348D01*
X115670500Y-106757354D01*
X115545399Y-106909791D01*
X115545394Y-106909796D01*
X115542315Y-106913550D01*
X115540028Y-106917828D01*
X115540023Y-106917836D01*
X115447063Y-107091751D01*
X115447060Y-107091757D01*
X115444768Y-107096046D01*
X115443355Y-107100702D01*
X115443354Y-107100706D01*
X115386112Y-107289409D01*
X115386110Y-107289415D01*
X115384700Y-107294066D01*
X115364417Y-107500000D01*
X95605682Y-107500000D01*
X95585044Y-107343238D01*
X95524536Y-107197159D01*
X95428282Y-107071718D01*
X95302841Y-106975464D01*
X95296847Y-106972981D01*
X95296845Y-106972980D01*
X95162759Y-106917440D01*
X95162758Y-106917439D01*
X95156762Y-106914956D01*
X95150331Y-106914109D01*
X95150326Y-106914108D01*
X95006434Y-106895165D01*
X95000000Y-106894318D01*
X94993566Y-106895165D01*
X94849673Y-106914108D01*
X94849666Y-106914109D01*
X94843238Y-106914956D01*
X94837243Y-106917439D01*
X94837240Y-106917440D01*
X94703154Y-106972980D01*
X94703149Y-106972982D01*
X94697159Y-106975464D01*
X94692015Y-106979411D01*
X94692010Y-106979414D01*
X94576871Y-107067763D01*
X94576866Y-107067767D01*
X94571718Y-107071718D01*
X94567767Y-107076866D01*
X94567763Y-107076871D01*
X94479414Y-107192010D01*
X94479411Y-107192015D01*
X94475464Y-107197159D01*
X94472982Y-107203149D01*
X94472980Y-107203154D01*
X94433318Y-107298908D01*
X94414956Y-107343238D01*
X94414109Y-107349666D01*
X94414108Y-107349673D01*
X94395165Y-107493566D01*
X94394318Y-107500000D01*
X90000500Y-107500000D01*
X90000500Y-105700000D01*
X99994318Y-105700000D01*
X99995165Y-105706434D01*
X100014108Y-105850326D01*
X100014109Y-105850331D01*
X100014956Y-105856762D01*
X100017439Y-105862758D01*
X100017440Y-105862759D01*
X100053783Y-105950500D01*
X100075464Y-106002841D01*
X100171718Y-106128282D01*
X100297159Y-106224536D01*
X100443238Y-106285044D01*
X100600000Y-106305682D01*
X100756762Y-106285044D01*
X100902841Y-106224536D01*
X101028282Y-106128282D01*
X101124536Y-106002841D01*
X101185044Y-105856762D01*
X101205682Y-105700000D01*
X101185044Y-105543238D01*
X101124536Y-105397159D01*
X101028282Y-105271718D01*
X100902841Y-105175464D01*
X100896847Y-105172981D01*
X100896845Y-105172980D01*
X100762759Y-105117440D01*
X100762758Y-105117439D01*
X100756762Y-105114956D01*
X100750331Y-105114109D01*
X100750326Y-105114108D01*
X100606434Y-105095165D01*
X100600000Y-105094318D01*
X100593566Y-105095165D01*
X100449673Y-105114108D01*
X100449666Y-105114109D01*
X100443238Y-105114956D01*
X100437243Y-105117439D01*
X100437240Y-105117440D01*
X100303154Y-105172980D01*
X100303149Y-105172982D01*
X100297159Y-105175464D01*
X100292015Y-105179411D01*
X100292010Y-105179414D01*
X100176871Y-105267763D01*
X100176866Y-105267767D01*
X100171718Y-105271718D01*
X100167767Y-105276866D01*
X100167763Y-105276871D01*
X100079414Y-105392010D01*
X100079411Y-105392015D01*
X100075464Y-105397159D01*
X100072982Y-105403149D01*
X100072980Y-105403154D01*
X100034334Y-105496455D01*
X100014956Y-105543238D01*
X100014109Y-105549666D01*
X100014108Y-105549673D01*
X99995165Y-105693566D01*
X99994318Y-105700000D01*
X90000500Y-105700000D01*
X90000500Y-105301306D01*
X91306770Y-105301306D01*
X91313690Y-105310058D01*
X91363048Y-105344619D01*
X91370506Y-105348925D01*
X91562807Y-105438596D01*
X91570894Y-105441539D01*
X91775842Y-105496455D01*
X91784330Y-105497952D01*
X91995691Y-105516444D01*
X92004309Y-105516444D01*
X92215669Y-105497952D01*
X92224157Y-105496455D01*
X92429105Y-105441539D01*
X92437192Y-105438596D01*
X92629497Y-105348924D01*
X92636951Y-105344619D01*
X92686308Y-105310058D01*
X92693228Y-105301306D01*
X96306770Y-105301306D01*
X96313690Y-105310058D01*
X96363048Y-105344619D01*
X96370506Y-105348925D01*
X96562807Y-105438596D01*
X96570894Y-105441539D01*
X96775842Y-105496455D01*
X96784330Y-105497952D01*
X96995691Y-105516444D01*
X97004309Y-105516444D01*
X97215669Y-105497952D01*
X97224157Y-105496455D01*
X97429105Y-105441539D01*
X97437192Y-105438596D01*
X97629497Y-105348924D01*
X97636951Y-105344619D01*
X97686308Y-105310058D01*
X97693228Y-105301306D01*
X97687934Y-105291488D01*
X97009214Y-104612767D01*
X97000000Y-104607447D01*
X96990785Y-104612767D01*
X96312064Y-105291488D01*
X96306770Y-105301306D01*
X92693228Y-105301306D01*
X92687934Y-105291488D01*
X92009214Y-104612767D01*
X92000000Y-104607447D01*
X91990785Y-104612767D01*
X91312064Y-105291488D01*
X91306770Y-105301306D01*
X90000500Y-105301306D01*
X90000500Y-104254309D01*
X90733556Y-104254309D01*
X90752047Y-104465669D01*
X90753544Y-104474157D01*
X90808460Y-104679105D01*
X90811403Y-104687192D01*
X90901077Y-104879499D01*
X90905377Y-104886948D01*
X90939938Y-104936306D01*
X90948693Y-104943228D01*
X90958510Y-104937934D01*
X91637231Y-104259214D01*
X91642551Y-104250000D01*
X92357447Y-104250000D01*
X92362767Y-104259214D01*
X93041488Y-104937934D01*
X93051306Y-104943228D01*
X93060058Y-104936308D01*
X93094619Y-104886951D01*
X93098924Y-104879497D01*
X93188596Y-104687192D01*
X93191539Y-104679105D01*
X93246455Y-104474157D01*
X93247952Y-104465669D01*
X93266444Y-104254309D01*
X95733556Y-104254309D01*
X95752047Y-104465669D01*
X95753544Y-104474157D01*
X95808460Y-104679105D01*
X95811403Y-104687192D01*
X95901077Y-104879499D01*
X95905377Y-104886948D01*
X95939938Y-104936306D01*
X95948693Y-104943228D01*
X95958510Y-104937934D01*
X96637231Y-104259214D01*
X96642551Y-104250000D01*
X97357447Y-104250000D01*
X97362767Y-104259214D01*
X98041488Y-104937934D01*
X98051306Y-104943228D01*
X98060058Y-104936308D01*
X98094619Y-104886951D01*
X98098924Y-104879497D01*
X98188596Y-104687192D01*
X98191539Y-104679105D01*
X98246455Y-104474157D01*
X98246770Y-104472372D01*
X101979500Y-104472372D01*
X101979859Y-104475334D01*
X101979860Y-104475339D01*
X101994137Y-104592925D01*
X101994138Y-104592932D01*
X101994860Y-104598872D01*
X101996982Y-104604468D01*
X101996983Y-104604471D01*
X102053060Y-104752335D01*
X102055182Y-104757930D01*
X102058579Y-104762851D01*
X102058581Y-104762855D01*
X102106671Y-104832524D01*
X102151817Y-104897929D01*
X102279148Y-105010734D01*
X102429775Y-105089790D01*
X102594944Y-105130500D01*
X102759068Y-105130500D01*
X102765056Y-105130500D01*
X102930225Y-105089790D01*
X103080852Y-105010734D01*
X103208183Y-104897929D01*
X103304818Y-104757930D01*
X103365140Y-104598872D01*
X103377145Y-104500000D01*
X104165073Y-104500000D01*
X104166081Y-104507011D01*
X104181682Y-104615520D01*
X104181683Y-104615524D01*
X104182691Y-104622533D01*
X104234116Y-104735139D01*
X104315183Y-104828696D01*
X104419325Y-104895624D01*
X104538103Y-104930500D01*
X104654819Y-104930500D01*
X104661897Y-104930500D01*
X104780675Y-104895624D01*
X104884817Y-104828696D01*
X104965884Y-104735139D01*
X105017309Y-104622533D01*
X105034927Y-104500000D01*
X108965073Y-104500000D01*
X108966081Y-104507011D01*
X108981682Y-104615520D01*
X108981683Y-104615524D01*
X108982691Y-104622533D01*
X109034116Y-104735139D01*
X109115183Y-104828696D01*
X109219325Y-104895624D01*
X109338103Y-104930500D01*
X109454819Y-104930500D01*
X109461897Y-104930500D01*
X109580675Y-104895624D01*
X109684817Y-104828696D01*
X109765884Y-104735139D01*
X109817309Y-104622533D01*
X109834927Y-104500000D01*
X109830955Y-104472372D01*
X110619500Y-104472372D01*
X110619859Y-104475334D01*
X110619860Y-104475339D01*
X110634137Y-104592925D01*
X110634138Y-104592932D01*
X110634860Y-104598872D01*
X110636982Y-104604468D01*
X110636983Y-104604471D01*
X110693060Y-104752335D01*
X110695182Y-104757930D01*
X110698579Y-104762851D01*
X110698581Y-104762855D01*
X110746671Y-104832524D01*
X110791817Y-104897929D01*
X110919148Y-105010734D01*
X111069775Y-105089790D01*
X111234944Y-105130500D01*
X111399068Y-105130500D01*
X111405056Y-105130500D01*
X111570225Y-105089790D01*
X111720852Y-105010734D01*
X111848183Y-104897929D01*
X111944818Y-104757930D01*
X111947825Y-104750000D01*
X115544357Y-104750000D01*
X115544779Y-104754554D01*
X115561620Y-104936308D01*
X115564885Y-104971536D01*
X115566134Y-104975926D01*
X115566135Y-104975931D01*
X115624517Y-105181123D01*
X115624519Y-105181129D01*
X115625771Y-105185528D01*
X115724942Y-105384689D01*
X115727694Y-105388333D01*
X115727697Y-105388338D01*
X115767873Y-105441539D01*
X115859019Y-105562236D01*
X116023438Y-105712124D01*
X116212599Y-105829247D01*
X116216866Y-105830900D01*
X116415790Y-105907964D01*
X116415792Y-105907964D01*
X116420060Y-105909618D01*
X116638757Y-105950500D01*
X116856660Y-105950500D01*
X116861243Y-105950500D01*
X117079940Y-105909618D01*
X117287401Y-105829247D01*
X117476562Y-105712124D01*
X117640981Y-105562236D01*
X117775058Y-105384689D01*
X117874229Y-105185528D01*
X117935115Y-104971536D01*
X117955643Y-104750000D01*
X122044357Y-104750000D01*
X122044779Y-104754554D01*
X122061620Y-104936308D01*
X122064885Y-104971536D01*
X122066134Y-104975926D01*
X122066135Y-104975931D01*
X122124517Y-105181123D01*
X122124519Y-105181129D01*
X122125771Y-105185528D01*
X122224942Y-105384689D01*
X122227694Y-105388333D01*
X122227697Y-105388338D01*
X122267873Y-105441539D01*
X122359019Y-105562236D01*
X122523438Y-105712124D01*
X122712599Y-105829247D01*
X122716866Y-105830900D01*
X122915790Y-105907964D01*
X122915792Y-105907964D01*
X122920060Y-105909618D01*
X123138757Y-105950500D01*
X123356660Y-105950500D01*
X123361243Y-105950500D01*
X123579940Y-105909618D01*
X123787401Y-105829247D01*
X123976562Y-105712124D01*
X124140981Y-105562236D01*
X124275058Y-105384689D01*
X124374229Y-105185528D01*
X124435115Y-104971536D01*
X124455643Y-104750000D01*
X124435115Y-104528464D01*
X124374229Y-104314472D01*
X124275058Y-104115311D01*
X124266800Y-104104376D01*
X124207494Y-104025842D01*
X124140981Y-103937764D01*
X124021236Y-103828602D01*
X123979943Y-103790958D01*
X123979941Y-103790957D01*
X123976562Y-103787876D01*
X123787401Y-103670753D01*
X123783138Y-103669101D01*
X123783133Y-103669099D01*
X123584209Y-103592035D01*
X123584201Y-103592032D01*
X123579940Y-103590382D01*
X123575436Y-103589540D01*
X123365749Y-103550342D01*
X123365745Y-103550341D01*
X123361243Y-103549500D01*
X123138757Y-103549500D01*
X123134255Y-103550341D01*
X123134250Y-103550342D01*
X122924563Y-103589540D01*
X122924560Y-103589540D01*
X122920060Y-103590382D01*
X122915801Y-103592031D01*
X122915790Y-103592035D01*
X122716866Y-103669099D01*
X122716857Y-103669103D01*
X122712599Y-103670753D01*
X122708713Y-103673158D01*
X122708709Y-103673161D01*
X122527326Y-103785468D01*
X122527321Y-103785471D01*
X122523438Y-103787876D01*
X122520063Y-103790952D01*
X122520056Y-103790958D01*
X122366987Y-103930500D01*
X122359019Y-103937764D01*
X122356268Y-103941406D01*
X122356266Y-103941409D01*
X122227697Y-104111661D01*
X122227690Y-104111670D01*
X122224942Y-104115311D01*
X122222904Y-104119403D01*
X122222902Y-104119407D01*
X122127813Y-104310370D01*
X122127811Y-104310375D01*
X122125771Y-104314472D01*
X122124520Y-104318866D01*
X122124517Y-104318876D01*
X122066135Y-104524068D01*
X122066133Y-104524075D01*
X122064885Y-104528464D01*
X122044357Y-104750000D01*
X117955643Y-104750000D01*
X117935115Y-104528464D01*
X117874229Y-104314472D01*
X117775058Y-104115311D01*
X117766800Y-104104376D01*
X117707494Y-104025842D01*
X117640981Y-103937764D01*
X117521236Y-103828602D01*
X117479943Y-103790958D01*
X117479941Y-103790957D01*
X117476562Y-103787876D01*
X117287401Y-103670753D01*
X117283138Y-103669101D01*
X117283133Y-103669099D01*
X117084209Y-103592035D01*
X117084201Y-103592032D01*
X117079940Y-103590382D01*
X117075436Y-103589540D01*
X116865749Y-103550342D01*
X116865745Y-103550341D01*
X116861243Y-103549500D01*
X116638757Y-103549500D01*
X116634255Y-103550341D01*
X116634250Y-103550342D01*
X116424563Y-103589540D01*
X116424560Y-103589540D01*
X116420060Y-103590382D01*
X116415801Y-103592031D01*
X116415790Y-103592035D01*
X116216866Y-103669099D01*
X116216857Y-103669103D01*
X116212599Y-103670753D01*
X116208713Y-103673158D01*
X116208709Y-103673161D01*
X116027326Y-103785468D01*
X116027321Y-103785471D01*
X116023438Y-103787876D01*
X116020063Y-103790952D01*
X116020056Y-103790958D01*
X115866987Y-103930500D01*
X115859019Y-103937764D01*
X115856268Y-103941406D01*
X115856266Y-103941409D01*
X115727697Y-104111661D01*
X115727690Y-104111670D01*
X115724942Y-104115311D01*
X115722904Y-104119403D01*
X115722902Y-104119407D01*
X115627813Y-104310370D01*
X115627811Y-104310375D01*
X115625771Y-104314472D01*
X115624520Y-104318866D01*
X115624517Y-104318876D01*
X115566135Y-104524068D01*
X115566133Y-104524075D01*
X115564885Y-104528464D01*
X115544357Y-104750000D01*
X111947825Y-104750000D01*
X112005140Y-104598872D01*
X112020500Y-104472372D01*
X112020500Y-103287628D01*
X112005140Y-103161128D01*
X111944818Y-103002070D01*
X111848183Y-102862071D01*
X111841698Y-102856326D01*
X111763811Y-102787324D01*
X111720852Y-102749266D01*
X111570225Y-102670210D01*
X111564409Y-102668776D01*
X111564408Y-102668776D01*
X111410871Y-102630933D01*
X111410868Y-102630932D01*
X111405056Y-102629500D01*
X111234944Y-102629500D01*
X111229131Y-102630932D01*
X111229128Y-102630933D01*
X111075591Y-102668776D01*
X111075587Y-102668777D01*
X111069775Y-102670210D01*
X111064476Y-102672990D01*
X111064471Y-102672993D01*
X110924451Y-102746482D01*
X110924446Y-102746485D01*
X110919148Y-102749266D01*
X110914667Y-102753234D01*
X110914665Y-102753237D01*
X110796299Y-102858099D01*
X110796293Y-102858105D01*
X110791817Y-102862071D01*
X110788417Y-102866996D01*
X110788414Y-102867000D01*
X110698581Y-102997144D01*
X110698577Y-102997151D01*
X110695182Y-103002070D01*
X110693061Y-103007660D01*
X110693060Y-103007664D01*
X110636983Y-103155528D01*
X110636981Y-103155533D01*
X110634860Y-103161128D01*
X110634139Y-103167065D01*
X110634137Y-103167074D01*
X110621388Y-103272079D01*
X110619500Y-103287628D01*
X110619500Y-104472372D01*
X109830955Y-104472372D01*
X109817309Y-104377467D01*
X109765884Y-104264861D01*
X109684817Y-104171304D01*
X109678862Y-104167477D01*
X109678860Y-104167475D01*
X109586632Y-104108204D01*
X109586630Y-104108203D01*
X109580675Y-104104376D01*
X109461897Y-104069500D01*
X109338103Y-104069500D01*
X109331312Y-104071493D01*
X109331311Y-104071494D01*
X109226118Y-104102381D01*
X109226115Y-104102382D01*
X109219325Y-104104376D01*
X109213372Y-104108201D01*
X109213367Y-104108204D01*
X109121139Y-104167475D01*
X109121133Y-104167480D01*
X109115183Y-104171304D01*
X109110547Y-104176653D01*
X109110546Y-104176655D01*
X109050727Y-104245691D01*
X109034116Y-104264861D01*
X109031176Y-104271297D01*
X109031175Y-104271300D01*
X109009448Y-104318876D01*
X108982691Y-104377467D01*
X108981683Y-104384473D01*
X108981682Y-104384479D01*
X108970009Y-104465669D01*
X108965073Y-104500000D01*
X105034927Y-104500000D01*
X105017309Y-104377467D01*
X104965884Y-104264861D01*
X104884817Y-104171304D01*
X104878862Y-104167477D01*
X104878860Y-104167475D01*
X104786632Y-104108204D01*
X104786630Y-104108203D01*
X104780675Y-104104376D01*
X104661897Y-104069500D01*
X104538103Y-104069500D01*
X104531312Y-104071493D01*
X104531311Y-104071494D01*
X104426118Y-104102381D01*
X104426115Y-104102382D01*
X104419325Y-104104376D01*
X104413372Y-104108201D01*
X104413367Y-104108204D01*
X104321139Y-104167475D01*
X104321133Y-104167480D01*
X104315183Y-104171304D01*
X104310547Y-104176653D01*
X104310546Y-104176655D01*
X104250727Y-104245691D01*
X104234116Y-104264861D01*
X104231176Y-104271297D01*
X104231175Y-104271300D01*
X104209448Y-104318876D01*
X104182691Y-104377467D01*
X104181683Y-104384473D01*
X104181682Y-104384479D01*
X104170009Y-104465669D01*
X104165073Y-104500000D01*
X103377145Y-104500000D01*
X103380500Y-104472372D01*
X103380500Y-103416199D01*
X103580796Y-103416199D01*
X103582172Y-103422823D01*
X103582173Y-103422830D01*
X103608807Y-103551000D01*
X103610186Y-103557634D01*
X103676646Y-103685895D01*
X103775245Y-103791469D01*
X103898672Y-103866526D01*
X104037772Y-103905500D01*
X104142570Y-103905500D01*
X104145949Y-103905500D01*
X104253111Y-103890771D01*
X104385609Y-103833219D01*
X104497665Y-103742054D01*
X104580971Y-103624037D01*
X104615536Y-103526780D01*
X106315073Y-103526780D01*
X106316081Y-103533791D01*
X106331682Y-103642300D01*
X106331683Y-103642304D01*
X106332691Y-103649313D01*
X106384116Y-103761919D01*
X106465183Y-103855476D01*
X106471137Y-103859302D01*
X106471139Y-103859304D01*
X106543022Y-103905500D01*
X106569325Y-103922404D01*
X106688103Y-103957280D01*
X106804819Y-103957280D01*
X106811897Y-103957280D01*
X106930675Y-103922404D01*
X107034817Y-103855476D01*
X107115884Y-103761919D01*
X107166061Y-103652043D01*
X107202590Y-103609887D01*
X107256113Y-103594171D01*
X107309637Y-103609887D01*
X107346167Y-103652045D01*
X107381171Y-103728694D01*
X107381176Y-103728703D01*
X107384116Y-103735139D01*
X107465183Y-103828696D01*
X107471137Y-103832522D01*
X107471139Y-103832524D01*
X107526889Y-103868352D01*
X107569325Y-103895624D01*
X107688103Y-103930500D01*
X107804819Y-103930500D01*
X107811897Y-103930500D01*
X107930675Y-103895624D01*
X108034817Y-103828696D01*
X108115884Y-103735139D01*
X108167309Y-103622533D01*
X108184927Y-103500000D01*
X108172878Y-103416199D01*
X109360796Y-103416199D01*
X109362172Y-103422823D01*
X109362173Y-103422830D01*
X109388807Y-103551000D01*
X109390186Y-103557634D01*
X109456646Y-103685895D01*
X109555245Y-103791469D01*
X109678672Y-103866526D01*
X109817772Y-103905500D01*
X109922570Y-103905500D01*
X109925949Y-103905500D01*
X110033111Y-103890771D01*
X110165609Y-103833219D01*
X110277665Y-103742054D01*
X110360971Y-103624037D01*
X110409346Y-103487921D01*
X110419204Y-103343801D01*
X110389814Y-103202366D01*
X110323354Y-103074105D01*
X110224755Y-102968531D01*
X110218973Y-102965015D01*
X110218972Y-102965014D01*
X110107110Y-102896990D01*
X110107109Y-102896989D01*
X110101328Y-102893474D01*
X110094814Y-102891649D01*
X110094810Y-102891647D01*
X109968747Y-102856326D01*
X109968743Y-102856325D01*
X109962228Y-102854500D01*
X109854051Y-102854500D01*
X109850704Y-102854959D01*
X109850704Y-102854960D01*
X109753597Y-102868306D01*
X109753589Y-102868307D01*
X109746889Y-102869229D01*
X109740683Y-102871924D01*
X109740678Y-102871926D01*
X109620602Y-102924082D01*
X109620595Y-102924086D01*
X109614391Y-102926781D01*
X109609142Y-102931051D01*
X109609136Y-102931055D01*
X109507589Y-103013671D01*
X109507586Y-103013673D01*
X109502335Y-103017946D01*
X109498433Y-103023473D01*
X109498429Y-103023478D01*
X109422933Y-103130431D01*
X109422930Y-103130435D01*
X109419029Y-103135963D01*
X109416762Y-103142339D01*
X109416761Y-103142343D01*
X109372922Y-103265695D01*
X109372920Y-103265700D01*
X109370654Y-103272079D01*
X109370192Y-103278833D01*
X109370191Y-103278838D01*
X109361258Y-103409442D01*
X109360796Y-103416199D01*
X108172878Y-103416199D01*
X108167309Y-103377467D01*
X108115884Y-103264861D01*
X108034817Y-103171304D01*
X108028862Y-103167477D01*
X108028860Y-103167475D01*
X107936632Y-103108204D01*
X107936630Y-103108203D01*
X107930675Y-103104376D01*
X107909893Y-103098274D01*
X107818688Y-103071494D01*
X107811897Y-103069500D01*
X107688103Y-103069500D01*
X107681312Y-103071493D01*
X107681311Y-103071494D01*
X107576118Y-103102381D01*
X107576115Y-103102382D01*
X107569325Y-103104376D01*
X107563372Y-103108201D01*
X107563367Y-103108204D01*
X107471139Y-103167475D01*
X107471133Y-103167480D01*
X107465183Y-103171304D01*
X107460547Y-103176653D01*
X107460546Y-103176655D01*
X107437342Y-103203435D01*
X107384116Y-103264861D01*
X107381176Y-103271297D01*
X107381175Y-103271300D01*
X107333939Y-103374734D01*
X107297409Y-103416892D01*
X107243885Y-103432608D01*
X107190361Y-103416892D01*
X107153831Y-103374734D01*
X107139704Y-103343801D01*
X107115884Y-103291641D01*
X107034817Y-103198084D01*
X107028862Y-103194257D01*
X107028860Y-103194255D01*
X106936632Y-103134984D01*
X106936630Y-103134983D01*
X106930675Y-103131156D01*
X106811897Y-103096280D01*
X106688103Y-103096280D01*
X106681312Y-103098273D01*
X106681311Y-103098274D01*
X106576118Y-103129161D01*
X106576115Y-103129162D01*
X106569325Y-103131156D01*
X106563372Y-103134981D01*
X106563367Y-103134984D01*
X106471139Y-103194255D01*
X106471133Y-103194260D01*
X106465183Y-103198084D01*
X106460547Y-103203433D01*
X106460546Y-103203435D01*
X106395210Y-103278838D01*
X106384116Y-103291641D01*
X106381176Y-103298077D01*
X106381175Y-103298080D01*
X106335633Y-103397804D01*
X106332691Y-103404247D01*
X106331683Y-103411253D01*
X106331682Y-103411259D01*
X106319742Y-103494304D01*
X106315073Y-103526780D01*
X104615536Y-103526780D01*
X104629346Y-103487921D01*
X104639204Y-103343801D01*
X104609814Y-103202366D01*
X104543354Y-103074105D01*
X104444755Y-102968531D01*
X104438973Y-102965015D01*
X104438972Y-102965014D01*
X104327110Y-102896990D01*
X104327109Y-102896989D01*
X104321328Y-102893474D01*
X104314814Y-102891649D01*
X104314810Y-102891647D01*
X104188747Y-102856326D01*
X104188743Y-102856325D01*
X104182228Y-102854500D01*
X104074051Y-102854500D01*
X104070704Y-102854959D01*
X104070704Y-102854960D01*
X103973597Y-102868306D01*
X103973589Y-102868307D01*
X103966889Y-102869229D01*
X103960683Y-102871924D01*
X103960678Y-102871926D01*
X103840602Y-102924082D01*
X103840595Y-102924086D01*
X103834391Y-102926781D01*
X103829142Y-102931051D01*
X103829136Y-102931055D01*
X103727589Y-103013671D01*
X103727586Y-103013673D01*
X103722335Y-103017946D01*
X103718433Y-103023473D01*
X103718429Y-103023478D01*
X103642933Y-103130431D01*
X103642930Y-103130435D01*
X103639029Y-103135963D01*
X103636762Y-103142339D01*
X103636761Y-103142343D01*
X103592922Y-103265695D01*
X103592920Y-103265700D01*
X103590654Y-103272079D01*
X103590192Y-103278833D01*
X103590191Y-103278838D01*
X103581258Y-103409442D01*
X103580796Y-103416199D01*
X103380500Y-103416199D01*
X103380500Y-103287628D01*
X103365140Y-103161128D01*
X103304818Y-103002070D01*
X103208183Y-102862071D01*
X103201698Y-102856326D01*
X103123811Y-102787324D01*
X103080852Y-102749266D01*
X102930225Y-102670210D01*
X102924409Y-102668776D01*
X102924408Y-102668776D01*
X102770871Y-102630933D01*
X102770868Y-102630932D01*
X102765056Y-102629500D01*
X102594944Y-102629500D01*
X102589131Y-102630932D01*
X102589128Y-102630933D01*
X102435591Y-102668776D01*
X102435587Y-102668777D01*
X102429775Y-102670210D01*
X102424476Y-102672990D01*
X102424471Y-102672993D01*
X102284451Y-102746482D01*
X102284446Y-102746485D01*
X102279148Y-102749266D01*
X102274667Y-102753234D01*
X102274665Y-102753237D01*
X102156299Y-102858099D01*
X102156293Y-102858105D01*
X102151817Y-102862071D01*
X102148417Y-102866996D01*
X102148414Y-102867000D01*
X102058581Y-102997144D01*
X102058577Y-102997151D01*
X102055182Y-103002070D01*
X102053061Y-103007660D01*
X102053060Y-103007664D01*
X101996983Y-103155528D01*
X101996981Y-103155533D01*
X101994860Y-103161128D01*
X101994139Y-103167065D01*
X101994137Y-103167074D01*
X101981388Y-103272079D01*
X101979500Y-103287628D01*
X101979500Y-104472372D01*
X98246770Y-104472372D01*
X98247952Y-104465669D01*
X98266444Y-104254309D01*
X98266444Y-104245691D01*
X98247952Y-104034330D01*
X98246455Y-104025842D01*
X98191540Y-103820895D01*
X98188594Y-103812802D01*
X98098929Y-103620514D01*
X98094616Y-103613044D01*
X98060059Y-103563692D01*
X98051305Y-103556770D01*
X98041488Y-103562064D01*
X97362767Y-104240785D01*
X97357447Y-104250000D01*
X96642551Y-104250000D01*
X96637231Y-104240785D01*
X95958510Y-103562064D01*
X95948692Y-103556770D01*
X95939939Y-103563691D01*
X95905380Y-103613048D01*
X95901072Y-103620512D01*
X95811405Y-103812802D01*
X95808459Y-103820895D01*
X95753544Y-104025842D01*
X95752047Y-104034330D01*
X95733556Y-104245691D01*
X95733556Y-104254309D01*
X93266444Y-104254309D01*
X93266444Y-104245691D01*
X93247952Y-104034330D01*
X93246455Y-104025842D01*
X93191540Y-103820895D01*
X93188594Y-103812802D01*
X93098929Y-103620514D01*
X93094616Y-103613044D01*
X93060059Y-103563692D01*
X93051305Y-103556770D01*
X93041488Y-103562064D01*
X92362767Y-104240785D01*
X92357447Y-104250000D01*
X91642551Y-104250000D01*
X91637231Y-104240785D01*
X90958510Y-103562064D01*
X90948692Y-103556770D01*
X90939939Y-103563691D01*
X90905380Y-103613048D01*
X90901072Y-103620512D01*
X90811405Y-103812802D01*
X90808459Y-103820895D01*
X90753544Y-104025842D01*
X90752047Y-104034330D01*
X90733556Y-104245691D01*
X90733556Y-104254309D01*
X90000500Y-104254309D01*
X90000500Y-102250000D01*
X91032843Y-102250000D01*
X91051427Y-102438683D01*
X91106463Y-102620115D01*
X91108756Y-102624406D01*
X91108757Y-102624407D01*
X91175496Y-102749266D01*
X91195838Y-102787324D01*
X91316117Y-102933883D01*
X91319881Y-102936972D01*
X91383362Y-102989070D01*
X91411709Y-103026966D01*
X91419226Y-103073690D01*
X91404196Y-103118565D01*
X91370054Y-103151336D01*
X91363052Y-103155378D01*
X91313691Y-103189939D01*
X91306770Y-103198692D01*
X91312064Y-103208510D01*
X91990784Y-103887231D01*
X91999999Y-103892551D01*
X92009213Y-103887231D01*
X92687934Y-103208510D01*
X92693228Y-103198693D01*
X92686306Y-103189938D01*
X92636948Y-103155377D01*
X92629941Y-103151332D01*
X92595802Y-103118560D01*
X92580774Y-103073686D01*
X92588292Y-103026963D01*
X92616635Y-102989071D01*
X92683883Y-102933883D01*
X92804162Y-102787324D01*
X92893537Y-102620115D01*
X92948573Y-102438683D01*
X92967157Y-102250000D01*
X96032843Y-102250000D01*
X96051427Y-102438683D01*
X96106463Y-102620115D01*
X96108756Y-102624406D01*
X96108757Y-102624407D01*
X96175496Y-102749266D01*
X96195838Y-102787324D01*
X96316117Y-102933883D01*
X96319881Y-102936972D01*
X96383362Y-102989070D01*
X96411709Y-103026966D01*
X96419226Y-103073690D01*
X96404196Y-103118565D01*
X96370054Y-103151336D01*
X96363052Y-103155378D01*
X96313691Y-103189939D01*
X96306770Y-103198692D01*
X96312064Y-103208510D01*
X96990784Y-103887231D01*
X96999999Y-103892551D01*
X97009213Y-103887231D01*
X97687934Y-103208510D01*
X97693228Y-103198693D01*
X97686306Y-103189938D01*
X97636948Y-103155377D01*
X97629941Y-103151332D01*
X97595802Y-103118560D01*
X97580774Y-103073686D01*
X97588292Y-103026963D01*
X97616635Y-102989071D01*
X97683883Y-102933883D01*
X97804162Y-102787324D01*
X97893537Y-102620115D01*
X97948573Y-102438683D01*
X97967157Y-102250000D01*
X97948573Y-102061317D01*
X97893537Y-101879885D01*
X97804162Y-101712676D01*
X97683883Y-101566117D01*
X97537324Y-101445838D01*
X97533036Y-101443546D01*
X97374407Y-101358757D01*
X97374406Y-101358756D01*
X97370115Y-101356463D01*
X97365462Y-101355051D01*
X97365456Y-101355049D01*
X97331459Y-101344737D01*
X97288832Y-101318616D01*
X97264404Y-101274997D01*
X97264404Y-101225003D01*
X97288832Y-101181384D01*
X97331459Y-101155263D01*
X97331470Y-101155259D01*
X97370115Y-101143537D01*
X97537324Y-101054162D01*
X97683883Y-100933883D01*
X97804162Y-100787324D01*
X97893537Y-100620115D01*
X97948573Y-100438683D01*
X97967157Y-100250000D01*
X97962232Y-100200000D01*
X100965073Y-100200000D01*
X100966081Y-100207011D01*
X100981682Y-100315520D01*
X100981683Y-100315524D01*
X100982691Y-100322533D01*
X101034116Y-100435139D01*
X101115183Y-100528696D01*
X101121137Y-100532522D01*
X101121139Y-100532524D01*
X101176231Y-100567929D01*
X101219325Y-100595624D01*
X101338103Y-100630500D01*
X101454819Y-100630500D01*
X101461897Y-100630500D01*
X101580675Y-100595624D01*
X101684817Y-100528696D01*
X101765884Y-100435139D01*
X101817309Y-100322533D01*
X101818317Y-100315517D01*
X101820036Y-100309666D01*
X101854184Y-100259458D01*
X101911221Y-100238628D01*
X101969689Y-100255013D01*
X102007594Y-100302450D01*
X102022968Y-100342989D01*
X102055182Y-100427930D01*
X102058579Y-100432851D01*
X102058581Y-100432855D01*
X102148414Y-100562999D01*
X102151817Y-100567929D01*
X102279148Y-100680734D01*
X102429775Y-100759790D01*
X102594944Y-100800500D01*
X102759068Y-100800500D01*
X102765056Y-100800500D01*
X102930225Y-100759790D01*
X103080852Y-100680734D01*
X103208183Y-100567929D01*
X103304818Y-100427930D01*
X103365140Y-100268872D01*
X103380500Y-100142372D01*
X110619500Y-100142372D01*
X110619859Y-100145334D01*
X110619860Y-100145339D01*
X110634137Y-100262925D01*
X110634138Y-100262932D01*
X110634860Y-100268872D01*
X110636982Y-100274468D01*
X110636983Y-100274471D01*
X110665627Y-100350000D01*
X110695182Y-100427930D01*
X110698579Y-100432851D01*
X110698581Y-100432855D01*
X110788414Y-100562999D01*
X110791817Y-100567929D01*
X110919148Y-100680734D01*
X111069775Y-100759790D01*
X111234944Y-100800500D01*
X111399068Y-100800500D01*
X111405056Y-100800500D01*
X111570225Y-100759790D01*
X111720852Y-100680734D01*
X111848183Y-100567929D01*
X111944818Y-100427930D01*
X111974373Y-100350000D01*
X112215073Y-100350000D01*
X112216081Y-100357011D01*
X112231682Y-100465520D01*
X112231683Y-100465524D01*
X112232691Y-100472533D01*
X112284116Y-100585139D01*
X112365183Y-100678696D01*
X112371137Y-100682522D01*
X112371139Y-100682524D01*
X112382195Y-100689629D01*
X112469325Y-100745624D01*
X112588103Y-100780500D01*
X112704819Y-100780500D01*
X112711897Y-100780500D01*
X112830675Y-100745624D01*
X112934817Y-100678696D01*
X113015884Y-100585139D01*
X113067309Y-100472533D01*
X113084927Y-100350000D01*
X113070549Y-100250000D01*
X115544357Y-100250000D01*
X115544779Y-100254554D01*
X115564327Y-100465520D01*
X115564885Y-100471536D01*
X115566134Y-100475926D01*
X115566135Y-100475931D01*
X115624517Y-100681123D01*
X115624519Y-100681129D01*
X115625771Y-100685528D01*
X115724942Y-100884689D01*
X115727694Y-100888333D01*
X115727697Y-100888338D01*
X115764424Y-100936972D01*
X115859019Y-101062236D01*
X116023438Y-101212124D01*
X116212599Y-101329247D01*
X116216866Y-101330900D01*
X116415790Y-101407964D01*
X116415792Y-101407964D01*
X116420060Y-101409618D01*
X116638757Y-101450500D01*
X116856660Y-101450500D01*
X116861243Y-101450500D01*
X117079940Y-101409618D01*
X117287401Y-101329247D01*
X117476562Y-101212124D01*
X117640981Y-101062236D01*
X117775058Y-100884689D01*
X117874229Y-100685528D01*
X117935115Y-100471536D01*
X117955643Y-100250000D01*
X122044357Y-100250000D01*
X122044779Y-100254554D01*
X122064327Y-100465520D01*
X122064885Y-100471536D01*
X122066134Y-100475926D01*
X122066135Y-100475931D01*
X122124517Y-100681123D01*
X122124519Y-100681129D01*
X122125771Y-100685528D01*
X122224942Y-100884689D01*
X122227694Y-100888333D01*
X122227697Y-100888338D01*
X122264424Y-100936972D01*
X122359019Y-101062236D01*
X122523438Y-101212124D01*
X122712599Y-101329247D01*
X122716866Y-101330900D01*
X122915790Y-101407964D01*
X122915792Y-101407964D01*
X122920060Y-101409618D01*
X123138757Y-101450500D01*
X123356660Y-101450500D01*
X123361243Y-101450500D01*
X123579940Y-101409618D01*
X123787401Y-101329247D01*
X123976562Y-101212124D01*
X124140981Y-101062236D01*
X124275058Y-100884689D01*
X124374229Y-100685528D01*
X124435115Y-100471536D01*
X124455643Y-100250000D01*
X124435115Y-100028464D01*
X124374229Y-99814472D01*
X124275058Y-99615311D01*
X124237908Y-99566117D01*
X124145347Y-99443546D01*
X124140981Y-99437764D01*
X123991427Y-99301427D01*
X123979943Y-99290958D01*
X123979941Y-99290957D01*
X123976562Y-99287876D01*
X123787401Y-99170753D01*
X123783138Y-99169101D01*
X123783133Y-99169099D01*
X123584209Y-99092035D01*
X123584201Y-99092032D01*
X123579940Y-99090382D01*
X123575436Y-99089540D01*
X123365749Y-99050342D01*
X123365745Y-99050341D01*
X123361243Y-99049500D01*
X123138757Y-99049500D01*
X123134255Y-99050341D01*
X123134250Y-99050342D01*
X122924563Y-99089540D01*
X122924560Y-99089540D01*
X122920060Y-99090382D01*
X122915801Y-99092031D01*
X122915790Y-99092035D01*
X122716866Y-99169099D01*
X122716857Y-99169103D01*
X122712599Y-99170753D01*
X122708713Y-99173158D01*
X122708709Y-99173161D01*
X122527326Y-99285468D01*
X122527321Y-99285471D01*
X122523438Y-99287876D01*
X122520063Y-99290952D01*
X122520056Y-99290958D01*
X122445685Y-99358757D01*
X122359019Y-99437764D01*
X122356268Y-99441406D01*
X122356266Y-99441409D01*
X122227697Y-99611661D01*
X122227690Y-99611670D01*
X122224942Y-99615311D01*
X122222904Y-99619403D01*
X122222902Y-99619407D01*
X122127813Y-99810370D01*
X122127811Y-99810375D01*
X122125771Y-99814472D01*
X122124520Y-99818866D01*
X122124517Y-99818876D01*
X122066135Y-100024068D01*
X122066133Y-100024075D01*
X122064885Y-100028464D01*
X122064463Y-100033009D01*
X122064463Y-100033014D01*
X122054607Y-100139385D01*
X122044357Y-100250000D01*
X117955643Y-100250000D01*
X117935115Y-100028464D01*
X117874229Y-99814472D01*
X117775058Y-99615311D01*
X117737908Y-99566117D01*
X117645347Y-99443546D01*
X117640981Y-99437764D01*
X117491427Y-99301427D01*
X117479943Y-99290958D01*
X117479941Y-99290957D01*
X117476562Y-99287876D01*
X117287401Y-99170753D01*
X117283138Y-99169101D01*
X117283133Y-99169099D01*
X117084209Y-99092035D01*
X117084201Y-99092032D01*
X117079940Y-99090382D01*
X117075436Y-99089540D01*
X116865749Y-99050342D01*
X116865745Y-99050341D01*
X116861243Y-99049500D01*
X116638757Y-99049500D01*
X116634255Y-99050341D01*
X116634250Y-99050342D01*
X116424563Y-99089540D01*
X116424560Y-99089540D01*
X116420060Y-99090382D01*
X116415801Y-99092031D01*
X116415790Y-99092035D01*
X116216866Y-99169099D01*
X116216857Y-99169103D01*
X116212599Y-99170753D01*
X116208713Y-99173158D01*
X116208709Y-99173161D01*
X116027326Y-99285468D01*
X116027321Y-99285471D01*
X116023438Y-99287876D01*
X116020063Y-99290952D01*
X116020056Y-99290958D01*
X115945685Y-99358757D01*
X115859019Y-99437764D01*
X115856268Y-99441406D01*
X115856266Y-99441409D01*
X115727697Y-99611661D01*
X115727690Y-99611670D01*
X115724942Y-99615311D01*
X115722904Y-99619403D01*
X115722902Y-99619407D01*
X115627813Y-99810370D01*
X115627811Y-99810375D01*
X115625771Y-99814472D01*
X115624520Y-99818866D01*
X115624517Y-99818876D01*
X115566135Y-100024068D01*
X115566133Y-100024075D01*
X115564885Y-100028464D01*
X115564463Y-100033009D01*
X115564463Y-100033014D01*
X115554607Y-100139385D01*
X115544357Y-100250000D01*
X113070549Y-100250000D01*
X113067309Y-100227467D01*
X113015884Y-100114861D01*
X112934817Y-100021304D01*
X112928862Y-100017477D01*
X112928860Y-100017475D01*
X112836632Y-99958204D01*
X112836630Y-99958203D01*
X112830675Y-99954376D01*
X112711897Y-99919500D01*
X112588103Y-99919500D01*
X112581312Y-99921493D01*
X112581311Y-99921494D01*
X112476118Y-99952381D01*
X112476115Y-99952382D01*
X112469325Y-99954376D01*
X112463372Y-99958201D01*
X112463367Y-99958204D01*
X112371139Y-100017475D01*
X112371133Y-100017480D01*
X112365183Y-100021304D01*
X112360547Y-100026653D01*
X112360546Y-100026655D01*
X112310442Y-100084479D01*
X112284116Y-100114861D01*
X112281176Y-100121297D01*
X112281175Y-100121300D01*
X112235633Y-100221024D01*
X112232691Y-100227467D01*
X112231683Y-100234473D01*
X112231682Y-100234479D01*
X112219022Y-100322533D01*
X112215073Y-100350000D01*
X111974373Y-100350000D01*
X112005140Y-100268872D01*
X112020500Y-100142372D01*
X112020500Y-99257628D01*
X112005140Y-99131128D01*
X111944818Y-98972070D01*
X111848183Y-98832071D01*
X111720852Y-98719266D01*
X111570225Y-98640210D01*
X111564409Y-98638776D01*
X111564408Y-98638776D01*
X111410871Y-98600933D01*
X111410868Y-98600932D01*
X111405056Y-98599500D01*
X111234944Y-98599500D01*
X111229131Y-98600932D01*
X111229128Y-98600933D01*
X111075591Y-98638776D01*
X111075587Y-98638777D01*
X111069775Y-98640210D01*
X111064476Y-98642990D01*
X111064471Y-98642993D01*
X110924451Y-98716482D01*
X110924446Y-98716485D01*
X110919148Y-98719266D01*
X110914667Y-98723234D01*
X110914665Y-98723237D01*
X110796299Y-98828099D01*
X110796293Y-98828105D01*
X110791817Y-98832071D01*
X110788417Y-98836996D01*
X110788414Y-98837000D01*
X110698581Y-98967144D01*
X110698577Y-98967151D01*
X110695182Y-98972070D01*
X110693061Y-98977660D01*
X110693060Y-98977664D01*
X110636983Y-99125528D01*
X110636981Y-99125533D01*
X110634860Y-99131128D01*
X110634139Y-99137065D01*
X110634137Y-99137074D01*
X110619860Y-99254660D01*
X110619500Y-99257628D01*
X110619500Y-100142372D01*
X103380500Y-100142372D01*
X103380500Y-99257628D01*
X103365140Y-99131128D01*
X103304818Y-98972070D01*
X103208183Y-98832071D01*
X103080852Y-98719266D01*
X102930225Y-98640210D01*
X102924409Y-98638776D01*
X102924408Y-98638776D01*
X102770871Y-98600933D01*
X102770868Y-98600932D01*
X102765056Y-98599500D01*
X102594944Y-98599500D01*
X102589131Y-98600932D01*
X102589128Y-98600933D01*
X102435591Y-98638776D01*
X102435587Y-98638777D01*
X102429775Y-98640210D01*
X102424476Y-98642990D01*
X102424471Y-98642993D01*
X102284451Y-98716482D01*
X102284446Y-98716485D01*
X102279148Y-98719266D01*
X102274667Y-98723234D01*
X102274665Y-98723237D01*
X102156299Y-98828099D01*
X102156293Y-98828105D01*
X102151817Y-98832071D01*
X102148417Y-98836996D01*
X102148414Y-98837000D01*
X102058581Y-98967144D01*
X102058577Y-98967151D01*
X102055182Y-98972070D01*
X102053061Y-98977660D01*
X102053060Y-98977664D01*
X101996983Y-99125528D01*
X101996981Y-99125533D01*
X101994860Y-99131128D01*
X101994139Y-99137065D01*
X101994137Y-99137074D01*
X101979860Y-99254660D01*
X101979500Y-99257628D01*
X101979500Y-99260615D01*
X101979500Y-99977519D01*
X101965279Y-100028642D01*
X101926700Y-100065078D01*
X101874848Y-100076358D01*
X101824620Y-100059240D01*
X101790446Y-100018645D01*
X101768824Y-99971300D01*
X101765884Y-99964861D01*
X101684817Y-99871304D01*
X101678862Y-99867477D01*
X101678860Y-99867475D01*
X101586632Y-99808204D01*
X101586630Y-99808203D01*
X101580675Y-99804376D01*
X101461897Y-99769500D01*
X101338103Y-99769500D01*
X101331312Y-99771493D01*
X101331311Y-99771494D01*
X101226118Y-99802381D01*
X101226115Y-99802382D01*
X101219325Y-99804376D01*
X101213372Y-99808201D01*
X101213367Y-99808204D01*
X101121139Y-99867475D01*
X101121133Y-99867480D01*
X101115183Y-99871304D01*
X101110547Y-99876653D01*
X101110546Y-99876655D01*
X101044930Y-99952381D01*
X101034116Y-99964861D01*
X101031176Y-99971297D01*
X101031175Y-99971300D01*
X100987855Y-100066159D01*
X100982691Y-100077467D01*
X100981683Y-100084473D01*
X100981682Y-100084479D01*
X100972932Y-100145339D01*
X100965073Y-100200000D01*
X97962232Y-100200000D01*
X97948573Y-100061317D01*
X97893537Y-99879885D01*
X97804162Y-99712676D01*
X97683883Y-99566117D01*
X97537324Y-99445838D01*
X97370115Y-99356463D01*
X97365461Y-99355051D01*
X97365458Y-99355050D01*
X97193339Y-99302839D01*
X97193335Y-99302838D01*
X97188683Y-99301427D01*
X97000000Y-99282843D01*
X96995157Y-99283320D01*
X96816159Y-99300950D01*
X96816158Y-99300950D01*
X96811317Y-99301427D01*
X96806666Y-99302837D01*
X96806660Y-99302839D01*
X96634541Y-99355050D01*
X96634535Y-99355052D01*
X96629885Y-99356463D01*
X96625597Y-99358754D01*
X96625592Y-99358757D01*
X96466963Y-99443546D01*
X96466958Y-99443548D01*
X96462676Y-99445838D01*
X96458921Y-99448919D01*
X96458919Y-99448921D01*
X96319881Y-99563027D01*
X96319875Y-99563032D01*
X96316117Y-99566117D01*
X96313032Y-99569875D01*
X96313027Y-99569881D01*
X96198921Y-99708919D01*
X96195838Y-99712676D01*
X96193548Y-99716958D01*
X96193546Y-99716963D01*
X96108757Y-99875592D01*
X96108754Y-99875597D01*
X96106463Y-99879885D01*
X96105052Y-99884535D01*
X96105050Y-99884541D01*
X96052839Y-100056660D01*
X96052837Y-100056666D01*
X96051427Y-100061317D01*
X96050950Y-100066158D01*
X96050950Y-100066159D01*
X96049836Y-100077467D01*
X96032843Y-100250000D01*
X96051427Y-100438683D01*
X96052838Y-100443335D01*
X96052839Y-100443339D01*
X96105050Y-100615458D01*
X96106463Y-100620115D01*
X96108756Y-100624406D01*
X96108757Y-100624407D01*
X96139072Y-100681123D01*
X96195838Y-100787324D01*
X96316117Y-100933883D01*
X96462676Y-101054162D01*
X96629885Y-101143537D01*
X96668532Y-101155260D01*
X96668541Y-101155263D01*
X96711167Y-101181384D01*
X96735595Y-101225003D01*
X96735595Y-101274997D01*
X96711167Y-101318616D01*
X96668541Y-101344737D01*
X96634541Y-101355050D01*
X96634535Y-101355052D01*
X96629885Y-101356463D01*
X96625597Y-101358754D01*
X96625592Y-101358757D01*
X96466963Y-101443546D01*
X96466958Y-101443548D01*
X96462676Y-101445838D01*
X96458921Y-101448919D01*
X96458919Y-101448921D01*
X96319881Y-101563027D01*
X96319875Y-101563032D01*
X96316117Y-101566117D01*
X96313032Y-101569875D01*
X96313027Y-101569881D01*
X96198921Y-101708919D01*
X96195838Y-101712676D01*
X96193548Y-101716958D01*
X96193546Y-101716963D01*
X96108757Y-101875592D01*
X96108754Y-101875597D01*
X96106463Y-101879885D01*
X96105052Y-101884535D01*
X96105050Y-101884541D01*
X96052839Y-102056660D01*
X96052837Y-102056666D01*
X96051427Y-102061317D01*
X96032843Y-102250000D01*
X92967157Y-102250000D01*
X92948573Y-102061317D01*
X92893537Y-101879885D01*
X92804162Y-101712676D01*
X92683883Y-101566117D01*
X92537324Y-101445838D01*
X92533036Y-101443546D01*
X92374407Y-101358757D01*
X92374406Y-101358756D01*
X92370115Y-101356463D01*
X92365462Y-101355051D01*
X92365456Y-101355049D01*
X92331459Y-101344737D01*
X92288832Y-101318616D01*
X92264404Y-101274997D01*
X92264404Y-101225003D01*
X92288832Y-101181384D01*
X92331459Y-101155263D01*
X92331470Y-101155259D01*
X92370115Y-101143537D01*
X92537324Y-101054162D01*
X92683883Y-100933883D01*
X92804162Y-100787324D01*
X92893537Y-100620115D01*
X92948573Y-100438683D01*
X92967157Y-100250000D01*
X92948573Y-100061317D01*
X92893537Y-99879885D01*
X92804162Y-99712676D01*
X92683883Y-99566117D01*
X92537324Y-99445838D01*
X92370115Y-99356463D01*
X92365461Y-99355051D01*
X92365458Y-99355050D01*
X92193339Y-99302839D01*
X92193335Y-99302838D01*
X92188683Y-99301427D01*
X92000000Y-99282843D01*
X91995157Y-99283320D01*
X91816159Y-99300950D01*
X91816158Y-99300950D01*
X91811317Y-99301427D01*
X91806666Y-99302837D01*
X91806660Y-99302839D01*
X91634541Y-99355050D01*
X91634535Y-99355052D01*
X91629885Y-99356463D01*
X91625597Y-99358754D01*
X91625592Y-99358757D01*
X91466963Y-99443546D01*
X91466958Y-99443548D01*
X91462676Y-99445838D01*
X91458921Y-99448919D01*
X91458919Y-99448921D01*
X91319881Y-99563027D01*
X91319875Y-99563032D01*
X91316117Y-99566117D01*
X91313032Y-99569875D01*
X91313027Y-99569881D01*
X91198921Y-99708919D01*
X91195838Y-99712676D01*
X91193548Y-99716958D01*
X91193546Y-99716963D01*
X91108757Y-99875592D01*
X91108754Y-99875597D01*
X91106463Y-99879885D01*
X91105052Y-99884535D01*
X91105050Y-99884541D01*
X91052839Y-100056660D01*
X91052837Y-100056666D01*
X91051427Y-100061317D01*
X91050950Y-100066158D01*
X91050950Y-100066159D01*
X91049836Y-100077467D01*
X91032843Y-100250000D01*
X91051427Y-100438683D01*
X91052838Y-100443335D01*
X91052839Y-100443339D01*
X91105050Y-100615458D01*
X91106463Y-100620115D01*
X91108756Y-100624406D01*
X91108757Y-100624407D01*
X91139072Y-100681123D01*
X91195838Y-100787324D01*
X91316117Y-100933883D01*
X91462676Y-101054162D01*
X91629885Y-101143537D01*
X91668532Y-101155260D01*
X91668541Y-101155263D01*
X91711167Y-101181384D01*
X91735595Y-101225003D01*
X91735595Y-101274997D01*
X91711167Y-101318616D01*
X91668541Y-101344737D01*
X91634541Y-101355050D01*
X91634535Y-101355052D01*
X91629885Y-101356463D01*
X91625597Y-101358754D01*
X91625592Y-101358757D01*
X91466963Y-101443546D01*
X91466958Y-101443548D01*
X91462676Y-101445838D01*
X91458921Y-101448919D01*
X91458919Y-101448921D01*
X91319881Y-101563027D01*
X91319875Y-101563032D01*
X91316117Y-101566117D01*
X91313032Y-101569875D01*
X91313027Y-101569881D01*
X91198921Y-101708919D01*
X91195838Y-101712676D01*
X91193548Y-101716958D01*
X91193546Y-101716963D01*
X91108757Y-101875592D01*
X91108754Y-101875597D01*
X91106463Y-101879885D01*
X91105052Y-101884535D01*
X91105050Y-101884541D01*
X91052839Y-102056660D01*
X91052837Y-102056666D01*
X91051427Y-102061317D01*
X91032843Y-102250000D01*
X90000500Y-102250000D01*
X90000500Y-97599500D01*
X90013763Y-97550000D01*
X90050000Y-97513763D01*
X90099500Y-97500500D01*
X125900500Y-97500500D01*
X125950000Y-97513763D01*
G37*
G04 #@! TD.AperFunction*
M02*
