%TF.GenerationSoftware,KiCad,Pcbnew,(7.0.0-rc1-56-g82a1175d72)*%
%TF.CreationDate,2023-01-28T19:42:42+01:00*%
%TF.ProjectId,Signal Generator,5369676e-616c-4204-9765-6e657261746f,0*%
%TF.SameCoordinates,Original*%
%TF.FileFunction,Drillmap*%
%TF.FilePolarity,Positive*%
%FSLAX45Y45*%
G04 Gerber Fmt 4.5, Leading zero omitted, Abs format (unit mm)*
G04 Created by KiCad (PCBNEW (7.0.0-rc1-56-g82a1175d72)) date 2023-01-28 19:42:42*
%MOMM*%
%LPD*%
G01*
G04 APERTURE LIST*
%ADD10C,0.100000*%
%ADD11C,0.200000*%
%ADD12C,0.020000*%
%ADD13C,0.040000*%
%ADD14C,0.060000*%
%ADD15C,0.076200*%
%ADD16C,0.110000*%
G04 APERTURE END LIST*
D10*
X9000000Y-9750000D02*
X12600000Y-9750000D01*
X12600000Y-9750000D02*
X12600000Y-15750000D01*
X12600000Y-15750000D02*
X9000000Y-15750000D01*
X9000000Y-15750000D02*
X9000000Y-9750000D01*
D11*
D12*
X9130000Y-12800000D02*
X9150000Y-12820000D01*
X9150000Y-12800000D02*
X9130000Y-12820000D01*
X9130000Y-13020000D02*
X9150000Y-13040000D01*
X9150000Y-13020000D02*
X9130000Y-13040000D01*
X9230000Y-12580000D02*
X9250000Y-12600000D01*
X9250000Y-12580000D02*
X9230000Y-12600000D01*
X9292500Y-11632500D02*
X9312500Y-11652500D01*
X9312500Y-11632500D02*
X9292500Y-11652500D01*
X9390000Y-13132500D02*
X9410000Y-13152500D01*
X9410000Y-13132500D02*
X9390000Y-13152500D01*
X9450000Y-12800000D02*
X9470000Y-12820000D01*
X9470000Y-12800000D02*
X9450000Y-12820000D01*
X9770000Y-13340000D02*
X9790000Y-13360000D01*
X9790000Y-13340000D02*
X9770000Y-13360000D01*
X9960000Y-13340000D02*
X9980000Y-13360000D01*
X9980000Y-13340000D02*
X9960000Y-13360000D01*
X10040000Y-11140000D02*
X10060000Y-11160000D01*
X10060000Y-11140000D02*
X10040000Y-11160000D01*
X10130000Y-10010000D02*
X10150000Y-10030000D01*
X10150000Y-10010000D02*
X10130000Y-10030000D01*
X10380000Y-12290000D02*
X10400000Y-12310000D01*
X10400000Y-12290000D02*
X10380000Y-12310000D01*
X10400000Y-11170000D02*
X10420000Y-11190000D01*
X10420000Y-11170000D02*
X10400000Y-11190000D01*
X10425756Y-12540000D02*
X10445756Y-12560000D01*
X10445756Y-12540000D02*
X10425756Y-12560000D01*
X10432500Y-11247500D02*
X10452500Y-11267500D01*
X10452500Y-11247500D02*
X10432500Y-11267500D01*
X10450000Y-10440000D02*
X10470000Y-10460000D01*
X10470000Y-10440000D02*
X10450000Y-10460000D01*
X10450000Y-11580000D02*
X10470000Y-11600000D01*
X10470000Y-11580000D02*
X10450000Y-11600000D01*
X10510000Y-11944209D02*
X10530000Y-11964209D01*
X10530000Y-11944209D02*
X10510000Y-11964209D01*
X10520000Y-12030000D02*
X10540000Y-12050000D01*
X10540000Y-12030000D02*
X10520000Y-12050000D01*
X10540000Y-12640000D02*
X10560000Y-12660000D01*
X10560000Y-12640000D02*
X10540000Y-12660000D01*
X10550000Y-11080000D02*
X10570000Y-11100000D01*
X10570000Y-11080000D02*
X10550000Y-11100000D01*
X10590000Y-12290000D02*
X10610000Y-12310000D01*
X10610000Y-12290000D02*
X10590000Y-12310000D01*
X10640000Y-11990000D02*
X10660000Y-12010000D01*
X10660000Y-11990000D02*
X10640000Y-12010000D01*
X10640000Y-13070000D02*
X10660000Y-13090000D01*
X10660000Y-13070000D02*
X10640000Y-13090000D01*
X10665000Y-10342678D02*
X10685000Y-10362678D01*
X10685000Y-10342678D02*
X10665000Y-10362678D01*
X10740000Y-12090000D02*
X10760000Y-12110000D01*
X10760000Y-12090000D02*
X10740000Y-12110000D01*
X10750000Y-13070000D02*
X10770000Y-13090000D01*
X10770000Y-13070000D02*
X10750000Y-13090000D01*
X10765000Y-10340000D02*
X10785000Y-10360000D01*
X10785000Y-10340000D02*
X10765000Y-10360000D01*
X10850000Y-10980000D02*
X10870000Y-11000000D01*
X10870000Y-10980000D02*
X10850000Y-11000000D01*
X10860000Y-11390000D02*
X10880000Y-11410000D01*
X10880000Y-11390000D02*
X10860000Y-11410000D01*
X10930000Y-10440000D02*
X10950000Y-10460000D01*
X10950000Y-10440000D02*
X10930000Y-10460000D01*
X10970000Y-11280000D02*
X10990000Y-11300000D01*
X10990000Y-11280000D02*
X10970000Y-11300000D01*
X10970000Y-11860000D02*
X10990000Y-11880000D01*
X10990000Y-11860000D02*
X10970000Y-11880000D01*
X11030000Y-13790000D02*
X11050000Y-13810000D01*
X11050000Y-13790000D02*
X11030000Y-13810000D01*
X11255000Y-10025000D02*
X11275000Y-10045000D01*
X11275000Y-10025000D02*
X11255000Y-10045000D01*
X11317500Y-13132500D02*
X11337500Y-13152500D01*
X11337500Y-13132500D02*
X11317500Y-13152500D01*
X11390000Y-10590000D02*
X11410000Y-10610000D01*
X11410000Y-10590000D02*
X11390000Y-10610000D01*
X11390000Y-12550000D02*
X11410000Y-12570000D01*
X11410000Y-12550000D02*
X11390000Y-12570000D01*
X11390000Y-12630000D02*
X11410000Y-12650000D01*
X11410000Y-12630000D02*
X11390000Y-12650000D01*
X11845000Y-10945000D02*
X11865000Y-10965000D01*
X11865000Y-10945000D02*
X11845000Y-10965000D01*
X11920000Y-10945000D02*
X11940000Y-10965000D01*
X11940000Y-10945000D02*
X11920000Y-10965000D01*
D13*
X9520000Y-10750000D02*
G75*
G03*
X9520000Y-10750000I-20000J0D01*
G01*
X9520000Y-10920000D02*
G75*
G03*
X9520000Y-10920000I-20000J0D01*
G01*
X9945000Y-12315000D02*
G75*
G03*
X9945000Y-12315000I-20000J0D01*
G01*
X10080000Y-10570000D02*
G75*
G03*
X10080000Y-10570000I-20000J0D01*
G01*
X10260000Y-11735000D02*
G75*
G03*
X10260000Y-11735000I-20000J0D01*
G01*
X10300000Y-11960000D02*
G75*
G03*
X10300000Y-11960000I-20000J0D01*
G01*
X10370000Y-11890000D02*
G75*
G03*
X10370000Y-11890000I-20000J0D01*
G01*
X10400000Y-13060000D02*
G75*
G03*
X10400000Y-13060000I-20000J0D01*
G01*
X11180000Y-12875000D02*
G75*
G03*
X11180000Y-12875000I-20000J0D01*
G01*
X11290000Y-11845000D02*
G75*
G03*
X11290000Y-11845000I-20000J0D01*
G01*
X11533750Y-15140000D02*
G75*
G03*
X11533750Y-15140000I-20000J0D01*
G01*
X11690000Y-12970000D02*
G75*
G03*
X11690000Y-12970000I-20000J0D01*
G01*
X11990000Y-13575000D02*
G75*
G03*
X11990000Y-13575000I-20000J0D01*
G01*
X12170000Y-11245000D02*
G75*
G03*
X12170000Y-11245000I-20000J0D01*
G01*
X12283750Y-14400000D02*
G75*
G03*
X12283750Y-14400000I-20000J0D01*
G01*
D14*
X10268000Y-9940000D02*
X10268000Y-10000000D01*
X10238000Y-9970000D02*
X10298000Y-9970000D01*
D11*
X10298000Y-10010000D02*
X10298000Y-9930000D01*
X10298000Y-9930000D02*
G75*
G03*
X10238000Y-9930000I-30000J0D01*
G01*
X10238000Y-9930000D02*
X10238000Y-10010000D01*
X10238000Y-10010000D02*
G75*
G03*
X10298000Y-10010000I30000J0D01*
G01*
D14*
X10268000Y-10358000D02*
X10268000Y-10418000D01*
X10238000Y-10388000D02*
X10298000Y-10388000D01*
D11*
X10298000Y-10443000D02*
X10298000Y-10333000D01*
X10298000Y-10333000D02*
G75*
G03*
X10238000Y-10333000I-30000J0D01*
G01*
X10238000Y-10333000D02*
X10238000Y-10443000D01*
X10238000Y-10443000D02*
G75*
G03*
X10298000Y-10443000I30000J0D01*
G01*
D14*
X11132000Y-9940000D02*
X11132000Y-10000000D01*
X11102000Y-9970000D02*
X11162000Y-9970000D01*
D11*
X11162000Y-10010000D02*
X11162000Y-9930000D01*
X11162000Y-9930000D02*
G75*
G03*
X11102000Y-9930000I-30000J0D01*
G01*
X11102000Y-9930000D02*
X11102000Y-10010000D01*
X11102000Y-10010000D02*
G75*
G03*
X11162000Y-10010000I30000J0D01*
G01*
D14*
X11132000Y-10358000D02*
X11132000Y-10418000D01*
X11102000Y-10388000D02*
X11162000Y-10388000D01*
D11*
X11162000Y-10443000D02*
X11162000Y-10333000D01*
X11162000Y-10333000D02*
G75*
G03*
X11102000Y-10333000I-30000J0D01*
G01*
X11102000Y-10333000D02*
X11102000Y-10443000D01*
X11102000Y-10443000D02*
G75*
G03*
X11162000Y-10443000I30000J0D01*
G01*
D15*
X9226941Y-10051941D02*
X9226941Y-9998059D01*
X9173059Y-9998059D01*
X9173059Y-10051941D01*
X9226941Y-10051941D01*
X9226941Y-10251941D02*
X9226941Y-10198059D01*
X9173059Y-10198059D01*
X9173059Y-10251941D01*
X9226941Y-10251941D01*
X9226941Y-10451941D02*
X9226941Y-10398059D01*
X9173059Y-10398059D01*
X9173059Y-10451941D01*
X9226941Y-10451941D01*
X9726941Y-10051941D02*
X9726941Y-9998059D01*
X9673059Y-9998059D01*
X9673059Y-10051941D01*
X9726941Y-10051941D01*
X9726941Y-10251941D02*
X9726941Y-10198059D01*
X9673059Y-10198059D01*
X9673059Y-10251941D01*
X9726941Y-10251941D01*
X9726941Y-10451941D02*
X9726941Y-10398059D01*
X9673059Y-10398059D01*
X9673059Y-10451941D01*
X9726941Y-10451941D01*
D10*
X10430000Y-14646000D02*
X10480000Y-14596000D01*
X10430000Y-14546000D01*
X10380000Y-14596000D01*
X10430000Y-14646000D01*
X10430000Y-14900000D02*
X10480000Y-14850000D01*
X10430000Y-14800000D01*
X10380000Y-14850000D01*
X10430000Y-14900000D01*
X10684000Y-14646000D02*
X10734000Y-14596000D01*
X10684000Y-14546000D01*
X10634000Y-14596000D01*
X10684000Y-14646000D01*
X10684000Y-14900000D02*
X10734000Y-14850000D01*
X10684000Y-14800000D01*
X10634000Y-14850000D01*
X10684000Y-14900000D01*
X11642000Y-10800000D02*
X11692000Y-10750000D01*
X11642000Y-10700000D01*
X11592000Y-10750000D01*
X11642000Y-10800000D01*
X11896000Y-10800000D02*
X11946000Y-10750000D01*
X11896000Y-10700000D01*
X11846000Y-10750000D01*
X11896000Y-10800000D01*
X12150000Y-10800000D02*
X12200000Y-10750000D01*
X12150000Y-10700000D01*
X12100000Y-10750000D01*
X12150000Y-10800000D01*
X12404000Y-10800000D02*
X12454000Y-10750000D01*
X12404000Y-10700000D01*
X12354000Y-10750000D01*
X12404000Y-10800000D01*
D16*
X9213500Y-15325000D02*
X9323500Y-15435000D01*
X9323500Y-15325000D02*
X9213500Y-15435000D01*
X9323500Y-15380000D02*
G75*
G03*
X9323500Y-15380000I-55000J0D01*
G01*
X9467500Y-15325000D02*
X9577500Y-15435000D01*
X9577500Y-15325000D02*
X9467500Y-15435000D01*
X9577500Y-15380000D02*
G75*
G03*
X9577500Y-15380000I-55000J0D01*
G01*
X9721500Y-15325000D02*
X9831500Y-15435000D01*
X9831500Y-15325000D02*
X9721500Y-15435000D01*
X9831500Y-15380000D02*
G75*
G03*
X9831500Y-15380000I-55000J0D01*
G01*
X9975500Y-15325000D02*
X10085500Y-15435000D01*
X10085500Y-15325000D02*
X9975500Y-15435000D01*
X10085500Y-15380000D02*
G75*
G03*
X10085500Y-15380000I-55000J0D01*
G01*
X11620000Y-9970000D02*
X11730000Y-10080000D01*
X11730000Y-9970000D02*
X11620000Y-10080000D01*
X11730000Y-10025000D02*
G75*
G03*
X11730000Y-10025000I-55000J0D01*
G01*
X11620000Y-10420000D02*
X11730000Y-10530000D01*
X11730000Y-10420000D02*
X11620000Y-10530000D01*
X11730000Y-10475000D02*
G75*
G03*
X11730000Y-10475000I-55000J0D01*
G01*
X12270000Y-9970000D02*
X12380000Y-10080000D01*
X12380000Y-9970000D02*
X12270000Y-10080000D01*
X12380000Y-10025000D02*
G75*
G03*
X12380000Y-10025000I-55000J0D01*
G01*
X12270000Y-10420000D02*
X12380000Y-10530000D01*
X12380000Y-10420000D02*
X12270000Y-10530000D01*
X12380000Y-10475000D02*
G75*
G03*
X12380000Y-10475000I-55000J0D01*
G01*
D11*
X9242619Y-16048476D02*
X9242619Y-15848476D01*
X9242619Y-15848476D02*
X9290238Y-15848476D01*
X9290238Y-15848476D02*
X9318810Y-15858000D01*
X9318810Y-15858000D02*
X9337857Y-15877048D01*
X9337857Y-15877048D02*
X9347381Y-15896095D01*
X9347381Y-15896095D02*
X9356905Y-15934190D01*
X9356905Y-15934190D02*
X9356905Y-15962762D01*
X9356905Y-15962762D02*
X9347381Y-16000857D01*
X9347381Y-16000857D02*
X9337857Y-16019905D01*
X9337857Y-16019905D02*
X9318810Y-16038952D01*
X9318810Y-16038952D02*
X9290238Y-16048476D01*
X9290238Y-16048476D02*
X9242619Y-16048476D01*
X9442619Y-16048476D02*
X9442619Y-15915143D01*
X9442619Y-15953238D02*
X9452143Y-15934190D01*
X9452143Y-15934190D02*
X9461667Y-15924667D01*
X9461667Y-15924667D02*
X9480714Y-15915143D01*
X9480714Y-15915143D02*
X9499762Y-15915143D01*
X9566429Y-16048476D02*
X9566429Y-15915143D01*
X9566429Y-15848476D02*
X9556905Y-15858000D01*
X9556905Y-15858000D02*
X9566429Y-15867524D01*
X9566429Y-15867524D02*
X9575952Y-15858000D01*
X9575952Y-15858000D02*
X9566429Y-15848476D01*
X9566429Y-15848476D02*
X9566429Y-15867524D01*
X9690238Y-16048476D02*
X9671190Y-16038952D01*
X9671190Y-16038952D02*
X9661667Y-16019905D01*
X9661667Y-16019905D02*
X9661667Y-15848476D01*
X9795000Y-16048476D02*
X9775952Y-16038952D01*
X9775952Y-16038952D02*
X9766429Y-16019905D01*
X9766429Y-16019905D02*
X9766429Y-15848476D01*
X9991190Y-16048476D02*
X9991190Y-15848476D01*
X9991190Y-15848476D02*
X10057857Y-15991333D01*
X10057857Y-15991333D02*
X10124524Y-15848476D01*
X10124524Y-15848476D02*
X10124524Y-16048476D01*
X10305476Y-16048476D02*
X10305476Y-15943714D01*
X10305476Y-15943714D02*
X10295952Y-15924667D01*
X10295952Y-15924667D02*
X10276905Y-15915143D01*
X10276905Y-15915143D02*
X10238809Y-15915143D01*
X10238809Y-15915143D02*
X10219762Y-15924667D01*
X10305476Y-16038952D02*
X10286429Y-16048476D01*
X10286429Y-16048476D02*
X10238809Y-16048476D01*
X10238809Y-16048476D02*
X10219762Y-16038952D01*
X10219762Y-16038952D02*
X10210238Y-16019905D01*
X10210238Y-16019905D02*
X10210238Y-16000857D01*
X10210238Y-16000857D02*
X10219762Y-15981809D01*
X10219762Y-15981809D02*
X10238809Y-15972286D01*
X10238809Y-15972286D02*
X10286429Y-15972286D01*
X10286429Y-15972286D02*
X10305476Y-15962762D01*
X10400714Y-15915143D02*
X10400714Y-16115143D01*
X10400714Y-15924667D02*
X10419762Y-15915143D01*
X10419762Y-15915143D02*
X10457857Y-15915143D01*
X10457857Y-15915143D02*
X10476905Y-15924667D01*
X10476905Y-15924667D02*
X10486429Y-15934190D01*
X10486429Y-15934190D02*
X10495952Y-15953238D01*
X10495952Y-15953238D02*
X10495952Y-16010381D01*
X10495952Y-16010381D02*
X10486429Y-16029428D01*
X10486429Y-16029428D02*
X10476905Y-16038952D01*
X10476905Y-16038952D02*
X10457857Y-16048476D01*
X10457857Y-16048476D02*
X10419762Y-16048476D01*
X10419762Y-16048476D02*
X10400714Y-16038952D01*
X10581667Y-16029428D02*
X10591190Y-16038952D01*
X10591190Y-16038952D02*
X10581667Y-16048476D01*
X10581667Y-16048476D02*
X10572143Y-16038952D01*
X10572143Y-16038952D02*
X10581667Y-16029428D01*
X10581667Y-16029428D02*
X10581667Y-16048476D01*
X10581667Y-15924667D02*
X10591190Y-15934190D01*
X10591190Y-15934190D02*
X10581667Y-15943714D01*
X10581667Y-15943714D02*
X10572143Y-15934190D01*
X10572143Y-15934190D02*
X10581667Y-15924667D01*
X10581667Y-15924667D02*
X10581667Y-15943714D01*
D12*
X8975000Y-16385000D02*
X8995000Y-16405000D01*
X8995000Y-16385000D02*
X8975000Y-16405000D01*
D11*
X9280714Y-16268476D02*
X9299762Y-16268476D01*
X9299762Y-16268476D02*
X9318810Y-16278000D01*
X9318810Y-16278000D02*
X9328333Y-16287524D01*
X9328333Y-16287524D02*
X9337857Y-16306571D01*
X9337857Y-16306571D02*
X9347381Y-16344667D01*
X9347381Y-16344667D02*
X9347381Y-16392286D01*
X9347381Y-16392286D02*
X9337857Y-16430381D01*
X9337857Y-16430381D02*
X9328333Y-16449428D01*
X9328333Y-16449428D02*
X9318810Y-16458952D01*
X9318810Y-16458952D02*
X9299762Y-16468476D01*
X9299762Y-16468476D02*
X9280714Y-16468476D01*
X9280714Y-16468476D02*
X9261667Y-16458952D01*
X9261667Y-16458952D02*
X9252143Y-16449428D01*
X9252143Y-16449428D02*
X9242619Y-16430381D01*
X9242619Y-16430381D02*
X9233095Y-16392286D01*
X9233095Y-16392286D02*
X9233095Y-16344667D01*
X9233095Y-16344667D02*
X9242619Y-16306571D01*
X9242619Y-16306571D02*
X9252143Y-16287524D01*
X9252143Y-16287524D02*
X9261667Y-16278000D01*
X9261667Y-16278000D02*
X9280714Y-16268476D01*
X9433095Y-16449428D02*
X9442619Y-16458952D01*
X9442619Y-16458952D02*
X9433095Y-16468476D01*
X9433095Y-16468476D02*
X9423571Y-16458952D01*
X9423571Y-16458952D02*
X9433095Y-16449428D01*
X9433095Y-16449428D02*
X9433095Y-16468476D01*
X9518810Y-16287524D02*
X9528333Y-16278000D01*
X9528333Y-16278000D02*
X9547381Y-16268476D01*
X9547381Y-16268476D02*
X9595000Y-16268476D01*
X9595000Y-16268476D02*
X9614048Y-16278000D01*
X9614048Y-16278000D02*
X9623571Y-16287524D01*
X9623571Y-16287524D02*
X9633095Y-16306571D01*
X9633095Y-16306571D02*
X9633095Y-16325619D01*
X9633095Y-16325619D02*
X9623571Y-16354190D01*
X9623571Y-16354190D02*
X9509286Y-16468476D01*
X9509286Y-16468476D02*
X9633095Y-16468476D01*
X9756905Y-16268476D02*
X9775952Y-16268476D01*
X9775952Y-16268476D02*
X9795000Y-16278000D01*
X9795000Y-16278000D02*
X9804524Y-16287524D01*
X9804524Y-16287524D02*
X9814048Y-16306571D01*
X9814048Y-16306571D02*
X9823571Y-16344667D01*
X9823571Y-16344667D02*
X9823571Y-16392286D01*
X9823571Y-16392286D02*
X9814048Y-16430381D01*
X9814048Y-16430381D02*
X9804524Y-16449428D01*
X9804524Y-16449428D02*
X9795000Y-16458952D01*
X9795000Y-16458952D02*
X9775952Y-16468476D01*
X9775952Y-16468476D02*
X9756905Y-16468476D01*
X9756905Y-16468476D02*
X9737857Y-16458952D01*
X9737857Y-16458952D02*
X9728333Y-16449428D01*
X9728333Y-16449428D02*
X9718810Y-16430381D01*
X9718810Y-16430381D02*
X9709286Y-16392286D01*
X9709286Y-16392286D02*
X9709286Y-16344667D01*
X9709286Y-16344667D02*
X9718810Y-16306571D01*
X9718810Y-16306571D02*
X9728333Y-16287524D01*
X9728333Y-16287524D02*
X9737857Y-16278000D01*
X9737857Y-16278000D02*
X9756905Y-16268476D01*
X9947381Y-16268476D02*
X9966429Y-16268476D01*
X9966429Y-16268476D02*
X9985476Y-16278000D01*
X9985476Y-16278000D02*
X9995000Y-16287524D01*
X9995000Y-16287524D02*
X10004524Y-16306571D01*
X10004524Y-16306571D02*
X10014048Y-16344667D01*
X10014048Y-16344667D02*
X10014048Y-16392286D01*
X10014048Y-16392286D02*
X10004524Y-16430381D01*
X10004524Y-16430381D02*
X9995000Y-16449428D01*
X9995000Y-16449428D02*
X9985476Y-16458952D01*
X9985476Y-16458952D02*
X9966429Y-16468476D01*
X9966429Y-16468476D02*
X9947381Y-16468476D01*
X9947381Y-16468476D02*
X9928333Y-16458952D01*
X9928333Y-16458952D02*
X9918810Y-16449428D01*
X9918810Y-16449428D02*
X9909286Y-16430381D01*
X9909286Y-16430381D02*
X9899762Y-16392286D01*
X9899762Y-16392286D02*
X9899762Y-16344667D01*
X9899762Y-16344667D02*
X9909286Y-16306571D01*
X9909286Y-16306571D02*
X9918810Y-16287524D01*
X9918810Y-16287524D02*
X9928333Y-16278000D01*
X9928333Y-16278000D02*
X9947381Y-16268476D01*
X10099762Y-16468476D02*
X10099762Y-16335143D01*
X10099762Y-16354190D02*
X10109286Y-16344667D01*
X10109286Y-16344667D02*
X10128333Y-16335143D01*
X10128333Y-16335143D02*
X10156905Y-16335143D01*
X10156905Y-16335143D02*
X10175952Y-16344667D01*
X10175952Y-16344667D02*
X10185476Y-16363714D01*
X10185476Y-16363714D02*
X10185476Y-16468476D01*
X10185476Y-16363714D02*
X10195000Y-16344667D01*
X10195000Y-16344667D02*
X10214048Y-16335143D01*
X10214048Y-16335143D02*
X10242619Y-16335143D01*
X10242619Y-16335143D02*
X10261667Y-16344667D01*
X10261667Y-16344667D02*
X10271191Y-16363714D01*
X10271191Y-16363714D02*
X10271191Y-16468476D01*
X10366429Y-16468476D02*
X10366429Y-16335143D01*
X10366429Y-16354190D02*
X10375952Y-16344667D01*
X10375952Y-16344667D02*
X10395000Y-16335143D01*
X10395000Y-16335143D02*
X10423572Y-16335143D01*
X10423572Y-16335143D02*
X10442619Y-16344667D01*
X10442619Y-16344667D02*
X10452143Y-16363714D01*
X10452143Y-16363714D02*
X10452143Y-16468476D01*
X10452143Y-16363714D02*
X10461667Y-16344667D01*
X10461667Y-16344667D02*
X10480714Y-16335143D01*
X10480714Y-16335143D02*
X10509286Y-16335143D01*
X10509286Y-16335143D02*
X10528333Y-16344667D01*
X10528333Y-16344667D02*
X10537857Y-16363714D01*
X10537857Y-16363714D02*
X10537857Y-16468476D01*
X10895952Y-16258952D02*
X10724524Y-16516095D01*
X11120714Y-16268476D02*
X11139762Y-16268476D01*
X11139762Y-16268476D02*
X11158810Y-16278000D01*
X11158810Y-16278000D02*
X11168333Y-16287524D01*
X11168333Y-16287524D02*
X11177857Y-16306571D01*
X11177857Y-16306571D02*
X11187381Y-16344667D01*
X11187381Y-16344667D02*
X11187381Y-16392286D01*
X11187381Y-16392286D02*
X11177857Y-16430381D01*
X11177857Y-16430381D02*
X11168333Y-16449428D01*
X11168333Y-16449428D02*
X11158810Y-16458952D01*
X11158810Y-16458952D02*
X11139762Y-16468476D01*
X11139762Y-16468476D02*
X11120714Y-16468476D01*
X11120714Y-16468476D02*
X11101667Y-16458952D01*
X11101667Y-16458952D02*
X11092143Y-16449428D01*
X11092143Y-16449428D02*
X11082619Y-16430381D01*
X11082619Y-16430381D02*
X11073095Y-16392286D01*
X11073095Y-16392286D02*
X11073095Y-16344667D01*
X11073095Y-16344667D02*
X11082619Y-16306571D01*
X11082619Y-16306571D02*
X11092143Y-16287524D01*
X11092143Y-16287524D02*
X11101667Y-16278000D01*
X11101667Y-16278000D02*
X11120714Y-16268476D01*
X11273095Y-16449428D02*
X11282619Y-16458952D01*
X11282619Y-16458952D02*
X11273095Y-16468476D01*
X11273095Y-16468476D02*
X11263571Y-16458952D01*
X11263571Y-16458952D02*
X11273095Y-16449428D01*
X11273095Y-16449428D02*
X11273095Y-16468476D01*
X11406429Y-16268476D02*
X11425476Y-16268476D01*
X11425476Y-16268476D02*
X11444524Y-16278000D01*
X11444524Y-16278000D02*
X11454048Y-16287524D01*
X11454048Y-16287524D02*
X11463571Y-16306571D01*
X11463571Y-16306571D02*
X11473095Y-16344667D01*
X11473095Y-16344667D02*
X11473095Y-16392286D01*
X11473095Y-16392286D02*
X11463571Y-16430381D01*
X11463571Y-16430381D02*
X11454048Y-16449428D01*
X11454048Y-16449428D02*
X11444524Y-16458952D01*
X11444524Y-16458952D02*
X11425476Y-16468476D01*
X11425476Y-16468476D02*
X11406429Y-16468476D01*
X11406429Y-16468476D02*
X11387381Y-16458952D01*
X11387381Y-16458952D02*
X11377857Y-16449428D01*
X11377857Y-16449428D02*
X11368333Y-16430381D01*
X11368333Y-16430381D02*
X11358810Y-16392286D01*
X11358810Y-16392286D02*
X11358810Y-16344667D01*
X11358810Y-16344667D02*
X11368333Y-16306571D01*
X11368333Y-16306571D02*
X11377857Y-16287524D01*
X11377857Y-16287524D02*
X11387381Y-16278000D01*
X11387381Y-16278000D02*
X11406429Y-16268476D01*
X11596905Y-16268476D02*
X11615952Y-16268476D01*
X11615952Y-16268476D02*
X11635000Y-16278000D01*
X11635000Y-16278000D02*
X11644524Y-16287524D01*
X11644524Y-16287524D02*
X11654048Y-16306571D01*
X11654048Y-16306571D02*
X11663571Y-16344667D01*
X11663571Y-16344667D02*
X11663571Y-16392286D01*
X11663571Y-16392286D02*
X11654048Y-16430381D01*
X11654048Y-16430381D02*
X11644524Y-16449428D01*
X11644524Y-16449428D02*
X11635000Y-16458952D01*
X11635000Y-16458952D02*
X11615952Y-16468476D01*
X11615952Y-16468476D02*
X11596905Y-16468476D01*
X11596905Y-16468476D02*
X11577857Y-16458952D01*
X11577857Y-16458952D02*
X11568333Y-16449428D01*
X11568333Y-16449428D02*
X11558810Y-16430381D01*
X11558810Y-16430381D02*
X11549286Y-16392286D01*
X11549286Y-16392286D02*
X11549286Y-16344667D01*
X11549286Y-16344667D02*
X11558810Y-16306571D01*
X11558810Y-16306571D02*
X11568333Y-16287524D01*
X11568333Y-16287524D02*
X11577857Y-16278000D01*
X11577857Y-16278000D02*
X11596905Y-16268476D01*
X11730238Y-16268476D02*
X11863571Y-16268476D01*
X11863571Y-16268476D02*
X11777857Y-16468476D01*
X11949286Y-16468476D02*
X11987381Y-16468476D01*
X11987381Y-16468476D02*
X12006429Y-16458952D01*
X12006429Y-16458952D02*
X12015952Y-16449428D01*
X12015952Y-16449428D02*
X12035000Y-16420857D01*
X12035000Y-16420857D02*
X12044524Y-16382762D01*
X12044524Y-16382762D02*
X12044524Y-16306571D01*
X12044524Y-16306571D02*
X12035000Y-16287524D01*
X12035000Y-16287524D02*
X12025476Y-16278000D01*
X12025476Y-16278000D02*
X12006429Y-16268476D01*
X12006429Y-16268476D02*
X11968333Y-16268476D01*
X11968333Y-16268476D02*
X11949286Y-16278000D01*
X11949286Y-16278000D02*
X11939762Y-16287524D01*
X11939762Y-16287524D02*
X11930238Y-16306571D01*
X11930238Y-16306571D02*
X11930238Y-16354190D01*
X11930238Y-16354190D02*
X11939762Y-16373238D01*
X11939762Y-16373238D02*
X11949286Y-16382762D01*
X11949286Y-16382762D02*
X11968333Y-16392286D01*
X11968333Y-16392286D02*
X12006429Y-16392286D01*
X12006429Y-16392286D02*
X12025476Y-16382762D01*
X12025476Y-16382762D02*
X12035000Y-16373238D01*
X12035000Y-16373238D02*
X12044524Y-16354190D01*
X12120714Y-16268476D02*
X12120714Y-16306571D01*
X12196905Y-16268476D02*
X12196905Y-16306571D01*
X12459762Y-16544667D02*
X12450238Y-16535143D01*
X12450238Y-16535143D02*
X12431191Y-16506571D01*
X12431191Y-16506571D02*
X12421667Y-16487524D01*
X12421667Y-16487524D02*
X12412143Y-16458952D01*
X12412143Y-16458952D02*
X12402619Y-16411333D01*
X12402619Y-16411333D02*
X12402619Y-16373238D01*
X12402619Y-16373238D02*
X12412143Y-16325619D01*
X12412143Y-16325619D02*
X12421667Y-16297048D01*
X12421667Y-16297048D02*
X12431191Y-16278000D01*
X12431191Y-16278000D02*
X12450238Y-16249428D01*
X12450238Y-16249428D02*
X12459762Y-16239905D01*
X12621667Y-16335143D02*
X12621667Y-16468476D01*
X12574048Y-16258952D02*
X12526429Y-16401809D01*
X12526429Y-16401809D02*
X12650238Y-16401809D01*
X12764524Y-16268476D02*
X12783572Y-16268476D01*
X12783572Y-16268476D02*
X12802619Y-16278000D01*
X12802619Y-16278000D02*
X12812143Y-16287524D01*
X12812143Y-16287524D02*
X12821667Y-16306571D01*
X12821667Y-16306571D02*
X12831191Y-16344667D01*
X12831191Y-16344667D02*
X12831191Y-16392286D01*
X12831191Y-16392286D02*
X12821667Y-16430381D01*
X12821667Y-16430381D02*
X12812143Y-16449428D01*
X12812143Y-16449428D02*
X12802619Y-16458952D01*
X12802619Y-16458952D02*
X12783572Y-16468476D01*
X12783572Y-16468476D02*
X12764524Y-16468476D01*
X12764524Y-16468476D02*
X12745476Y-16458952D01*
X12745476Y-16458952D02*
X12735952Y-16449428D01*
X12735952Y-16449428D02*
X12726429Y-16430381D01*
X12726429Y-16430381D02*
X12716905Y-16392286D01*
X12716905Y-16392286D02*
X12716905Y-16344667D01*
X12716905Y-16344667D02*
X12726429Y-16306571D01*
X12726429Y-16306571D02*
X12735952Y-16287524D01*
X12735952Y-16287524D02*
X12745476Y-16278000D01*
X12745476Y-16278000D02*
X12764524Y-16268476D01*
X13036905Y-16468476D02*
X13036905Y-16268476D01*
X13122619Y-16468476D02*
X13122619Y-16363714D01*
X13122619Y-16363714D02*
X13113095Y-16344667D01*
X13113095Y-16344667D02*
X13094048Y-16335143D01*
X13094048Y-16335143D02*
X13065476Y-16335143D01*
X13065476Y-16335143D02*
X13046429Y-16344667D01*
X13046429Y-16344667D02*
X13036905Y-16354190D01*
X13246429Y-16468476D02*
X13227381Y-16458952D01*
X13227381Y-16458952D02*
X13217857Y-16449428D01*
X13217857Y-16449428D02*
X13208333Y-16430381D01*
X13208333Y-16430381D02*
X13208333Y-16373238D01*
X13208333Y-16373238D02*
X13217857Y-16354190D01*
X13217857Y-16354190D02*
X13227381Y-16344667D01*
X13227381Y-16344667D02*
X13246429Y-16335143D01*
X13246429Y-16335143D02*
X13275000Y-16335143D01*
X13275000Y-16335143D02*
X13294048Y-16344667D01*
X13294048Y-16344667D02*
X13303572Y-16354190D01*
X13303572Y-16354190D02*
X13313095Y-16373238D01*
X13313095Y-16373238D02*
X13313095Y-16430381D01*
X13313095Y-16430381D02*
X13303572Y-16449428D01*
X13303572Y-16449428D02*
X13294048Y-16458952D01*
X13294048Y-16458952D02*
X13275000Y-16468476D01*
X13275000Y-16468476D02*
X13246429Y-16468476D01*
X13427381Y-16468476D02*
X13408333Y-16458952D01*
X13408333Y-16458952D02*
X13398810Y-16439905D01*
X13398810Y-16439905D02*
X13398810Y-16268476D01*
X13579762Y-16458952D02*
X13560714Y-16468476D01*
X13560714Y-16468476D02*
X13522619Y-16468476D01*
X13522619Y-16468476D02*
X13503572Y-16458952D01*
X13503572Y-16458952D02*
X13494048Y-16439905D01*
X13494048Y-16439905D02*
X13494048Y-16363714D01*
X13494048Y-16363714D02*
X13503572Y-16344667D01*
X13503572Y-16344667D02*
X13522619Y-16335143D01*
X13522619Y-16335143D02*
X13560714Y-16335143D01*
X13560714Y-16335143D02*
X13579762Y-16344667D01*
X13579762Y-16344667D02*
X13589286Y-16363714D01*
X13589286Y-16363714D02*
X13589286Y-16382762D01*
X13589286Y-16382762D02*
X13494048Y-16401809D01*
X13665476Y-16458952D02*
X13684524Y-16468476D01*
X13684524Y-16468476D02*
X13722619Y-16468476D01*
X13722619Y-16468476D02*
X13741667Y-16458952D01*
X13741667Y-16458952D02*
X13751191Y-16439905D01*
X13751191Y-16439905D02*
X13751191Y-16430381D01*
X13751191Y-16430381D02*
X13741667Y-16411333D01*
X13741667Y-16411333D02*
X13722619Y-16401809D01*
X13722619Y-16401809D02*
X13694048Y-16401809D01*
X13694048Y-16401809D02*
X13675000Y-16392286D01*
X13675000Y-16392286D02*
X13665476Y-16373238D01*
X13665476Y-16373238D02*
X13665476Y-16363714D01*
X13665476Y-16363714D02*
X13675000Y-16344667D01*
X13675000Y-16344667D02*
X13694048Y-16335143D01*
X13694048Y-16335143D02*
X13722619Y-16335143D01*
X13722619Y-16335143D02*
X13741667Y-16344667D01*
X13817857Y-16544667D02*
X13827381Y-16535143D01*
X13827381Y-16535143D02*
X13846429Y-16506571D01*
X13846429Y-16506571D02*
X13855953Y-16487524D01*
X13855953Y-16487524D02*
X13865476Y-16458952D01*
X13865476Y-16458952D02*
X13875000Y-16411333D01*
X13875000Y-16411333D02*
X13875000Y-16373238D01*
X13875000Y-16373238D02*
X13865476Y-16325619D01*
X13865476Y-16325619D02*
X13855953Y-16297048D01*
X13855953Y-16297048D02*
X13846429Y-16278000D01*
X13846429Y-16278000D02*
X13827381Y-16249428D01*
X13827381Y-16249428D02*
X13817857Y-16239905D01*
D13*
X8995000Y-16659000D02*
G75*
G03*
X8995000Y-16659000I-20000J0D01*
G01*
D11*
X9280714Y-16532476D02*
X9299762Y-16532476D01*
X9299762Y-16532476D02*
X9318810Y-16542000D01*
X9318810Y-16542000D02*
X9328333Y-16551524D01*
X9328333Y-16551524D02*
X9337857Y-16570571D01*
X9337857Y-16570571D02*
X9347381Y-16608667D01*
X9347381Y-16608667D02*
X9347381Y-16656286D01*
X9347381Y-16656286D02*
X9337857Y-16694381D01*
X9337857Y-16694381D02*
X9328333Y-16713428D01*
X9328333Y-16713428D02*
X9318810Y-16722952D01*
X9318810Y-16722952D02*
X9299762Y-16732476D01*
X9299762Y-16732476D02*
X9280714Y-16732476D01*
X9280714Y-16732476D02*
X9261667Y-16722952D01*
X9261667Y-16722952D02*
X9252143Y-16713428D01*
X9252143Y-16713428D02*
X9242619Y-16694381D01*
X9242619Y-16694381D02*
X9233095Y-16656286D01*
X9233095Y-16656286D02*
X9233095Y-16608667D01*
X9233095Y-16608667D02*
X9242619Y-16570571D01*
X9242619Y-16570571D02*
X9252143Y-16551524D01*
X9252143Y-16551524D02*
X9261667Y-16542000D01*
X9261667Y-16542000D02*
X9280714Y-16532476D01*
X9433095Y-16713428D02*
X9442619Y-16722952D01*
X9442619Y-16722952D02*
X9433095Y-16732476D01*
X9433095Y-16732476D02*
X9423571Y-16722952D01*
X9423571Y-16722952D02*
X9433095Y-16713428D01*
X9433095Y-16713428D02*
X9433095Y-16732476D01*
X9614048Y-16599143D02*
X9614048Y-16732476D01*
X9566429Y-16522952D02*
X9518810Y-16665809D01*
X9518810Y-16665809D02*
X9642619Y-16665809D01*
X9756905Y-16532476D02*
X9775952Y-16532476D01*
X9775952Y-16532476D02*
X9795000Y-16542000D01*
X9795000Y-16542000D02*
X9804524Y-16551524D01*
X9804524Y-16551524D02*
X9814048Y-16570571D01*
X9814048Y-16570571D02*
X9823571Y-16608667D01*
X9823571Y-16608667D02*
X9823571Y-16656286D01*
X9823571Y-16656286D02*
X9814048Y-16694381D01*
X9814048Y-16694381D02*
X9804524Y-16713428D01*
X9804524Y-16713428D02*
X9795000Y-16722952D01*
X9795000Y-16722952D02*
X9775952Y-16732476D01*
X9775952Y-16732476D02*
X9756905Y-16732476D01*
X9756905Y-16732476D02*
X9737857Y-16722952D01*
X9737857Y-16722952D02*
X9728333Y-16713428D01*
X9728333Y-16713428D02*
X9718810Y-16694381D01*
X9718810Y-16694381D02*
X9709286Y-16656286D01*
X9709286Y-16656286D02*
X9709286Y-16608667D01*
X9709286Y-16608667D02*
X9718810Y-16570571D01*
X9718810Y-16570571D02*
X9728333Y-16551524D01*
X9728333Y-16551524D02*
X9737857Y-16542000D01*
X9737857Y-16542000D02*
X9756905Y-16532476D01*
X9947381Y-16532476D02*
X9966429Y-16532476D01*
X9966429Y-16532476D02*
X9985476Y-16542000D01*
X9985476Y-16542000D02*
X9995000Y-16551524D01*
X9995000Y-16551524D02*
X10004524Y-16570571D01*
X10004524Y-16570571D02*
X10014048Y-16608667D01*
X10014048Y-16608667D02*
X10014048Y-16656286D01*
X10014048Y-16656286D02*
X10004524Y-16694381D01*
X10004524Y-16694381D02*
X9995000Y-16713428D01*
X9995000Y-16713428D02*
X9985476Y-16722952D01*
X9985476Y-16722952D02*
X9966429Y-16732476D01*
X9966429Y-16732476D02*
X9947381Y-16732476D01*
X9947381Y-16732476D02*
X9928333Y-16722952D01*
X9928333Y-16722952D02*
X9918810Y-16713428D01*
X9918810Y-16713428D02*
X9909286Y-16694381D01*
X9909286Y-16694381D02*
X9899762Y-16656286D01*
X9899762Y-16656286D02*
X9899762Y-16608667D01*
X9899762Y-16608667D02*
X9909286Y-16570571D01*
X9909286Y-16570571D02*
X9918810Y-16551524D01*
X9918810Y-16551524D02*
X9928333Y-16542000D01*
X9928333Y-16542000D02*
X9947381Y-16532476D01*
X10099762Y-16732476D02*
X10099762Y-16599143D01*
X10099762Y-16618190D02*
X10109286Y-16608667D01*
X10109286Y-16608667D02*
X10128333Y-16599143D01*
X10128333Y-16599143D02*
X10156905Y-16599143D01*
X10156905Y-16599143D02*
X10175952Y-16608667D01*
X10175952Y-16608667D02*
X10185476Y-16627714D01*
X10185476Y-16627714D02*
X10185476Y-16732476D01*
X10185476Y-16627714D02*
X10195000Y-16608667D01*
X10195000Y-16608667D02*
X10214048Y-16599143D01*
X10214048Y-16599143D02*
X10242619Y-16599143D01*
X10242619Y-16599143D02*
X10261667Y-16608667D01*
X10261667Y-16608667D02*
X10271191Y-16627714D01*
X10271191Y-16627714D02*
X10271191Y-16732476D01*
X10366429Y-16732476D02*
X10366429Y-16599143D01*
X10366429Y-16618190D02*
X10375952Y-16608667D01*
X10375952Y-16608667D02*
X10395000Y-16599143D01*
X10395000Y-16599143D02*
X10423572Y-16599143D01*
X10423572Y-16599143D02*
X10442619Y-16608667D01*
X10442619Y-16608667D02*
X10452143Y-16627714D01*
X10452143Y-16627714D02*
X10452143Y-16732476D01*
X10452143Y-16627714D02*
X10461667Y-16608667D01*
X10461667Y-16608667D02*
X10480714Y-16599143D01*
X10480714Y-16599143D02*
X10509286Y-16599143D01*
X10509286Y-16599143D02*
X10528333Y-16608667D01*
X10528333Y-16608667D02*
X10537857Y-16627714D01*
X10537857Y-16627714D02*
X10537857Y-16732476D01*
X10895952Y-16522952D02*
X10724524Y-16780095D01*
X11120714Y-16532476D02*
X11139762Y-16532476D01*
X11139762Y-16532476D02*
X11158810Y-16542000D01*
X11158810Y-16542000D02*
X11168333Y-16551524D01*
X11168333Y-16551524D02*
X11177857Y-16570571D01*
X11177857Y-16570571D02*
X11187381Y-16608667D01*
X11187381Y-16608667D02*
X11187381Y-16656286D01*
X11187381Y-16656286D02*
X11177857Y-16694381D01*
X11177857Y-16694381D02*
X11168333Y-16713428D01*
X11168333Y-16713428D02*
X11158810Y-16722952D01*
X11158810Y-16722952D02*
X11139762Y-16732476D01*
X11139762Y-16732476D02*
X11120714Y-16732476D01*
X11120714Y-16732476D02*
X11101667Y-16722952D01*
X11101667Y-16722952D02*
X11092143Y-16713428D01*
X11092143Y-16713428D02*
X11082619Y-16694381D01*
X11082619Y-16694381D02*
X11073095Y-16656286D01*
X11073095Y-16656286D02*
X11073095Y-16608667D01*
X11073095Y-16608667D02*
X11082619Y-16570571D01*
X11082619Y-16570571D02*
X11092143Y-16551524D01*
X11092143Y-16551524D02*
X11101667Y-16542000D01*
X11101667Y-16542000D02*
X11120714Y-16532476D01*
X11273095Y-16713428D02*
X11282619Y-16722952D01*
X11282619Y-16722952D02*
X11273095Y-16732476D01*
X11273095Y-16732476D02*
X11263571Y-16722952D01*
X11263571Y-16722952D02*
X11273095Y-16713428D01*
X11273095Y-16713428D02*
X11273095Y-16732476D01*
X11406429Y-16532476D02*
X11425476Y-16532476D01*
X11425476Y-16532476D02*
X11444524Y-16542000D01*
X11444524Y-16542000D02*
X11454048Y-16551524D01*
X11454048Y-16551524D02*
X11463571Y-16570571D01*
X11463571Y-16570571D02*
X11473095Y-16608667D01*
X11473095Y-16608667D02*
X11473095Y-16656286D01*
X11473095Y-16656286D02*
X11463571Y-16694381D01*
X11463571Y-16694381D02*
X11454048Y-16713428D01*
X11454048Y-16713428D02*
X11444524Y-16722952D01*
X11444524Y-16722952D02*
X11425476Y-16732476D01*
X11425476Y-16732476D02*
X11406429Y-16732476D01*
X11406429Y-16732476D02*
X11387381Y-16722952D01*
X11387381Y-16722952D02*
X11377857Y-16713428D01*
X11377857Y-16713428D02*
X11368333Y-16694381D01*
X11368333Y-16694381D02*
X11358810Y-16656286D01*
X11358810Y-16656286D02*
X11358810Y-16608667D01*
X11358810Y-16608667D02*
X11368333Y-16570571D01*
X11368333Y-16570571D02*
X11377857Y-16551524D01*
X11377857Y-16551524D02*
X11387381Y-16542000D01*
X11387381Y-16542000D02*
X11406429Y-16532476D01*
X11663571Y-16732476D02*
X11549286Y-16732476D01*
X11606429Y-16732476D02*
X11606429Y-16532476D01*
X11606429Y-16532476D02*
X11587381Y-16561048D01*
X11587381Y-16561048D02*
X11568333Y-16580095D01*
X11568333Y-16580095D02*
X11549286Y-16589619D01*
X11844524Y-16532476D02*
X11749286Y-16532476D01*
X11749286Y-16532476D02*
X11739762Y-16627714D01*
X11739762Y-16627714D02*
X11749286Y-16618190D01*
X11749286Y-16618190D02*
X11768333Y-16608667D01*
X11768333Y-16608667D02*
X11815952Y-16608667D01*
X11815952Y-16608667D02*
X11835000Y-16618190D01*
X11835000Y-16618190D02*
X11844524Y-16627714D01*
X11844524Y-16627714D02*
X11854048Y-16646762D01*
X11854048Y-16646762D02*
X11854048Y-16694381D01*
X11854048Y-16694381D02*
X11844524Y-16713428D01*
X11844524Y-16713428D02*
X11835000Y-16722952D01*
X11835000Y-16722952D02*
X11815952Y-16732476D01*
X11815952Y-16732476D02*
X11768333Y-16732476D01*
X11768333Y-16732476D02*
X11749286Y-16722952D01*
X11749286Y-16722952D02*
X11739762Y-16713428D01*
X11920714Y-16532476D02*
X12054048Y-16532476D01*
X12054048Y-16532476D02*
X11968333Y-16732476D01*
X12120714Y-16532476D02*
X12120714Y-16570571D01*
X12196905Y-16532476D02*
X12196905Y-16570571D01*
X12459762Y-16808667D02*
X12450238Y-16799143D01*
X12450238Y-16799143D02*
X12431191Y-16770571D01*
X12431191Y-16770571D02*
X12421667Y-16751524D01*
X12421667Y-16751524D02*
X12412143Y-16722952D01*
X12412143Y-16722952D02*
X12402619Y-16675333D01*
X12402619Y-16675333D02*
X12402619Y-16637238D01*
X12402619Y-16637238D02*
X12412143Y-16589619D01*
X12412143Y-16589619D02*
X12421667Y-16561048D01*
X12421667Y-16561048D02*
X12431191Y-16542000D01*
X12431191Y-16542000D02*
X12450238Y-16513428D01*
X12450238Y-16513428D02*
X12459762Y-16503905D01*
X12640714Y-16732476D02*
X12526429Y-16732476D01*
X12583571Y-16732476D02*
X12583571Y-16532476D01*
X12583571Y-16532476D02*
X12564524Y-16561048D01*
X12564524Y-16561048D02*
X12545476Y-16580095D01*
X12545476Y-16580095D02*
X12526429Y-16589619D01*
X12821667Y-16532476D02*
X12726429Y-16532476D01*
X12726429Y-16532476D02*
X12716905Y-16627714D01*
X12716905Y-16627714D02*
X12726429Y-16618190D01*
X12726429Y-16618190D02*
X12745476Y-16608667D01*
X12745476Y-16608667D02*
X12793095Y-16608667D01*
X12793095Y-16608667D02*
X12812143Y-16618190D01*
X12812143Y-16618190D02*
X12821667Y-16627714D01*
X12821667Y-16627714D02*
X12831191Y-16646762D01*
X12831191Y-16646762D02*
X12831191Y-16694381D01*
X12831191Y-16694381D02*
X12821667Y-16713428D01*
X12821667Y-16713428D02*
X12812143Y-16722952D01*
X12812143Y-16722952D02*
X12793095Y-16732476D01*
X12793095Y-16732476D02*
X12745476Y-16732476D01*
X12745476Y-16732476D02*
X12726429Y-16722952D01*
X12726429Y-16722952D02*
X12716905Y-16713428D01*
X13036905Y-16732476D02*
X13036905Y-16532476D01*
X13122619Y-16732476D02*
X13122619Y-16627714D01*
X13122619Y-16627714D02*
X13113095Y-16608667D01*
X13113095Y-16608667D02*
X13094048Y-16599143D01*
X13094048Y-16599143D02*
X13065476Y-16599143D01*
X13065476Y-16599143D02*
X13046429Y-16608667D01*
X13046429Y-16608667D02*
X13036905Y-16618190D01*
X13246429Y-16732476D02*
X13227381Y-16722952D01*
X13227381Y-16722952D02*
X13217857Y-16713428D01*
X13217857Y-16713428D02*
X13208333Y-16694381D01*
X13208333Y-16694381D02*
X13208333Y-16637238D01*
X13208333Y-16637238D02*
X13217857Y-16618190D01*
X13217857Y-16618190D02*
X13227381Y-16608667D01*
X13227381Y-16608667D02*
X13246429Y-16599143D01*
X13246429Y-16599143D02*
X13275000Y-16599143D01*
X13275000Y-16599143D02*
X13294048Y-16608667D01*
X13294048Y-16608667D02*
X13303572Y-16618190D01*
X13303572Y-16618190D02*
X13313095Y-16637238D01*
X13313095Y-16637238D02*
X13313095Y-16694381D01*
X13313095Y-16694381D02*
X13303572Y-16713428D01*
X13303572Y-16713428D02*
X13294048Y-16722952D01*
X13294048Y-16722952D02*
X13275000Y-16732476D01*
X13275000Y-16732476D02*
X13246429Y-16732476D01*
X13427381Y-16732476D02*
X13408333Y-16722952D01*
X13408333Y-16722952D02*
X13398810Y-16703905D01*
X13398810Y-16703905D02*
X13398810Y-16532476D01*
X13579762Y-16722952D02*
X13560714Y-16732476D01*
X13560714Y-16732476D02*
X13522619Y-16732476D01*
X13522619Y-16732476D02*
X13503572Y-16722952D01*
X13503572Y-16722952D02*
X13494048Y-16703905D01*
X13494048Y-16703905D02*
X13494048Y-16627714D01*
X13494048Y-16627714D02*
X13503572Y-16608667D01*
X13503572Y-16608667D02*
X13522619Y-16599143D01*
X13522619Y-16599143D02*
X13560714Y-16599143D01*
X13560714Y-16599143D02*
X13579762Y-16608667D01*
X13579762Y-16608667D02*
X13589286Y-16627714D01*
X13589286Y-16627714D02*
X13589286Y-16646762D01*
X13589286Y-16646762D02*
X13494048Y-16665809D01*
X13665476Y-16722952D02*
X13684524Y-16732476D01*
X13684524Y-16732476D02*
X13722619Y-16732476D01*
X13722619Y-16732476D02*
X13741667Y-16722952D01*
X13741667Y-16722952D02*
X13751191Y-16703905D01*
X13751191Y-16703905D02*
X13751191Y-16694381D01*
X13751191Y-16694381D02*
X13741667Y-16675333D01*
X13741667Y-16675333D02*
X13722619Y-16665809D01*
X13722619Y-16665809D02*
X13694048Y-16665809D01*
X13694048Y-16665809D02*
X13675000Y-16656286D01*
X13675000Y-16656286D02*
X13665476Y-16637238D01*
X13665476Y-16637238D02*
X13665476Y-16627714D01*
X13665476Y-16627714D02*
X13675000Y-16608667D01*
X13675000Y-16608667D02*
X13694048Y-16599143D01*
X13694048Y-16599143D02*
X13722619Y-16599143D01*
X13722619Y-16599143D02*
X13741667Y-16608667D01*
X13817857Y-16808667D02*
X13827381Y-16799143D01*
X13827381Y-16799143D02*
X13846429Y-16770571D01*
X13846429Y-16770571D02*
X13855953Y-16751524D01*
X13855953Y-16751524D02*
X13865476Y-16722952D01*
X13865476Y-16722952D02*
X13875000Y-16675333D01*
X13875000Y-16675333D02*
X13875000Y-16637238D01*
X13875000Y-16637238D02*
X13865476Y-16589619D01*
X13865476Y-16589619D02*
X13855953Y-16561048D01*
X13855953Y-16561048D02*
X13846429Y-16542000D01*
X13846429Y-16542000D02*
X13827381Y-16513428D01*
X13827381Y-16513428D02*
X13817857Y-16503905D01*
D14*
X8965000Y-16893000D02*
X8965000Y-16953000D01*
X8935000Y-16923000D02*
X8995000Y-16923000D01*
D11*
X9280714Y-16796476D02*
X9299762Y-16796476D01*
X9299762Y-16796476D02*
X9318810Y-16806000D01*
X9318810Y-16806000D02*
X9328333Y-16815524D01*
X9328333Y-16815524D02*
X9337857Y-16834571D01*
X9337857Y-16834571D02*
X9347381Y-16872667D01*
X9347381Y-16872667D02*
X9347381Y-16920286D01*
X9347381Y-16920286D02*
X9337857Y-16958381D01*
X9337857Y-16958381D02*
X9328333Y-16977429D01*
X9328333Y-16977429D02*
X9318810Y-16986952D01*
X9318810Y-16986952D02*
X9299762Y-16996476D01*
X9299762Y-16996476D02*
X9280714Y-16996476D01*
X9280714Y-16996476D02*
X9261667Y-16986952D01*
X9261667Y-16986952D02*
X9252143Y-16977429D01*
X9252143Y-16977429D02*
X9242619Y-16958381D01*
X9242619Y-16958381D02*
X9233095Y-16920286D01*
X9233095Y-16920286D02*
X9233095Y-16872667D01*
X9233095Y-16872667D02*
X9242619Y-16834571D01*
X9242619Y-16834571D02*
X9252143Y-16815524D01*
X9252143Y-16815524D02*
X9261667Y-16806000D01*
X9261667Y-16806000D02*
X9280714Y-16796476D01*
X9433095Y-16977429D02*
X9442619Y-16986952D01*
X9442619Y-16986952D02*
X9433095Y-16996476D01*
X9433095Y-16996476D02*
X9423571Y-16986952D01*
X9423571Y-16986952D02*
X9433095Y-16977429D01*
X9433095Y-16977429D02*
X9433095Y-16996476D01*
X9614048Y-16796476D02*
X9575952Y-16796476D01*
X9575952Y-16796476D02*
X9556905Y-16806000D01*
X9556905Y-16806000D02*
X9547381Y-16815524D01*
X9547381Y-16815524D02*
X9528333Y-16844095D01*
X9528333Y-16844095D02*
X9518810Y-16882190D01*
X9518810Y-16882190D02*
X9518810Y-16958381D01*
X9518810Y-16958381D02*
X9528333Y-16977429D01*
X9528333Y-16977429D02*
X9537857Y-16986952D01*
X9537857Y-16986952D02*
X9556905Y-16996476D01*
X9556905Y-16996476D02*
X9595000Y-16996476D01*
X9595000Y-16996476D02*
X9614048Y-16986952D01*
X9614048Y-16986952D02*
X9623571Y-16977429D01*
X9623571Y-16977429D02*
X9633095Y-16958381D01*
X9633095Y-16958381D02*
X9633095Y-16910762D01*
X9633095Y-16910762D02*
X9623571Y-16891714D01*
X9623571Y-16891714D02*
X9614048Y-16882190D01*
X9614048Y-16882190D02*
X9595000Y-16872667D01*
X9595000Y-16872667D02*
X9556905Y-16872667D01*
X9556905Y-16872667D02*
X9537857Y-16882190D01*
X9537857Y-16882190D02*
X9528333Y-16891714D01*
X9528333Y-16891714D02*
X9518810Y-16910762D01*
X9756905Y-16796476D02*
X9775952Y-16796476D01*
X9775952Y-16796476D02*
X9795000Y-16806000D01*
X9795000Y-16806000D02*
X9804524Y-16815524D01*
X9804524Y-16815524D02*
X9814048Y-16834571D01*
X9814048Y-16834571D02*
X9823571Y-16872667D01*
X9823571Y-16872667D02*
X9823571Y-16920286D01*
X9823571Y-16920286D02*
X9814048Y-16958381D01*
X9814048Y-16958381D02*
X9804524Y-16977429D01*
X9804524Y-16977429D02*
X9795000Y-16986952D01*
X9795000Y-16986952D02*
X9775952Y-16996476D01*
X9775952Y-16996476D02*
X9756905Y-16996476D01*
X9756905Y-16996476D02*
X9737857Y-16986952D01*
X9737857Y-16986952D02*
X9728333Y-16977429D01*
X9728333Y-16977429D02*
X9718810Y-16958381D01*
X9718810Y-16958381D02*
X9709286Y-16920286D01*
X9709286Y-16920286D02*
X9709286Y-16872667D01*
X9709286Y-16872667D02*
X9718810Y-16834571D01*
X9718810Y-16834571D02*
X9728333Y-16815524D01*
X9728333Y-16815524D02*
X9737857Y-16806000D01*
X9737857Y-16806000D02*
X9756905Y-16796476D01*
X9947381Y-16796476D02*
X9966429Y-16796476D01*
X9966429Y-16796476D02*
X9985476Y-16806000D01*
X9985476Y-16806000D02*
X9995000Y-16815524D01*
X9995000Y-16815524D02*
X10004524Y-16834571D01*
X10004524Y-16834571D02*
X10014048Y-16872667D01*
X10014048Y-16872667D02*
X10014048Y-16920286D01*
X10014048Y-16920286D02*
X10004524Y-16958381D01*
X10004524Y-16958381D02*
X9995000Y-16977429D01*
X9995000Y-16977429D02*
X9985476Y-16986952D01*
X9985476Y-16986952D02*
X9966429Y-16996476D01*
X9966429Y-16996476D02*
X9947381Y-16996476D01*
X9947381Y-16996476D02*
X9928333Y-16986952D01*
X9928333Y-16986952D02*
X9918810Y-16977429D01*
X9918810Y-16977429D02*
X9909286Y-16958381D01*
X9909286Y-16958381D02*
X9899762Y-16920286D01*
X9899762Y-16920286D02*
X9899762Y-16872667D01*
X9899762Y-16872667D02*
X9909286Y-16834571D01*
X9909286Y-16834571D02*
X9918810Y-16815524D01*
X9918810Y-16815524D02*
X9928333Y-16806000D01*
X9928333Y-16806000D02*
X9947381Y-16796476D01*
X10099762Y-16996476D02*
X10099762Y-16863143D01*
X10099762Y-16882190D02*
X10109286Y-16872667D01*
X10109286Y-16872667D02*
X10128333Y-16863143D01*
X10128333Y-16863143D02*
X10156905Y-16863143D01*
X10156905Y-16863143D02*
X10175952Y-16872667D01*
X10175952Y-16872667D02*
X10185476Y-16891714D01*
X10185476Y-16891714D02*
X10185476Y-16996476D01*
X10185476Y-16891714D02*
X10195000Y-16872667D01*
X10195000Y-16872667D02*
X10214048Y-16863143D01*
X10214048Y-16863143D02*
X10242619Y-16863143D01*
X10242619Y-16863143D02*
X10261667Y-16872667D01*
X10261667Y-16872667D02*
X10271191Y-16891714D01*
X10271191Y-16891714D02*
X10271191Y-16996476D01*
X10366429Y-16996476D02*
X10366429Y-16863143D01*
X10366429Y-16882190D02*
X10375952Y-16872667D01*
X10375952Y-16872667D02*
X10395000Y-16863143D01*
X10395000Y-16863143D02*
X10423572Y-16863143D01*
X10423572Y-16863143D02*
X10442619Y-16872667D01*
X10442619Y-16872667D02*
X10452143Y-16891714D01*
X10452143Y-16891714D02*
X10452143Y-16996476D01*
X10452143Y-16891714D02*
X10461667Y-16872667D01*
X10461667Y-16872667D02*
X10480714Y-16863143D01*
X10480714Y-16863143D02*
X10509286Y-16863143D01*
X10509286Y-16863143D02*
X10528333Y-16872667D01*
X10528333Y-16872667D02*
X10537857Y-16891714D01*
X10537857Y-16891714D02*
X10537857Y-16996476D01*
X10895952Y-16786952D02*
X10724524Y-17044095D01*
X11120714Y-16796476D02*
X11139762Y-16796476D01*
X11139762Y-16796476D02*
X11158810Y-16806000D01*
X11158810Y-16806000D02*
X11168333Y-16815524D01*
X11168333Y-16815524D02*
X11177857Y-16834571D01*
X11177857Y-16834571D02*
X11187381Y-16872667D01*
X11187381Y-16872667D02*
X11187381Y-16920286D01*
X11187381Y-16920286D02*
X11177857Y-16958381D01*
X11177857Y-16958381D02*
X11168333Y-16977429D01*
X11168333Y-16977429D02*
X11158810Y-16986952D01*
X11158810Y-16986952D02*
X11139762Y-16996476D01*
X11139762Y-16996476D02*
X11120714Y-16996476D01*
X11120714Y-16996476D02*
X11101667Y-16986952D01*
X11101667Y-16986952D02*
X11092143Y-16977429D01*
X11092143Y-16977429D02*
X11082619Y-16958381D01*
X11082619Y-16958381D02*
X11073095Y-16920286D01*
X11073095Y-16920286D02*
X11073095Y-16872667D01*
X11073095Y-16872667D02*
X11082619Y-16834571D01*
X11082619Y-16834571D02*
X11092143Y-16815524D01*
X11092143Y-16815524D02*
X11101667Y-16806000D01*
X11101667Y-16806000D02*
X11120714Y-16796476D01*
X11273095Y-16977429D02*
X11282619Y-16986952D01*
X11282619Y-16986952D02*
X11273095Y-16996476D01*
X11273095Y-16996476D02*
X11263571Y-16986952D01*
X11263571Y-16986952D02*
X11273095Y-16977429D01*
X11273095Y-16977429D02*
X11273095Y-16996476D01*
X11406429Y-16796476D02*
X11425476Y-16796476D01*
X11425476Y-16796476D02*
X11444524Y-16806000D01*
X11444524Y-16806000D02*
X11454048Y-16815524D01*
X11454048Y-16815524D02*
X11463571Y-16834571D01*
X11463571Y-16834571D02*
X11473095Y-16872667D01*
X11473095Y-16872667D02*
X11473095Y-16920286D01*
X11473095Y-16920286D02*
X11463571Y-16958381D01*
X11463571Y-16958381D02*
X11454048Y-16977429D01*
X11454048Y-16977429D02*
X11444524Y-16986952D01*
X11444524Y-16986952D02*
X11425476Y-16996476D01*
X11425476Y-16996476D02*
X11406429Y-16996476D01*
X11406429Y-16996476D02*
X11387381Y-16986952D01*
X11387381Y-16986952D02*
X11377857Y-16977429D01*
X11377857Y-16977429D02*
X11368333Y-16958381D01*
X11368333Y-16958381D02*
X11358810Y-16920286D01*
X11358810Y-16920286D02*
X11358810Y-16872667D01*
X11358810Y-16872667D02*
X11368333Y-16834571D01*
X11368333Y-16834571D02*
X11377857Y-16815524D01*
X11377857Y-16815524D02*
X11387381Y-16806000D01*
X11387381Y-16806000D02*
X11406429Y-16796476D01*
X11549286Y-16815524D02*
X11558810Y-16806000D01*
X11558810Y-16806000D02*
X11577857Y-16796476D01*
X11577857Y-16796476D02*
X11625476Y-16796476D01*
X11625476Y-16796476D02*
X11644524Y-16806000D01*
X11644524Y-16806000D02*
X11654048Y-16815524D01*
X11654048Y-16815524D02*
X11663571Y-16834571D01*
X11663571Y-16834571D02*
X11663571Y-16853619D01*
X11663571Y-16853619D02*
X11654048Y-16882190D01*
X11654048Y-16882190D02*
X11539762Y-16996476D01*
X11539762Y-16996476D02*
X11663571Y-16996476D01*
X11730238Y-16796476D02*
X11854048Y-16796476D01*
X11854048Y-16796476D02*
X11787381Y-16872667D01*
X11787381Y-16872667D02*
X11815952Y-16872667D01*
X11815952Y-16872667D02*
X11835000Y-16882190D01*
X11835000Y-16882190D02*
X11844524Y-16891714D01*
X11844524Y-16891714D02*
X11854048Y-16910762D01*
X11854048Y-16910762D02*
X11854048Y-16958381D01*
X11854048Y-16958381D02*
X11844524Y-16977429D01*
X11844524Y-16977429D02*
X11835000Y-16986952D01*
X11835000Y-16986952D02*
X11815952Y-16996476D01*
X11815952Y-16996476D02*
X11758810Y-16996476D01*
X11758810Y-16996476D02*
X11739762Y-16986952D01*
X11739762Y-16986952D02*
X11730238Y-16977429D01*
X12025476Y-16796476D02*
X11987381Y-16796476D01*
X11987381Y-16796476D02*
X11968333Y-16806000D01*
X11968333Y-16806000D02*
X11958810Y-16815524D01*
X11958810Y-16815524D02*
X11939762Y-16844095D01*
X11939762Y-16844095D02*
X11930238Y-16882190D01*
X11930238Y-16882190D02*
X11930238Y-16958381D01*
X11930238Y-16958381D02*
X11939762Y-16977429D01*
X11939762Y-16977429D02*
X11949286Y-16986952D01*
X11949286Y-16986952D02*
X11968333Y-16996476D01*
X11968333Y-16996476D02*
X12006429Y-16996476D01*
X12006429Y-16996476D02*
X12025476Y-16986952D01*
X12025476Y-16986952D02*
X12035000Y-16977429D01*
X12035000Y-16977429D02*
X12044524Y-16958381D01*
X12044524Y-16958381D02*
X12044524Y-16910762D01*
X12044524Y-16910762D02*
X12035000Y-16891714D01*
X12035000Y-16891714D02*
X12025476Y-16882190D01*
X12025476Y-16882190D02*
X12006429Y-16872667D01*
X12006429Y-16872667D02*
X11968333Y-16872667D01*
X11968333Y-16872667D02*
X11949286Y-16882190D01*
X11949286Y-16882190D02*
X11939762Y-16891714D01*
X11939762Y-16891714D02*
X11930238Y-16910762D01*
X12120714Y-16796476D02*
X12120714Y-16834571D01*
X12196905Y-16796476D02*
X12196905Y-16834571D01*
X12459762Y-17072667D02*
X12450238Y-17063143D01*
X12450238Y-17063143D02*
X12431191Y-17034571D01*
X12431191Y-17034571D02*
X12421667Y-17015524D01*
X12421667Y-17015524D02*
X12412143Y-16986952D01*
X12412143Y-16986952D02*
X12402619Y-16939333D01*
X12402619Y-16939333D02*
X12402619Y-16901238D01*
X12402619Y-16901238D02*
X12412143Y-16853619D01*
X12412143Y-16853619D02*
X12421667Y-16825048D01*
X12421667Y-16825048D02*
X12431191Y-16806000D01*
X12431191Y-16806000D02*
X12450238Y-16777429D01*
X12450238Y-16777429D02*
X12459762Y-16767905D01*
X12574048Y-16796476D02*
X12593095Y-16796476D01*
X12593095Y-16796476D02*
X12612143Y-16806000D01*
X12612143Y-16806000D02*
X12621667Y-16815524D01*
X12621667Y-16815524D02*
X12631191Y-16834571D01*
X12631191Y-16834571D02*
X12640714Y-16872667D01*
X12640714Y-16872667D02*
X12640714Y-16920286D01*
X12640714Y-16920286D02*
X12631191Y-16958381D01*
X12631191Y-16958381D02*
X12621667Y-16977429D01*
X12621667Y-16977429D02*
X12612143Y-16986952D01*
X12612143Y-16986952D02*
X12593095Y-16996476D01*
X12593095Y-16996476D02*
X12574048Y-16996476D01*
X12574048Y-16996476D02*
X12555000Y-16986952D01*
X12555000Y-16986952D02*
X12545476Y-16977429D01*
X12545476Y-16977429D02*
X12535952Y-16958381D01*
X12535952Y-16958381D02*
X12526429Y-16920286D01*
X12526429Y-16920286D02*
X12526429Y-16872667D01*
X12526429Y-16872667D02*
X12535952Y-16834571D01*
X12535952Y-16834571D02*
X12545476Y-16815524D01*
X12545476Y-16815524D02*
X12555000Y-16806000D01*
X12555000Y-16806000D02*
X12574048Y-16796476D01*
X12846429Y-16996476D02*
X12846429Y-16796476D01*
X12932143Y-16996476D02*
X12932143Y-16891714D01*
X12932143Y-16891714D02*
X12922619Y-16872667D01*
X12922619Y-16872667D02*
X12903572Y-16863143D01*
X12903572Y-16863143D02*
X12875000Y-16863143D01*
X12875000Y-16863143D02*
X12855952Y-16872667D01*
X12855952Y-16872667D02*
X12846429Y-16882190D01*
X13055952Y-16996476D02*
X13036905Y-16986952D01*
X13036905Y-16986952D02*
X13027381Y-16977429D01*
X13027381Y-16977429D02*
X13017857Y-16958381D01*
X13017857Y-16958381D02*
X13017857Y-16901238D01*
X13017857Y-16901238D02*
X13027381Y-16882190D01*
X13027381Y-16882190D02*
X13036905Y-16872667D01*
X13036905Y-16872667D02*
X13055952Y-16863143D01*
X13055952Y-16863143D02*
X13084524Y-16863143D01*
X13084524Y-16863143D02*
X13103572Y-16872667D01*
X13103572Y-16872667D02*
X13113095Y-16882190D01*
X13113095Y-16882190D02*
X13122619Y-16901238D01*
X13122619Y-16901238D02*
X13122619Y-16958381D01*
X13122619Y-16958381D02*
X13113095Y-16977429D01*
X13113095Y-16977429D02*
X13103572Y-16986952D01*
X13103572Y-16986952D02*
X13084524Y-16996476D01*
X13084524Y-16996476D02*
X13055952Y-16996476D01*
X13236905Y-16996476D02*
X13217857Y-16986952D01*
X13217857Y-16986952D02*
X13208333Y-16967905D01*
X13208333Y-16967905D02*
X13208333Y-16796476D01*
X13389286Y-16986952D02*
X13370238Y-16996476D01*
X13370238Y-16996476D02*
X13332143Y-16996476D01*
X13332143Y-16996476D02*
X13313095Y-16986952D01*
X13313095Y-16986952D02*
X13303572Y-16967905D01*
X13303572Y-16967905D02*
X13303572Y-16891714D01*
X13303572Y-16891714D02*
X13313095Y-16872667D01*
X13313095Y-16872667D02*
X13332143Y-16863143D01*
X13332143Y-16863143D02*
X13370238Y-16863143D01*
X13370238Y-16863143D02*
X13389286Y-16872667D01*
X13389286Y-16872667D02*
X13398810Y-16891714D01*
X13398810Y-16891714D02*
X13398810Y-16910762D01*
X13398810Y-16910762D02*
X13303572Y-16929810D01*
X13475000Y-16986952D02*
X13494048Y-16996476D01*
X13494048Y-16996476D02*
X13532143Y-16996476D01*
X13532143Y-16996476D02*
X13551191Y-16986952D01*
X13551191Y-16986952D02*
X13560714Y-16967905D01*
X13560714Y-16967905D02*
X13560714Y-16958381D01*
X13560714Y-16958381D02*
X13551191Y-16939333D01*
X13551191Y-16939333D02*
X13532143Y-16929810D01*
X13532143Y-16929810D02*
X13503572Y-16929810D01*
X13503572Y-16929810D02*
X13484524Y-16920286D01*
X13484524Y-16920286D02*
X13475000Y-16901238D01*
X13475000Y-16901238D02*
X13475000Y-16891714D01*
X13475000Y-16891714D02*
X13484524Y-16872667D01*
X13484524Y-16872667D02*
X13503572Y-16863143D01*
X13503572Y-16863143D02*
X13532143Y-16863143D01*
X13532143Y-16863143D02*
X13551191Y-16872667D01*
X13766429Y-16920286D02*
X13918810Y-16920286D01*
X13842619Y-16996476D02*
X13842619Y-16844095D01*
X14219762Y-16863143D02*
X14219762Y-16996476D01*
X14172143Y-16786952D02*
X14124524Y-16929810D01*
X14124524Y-16929810D02*
X14248333Y-16929810D01*
X14435000Y-16986952D02*
X14454048Y-16996476D01*
X14454048Y-16996476D02*
X14492143Y-16996476D01*
X14492143Y-16996476D02*
X14511191Y-16986952D01*
X14511191Y-16986952D02*
X14520714Y-16967905D01*
X14520714Y-16967905D02*
X14520714Y-16958381D01*
X14520714Y-16958381D02*
X14511191Y-16939333D01*
X14511191Y-16939333D02*
X14492143Y-16929810D01*
X14492143Y-16929810D02*
X14463572Y-16929810D01*
X14463572Y-16929810D02*
X14444524Y-16920286D01*
X14444524Y-16920286D02*
X14435000Y-16901238D01*
X14435000Y-16901238D02*
X14435000Y-16891714D01*
X14435000Y-16891714D02*
X14444524Y-16872667D01*
X14444524Y-16872667D02*
X14463572Y-16863143D01*
X14463572Y-16863143D02*
X14492143Y-16863143D01*
X14492143Y-16863143D02*
X14511191Y-16872667D01*
X14635000Y-16996476D02*
X14615953Y-16986952D01*
X14615953Y-16986952D02*
X14606429Y-16967905D01*
X14606429Y-16967905D02*
X14606429Y-16796476D01*
X14739762Y-16996476D02*
X14720714Y-16986952D01*
X14720714Y-16986952D02*
X14711191Y-16977429D01*
X14711191Y-16977429D02*
X14701667Y-16958381D01*
X14701667Y-16958381D02*
X14701667Y-16901238D01*
X14701667Y-16901238D02*
X14711191Y-16882190D01*
X14711191Y-16882190D02*
X14720714Y-16872667D01*
X14720714Y-16872667D02*
X14739762Y-16863143D01*
X14739762Y-16863143D02*
X14768334Y-16863143D01*
X14768334Y-16863143D02*
X14787381Y-16872667D01*
X14787381Y-16872667D02*
X14796905Y-16882190D01*
X14796905Y-16882190D02*
X14806429Y-16901238D01*
X14806429Y-16901238D02*
X14806429Y-16958381D01*
X14806429Y-16958381D02*
X14796905Y-16977429D01*
X14796905Y-16977429D02*
X14787381Y-16986952D01*
X14787381Y-16986952D02*
X14768334Y-16996476D01*
X14768334Y-16996476D02*
X14739762Y-16996476D01*
X14863572Y-16863143D02*
X14939762Y-16863143D01*
X14892143Y-16796476D02*
X14892143Y-16967905D01*
X14892143Y-16967905D02*
X14901667Y-16986952D01*
X14901667Y-16986952D02*
X14920714Y-16996476D01*
X14920714Y-16996476D02*
X14939762Y-16996476D01*
X14996905Y-16986952D02*
X15015953Y-16996476D01*
X15015953Y-16996476D02*
X15054048Y-16996476D01*
X15054048Y-16996476D02*
X15073095Y-16986952D01*
X15073095Y-16986952D02*
X15082619Y-16967905D01*
X15082619Y-16967905D02*
X15082619Y-16958381D01*
X15082619Y-16958381D02*
X15073095Y-16939333D01*
X15073095Y-16939333D02*
X15054048Y-16929810D01*
X15054048Y-16929810D02*
X15025476Y-16929810D01*
X15025476Y-16929810D02*
X15006429Y-16920286D01*
X15006429Y-16920286D02*
X14996905Y-16901238D01*
X14996905Y-16901238D02*
X14996905Y-16891714D01*
X14996905Y-16891714D02*
X15006429Y-16872667D01*
X15006429Y-16872667D02*
X15025476Y-16863143D01*
X15025476Y-16863143D02*
X15054048Y-16863143D01*
X15054048Y-16863143D02*
X15073095Y-16872667D01*
X15149286Y-17072667D02*
X15158810Y-17063143D01*
X15158810Y-17063143D02*
X15177857Y-17034571D01*
X15177857Y-17034571D02*
X15187381Y-17015524D01*
X15187381Y-17015524D02*
X15196905Y-16986952D01*
X15196905Y-16986952D02*
X15206429Y-16939333D01*
X15206429Y-16939333D02*
X15206429Y-16901238D01*
X15206429Y-16901238D02*
X15196905Y-16853619D01*
X15196905Y-16853619D02*
X15187381Y-16825048D01*
X15187381Y-16825048D02*
X15177857Y-16806000D01*
X15177857Y-16806000D02*
X15158810Y-16777429D01*
X15158810Y-16777429D02*
X15149286Y-16767905D01*
D15*
X8983841Y-17213941D02*
X8983841Y-17160059D01*
X8929959Y-17160059D01*
X8929959Y-17213941D01*
X8983841Y-17213941D01*
D11*
X9280714Y-17060476D02*
X9299762Y-17060476D01*
X9299762Y-17060476D02*
X9318810Y-17070000D01*
X9318810Y-17070000D02*
X9328333Y-17079524D01*
X9328333Y-17079524D02*
X9337857Y-17098571D01*
X9337857Y-17098571D02*
X9347381Y-17136667D01*
X9347381Y-17136667D02*
X9347381Y-17184286D01*
X9347381Y-17184286D02*
X9337857Y-17222381D01*
X9337857Y-17222381D02*
X9328333Y-17241429D01*
X9328333Y-17241429D02*
X9318810Y-17250952D01*
X9318810Y-17250952D02*
X9299762Y-17260476D01*
X9299762Y-17260476D02*
X9280714Y-17260476D01*
X9280714Y-17260476D02*
X9261667Y-17250952D01*
X9261667Y-17250952D02*
X9252143Y-17241429D01*
X9252143Y-17241429D02*
X9242619Y-17222381D01*
X9242619Y-17222381D02*
X9233095Y-17184286D01*
X9233095Y-17184286D02*
X9233095Y-17136667D01*
X9233095Y-17136667D02*
X9242619Y-17098571D01*
X9242619Y-17098571D02*
X9252143Y-17079524D01*
X9252143Y-17079524D02*
X9261667Y-17070000D01*
X9261667Y-17070000D02*
X9280714Y-17060476D01*
X9433095Y-17241429D02*
X9442619Y-17250952D01*
X9442619Y-17250952D02*
X9433095Y-17260476D01*
X9433095Y-17260476D02*
X9423571Y-17250952D01*
X9423571Y-17250952D02*
X9433095Y-17241429D01*
X9433095Y-17241429D02*
X9433095Y-17260476D01*
X9509286Y-17060476D02*
X9642619Y-17060476D01*
X9642619Y-17060476D02*
X9556905Y-17260476D01*
X9804524Y-17060476D02*
X9766429Y-17060476D01*
X9766429Y-17060476D02*
X9747381Y-17070000D01*
X9747381Y-17070000D02*
X9737857Y-17079524D01*
X9737857Y-17079524D02*
X9718810Y-17108095D01*
X9718810Y-17108095D02*
X9709286Y-17146190D01*
X9709286Y-17146190D02*
X9709286Y-17222381D01*
X9709286Y-17222381D02*
X9718810Y-17241429D01*
X9718810Y-17241429D02*
X9728333Y-17250952D01*
X9728333Y-17250952D02*
X9747381Y-17260476D01*
X9747381Y-17260476D02*
X9785476Y-17260476D01*
X9785476Y-17260476D02*
X9804524Y-17250952D01*
X9804524Y-17250952D02*
X9814048Y-17241429D01*
X9814048Y-17241429D02*
X9823571Y-17222381D01*
X9823571Y-17222381D02*
X9823571Y-17174762D01*
X9823571Y-17174762D02*
X9814048Y-17155714D01*
X9814048Y-17155714D02*
X9804524Y-17146190D01*
X9804524Y-17146190D02*
X9785476Y-17136667D01*
X9785476Y-17136667D02*
X9747381Y-17136667D01*
X9747381Y-17136667D02*
X9728333Y-17146190D01*
X9728333Y-17146190D02*
X9718810Y-17155714D01*
X9718810Y-17155714D02*
X9709286Y-17174762D01*
X9899762Y-17079524D02*
X9909286Y-17070000D01*
X9909286Y-17070000D02*
X9928333Y-17060476D01*
X9928333Y-17060476D02*
X9975952Y-17060476D01*
X9975952Y-17060476D02*
X9995000Y-17070000D01*
X9995000Y-17070000D02*
X10004524Y-17079524D01*
X10004524Y-17079524D02*
X10014048Y-17098571D01*
X10014048Y-17098571D02*
X10014048Y-17117619D01*
X10014048Y-17117619D02*
X10004524Y-17146190D01*
X10004524Y-17146190D02*
X9890238Y-17260476D01*
X9890238Y-17260476D02*
X10014048Y-17260476D01*
X10099762Y-17260476D02*
X10099762Y-17127143D01*
X10099762Y-17146190D02*
X10109286Y-17136667D01*
X10109286Y-17136667D02*
X10128333Y-17127143D01*
X10128333Y-17127143D02*
X10156905Y-17127143D01*
X10156905Y-17127143D02*
X10175952Y-17136667D01*
X10175952Y-17136667D02*
X10185476Y-17155714D01*
X10185476Y-17155714D02*
X10185476Y-17260476D01*
X10185476Y-17155714D02*
X10195000Y-17136667D01*
X10195000Y-17136667D02*
X10214048Y-17127143D01*
X10214048Y-17127143D02*
X10242619Y-17127143D01*
X10242619Y-17127143D02*
X10261667Y-17136667D01*
X10261667Y-17136667D02*
X10271191Y-17155714D01*
X10271191Y-17155714D02*
X10271191Y-17260476D01*
X10366429Y-17260476D02*
X10366429Y-17127143D01*
X10366429Y-17146190D02*
X10375952Y-17136667D01*
X10375952Y-17136667D02*
X10395000Y-17127143D01*
X10395000Y-17127143D02*
X10423572Y-17127143D01*
X10423572Y-17127143D02*
X10442619Y-17136667D01*
X10442619Y-17136667D02*
X10452143Y-17155714D01*
X10452143Y-17155714D02*
X10452143Y-17260476D01*
X10452143Y-17155714D02*
X10461667Y-17136667D01*
X10461667Y-17136667D02*
X10480714Y-17127143D01*
X10480714Y-17127143D02*
X10509286Y-17127143D01*
X10509286Y-17127143D02*
X10528333Y-17136667D01*
X10528333Y-17136667D02*
X10537857Y-17155714D01*
X10537857Y-17155714D02*
X10537857Y-17260476D01*
X10895952Y-17050952D02*
X10724524Y-17308095D01*
X11120714Y-17060476D02*
X11139762Y-17060476D01*
X11139762Y-17060476D02*
X11158810Y-17070000D01*
X11158810Y-17070000D02*
X11168333Y-17079524D01*
X11168333Y-17079524D02*
X11177857Y-17098571D01*
X11177857Y-17098571D02*
X11187381Y-17136667D01*
X11187381Y-17136667D02*
X11187381Y-17184286D01*
X11187381Y-17184286D02*
X11177857Y-17222381D01*
X11177857Y-17222381D02*
X11168333Y-17241429D01*
X11168333Y-17241429D02*
X11158810Y-17250952D01*
X11158810Y-17250952D02*
X11139762Y-17260476D01*
X11139762Y-17260476D02*
X11120714Y-17260476D01*
X11120714Y-17260476D02*
X11101667Y-17250952D01*
X11101667Y-17250952D02*
X11092143Y-17241429D01*
X11092143Y-17241429D02*
X11082619Y-17222381D01*
X11082619Y-17222381D02*
X11073095Y-17184286D01*
X11073095Y-17184286D02*
X11073095Y-17136667D01*
X11073095Y-17136667D02*
X11082619Y-17098571D01*
X11082619Y-17098571D02*
X11092143Y-17079524D01*
X11092143Y-17079524D02*
X11101667Y-17070000D01*
X11101667Y-17070000D02*
X11120714Y-17060476D01*
X11273095Y-17241429D02*
X11282619Y-17250952D01*
X11282619Y-17250952D02*
X11273095Y-17260476D01*
X11273095Y-17260476D02*
X11263571Y-17250952D01*
X11263571Y-17250952D02*
X11273095Y-17241429D01*
X11273095Y-17241429D02*
X11273095Y-17260476D01*
X11406429Y-17060476D02*
X11425476Y-17060476D01*
X11425476Y-17060476D02*
X11444524Y-17070000D01*
X11444524Y-17070000D02*
X11454048Y-17079524D01*
X11454048Y-17079524D02*
X11463571Y-17098571D01*
X11463571Y-17098571D02*
X11473095Y-17136667D01*
X11473095Y-17136667D02*
X11473095Y-17184286D01*
X11473095Y-17184286D02*
X11463571Y-17222381D01*
X11463571Y-17222381D02*
X11454048Y-17241429D01*
X11454048Y-17241429D02*
X11444524Y-17250952D01*
X11444524Y-17250952D02*
X11425476Y-17260476D01*
X11425476Y-17260476D02*
X11406429Y-17260476D01*
X11406429Y-17260476D02*
X11387381Y-17250952D01*
X11387381Y-17250952D02*
X11377857Y-17241429D01*
X11377857Y-17241429D02*
X11368333Y-17222381D01*
X11368333Y-17222381D02*
X11358810Y-17184286D01*
X11358810Y-17184286D02*
X11358810Y-17136667D01*
X11358810Y-17136667D02*
X11368333Y-17098571D01*
X11368333Y-17098571D02*
X11377857Y-17079524D01*
X11377857Y-17079524D02*
X11387381Y-17070000D01*
X11387381Y-17070000D02*
X11406429Y-17060476D01*
X11539762Y-17060476D02*
X11663571Y-17060476D01*
X11663571Y-17060476D02*
X11596905Y-17136667D01*
X11596905Y-17136667D02*
X11625476Y-17136667D01*
X11625476Y-17136667D02*
X11644524Y-17146190D01*
X11644524Y-17146190D02*
X11654048Y-17155714D01*
X11654048Y-17155714D02*
X11663571Y-17174762D01*
X11663571Y-17174762D02*
X11663571Y-17222381D01*
X11663571Y-17222381D02*
X11654048Y-17241429D01*
X11654048Y-17241429D02*
X11644524Y-17250952D01*
X11644524Y-17250952D02*
X11625476Y-17260476D01*
X11625476Y-17260476D02*
X11568333Y-17260476D01*
X11568333Y-17260476D02*
X11549286Y-17250952D01*
X11549286Y-17250952D02*
X11539762Y-17241429D01*
X11787381Y-17060476D02*
X11806429Y-17060476D01*
X11806429Y-17060476D02*
X11825476Y-17070000D01*
X11825476Y-17070000D02*
X11835000Y-17079524D01*
X11835000Y-17079524D02*
X11844524Y-17098571D01*
X11844524Y-17098571D02*
X11854048Y-17136667D01*
X11854048Y-17136667D02*
X11854048Y-17184286D01*
X11854048Y-17184286D02*
X11844524Y-17222381D01*
X11844524Y-17222381D02*
X11835000Y-17241429D01*
X11835000Y-17241429D02*
X11825476Y-17250952D01*
X11825476Y-17250952D02*
X11806429Y-17260476D01*
X11806429Y-17260476D02*
X11787381Y-17260476D01*
X11787381Y-17260476D02*
X11768333Y-17250952D01*
X11768333Y-17250952D02*
X11758810Y-17241429D01*
X11758810Y-17241429D02*
X11749286Y-17222381D01*
X11749286Y-17222381D02*
X11739762Y-17184286D01*
X11739762Y-17184286D02*
X11739762Y-17136667D01*
X11739762Y-17136667D02*
X11749286Y-17098571D01*
X11749286Y-17098571D02*
X11758810Y-17079524D01*
X11758810Y-17079524D02*
X11768333Y-17070000D01*
X11768333Y-17070000D02*
X11787381Y-17060476D01*
X11977857Y-17060476D02*
X11996905Y-17060476D01*
X11996905Y-17060476D02*
X12015952Y-17070000D01*
X12015952Y-17070000D02*
X12025476Y-17079524D01*
X12025476Y-17079524D02*
X12035000Y-17098571D01*
X12035000Y-17098571D02*
X12044524Y-17136667D01*
X12044524Y-17136667D02*
X12044524Y-17184286D01*
X12044524Y-17184286D02*
X12035000Y-17222381D01*
X12035000Y-17222381D02*
X12025476Y-17241429D01*
X12025476Y-17241429D02*
X12015952Y-17250952D01*
X12015952Y-17250952D02*
X11996905Y-17260476D01*
X11996905Y-17260476D02*
X11977857Y-17260476D01*
X11977857Y-17260476D02*
X11958810Y-17250952D01*
X11958810Y-17250952D02*
X11949286Y-17241429D01*
X11949286Y-17241429D02*
X11939762Y-17222381D01*
X11939762Y-17222381D02*
X11930238Y-17184286D01*
X11930238Y-17184286D02*
X11930238Y-17136667D01*
X11930238Y-17136667D02*
X11939762Y-17098571D01*
X11939762Y-17098571D02*
X11949286Y-17079524D01*
X11949286Y-17079524D02*
X11958810Y-17070000D01*
X11958810Y-17070000D02*
X11977857Y-17060476D01*
X12120714Y-17060476D02*
X12120714Y-17098571D01*
X12196905Y-17060476D02*
X12196905Y-17098571D01*
X12459762Y-17336667D02*
X12450238Y-17327143D01*
X12450238Y-17327143D02*
X12431191Y-17298571D01*
X12431191Y-17298571D02*
X12421667Y-17279524D01*
X12421667Y-17279524D02*
X12412143Y-17250952D01*
X12412143Y-17250952D02*
X12402619Y-17203333D01*
X12402619Y-17203333D02*
X12402619Y-17165238D01*
X12402619Y-17165238D02*
X12412143Y-17117619D01*
X12412143Y-17117619D02*
X12421667Y-17089048D01*
X12421667Y-17089048D02*
X12431191Y-17070000D01*
X12431191Y-17070000D02*
X12450238Y-17041429D01*
X12450238Y-17041429D02*
X12459762Y-17031905D01*
X12621667Y-17060476D02*
X12583571Y-17060476D01*
X12583571Y-17060476D02*
X12564524Y-17070000D01*
X12564524Y-17070000D02*
X12555000Y-17079524D01*
X12555000Y-17079524D02*
X12535952Y-17108095D01*
X12535952Y-17108095D02*
X12526429Y-17146190D01*
X12526429Y-17146190D02*
X12526429Y-17222381D01*
X12526429Y-17222381D02*
X12535952Y-17241429D01*
X12535952Y-17241429D02*
X12545476Y-17250952D01*
X12545476Y-17250952D02*
X12564524Y-17260476D01*
X12564524Y-17260476D02*
X12602619Y-17260476D01*
X12602619Y-17260476D02*
X12621667Y-17250952D01*
X12621667Y-17250952D02*
X12631191Y-17241429D01*
X12631191Y-17241429D02*
X12640714Y-17222381D01*
X12640714Y-17222381D02*
X12640714Y-17174762D01*
X12640714Y-17174762D02*
X12631191Y-17155714D01*
X12631191Y-17155714D02*
X12621667Y-17146190D01*
X12621667Y-17146190D02*
X12602619Y-17136667D01*
X12602619Y-17136667D02*
X12564524Y-17136667D01*
X12564524Y-17136667D02*
X12545476Y-17146190D01*
X12545476Y-17146190D02*
X12535952Y-17155714D01*
X12535952Y-17155714D02*
X12526429Y-17174762D01*
X12846429Y-17260476D02*
X12846429Y-17060476D01*
X12932143Y-17260476D02*
X12932143Y-17155714D01*
X12932143Y-17155714D02*
X12922619Y-17136667D01*
X12922619Y-17136667D02*
X12903572Y-17127143D01*
X12903572Y-17127143D02*
X12875000Y-17127143D01*
X12875000Y-17127143D02*
X12855952Y-17136667D01*
X12855952Y-17136667D02*
X12846429Y-17146190D01*
X13055952Y-17260476D02*
X13036905Y-17250952D01*
X13036905Y-17250952D02*
X13027381Y-17241429D01*
X13027381Y-17241429D02*
X13017857Y-17222381D01*
X13017857Y-17222381D02*
X13017857Y-17165238D01*
X13017857Y-17165238D02*
X13027381Y-17146190D01*
X13027381Y-17146190D02*
X13036905Y-17136667D01*
X13036905Y-17136667D02*
X13055952Y-17127143D01*
X13055952Y-17127143D02*
X13084524Y-17127143D01*
X13084524Y-17127143D02*
X13103572Y-17136667D01*
X13103572Y-17136667D02*
X13113095Y-17146190D01*
X13113095Y-17146190D02*
X13122619Y-17165238D01*
X13122619Y-17165238D02*
X13122619Y-17222381D01*
X13122619Y-17222381D02*
X13113095Y-17241429D01*
X13113095Y-17241429D02*
X13103572Y-17250952D01*
X13103572Y-17250952D02*
X13084524Y-17260476D01*
X13084524Y-17260476D02*
X13055952Y-17260476D01*
X13236905Y-17260476D02*
X13217857Y-17250952D01*
X13217857Y-17250952D02*
X13208333Y-17231905D01*
X13208333Y-17231905D02*
X13208333Y-17060476D01*
X13389286Y-17250952D02*
X13370238Y-17260476D01*
X13370238Y-17260476D02*
X13332143Y-17260476D01*
X13332143Y-17260476D02*
X13313095Y-17250952D01*
X13313095Y-17250952D02*
X13303572Y-17231905D01*
X13303572Y-17231905D02*
X13303572Y-17155714D01*
X13303572Y-17155714D02*
X13313095Y-17136667D01*
X13313095Y-17136667D02*
X13332143Y-17127143D01*
X13332143Y-17127143D02*
X13370238Y-17127143D01*
X13370238Y-17127143D02*
X13389286Y-17136667D01*
X13389286Y-17136667D02*
X13398810Y-17155714D01*
X13398810Y-17155714D02*
X13398810Y-17174762D01*
X13398810Y-17174762D02*
X13303572Y-17193810D01*
X13475000Y-17250952D02*
X13494048Y-17260476D01*
X13494048Y-17260476D02*
X13532143Y-17260476D01*
X13532143Y-17260476D02*
X13551191Y-17250952D01*
X13551191Y-17250952D02*
X13560714Y-17231905D01*
X13560714Y-17231905D02*
X13560714Y-17222381D01*
X13560714Y-17222381D02*
X13551191Y-17203333D01*
X13551191Y-17203333D02*
X13532143Y-17193810D01*
X13532143Y-17193810D02*
X13503572Y-17193810D01*
X13503572Y-17193810D02*
X13484524Y-17184286D01*
X13484524Y-17184286D02*
X13475000Y-17165238D01*
X13475000Y-17165238D02*
X13475000Y-17155714D01*
X13475000Y-17155714D02*
X13484524Y-17136667D01*
X13484524Y-17136667D02*
X13503572Y-17127143D01*
X13503572Y-17127143D02*
X13532143Y-17127143D01*
X13532143Y-17127143D02*
X13551191Y-17136667D01*
X13627381Y-17336667D02*
X13636905Y-17327143D01*
X13636905Y-17327143D02*
X13655953Y-17298571D01*
X13655953Y-17298571D02*
X13665476Y-17279524D01*
X13665476Y-17279524D02*
X13675000Y-17250952D01*
X13675000Y-17250952D02*
X13684524Y-17203333D01*
X13684524Y-17203333D02*
X13684524Y-17165238D01*
X13684524Y-17165238D02*
X13675000Y-17117619D01*
X13675000Y-17117619D02*
X13665476Y-17089048D01*
X13665476Y-17089048D02*
X13655953Y-17070000D01*
X13655953Y-17070000D02*
X13636905Y-17041429D01*
X13636905Y-17041429D02*
X13627381Y-17031905D01*
D10*
X8945000Y-17501000D02*
X8995000Y-17451000D01*
X8945000Y-17401000D01*
X8895000Y-17451000D01*
X8945000Y-17501000D01*
D11*
X9347381Y-17524476D02*
X9233095Y-17524476D01*
X9290238Y-17524476D02*
X9290238Y-17324476D01*
X9290238Y-17324476D02*
X9271190Y-17353048D01*
X9271190Y-17353048D02*
X9252143Y-17372095D01*
X9252143Y-17372095D02*
X9233095Y-17381619D01*
X9433095Y-17505429D02*
X9442619Y-17514952D01*
X9442619Y-17514952D02*
X9433095Y-17524476D01*
X9433095Y-17524476D02*
X9423571Y-17514952D01*
X9423571Y-17514952D02*
X9433095Y-17505429D01*
X9433095Y-17505429D02*
X9433095Y-17524476D01*
X9566429Y-17324476D02*
X9585476Y-17324476D01*
X9585476Y-17324476D02*
X9604524Y-17334000D01*
X9604524Y-17334000D02*
X9614048Y-17343524D01*
X9614048Y-17343524D02*
X9623571Y-17362571D01*
X9623571Y-17362571D02*
X9633095Y-17400667D01*
X9633095Y-17400667D02*
X9633095Y-17448286D01*
X9633095Y-17448286D02*
X9623571Y-17486381D01*
X9623571Y-17486381D02*
X9614048Y-17505429D01*
X9614048Y-17505429D02*
X9604524Y-17514952D01*
X9604524Y-17514952D02*
X9585476Y-17524476D01*
X9585476Y-17524476D02*
X9566429Y-17524476D01*
X9566429Y-17524476D02*
X9547381Y-17514952D01*
X9547381Y-17514952D02*
X9537857Y-17505429D01*
X9537857Y-17505429D02*
X9528333Y-17486381D01*
X9528333Y-17486381D02*
X9518810Y-17448286D01*
X9518810Y-17448286D02*
X9518810Y-17400667D01*
X9518810Y-17400667D02*
X9528333Y-17362571D01*
X9528333Y-17362571D02*
X9537857Y-17343524D01*
X9537857Y-17343524D02*
X9547381Y-17334000D01*
X9547381Y-17334000D02*
X9566429Y-17324476D01*
X9756905Y-17324476D02*
X9775952Y-17324476D01*
X9775952Y-17324476D02*
X9795000Y-17334000D01*
X9795000Y-17334000D02*
X9804524Y-17343524D01*
X9804524Y-17343524D02*
X9814048Y-17362571D01*
X9814048Y-17362571D02*
X9823571Y-17400667D01*
X9823571Y-17400667D02*
X9823571Y-17448286D01*
X9823571Y-17448286D02*
X9814048Y-17486381D01*
X9814048Y-17486381D02*
X9804524Y-17505429D01*
X9804524Y-17505429D02*
X9795000Y-17514952D01*
X9795000Y-17514952D02*
X9775952Y-17524476D01*
X9775952Y-17524476D02*
X9756905Y-17524476D01*
X9756905Y-17524476D02*
X9737857Y-17514952D01*
X9737857Y-17514952D02*
X9728333Y-17505429D01*
X9728333Y-17505429D02*
X9718810Y-17486381D01*
X9718810Y-17486381D02*
X9709286Y-17448286D01*
X9709286Y-17448286D02*
X9709286Y-17400667D01*
X9709286Y-17400667D02*
X9718810Y-17362571D01*
X9718810Y-17362571D02*
X9728333Y-17343524D01*
X9728333Y-17343524D02*
X9737857Y-17334000D01*
X9737857Y-17334000D02*
X9756905Y-17324476D01*
X9947381Y-17324476D02*
X9966429Y-17324476D01*
X9966429Y-17324476D02*
X9985476Y-17334000D01*
X9985476Y-17334000D02*
X9995000Y-17343524D01*
X9995000Y-17343524D02*
X10004524Y-17362571D01*
X10004524Y-17362571D02*
X10014048Y-17400667D01*
X10014048Y-17400667D02*
X10014048Y-17448286D01*
X10014048Y-17448286D02*
X10004524Y-17486381D01*
X10004524Y-17486381D02*
X9995000Y-17505429D01*
X9995000Y-17505429D02*
X9985476Y-17514952D01*
X9985476Y-17514952D02*
X9966429Y-17524476D01*
X9966429Y-17524476D02*
X9947381Y-17524476D01*
X9947381Y-17524476D02*
X9928333Y-17514952D01*
X9928333Y-17514952D02*
X9918810Y-17505429D01*
X9918810Y-17505429D02*
X9909286Y-17486381D01*
X9909286Y-17486381D02*
X9899762Y-17448286D01*
X9899762Y-17448286D02*
X9899762Y-17400667D01*
X9899762Y-17400667D02*
X9909286Y-17362571D01*
X9909286Y-17362571D02*
X9918810Y-17343524D01*
X9918810Y-17343524D02*
X9928333Y-17334000D01*
X9928333Y-17334000D02*
X9947381Y-17324476D01*
X10099762Y-17524476D02*
X10099762Y-17391143D01*
X10099762Y-17410190D02*
X10109286Y-17400667D01*
X10109286Y-17400667D02*
X10128333Y-17391143D01*
X10128333Y-17391143D02*
X10156905Y-17391143D01*
X10156905Y-17391143D02*
X10175952Y-17400667D01*
X10175952Y-17400667D02*
X10185476Y-17419714D01*
X10185476Y-17419714D02*
X10185476Y-17524476D01*
X10185476Y-17419714D02*
X10195000Y-17400667D01*
X10195000Y-17400667D02*
X10214048Y-17391143D01*
X10214048Y-17391143D02*
X10242619Y-17391143D01*
X10242619Y-17391143D02*
X10261667Y-17400667D01*
X10261667Y-17400667D02*
X10271191Y-17419714D01*
X10271191Y-17419714D02*
X10271191Y-17524476D01*
X10366429Y-17524476D02*
X10366429Y-17391143D01*
X10366429Y-17410190D02*
X10375952Y-17400667D01*
X10375952Y-17400667D02*
X10395000Y-17391143D01*
X10395000Y-17391143D02*
X10423572Y-17391143D01*
X10423572Y-17391143D02*
X10442619Y-17400667D01*
X10442619Y-17400667D02*
X10452143Y-17419714D01*
X10452143Y-17419714D02*
X10452143Y-17524476D01*
X10452143Y-17419714D02*
X10461667Y-17400667D01*
X10461667Y-17400667D02*
X10480714Y-17391143D01*
X10480714Y-17391143D02*
X10509286Y-17391143D01*
X10509286Y-17391143D02*
X10528333Y-17400667D01*
X10528333Y-17400667D02*
X10537857Y-17419714D01*
X10537857Y-17419714D02*
X10537857Y-17524476D01*
X10895952Y-17314952D02*
X10724524Y-17572095D01*
X11120714Y-17324476D02*
X11139762Y-17324476D01*
X11139762Y-17324476D02*
X11158810Y-17334000D01*
X11158810Y-17334000D02*
X11168333Y-17343524D01*
X11168333Y-17343524D02*
X11177857Y-17362571D01*
X11177857Y-17362571D02*
X11187381Y-17400667D01*
X11187381Y-17400667D02*
X11187381Y-17448286D01*
X11187381Y-17448286D02*
X11177857Y-17486381D01*
X11177857Y-17486381D02*
X11168333Y-17505429D01*
X11168333Y-17505429D02*
X11158810Y-17514952D01*
X11158810Y-17514952D02*
X11139762Y-17524476D01*
X11139762Y-17524476D02*
X11120714Y-17524476D01*
X11120714Y-17524476D02*
X11101667Y-17514952D01*
X11101667Y-17514952D02*
X11092143Y-17505429D01*
X11092143Y-17505429D02*
X11082619Y-17486381D01*
X11082619Y-17486381D02*
X11073095Y-17448286D01*
X11073095Y-17448286D02*
X11073095Y-17400667D01*
X11073095Y-17400667D02*
X11082619Y-17362571D01*
X11082619Y-17362571D02*
X11092143Y-17343524D01*
X11092143Y-17343524D02*
X11101667Y-17334000D01*
X11101667Y-17334000D02*
X11120714Y-17324476D01*
X11273095Y-17505429D02*
X11282619Y-17514952D01*
X11282619Y-17514952D02*
X11273095Y-17524476D01*
X11273095Y-17524476D02*
X11263571Y-17514952D01*
X11263571Y-17514952D02*
X11273095Y-17505429D01*
X11273095Y-17505429D02*
X11273095Y-17524476D01*
X11406429Y-17324476D02*
X11425476Y-17324476D01*
X11425476Y-17324476D02*
X11444524Y-17334000D01*
X11444524Y-17334000D02*
X11454048Y-17343524D01*
X11454048Y-17343524D02*
X11463571Y-17362571D01*
X11463571Y-17362571D02*
X11473095Y-17400667D01*
X11473095Y-17400667D02*
X11473095Y-17448286D01*
X11473095Y-17448286D02*
X11463571Y-17486381D01*
X11463571Y-17486381D02*
X11454048Y-17505429D01*
X11454048Y-17505429D02*
X11444524Y-17514952D01*
X11444524Y-17514952D02*
X11425476Y-17524476D01*
X11425476Y-17524476D02*
X11406429Y-17524476D01*
X11406429Y-17524476D02*
X11387381Y-17514952D01*
X11387381Y-17514952D02*
X11377857Y-17505429D01*
X11377857Y-17505429D02*
X11368333Y-17486381D01*
X11368333Y-17486381D02*
X11358810Y-17448286D01*
X11358810Y-17448286D02*
X11358810Y-17400667D01*
X11358810Y-17400667D02*
X11368333Y-17362571D01*
X11368333Y-17362571D02*
X11377857Y-17343524D01*
X11377857Y-17343524D02*
X11387381Y-17334000D01*
X11387381Y-17334000D02*
X11406429Y-17324476D01*
X11539762Y-17324476D02*
X11663571Y-17324476D01*
X11663571Y-17324476D02*
X11596905Y-17400667D01*
X11596905Y-17400667D02*
X11625476Y-17400667D01*
X11625476Y-17400667D02*
X11644524Y-17410190D01*
X11644524Y-17410190D02*
X11654048Y-17419714D01*
X11654048Y-17419714D02*
X11663571Y-17438762D01*
X11663571Y-17438762D02*
X11663571Y-17486381D01*
X11663571Y-17486381D02*
X11654048Y-17505429D01*
X11654048Y-17505429D02*
X11644524Y-17514952D01*
X11644524Y-17514952D02*
X11625476Y-17524476D01*
X11625476Y-17524476D02*
X11568333Y-17524476D01*
X11568333Y-17524476D02*
X11549286Y-17514952D01*
X11549286Y-17514952D02*
X11539762Y-17505429D01*
X11758810Y-17524476D02*
X11796905Y-17524476D01*
X11796905Y-17524476D02*
X11815952Y-17514952D01*
X11815952Y-17514952D02*
X11825476Y-17505429D01*
X11825476Y-17505429D02*
X11844524Y-17476857D01*
X11844524Y-17476857D02*
X11854048Y-17438762D01*
X11854048Y-17438762D02*
X11854048Y-17362571D01*
X11854048Y-17362571D02*
X11844524Y-17343524D01*
X11844524Y-17343524D02*
X11835000Y-17334000D01*
X11835000Y-17334000D02*
X11815952Y-17324476D01*
X11815952Y-17324476D02*
X11777857Y-17324476D01*
X11777857Y-17324476D02*
X11758810Y-17334000D01*
X11758810Y-17334000D02*
X11749286Y-17343524D01*
X11749286Y-17343524D02*
X11739762Y-17362571D01*
X11739762Y-17362571D02*
X11739762Y-17410190D01*
X11739762Y-17410190D02*
X11749286Y-17429238D01*
X11749286Y-17429238D02*
X11758810Y-17438762D01*
X11758810Y-17438762D02*
X11777857Y-17448286D01*
X11777857Y-17448286D02*
X11815952Y-17448286D01*
X11815952Y-17448286D02*
X11835000Y-17438762D01*
X11835000Y-17438762D02*
X11844524Y-17429238D01*
X11844524Y-17429238D02*
X11854048Y-17410190D01*
X12025476Y-17391143D02*
X12025476Y-17524476D01*
X11977857Y-17314952D02*
X11930238Y-17457810D01*
X11930238Y-17457810D02*
X12054048Y-17457810D01*
X12120714Y-17324476D02*
X12120714Y-17362571D01*
X12196905Y-17324476D02*
X12196905Y-17362571D01*
X12459762Y-17600667D02*
X12450238Y-17591143D01*
X12450238Y-17591143D02*
X12431191Y-17562571D01*
X12431191Y-17562571D02*
X12421667Y-17543524D01*
X12421667Y-17543524D02*
X12412143Y-17514952D01*
X12412143Y-17514952D02*
X12402619Y-17467333D01*
X12402619Y-17467333D02*
X12402619Y-17429238D01*
X12402619Y-17429238D02*
X12412143Y-17381619D01*
X12412143Y-17381619D02*
X12421667Y-17353048D01*
X12421667Y-17353048D02*
X12431191Y-17334000D01*
X12431191Y-17334000D02*
X12450238Y-17305429D01*
X12450238Y-17305429D02*
X12459762Y-17295905D01*
X12564524Y-17410190D02*
X12545476Y-17400667D01*
X12545476Y-17400667D02*
X12535952Y-17391143D01*
X12535952Y-17391143D02*
X12526429Y-17372095D01*
X12526429Y-17372095D02*
X12526429Y-17362571D01*
X12526429Y-17362571D02*
X12535952Y-17343524D01*
X12535952Y-17343524D02*
X12545476Y-17334000D01*
X12545476Y-17334000D02*
X12564524Y-17324476D01*
X12564524Y-17324476D02*
X12602619Y-17324476D01*
X12602619Y-17324476D02*
X12621667Y-17334000D01*
X12621667Y-17334000D02*
X12631191Y-17343524D01*
X12631191Y-17343524D02*
X12640714Y-17362571D01*
X12640714Y-17362571D02*
X12640714Y-17372095D01*
X12640714Y-17372095D02*
X12631191Y-17391143D01*
X12631191Y-17391143D02*
X12621667Y-17400667D01*
X12621667Y-17400667D02*
X12602619Y-17410190D01*
X12602619Y-17410190D02*
X12564524Y-17410190D01*
X12564524Y-17410190D02*
X12545476Y-17419714D01*
X12545476Y-17419714D02*
X12535952Y-17429238D01*
X12535952Y-17429238D02*
X12526429Y-17448286D01*
X12526429Y-17448286D02*
X12526429Y-17486381D01*
X12526429Y-17486381D02*
X12535952Y-17505429D01*
X12535952Y-17505429D02*
X12545476Y-17514952D01*
X12545476Y-17514952D02*
X12564524Y-17524476D01*
X12564524Y-17524476D02*
X12602619Y-17524476D01*
X12602619Y-17524476D02*
X12621667Y-17514952D01*
X12621667Y-17514952D02*
X12631191Y-17505429D01*
X12631191Y-17505429D02*
X12640714Y-17486381D01*
X12640714Y-17486381D02*
X12640714Y-17448286D01*
X12640714Y-17448286D02*
X12631191Y-17429238D01*
X12631191Y-17429238D02*
X12621667Y-17419714D01*
X12621667Y-17419714D02*
X12602619Y-17410190D01*
X12846429Y-17524476D02*
X12846429Y-17324476D01*
X12932143Y-17524476D02*
X12932143Y-17419714D01*
X12932143Y-17419714D02*
X12922619Y-17400667D01*
X12922619Y-17400667D02*
X12903572Y-17391143D01*
X12903572Y-17391143D02*
X12875000Y-17391143D01*
X12875000Y-17391143D02*
X12855952Y-17400667D01*
X12855952Y-17400667D02*
X12846429Y-17410190D01*
X13055952Y-17524476D02*
X13036905Y-17514952D01*
X13036905Y-17514952D02*
X13027381Y-17505429D01*
X13027381Y-17505429D02*
X13017857Y-17486381D01*
X13017857Y-17486381D02*
X13017857Y-17429238D01*
X13017857Y-17429238D02*
X13027381Y-17410190D01*
X13027381Y-17410190D02*
X13036905Y-17400667D01*
X13036905Y-17400667D02*
X13055952Y-17391143D01*
X13055952Y-17391143D02*
X13084524Y-17391143D01*
X13084524Y-17391143D02*
X13103572Y-17400667D01*
X13103572Y-17400667D02*
X13113095Y-17410190D01*
X13113095Y-17410190D02*
X13122619Y-17429238D01*
X13122619Y-17429238D02*
X13122619Y-17486381D01*
X13122619Y-17486381D02*
X13113095Y-17505429D01*
X13113095Y-17505429D02*
X13103572Y-17514952D01*
X13103572Y-17514952D02*
X13084524Y-17524476D01*
X13084524Y-17524476D02*
X13055952Y-17524476D01*
X13236905Y-17524476D02*
X13217857Y-17514952D01*
X13217857Y-17514952D02*
X13208333Y-17495905D01*
X13208333Y-17495905D02*
X13208333Y-17324476D01*
X13389286Y-17514952D02*
X13370238Y-17524476D01*
X13370238Y-17524476D02*
X13332143Y-17524476D01*
X13332143Y-17524476D02*
X13313095Y-17514952D01*
X13313095Y-17514952D02*
X13303572Y-17495905D01*
X13303572Y-17495905D02*
X13303572Y-17419714D01*
X13303572Y-17419714D02*
X13313095Y-17400667D01*
X13313095Y-17400667D02*
X13332143Y-17391143D01*
X13332143Y-17391143D02*
X13370238Y-17391143D01*
X13370238Y-17391143D02*
X13389286Y-17400667D01*
X13389286Y-17400667D02*
X13398810Y-17419714D01*
X13398810Y-17419714D02*
X13398810Y-17438762D01*
X13398810Y-17438762D02*
X13303572Y-17457810D01*
X13475000Y-17514952D02*
X13494048Y-17524476D01*
X13494048Y-17524476D02*
X13532143Y-17524476D01*
X13532143Y-17524476D02*
X13551191Y-17514952D01*
X13551191Y-17514952D02*
X13560714Y-17495905D01*
X13560714Y-17495905D02*
X13560714Y-17486381D01*
X13560714Y-17486381D02*
X13551191Y-17467333D01*
X13551191Y-17467333D02*
X13532143Y-17457810D01*
X13532143Y-17457810D02*
X13503572Y-17457810D01*
X13503572Y-17457810D02*
X13484524Y-17448286D01*
X13484524Y-17448286D02*
X13475000Y-17429238D01*
X13475000Y-17429238D02*
X13475000Y-17419714D01*
X13475000Y-17419714D02*
X13484524Y-17400667D01*
X13484524Y-17400667D02*
X13503572Y-17391143D01*
X13503572Y-17391143D02*
X13532143Y-17391143D01*
X13532143Y-17391143D02*
X13551191Y-17400667D01*
X13627381Y-17600667D02*
X13636905Y-17591143D01*
X13636905Y-17591143D02*
X13655953Y-17562571D01*
X13655953Y-17562571D02*
X13665476Y-17543524D01*
X13665476Y-17543524D02*
X13675000Y-17514952D01*
X13675000Y-17514952D02*
X13684524Y-17467333D01*
X13684524Y-17467333D02*
X13684524Y-17429238D01*
X13684524Y-17429238D02*
X13675000Y-17381619D01*
X13675000Y-17381619D02*
X13665476Y-17353048D01*
X13665476Y-17353048D02*
X13655953Y-17334000D01*
X13655953Y-17334000D02*
X13636905Y-17305429D01*
X13636905Y-17305429D02*
X13627381Y-17295905D01*
D16*
X8885000Y-17660000D02*
X8995000Y-17770000D01*
X8995000Y-17660000D02*
X8885000Y-17770000D01*
X8995000Y-17715000D02*
G75*
G03*
X8995000Y-17715000I-55000J0D01*
G01*
D11*
X9347381Y-17788476D02*
X9233095Y-17788476D01*
X9290238Y-17788476D02*
X9290238Y-17588476D01*
X9290238Y-17588476D02*
X9271190Y-17617048D01*
X9271190Y-17617048D02*
X9252143Y-17636095D01*
X9252143Y-17636095D02*
X9233095Y-17645619D01*
X9433095Y-17769429D02*
X9442619Y-17778952D01*
X9442619Y-17778952D02*
X9433095Y-17788476D01*
X9433095Y-17788476D02*
X9423571Y-17778952D01*
X9423571Y-17778952D02*
X9433095Y-17769429D01*
X9433095Y-17769429D02*
X9433095Y-17788476D01*
X9633095Y-17788476D02*
X9518810Y-17788476D01*
X9575952Y-17788476D02*
X9575952Y-17588476D01*
X9575952Y-17588476D02*
X9556905Y-17617048D01*
X9556905Y-17617048D02*
X9537857Y-17636095D01*
X9537857Y-17636095D02*
X9518810Y-17645619D01*
X9756905Y-17588476D02*
X9775952Y-17588476D01*
X9775952Y-17588476D02*
X9795000Y-17598000D01*
X9795000Y-17598000D02*
X9804524Y-17607524D01*
X9804524Y-17607524D02*
X9814048Y-17626571D01*
X9814048Y-17626571D02*
X9823571Y-17664667D01*
X9823571Y-17664667D02*
X9823571Y-17712286D01*
X9823571Y-17712286D02*
X9814048Y-17750381D01*
X9814048Y-17750381D02*
X9804524Y-17769429D01*
X9804524Y-17769429D02*
X9795000Y-17778952D01*
X9795000Y-17778952D02*
X9775952Y-17788476D01*
X9775952Y-17788476D02*
X9756905Y-17788476D01*
X9756905Y-17788476D02*
X9737857Y-17778952D01*
X9737857Y-17778952D02*
X9728333Y-17769429D01*
X9728333Y-17769429D02*
X9718810Y-17750381D01*
X9718810Y-17750381D02*
X9709286Y-17712286D01*
X9709286Y-17712286D02*
X9709286Y-17664667D01*
X9709286Y-17664667D02*
X9718810Y-17626571D01*
X9718810Y-17626571D02*
X9728333Y-17607524D01*
X9728333Y-17607524D02*
X9737857Y-17598000D01*
X9737857Y-17598000D02*
X9756905Y-17588476D01*
X9947381Y-17588476D02*
X9966429Y-17588476D01*
X9966429Y-17588476D02*
X9985476Y-17598000D01*
X9985476Y-17598000D02*
X9995000Y-17607524D01*
X9995000Y-17607524D02*
X10004524Y-17626571D01*
X10004524Y-17626571D02*
X10014048Y-17664667D01*
X10014048Y-17664667D02*
X10014048Y-17712286D01*
X10014048Y-17712286D02*
X10004524Y-17750381D01*
X10004524Y-17750381D02*
X9995000Y-17769429D01*
X9995000Y-17769429D02*
X9985476Y-17778952D01*
X9985476Y-17778952D02*
X9966429Y-17788476D01*
X9966429Y-17788476D02*
X9947381Y-17788476D01*
X9947381Y-17788476D02*
X9928333Y-17778952D01*
X9928333Y-17778952D02*
X9918810Y-17769429D01*
X9918810Y-17769429D02*
X9909286Y-17750381D01*
X9909286Y-17750381D02*
X9899762Y-17712286D01*
X9899762Y-17712286D02*
X9899762Y-17664667D01*
X9899762Y-17664667D02*
X9909286Y-17626571D01*
X9909286Y-17626571D02*
X9918810Y-17607524D01*
X9918810Y-17607524D02*
X9928333Y-17598000D01*
X9928333Y-17598000D02*
X9947381Y-17588476D01*
X10099762Y-17788476D02*
X10099762Y-17655143D01*
X10099762Y-17674190D02*
X10109286Y-17664667D01*
X10109286Y-17664667D02*
X10128333Y-17655143D01*
X10128333Y-17655143D02*
X10156905Y-17655143D01*
X10156905Y-17655143D02*
X10175952Y-17664667D01*
X10175952Y-17664667D02*
X10185476Y-17683714D01*
X10185476Y-17683714D02*
X10185476Y-17788476D01*
X10185476Y-17683714D02*
X10195000Y-17664667D01*
X10195000Y-17664667D02*
X10214048Y-17655143D01*
X10214048Y-17655143D02*
X10242619Y-17655143D01*
X10242619Y-17655143D02*
X10261667Y-17664667D01*
X10261667Y-17664667D02*
X10271191Y-17683714D01*
X10271191Y-17683714D02*
X10271191Y-17788476D01*
X10366429Y-17788476D02*
X10366429Y-17655143D01*
X10366429Y-17674190D02*
X10375952Y-17664667D01*
X10375952Y-17664667D02*
X10395000Y-17655143D01*
X10395000Y-17655143D02*
X10423572Y-17655143D01*
X10423572Y-17655143D02*
X10442619Y-17664667D01*
X10442619Y-17664667D02*
X10452143Y-17683714D01*
X10452143Y-17683714D02*
X10452143Y-17788476D01*
X10452143Y-17683714D02*
X10461667Y-17664667D01*
X10461667Y-17664667D02*
X10480714Y-17655143D01*
X10480714Y-17655143D02*
X10509286Y-17655143D01*
X10509286Y-17655143D02*
X10528333Y-17664667D01*
X10528333Y-17664667D02*
X10537857Y-17683714D01*
X10537857Y-17683714D02*
X10537857Y-17788476D01*
X10895952Y-17578952D02*
X10724524Y-17836095D01*
X11120714Y-17588476D02*
X11139762Y-17588476D01*
X11139762Y-17588476D02*
X11158810Y-17598000D01*
X11158810Y-17598000D02*
X11168333Y-17607524D01*
X11168333Y-17607524D02*
X11177857Y-17626571D01*
X11177857Y-17626571D02*
X11187381Y-17664667D01*
X11187381Y-17664667D02*
X11187381Y-17712286D01*
X11187381Y-17712286D02*
X11177857Y-17750381D01*
X11177857Y-17750381D02*
X11168333Y-17769429D01*
X11168333Y-17769429D02*
X11158810Y-17778952D01*
X11158810Y-17778952D02*
X11139762Y-17788476D01*
X11139762Y-17788476D02*
X11120714Y-17788476D01*
X11120714Y-17788476D02*
X11101667Y-17778952D01*
X11101667Y-17778952D02*
X11092143Y-17769429D01*
X11092143Y-17769429D02*
X11082619Y-17750381D01*
X11082619Y-17750381D02*
X11073095Y-17712286D01*
X11073095Y-17712286D02*
X11073095Y-17664667D01*
X11073095Y-17664667D02*
X11082619Y-17626571D01*
X11082619Y-17626571D02*
X11092143Y-17607524D01*
X11092143Y-17607524D02*
X11101667Y-17598000D01*
X11101667Y-17598000D02*
X11120714Y-17588476D01*
X11273095Y-17769429D02*
X11282619Y-17778952D01*
X11282619Y-17778952D02*
X11273095Y-17788476D01*
X11273095Y-17788476D02*
X11263571Y-17778952D01*
X11263571Y-17778952D02*
X11273095Y-17769429D01*
X11273095Y-17769429D02*
X11273095Y-17788476D01*
X11406429Y-17588476D02*
X11425476Y-17588476D01*
X11425476Y-17588476D02*
X11444524Y-17598000D01*
X11444524Y-17598000D02*
X11454048Y-17607524D01*
X11454048Y-17607524D02*
X11463571Y-17626571D01*
X11463571Y-17626571D02*
X11473095Y-17664667D01*
X11473095Y-17664667D02*
X11473095Y-17712286D01*
X11473095Y-17712286D02*
X11463571Y-17750381D01*
X11463571Y-17750381D02*
X11454048Y-17769429D01*
X11454048Y-17769429D02*
X11444524Y-17778952D01*
X11444524Y-17778952D02*
X11425476Y-17788476D01*
X11425476Y-17788476D02*
X11406429Y-17788476D01*
X11406429Y-17788476D02*
X11387381Y-17778952D01*
X11387381Y-17778952D02*
X11377857Y-17769429D01*
X11377857Y-17769429D02*
X11368333Y-17750381D01*
X11368333Y-17750381D02*
X11358810Y-17712286D01*
X11358810Y-17712286D02*
X11358810Y-17664667D01*
X11358810Y-17664667D02*
X11368333Y-17626571D01*
X11368333Y-17626571D02*
X11377857Y-17607524D01*
X11377857Y-17607524D02*
X11387381Y-17598000D01*
X11387381Y-17598000D02*
X11406429Y-17588476D01*
X11644524Y-17655143D02*
X11644524Y-17788476D01*
X11596905Y-17578952D02*
X11549286Y-17721810D01*
X11549286Y-17721810D02*
X11673095Y-17721810D01*
X11730238Y-17588476D02*
X11854048Y-17588476D01*
X11854048Y-17588476D02*
X11787381Y-17664667D01*
X11787381Y-17664667D02*
X11815952Y-17664667D01*
X11815952Y-17664667D02*
X11835000Y-17674190D01*
X11835000Y-17674190D02*
X11844524Y-17683714D01*
X11844524Y-17683714D02*
X11854048Y-17702762D01*
X11854048Y-17702762D02*
X11854048Y-17750381D01*
X11854048Y-17750381D02*
X11844524Y-17769429D01*
X11844524Y-17769429D02*
X11835000Y-17778952D01*
X11835000Y-17778952D02*
X11815952Y-17788476D01*
X11815952Y-17788476D02*
X11758810Y-17788476D01*
X11758810Y-17788476D02*
X11739762Y-17778952D01*
X11739762Y-17778952D02*
X11730238Y-17769429D01*
X11920714Y-17588476D02*
X12044524Y-17588476D01*
X12044524Y-17588476D02*
X11977857Y-17664667D01*
X11977857Y-17664667D02*
X12006429Y-17664667D01*
X12006429Y-17664667D02*
X12025476Y-17674190D01*
X12025476Y-17674190D02*
X12035000Y-17683714D01*
X12035000Y-17683714D02*
X12044524Y-17702762D01*
X12044524Y-17702762D02*
X12044524Y-17750381D01*
X12044524Y-17750381D02*
X12035000Y-17769429D01*
X12035000Y-17769429D02*
X12025476Y-17778952D01*
X12025476Y-17778952D02*
X12006429Y-17788476D01*
X12006429Y-17788476D02*
X11949286Y-17788476D01*
X11949286Y-17788476D02*
X11930238Y-17778952D01*
X11930238Y-17778952D02*
X11920714Y-17769429D01*
X12120714Y-17588476D02*
X12120714Y-17626571D01*
X12196905Y-17588476D02*
X12196905Y-17626571D01*
X12459762Y-17864667D02*
X12450238Y-17855143D01*
X12450238Y-17855143D02*
X12431191Y-17826571D01*
X12431191Y-17826571D02*
X12421667Y-17807524D01*
X12421667Y-17807524D02*
X12412143Y-17778952D01*
X12412143Y-17778952D02*
X12402619Y-17731333D01*
X12402619Y-17731333D02*
X12402619Y-17693238D01*
X12402619Y-17693238D02*
X12412143Y-17645619D01*
X12412143Y-17645619D02*
X12421667Y-17617048D01*
X12421667Y-17617048D02*
X12431191Y-17598000D01*
X12431191Y-17598000D02*
X12450238Y-17569429D01*
X12450238Y-17569429D02*
X12459762Y-17559905D01*
X12564524Y-17674190D02*
X12545476Y-17664667D01*
X12545476Y-17664667D02*
X12535952Y-17655143D01*
X12535952Y-17655143D02*
X12526429Y-17636095D01*
X12526429Y-17636095D02*
X12526429Y-17626571D01*
X12526429Y-17626571D02*
X12535952Y-17607524D01*
X12535952Y-17607524D02*
X12545476Y-17598000D01*
X12545476Y-17598000D02*
X12564524Y-17588476D01*
X12564524Y-17588476D02*
X12602619Y-17588476D01*
X12602619Y-17588476D02*
X12621667Y-17598000D01*
X12621667Y-17598000D02*
X12631191Y-17607524D01*
X12631191Y-17607524D02*
X12640714Y-17626571D01*
X12640714Y-17626571D02*
X12640714Y-17636095D01*
X12640714Y-17636095D02*
X12631191Y-17655143D01*
X12631191Y-17655143D02*
X12621667Y-17664667D01*
X12621667Y-17664667D02*
X12602619Y-17674190D01*
X12602619Y-17674190D02*
X12564524Y-17674190D01*
X12564524Y-17674190D02*
X12545476Y-17683714D01*
X12545476Y-17683714D02*
X12535952Y-17693238D01*
X12535952Y-17693238D02*
X12526429Y-17712286D01*
X12526429Y-17712286D02*
X12526429Y-17750381D01*
X12526429Y-17750381D02*
X12535952Y-17769429D01*
X12535952Y-17769429D02*
X12545476Y-17778952D01*
X12545476Y-17778952D02*
X12564524Y-17788476D01*
X12564524Y-17788476D02*
X12602619Y-17788476D01*
X12602619Y-17788476D02*
X12621667Y-17778952D01*
X12621667Y-17778952D02*
X12631191Y-17769429D01*
X12631191Y-17769429D02*
X12640714Y-17750381D01*
X12640714Y-17750381D02*
X12640714Y-17712286D01*
X12640714Y-17712286D02*
X12631191Y-17693238D01*
X12631191Y-17693238D02*
X12621667Y-17683714D01*
X12621667Y-17683714D02*
X12602619Y-17674190D01*
X12846429Y-17788476D02*
X12846429Y-17588476D01*
X12932143Y-17788476D02*
X12932143Y-17683714D01*
X12932143Y-17683714D02*
X12922619Y-17664667D01*
X12922619Y-17664667D02*
X12903572Y-17655143D01*
X12903572Y-17655143D02*
X12875000Y-17655143D01*
X12875000Y-17655143D02*
X12855952Y-17664667D01*
X12855952Y-17664667D02*
X12846429Y-17674190D01*
X13055952Y-17788476D02*
X13036905Y-17778952D01*
X13036905Y-17778952D02*
X13027381Y-17769429D01*
X13027381Y-17769429D02*
X13017857Y-17750381D01*
X13017857Y-17750381D02*
X13017857Y-17693238D01*
X13017857Y-17693238D02*
X13027381Y-17674190D01*
X13027381Y-17674190D02*
X13036905Y-17664667D01*
X13036905Y-17664667D02*
X13055952Y-17655143D01*
X13055952Y-17655143D02*
X13084524Y-17655143D01*
X13084524Y-17655143D02*
X13103572Y-17664667D01*
X13103572Y-17664667D02*
X13113095Y-17674190D01*
X13113095Y-17674190D02*
X13122619Y-17693238D01*
X13122619Y-17693238D02*
X13122619Y-17750381D01*
X13122619Y-17750381D02*
X13113095Y-17769429D01*
X13113095Y-17769429D02*
X13103572Y-17778952D01*
X13103572Y-17778952D02*
X13084524Y-17788476D01*
X13084524Y-17788476D02*
X13055952Y-17788476D01*
X13236905Y-17788476D02*
X13217857Y-17778952D01*
X13217857Y-17778952D02*
X13208333Y-17759905D01*
X13208333Y-17759905D02*
X13208333Y-17588476D01*
X13389286Y-17778952D02*
X13370238Y-17788476D01*
X13370238Y-17788476D02*
X13332143Y-17788476D01*
X13332143Y-17788476D02*
X13313095Y-17778952D01*
X13313095Y-17778952D02*
X13303572Y-17759905D01*
X13303572Y-17759905D02*
X13303572Y-17683714D01*
X13303572Y-17683714D02*
X13313095Y-17664667D01*
X13313095Y-17664667D02*
X13332143Y-17655143D01*
X13332143Y-17655143D02*
X13370238Y-17655143D01*
X13370238Y-17655143D02*
X13389286Y-17664667D01*
X13389286Y-17664667D02*
X13398810Y-17683714D01*
X13398810Y-17683714D02*
X13398810Y-17702762D01*
X13398810Y-17702762D02*
X13303572Y-17721810D01*
X13475000Y-17778952D02*
X13494048Y-17788476D01*
X13494048Y-17788476D02*
X13532143Y-17788476D01*
X13532143Y-17788476D02*
X13551191Y-17778952D01*
X13551191Y-17778952D02*
X13560714Y-17759905D01*
X13560714Y-17759905D02*
X13560714Y-17750381D01*
X13560714Y-17750381D02*
X13551191Y-17731333D01*
X13551191Y-17731333D02*
X13532143Y-17721810D01*
X13532143Y-17721810D02*
X13503572Y-17721810D01*
X13503572Y-17721810D02*
X13484524Y-17712286D01*
X13484524Y-17712286D02*
X13475000Y-17693238D01*
X13475000Y-17693238D02*
X13475000Y-17683714D01*
X13475000Y-17683714D02*
X13484524Y-17664667D01*
X13484524Y-17664667D02*
X13503572Y-17655143D01*
X13503572Y-17655143D02*
X13532143Y-17655143D01*
X13532143Y-17655143D02*
X13551191Y-17664667D01*
X13627381Y-17864667D02*
X13636905Y-17855143D01*
X13636905Y-17855143D02*
X13655953Y-17826571D01*
X13655953Y-17826571D02*
X13665476Y-17807524D01*
X13665476Y-17807524D02*
X13675000Y-17778952D01*
X13675000Y-17778952D02*
X13684524Y-17731333D01*
X13684524Y-17731333D02*
X13684524Y-17693238D01*
X13684524Y-17693238D02*
X13675000Y-17645619D01*
X13675000Y-17645619D02*
X13665476Y-17617048D01*
X13665476Y-17617048D02*
X13655953Y-17598000D01*
X13655953Y-17598000D02*
X13636905Y-17569429D01*
X13636905Y-17569429D02*
X13627381Y-17559905D01*
M02*
