G04 #@! TF.GenerationSoftware,KiCad,Pcbnew,7.0.2-6a45011f42~172~ubuntu22.04.1*
G04 #@! TF.CreationDate,2023-04-25T20:16:16+02:00*
G04 #@! TF.ProjectId,Signal Generator,5369676e-616c-4204-9765-6e657261746f,2*
G04 #@! TF.SameCoordinates,Original*
G04 #@! TF.FileFunction,Legend,Bot*
G04 #@! TF.FilePolarity,Positive*
%FSLAX46Y46*%
G04 Gerber Fmt 4.6, Leading zero omitted, Abs format (unit mm)*
G04 Created by KiCad (PCBNEW 7.0.2-6a45011f42~172~ubuntu22.04.1) date 2023-04-25 20:16:16*
%MOMM*%
%LPD*%
G01*
G04 APERTURE LIST*
%ADD10C,0.300000*%
%ADD11C,0.120000*%
%ADD12C,0.650000*%
%ADD13O,1.000000X2.100000*%
%ADD14O,1.000000X1.800000*%
%ADD15C,0.001000*%
%ADD16R,1.700000X1.700000*%
%ADD17O,1.700000X1.700000*%
%ADD18C,2.000000*%
%ADD19R,2.200000X2.200000*%
%ADD20C,2.200000*%
%ADD21C,1.524000*%
%ADD22R,3.330000X0.700000*%
%ADD23R,1.830000X1.140000*%
%ADD24R,2.800000X0.860000*%
%ADD25R,0.930000X0.900000*%
%ADD26R,0.780000X1.050000*%
%ADD27R,1.100000X0.700000*%
G04 APERTURE END LIST*
D10*
X115870357Y-110392857D02*
X115798928Y-110250000D01*
X115798928Y-110250000D02*
X115798928Y-110035714D01*
X115798928Y-110035714D02*
X115870357Y-109821428D01*
X115870357Y-109821428D02*
X116013214Y-109678571D01*
X116013214Y-109678571D02*
X116156071Y-109607142D01*
X116156071Y-109607142D02*
X116441785Y-109535714D01*
X116441785Y-109535714D02*
X116656071Y-109535714D01*
X116656071Y-109535714D02*
X116941785Y-109607142D01*
X116941785Y-109607142D02*
X117084642Y-109678571D01*
X117084642Y-109678571D02*
X117227500Y-109821428D01*
X117227500Y-109821428D02*
X117298928Y-110035714D01*
X117298928Y-110035714D02*
X117298928Y-110178571D01*
X117298928Y-110178571D02*
X117227500Y-110392857D01*
X117227500Y-110392857D02*
X117156071Y-110464285D01*
X117156071Y-110464285D02*
X116656071Y-110464285D01*
X116656071Y-110464285D02*
X116656071Y-110178571D01*
X117298928Y-111107142D02*
X115798928Y-111107142D01*
X115798928Y-111107142D02*
X117298928Y-111964285D01*
X117298928Y-111964285D02*
X115798928Y-111964285D01*
X117298928Y-112678571D02*
X115798928Y-112678571D01*
X115798928Y-112678571D02*
X115798928Y-113035714D01*
X115798928Y-113035714D02*
X115870357Y-113250000D01*
X115870357Y-113250000D02*
X116013214Y-113392857D01*
X116013214Y-113392857D02*
X116156071Y-113464286D01*
X116156071Y-113464286D02*
X116441785Y-113535714D01*
X116441785Y-113535714D02*
X116656071Y-113535714D01*
X116656071Y-113535714D02*
X116941785Y-113464286D01*
X116941785Y-113464286D02*
X117084642Y-113392857D01*
X117084642Y-113392857D02*
X117227500Y-113250000D01*
X117227500Y-113250000D02*
X117298928Y-113035714D01*
X117298928Y-113035714D02*
X117298928Y-112678571D01*
X119657500Y-109535714D02*
X119728928Y-109750000D01*
X119728928Y-109750000D02*
X119728928Y-110107142D01*
X119728928Y-110107142D02*
X119657500Y-110250000D01*
X119657500Y-110250000D02*
X119586071Y-110321428D01*
X119586071Y-110321428D02*
X119443214Y-110392857D01*
X119443214Y-110392857D02*
X119300357Y-110392857D01*
X119300357Y-110392857D02*
X119157500Y-110321428D01*
X119157500Y-110321428D02*
X119086071Y-110250000D01*
X119086071Y-110250000D02*
X119014642Y-110107142D01*
X119014642Y-110107142D02*
X118943214Y-109821428D01*
X118943214Y-109821428D02*
X118871785Y-109678571D01*
X118871785Y-109678571D02*
X118800357Y-109607142D01*
X118800357Y-109607142D02*
X118657500Y-109535714D01*
X118657500Y-109535714D02*
X118514642Y-109535714D01*
X118514642Y-109535714D02*
X118371785Y-109607142D01*
X118371785Y-109607142D02*
X118300357Y-109678571D01*
X118300357Y-109678571D02*
X118228928Y-109821428D01*
X118228928Y-109821428D02*
X118228928Y-110178571D01*
X118228928Y-110178571D02*
X118300357Y-110392857D01*
X118228928Y-110892856D02*
X119728928Y-111249999D01*
X119728928Y-111249999D02*
X118657500Y-111535713D01*
X118657500Y-111535713D02*
X119728928Y-111821428D01*
X119728928Y-111821428D02*
X118228928Y-112178571D01*
X119586071Y-113607142D02*
X119657500Y-113535714D01*
X119657500Y-113535714D02*
X119728928Y-113321428D01*
X119728928Y-113321428D02*
X119728928Y-113178571D01*
X119728928Y-113178571D02*
X119657500Y-112964285D01*
X119657500Y-112964285D02*
X119514642Y-112821428D01*
X119514642Y-112821428D02*
X119371785Y-112749999D01*
X119371785Y-112749999D02*
X119086071Y-112678571D01*
X119086071Y-112678571D02*
X118871785Y-112678571D01*
X118871785Y-112678571D02*
X118586071Y-112749999D01*
X118586071Y-112749999D02*
X118443214Y-112821428D01*
X118443214Y-112821428D02*
X118300357Y-112964285D01*
X118300357Y-112964285D02*
X118228928Y-113178571D01*
X118228928Y-113178571D02*
X118228928Y-113321428D01*
X118228928Y-113321428D02*
X118300357Y-113535714D01*
X118300357Y-113535714D02*
X118371785Y-113607142D01*
X119728928Y-114964285D02*
X119728928Y-114249999D01*
X119728928Y-114249999D02*
X118228928Y-114249999D01*
X119728928Y-115464285D02*
X118228928Y-115464285D01*
X119728928Y-116321428D02*
X118871785Y-115678571D01*
X118228928Y-116321428D02*
X119086071Y-115464285D01*
X122087500Y-109535714D02*
X122158928Y-109750000D01*
X122158928Y-109750000D02*
X122158928Y-110107142D01*
X122158928Y-110107142D02*
X122087500Y-110250000D01*
X122087500Y-110250000D02*
X122016071Y-110321428D01*
X122016071Y-110321428D02*
X121873214Y-110392857D01*
X121873214Y-110392857D02*
X121730357Y-110392857D01*
X121730357Y-110392857D02*
X121587500Y-110321428D01*
X121587500Y-110321428D02*
X121516071Y-110250000D01*
X121516071Y-110250000D02*
X121444642Y-110107142D01*
X121444642Y-110107142D02*
X121373214Y-109821428D01*
X121373214Y-109821428D02*
X121301785Y-109678571D01*
X121301785Y-109678571D02*
X121230357Y-109607142D01*
X121230357Y-109607142D02*
X121087500Y-109535714D01*
X121087500Y-109535714D02*
X120944642Y-109535714D01*
X120944642Y-109535714D02*
X120801785Y-109607142D01*
X120801785Y-109607142D02*
X120730357Y-109678571D01*
X120730357Y-109678571D02*
X120658928Y-109821428D01*
X120658928Y-109821428D02*
X120658928Y-110178571D01*
X120658928Y-110178571D02*
X120730357Y-110392857D01*
X120658928Y-110892856D02*
X122158928Y-111249999D01*
X122158928Y-111249999D02*
X121087500Y-111535713D01*
X121087500Y-111535713D02*
X122158928Y-111821428D01*
X122158928Y-111821428D02*
X120658928Y-112178571D01*
X122158928Y-112749999D02*
X120658928Y-112749999D01*
X120658928Y-112749999D02*
X120658928Y-113107142D01*
X120658928Y-113107142D02*
X120730357Y-113321428D01*
X120730357Y-113321428D02*
X120873214Y-113464285D01*
X120873214Y-113464285D02*
X121016071Y-113535714D01*
X121016071Y-113535714D02*
X121301785Y-113607142D01*
X121301785Y-113607142D02*
X121516071Y-113607142D01*
X121516071Y-113607142D02*
X121801785Y-113535714D01*
X121801785Y-113535714D02*
X121944642Y-113464285D01*
X121944642Y-113464285D02*
X122087500Y-113321428D01*
X122087500Y-113321428D02*
X122158928Y-113107142D01*
X122158928Y-113107142D02*
X122158928Y-112749999D01*
X122158928Y-114249999D02*
X120658928Y-114249999D01*
X120658928Y-115250000D02*
X120658928Y-115535714D01*
X120658928Y-115535714D02*
X120730357Y-115678571D01*
X120730357Y-115678571D02*
X120873214Y-115821428D01*
X120873214Y-115821428D02*
X121158928Y-115892857D01*
X121158928Y-115892857D02*
X121658928Y-115892857D01*
X121658928Y-115892857D02*
X121944642Y-115821428D01*
X121944642Y-115821428D02*
X122087500Y-115678571D01*
X122087500Y-115678571D02*
X122158928Y-115535714D01*
X122158928Y-115535714D02*
X122158928Y-115250000D01*
X122158928Y-115250000D02*
X122087500Y-115107143D01*
X122087500Y-115107143D02*
X121944642Y-114964285D01*
X121944642Y-114964285D02*
X121658928Y-114892857D01*
X121658928Y-114892857D02*
X121158928Y-114892857D01*
X121158928Y-114892857D02*
X120873214Y-114964285D01*
X120873214Y-114964285D02*
X120730357Y-115107143D01*
X120730357Y-115107143D02*
X120658928Y-115250000D01*
X124588928Y-109607142D02*
X123088928Y-109607142D01*
X123088928Y-109607142D02*
X124588928Y-110464285D01*
X124588928Y-110464285D02*
X123088928Y-110464285D01*
X124588928Y-112035714D02*
X123874642Y-111535714D01*
X124588928Y-111178571D02*
X123088928Y-111178571D01*
X123088928Y-111178571D02*
X123088928Y-111750000D01*
X123088928Y-111750000D02*
X123160357Y-111892857D01*
X123160357Y-111892857D02*
X123231785Y-111964286D01*
X123231785Y-111964286D02*
X123374642Y-112035714D01*
X123374642Y-112035714D02*
X123588928Y-112035714D01*
X123588928Y-112035714D02*
X123731785Y-111964286D01*
X123731785Y-111964286D02*
X123803214Y-111892857D01*
X123803214Y-111892857D02*
X123874642Y-111750000D01*
X123874642Y-111750000D02*
X123874642Y-111178571D01*
X124517500Y-112607143D02*
X124588928Y-112821429D01*
X124588928Y-112821429D02*
X124588928Y-113178571D01*
X124588928Y-113178571D02*
X124517500Y-113321429D01*
X124517500Y-113321429D02*
X124446071Y-113392857D01*
X124446071Y-113392857D02*
X124303214Y-113464286D01*
X124303214Y-113464286D02*
X124160357Y-113464286D01*
X124160357Y-113464286D02*
X124017500Y-113392857D01*
X124017500Y-113392857D02*
X123946071Y-113321429D01*
X123946071Y-113321429D02*
X123874642Y-113178571D01*
X123874642Y-113178571D02*
X123803214Y-112892857D01*
X123803214Y-112892857D02*
X123731785Y-112750000D01*
X123731785Y-112750000D02*
X123660357Y-112678571D01*
X123660357Y-112678571D02*
X123517500Y-112607143D01*
X123517500Y-112607143D02*
X123374642Y-112607143D01*
X123374642Y-112607143D02*
X123231785Y-112678571D01*
X123231785Y-112678571D02*
X123160357Y-112750000D01*
X123160357Y-112750000D02*
X123088928Y-112892857D01*
X123088928Y-112892857D02*
X123088928Y-113250000D01*
X123088928Y-113250000D02*
X123160357Y-113464286D01*
X123088928Y-113892857D02*
X123088928Y-114750000D01*
X124588928Y-114321428D02*
X123088928Y-114321428D01*
D11*
X115090000Y-108830000D02*
X115090000Y-106170000D01*
X122770000Y-108830000D02*
X115090000Y-108830000D01*
X122770000Y-108830000D02*
X122770000Y-106170000D01*
X124040000Y-108830000D02*
X125370000Y-108830000D01*
X125370000Y-108830000D02*
X125370000Y-107500000D01*
X122770000Y-106170000D02*
X115090000Y-106170000D01*
%LPC*%
D12*
X109890000Y-103380000D03*
X104110000Y-103380000D03*
D13*
X111320000Y-103880000D03*
D14*
X111320000Y-99700000D03*
D13*
X102680000Y-103880000D03*
D14*
X102680000Y-99700000D03*
D15*
X118837500Y-152400000D03*
X118837500Y-145400000D03*
D16*
X106840000Y-145960000D03*
D17*
X106840000Y-148500000D03*
X104300000Y-145960000D03*
X104300000Y-148500000D03*
D18*
X116750000Y-100250000D03*
X123250000Y-100250000D03*
X116750000Y-104750000D03*
X123250000Y-104750000D03*
D19*
X92685000Y-153800000D03*
D20*
X95225000Y-153800000D03*
X97765000Y-153800000D03*
X100305000Y-153800000D03*
D21*
X92000000Y-100250000D03*
X97000000Y-100250000D03*
X92000000Y-102250000D03*
X97000000Y-102250000D03*
X92000000Y-104250000D03*
X97000000Y-104250000D03*
D16*
X124040000Y-107500000D03*
D17*
X121500000Y-107500000D03*
X118960000Y-107500000D03*
X116420000Y-107500000D03*
D22*
X102665000Y-120700000D03*
D23*
X91415000Y-120920000D03*
D24*
X91900000Y-133580000D03*
D22*
X102665000Y-133660000D03*
D25*
X103865000Y-123010000D03*
D26*
X103940000Y-127275000D03*
D27*
X91400000Y-124800000D03*
X91400000Y-125900000D03*
X91400000Y-127000000D03*
X91400000Y-128100000D03*
X91400000Y-129200000D03*
X91400000Y-130300000D03*
X91400000Y-131400000D03*
X91400000Y-132500000D03*
%LPD*%
M02*
