G04 #@! TF.GenerationSoftware,KiCad,Pcbnew,7.0.0*
G04 #@! TF.CreationDate,2023-02-28T23:08:10+01:00*
G04 #@! TF.ProjectId,Signal Generator,5369676e-616c-4204-9765-6e657261746f,0*
G04 #@! TF.SameCoordinates,Original*
G04 #@! TF.FileFunction,Legend,Top*
G04 #@! TF.FilePolarity,Positive*
%FSLAX46Y46*%
G04 Gerber Fmt 4.6, Leading zero omitted, Abs format (unit mm)*
G04 Created by KiCad (PCBNEW 7.0.0) date 2023-02-28 23:08:10*
%MOMM*%
%LPD*%
G01*
G04 APERTURE LIST*
G04 Aperture macros list*
%AMRoundRect*
0 Rectangle with rounded corners*
0 $1 Rounding radius*
0 $2 $3 $4 $5 $6 $7 $8 $9 X,Y pos of 4 corners*
0 Add a 4 corners polygon primitive as box body*
4,1,4,$2,$3,$4,$5,$6,$7,$8,$9,$2,$3,0*
0 Add four circle primitives for the rounded corners*
1,1,$1+$1,$2,$3*
1,1,$1+$1,$4,$5*
1,1,$1+$1,$6,$7*
1,1,$1+$1,$8,$9*
0 Add four rect primitives between the rounded corners*
20,1,$1+$1,$2,$3,$4,$5,0*
20,1,$1+$1,$4,$5,$6,$7,0*
20,1,$1+$1,$6,$7,$8,$9,0*
20,1,$1+$1,$8,$9,$2,$3,0*%
G04 Aperture macros list end*
%ADD10C,0.300000*%
%ADD11C,0.120000*%
%ADD12C,0.160000*%
%ADD13C,0.250000*%
%ADD14C,0.200000*%
%ADD15R,3.400000X0.980000*%
%ADD16R,1.700000X1.700000*%
%ADD17O,1.700000X1.700000*%
%ADD18RoundRect,0.225000X-0.250000X0.225000X-0.250000X-0.225000X0.250000X-0.225000X0.250000X0.225000X0*%
%ADD19RoundRect,0.225000X0.335876X0.017678X0.017678X0.335876X-0.335876X-0.017678X-0.017678X-0.335876X0*%
%ADD20RoundRect,0.200000X-0.275000X0.200000X-0.275000X-0.200000X0.275000X-0.200000X0.275000X0.200000X0*%
%ADD21RoundRect,0.200000X0.275000X-0.200000X0.275000X0.200000X-0.275000X0.200000X-0.275000X-0.200000X0*%
%ADD22C,1.524000*%
%ADD23RoundRect,0.225000X0.250000X-0.225000X0.250000X0.225000X-0.250000X0.225000X-0.250000X-0.225000X0*%
%ADD24R,1.600000X1.100000*%
%ADD25R,0.800000X1.000000*%
%ADD26R,2.200000X2.200000*%
%ADD27C,2.200000*%
%ADD28C,2.000000*%
%ADD29RoundRect,0.218750X-0.256250X0.218750X-0.256250X-0.218750X0.256250X-0.218750X0.256250X0.218750X0*%
%ADD30RoundRect,0.225000X0.225000X0.250000X-0.225000X0.250000X-0.225000X-0.250000X0.225000X-0.250000X0*%
%ADD31RoundRect,0.225000X-0.225000X-0.250000X0.225000X-0.250000X0.225000X0.250000X-0.225000X0.250000X0*%
%ADD32RoundRect,0.075000X-0.700000X-0.075000X0.700000X-0.075000X0.700000X0.075000X-0.700000X0.075000X0*%
%ADD33RoundRect,0.075000X-0.075000X-0.700000X0.075000X-0.700000X0.075000X0.700000X-0.075000X0.700000X0*%
%ADD34RoundRect,0.150000X0.825000X0.150000X-0.825000X0.150000X-0.825000X-0.150000X0.825000X-0.150000X0*%
%ADD35RoundRect,0.225000X-0.017678X0.335876X-0.335876X0.017678X0.017678X-0.335876X0.335876X-0.017678X0*%
%ADD36R,0.800000X0.400000*%
%ADD37R,1.750000X2.500000*%
%ADD38C,0.001000*%
%ADD39R,2.800000X2.200000*%
%ADD40R,2.600000X2.800000*%
%ADD41R,1.220000X0.910000*%
%ADD42R,0.600000X1.200000*%
%ADD43RoundRect,0.200000X-0.200000X-0.275000X0.200000X-0.275000X0.200000X0.275000X-0.200000X0.275000X0*%
%ADD44RoundRect,0.225000X0.017678X-0.335876X0.335876X-0.017678X-0.017678X0.335876X-0.335876X0.017678X0*%
%ADD45RoundRect,0.200000X0.200000X0.275000X-0.200000X0.275000X-0.200000X-0.275000X0.200000X-0.275000X0*%
%ADD46R,2.050000X3.800000*%
%ADD47C,0.650000*%
%ADD48R,0.600000X1.030000*%
%ADD49R,0.300000X1.030000*%
%ADD50O,1.000000X2.100000*%
%ADD51O,1.000000X1.800000*%
%ADD52RoundRect,0.050000X0.250000X0.500000X-0.250000X0.500000X-0.250000X-0.500000X0.250000X-0.500000X0*%
%ADD53RoundRect,0.075000X0.350000X0.075000X-0.350000X0.075000X-0.350000X-0.075000X0.350000X-0.075000X0*%
%ADD54RoundRect,0.075000X0.075000X0.350000X-0.075000X0.350000X-0.075000X-0.350000X0.075000X-0.350000X0*%
%ADD55R,2.100000X2.100000*%
G04 APERTURE END LIST*
D10*
X93957142Y-147108285D02*
X93357142Y-146251142D01*
X92928571Y-147108285D02*
X92928571Y-145308285D01*
X92928571Y-145308285D02*
X93614285Y-145308285D01*
X93614285Y-145308285D02*
X93785714Y-145394000D01*
X93785714Y-145394000D02*
X93871428Y-145479714D01*
X93871428Y-145479714D02*
X93957142Y-145651142D01*
X93957142Y-145651142D02*
X93957142Y-145908285D01*
X93957142Y-145908285D02*
X93871428Y-146079714D01*
X93871428Y-146079714D02*
X93785714Y-146165428D01*
X93785714Y-146165428D02*
X93614285Y-146251142D01*
X93614285Y-146251142D02*
X92928571Y-146251142D01*
X95414285Y-147022571D02*
X95242857Y-147108285D01*
X95242857Y-147108285D02*
X94900000Y-147108285D01*
X94900000Y-147108285D02*
X94728571Y-147022571D01*
X94728571Y-147022571D02*
X94642857Y-146851142D01*
X94642857Y-146851142D02*
X94642857Y-146165428D01*
X94642857Y-146165428D02*
X94728571Y-145994000D01*
X94728571Y-145994000D02*
X94900000Y-145908285D01*
X94900000Y-145908285D02*
X95242857Y-145908285D01*
X95242857Y-145908285D02*
X95414285Y-145994000D01*
X95414285Y-145994000D02*
X95500000Y-146165428D01*
X95500000Y-146165428D02*
X95500000Y-146336857D01*
X95500000Y-146336857D02*
X94642857Y-146508285D01*
X96099999Y-145908285D02*
X96528571Y-147108285D01*
X96528571Y-147108285D02*
X96957142Y-145908285D01*
X98637143Y-145479714D02*
X98722857Y-145394000D01*
X98722857Y-145394000D02*
X98894286Y-145308285D01*
X98894286Y-145308285D02*
X99322857Y-145308285D01*
X99322857Y-145308285D02*
X99494286Y-145394000D01*
X99494286Y-145394000D02*
X99580000Y-145479714D01*
X99580000Y-145479714D02*
X99665714Y-145651142D01*
X99665714Y-145651142D02*
X99665714Y-145822571D01*
X99665714Y-145822571D02*
X99580000Y-146079714D01*
X99580000Y-146079714D02*
X98551428Y-147108285D01*
X98551428Y-147108285D02*
X99665714Y-147108285D01*
X92842857Y-143272571D02*
X93100000Y-143358285D01*
X93100000Y-143358285D02*
X93528571Y-143358285D01*
X93528571Y-143358285D02*
X93700000Y-143272571D01*
X93700000Y-143272571D02*
X93785714Y-143186857D01*
X93785714Y-143186857D02*
X93871428Y-143015428D01*
X93871428Y-143015428D02*
X93871428Y-142844000D01*
X93871428Y-142844000D02*
X93785714Y-142672571D01*
X93785714Y-142672571D02*
X93700000Y-142586857D01*
X93700000Y-142586857D02*
X93528571Y-142501142D01*
X93528571Y-142501142D02*
X93185714Y-142415428D01*
X93185714Y-142415428D02*
X93014285Y-142329714D01*
X93014285Y-142329714D02*
X92928571Y-142244000D01*
X92928571Y-142244000D02*
X92842857Y-142072571D01*
X92842857Y-142072571D02*
X92842857Y-141901142D01*
X92842857Y-141901142D02*
X92928571Y-141729714D01*
X92928571Y-141729714D02*
X93014285Y-141644000D01*
X93014285Y-141644000D02*
X93185714Y-141558285D01*
X93185714Y-141558285D02*
X93614285Y-141558285D01*
X93614285Y-141558285D02*
X93871428Y-141644000D01*
X94642857Y-143358285D02*
X94642857Y-142158285D01*
X94642857Y-141558285D02*
X94557143Y-141644000D01*
X94557143Y-141644000D02*
X94642857Y-141729714D01*
X94642857Y-141729714D02*
X94728571Y-141644000D01*
X94728571Y-141644000D02*
X94642857Y-141558285D01*
X94642857Y-141558285D02*
X94642857Y-141729714D01*
X96271429Y-142158285D02*
X96271429Y-143615428D01*
X96271429Y-143615428D02*
X96185714Y-143786857D01*
X96185714Y-143786857D02*
X96100000Y-143872571D01*
X96100000Y-143872571D02*
X95928571Y-143958285D01*
X95928571Y-143958285D02*
X95671429Y-143958285D01*
X95671429Y-143958285D02*
X95500000Y-143872571D01*
X96271429Y-143272571D02*
X96100000Y-143358285D01*
X96100000Y-143358285D02*
X95757143Y-143358285D01*
X95757143Y-143358285D02*
X95585714Y-143272571D01*
X95585714Y-143272571D02*
X95500000Y-143186857D01*
X95500000Y-143186857D02*
X95414286Y-143015428D01*
X95414286Y-143015428D02*
X95414286Y-142501142D01*
X95414286Y-142501142D02*
X95500000Y-142329714D01*
X95500000Y-142329714D02*
X95585714Y-142244000D01*
X95585714Y-142244000D02*
X95757143Y-142158285D01*
X95757143Y-142158285D02*
X96100000Y-142158285D01*
X96100000Y-142158285D02*
X96271429Y-142244000D01*
X97128571Y-142158285D02*
X97128571Y-143358285D01*
X97128571Y-142329714D02*
X97214285Y-142244000D01*
X97214285Y-142244000D02*
X97385714Y-142158285D01*
X97385714Y-142158285D02*
X97642857Y-142158285D01*
X97642857Y-142158285D02*
X97814285Y-142244000D01*
X97814285Y-142244000D02*
X97900000Y-142415428D01*
X97900000Y-142415428D02*
X97900000Y-143358285D01*
X99528571Y-143358285D02*
X99528571Y-142415428D01*
X99528571Y-142415428D02*
X99442856Y-142244000D01*
X99442856Y-142244000D02*
X99271428Y-142158285D01*
X99271428Y-142158285D02*
X98928571Y-142158285D01*
X98928571Y-142158285D02*
X98757142Y-142244000D01*
X99528571Y-143272571D02*
X99357142Y-143358285D01*
X99357142Y-143358285D02*
X98928571Y-143358285D01*
X98928571Y-143358285D02*
X98757142Y-143272571D01*
X98757142Y-143272571D02*
X98671428Y-143101142D01*
X98671428Y-143101142D02*
X98671428Y-142929714D01*
X98671428Y-142929714D02*
X98757142Y-142758285D01*
X98757142Y-142758285D02*
X98928571Y-142672571D01*
X98928571Y-142672571D02*
X99357142Y-142672571D01*
X99357142Y-142672571D02*
X99528571Y-142586857D01*
X100642856Y-143358285D02*
X100471427Y-143272571D01*
X100471427Y-143272571D02*
X100385713Y-143101142D01*
X100385713Y-143101142D02*
X100385713Y-141558285D01*
X103351427Y-141644000D02*
X103179999Y-141558285D01*
X103179999Y-141558285D02*
X102922856Y-141558285D01*
X102922856Y-141558285D02*
X102665713Y-141644000D01*
X102665713Y-141644000D02*
X102494284Y-141815428D01*
X102494284Y-141815428D02*
X102408570Y-141986857D01*
X102408570Y-141986857D02*
X102322856Y-142329714D01*
X102322856Y-142329714D02*
X102322856Y-142586857D01*
X102322856Y-142586857D02*
X102408570Y-142929714D01*
X102408570Y-142929714D02*
X102494284Y-143101142D01*
X102494284Y-143101142D02*
X102665713Y-143272571D01*
X102665713Y-143272571D02*
X102922856Y-143358285D01*
X102922856Y-143358285D02*
X103094284Y-143358285D01*
X103094284Y-143358285D02*
X103351427Y-143272571D01*
X103351427Y-143272571D02*
X103437141Y-143186857D01*
X103437141Y-143186857D02*
X103437141Y-142586857D01*
X103437141Y-142586857D02*
X103094284Y-142586857D01*
X104894284Y-143272571D02*
X104722856Y-143358285D01*
X104722856Y-143358285D02*
X104379999Y-143358285D01*
X104379999Y-143358285D02*
X104208570Y-143272571D01*
X104208570Y-143272571D02*
X104122856Y-143101142D01*
X104122856Y-143101142D02*
X104122856Y-142415428D01*
X104122856Y-142415428D02*
X104208570Y-142244000D01*
X104208570Y-142244000D02*
X104379999Y-142158285D01*
X104379999Y-142158285D02*
X104722856Y-142158285D01*
X104722856Y-142158285D02*
X104894284Y-142244000D01*
X104894284Y-142244000D02*
X104979999Y-142415428D01*
X104979999Y-142415428D02*
X104979999Y-142586857D01*
X104979999Y-142586857D02*
X104122856Y-142758285D01*
X105751427Y-142158285D02*
X105751427Y-143358285D01*
X105751427Y-142329714D02*
X105837141Y-142244000D01*
X105837141Y-142244000D02*
X106008570Y-142158285D01*
X106008570Y-142158285D02*
X106265713Y-142158285D01*
X106265713Y-142158285D02*
X106437141Y-142244000D01*
X106437141Y-142244000D02*
X106522856Y-142415428D01*
X106522856Y-142415428D02*
X106522856Y-143358285D01*
X108065712Y-143272571D02*
X107894284Y-143358285D01*
X107894284Y-143358285D02*
X107551427Y-143358285D01*
X107551427Y-143358285D02*
X107379998Y-143272571D01*
X107379998Y-143272571D02*
X107294284Y-143101142D01*
X107294284Y-143101142D02*
X107294284Y-142415428D01*
X107294284Y-142415428D02*
X107379998Y-142244000D01*
X107379998Y-142244000D02*
X107551427Y-142158285D01*
X107551427Y-142158285D02*
X107894284Y-142158285D01*
X107894284Y-142158285D02*
X108065712Y-142244000D01*
X108065712Y-142244000D02*
X108151427Y-142415428D01*
X108151427Y-142415428D02*
X108151427Y-142586857D01*
X108151427Y-142586857D02*
X107294284Y-142758285D01*
X108922855Y-143358285D02*
X108922855Y-142158285D01*
X108922855Y-142501142D02*
X109008569Y-142329714D01*
X109008569Y-142329714D02*
X109094284Y-142244000D01*
X109094284Y-142244000D02*
X109265712Y-142158285D01*
X109265712Y-142158285D02*
X109437141Y-142158285D01*
X110808570Y-143358285D02*
X110808570Y-142415428D01*
X110808570Y-142415428D02*
X110722855Y-142244000D01*
X110722855Y-142244000D02*
X110551427Y-142158285D01*
X110551427Y-142158285D02*
X110208570Y-142158285D01*
X110208570Y-142158285D02*
X110037141Y-142244000D01*
X110808570Y-143272571D02*
X110637141Y-143358285D01*
X110637141Y-143358285D02*
X110208570Y-143358285D01*
X110208570Y-143358285D02*
X110037141Y-143272571D01*
X110037141Y-143272571D02*
X109951427Y-143101142D01*
X109951427Y-143101142D02*
X109951427Y-142929714D01*
X109951427Y-142929714D02*
X110037141Y-142758285D01*
X110037141Y-142758285D02*
X110208570Y-142672571D01*
X110208570Y-142672571D02*
X110637141Y-142672571D01*
X110637141Y-142672571D02*
X110808570Y-142586857D01*
X111408569Y-142158285D02*
X112094283Y-142158285D01*
X111665712Y-141558285D02*
X111665712Y-143101142D01*
X111665712Y-143101142D02*
X111751426Y-143272571D01*
X111751426Y-143272571D02*
X111922855Y-143358285D01*
X111922855Y-143358285D02*
X112094283Y-143358285D01*
X112951426Y-143358285D02*
X112779997Y-143272571D01*
X112779997Y-143272571D02*
X112694283Y-143186857D01*
X112694283Y-143186857D02*
X112608569Y-143015428D01*
X112608569Y-143015428D02*
X112608569Y-142501142D01*
X112608569Y-142501142D02*
X112694283Y-142329714D01*
X112694283Y-142329714D02*
X112779997Y-142244000D01*
X112779997Y-142244000D02*
X112951426Y-142158285D01*
X112951426Y-142158285D02*
X113208569Y-142158285D01*
X113208569Y-142158285D02*
X113379997Y-142244000D01*
X113379997Y-142244000D02*
X113465712Y-142329714D01*
X113465712Y-142329714D02*
X113551426Y-142501142D01*
X113551426Y-142501142D02*
X113551426Y-143015428D01*
X113551426Y-143015428D02*
X113465712Y-143186857D01*
X113465712Y-143186857D02*
X113379997Y-143272571D01*
X113379997Y-143272571D02*
X113208569Y-143358285D01*
X113208569Y-143358285D02*
X112951426Y-143358285D01*
X114322854Y-143358285D02*
X114322854Y-142158285D01*
X114322854Y-142501142D02*
X114408568Y-142329714D01*
X114408568Y-142329714D02*
X114494283Y-142244000D01*
X114494283Y-142244000D02*
X114665711Y-142158285D01*
X114665711Y-142158285D02*
X114837140Y-142158285D01*
D11*
X112760000Y-135359420D02*
X112760000Y-135640580D01*
X111740000Y-135359420D02*
X111740000Y-135640580D01*
X100738781Y-129460030D02*
X100539970Y-129261219D01*
X101460030Y-128738781D02*
X101261219Y-128539970D01*
X121122500Y-128762742D02*
X121122500Y-129237258D01*
X120077500Y-128762742D02*
X120077500Y-129237258D01*
X112738781Y-117460030D02*
X112539970Y-117261219D01*
X113460030Y-116738781D02*
X113261219Y-116539970D01*
X100227500Y-132487258D02*
X100227500Y-132012742D01*
X101272500Y-132487258D02*
X101272500Y-132012742D01*
X95515000Y-117115580D02*
X95515000Y-116834420D01*
X96535000Y-117115580D02*
X96535000Y-116834420D01*
X101260000Y-138609420D02*
X101260000Y-138890580D01*
X100240000Y-138609420D02*
X100240000Y-138890580D01*
D12*
X94630000Y-122900000D02*
G75*
G03*
X94630000Y-122900000I-80000J0D01*
G01*
D11*
X116510000Y-111359420D02*
X116510000Y-111640580D01*
X115490000Y-111359420D02*
X115490000Y-111640580D01*
X116500000Y-101750000D02*
X116500000Y-103250000D01*
X117750000Y-105750000D02*
X122250000Y-105750000D01*
X122250000Y-99250000D02*
X117750000Y-99250000D01*
X123500000Y-103250000D02*
X123500000Y-101750000D01*
X114022500Y-103512742D02*
X114022500Y-103987258D01*
X112977500Y-103512742D02*
X112977500Y-103987258D01*
X96535000Y-113609420D02*
X96535000Y-113890580D01*
X95515000Y-113609420D02*
X95515000Y-113890580D01*
X99260000Y-138609420D02*
X99260000Y-138890580D01*
X98240000Y-138609420D02*
X98240000Y-138890580D01*
X110510000Y-107859420D02*
X110510000Y-108140580D01*
X109490000Y-107859420D02*
X109490000Y-108140580D01*
X101235000Y-99015000D02*
X99765000Y-99015000D01*
X99765000Y-99015000D02*
X99765000Y-101300000D01*
X101235000Y-101300000D02*
X101235000Y-99015000D01*
X111477500Y-108237258D02*
X111477500Y-107762742D01*
X112522500Y-108237258D02*
X112522500Y-107762742D01*
X93165580Y-107985000D02*
X92884420Y-107985000D01*
X93165580Y-106965000D02*
X92884420Y-106965000D01*
X92884420Y-114965000D02*
X93165580Y-114965000D01*
X92884420Y-115985000D02*
X93165580Y-115985000D01*
X101890000Y-117890000D02*
X101890000Y-118840000D01*
X101890000Y-118840000D02*
X100550000Y-118840000D01*
X101890000Y-128110000D02*
X101890000Y-127160000D01*
X102840000Y-117890000D02*
X101890000Y-117890000D01*
X102840000Y-128110000D02*
X101890000Y-128110000D01*
X111160000Y-117890000D02*
X112110000Y-117890000D01*
X111160000Y-128110000D02*
X112110000Y-128110000D01*
X112110000Y-117890000D02*
X112110000Y-118840000D01*
X112110000Y-128110000D02*
X112110000Y-127160000D01*
X105500000Y-136810000D02*
X108950000Y-136810000D01*
X105500000Y-136810000D02*
X103550000Y-136810000D01*
X105500000Y-131690000D02*
X107450000Y-131690000D01*
X105500000Y-131690000D02*
X103550000Y-131690000D01*
X101460030Y-117261219D02*
X101261219Y-117460030D01*
X100738781Y-116539970D02*
X100539970Y-116738781D01*
X107477500Y-108237258D02*
X107477500Y-107762742D01*
X108522500Y-108237258D02*
X108522500Y-107762742D01*
X110772500Y-135262742D02*
X110772500Y-135737258D01*
X109727500Y-135262742D02*
X109727500Y-135737258D01*
D13*
X117475000Y-109850000D02*
G75*
G03*
X117475000Y-109850000I-125000J0D01*
G01*
D11*
X95859420Y-124240000D02*
X96140580Y-124240000D01*
X95859420Y-125260000D02*
X96140580Y-125260000D01*
X113727500Y-132487258D02*
X113727500Y-132012742D01*
X114772500Y-132487258D02*
X114772500Y-132012742D01*
X95859420Y-126240000D02*
X96140580Y-126240000D01*
X95859420Y-127260000D02*
X96140580Y-127260000D01*
X99260000Y-132109420D02*
X99260000Y-132390580D01*
X98240000Y-132109420D02*
X98240000Y-132390580D01*
X121990000Y-111640580D02*
X121990000Y-111359420D01*
X123010000Y-111640580D02*
X123010000Y-111359420D01*
X103260000Y-138609420D02*
X103260000Y-138890580D01*
X102240000Y-138609420D02*
X102240000Y-138890580D01*
X99977500Y-103987258D02*
X99977500Y-103512742D01*
X101022500Y-103987258D02*
X101022500Y-103512742D01*
D14*
X124637500Y-153800000D02*
X124637500Y-153800000D01*
X124637500Y-153600000D02*
X124637500Y-153600000D01*
X124637500Y-153600000D02*
G75*
G03*
X124637500Y-153800000I0J-100000D01*
G01*
X124637500Y-153800000D02*
G75*
G03*
X124637500Y-153600000I0J100000D01*
G01*
D11*
X95272500Y-135262742D02*
X95272500Y-135737258D01*
X94227500Y-135262742D02*
X94227500Y-135737258D01*
X110772500Y-132012742D02*
X110772500Y-132487258D01*
X109727500Y-132012742D02*
X109727500Y-132487258D01*
X102522500Y-107762742D02*
X102522500Y-108237258D01*
X101477500Y-107762742D02*
X101477500Y-108237258D01*
X101272500Y-135262742D02*
X101272500Y-135737258D01*
X100227500Y-135262742D02*
X100227500Y-135737258D01*
D14*
X94525000Y-116725000D02*
X94525000Y-117925000D01*
D11*
X111740000Y-132390580D02*
X111740000Y-132109420D01*
X112760000Y-132390580D02*
X112760000Y-132109420D01*
X111762742Y-137477500D02*
X112237258Y-137477500D01*
X111762742Y-138522500D02*
X112237258Y-138522500D01*
X99760000Y-124634420D02*
X99760000Y-124915580D01*
X98740000Y-124634420D02*
X98740000Y-124915580D01*
X112539970Y-128738781D02*
X112738781Y-128539970D01*
X113261219Y-129460030D02*
X113460030Y-129261219D01*
X94987258Y-133522500D02*
X94512742Y-133522500D01*
X94987258Y-132477500D02*
X94512742Y-132477500D01*
X98740000Y-121665580D02*
X98740000Y-121384420D01*
X99760000Y-121665580D02*
X99760000Y-121384420D01*
X100727500Y-113487258D02*
X100727500Y-113012742D01*
X101772500Y-113487258D02*
X101772500Y-113012742D01*
X124760000Y-111334420D02*
X124760000Y-111615580D01*
X123740000Y-111334420D02*
X123740000Y-111615580D01*
X96227500Y-135737258D02*
X96227500Y-135262742D01*
X97272500Y-135737258D02*
X97272500Y-135262742D01*
X99260000Y-135359420D02*
X99260000Y-135640580D01*
X98240000Y-135359420D02*
X98240000Y-135640580D01*
X92884420Y-112990000D02*
X93165580Y-112990000D01*
X92884420Y-114010000D02*
X93165580Y-114010000D01*
X102890580Y-111260000D02*
X102609420Y-111260000D01*
X102890580Y-110240000D02*
X102609420Y-110240000D01*
X106522500Y-107762742D02*
X106522500Y-108237258D01*
X105477500Y-107762742D02*
X105477500Y-108237258D01*
X102740000Y-113390580D02*
X102740000Y-113109420D01*
X103760000Y-113390580D02*
X103760000Y-113109420D01*
D14*
X91525000Y-112325000D02*
X91525000Y-111125000D01*
D11*
X96634420Y-118965000D02*
X96915580Y-118965000D01*
X96634420Y-119985000D02*
X96915580Y-119985000D01*
X108512742Y-137477500D02*
X108987258Y-137477500D01*
X108512742Y-138522500D02*
X108987258Y-138522500D01*
X109110000Y-110140000D02*
X109110000Y-110865000D01*
X108385000Y-114360000D02*
X109110000Y-114360000D01*
X108385000Y-110140000D02*
X109110000Y-110140000D01*
X105615000Y-114360000D02*
X104890000Y-114360000D01*
X105615000Y-110140000D02*
X104890000Y-110140000D01*
X104890000Y-114360000D02*
X104890000Y-113635000D01*
X104890000Y-110140000D02*
X104890000Y-110865000D01*
X104510000Y-107859420D02*
X104510000Y-108140580D01*
X103490000Y-107859420D02*
X103490000Y-108140580D01*
X114235000Y-99015000D02*
X112765000Y-99015000D01*
X112765000Y-99015000D02*
X112765000Y-101300000D01*
X114235000Y-101300000D02*
X114235000Y-99015000D01*
%LPC*%
D15*
X97524999Y-108289999D03*
X97524999Y-110659999D03*
D16*
X124039999Y-107499999D03*
D17*
X121499999Y-107499999D03*
X118959999Y-107499999D03*
X116419999Y-107499999D03*
D18*
X112250000Y-134725000D03*
X112250000Y-136275000D03*
D19*
X101548008Y-129548008D03*
X100451992Y-128451992D03*
D20*
X120600000Y-128175000D03*
X120600000Y-129825000D03*
D19*
X113548008Y-117548008D03*
X112451992Y-116451992D03*
D21*
X100750000Y-133075000D03*
X100750000Y-131425000D03*
D22*
X92000000Y-100250000D03*
X97000000Y-100250000D03*
X92000000Y-102250000D03*
X97000000Y-102250000D03*
X92000000Y-104250000D03*
X97000000Y-104250000D03*
D23*
X96025000Y-117750000D03*
X96025000Y-116200000D03*
D24*
X116949999Y-132549999D03*
X116949999Y-135749999D03*
X121349999Y-135749999D03*
X121349999Y-132549999D03*
D18*
X100750000Y-137975000D03*
X100750000Y-139525000D03*
D25*
X95199999Y-122699999D03*
X97299999Y-122699999D03*
X97299999Y-121299999D03*
X95199999Y-121299999D03*
D26*
X92684999Y-153799999D03*
D27*
X95225000Y-153800000D03*
X97765000Y-153800000D03*
X100305000Y-153800000D03*
D18*
X116000000Y-110725000D03*
X116000000Y-112275000D03*
D28*
X116750000Y-100250000D03*
X123250000Y-100250000D03*
X116750000Y-104750000D03*
X123250000Y-104750000D03*
D16*
X106839999Y-145959999D03*
D17*
X106839999Y-148499999D03*
X104299999Y-145959999D03*
X104299999Y-148499999D03*
D20*
X113500000Y-102925000D03*
X113500000Y-104575000D03*
D18*
X96025000Y-112975000D03*
X96025000Y-114525000D03*
X98750000Y-137975000D03*
X98750000Y-139525000D03*
X110000000Y-107225000D03*
X110000000Y-108775000D03*
D29*
X100500000Y-99712500D03*
X100500000Y-101287500D03*
D21*
X112000000Y-108825000D03*
X112000000Y-107175000D03*
D30*
X93800000Y-107475000D03*
X92250000Y-107475000D03*
D31*
X92250000Y-115475000D03*
X93800000Y-115475000D03*
D32*
X101325000Y-119250000D03*
X101325000Y-119750000D03*
X101325000Y-120250000D03*
X101325000Y-120750000D03*
X101325000Y-121250000D03*
X101325000Y-121750000D03*
X101325000Y-122250000D03*
X101325000Y-122750000D03*
X101325000Y-123250000D03*
X101325000Y-123750000D03*
X101325000Y-124250000D03*
X101325000Y-124750000D03*
X101325000Y-125250000D03*
X101325000Y-125750000D03*
X101325000Y-126250000D03*
X101325000Y-126750000D03*
D33*
X103250000Y-128675000D03*
X103750000Y-128675000D03*
X104250000Y-128675000D03*
X104750000Y-128675000D03*
X105250000Y-128675000D03*
X105750000Y-128675000D03*
X106250000Y-128675000D03*
X106750000Y-128675000D03*
X107250000Y-128675000D03*
X107750000Y-128675000D03*
X108250000Y-128675000D03*
X108750000Y-128675000D03*
X109250000Y-128675000D03*
X109750000Y-128675000D03*
X110250000Y-128675000D03*
X110750000Y-128675000D03*
D32*
X112675000Y-126750000D03*
X112675000Y-126250000D03*
X112675000Y-125750000D03*
X112675000Y-125250000D03*
X112675000Y-124750000D03*
X112675000Y-124250000D03*
X112675000Y-123750000D03*
X112675000Y-123250000D03*
X112675000Y-122750000D03*
X112675000Y-122250000D03*
X112675000Y-121750000D03*
X112675000Y-121250000D03*
X112675000Y-120750000D03*
X112675000Y-120250000D03*
X112675000Y-119750000D03*
X112675000Y-119250000D03*
D33*
X110750000Y-117325000D03*
X110250000Y-117325000D03*
X109750000Y-117325000D03*
X109250000Y-117325000D03*
X108750000Y-117325000D03*
X108250000Y-117325000D03*
X107750000Y-117325000D03*
X107250000Y-117325000D03*
X106750000Y-117325000D03*
X106250000Y-117325000D03*
X105750000Y-117325000D03*
X105250000Y-117325000D03*
X104750000Y-117325000D03*
X104250000Y-117325000D03*
X103750000Y-117325000D03*
X103250000Y-117325000D03*
D34*
X107975000Y-136155000D03*
X107975000Y-134885000D03*
X107975000Y-133615000D03*
X107975000Y-132345000D03*
X103025000Y-132345000D03*
X103025000Y-133615000D03*
X103025000Y-134885000D03*
X103025000Y-136155000D03*
D35*
X101548008Y-116451992D03*
X100451992Y-117548008D03*
D21*
X108000000Y-108825000D03*
X108000000Y-107175000D03*
D20*
X110250000Y-134675000D03*
X110250000Y-136325000D03*
D36*
X117749999Y-110549999D03*
X117749999Y-111499999D03*
X117749999Y-112449999D03*
X120749999Y-112449999D03*
X120749999Y-111499999D03*
X120749999Y-110549999D03*
D37*
X119249999Y-111499999D03*
D31*
X95225000Y-124750000D03*
X96775000Y-124750000D03*
D21*
X114250000Y-133075000D03*
X114250000Y-131425000D03*
D31*
X95225000Y-126750000D03*
X96775000Y-126750000D03*
D18*
X98750000Y-131475000D03*
X98750000Y-133025000D03*
D23*
X122500000Y-112275000D03*
X122500000Y-110725000D03*
D18*
X102750000Y-137975000D03*
X102750000Y-139525000D03*
D21*
X100500000Y-104575000D03*
X100500000Y-102925000D03*
D38*
X118837500Y-152400000D03*
X118837500Y-145400000D03*
D39*
X115137499Y-151499999D03*
X122537499Y-153499999D03*
D40*
X122637499Y-144099999D03*
D20*
X94750000Y-134675000D03*
X94750000Y-136325000D03*
X110250000Y-131425000D03*
X110250000Y-133075000D03*
X102000000Y-107175000D03*
X102000000Y-108825000D03*
D41*
X98274999Y-116734999D03*
X98274999Y-113464999D03*
D20*
X100750000Y-134675000D03*
X100750000Y-136325000D03*
D42*
X92074999Y-119624999D03*
X93974999Y-117324999D03*
X93024999Y-117324999D03*
X92074999Y-117324999D03*
X93974999Y-119624999D03*
D23*
X112250000Y-133025000D03*
X112250000Y-131475000D03*
D43*
X111175000Y-138000000D03*
X112825000Y-138000000D03*
D18*
X99250000Y-124000000D03*
X99250000Y-125550000D03*
D44*
X112451992Y-129548008D03*
X113548008Y-128451992D03*
D45*
X95575000Y-133000000D03*
X93925000Y-133000000D03*
D23*
X99250000Y-122300000D03*
X99250000Y-120750000D03*
D46*
X119749999Y-122849999D03*
X119749999Y-116149999D03*
D21*
X101250000Y-114075000D03*
X101250000Y-112425000D03*
D18*
X124250000Y-110700000D03*
X124250000Y-112250000D03*
D21*
X96750000Y-136325000D03*
X96750000Y-134675000D03*
D47*
X109890000Y-103380000D03*
X104110000Y-103380000D03*
D48*
X110199999Y-104514999D03*
X109399999Y-104514999D03*
D49*
X108249999Y-104514999D03*
X107249999Y-104514999D03*
X106749999Y-104514999D03*
X105749999Y-104514999D03*
D48*
X104599999Y-104514999D03*
X103799999Y-104514999D03*
X103799999Y-104514999D03*
X104599999Y-104514999D03*
D49*
X105249999Y-104514999D03*
X106249999Y-104514999D03*
X107749999Y-104514999D03*
X108749999Y-104514999D03*
D48*
X109399999Y-104514999D03*
X110199999Y-104514999D03*
D50*
X111319999Y-103879999D03*
D51*
X111319999Y-99699999D03*
D50*
X102679999Y-103879999D03*
D51*
X102679999Y-99699999D03*
D18*
X98750000Y-134725000D03*
X98750000Y-136275000D03*
D31*
X92250000Y-113500000D03*
X93800000Y-113500000D03*
D30*
X103525000Y-110750000D03*
X101975000Y-110750000D03*
D20*
X106000000Y-107175000D03*
X106000000Y-108825000D03*
D23*
X103250000Y-114025000D03*
X103250000Y-112475000D03*
D52*
X92075000Y-111775000D03*
X93025000Y-111775000D03*
X93975000Y-111775000D03*
X93975000Y-109175000D03*
X93025000Y-109175000D03*
X92075000Y-109175000D03*
D31*
X96000000Y-119475000D03*
X97550000Y-119475000D03*
D43*
X107925000Y-138000000D03*
X109575000Y-138000000D03*
D53*
X108950000Y-113225000D03*
X108950000Y-112575000D03*
X108950000Y-111925000D03*
X108950000Y-111275000D03*
D54*
X107975000Y-110300000D03*
X107325000Y-110300000D03*
X106675000Y-110300000D03*
X106025000Y-110300000D03*
D53*
X105050000Y-111275000D03*
X105050000Y-111925000D03*
X105050000Y-112575000D03*
X105050000Y-113225000D03*
D54*
X106025000Y-114200000D03*
X106675000Y-114200000D03*
X107325000Y-114200000D03*
X107975000Y-114200000D03*
D55*
X106999999Y-112249999D03*
D18*
X104000000Y-107225000D03*
X104000000Y-108775000D03*
D29*
X113500000Y-99712500D03*
X113500000Y-101287500D03*
M02*
