G04 #@! TF.GenerationSoftware,KiCad,Pcbnew,7.0.2-6a45011f42~172~ubuntu22.04.1*
G04 #@! TF.CreationDate,2023-04-25T20:16:16+02:00*
G04 #@! TF.ProjectId,Signal Generator,5369676e-616c-4204-9765-6e657261746f,2*
G04 #@! TF.SameCoordinates,Original*
G04 #@! TF.FileFunction,Copper,L4,Bot*
G04 #@! TF.FilePolarity,Positive*
%FSLAX46Y46*%
G04 Gerber Fmt 4.6, Leading zero omitted, Abs format (unit mm)*
G04 Created by KiCad (PCBNEW 7.0.2-6a45011f42~172~ubuntu22.04.1) date 2023-04-25 20:16:16*
%MOMM*%
%LPD*%
G01*
G04 APERTURE LIST*
G04 #@! TA.AperFunction,ComponentPad*
%ADD10O,1.000000X2.100000*%
G04 #@! TD*
G04 #@! TA.AperFunction,ComponentPad*
%ADD11O,1.000000X1.800000*%
G04 #@! TD*
G04 #@! TA.AperFunction,ComponentPad*
%ADD12R,1.700000X1.700000*%
G04 #@! TD*
G04 #@! TA.AperFunction,ComponentPad*
%ADD13O,1.700000X1.700000*%
G04 #@! TD*
G04 #@! TA.AperFunction,ComponentPad*
%ADD14C,2.000000*%
G04 #@! TD*
G04 #@! TA.AperFunction,ComponentPad*
%ADD15R,2.200000X2.200000*%
G04 #@! TD*
G04 #@! TA.AperFunction,ComponentPad*
%ADD16C,2.200000*%
G04 #@! TD*
G04 #@! TA.AperFunction,ComponentPad*
%ADD17C,1.524000*%
G04 #@! TD*
G04 #@! TA.AperFunction,SMDPad,CuDef*
%ADD18R,3.330000X0.700000*%
G04 #@! TD*
G04 #@! TA.AperFunction,SMDPad,CuDef*
%ADD19R,1.830000X1.140000*%
G04 #@! TD*
G04 #@! TA.AperFunction,SMDPad,CuDef*
%ADD20R,2.800000X0.860000*%
G04 #@! TD*
G04 #@! TA.AperFunction,SMDPad,CuDef*
%ADD21R,0.930000X0.900000*%
G04 #@! TD*
G04 #@! TA.AperFunction,SMDPad,CuDef*
%ADD22R,0.780000X1.050000*%
G04 #@! TD*
G04 #@! TA.AperFunction,SMDPad,CuDef*
%ADD23R,1.100000X0.700000*%
G04 #@! TD*
G04 #@! TA.AperFunction,ViaPad*
%ADD24C,0.460000*%
G04 #@! TD*
G04 #@! TA.AperFunction,ViaPad*
%ADD25C,0.800000*%
G04 #@! TD*
G04 #@! TA.AperFunction,Conductor*
%ADD26C,0.250000*%
G04 #@! TD*
G04 #@! TA.AperFunction,Conductor*
%ADD27C,0.200000*%
G04 #@! TD*
G04 APERTURE END LIST*
D10*
X111320000Y-103880000D03*
D11*
X111320000Y-99700000D03*
D10*
X102680000Y-103880000D03*
D11*
X102680000Y-99700000D03*
D12*
X106840000Y-145960000D03*
D13*
X106840000Y-148500000D03*
X104300000Y-145960000D03*
X104300000Y-148500000D03*
D14*
X116750000Y-100250000D03*
X123250000Y-100250000D03*
X116750000Y-104750000D03*
X123250000Y-104750000D03*
D15*
X92685000Y-153800000D03*
D16*
X95225000Y-153800000D03*
X97765000Y-153800000D03*
X100305000Y-153800000D03*
D17*
X92000000Y-100250000D03*
X97000000Y-100250000D03*
X92000000Y-102250000D03*
X97000000Y-102250000D03*
X92000000Y-104250000D03*
X97000000Y-104250000D03*
D12*
X124040000Y-107500000D03*
D13*
X121500000Y-107500000D03*
X118960000Y-107500000D03*
X116420000Y-107500000D03*
D18*
X102665000Y-120700000D03*
D19*
X91415000Y-120920000D03*
D20*
X91900000Y-133580000D03*
D18*
X102665000Y-133660000D03*
D21*
X103865000Y-123010000D03*
D22*
X103940000Y-127275000D03*
D23*
X91400000Y-124800000D03*
X91400000Y-125900000D03*
X91400000Y-127000000D03*
X91400000Y-128100000D03*
X91400000Y-129200000D03*
X91400000Y-130300000D03*
X91400000Y-131400000D03*
X91400000Y-132500000D03*
D24*
X104725000Y-125225000D03*
X99700000Y-133500000D03*
D25*
X103500000Y-118900000D03*
D24*
X103900000Y-123000000D03*
X91400000Y-130300000D03*
X93025000Y-116425000D03*
X97800000Y-133500000D03*
D25*
X102200000Y-127750000D03*
X102800000Y-119600000D03*
X106250000Y-132650000D03*
D24*
X108600000Y-109900000D03*
X112650000Y-100350000D03*
X104425000Y-112575000D03*
X101400000Y-100200000D03*
X112000000Y-118000000D03*
D25*
X121500000Y-112450000D03*
X93150000Y-121550000D03*
D24*
X91400000Y-128100000D03*
X101500000Y-118000000D03*
D25*
X103800000Y-130600000D03*
X99300000Y-123000000D03*
X111600000Y-128750000D03*
D24*
X92500000Y-128100000D03*
X114000000Y-106000000D03*
X100500000Y-111500000D03*
X110750000Y-116000000D03*
X118550000Y-109550000D03*
D25*
X95000000Y-107500000D03*
D24*
X104100000Y-111800000D03*
X104600000Y-104500000D03*
X119300000Y-109550000D03*
D25*
X119700000Y-135750000D03*
X95000000Y-109200000D03*
X100600000Y-105700000D03*
D24*
X109400000Y-104500000D03*
X114000000Y-120250000D03*
X107750000Y-103500000D03*
X106750000Y-103526780D03*
X108700000Y-114000000D03*
X105600000Y-110900000D03*
X107500000Y-121000000D03*
D25*
X115137500Y-151400000D03*
X122637500Y-144000000D03*
D24*
X113300000Y-131400000D03*
X94300000Y-131400000D03*
X104746045Y-119996045D03*
X110400000Y-138000000D03*
X109000000Y-127500000D03*
X110000000Y-119000000D03*
X91400000Y-124800000D03*
X91400000Y-125900000D03*
X107000000Y-125900000D03*
X106500000Y-120000000D03*
X110000000Y-124000000D03*
X91400000Y-131400000D03*
X91400000Y-132500000D03*
X111000000Y-123000000D03*
D26*
X104725000Y-125225000D02*
X103940000Y-126010000D01*
X103940000Y-126010000D02*
X103940000Y-127275000D01*
X112300000Y-106200000D02*
X108600000Y-109900000D01*
X112650000Y-100350000D02*
X112300000Y-100700000D01*
X112300000Y-100700000D02*
X112300000Y-106200000D01*
X101700000Y-110200000D02*
X104075000Y-112575000D01*
X101700000Y-100500000D02*
X101700000Y-110200000D01*
X101400000Y-100200000D02*
X101700000Y-100500000D01*
X104075000Y-112575000D02*
X104425000Y-112575000D01*
X97000000Y-102250000D02*
X92000000Y-102250000D01*
X99700000Y-104950000D02*
X97000000Y-102250000D01*
X100500000Y-111500000D02*
X100500000Y-110400000D01*
X100500000Y-110400000D02*
X99700000Y-109600000D01*
X99700000Y-109600000D02*
X99700000Y-104950000D01*
X118960000Y-107500000D02*
X110750000Y-115710000D01*
X110750000Y-115710000D02*
X110750000Y-116000000D01*
X120250000Y-108750000D02*
X121500000Y-107500000D01*
X114000000Y-120250000D02*
X120250000Y-114000000D01*
X120250000Y-114000000D02*
X120250000Y-108750000D01*
D27*
X107720000Y-103530000D02*
X106753220Y-103530000D01*
X107750000Y-103500000D02*
X107720000Y-103530000D01*
X106753220Y-103530000D02*
X106750000Y-103526780D01*
D26*
X94300000Y-124000000D02*
X96200000Y-122100000D01*
X106400000Y-122100000D02*
X107500000Y-121000000D01*
X94300000Y-127100000D02*
X94300000Y-124000000D01*
X92200000Y-129200000D02*
X94300000Y-127100000D01*
X91400000Y-129200000D02*
X92200000Y-129200000D01*
X96200000Y-122100000D02*
X106400000Y-122100000D01*
X111037500Y-147300000D02*
X105640000Y-147300000D01*
X115137500Y-151400000D02*
X111037500Y-147300000D01*
X105640000Y-147300000D02*
X104300000Y-145960000D01*
X108800000Y-144000000D02*
X106840000Y-145960000D01*
X122637500Y-144000000D02*
X108800000Y-144000000D01*
X104746045Y-119996045D02*
X114100000Y-110642091D01*
X114100000Y-110642091D02*
X114100000Y-107400000D01*
X114100000Y-107400000D02*
X116750000Y-104750000D01*
X109000000Y-127500000D02*
X110400000Y-128900000D01*
X110400000Y-128900000D02*
X110400000Y-138000000D01*
X96125000Y-121375000D02*
X105125000Y-121375000D01*
X105125000Y-121375000D02*
X106500000Y-120000000D01*
X91400000Y-127000000D02*
X90950000Y-127000000D01*
X91150000Y-123250000D02*
X94250000Y-123250000D01*
X90950000Y-127000000D02*
X90525000Y-126575000D01*
X90525000Y-126575000D02*
X90525000Y-123875000D01*
X90525000Y-123875000D02*
X91150000Y-123250000D01*
X94250000Y-123250000D02*
X96125000Y-121375000D01*
G04 #@! TA.AperFunction,Conductor*
G36*
X125958691Y-97519407D02*
G01*
X125994655Y-97568907D01*
X125999500Y-97599500D01*
X125999500Y-157400500D01*
X125980593Y-157458691D01*
X125931093Y-157494655D01*
X125900500Y-157499500D01*
X125100000Y-157499500D01*
X90099445Y-157480054D01*
X90041265Y-157461114D01*
X90005328Y-157411594D01*
X90000500Y-157381054D01*
X90000500Y-154919748D01*
X91384500Y-154919748D01*
X91396132Y-154978230D01*
X91396133Y-154978231D01*
X91440447Y-155044552D01*
X91484762Y-155074162D01*
X91506769Y-155088867D01*
X91565252Y-155100500D01*
X91565253Y-155100500D01*
X93804747Y-155100500D01*
X93804748Y-155100500D01*
X93863231Y-155088867D01*
X93929552Y-155044552D01*
X93973867Y-154978231D01*
X93985500Y-154919748D01*
X93985500Y-154611150D01*
X94004407Y-154552960D01*
X94053907Y-154516996D01*
X94115093Y-154516996D01*
X94164593Y-154552960D01*
X94165596Y-154554368D01*
X94224948Y-154639133D01*
X94224950Y-154639135D01*
X94224953Y-154639139D01*
X94385861Y-154800047D01*
X94572266Y-154930568D01*
X94572267Y-154930568D01*
X94572268Y-154930569D01*
X94778499Y-155026737D01*
X94778500Y-155026737D01*
X94778504Y-155026739D01*
X94998308Y-155085635D01*
X95225000Y-155105468D01*
X95451692Y-155085635D01*
X95671496Y-155026739D01*
X95877734Y-154930568D01*
X96064139Y-154800047D01*
X96225047Y-154639139D01*
X96355568Y-154452734D01*
X96405277Y-154346132D01*
X96447002Y-154301388D01*
X96507063Y-154289713D01*
X96562516Y-154315571D01*
X96584723Y-154346135D01*
X96634431Y-154452733D01*
X96634432Y-154452734D01*
X96764953Y-154639139D01*
X96925861Y-154800047D01*
X97112266Y-154930568D01*
X97112267Y-154930568D01*
X97112268Y-154930569D01*
X97318499Y-155026737D01*
X97318500Y-155026737D01*
X97318504Y-155026739D01*
X97538308Y-155085635D01*
X97765000Y-155105468D01*
X97991692Y-155085635D01*
X98211496Y-155026739D01*
X98417734Y-154930568D01*
X98604139Y-154800047D01*
X98765047Y-154639139D01*
X98895568Y-154452734D01*
X98945275Y-154346136D01*
X98987004Y-154301388D01*
X99047065Y-154289713D01*
X99102518Y-154315571D01*
X99124724Y-154346136D01*
X99174430Y-154452732D01*
X99174433Y-154452736D01*
X99304953Y-154639139D01*
X99465861Y-154800047D01*
X99652266Y-154930568D01*
X99652267Y-154930568D01*
X99652268Y-154930569D01*
X99858499Y-155026737D01*
X99858500Y-155026737D01*
X99858504Y-155026739D01*
X100078308Y-155085635D01*
X100305000Y-155105468D01*
X100531692Y-155085635D01*
X100751496Y-155026739D01*
X100957734Y-154930568D01*
X101144139Y-154800047D01*
X101305047Y-154639139D01*
X101435568Y-154452734D01*
X101531739Y-154246496D01*
X101590635Y-154026692D01*
X101610468Y-153800000D01*
X101590635Y-153573308D01*
X101531739Y-153353504D01*
X101506142Y-153298612D01*
X101435569Y-153147268D01*
X101434968Y-153146410D01*
X101305047Y-152960861D01*
X101144139Y-152799953D01*
X100957734Y-152669432D01*
X100957733Y-152669431D01*
X100957731Y-152669430D01*
X100751500Y-152573262D01*
X100531689Y-152514364D01*
X100305000Y-152494531D01*
X100078310Y-152514364D01*
X99858499Y-152573262D01*
X99652268Y-152669430D01*
X99465864Y-152799950D01*
X99304950Y-152960864D01*
X99174431Y-153147266D01*
X99124724Y-153253864D01*
X99082996Y-153298612D01*
X99022935Y-153310286D01*
X98967482Y-153284428D01*
X98945276Y-153253864D01*
X98895568Y-153147266D01*
X98850187Y-153082454D01*
X98765047Y-152960861D01*
X98604139Y-152799953D01*
X98417734Y-152669432D01*
X98417733Y-152669431D01*
X98417731Y-152669430D01*
X98211500Y-152573262D01*
X97991689Y-152514364D01*
X97765000Y-152494531D01*
X97538310Y-152514364D01*
X97318499Y-152573262D01*
X97112268Y-152669430D01*
X96925864Y-152799950D01*
X96764950Y-152960864D01*
X96634431Y-153147266D01*
X96584724Y-153253864D01*
X96542996Y-153298612D01*
X96482935Y-153310286D01*
X96427482Y-153284428D01*
X96405276Y-153253864D01*
X96355568Y-153147266D01*
X96310187Y-153082454D01*
X96225047Y-152960861D01*
X96064139Y-152799953D01*
X95877734Y-152669432D01*
X95877733Y-152669431D01*
X95877731Y-152669430D01*
X95671500Y-152573262D01*
X95451689Y-152514364D01*
X95225000Y-152494531D01*
X94998310Y-152514364D01*
X94778499Y-152573262D01*
X94572268Y-152669430D01*
X94385864Y-152799950D01*
X94224950Y-152960864D01*
X94165596Y-153045632D01*
X94116731Y-153082454D01*
X94055555Y-153083522D01*
X94005435Y-153048428D01*
X93985515Y-152990576D01*
X93985500Y-152988848D01*
X93985500Y-152680253D01*
X93985500Y-152680252D01*
X93973867Y-152621769D01*
X93959162Y-152599761D01*
X93929552Y-152555447D01*
X93863231Y-152511133D01*
X93863230Y-152511132D01*
X93804748Y-152499500D01*
X91565252Y-152499500D01*
X91536010Y-152505316D01*
X91506768Y-152511133D01*
X91440447Y-152555447D01*
X91396133Y-152621768D01*
X91396132Y-152621769D01*
X91396133Y-152621769D01*
X91384500Y-152680252D01*
X91384500Y-154919748D01*
X90000500Y-154919748D01*
X90000500Y-152400000D01*
X117781916Y-152400000D01*
X117802199Y-152605933D01*
X117824744Y-152680253D01*
X117862268Y-152803954D01*
X117959815Y-152986450D01*
X118091090Y-153146410D01*
X118251050Y-153277685D01*
X118433546Y-153375232D01*
X118631566Y-153435300D01*
X118785892Y-153450500D01*
X118788331Y-153450500D01*
X118886669Y-153450500D01*
X118889108Y-153450500D01*
X119043434Y-153435300D01*
X119241454Y-153375232D01*
X119423950Y-153277685D01*
X119583910Y-153146410D01*
X119715185Y-152986450D01*
X119812732Y-152803954D01*
X119872800Y-152605934D01*
X119893083Y-152400000D01*
X119872800Y-152194066D01*
X119812732Y-151996046D01*
X119715185Y-151813550D01*
X119583910Y-151653590D01*
X119423950Y-151522315D01*
X119241454Y-151424768D01*
X119241453Y-151424767D01*
X119241452Y-151424767D01*
X119043432Y-151364699D01*
X118891540Y-151349739D01*
X118891529Y-151349738D01*
X118889108Y-151349500D01*
X118785892Y-151349500D01*
X118783471Y-151349738D01*
X118783459Y-151349739D01*
X118631567Y-151364699D01*
X118433547Y-151424767D01*
X118251049Y-151522315D01*
X118091090Y-151653590D01*
X117959815Y-151813549D01*
X117862267Y-151996047D01*
X117802199Y-152194066D01*
X117781916Y-152400000D01*
X90000500Y-152400000D01*
X90000500Y-148500000D01*
X103244416Y-148500000D01*
X103264699Y-148705933D01*
X103324767Y-148903952D01*
X103324768Y-148903954D01*
X103422315Y-149086450D01*
X103553590Y-149246410D01*
X103713550Y-149377685D01*
X103896046Y-149475232D01*
X104094066Y-149535300D01*
X104300000Y-149555583D01*
X104505934Y-149535300D01*
X104703954Y-149475232D01*
X104886450Y-149377685D01*
X105046410Y-149246410D01*
X105177685Y-149086450D01*
X105275232Y-148903954D01*
X105335300Y-148705934D01*
X105355583Y-148500000D01*
X105335300Y-148294066D01*
X105275232Y-148096046D01*
X105177685Y-147913550D01*
X105046410Y-147753590D01*
X104886450Y-147622315D01*
X104703954Y-147524768D01*
X104703953Y-147524767D01*
X104703952Y-147524767D01*
X104505933Y-147464699D01*
X104299999Y-147444416D01*
X104094066Y-147464699D01*
X103896047Y-147524767D01*
X103713549Y-147622315D01*
X103553590Y-147753590D01*
X103422315Y-147913549D01*
X103324767Y-148096047D01*
X103264699Y-148294066D01*
X103244416Y-148500000D01*
X90000500Y-148500000D01*
X90000500Y-145959999D01*
X103244416Y-145959999D01*
X103264699Y-146165933D01*
X103324767Y-146363952D01*
X103324768Y-146363954D01*
X103422315Y-146546450D01*
X103553590Y-146706410D01*
X103713550Y-146837685D01*
X103896046Y-146935232D01*
X104094066Y-146995300D01*
X104300000Y-147015583D01*
X104505934Y-146995300D01*
X104592155Y-146969145D01*
X104703952Y-146935233D01*
X104703954Y-146935232D01*
X104711497Y-146931199D01*
X104771727Y-146920439D01*
X104826781Y-146947136D01*
X104828175Y-146948502D01*
X105396741Y-147517068D01*
X105402565Y-147523424D01*
X105427545Y-147553194D01*
X105427547Y-147553195D01*
X105461203Y-147572627D01*
X105468473Y-147577257D01*
X105500316Y-147599554D01*
X105501761Y-147599941D01*
X105501768Y-147599943D01*
X105525650Y-147609834D01*
X105526955Y-147610588D01*
X105526956Y-147610588D01*
X105526958Y-147610589D01*
X105552029Y-147615008D01*
X105565228Y-147617336D01*
X105573638Y-147619199D01*
X105611193Y-147629263D01*
X105611193Y-147629262D01*
X105611194Y-147629263D01*
X105633978Y-147627269D01*
X105649897Y-147625876D01*
X105658525Y-147625500D01*
X105989393Y-147625500D01*
X106047584Y-147644407D01*
X106083548Y-147693907D01*
X106083548Y-147755093D01*
X106065921Y-147787305D01*
X105962315Y-147913549D01*
X105864767Y-148096047D01*
X105804699Y-148294066D01*
X105784416Y-148499999D01*
X105804699Y-148705933D01*
X105864767Y-148903952D01*
X105864768Y-148903954D01*
X105962315Y-149086450D01*
X106093590Y-149246410D01*
X106253550Y-149377685D01*
X106436046Y-149475232D01*
X106634066Y-149535300D01*
X106840000Y-149555583D01*
X107045934Y-149535300D01*
X107243954Y-149475232D01*
X107426450Y-149377685D01*
X107586410Y-149246410D01*
X107717685Y-149086450D01*
X107815232Y-148903954D01*
X107875300Y-148705934D01*
X107895583Y-148500000D01*
X107875300Y-148294066D01*
X107815232Y-148096046D01*
X107717685Y-147913550D01*
X107614078Y-147787304D01*
X107591779Y-147730328D01*
X107607228Y-147671125D01*
X107654524Y-147632310D01*
X107690607Y-147625500D01*
X110861666Y-147625500D01*
X110919857Y-147644407D01*
X110931670Y-147654496D01*
X114514206Y-151237032D01*
X114541983Y-151291549D01*
X114542355Y-151319957D01*
X114531818Y-151399999D01*
X114552455Y-151556761D01*
X114612964Y-151702841D01*
X114709217Y-151828282D01*
X114805471Y-151902139D01*
X114834659Y-151924536D01*
X114980738Y-151985044D01*
X115137500Y-152005682D01*
X115294262Y-151985044D01*
X115440341Y-151924536D01*
X115565782Y-151828282D01*
X115662036Y-151702841D01*
X115722544Y-151556762D01*
X115743182Y-151400000D01*
X115722544Y-151243238D01*
X115662036Y-151097159D01*
X115639639Y-151067971D01*
X115565782Y-150971717D01*
X115440341Y-150875464D01*
X115294261Y-150814955D01*
X115158136Y-150797034D01*
X115137500Y-150794318D01*
X115137499Y-150794318D01*
X115057457Y-150804855D01*
X114997296Y-150793704D01*
X114974532Y-150776706D01*
X111280768Y-147082942D01*
X111274934Y-147076574D01*
X111249954Y-147046805D01*
X111216294Y-147027370D01*
X111209014Y-147022732D01*
X111177185Y-147000446D01*
X111175725Y-147000055D01*
X111151852Y-146990166D01*
X111150545Y-146989412D01*
X111150543Y-146989411D01*
X111150542Y-146989411D01*
X111112278Y-146982663D01*
X111103850Y-146980795D01*
X111066307Y-146970735D01*
X111030830Y-146973839D01*
X111027593Y-146974123D01*
X111018966Y-146974500D01*
X107982339Y-146974500D01*
X107924148Y-146955593D01*
X107888184Y-146906093D01*
X107885241Y-146856186D01*
X107890500Y-146829747D01*
X107890500Y-145410834D01*
X107909407Y-145352643D01*
X107919496Y-145340830D01*
X108905830Y-144354496D01*
X108960347Y-144326719D01*
X108975834Y-144325500D01*
X118224034Y-144325500D01*
X118282225Y-144344407D01*
X118318189Y-144393907D01*
X118318189Y-144455093D01*
X118282225Y-144504593D01*
X118270702Y-144511810D01*
X118251050Y-144522313D01*
X118091090Y-144653590D01*
X117959815Y-144813549D01*
X117862267Y-144996047D01*
X117802199Y-145194066D01*
X117781916Y-145400000D01*
X117802199Y-145605933D01*
X117862267Y-145803952D01*
X117862268Y-145803954D01*
X117959815Y-145986450D01*
X118091090Y-146146410D01*
X118251050Y-146277685D01*
X118433546Y-146375232D01*
X118631566Y-146435300D01*
X118785892Y-146450500D01*
X118788331Y-146450500D01*
X118886669Y-146450500D01*
X118889108Y-146450500D01*
X119043434Y-146435300D01*
X119241454Y-146375232D01*
X119423950Y-146277685D01*
X119583910Y-146146410D01*
X119715185Y-145986450D01*
X119812732Y-145803954D01*
X119872800Y-145605934D01*
X119893083Y-145400000D01*
X119872800Y-145194066D01*
X119812732Y-144996046D01*
X119715185Y-144813550D01*
X119583910Y-144653590D01*
X119500386Y-144585044D01*
X119423949Y-144522313D01*
X119404298Y-144511810D01*
X119361891Y-144467705D01*
X119353508Y-144407096D01*
X119382350Y-144353136D01*
X119437402Y-144326434D01*
X119450966Y-144325500D01*
X122081529Y-144325500D01*
X122139720Y-144344407D01*
X122160071Y-144364233D01*
X122209217Y-144428282D01*
X122260595Y-144467705D01*
X122334659Y-144524536D01*
X122480738Y-144585044D01*
X122637500Y-144605682D01*
X122794262Y-144585044D01*
X122940341Y-144524536D01*
X123065782Y-144428282D01*
X123162036Y-144302841D01*
X123222544Y-144156762D01*
X123243182Y-144000000D01*
X123222544Y-143843238D01*
X123162036Y-143697159D01*
X123139639Y-143667970D01*
X123065782Y-143571717D01*
X122940341Y-143475464D01*
X122794261Y-143414955D01*
X122658137Y-143397034D01*
X122637500Y-143394318D01*
X122637499Y-143394318D01*
X122480738Y-143414955D01*
X122334658Y-143475464D01*
X122209217Y-143571717D01*
X122160071Y-143635767D01*
X122109647Y-143670423D01*
X122081529Y-143674500D01*
X108818534Y-143674500D01*
X108809906Y-143674123D01*
X108806050Y-143673785D01*
X108771191Y-143670735D01*
X108733649Y-143680794D01*
X108725223Y-143682662D01*
X108686956Y-143689410D01*
X108685645Y-143690168D01*
X108661780Y-143700053D01*
X108660318Y-143700444D01*
X108628484Y-143722734D01*
X108621204Y-143727371D01*
X108587544Y-143746805D01*
X108562569Y-143776569D01*
X108556736Y-143782936D01*
X107459170Y-144880504D01*
X107404653Y-144908281D01*
X107389166Y-144909500D01*
X105970252Y-144909500D01*
X105941010Y-144915316D01*
X105911768Y-144921133D01*
X105845447Y-144965447D01*
X105801133Y-145031768D01*
X105789499Y-145090253D01*
X105789499Y-146750165D01*
X105770592Y-146808356D01*
X105721092Y-146844320D01*
X105659906Y-146844320D01*
X105620495Y-146820168D01*
X105288502Y-146488174D01*
X105260725Y-146433658D01*
X105270296Y-146373226D01*
X105271174Y-146371545D01*
X105275232Y-146363954D01*
X105335300Y-146165934D01*
X105355583Y-145960000D01*
X105335300Y-145754066D01*
X105275232Y-145556046D01*
X105177685Y-145373550D01*
X105046410Y-145213590D01*
X104886450Y-145082315D01*
X104703954Y-144984768D01*
X104703953Y-144984767D01*
X104703952Y-144984767D01*
X104505933Y-144924699D01*
X104299999Y-144904416D01*
X104094066Y-144924699D01*
X103896047Y-144984767D01*
X103713549Y-145082315D01*
X103553590Y-145213590D01*
X103422315Y-145373549D01*
X103324767Y-145556047D01*
X103264699Y-145754066D01*
X103244416Y-145959999D01*
X90000500Y-145959999D01*
X90000500Y-126627156D01*
X90009366Y-126599866D01*
X90000500Y-126567894D01*
X90000500Y-123882105D01*
X90007897Y-123859337D01*
X90007076Y-123858323D01*
X90006400Y-123854674D01*
X90191093Y-123854674D01*
X90198123Y-123873475D01*
X90199123Y-123884903D01*
X90199500Y-123893533D01*
X90199500Y-126556465D01*
X90199123Y-126565094D01*
X90198123Y-126576523D01*
X90191094Y-126593080D01*
X90195127Y-126601534D01*
X90205795Y-126641350D01*
X90207663Y-126649778D01*
X90214411Y-126688042D01*
X90214412Y-126688045D01*
X90215166Y-126689352D01*
X90225055Y-126713225D01*
X90225446Y-126714685D01*
X90247732Y-126746514D01*
X90252370Y-126753794D01*
X90271803Y-126787452D01*
X90271805Y-126787454D01*
X90271806Y-126787455D01*
X90301583Y-126812441D01*
X90307938Y-126818264D01*
X90620504Y-127130830D01*
X90648281Y-127185347D01*
X90649500Y-127200833D01*
X90649500Y-127369748D01*
X90651036Y-127377469D01*
X90661133Y-127428231D01*
X90705746Y-127494999D01*
X90722354Y-127553887D01*
X90705746Y-127605001D01*
X90661133Y-127671768D01*
X90649499Y-127730253D01*
X90649499Y-128469746D01*
X90661133Y-128528231D01*
X90705746Y-128594999D01*
X90722354Y-128653887D01*
X90705746Y-128705001D01*
X90661133Y-128771768D01*
X90649499Y-128830253D01*
X90649499Y-129569746D01*
X90661133Y-129628231D01*
X90705746Y-129694999D01*
X90722354Y-129753887D01*
X90705746Y-129805001D01*
X90661133Y-129871768D01*
X90649499Y-129930253D01*
X90649499Y-130669746D01*
X90661133Y-130728231D01*
X90705746Y-130794999D01*
X90722354Y-130853887D01*
X90705746Y-130905001D01*
X90661133Y-130971768D01*
X90649499Y-131030253D01*
X90649499Y-131769746D01*
X90661133Y-131828231D01*
X90705746Y-131894999D01*
X90722354Y-131953887D01*
X90705746Y-132005001D01*
X90661133Y-132071768D01*
X90661132Y-132071769D01*
X90661133Y-132071769D01*
X90650453Y-132125464D01*
X90649500Y-132130253D01*
X90649500Y-132850500D01*
X90630593Y-132908691D01*
X90581093Y-132944655D01*
X90550500Y-132949500D01*
X90480252Y-132949500D01*
X90463456Y-132952841D01*
X90421768Y-132961133D01*
X90355447Y-133005447D01*
X90311133Y-133071768D01*
X90299500Y-133130253D01*
X90299500Y-134029746D01*
X90311133Y-134088231D01*
X90355447Y-134154552D01*
X90399762Y-134184162D01*
X90421769Y-134198867D01*
X90480252Y-134210500D01*
X90480253Y-134210500D01*
X93319747Y-134210500D01*
X93319748Y-134210500D01*
X93378231Y-134198867D01*
X93444552Y-134154552D01*
X93488867Y-134088231D01*
X93500500Y-134029748D01*
X93500500Y-133130252D01*
X93488867Y-133071769D01*
X93447928Y-133010500D01*
X93444552Y-133005447D01*
X93378231Y-132961133D01*
X93336544Y-132952841D01*
X93319748Y-132949500D01*
X93319747Y-132949500D01*
X92249500Y-132949500D01*
X92191309Y-132930593D01*
X92155345Y-132881093D01*
X92150500Y-132850500D01*
X92150500Y-132130253D01*
X92150500Y-132130252D01*
X92138867Y-132071769D01*
X92094552Y-132005448D01*
X92094254Y-132005002D01*
X92077645Y-131946114D01*
X92094254Y-131894998D01*
X92094806Y-131894170D01*
X92138867Y-131828231D01*
X92150500Y-131769748D01*
X92150500Y-131399999D01*
X93865072Y-131399999D01*
X93882689Y-131522530D01*
X93934116Y-131635141D01*
X94015181Y-131728694D01*
X94015183Y-131728696D01*
X94119325Y-131795624D01*
X94238103Y-131830500D01*
X94361897Y-131830500D01*
X94480675Y-131795624D01*
X94584817Y-131728696D01*
X94625350Y-131681917D01*
X94665883Y-131635141D01*
X94717310Y-131522530D01*
X94734927Y-131400000D01*
X94717310Y-131277469D01*
X94665883Y-131164858D01*
X94584818Y-131071305D01*
X94584817Y-131071304D01*
X94532746Y-131037840D01*
X94480674Y-131004375D01*
X94361897Y-130969500D01*
X94238103Y-130969500D01*
X94119325Y-131004375D01*
X94015181Y-131071305D01*
X93934116Y-131164858D01*
X93882689Y-131277469D01*
X93865072Y-131399999D01*
X92150500Y-131399999D01*
X92150500Y-131030252D01*
X92138867Y-130971769D01*
X92094552Y-130905448D01*
X92094254Y-130905002D01*
X92077645Y-130846114D01*
X92094254Y-130794998D01*
X92094806Y-130794170D01*
X92138867Y-130728231D01*
X92150500Y-130669748D01*
X92150500Y-129930252D01*
X92138867Y-129871769D01*
X92094552Y-129805448D01*
X92094254Y-129805002D01*
X92077645Y-129746114D01*
X92094254Y-129694998D01*
X92094806Y-129694170D01*
X92138867Y-129628231D01*
X92142587Y-129609527D01*
X92172483Y-129556143D01*
X92214061Y-129533215D01*
X92228806Y-129529263D01*
X92228807Y-129529264D01*
X92266349Y-129519203D01*
X92274777Y-129517335D01*
X92313045Y-129510588D01*
X92314346Y-129509836D01*
X92338232Y-129499942D01*
X92339684Y-129499554D01*
X92371529Y-129477254D01*
X92378785Y-129472632D01*
X92412455Y-129453194D01*
X92437442Y-129423414D01*
X92443254Y-129417070D01*
X94517072Y-127343253D01*
X94523431Y-127337428D01*
X94542154Y-127321718D01*
X94553194Y-127312455D01*
X94572634Y-127278780D01*
X94577254Y-127271529D01*
X94599553Y-127239684D01*
X94599942Y-127238230D01*
X94609833Y-127214351D01*
X94610588Y-127213045D01*
X94617338Y-127174761D01*
X94619198Y-127166367D01*
X94629263Y-127128807D01*
X94625877Y-127090102D01*
X94625500Y-127081473D01*
X94625500Y-124175833D01*
X94633893Y-124150000D01*
X95550000Y-124150000D01*
X95550000Y-133150000D01*
X97332524Y-133150000D01*
X97390715Y-133168907D01*
X97426679Y-133218407D01*
X97426679Y-133279593D01*
X97422578Y-133290126D01*
X97382689Y-133377469D01*
X97365072Y-133499999D01*
X97382689Y-133622530D01*
X97434116Y-133735141D01*
X97515181Y-133828694D01*
X97515183Y-133828696D01*
X97619325Y-133895624D01*
X97738103Y-133930500D01*
X97861897Y-133930500D01*
X97980675Y-133895624D01*
X98084817Y-133828696D01*
X98125350Y-133781917D01*
X98165883Y-133735141D01*
X98217310Y-133622530D01*
X98234927Y-133499999D01*
X98217310Y-133377469D01*
X98177422Y-133290126D01*
X98170448Y-133229339D01*
X98200535Y-133176062D01*
X98256191Y-133150645D01*
X98267476Y-133150000D01*
X99232524Y-133150000D01*
X99290715Y-133168907D01*
X99326679Y-133218407D01*
X99326679Y-133279593D01*
X99322578Y-133290126D01*
X99282689Y-133377469D01*
X99265072Y-133500000D01*
X99282689Y-133622530D01*
X99334116Y-133735141D01*
X99415181Y-133828694D01*
X99415183Y-133828696D01*
X99519325Y-133895624D01*
X99638103Y-133930500D01*
X99761897Y-133930500D01*
X99880675Y-133895624D01*
X99984817Y-133828696D01*
X100025350Y-133781917D01*
X100065883Y-133735141D01*
X100117310Y-133622530D01*
X100134927Y-133499999D01*
X100117310Y-133377469D01*
X100077422Y-133290126D01*
X100070448Y-133229339D01*
X100100535Y-133176062D01*
X100156191Y-133150645D01*
X100167476Y-133150000D01*
X100706766Y-133150000D01*
X100764957Y-133168907D01*
X100800921Y-133218407D01*
X100803864Y-133268314D01*
X100799500Y-133290253D01*
X100799500Y-134029746D01*
X100811133Y-134088231D01*
X100855447Y-134154552D01*
X100899761Y-134184162D01*
X100921769Y-134198867D01*
X100980252Y-134210500D01*
X100980253Y-134210500D01*
X104349747Y-134210500D01*
X104349748Y-134210500D01*
X104408231Y-134198867D01*
X104474552Y-134154552D01*
X104518867Y-134088231D01*
X104530500Y-134029748D01*
X104530500Y-133290252D01*
X104518867Y-133231769D01*
X104504162Y-133209761D01*
X104474552Y-133165447D01*
X104408231Y-133121133D01*
X104349748Y-133109500D01*
X104349747Y-133109500D01*
X103499000Y-133109500D01*
X103440809Y-133090593D01*
X103404845Y-133041093D01*
X103400000Y-133010500D01*
X103400000Y-132650000D01*
X105644318Y-132650000D01*
X105664955Y-132806761D01*
X105725464Y-132952841D01*
X105821717Y-133078282D01*
X105889447Y-133130252D01*
X105947159Y-133174536D01*
X106093238Y-133235044D01*
X106250000Y-133255682D01*
X106406762Y-133235044D01*
X106552841Y-133174536D01*
X106678282Y-133078282D01*
X106774536Y-132952841D01*
X106835044Y-132806762D01*
X106855682Y-132650000D01*
X106835044Y-132493238D01*
X106774536Y-132347159D01*
X106752139Y-132317971D01*
X106678282Y-132221717D01*
X106552841Y-132125464D01*
X106406761Y-132064955D01*
X106250000Y-132044318D01*
X106093238Y-132064955D01*
X105947158Y-132125464D01*
X105821717Y-132221717D01*
X105725464Y-132347158D01*
X105664955Y-132493238D01*
X105644318Y-132650000D01*
X103400000Y-132650000D01*
X103400000Y-131232455D01*
X103418907Y-131174264D01*
X103468407Y-131138300D01*
X103529593Y-131138300D01*
X103536875Y-131140987D01*
X103643238Y-131185044D01*
X103800000Y-131205682D01*
X103956762Y-131185044D01*
X104102841Y-131124536D01*
X104228282Y-131028282D01*
X104324536Y-130902841D01*
X104385044Y-130756762D01*
X104405682Y-130600000D01*
X104385044Y-130443238D01*
X104324536Y-130297159D01*
X104302139Y-130267970D01*
X104228282Y-130171717D01*
X104102841Y-130075464D01*
X103956761Y-130014955D01*
X103800000Y-129994318D01*
X103643236Y-130014955D01*
X103536885Y-130059008D01*
X103475889Y-130063809D01*
X103423720Y-130031839D01*
X103400305Y-129975311D01*
X103400000Y-129967544D01*
X103400000Y-129569746D01*
X103400000Y-129150000D01*
X103399999Y-129150000D01*
X101099000Y-129150000D01*
X101040809Y-129131093D01*
X101004845Y-129081593D01*
X101000000Y-129051000D01*
X101000000Y-127750000D01*
X101594318Y-127750000D01*
X101614955Y-127906761D01*
X101675464Y-128052841D01*
X101771717Y-128178282D01*
X101833207Y-128225464D01*
X101897159Y-128274536D01*
X102043238Y-128335044D01*
X102200000Y-128355682D01*
X102356762Y-128335044D01*
X102502841Y-128274536D01*
X102628282Y-128178282D01*
X102724536Y-128052841D01*
X102785044Y-127906762D01*
X102796500Y-127819748D01*
X103349500Y-127819748D01*
X103358473Y-127864859D01*
X103361133Y-127878231D01*
X103405447Y-127944552D01*
X103449762Y-127974162D01*
X103471769Y-127988867D01*
X103530252Y-128000500D01*
X103530253Y-128000500D01*
X104349747Y-128000500D01*
X104349748Y-128000500D01*
X104408231Y-127988867D01*
X104474552Y-127944552D01*
X104518867Y-127878231D01*
X104530500Y-127819748D01*
X104530500Y-127500000D01*
X108565072Y-127500000D01*
X108582689Y-127622530D01*
X108634116Y-127735141D01*
X108715181Y-127828694D01*
X108715183Y-127828696D01*
X108771454Y-127864859D01*
X108819325Y-127895624D01*
X108951760Y-127934510D01*
X108950867Y-127937550D01*
X108987357Y-127949407D01*
X108999170Y-127959496D01*
X110045503Y-129005829D01*
X110073280Y-129060346D01*
X110074499Y-129075833D01*
X110074499Y-137681330D01*
X110055592Y-137739521D01*
X110050320Y-137746159D01*
X110034117Y-137764859D01*
X109982689Y-137877469D01*
X109965072Y-137999999D01*
X109982689Y-138122530D01*
X110034116Y-138235141D01*
X110115181Y-138328694D01*
X110115183Y-138328696D01*
X110219325Y-138395624D01*
X110338103Y-138430500D01*
X110461897Y-138430500D01*
X110580675Y-138395624D01*
X110684817Y-138328696D01*
X110725350Y-138281917D01*
X110765883Y-138235141D01*
X110817310Y-138122530D01*
X110834927Y-138000000D01*
X110817310Y-137877469D01*
X110765883Y-137764858D01*
X110749680Y-137746159D01*
X110725863Y-137689800D01*
X110725500Y-137681329D01*
X110725500Y-131400000D01*
X112865072Y-131400000D01*
X112882689Y-131522530D01*
X112934116Y-131635141D01*
X113015181Y-131728694D01*
X113015183Y-131728696D01*
X113119325Y-131795624D01*
X113238103Y-131830500D01*
X113361897Y-131830500D01*
X113480675Y-131795624D01*
X113584817Y-131728696D01*
X113625350Y-131681917D01*
X113665883Y-131635141D01*
X113717310Y-131522530D01*
X113734927Y-131399999D01*
X113717310Y-131277469D01*
X113665883Y-131164858D01*
X113584818Y-131071305D01*
X113584817Y-131071304D01*
X113532746Y-131037840D01*
X113480674Y-131004375D01*
X113361897Y-130969500D01*
X113238103Y-130969500D01*
X113119325Y-131004375D01*
X113015181Y-131071305D01*
X112934116Y-131164858D01*
X112882689Y-131277469D01*
X112865072Y-131400000D01*
X110725500Y-131400000D01*
X110725500Y-128918533D01*
X110725877Y-128909903D01*
X110729264Y-128871193D01*
X110719205Y-128833655D01*
X110717335Y-128825220D01*
X110716543Y-128820732D01*
X110710588Y-128786955D01*
X110709834Y-128785650D01*
X110699943Y-128761768D01*
X110699942Y-128761765D01*
X110699554Y-128760316D01*
X110692331Y-128750000D01*
X110994318Y-128750000D01*
X111014955Y-128906761D01*
X111075464Y-129052841D01*
X111171717Y-129178282D01*
X111267970Y-129252139D01*
X111297159Y-129274536D01*
X111443238Y-129335044D01*
X111600000Y-129355682D01*
X111756762Y-129335044D01*
X111902841Y-129274536D01*
X112028282Y-129178282D01*
X112124536Y-129052841D01*
X112185044Y-128906762D01*
X112205682Y-128750000D01*
X112185044Y-128593238D01*
X112124536Y-128447159D01*
X112102139Y-128417971D01*
X112028282Y-128321717D01*
X111902841Y-128225464D01*
X111756761Y-128164955D01*
X111600000Y-128144318D01*
X111443238Y-128164955D01*
X111297158Y-128225464D01*
X111171717Y-128321717D01*
X111075464Y-128447158D01*
X111014955Y-128593238D01*
X110994318Y-128750000D01*
X110692331Y-128750000D01*
X110677260Y-128728477D01*
X110672633Y-128721215D01*
X110653194Y-128687545D01*
X110623428Y-128662568D01*
X110617060Y-128656734D01*
X109453959Y-127493633D01*
X109426182Y-127439116D01*
X109425994Y-127437877D01*
X109417309Y-127377467D01*
X109372250Y-127278801D01*
X109365883Y-127264858D01*
X109284818Y-127171305D01*
X109284817Y-127171304D01*
X109221838Y-127130830D01*
X109180674Y-127104375D01*
X109061897Y-127069500D01*
X108938103Y-127069500D01*
X108819325Y-127104375D01*
X108715181Y-127171305D01*
X108634116Y-127264858D01*
X108582689Y-127377469D01*
X108565072Y-127500000D01*
X104530500Y-127500000D01*
X104530500Y-126730252D01*
X104518867Y-126671769D01*
X104498541Y-126641350D01*
X104474552Y-126605447D01*
X104408231Y-126561133D01*
X104345185Y-126548592D01*
X104291801Y-126518695D01*
X104266186Y-126463129D01*
X104265500Y-126451494D01*
X104265500Y-126185834D01*
X104284407Y-126127643D01*
X104294496Y-126115830D01*
X104510327Y-125899999D01*
X106565072Y-125899999D01*
X106582689Y-126022530D01*
X106634116Y-126135141D01*
X106715181Y-126228694D01*
X106715183Y-126228696D01*
X106819325Y-126295624D01*
X106938103Y-126330500D01*
X107061897Y-126330500D01*
X107180675Y-126295624D01*
X107284817Y-126228696D01*
X107325350Y-126181917D01*
X107365883Y-126135141D01*
X107414569Y-126028533D01*
X107417309Y-126022533D01*
X107417309Y-126022531D01*
X107417310Y-126022530D01*
X107434927Y-125899999D01*
X107417310Y-125777469D01*
X107365883Y-125664858D01*
X107284818Y-125571305D01*
X107284817Y-125571304D01*
X107232746Y-125537840D01*
X107180674Y-125504375D01*
X107061897Y-125469500D01*
X106938103Y-125469500D01*
X106819325Y-125504375D01*
X106715181Y-125571305D01*
X106634116Y-125664858D01*
X106582689Y-125777469D01*
X106565072Y-125899999D01*
X104510327Y-125899999D01*
X104725830Y-125684496D01*
X104773452Y-125660232D01*
X104773240Y-125659510D01*
X104777084Y-125658381D01*
X104780347Y-125656719D01*
X104783623Y-125656461D01*
X104786896Y-125655500D01*
X104786897Y-125655500D01*
X104905675Y-125620624D01*
X105009817Y-125553696D01*
X105080807Y-125471769D01*
X105090883Y-125460141D01*
X105142310Y-125347530D01*
X105159927Y-125225000D01*
X105142310Y-125102469D01*
X105090883Y-124989858D01*
X105009818Y-124896305D01*
X105009817Y-124896304D01*
X104957745Y-124862840D01*
X104905674Y-124829375D01*
X104786897Y-124794500D01*
X104663103Y-124794500D01*
X104544325Y-124829375D01*
X104440181Y-124896305D01*
X104359116Y-124989859D01*
X104307691Y-125102467D01*
X104299027Y-125162720D01*
X104272030Y-125217627D01*
X104271039Y-125218633D01*
X103722940Y-125766732D01*
X103716574Y-125772565D01*
X103686804Y-125797545D01*
X103667371Y-125831204D01*
X103662734Y-125838484D01*
X103640444Y-125870318D01*
X103640053Y-125871780D01*
X103630168Y-125895645D01*
X103629410Y-125896956D01*
X103622662Y-125935223D01*
X103620794Y-125943649D01*
X103610735Y-125981191D01*
X103614123Y-126019903D01*
X103614500Y-126028533D01*
X103614500Y-126451494D01*
X103595593Y-126509685D01*
X103546093Y-126545649D01*
X103534815Y-126548592D01*
X103471768Y-126561133D01*
X103405447Y-126605447D01*
X103361133Y-126671768D01*
X103357636Y-126689348D01*
X103349500Y-126730252D01*
X103349500Y-127819748D01*
X102796500Y-127819748D01*
X102805682Y-127750000D01*
X102785044Y-127593238D01*
X102724536Y-127447159D01*
X102640337Y-127337428D01*
X102628282Y-127321717D01*
X102502841Y-127225464D01*
X102356761Y-127164955D01*
X102220636Y-127147034D01*
X102200000Y-127144318D01*
X102199999Y-127144318D01*
X102043238Y-127164955D01*
X101897158Y-127225464D01*
X101771717Y-127321717D01*
X101675464Y-127447158D01*
X101614955Y-127593238D01*
X101594318Y-127750000D01*
X101000000Y-127750000D01*
X101000000Y-124150001D01*
X101000000Y-124150000D01*
X95550000Y-124150000D01*
X94633893Y-124150000D01*
X94644407Y-124117642D01*
X94654496Y-124105829D01*
X94760325Y-124000000D01*
X109565072Y-124000000D01*
X109582689Y-124122530D01*
X109634116Y-124235141D01*
X109715181Y-124328694D01*
X109715183Y-124328696D01*
X109819325Y-124395624D01*
X109938103Y-124430500D01*
X110061897Y-124430500D01*
X110180675Y-124395624D01*
X110284817Y-124328696D01*
X110325350Y-124281917D01*
X110365883Y-124235141D01*
X110417310Y-124122530D01*
X110434927Y-124000000D01*
X110417310Y-123877469D01*
X110365883Y-123764858D01*
X110284818Y-123671305D01*
X110284817Y-123671304D01*
X110223242Y-123631732D01*
X110180674Y-123604375D01*
X110061897Y-123569500D01*
X109938103Y-123569500D01*
X109819325Y-123604375D01*
X109715181Y-123671305D01*
X109634116Y-123764858D01*
X109582689Y-123877469D01*
X109565072Y-124000000D01*
X94760325Y-124000000D01*
X96305830Y-122454496D01*
X96360347Y-122426719D01*
X96375834Y-122425500D01*
X98783162Y-122425500D01*
X98841353Y-122444407D01*
X98877317Y-122493907D01*
X98877317Y-122555093D01*
X98861704Y-122584767D01*
X98775464Y-122697157D01*
X98714955Y-122843238D01*
X98694318Y-123000000D01*
X98714955Y-123156761D01*
X98775464Y-123302841D01*
X98871717Y-123428282D01*
X98938787Y-123479746D01*
X98997159Y-123524536D01*
X99143238Y-123585044D01*
X99300000Y-123605682D01*
X99456762Y-123585044D01*
X99602841Y-123524536D01*
X99728282Y-123428282D01*
X99824536Y-123302841D01*
X99885044Y-123156762D01*
X99905682Y-123000000D01*
X99885044Y-122843238D01*
X99824536Y-122697159D01*
X99824535Y-122697158D01*
X99824535Y-122697157D01*
X99738296Y-122584767D01*
X99717872Y-122527091D01*
X99735250Y-122468425D01*
X99783792Y-122431178D01*
X99816838Y-122425500D01*
X103101694Y-122425500D01*
X103159885Y-122444407D01*
X103195849Y-122493907D01*
X103198006Y-122530501D01*
X103199500Y-122530501D01*
X103199500Y-123479746D01*
X103211133Y-123538231D01*
X103255447Y-123604552D01*
X103296125Y-123631732D01*
X103321769Y-123648867D01*
X103380252Y-123660500D01*
X103380253Y-123660500D01*
X104349747Y-123660500D01*
X104349748Y-123660500D01*
X104408231Y-123648867D01*
X104474552Y-123604552D01*
X104518867Y-123538231D01*
X104530500Y-123479748D01*
X104530500Y-123000000D01*
X110565072Y-123000000D01*
X110582689Y-123122530D01*
X110634116Y-123235141D01*
X110715181Y-123328694D01*
X110715183Y-123328696D01*
X110819325Y-123395624D01*
X110938103Y-123430500D01*
X111061897Y-123430500D01*
X111180675Y-123395624D01*
X111284817Y-123328696D01*
X111325350Y-123281917D01*
X111365883Y-123235141D01*
X111401677Y-123156762D01*
X111417309Y-123122533D01*
X111417309Y-123122531D01*
X111417310Y-123122530D01*
X111434927Y-122999999D01*
X111417310Y-122877469D01*
X111365883Y-122764858D01*
X111284818Y-122671305D01*
X111284817Y-122671304D01*
X111232745Y-122637840D01*
X111180674Y-122604375D01*
X111061897Y-122569500D01*
X110938103Y-122569500D01*
X110819325Y-122604375D01*
X110715181Y-122671305D01*
X110634116Y-122764858D01*
X110582689Y-122877469D01*
X110565072Y-123000000D01*
X104530500Y-123000000D01*
X104530500Y-122540252D01*
X104530500Y-122530501D01*
X104532785Y-122530501D01*
X104538398Y-122483057D01*
X104579928Y-122438125D01*
X104628306Y-122425500D01*
X106381466Y-122425500D01*
X106390093Y-122425876D01*
X106399719Y-122426719D01*
X106428805Y-122429264D01*
X106428805Y-122429263D01*
X106428807Y-122429264D01*
X106466359Y-122419201D01*
X106474777Y-122417335D01*
X106513045Y-122410588D01*
X106514346Y-122409836D01*
X106538232Y-122399942D01*
X106539684Y-122399554D01*
X106571529Y-122377254D01*
X106578785Y-122372632D01*
X106612455Y-122353194D01*
X106637442Y-122323414D01*
X106643266Y-122317059D01*
X107500831Y-121459496D01*
X107548452Y-121435232D01*
X107548240Y-121434510D01*
X107552085Y-121433380D01*
X107555347Y-121431719D01*
X107558623Y-121431461D01*
X107561896Y-121430500D01*
X107561897Y-121430500D01*
X107680675Y-121395624D01*
X107784817Y-121328696D01*
X107855470Y-121247158D01*
X107865883Y-121235141D01*
X107893715Y-121174196D01*
X107917309Y-121122533D01*
X107917309Y-121122531D01*
X107917310Y-121122530D01*
X107934927Y-121000000D01*
X107917310Y-120877469D01*
X107865883Y-120764858D01*
X107784818Y-120671305D01*
X107784817Y-120671304D01*
X107732745Y-120637840D01*
X107680674Y-120604375D01*
X107561897Y-120569500D01*
X107438103Y-120569500D01*
X107319325Y-120604375D01*
X107215181Y-120671305D01*
X107134116Y-120764859D01*
X107082691Y-120877467D01*
X107074027Y-120937720D01*
X107047030Y-120992627D01*
X107046039Y-120993632D01*
X106294170Y-121745503D01*
X106239653Y-121773281D01*
X106224166Y-121774500D01*
X105426995Y-121774500D01*
X105368804Y-121755593D01*
X105332840Y-121706093D01*
X105332840Y-121644907D01*
X105351152Y-121611869D01*
X105362443Y-121598413D01*
X105368254Y-121592070D01*
X106500829Y-120459496D01*
X106548452Y-120435232D01*
X106548240Y-120434510D01*
X106552084Y-120433381D01*
X106555347Y-120431719D01*
X106558623Y-120431461D01*
X106561896Y-120430500D01*
X106561897Y-120430500D01*
X106680675Y-120395624D01*
X106784817Y-120328696D01*
X106834145Y-120271768D01*
X106853008Y-120249999D01*
X113565072Y-120249999D01*
X113582689Y-120372530D01*
X113634116Y-120485141D01*
X113715181Y-120578694D01*
X113715183Y-120578696D01*
X113819325Y-120645624D01*
X113938103Y-120680500D01*
X114061897Y-120680500D01*
X114180675Y-120645624D01*
X114284817Y-120578696D01*
X114341155Y-120513678D01*
X114365883Y-120485141D01*
X114365884Y-120485139D01*
X114417309Y-120372533D01*
X114425972Y-120312277D01*
X114452965Y-120257374D01*
X114453892Y-120256432D01*
X120467066Y-114243258D01*
X120473410Y-114237444D01*
X120503194Y-114212455D01*
X120522632Y-114178785D01*
X120527254Y-114171529D01*
X120549554Y-114139684D01*
X120549942Y-114138232D01*
X120559838Y-114114343D01*
X120560588Y-114113045D01*
X120567335Y-114074777D01*
X120569204Y-114066348D01*
X120579264Y-114028806D01*
X120575876Y-113990090D01*
X120575499Y-113981460D01*
X120575499Y-112450000D01*
X120894318Y-112450000D01*
X120914955Y-112606761D01*
X120975464Y-112752841D01*
X121071717Y-112878282D01*
X121167971Y-112952139D01*
X121197159Y-112974536D01*
X121343238Y-113035044D01*
X121500000Y-113055682D01*
X121656762Y-113035044D01*
X121802841Y-112974536D01*
X121928282Y-112878282D01*
X122024536Y-112752841D01*
X122085044Y-112606762D01*
X122105682Y-112450000D01*
X122085044Y-112293238D01*
X122024536Y-112147159D01*
X122002139Y-112117970D01*
X121928282Y-112021717D01*
X121802841Y-111925464D01*
X121656761Y-111864955D01*
X121500000Y-111844318D01*
X121343238Y-111864955D01*
X121197158Y-111925464D01*
X121071717Y-112021717D01*
X120975464Y-112147158D01*
X120914955Y-112293238D01*
X120894318Y-112450000D01*
X120575499Y-112450000D01*
X120575499Y-108925833D01*
X120594406Y-108867642D01*
X120604489Y-108855835D01*
X120971824Y-108488500D01*
X121026339Y-108460725D01*
X121086771Y-108470296D01*
X121088495Y-108471196D01*
X121096046Y-108475232D01*
X121294066Y-108535300D01*
X121500000Y-108555583D01*
X121705934Y-108535300D01*
X121903954Y-108475232D01*
X122086450Y-108377685D01*
X122096124Y-108369746D01*
X122989500Y-108369746D01*
X123001133Y-108428231D01*
X123045447Y-108494552D01*
X123072406Y-108512565D01*
X123111769Y-108538867D01*
X123170252Y-108550500D01*
X123170253Y-108550500D01*
X124909747Y-108550500D01*
X124909748Y-108550500D01*
X124968231Y-108538867D01*
X125034552Y-108494552D01*
X125078867Y-108428231D01*
X125090500Y-108369748D01*
X125090500Y-106630252D01*
X125078867Y-106571769D01*
X125064162Y-106549761D01*
X125034552Y-106505447D01*
X124968231Y-106461133D01*
X124909748Y-106449500D01*
X123170252Y-106449500D01*
X123141010Y-106455316D01*
X123111768Y-106461133D01*
X123045447Y-106505447D01*
X123001133Y-106571768D01*
X122989500Y-106630253D01*
X122989500Y-108369746D01*
X122096124Y-108369746D01*
X122246410Y-108246410D01*
X122377685Y-108086450D01*
X122475232Y-107903954D01*
X122535300Y-107705934D01*
X122555583Y-107500000D01*
X122535300Y-107294066D01*
X122475232Y-107096046D01*
X122377685Y-106913550D01*
X122246410Y-106753590D01*
X122086450Y-106622315D01*
X121903954Y-106524768D01*
X121903953Y-106524767D01*
X121903952Y-106524767D01*
X121705933Y-106464699D01*
X121500000Y-106444416D01*
X121294066Y-106464699D01*
X121096047Y-106524767D01*
X120913549Y-106622315D01*
X120753590Y-106753590D01*
X120622315Y-106913549D01*
X120524767Y-107096047D01*
X120464699Y-107294066D01*
X120444416Y-107499999D01*
X120464699Y-107705933D01*
X120524767Y-107903955D01*
X120528804Y-107911507D01*
X120539558Y-107971740D01*
X120512854Y-108026790D01*
X120511496Y-108028176D01*
X120032940Y-108506732D01*
X120026574Y-108512565D01*
X119996804Y-108537545D01*
X119977371Y-108571204D01*
X119972734Y-108578484D01*
X119950444Y-108610318D01*
X119950053Y-108611780D01*
X119940168Y-108635645D01*
X119939410Y-108636956D01*
X119932662Y-108675223D01*
X119930794Y-108683649D01*
X119920735Y-108721191D01*
X119924123Y-108759903D01*
X119924500Y-108768533D01*
X119924500Y-113824165D01*
X119905593Y-113882356D01*
X119895504Y-113894169D01*
X113999170Y-119790504D01*
X113951547Y-119814767D01*
X113951760Y-119815490D01*
X113947915Y-119816618D01*
X113944653Y-119818281D01*
X113941376Y-119818538D01*
X113819325Y-119854375D01*
X113715181Y-119921305D01*
X113634116Y-120014858D01*
X113582689Y-120127469D01*
X113565072Y-120249999D01*
X106853008Y-120249999D01*
X106865883Y-120235141D01*
X106899681Y-120161133D01*
X106917309Y-120122533D01*
X106917309Y-120122531D01*
X106917310Y-120122530D01*
X106934927Y-120000000D01*
X106917310Y-119877469D01*
X106865883Y-119764858D01*
X106784818Y-119671305D01*
X106784817Y-119671304D01*
X106732745Y-119637840D01*
X106680674Y-119604375D01*
X106561897Y-119569500D01*
X106438103Y-119569500D01*
X106319325Y-119604375D01*
X106215181Y-119671305D01*
X106134116Y-119764859D01*
X106082691Y-119877467D01*
X106074027Y-119937720D01*
X106047030Y-119992627D01*
X106046039Y-119993633D01*
X105019170Y-121020504D01*
X104964653Y-121048281D01*
X104949166Y-121049500D01*
X104629500Y-121049500D01*
X104571309Y-121030593D01*
X104535345Y-120981093D01*
X104530500Y-120950500D01*
X104530500Y-120513678D01*
X104549407Y-120455487D01*
X104598907Y-120419523D01*
X104657389Y-120418688D01*
X104684148Y-120426545D01*
X104684150Y-120426545D01*
X104807942Y-120426545D01*
X104926720Y-120391669D01*
X105030862Y-120324741D01*
X105076763Y-120271768D01*
X105111928Y-120231186D01*
X105123682Y-120205448D01*
X105163354Y-120118578D01*
X105172017Y-120058322D01*
X105199010Y-120003419D01*
X105199937Y-120002477D01*
X106202415Y-118999999D01*
X109565072Y-118999999D01*
X109582689Y-119122530D01*
X109634116Y-119235141D01*
X109714824Y-119328282D01*
X109715183Y-119328696D01*
X109819325Y-119395624D01*
X109938103Y-119430500D01*
X110061897Y-119430500D01*
X110180675Y-119395624D01*
X110284817Y-119328696D01*
X110325350Y-119281917D01*
X110365883Y-119235141D01*
X110394847Y-119171718D01*
X110417309Y-119122533D01*
X110417309Y-119122531D01*
X110417310Y-119122530D01*
X110434927Y-119000000D01*
X110417310Y-118877469D01*
X110365883Y-118764858D01*
X110284818Y-118671305D01*
X110284817Y-118671304D01*
X110232745Y-118637840D01*
X110180674Y-118604375D01*
X110061897Y-118569500D01*
X109938103Y-118569500D01*
X109819325Y-118604375D01*
X109715181Y-118671305D01*
X109634116Y-118764858D01*
X109582689Y-118877469D01*
X109565072Y-118999999D01*
X106202415Y-118999999D01*
X107202414Y-118000000D01*
X111565072Y-118000000D01*
X111582689Y-118122530D01*
X111634116Y-118235141D01*
X111703276Y-118314955D01*
X111715183Y-118328696D01*
X111819325Y-118395624D01*
X111938103Y-118430500D01*
X112061897Y-118430500D01*
X112180675Y-118395624D01*
X112284817Y-118328696D01*
X112325350Y-118281917D01*
X112365883Y-118235141D01*
X112417310Y-118122530D01*
X112434927Y-118000000D01*
X112417310Y-117877469D01*
X112365883Y-117764858D01*
X112284818Y-117671305D01*
X112284817Y-117671304D01*
X112232745Y-117637840D01*
X112180674Y-117604375D01*
X112061897Y-117569500D01*
X111938103Y-117569500D01*
X111819325Y-117604375D01*
X111715181Y-117671305D01*
X111634116Y-117764858D01*
X111582689Y-117877469D01*
X111565072Y-118000000D01*
X107202414Y-118000000D01*
X109202416Y-115999999D01*
X110315072Y-115999999D01*
X110332689Y-116122530D01*
X110384116Y-116235141D01*
X110442457Y-116302469D01*
X110465183Y-116328696D01*
X110569325Y-116395624D01*
X110688103Y-116430500D01*
X110811897Y-116430500D01*
X110930675Y-116395624D01*
X111034817Y-116328696D01*
X111075350Y-116281917D01*
X111115883Y-116235141D01*
X111115884Y-116235139D01*
X111167309Y-116122533D01*
X111167309Y-116122531D01*
X111167310Y-116122530D01*
X111184927Y-116000000D01*
X111167309Y-115877469D01*
X111167309Y-115877467D01*
X111156847Y-115854558D01*
X111149872Y-115793772D01*
X111176894Y-115743430D01*
X118431825Y-108488500D01*
X118486340Y-108460725D01*
X118546772Y-108470296D01*
X118548463Y-108471178D01*
X118556046Y-108475232D01*
X118556048Y-108475232D01*
X118556049Y-108475233D01*
X118754066Y-108535300D01*
X118959999Y-108555583D01*
X118959999Y-108555582D01*
X118960000Y-108555583D01*
X119165934Y-108535300D01*
X119363954Y-108475232D01*
X119546450Y-108377685D01*
X119706410Y-108246410D01*
X119837685Y-108086450D01*
X119935232Y-107903954D01*
X119995300Y-107705934D01*
X120015583Y-107500000D01*
X119995300Y-107294066D01*
X119935232Y-107096046D01*
X119837685Y-106913550D01*
X119706410Y-106753590D01*
X119546450Y-106622315D01*
X119363954Y-106524768D01*
X119363953Y-106524767D01*
X119363952Y-106524767D01*
X119165933Y-106464699D01*
X118960000Y-106444416D01*
X118754066Y-106464699D01*
X118556047Y-106524767D01*
X118373549Y-106622315D01*
X118213590Y-106753590D01*
X118082315Y-106913549D01*
X117984767Y-107096047D01*
X117924699Y-107294066D01*
X117904416Y-107499999D01*
X117924699Y-107705933D01*
X117984767Y-107903953D01*
X117988803Y-107911504D01*
X117999558Y-107971737D01*
X117972856Y-108026788D01*
X117971496Y-108028175D01*
X110532940Y-115466732D01*
X110526574Y-115472565D01*
X110496804Y-115497545D01*
X110477371Y-115531204D01*
X110472734Y-115538484D01*
X110450444Y-115570318D01*
X110450053Y-115571780D01*
X110440168Y-115595645D01*
X110439410Y-115596956D01*
X110432662Y-115635223D01*
X110430794Y-115643649D01*
X110416218Y-115698053D01*
X110415558Y-115697876D01*
X110406607Y-115736649D01*
X110396569Y-115750488D01*
X110384117Y-115764859D01*
X110332689Y-115877469D01*
X110315072Y-115999999D01*
X109202416Y-115999999D01*
X114317072Y-110885344D01*
X114323430Y-110879520D01*
X114353194Y-110854546D01*
X114372624Y-110820890D01*
X114377252Y-110813623D01*
X114399554Y-110781775D01*
X114399943Y-110780320D01*
X114409837Y-110756436D01*
X114410588Y-110755136D01*
X114417340Y-110716839D01*
X114419197Y-110708462D01*
X114429263Y-110670898D01*
X114425877Y-110632193D01*
X114425500Y-110623564D01*
X114425500Y-107575833D01*
X114444407Y-107517642D01*
X114454490Y-107505835D01*
X114460326Y-107499999D01*
X115364416Y-107499999D01*
X115384699Y-107705933D01*
X115444767Y-107903952D01*
X115444768Y-107903954D01*
X115542315Y-108086450D01*
X115673590Y-108246410D01*
X115833550Y-108377685D01*
X116016046Y-108475232D01*
X116119889Y-108506732D01*
X116214066Y-108535300D01*
X116419999Y-108555583D01*
X116419999Y-108555582D01*
X116420000Y-108555583D01*
X116625934Y-108535300D01*
X116823954Y-108475232D01*
X117006450Y-108377685D01*
X117166410Y-108246410D01*
X117297685Y-108086450D01*
X117395232Y-107903954D01*
X117455300Y-107705934D01*
X117475583Y-107500000D01*
X117455300Y-107294066D01*
X117395232Y-107096046D01*
X117297685Y-106913550D01*
X117166410Y-106753590D01*
X117006450Y-106622315D01*
X116823954Y-106524768D01*
X116823953Y-106524767D01*
X116823952Y-106524767D01*
X116625933Y-106464699D01*
X116419999Y-106444416D01*
X116214066Y-106464699D01*
X116016047Y-106524767D01*
X115833549Y-106622315D01*
X115673590Y-106753590D01*
X115542315Y-106913549D01*
X115444767Y-107096047D01*
X115384699Y-107294066D01*
X115364416Y-107499999D01*
X114460326Y-107499999D01*
X116108228Y-105852096D01*
X116162743Y-105824321D01*
X116213993Y-105829787D01*
X116420063Y-105909619D01*
X116638755Y-105950500D01*
X116638757Y-105950500D01*
X116861245Y-105950500D01*
X117079936Y-105909619D01*
X117079937Y-105909618D01*
X117079940Y-105909618D01*
X117287401Y-105829247D01*
X117476562Y-105712124D01*
X117640981Y-105562236D01*
X117775058Y-105384689D01*
X117874229Y-105185528D01*
X117935115Y-104971536D01*
X117955643Y-104750000D01*
X122044357Y-104750000D01*
X122064885Y-104971536D01*
X122110114Y-105130500D01*
X122125772Y-105185530D01*
X122224940Y-105384686D01*
X122224941Y-105384687D01*
X122224942Y-105384689D01*
X122359019Y-105562236D01*
X122523438Y-105712124D01*
X122712599Y-105829247D01*
X122920060Y-105909618D01*
X122920063Y-105909619D01*
X123138755Y-105950500D01*
X123138757Y-105950500D01*
X123361245Y-105950500D01*
X123579936Y-105909619D01*
X123579937Y-105909618D01*
X123579940Y-105909618D01*
X123787401Y-105829247D01*
X123976562Y-105712124D01*
X124140981Y-105562236D01*
X124275058Y-105384689D01*
X124374229Y-105185528D01*
X124435115Y-104971536D01*
X124455643Y-104750000D01*
X124435115Y-104528464D01*
X124374229Y-104314472D01*
X124275058Y-104115311D01*
X124140981Y-103937764D01*
X123976562Y-103787876D01*
X123787401Y-103670753D01*
X123787399Y-103670752D01*
X123579936Y-103590380D01*
X123361245Y-103549500D01*
X123361243Y-103549500D01*
X123138757Y-103549500D01*
X123138755Y-103549500D01*
X122920063Y-103590380D01*
X122712600Y-103670752D01*
X122523436Y-103787877D01*
X122359020Y-103937763D01*
X122224940Y-104115313D01*
X122157874Y-104250000D01*
X122125771Y-104314472D01*
X122064885Y-104528464D01*
X122044357Y-104750000D01*
X117955643Y-104750000D01*
X117935115Y-104528464D01*
X117874229Y-104314472D01*
X117775058Y-104115311D01*
X117640981Y-103937764D01*
X117476562Y-103787876D01*
X117287401Y-103670753D01*
X117287399Y-103670752D01*
X117079936Y-103590380D01*
X116861245Y-103549500D01*
X116861243Y-103549500D01*
X116638757Y-103549500D01*
X116638755Y-103549500D01*
X116420063Y-103590380D01*
X116212600Y-103670752D01*
X116023436Y-103787877D01*
X115859020Y-103937763D01*
X115724940Y-104115313D01*
X115625772Y-104314469D01*
X115564885Y-104528464D01*
X115547826Y-104712568D01*
X115544357Y-104750000D01*
X115564885Y-104971536D01*
X115610114Y-105130500D01*
X115625772Y-105185530D01*
X115669935Y-105274222D01*
X115678948Y-105334740D01*
X115651318Y-105388354D01*
X113882940Y-107156732D01*
X113876574Y-107162565D01*
X113846804Y-107187545D01*
X113827371Y-107221204D01*
X113822734Y-107228484D01*
X113800444Y-107260318D01*
X113800053Y-107261780D01*
X113790168Y-107285645D01*
X113789410Y-107286956D01*
X113782662Y-107325223D01*
X113780794Y-107333649D01*
X113770735Y-107371191D01*
X113774123Y-107409903D01*
X113774500Y-107418533D01*
X113774500Y-110466255D01*
X113755593Y-110524446D01*
X113745504Y-110536259D01*
X104745215Y-119536549D01*
X104697592Y-119560812D01*
X104697805Y-119561535D01*
X104693960Y-119562663D01*
X104690698Y-119564326D01*
X104687421Y-119564583D01*
X104565370Y-119600420D01*
X104461226Y-119667350D01*
X104380161Y-119760903D01*
X104328734Y-119873514D01*
X104311117Y-119996045D01*
X104316921Y-120036412D01*
X104306487Y-120096701D01*
X104262609Y-120139343D01*
X104218929Y-120149500D01*
X103336021Y-120149500D01*
X103277830Y-120130593D01*
X103241866Y-120081093D01*
X103241866Y-120019907D01*
X103257478Y-119990233D01*
X103297772Y-119937720D01*
X103324536Y-119902841D01*
X103385044Y-119756762D01*
X103405682Y-119600000D01*
X103405681Y-119599995D01*
X103406738Y-119591970D01*
X103433078Y-119536745D01*
X103486849Y-119507549D01*
X103491970Y-119506738D01*
X103499995Y-119505681D01*
X103500000Y-119505682D01*
X103656762Y-119485044D01*
X103802841Y-119424536D01*
X103928282Y-119328282D01*
X104024536Y-119202841D01*
X104085044Y-119056762D01*
X104105682Y-118900000D01*
X104085044Y-118743238D01*
X104024536Y-118597159D01*
X104002139Y-118567970D01*
X103928282Y-118471717D01*
X103802841Y-118375464D01*
X103656761Y-118314955D01*
X103500000Y-118294318D01*
X103343238Y-118314955D01*
X103197158Y-118375464D01*
X103071717Y-118471717D01*
X102975464Y-118597158D01*
X102914955Y-118743238D01*
X102893261Y-118908030D01*
X102866920Y-118963255D01*
X102813150Y-118992450D01*
X102808030Y-118993261D01*
X102800000Y-118994318D01*
X102784814Y-118996317D01*
X102643238Y-119014955D01*
X102497158Y-119075464D01*
X102371717Y-119171717D01*
X102275464Y-119297158D01*
X102214955Y-119443238D01*
X102194318Y-119600000D01*
X102214955Y-119756761D01*
X102275463Y-119902839D01*
X102275464Y-119902841D01*
X102289632Y-119921305D01*
X102342522Y-119990233D01*
X102362945Y-120047909D01*
X102345567Y-120106575D01*
X102297025Y-120143822D01*
X102263979Y-120149500D01*
X100980252Y-120149500D01*
X100951010Y-120155316D01*
X100921768Y-120161133D01*
X100855447Y-120205447D01*
X100811133Y-120271768D01*
X100805316Y-120301010D01*
X100803075Y-120312282D01*
X100799500Y-120330253D01*
X100799500Y-120950500D01*
X100780593Y-121008691D01*
X100731093Y-121044655D01*
X100700500Y-121049500D01*
X96143522Y-121049500D01*
X96134894Y-121049123D01*
X96130850Y-121048769D01*
X96096191Y-121045736D01*
X96058660Y-121055792D01*
X96050234Y-121057660D01*
X96011955Y-121064411D01*
X96010641Y-121065170D01*
X95986783Y-121075053D01*
X95985315Y-121075446D01*
X95953488Y-121097731D01*
X95946209Y-121102369D01*
X95912543Y-121121807D01*
X95887573Y-121151564D01*
X95881741Y-121157930D01*
X94144170Y-122895504D01*
X94089653Y-122923281D01*
X94074166Y-122924500D01*
X91168522Y-122924500D01*
X91159894Y-122924123D01*
X91155850Y-122923769D01*
X91121191Y-122920736D01*
X91083660Y-122930792D01*
X91075234Y-122932660D01*
X91036955Y-122939411D01*
X91035641Y-122940170D01*
X91011783Y-122950053D01*
X91010315Y-122950446D01*
X90978488Y-122972731D01*
X90971209Y-122977369D01*
X90937543Y-122996807D01*
X90912573Y-123026564D01*
X90906741Y-123032930D01*
X90307940Y-123631732D01*
X90301574Y-123637565D01*
X90271804Y-123662545D01*
X90252371Y-123696204D01*
X90247734Y-123703484D01*
X90225444Y-123735318D01*
X90225053Y-123736780D01*
X90215168Y-123760645D01*
X90214410Y-123761956D01*
X90207662Y-123800223D01*
X90205794Y-123808649D01*
X90195127Y-123848463D01*
X90191093Y-123854674D01*
X90006400Y-123854674D01*
X90000500Y-123822842D01*
X90000500Y-121509746D01*
X90299500Y-121509746D01*
X90311133Y-121568231D01*
X90355447Y-121634552D01*
X90378248Y-121649787D01*
X90421769Y-121678867D01*
X90480252Y-121690500D01*
X90480253Y-121690500D01*
X92349747Y-121690500D01*
X92349748Y-121690500D01*
X92408231Y-121678867D01*
X92421631Y-121669913D01*
X92480516Y-121653304D01*
X92537920Y-121674480D01*
X92568095Y-121714341D01*
X92590017Y-121767265D01*
X92625464Y-121852842D01*
X92721717Y-121978282D01*
X92817971Y-122052139D01*
X92847159Y-122074536D01*
X92993238Y-122135044D01*
X93150000Y-122155682D01*
X93306762Y-122135044D01*
X93452841Y-122074536D01*
X93578282Y-121978282D01*
X93674536Y-121852841D01*
X93735044Y-121706762D01*
X93755682Y-121550000D01*
X93735044Y-121393238D01*
X93674536Y-121247159D01*
X93618550Y-121174196D01*
X93578282Y-121121717D01*
X93452841Y-121025464D01*
X93306761Y-120964955D01*
X93150000Y-120944318D01*
X92993238Y-120964955D01*
X92847158Y-121025464D01*
X92721717Y-121121717D01*
X92708042Y-121139540D01*
X92657618Y-121174196D01*
X92596454Y-121172595D01*
X92547912Y-121135348D01*
X92530500Y-121079273D01*
X92530500Y-120330253D01*
X92529403Y-120324739D01*
X92518867Y-120271769D01*
X92491749Y-120231184D01*
X92474552Y-120205447D01*
X92408231Y-120161133D01*
X92349748Y-120149500D01*
X90480252Y-120149500D01*
X90451010Y-120155316D01*
X90421768Y-120161133D01*
X90355447Y-120205447D01*
X90311133Y-120271768D01*
X90305316Y-120301010D01*
X90303075Y-120312282D01*
X90299500Y-120330253D01*
X90299500Y-121509746D01*
X90000500Y-121509746D01*
X90000500Y-118000000D01*
X101065072Y-118000000D01*
X101082689Y-118122530D01*
X101134116Y-118235141D01*
X101203276Y-118314955D01*
X101215183Y-118328696D01*
X101319325Y-118395624D01*
X101438103Y-118430500D01*
X101561897Y-118430500D01*
X101680675Y-118395624D01*
X101784817Y-118328696D01*
X101825350Y-118281917D01*
X101865883Y-118235141D01*
X101917310Y-118122530D01*
X101934927Y-118000000D01*
X101917310Y-117877469D01*
X101865883Y-117764858D01*
X101784818Y-117671305D01*
X101784817Y-117671304D01*
X101732745Y-117637840D01*
X101680674Y-117604375D01*
X101561897Y-117569500D01*
X101438103Y-117569500D01*
X101319325Y-117604375D01*
X101215181Y-117671305D01*
X101134116Y-117764858D01*
X101082689Y-117877469D01*
X101065072Y-118000000D01*
X90000500Y-118000000D01*
X90000500Y-116425000D01*
X92590072Y-116425000D01*
X92607689Y-116547530D01*
X92659116Y-116660141D01*
X92740181Y-116753694D01*
X92740183Y-116753696D01*
X92844325Y-116820624D01*
X92963103Y-116855500D01*
X93086897Y-116855500D01*
X93205675Y-116820624D01*
X93309817Y-116753696D01*
X93350350Y-116706917D01*
X93390883Y-116660141D01*
X93442310Y-116547530D01*
X93459927Y-116424999D01*
X93442310Y-116302469D01*
X93390883Y-116189858D01*
X93309818Y-116096305D01*
X93309817Y-116096304D01*
X93257745Y-116062840D01*
X93205674Y-116029375D01*
X93086897Y-115994500D01*
X92963103Y-115994500D01*
X92844325Y-116029375D01*
X92740181Y-116096305D01*
X92659116Y-116189858D01*
X92607689Y-116302469D01*
X92590072Y-116425000D01*
X90000500Y-116425000D01*
X90000500Y-114000000D01*
X108265072Y-114000000D01*
X108282689Y-114122530D01*
X108334116Y-114235141D01*
X108415181Y-114328694D01*
X108415183Y-114328696D01*
X108519325Y-114395624D01*
X108638103Y-114430500D01*
X108761897Y-114430500D01*
X108880675Y-114395624D01*
X108984817Y-114328696D01*
X109025350Y-114281917D01*
X109065883Y-114235141D01*
X109091615Y-114178796D01*
X109117309Y-114122533D01*
X109117309Y-114122531D01*
X109117310Y-114122530D01*
X109134927Y-114000000D01*
X109117310Y-113877469D01*
X109065883Y-113764858D01*
X108984818Y-113671305D01*
X108984817Y-113671304D01*
X108932745Y-113637840D01*
X108880674Y-113604375D01*
X108761897Y-113569500D01*
X108638103Y-113569500D01*
X108519325Y-113604375D01*
X108415181Y-113671305D01*
X108334116Y-113764858D01*
X108282689Y-113877469D01*
X108265072Y-114000000D01*
X90000500Y-114000000D01*
X90000500Y-104249999D01*
X91032842Y-104249999D01*
X91051426Y-104438682D01*
X91106462Y-104620116D01*
X91187218Y-104771197D01*
X91195838Y-104787324D01*
X91316117Y-104933883D01*
X91462676Y-105054162D01*
X91462680Y-105054164D01*
X91629883Y-105143537D01*
X91768319Y-105185530D01*
X91811317Y-105198573D01*
X92000000Y-105217157D01*
X92188683Y-105198573D01*
X92279398Y-105171055D01*
X92370116Y-105143537D01*
X92444156Y-105103960D01*
X92537324Y-105054162D01*
X92683883Y-104933883D01*
X92804162Y-104787324D01*
X92853960Y-104694156D01*
X92893537Y-104620116D01*
X92948573Y-104438682D01*
X92967157Y-104249999D01*
X92948573Y-104061317D01*
X92893537Y-103879883D01*
X92804164Y-103712680D01*
X92804162Y-103712676D01*
X92683883Y-103566117D01*
X92537324Y-103445838D01*
X92537320Y-103445835D01*
X92537319Y-103445835D01*
X92370116Y-103356463D01*
X92331459Y-103344736D01*
X92281263Y-103309750D01*
X92261217Y-103251942D01*
X92278979Y-103193391D01*
X92327764Y-103156463D01*
X92331411Y-103155277D01*
X92370115Y-103143537D01*
X92537324Y-103054162D01*
X92683883Y-102933883D01*
X92804162Y-102787324D01*
X92866761Y-102670210D01*
X92889413Y-102627832D01*
X92933518Y-102585425D01*
X92976723Y-102575500D01*
X96023277Y-102575500D01*
X96081468Y-102594407D01*
X96110587Y-102627832D01*
X96195835Y-102787319D01*
X96195838Y-102787324D01*
X96316117Y-102933883D01*
X96462676Y-103054162D01*
X96629885Y-103143537D01*
X96668538Y-103155262D01*
X96718735Y-103190245D01*
X96738782Y-103248053D01*
X96721022Y-103306604D01*
X96672238Y-103343534D01*
X96668541Y-103344736D01*
X96629882Y-103356463D01*
X96462680Y-103445835D01*
X96462676Y-103445837D01*
X96462676Y-103445838D01*
X96316117Y-103566117D01*
X96230245Y-103670752D01*
X96195835Y-103712680D01*
X96106462Y-103879883D01*
X96051426Y-104061317D01*
X96032842Y-104250000D01*
X96051426Y-104438682D01*
X96106462Y-104620116D01*
X96187218Y-104771197D01*
X96195838Y-104787324D01*
X96316117Y-104933883D01*
X96462676Y-105054162D01*
X96462680Y-105054164D01*
X96629883Y-105143537D01*
X96768319Y-105185530D01*
X96811317Y-105198573D01*
X97000000Y-105217157D01*
X97188683Y-105198573D01*
X97279398Y-105171055D01*
X97370116Y-105143537D01*
X97444156Y-105103960D01*
X97537324Y-105054162D01*
X97683883Y-104933883D01*
X97804162Y-104787324D01*
X97853960Y-104694156D01*
X97893537Y-104620116D01*
X97948573Y-104438682D01*
X97967157Y-104249999D01*
X97948573Y-104061317D01*
X97893537Y-103879885D01*
X97891201Y-103875514D01*
X97880443Y-103815282D01*
X97907144Y-103760230D01*
X97961104Y-103731386D01*
X98021713Y-103739768D01*
X98048514Y-103758840D01*
X99345505Y-105055831D01*
X99373281Y-105110346D01*
X99374500Y-105125833D01*
X99374500Y-109581465D01*
X99374123Y-109590095D01*
X99370735Y-109628806D01*
X99380795Y-109666350D01*
X99382663Y-109674778D01*
X99389411Y-109713042D01*
X99389412Y-109713045D01*
X99390166Y-109714352D01*
X99400055Y-109738225D01*
X99400446Y-109739685D01*
X99422732Y-109771514D01*
X99427370Y-109778794D01*
X99446803Y-109812452D01*
X99446805Y-109812454D01*
X99446806Y-109812455D01*
X99476583Y-109837441D01*
X99482938Y-109843264D01*
X100145504Y-110505830D01*
X100173281Y-110560347D01*
X100174500Y-110575834D01*
X100174500Y-111181329D01*
X100155593Y-111239520D01*
X100150320Y-111246159D01*
X100134116Y-111264858D01*
X100082689Y-111377469D01*
X100065072Y-111499999D01*
X100082689Y-111622530D01*
X100134116Y-111735141D01*
X100215181Y-111828694D01*
X100215183Y-111828696D01*
X100319325Y-111895624D01*
X100438103Y-111930500D01*
X100561897Y-111930500D01*
X100680675Y-111895624D01*
X100784817Y-111828696D01*
X100825350Y-111781917D01*
X100865883Y-111735141D01*
X100917310Y-111622530D01*
X100934927Y-111500000D01*
X100917310Y-111377469D01*
X100865883Y-111264858D01*
X100849680Y-111246159D01*
X100825863Y-111189800D01*
X100825500Y-111181329D01*
X100825500Y-110418533D01*
X100825877Y-110409903D01*
X100829264Y-110371193D01*
X100819205Y-110333655D01*
X100817335Y-110325220D01*
X100815188Y-110313042D01*
X100810588Y-110286955D01*
X100809834Y-110285650D01*
X100799943Y-110261768D01*
X100799942Y-110261765D01*
X100799554Y-110260316D01*
X100777260Y-110228477D01*
X100772633Y-110221215D01*
X100753194Y-110187545D01*
X100745948Y-110181465D01*
X100723428Y-110162568D01*
X100717060Y-110156734D01*
X100054496Y-109494169D01*
X100026719Y-109439652D01*
X100025500Y-109424165D01*
X100025500Y-104968533D01*
X100025877Y-104959903D01*
X100029264Y-104921193D01*
X100019205Y-104883655D01*
X100017335Y-104875220D01*
X100016543Y-104870732D01*
X100010588Y-104836955D01*
X100009834Y-104835650D01*
X99999943Y-104811768D01*
X99999942Y-104811765D01*
X99999554Y-104810316D01*
X99977260Y-104778477D01*
X99972633Y-104771215D01*
X99953194Y-104737545D01*
X99923428Y-104712568D01*
X99917060Y-104706734D01*
X97920809Y-102710483D01*
X97893032Y-102655966D01*
X97896075Y-102611746D01*
X97948573Y-102438683D01*
X97967157Y-102250000D01*
X97948573Y-102061317D01*
X97904060Y-101914575D01*
X97893537Y-101879883D01*
X97804164Y-101712680D01*
X97804162Y-101712676D01*
X97683883Y-101566117D01*
X97537324Y-101445838D01*
X97537320Y-101445835D01*
X97537319Y-101445835D01*
X97370116Y-101356463D01*
X97331459Y-101344736D01*
X97281263Y-101309750D01*
X97261217Y-101251942D01*
X97278979Y-101193391D01*
X97327764Y-101156463D01*
X97331411Y-101155277D01*
X97370115Y-101143537D01*
X97537324Y-101054162D01*
X97683883Y-100933883D01*
X97804162Y-100787324D01*
X97858573Y-100685528D01*
X97893537Y-100620116D01*
X97938607Y-100471536D01*
X97948573Y-100438683D01*
X97967157Y-100250000D01*
X97962232Y-100200000D01*
X100965072Y-100200000D01*
X100982689Y-100322530D01*
X101034116Y-100435141D01*
X101115181Y-100528694D01*
X101115183Y-100528696D01*
X101219325Y-100595624D01*
X101303391Y-100620307D01*
X101353897Y-100654842D01*
X101374459Y-100712469D01*
X101374499Y-100715297D01*
X101374499Y-110181465D01*
X101374122Y-110190093D01*
X101370735Y-110228805D01*
X101380795Y-110266350D01*
X101382663Y-110274778D01*
X101389411Y-110313042D01*
X101389412Y-110313045D01*
X101390166Y-110314352D01*
X101400055Y-110338225D01*
X101400446Y-110339685D01*
X101422732Y-110371514D01*
X101427370Y-110378794D01*
X101446803Y-110412452D01*
X101446805Y-110412454D01*
X101446806Y-110412455D01*
X101476583Y-110437441D01*
X101482938Y-110443264D01*
X103831741Y-112792068D01*
X103837565Y-112798424D01*
X103862545Y-112828194D01*
X103862547Y-112828195D01*
X103896203Y-112847627D01*
X103903473Y-112852257D01*
X103935316Y-112874554D01*
X103936761Y-112874941D01*
X103936768Y-112874943D01*
X103960650Y-112884834D01*
X103961955Y-112885588D01*
X103961956Y-112885588D01*
X103961958Y-112885589D01*
X103987029Y-112890008D01*
X104000228Y-112892336D01*
X104008638Y-112894199D01*
X104046193Y-112904263D01*
X104046193Y-112904262D01*
X104046194Y-112904263D01*
X104068978Y-112902269D01*
X104084897Y-112900876D01*
X104093525Y-112900500D01*
X104106140Y-112900500D01*
X104159663Y-112916216D01*
X104244323Y-112970623D01*
X104244325Y-112970624D01*
X104363103Y-113005500D01*
X104486897Y-113005500D01*
X104605675Y-112970624D01*
X104709817Y-112903696D01*
X104775239Y-112828195D01*
X104790883Y-112810141D01*
X104790884Y-112810139D01*
X104842309Y-112697533D01*
X104842309Y-112697531D01*
X104842310Y-112697530D01*
X104859927Y-112575000D01*
X104842310Y-112452469D01*
X104790883Y-112339858D01*
X104709818Y-112246305D01*
X104709817Y-112246304D01*
X104611915Y-112183386D01*
X104605674Y-112179375D01*
X104486897Y-112144500D01*
X104363103Y-112144500D01*
X104230668Y-112183386D01*
X104230199Y-112181788D01*
X104188571Y-112192729D01*
X104131555Y-112170529D01*
X104124222Y-112163895D01*
X102860326Y-110899999D01*
X105165072Y-110899999D01*
X105182689Y-111022530D01*
X105234116Y-111135141D01*
X105315181Y-111228694D01*
X105315183Y-111228696D01*
X105419325Y-111295624D01*
X105538103Y-111330500D01*
X105661897Y-111330500D01*
X105780675Y-111295624D01*
X105884817Y-111228696D01*
X105925860Y-111181329D01*
X105965883Y-111135141D01*
X106017310Y-111022530D01*
X106034927Y-110900000D01*
X106017310Y-110777469D01*
X105965883Y-110664858D01*
X105884818Y-110571305D01*
X105884817Y-110571304D01*
X105785169Y-110507264D01*
X105780674Y-110504375D01*
X105661897Y-110469500D01*
X105538103Y-110469500D01*
X105419325Y-110504375D01*
X105315181Y-110571305D01*
X105234116Y-110664858D01*
X105182689Y-110777469D01*
X105165072Y-110899999D01*
X102860326Y-110899999D01*
X102054496Y-110094169D01*
X102026719Y-110039652D01*
X102025500Y-110024165D01*
X102025500Y-109899999D01*
X108165072Y-109899999D01*
X108182689Y-110022530D01*
X108234116Y-110135141D01*
X108314998Y-110228483D01*
X108315183Y-110228696D01*
X108419325Y-110295624D01*
X108538103Y-110330500D01*
X108661897Y-110330500D01*
X108780675Y-110295624D01*
X108884817Y-110228696D01*
X108947172Y-110156734D01*
X108965883Y-110135141D01*
X108984594Y-110094169D01*
X109017309Y-110022533D01*
X109025972Y-109962277D01*
X109052965Y-109907374D01*
X109053892Y-109906432D01*
X112517072Y-106443253D01*
X112523430Y-106437429D01*
X112531688Y-106430500D01*
X112553194Y-106412455D01*
X112572624Y-106378799D01*
X112577252Y-106371532D01*
X112599554Y-106339684D01*
X112599943Y-106338229D01*
X112609837Y-106314345D01*
X112610588Y-106313045D01*
X112617340Y-106274748D01*
X112619197Y-106266371D01*
X112629263Y-106228807D01*
X112625874Y-106190077D01*
X112625500Y-106181495D01*
X112625500Y-106000000D01*
X113565072Y-106000000D01*
X113582689Y-106122530D01*
X113634116Y-106235141D01*
X113712532Y-106325637D01*
X113715183Y-106328696D01*
X113819325Y-106395624D01*
X113938103Y-106430500D01*
X114061897Y-106430500D01*
X114180675Y-106395624D01*
X114284817Y-106328696D01*
X114338852Y-106266336D01*
X114365883Y-106235141D01*
X114368777Y-106228805D01*
X114417309Y-106122533D01*
X114417309Y-106122531D01*
X114417310Y-106122530D01*
X114434927Y-105999999D01*
X114417310Y-105877469D01*
X114365883Y-105764858D01*
X114284818Y-105671305D01*
X114284817Y-105671304D01*
X114232745Y-105637840D01*
X114180674Y-105604375D01*
X114061897Y-105569500D01*
X113938103Y-105569500D01*
X113819325Y-105604375D01*
X113715181Y-105671305D01*
X113634116Y-105764858D01*
X113582689Y-105877469D01*
X113565072Y-106000000D01*
X112625500Y-106000000D01*
X112625500Y-100879499D01*
X112644407Y-100821309D01*
X112693907Y-100785345D01*
X112698281Y-100784652D01*
X112698240Y-100784510D01*
X112711897Y-100780500D01*
X112830675Y-100745624D01*
X112934817Y-100678696D01*
X112985411Y-100620307D01*
X113015883Y-100585141D01*
X113043373Y-100524945D01*
X113067309Y-100472533D01*
X113067309Y-100472531D01*
X113067310Y-100472530D01*
X113084927Y-100350000D01*
X113070549Y-100250000D01*
X115544357Y-100250000D01*
X115564885Y-100471536D01*
X115623827Y-100678696D01*
X115625772Y-100685530D01*
X115724940Y-100884686D01*
X115724941Y-100884687D01*
X115724942Y-100884689D01*
X115859019Y-101062236D01*
X116023438Y-101212124D01*
X116212599Y-101329247D01*
X116420060Y-101409618D01*
X116420063Y-101409619D01*
X116638755Y-101450500D01*
X116638757Y-101450500D01*
X116861245Y-101450500D01*
X117079936Y-101409619D01*
X117079937Y-101409618D01*
X117079940Y-101409618D01*
X117287401Y-101329247D01*
X117476562Y-101212124D01*
X117640981Y-101062236D01*
X117775058Y-100884689D01*
X117874229Y-100685528D01*
X117935115Y-100471536D01*
X117955643Y-100250000D01*
X122044357Y-100250000D01*
X122064885Y-100471536D01*
X122123827Y-100678696D01*
X122125772Y-100685530D01*
X122224940Y-100884686D01*
X122224941Y-100884687D01*
X122224942Y-100884689D01*
X122359019Y-101062236D01*
X122523438Y-101212124D01*
X122712599Y-101329247D01*
X122920060Y-101409618D01*
X122920063Y-101409619D01*
X123138755Y-101450500D01*
X123138757Y-101450500D01*
X123361245Y-101450500D01*
X123579936Y-101409619D01*
X123579937Y-101409618D01*
X123579940Y-101409618D01*
X123787401Y-101329247D01*
X123976562Y-101212124D01*
X124140981Y-101062236D01*
X124275058Y-100884689D01*
X124374229Y-100685528D01*
X124435115Y-100471536D01*
X124455643Y-100250000D01*
X124435115Y-100028464D01*
X124374229Y-99814472D01*
X124275058Y-99615311D01*
X124140981Y-99437764D01*
X123976562Y-99287876D01*
X123787401Y-99170753D01*
X123787399Y-99170752D01*
X123579936Y-99090380D01*
X123361245Y-99049500D01*
X123361243Y-99049500D01*
X123138757Y-99049500D01*
X123138755Y-99049500D01*
X122920063Y-99090380D01*
X122712600Y-99170752D01*
X122523436Y-99287877D01*
X122359020Y-99437763D01*
X122224940Y-99615313D01*
X122130798Y-99804376D01*
X122125771Y-99814472D01*
X122064885Y-100028464D01*
X122044357Y-100250000D01*
X117955643Y-100250000D01*
X117935115Y-100028464D01*
X117874229Y-99814472D01*
X117775058Y-99615311D01*
X117640981Y-99437764D01*
X117476562Y-99287876D01*
X117287401Y-99170753D01*
X117287399Y-99170752D01*
X117079936Y-99090380D01*
X116861245Y-99049500D01*
X116861243Y-99049500D01*
X116638757Y-99049500D01*
X116638755Y-99049500D01*
X116420063Y-99090380D01*
X116212600Y-99170752D01*
X116023436Y-99287877D01*
X115859020Y-99437763D01*
X115724940Y-99615313D01*
X115630798Y-99804376D01*
X115625771Y-99814472D01*
X115564885Y-100028464D01*
X115544357Y-100250000D01*
X113070549Y-100250000D01*
X113067310Y-100227469D01*
X113015883Y-100114858D01*
X112934818Y-100021305D01*
X112934817Y-100021304D01*
X112846990Y-99964861D01*
X112830674Y-99954375D01*
X112711897Y-99919500D01*
X112588103Y-99919500D01*
X112469325Y-99954375D01*
X112365181Y-100021305D01*
X112284116Y-100114859D01*
X112232691Y-100227467D01*
X112224027Y-100287720D01*
X112197030Y-100342627D01*
X112196039Y-100343633D01*
X112168943Y-100370729D01*
X112114426Y-100398506D01*
X112053994Y-100388935D01*
X112010729Y-100345670D01*
X112001158Y-100285238D01*
X112004829Y-100271426D01*
X112005138Y-100268875D01*
X112005140Y-100268872D01*
X112020500Y-100142372D01*
X112020500Y-99257628D01*
X112005140Y-99131128D01*
X111944818Y-98972070D01*
X111848183Y-98832071D01*
X111848181Y-98832069D01*
X111720854Y-98719266D01*
X111570223Y-98640209D01*
X111405057Y-98599500D01*
X111405056Y-98599500D01*
X111234944Y-98599500D01*
X111234943Y-98599500D01*
X111069776Y-98640209D01*
X110919145Y-98719266D01*
X110791818Y-98832069D01*
X110695182Y-98972070D01*
X110634859Y-99131129D01*
X110619860Y-99254660D01*
X110619500Y-99257628D01*
X110619500Y-100142372D01*
X110619859Y-100145334D01*
X110619860Y-100145339D01*
X110634859Y-100268870D01*
X110642008Y-100287720D01*
X110695182Y-100427930D01*
X110786562Y-100560316D01*
X110791818Y-100567930D01*
X110919145Y-100680733D01*
X110991167Y-100718533D01*
X111069775Y-100759790D01*
X111152359Y-100780144D01*
X111234943Y-100800500D01*
X111234944Y-100800500D01*
X111405057Y-100800500D01*
X111466543Y-100785345D01*
X111570225Y-100759790D01*
X111720852Y-100680734D01*
X111806396Y-100604948D01*
X111862490Y-100580513D01*
X111922234Y-100593716D01*
X111962807Y-100639513D01*
X111970668Y-100670421D01*
X111974123Y-100709903D01*
X111974500Y-100718533D01*
X111974500Y-102754009D01*
X111955593Y-102812200D01*
X111906093Y-102848164D01*
X111844907Y-102848164D01*
X111809851Y-102828112D01*
X111720851Y-102749265D01*
X111570223Y-102670209D01*
X111405057Y-102629500D01*
X111405056Y-102629500D01*
X111234944Y-102629500D01*
X111234943Y-102629500D01*
X111069776Y-102670209D01*
X110919145Y-102749266D01*
X110791818Y-102862069D01*
X110695182Y-103002070D01*
X110634859Y-103161129D01*
X110620081Y-103282843D01*
X110619500Y-103287628D01*
X110619500Y-104472372D01*
X110619859Y-104475334D01*
X110619860Y-104475339D01*
X110634859Y-104598870D01*
X110634860Y-104598872D01*
X110695182Y-104757930D01*
X110791817Y-104897929D01*
X110791818Y-104897930D01*
X110919145Y-105010733D01*
X110997864Y-105052048D01*
X111069775Y-105089790D01*
X111152359Y-105110144D01*
X111234943Y-105130500D01*
X111234944Y-105130500D01*
X111405057Y-105130500D01*
X111486825Y-105110346D01*
X111570225Y-105089790D01*
X111720852Y-105010734D01*
X111809853Y-104931886D01*
X111865943Y-104907452D01*
X111925687Y-104920654D01*
X111966261Y-104966452D01*
X111974499Y-105005990D01*
X111974500Y-106024165D01*
X111955593Y-106082356D01*
X111945504Y-106094169D01*
X108599170Y-109440504D01*
X108551547Y-109464767D01*
X108551760Y-109465490D01*
X108547915Y-109466618D01*
X108544653Y-109468281D01*
X108541376Y-109468538D01*
X108419325Y-109504375D01*
X108315181Y-109571305D01*
X108234116Y-109664858D01*
X108182689Y-109777469D01*
X108165072Y-109899999D01*
X102025500Y-109899999D01*
X102025500Y-105005990D01*
X102044407Y-104947799D01*
X102093907Y-104911835D01*
X102155093Y-104911835D01*
X102190146Y-104931886D01*
X102279148Y-105010734D01*
X102429775Y-105089790D01*
X102512359Y-105110144D01*
X102594943Y-105130500D01*
X102594944Y-105130500D01*
X102765057Y-105130500D01*
X102846825Y-105110346D01*
X102930225Y-105089790D01*
X103080852Y-105010734D01*
X103080851Y-105010734D01*
X103080854Y-105010733D01*
X103181923Y-104921193D01*
X103208183Y-104897929D01*
X103304818Y-104757930D01*
X103365140Y-104598872D01*
X103380500Y-104472372D01*
X103380500Y-103416199D01*
X103580795Y-103416199D01*
X103610185Y-103557634D01*
X103676646Y-103685895D01*
X103719131Y-103731386D01*
X103775245Y-103791469D01*
X103898672Y-103866526D01*
X104037772Y-103905500D01*
X104037773Y-103905500D01*
X104142570Y-103905500D01*
X104145949Y-103905500D01*
X104253111Y-103890771D01*
X104385609Y-103833219D01*
X104497665Y-103742054D01*
X104580971Y-103624037D01*
X104615536Y-103526780D01*
X106315072Y-103526780D01*
X106332689Y-103649310D01*
X106384116Y-103761921D01*
X106445897Y-103833219D01*
X106465183Y-103855476D01*
X106569325Y-103922404D01*
X106688103Y-103957280D01*
X106811897Y-103957280D01*
X106930675Y-103922404D01*
X106964614Y-103900592D01*
X107046792Y-103847781D01*
X107049044Y-103851286D01*
X107079245Y-103833073D01*
X107101671Y-103830500D01*
X107438921Y-103830500D01*
X107492444Y-103846215D01*
X107569325Y-103895624D01*
X107688103Y-103930500D01*
X107811897Y-103930500D01*
X107930675Y-103895624D01*
X108034817Y-103828696D01*
X108075350Y-103781917D01*
X108115883Y-103735141D01*
X108117598Y-103731386D01*
X108167309Y-103622533D01*
X108167309Y-103622531D01*
X108167310Y-103622530D01*
X108184927Y-103499999D01*
X108172878Y-103416199D01*
X109360795Y-103416199D01*
X109390185Y-103557634D01*
X109456646Y-103685895D01*
X109499131Y-103731386D01*
X109555245Y-103791469D01*
X109678672Y-103866526D01*
X109817772Y-103905500D01*
X109817773Y-103905500D01*
X109922570Y-103905500D01*
X109925949Y-103905500D01*
X110033111Y-103890771D01*
X110165609Y-103833219D01*
X110277665Y-103742054D01*
X110360971Y-103624037D01*
X110409346Y-103487921D01*
X110419204Y-103343801D01*
X110407532Y-103287628D01*
X110389814Y-103202365D01*
X110323353Y-103074104D01*
X110224755Y-102968531D01*
X110101328Y-102893474D01*
X110014796Y-102869229D01*
X109962228Y-102854500D01*
X109854051Y-102854500D01*
X109850704Y-102854959D01*
X109850704Y-102854960D01*
X109746888Y-102869229D01*
X109614390Y-102926780D01*
X109502336Y-103017944D01*
X109419028Y-103135963D01*
X109370653Y-103272080D01*
X109360795Y-103416199D01*
X108172878Y-103416199D01*
X108167310Y-103377469D01*
X108115883Y-103264858D01*
X108034818Y-103171305D01*
X108034817Y-103171304D01*
X107979825Y-103135963D01*
X107930674Y-103104375D01*
X107811897Y-103069500D01*
X107688103Y-103069500D01*
X107569323Y-103104376D01*
X107465185Y-103171301D01*
X107444364Y-103195331D01*
X107391968Y-103226927D01*
X107369544Y-103229500D01*
X107107251Y-103229500D01*
X107049060Y-103210593D01*
X107036863Y-103199398D01*
X106930676Y-103131156D01*
X106811897Y-103096280D01*
X106688103Y-103096280D01*
X106569325Y-103131155D01*
X106465181Y-103198085D01*
X106384116Y-103291638D01*
X106332689Y-103404249D01*
X106315072Y-103526780D01*
X104615536Y-103526780D01*
X104629346Y-103487921D01*
X104639204Y-103343801D01*
X104627532Y-103287628D01*
X104609814Y-103202365D01*
X104543353Y-103074104D01*
X104444755Y-102968531D01*
X104321328Y-102893474D01*
X104234796Y-102869229D01*
X104182228Y-102854500D01*
X104074051Y-102854500D01*
X104070704Y-102854959D01*
X104070704Y-102854960D01*
X103966888Y-102869229D01*
X103834390Y-102926780D01*
X103722336Y-103017944D01*
X103639028Y-103135963D01*
X103590653Y-103272080D01*
X103580795Y-103416199D01*
X103380500Y-103416199D01*
X103380500Y-103287628D01*
X103365140Y-103161128D01*
X103304818Y-103002070D01*
X103208183Y-102862071D01*
X103208181Y-102862069D01*
X103080854Y-102749266D01*
X102930223Y-102670209D01*
X102765057Y-102629500D01*
X102765056Y-102629500D01*
X102594944Y-102629500D01*
X102594943Y-102629500D01*
X102429776Y-102670209D01*
X102279148Y-102749265D01*
X102190149Y-102828112D01*
X102134055Y-102852547D01*
X102074311Y-102839344D01*
X102033738Y-102793546D01*
X102025500Y-102754009D01*
X102025500Y-100675990D01*
X102044407Y-100617799D01*
X102093907Y-100581835D01*
X102155093Y-100581835D01*
X102190146Y-100601886D01*
X102279148Y-100680734D01*
X102429775Y-100759790D01*
X102512359Y-100780144D01*
X102594943Y-100800500D01*
X102594944Y-100800500D01*
X102765057Y-100800500D01*
X102826543Y-100785345D01*
X102930225Y-100759790D01*
X103080852Y-100680734D01*
X103080851Y-100680734D01*
X103080854Y-100680733D01*
X103169851Y-100601888D01*
X103208183Y-100567929D01*
X103304818Y-100427930D01*
X103365140Y-100268872D01*
X103380500Y-100142372D01*
X103380500Y-99257628D01*
X103365140Y-99131128D01*
X103304818Y-98972070D01*
X103208183Y-98832071D01*
X103208181Y-98832069D01*
X103080854Y-98719266D01*
X102930223Y-98640209D01*
X102765057Y-98599500D01*
X102765056Y-98599500D01*
X102594944Y-98599500D01*
X102594943Y-98599500D01*
X102429776Y-98640209D01*
X102279145Y-98719266D01*
X102151818Y-98832069D01*
X102055182Y-98972070D01*
X101994859Y-99131129D01*
X101979860Y-99254660D01*
X101979500Y-99257628D01*
X101979500Y-99260615D01*
X101979500Y-99977518D01*
X101960593Y-100035709D01*
X101911093Y-100071673D01*
X101849907Y-100071673D01*
X101800407Y-100035709D01*
X101790446Y-100018644D01*
X101765883Y-99964858D01*
X101684818Y-99871305D01*
X101684817Y-99871304D01*
X101596380Y-99814469D01*
X101580674Y-99804375D01*
X101461897Y-99769500D01*
X101338103Y-99769500D01*
X101219325Y-99804375D01*
X101115181Y-99871305D01*
X101034116Y-99964858D01*
X100982689Y-100077469D01*
X100965072Y-100200000D01*
X97962232Y-100200000D01*
X97948573Y-100061317D01*
X97936435Y-100021304D01*
X97893537Y-99879883D01*
X97804164Y-99712680D01*
X97804162Y-99712676D01*
X97683883Y-99566117D01*
X97537324Y-99445838D01*
X97537320Y-99445835D01*
X97537319Y-99445835D01*
X97370116Y-99356462D01*
X97188682Y-99301426D01*
X96999999Y-99282842D01*
X96811317Y-99301426D01*
X96629883Y-99356462D01*
X96462680Y-99445835D01*
X96316117Y-99566117D01*
X96195835Y-99712680D01*
X96106462Y-99879883D01*
X96051426Y-100061317D01*
X96032842Y-100250000D01*
X96051426Y-100438682D01*
X96106462Y-100620116D01*
X96194780Y-100785345D01*
X96195838Y-100787324D01*
X96316117Y-100933883D01*
X96462676Y-101054162D01*
X96629885Y-101143537D01*
X96668538Y-101155262D01*
X96718735Y-101190245D01*
X96738782Y-101248053D01*
X96721022Y-101306604D01*
X96672238Y-101343534D01*
X96668541Y-101344736D01*
X96629882Y-101356463D01*
X96462680Y-101445835D01*
X96462676Y-101445837D01*
X96462676Y-101445838D01*
X96316116Y-101566116D01*
X96316117Y-101566117D01*
X96195835Y-101712680D01*
X96110587Y-101872168D01*
X96066482Y-101914575D01*
X96023277Y-101924500D01*
X92976723Y-101924500D01*
X92918532Y-101905593D01*
X92889413Y-101872168D01*
X92804164Y-101712680D01*
X92804162Y-101712676D01*
X92683883Y-101566117D01*
X92537324Y-101445838D01*
X92537320Y-101445835D01*
X92537319Y-101445835D01*
X92370114Y-101356462D01*
X92331461Y-101344737D01*
X92281264Y-101309753D01*
X92261217Y-101251944D01*
X92278978Y-101193394D01*
X92327762Y-101156464D01*
X92331461Y-101155263D01*
X92357230Y-101147445D01*
X92370115Y-101143537D01*
X92537324Y-101054162D01*
X92683883Y-100933883D01*
X92804162Y-100787324D01*
X92858573Y-100685528D01*
X92893537Y-100620116D01*
X92938607Y-100471536D01*
X92948573Y-100438683D01*
X92967157Y-100250000D01*
X92948573Y-100061317D01*
X92936435Y-100021304D01*
X92893537Y-99879883D01*
X92804164Y-99712680D01*
X92804162Y-99712676D01*
X92683883Y-99566117D01*
X92537324Y-99445838D01*
X92537320Y-99445835D01*
X92537319Y-99445835D01*
X92370116Y-99356462D01*
X92188682Y-99301426D01*
X91999999Y-99282842D01*
X91811317Y-99301426D01*
X91629883Y-99356462D01*
X91462680Y-99445835D01*
X91316117Y-99566117D01*
X91195835Y-99712680D01*
X91106462Y-99879883D01*
X91051426Y-100061317D01*
X91032842Y-100249999D01*
X91051426Y-100438682D01*
X91106462Y-100620116D01*
X91194780Y-100785345D01*
X91195838Y-100787324D01*
X91316117Y-100933883D01*
X91462676Y-101054162D01*
X91462680Y-101054164D01*
X91629883Y-101143537D01*
X91668539Y-101155263D01*
X91718736Y-101190248D01*
X91738782Y-101248056D01*
X91721021Y-101306607D01*
X91672237Y-101343536D01*
X91668539Y-101344737D01*
X91629883Y-101356462D01*
X91462680Y-101445835D01*
X91462676Y-101445837D01*
X91462676Y-101445838D01*
X91316117Y-101566117D01*
X91195835Y-101712680D01*
X91106462Y-101879883D01*
X91051426Y-102061317D01*
X91032842Y-102250000D01*
X91051426Y-102438682D01*
X91106462Y-102620116D01*
X91195835Y-102787319D01*
X91195838Y-102787324D01*
X91316117Y-102933883D01*
X91462676Y-103054162D01*
X91629885Y-103143537D01*
X91668538Y-103155262D01*
X91718735Y-103190245D01*
X91738782Y-103248053D01*
X91721022Y-103306604D01*
X91672238Y-103343534D01*
X91668541Y-103344736D01*
X91629882Y-103356463D01*
X91462680Y-103445835D01*
X91462676Y-103445837D01*
X91462676Y-103445838D01*
X91316117Y-103566117D01*
X91230245Y-103670752D01*
X91195835Y-103712680D01*
X91106462Y-103879883D01*
X91051426Y-104061317D01*
X91032842Y-104249999D01*
X90000500Y-104249999D01*
X90000500Y-97599500D01*
X90019407Y-97541309D01*
X90068907Y-97505345D01*
X90099500Y-97500500D01*
X125900500Y-97500500D01*
X125958691Y-97519407D01*
G37*
G04 #@! TD.AperFunction*
M02*
