G04 #@! TF.GenerationSoftware,KiCad,Pcbnew,7.0.2-6a45011f42~172~ubuntu22.04.1*
G04 #@! TF.CreationDate,2023-04-25T20:16:16+02:00*
G04 #@! TF.ProjectId,Signal Generator,5369676e-616c-4204-9765-6e657261746f,2*
G04 #@! TF.SameCoordinates,Original*
G04 #@! TF.FileFunction,Soldermask,Bot*
G04 #@! TF.FilePolarity,Negative*
%FSLAX46Y46*%
G04 Gerber Fmt 4.6, Leading zero omitted, Abs format (unit mm)*
G04 Created by KiCad (PCBNEW 7.0.2-6a45011f42~172~ubuntu22.04.1) date 2023-04-25 20:16:16*
%MOMM*%
%LPD*%
G01*
G04 APERTURE LIST*
%ADD10C,0.650000*%
%ADD11O,1.000000X2.100000*%
%ADD12O,1.000000X1.800000*%
%ADD13C,0.001000*%
%ADD14R,1.700000X1.700000*%
%ADD15O,1.700000X1.700000*%
%ADD16C,2.000000*%
%ADD17R,2.200000X2.200000*%
%ADD18C,2.200000*%
%ADD19C,1.524000*%
%ADD20R,3.330000X0.700000*%
%ADD21R,1.830000X1.140000*%
%ADD22R,2.800000X0.860000*%
%ADD23R,0.930000X0.900000*%
%ADD24R,0.780000X1.050000*%
%ADD25R,1.100000X0.700000*%
G04 APERTURE END LIST*
D10*
X109890000Y-103380000D03*
X104110000Y-103380000D03*
D11*
X111320000Y-103880000D03*
D12*
X111320000Y-99700000D03*
D11*
X102680000Y-103880000D03*
D12*
X102680000Y-99700000D03*
D13*
X118837500Y-152400000D03*
X118837500Y-145400000D03*
D14*
X106840000Y-145960000D03*
D15*
X106840000Y-148500000D03*
X104300000Y-145960000D03*
X104300000Y-148500000D03*
D16*
X116750000Y-100250000D03*
X123250000Y-100250000D03*
X116750000Y-104750000D03*
X123250000Y-104750000D03*
D17*
X92685000Y-153800000D03*
D18*
X95225000Y-153800000D03*
X97765000Y-153800000D03*
X100305000Y-153800000D03*
D19*
X92000000Y-100250000D03*
X97000000Y-100250000D03*
X92000000Y-102250000D03*
X97000000Y-102250000D03*
X92000000Y-104250000D03*
X97000000Y-104250000D03*
D14*
X124040000Y-107500000D03*
D15*
X121500000Y-107500000D03*
X118960000Y-107500000D03*
X116420000Y-107500000D03*
D20*
X102665000Y-120700000D03*
D21*
X91415000Y-120920000D03*
D22*
X91900000Y-133580000D03*
D20*
X102665000Y-133660000D03*
D23*
X103865000Y-123010000D03*
D24*
X103940000Y-127275000D03*
D25*
X91400000Y-124800000D03*
X91400000Y-125900000D03*
X91400000Y-127000000D03*
X91400000Y-128100000D03*
X91400000Y-129200000D03*
X91400000Y-130300000D03*
X91400000Y-131400000D03*
X91400000Y-132500000D03*
M02*
